<?xml version="1.0" encoding="utf-8"?>
<!-- Generator: Adobe Illustrator 26.1.0, SVG Export Plug-In . SVG Version: 6.00 Build 0)  -->
<svg version="1.1" xmlns="http://www.w3.org/2000/svg" xmlns:xlink="http://www.w3.org/1999/xlink" x="0px" y="0px"
	 viewBox="0 0 210 180" style="enable-background:new 0 0 210 180;" xml:space="preserve">
<style type="text/css">
	.st0{fill:#010101;}
	.st1{fill:#383938;}
</style>
<g id="Layer_1">
	<g>
		<g>
			<g>
				<path class="st0" d="M39.34,165.64h-1.34l5.2-12.04h1.19l5.17,12.04h-1.36l-1.33-3.16h-6.22L39.34,165.64z M41.11,161.36h5.3
					l-2.65-6.39L41.11,161.36z"/>
				<path class="st0" d="M55.49,159.57c-0.34-0.66-1.07-1.12-1.95-1.12c-0.83,0-1.68,0.36-1.68,1.24c0,0.75,0.6,1.09,1.9,1.36
					c1.87,0.39,2.75,1.09,2.75,2.33c0,1.82-1.53,2.46-2.99,2.46c-1.21,0-2.41-0.48-3.15-1.55l0.92-0.68
					c0.41,0.7,1.28,1.24,2.21,1.24c0.99,0,1.87-0.36,1.87-1.39c0-0.83-0.83-1.17-2.35-1.53c-0.94-0.22-2.28-0.63-2.28-2.14
					c0-1.62,1.39-2.31,2.84-2.31c1.1,0,2.28,0.53,2.79,1.43L55.49,159.57z"/>
				<path class="st0" d="M62.56,157.48c0.87,0,1.92,0.32,2.45,1.68c0.54-1.09,1.51-1.68,2.79-1.68c2.02,0,3.03,1.31,3.03,3.28v4.88
					h-1.16v-4.4c0-1.67-0.56-2.79-2.06-2.79c-1.67,0-2.26,1.48-2.26,2.96v4.23h-1.16V161c0-1.55-0.37-2.55-1.92-2.55
					c-1.1,0-2.31,0.99-2.31,3.11v4.08H58.8v-6.21c0-0.42-0.02-1.21-0.07-1.75h1.1c0.03,0.42,0.07,1.02,0.07,1.36h0.03
					C60.4,158.13,61.42,157.48,62.56,157.48z"/>
				<path class="st0" d="M78.83,160.51c0-1.38-0.75-2.06-2.12-2.06c-0.94,0-1.8,0.37-2.36,0.93l-0.65-0.76
					c0.65-0.65,1.77-1.14,3.13-1.14c1.72,0,3.09,0.95,3.09,2.89v3.48c0,0.61,0.05,1.34,0.14,1.79h-1.04
					c-0.07-0.39-0.12-0.87-0.12-1.29h-0.03c-0.73,1.05-1.61,1.5-2.89,1.5c-1.21,0-2.75-0.65-2.75-2.41c0-2.45,2.7-2.67,5.61-2.67
					V160.51z M78.49,161.67c-1.89,0-4.08,0.2-4.08,1.72c0,1.14,0.97,1.51,1.87,1.51c1.63,0,2.55-1.22,2.55-2.63v-0.59H78.49z"/>
				<path class="st0" d="M87.91,160.51c0-1.38-0.75-2.06-2.12-2.06c-0.94,0-1.8,0.37-2.36,0.93l-0.65-0.76
					c0.65-0.65,1.77-1.14,3.13-1.14c1.72,0,3.09,0.95,3.09,2.89v3.48c0,0.61,0.05,1.34,0.14,1.79h-1.04
					c-0.07-0.39-0.12-0.87-0.12-1.29h-0.03c-0.73,1.05-1.61,1.5-2.89,1.5c-1.21,0-2.75-0.65-2.75-2.41c0-2.45,2.7-2.67,5.61-2.67
					V160.51z M87.57,161.67c-1.89,0-4.08,0.2-4.08,1.72c0,1.14,0.97,1.51,1.87,1.51c1.63,0,2.55-1.22,2.55-2.63v-0.59H87.57z"/>
				<path class="st0" d="M97.51,164.55h6.44v1.09h-7.67v-12.04h7.46v1.09h-6.24v4.15h5.83v1.07h-5.83V164.55z"/>
				<path class="st0" d="M107.47,165.64h-1.16v-12.85h1.16V165.64z"/>
				<path class="st0" d="M124.01,155.77c-0.83-0.88-1.99-1.39-3.48-1.39c-3.09,0-5,2.45-5,5.25s1.9,5.24,5,5.24
					c1.36,0,2.55-0.32,3.25-0.78v-3.65h-2.8v-1.07H125v5.42c-1.31,0.78-2.86,1.17-4.49,1.17c-3.64,0-6.27-2.67-6.27-6.32
					s2.69-6.32,6.27-6.32c1.9,0,3.33,0.61,4.35,1.61L124.01,155.77z"/>
				<path class="st0" d="M131.71,165.85c-2.46,0-4.23-1.79-4.23-4.18c0-2.4,1.77-4.18,4.23-4.18c2.48,0,4.25,1.78,4.25,4.18
					C135.96,164.06,134.2,165.85,131.71,165.85z M131.71,158.45c-1.84,0-3.01,1.43-3.01,3.21c0,1.78,1.17,3.2,3.01,3.2
					c1.85,0,3.03-1.41,3.03-3.2C134.74,159.88,133.57,158.45,131.71,158.45z"/>
				<path class="st0" d="M144.23,165.64c-0.03-0.42-0.07-1.02-0.07-1.36h-0.03c-0.44,0.92-1.6,1.56-2.72,1.56
					c-2.02,0-3.03-1.31-3.03-3.28v-4.88h1.16v4.4c0,1.67,0.49,2.79,2.16,2.79c1.22,0,2.41-0.99,2.41-3.11v-4.08h1.16v6.2
					c0,0.42,0.02,1.21,0.07,1.75H144.23z"/>
				<path class="st0" d="M152.08,157.48c0.87,0,1.92,0.32,2.45,1.68c0.54-1.09,1.51-1.68,2.79-1.68c2.02,0,3.03,1.31,3.03,3.28v4.88
					h-1.16v-4.4c0-1.67-0.56-2.79-2.06-2.79c-1.67,0-2.26,1.48-2.26,2.96v4.23h-1.16V161c0-1.55-0.37-2.55-1.92-2.55
					c-1.1,0-2.31,0.99-2.31,3.11v4.08h-1.16v-6.21c0-0.42-0.02-1.21-0.07-1.75h1.11c0.03,0.42,0.07,1.02,0.07,1.36h0.03
					C149.92,158.13,150.94,157.48,152.08,157.48z"/>
				<path class="st0" d="M163.27,157.69h1.1c0.03,0.42,0.07,1.02,0.07,1.36h0.03c0.44-0.92,1.43-1.56,2.55-1.56
					c0.29,0,0.53,0.02,0.76,0.08l-0.15,1.09c-0.14-0.05-0.51-0.1-0.82-0.1c-1.22,0-2.33,0.88-2.33,3.01v4.08h-1.16v-6.21
					C163.34,159.01,163.32,158.23,163.27,157.69z"/>
				<path class="st0" d="M170.05,155.44c-0.41,0-0.82-0.34-0.82-0.82c0-0.48,0.41-0.82,0.82-0.82c0.41,0,0.82,0.34,0.82,0.82
					C170.87,155.1,170.46,155.44,170.05,155.44z M170.63,165.64h-1.16v-7.96h1.16V165.64z"/>
			</g>
		</g>
		<g>
			<path class="st1" d="M107.11,15.3c19.94,0,37.58,9.99,48.26,25.28c-10.41-18.11-29.84-30.3-52.08-30.3
				c-25.63,0-47.51,16.18-56.18,38.97c2.47-0.06,4.76-0.19,6.89-0.36C63.55,29.01,83.75,15.3,107.11,15.3"/>
			<path class="st1" d="M73.34,123.65c-10.63-7.5-18.7-18.46-22.61-31.25c-1.22-0.06-2.48-0.11-3.8-0.15
				C51.87,105.56,61.29,116.65,73.34,123.65"/>
			<path class="st1" d="M103.44,130.58c-0.41,0-0.82,0-1.24-0.02c3.07,0.55,5.71,0.59,8.93,0.59c22.63,0,44.49-17.08,51.93-38.91
				c-1.36,0.02-2.67,0.07-3.93,0.12C149.06,113.92,126.61,130.58,103.44,130.58"/>
		</g>
		<g>
			<path class="st1" d="M65.18,109.82c-0.29-0.89-0.31-1.84-0.11-2.75c0,0,0-0.01,0-0.01c1.18-5.58,5.89-9.26,11.94-9.3
				c4.39-0.02,8.78-0.01,13.17-0.01c0.27,0,0.55,0,0.82,0c0.02-0.06,0.03-0.12,0.05-0.18c-0.51-0.28-1.03-0.55-1.53-0.86
				c-8.47-5.23-13.44-12.78-14.8-22.69c-0.14-1.05-0.18-2.12-0.19-3.18c-0.02-3.65-0.09-7.31,0.03-10.95
				c0.22-6.93,2.63-13.04,7.04-18.33c4.02-4.82,9.47-8.32,15.53-9.95c4.09-1.1,8.25-1.37,12.42-0.63
				c11.37,2.02,19.24,8.46,23.68,19.08c1.54,3.68,2.07,7.58,2.07,11.56c-0.01,10.08,0,20.17,0,30.25c0,0.34,0,0.67,0,1.12
				c0.34,0,0.61,0,0.89,0c2.3-0.02,4.6-0.04,6.9-0.05c1.44-0.01,1.98,0.65,1.92,2.11c-0.11,2.49-0.74,4.83-1.89,7.04
				c-0.13,0.26-0.11,0.66,0.04,0.91c1.09,1.7,1.72,3.55,1.87,5.57c0.1,1.25-0.1,1.69-1.2,2.27H67.28c-0.77,0-1.5-0.3-2.04-0.85l0,0
				l0,0L65.18,109.82z M105.06,53.63c-1.21,1.5-2.37,3.03-3.63,4.47c-0.77,0.89-1.7,0.91-2.4,0.22c-0.67-0.66-0.67-1.57,0.15-2.35
				c2.68-2.57,4.04-5.71,4.18-9.4c0.01-0.26,0.06-0.53,0.16-0.76c0.3-0.63,0.84-0.94,1.52-0.87c0.71,0.07,1.25,0.45,1.36,1.19
				c0.15,0.93,0.16,1.87,0.33,2.79c1,5.31,5.17,9.31,10.7,10.28c5.01,0.88,10.4-1.66,13.05-6.19c0.16-0.28,0.2-0.77,0.09-1.07
				c-4.37-12.36-17.02-20.05-29.92-17.81c-10.44,1.81-17.61,7.92-21.43,17.86c-0.1,0.26-0.07,0.68,0.07,0.92
				c1.72,2.94,4.21,4.93,7.48,5.91c0.54,0.16,1.1,0.29,1.61,0.54c0.39,0.19,0.66,0.58,0.71,1.01c0.1,0.87-0.28,1.47-1.01,1.74
				c-0.26,0.1-0.54,0.14-0.81,0.2c0,3-0.12,5.97,0.02,8.92c0.18,3.85,1.52,7.6,4.02,10.53c5.77,6.77,14.79,8.41,22.4,4
				c5.39-3.12,8.56-8.97,8.82-15.2c0.11-2.59,0.01-5.19,0.01-7.78c0-0.17-0.05-0.34-0.08-0.56c-3.6,0.61-7.02,0.22-10.25-1.42
				C109,59.15,106.61,56.67,105.06,53.63z M131.92,56.84c-0.11-0.04-0.11-0.04-0.23-0.07c-1.51,1.76-3.37,3.07-5.44,4.07
				c-0.47,0.22-0.59,0.56-0.58,1.06c0.02,2.74,0.03,5.48,0.01,8.23c-0.05,7.42-3.11,13.28-9.11,17.62
				c-0.24,0.18-0.45,0.57-0.46,0.87c-0.03,3.39-0.03,6.79,0,10.19c0,0.45,0.1,0.99,0.36,1.32c1.07,1.38,2.07,2.85,3.36,3.99
				c4.11,3.63,10.06,4.89,15.23,1.82c3.75-2.22,6.06-5.41,6.74-9.83c-0.33,0-0.61,0-0.9,0c-2.22,0.02-4.44,0.04-6.66,0.06
				c-1.53,0.01-2.06-0.52-2.07-2.06c0-0.21,0-0.42,0-0.63c0-10.6,0.01-21.21-0.01-31.81C132.16,60.05,132,58.45,131.92,56.84z
				 M119.07,107.69c-0.5-0.59,0.35,0.1-3.68-1.44c-1.95-0.75-2.29-2.68-1.73-4.69c0.09-0.31-0.51-0.64-0.88-0.64
				c-11.93-0.02-23.87-0.02-35.8-0.02c-2.6,0-4.87,0.81-6.69,2.71c-1.09,1.14-1.84,2.47-2.1,4.09H119.07z M77.97,56.82
				c-0.08,0.88-0.25,1.83-0.25,2.78c-0.03,3.8-0.04,7.61-0.02,11.41c0,0.78,0.07,2.05,0.17,2.82c1.04,7.64,4.64,13.79,10.69,18.46
				c1.56,1.21,3.25,2.24,5.16,3.03c0-2.39,0.02-4.68-0.02-6.97c0-0.23-0.29-0.52-0.52-0.69c-5.91-4.27-8.94-10.04-9.05-17.33
				c-0.04-2.53-0.08-5.07,0.03-7.59c0.05-1.16-0.24-1.87-1.31-2.21c-0.29-0.09-0.7-0.35-0.94-0.54C80.6,58.95,79.3,57.9,77.97,56.82
				z M112.91,97.7v-7.99c-5.35,2.12-10.67,2.11-16.01,0.01v7.98H112.91z M141.82,107.67l-0.88-2.36l-2.66,2.36H141.82z"/>
			<path class="st1" d="M93.83,62.13c-0.86-0.01-1.55-0.69-1.55-1.54c0-0.88,0.72-1.56,1.62-1.54c0.86,0.02,1.52,0.71,1.5,1.57
				C95.38,61.48,94.69,62.13,93.83,62.13z"/>
		</g>
	</g>
</g>
<g id="Layer_2">
	<g>
	</g>
	<g>
	</g>
	<g>
	</g>
	<g>
	</g>
	<g>
	</g>
	<g>
	</g>
</g>
</svg>
