<?xml version="1.0" encoding="utf-8"?>
<!-- Generator: Adobe Illustrator 26.1.0, SVG Export Plug-In . SVG Version: 6.00 Build 0)  -->
<svg version="1.1" id="Layer_1" xmlns="http://www.w3.org/2000/svg" xmlns:xlink="http://www.w3.org/1999/xlink" x="0px" y="0px"
	 viewBox="0 0 285 100" style="enable-background:new 0 0 285 100;" xml:space="preserve">
<style type="text/css">
	.st0{fill:none;stroke:#231F20;stroke-width:2;stroke-miterlimit:10;}
	.st1{fill:none;stroke:#231F20;stroke-width:0.75;stroke-miterlimit:10;}
	.st2{fill:#231F20;}
	.st3{enable-background:new    ;}
</style>
<path class="st0" d="M34.8,2H250c17.7,0,32,14.4,32,32.1v31.4c0,17.7-14.4,32.1-32.1,32.1H34.8c-17.7,0-32.1-14.3-32.1-32.1V34.1
	C2.7,16.4,17.1,2,34.8,2z"/>
<g>
	<line class="st1" x1="30.6" y1="49.8" x2="70.4" y2="49.8"/>
	<g>
		<path class="st2" d="M41.3,59.3c0.2-0.5,0.1-1.1-0.2-1.4L31,49.8l10-8.3c0.4-0.3,0.5-0.9,0.2-1.4c-0.2-0.5-0.7-0.6-1.1-0.3
			l-11.1,9c-0.2,0.2-0.4,0.5-0.4,0.8s0.1,0.7,0.4,0.8l11.1,9c0.1,0.1,0.3,0.2,0.4,0.2C40.9,59.8,41.1,59.7,41.3,59.3z"/>
	</g>
</g>
<g class="st3">
	<path d="M121.3,32c1.8-0.4,4.8-0.7,7.6-0.7c4.2,0,6.9,0.7,8.8,2.4c1.7,1.2,2.7,3.2,2.7,5.7c0,3.2-2.1,5.9-5.5,7.1v0.1
		c3.1,0.7,6.7,3.3,6.7,8.1c0,2.8-1.1,4.9-2.8,6.5c-2.2,2.1-5.9,3-11.1,3c-2.9,0-5.1-0.2-6.5-0.4V32z M125.5,45.3h3.8
		c4.4,0,7-2.4,7-5.5c0-3.7-2.8-5.3-7.1-5.3c-1.9,0-3,0.1-3.7,0.3V45.3z M125.5,60.7c0.9,0.1,2,0.2,3.5,0.2c4.3,0,8.3-1.6,8.3-6.3
		c0-4.4-3.8-6.2-8.4-6.2h-3.5V60.7z"/>
	<path d="M163.5,58.3c0,2,0.1,4,0.3,5.6h-3.8l-0.3-2.9h-0.1c-1.3,1.8-3.8,3.5-7.1,3.5c-4.7,0-7.1-3.3-7.1-6.7c0-5.6,5-8.7,14-8.6
		v-0.5c0-1.9-0.5-5.4-5.3-5.3c-2.2,0-4.5,0.6-6.1,1.7l-1-2.8c1.9-1.2,4.8-2,7.7-2c7.1,0,8.8,4.8,8.8,9.5V58.3z M159.5,52
		c-4.6-0.1-9.8,0.7-9.8,5.2c0,2.8,1.8,4,3.9,4c3.1,0,5-1.9,5.7-3.9c0.1-0.5,0.2-1,0.2-1.3V52z"/>
	<path d="M186.9,63.1c-1.1,0.5-3.6,1.3-6.7,1.3c-7,0-11.6-4.8-11.6-11.9c0-7.2,4.9-12.4,12.5-12.4c2.5,0,4.7,0.6,5.9,1.2l-1,3.2
		c-1-0.5-2.6-1.1-4.9-1.1c-5.3,0-8.2,4-8.2,8.8c0,5.4,3.5,8.7,8.1,8.7c2.4,0,4-0.6,5.2-1.1L186.9,63.1z"/>
	<path d="M196,51.3L196,51.3c0.7-0.8,1.4-1.8,2.1-2.6l6.9-8h5l-8.9,9.6l10.2,13.7h-5.2l-8-11.1l-2.2,2.4v8.7h-4.2V29.8h4.2V51.3z"/>
</g>
</svg>
