<?xml version="1.0" encoding="utf-8"?>
<!-- Generator: Adobe Illustrator 26.1.0, SVG Export Plug-In . SVG Version: 6.00 Build 0)  -->
<svg version="1.1" id="Layer_1" xmlns="http://www.w3.org/2000/svg" xmlns:xlink="http://www.w3.org/1999/xlink" x="0px" y="0px"
	 viewBox="0 0 285 100" style="enable-background:new 0 0 285 100;" xml:space="preserve">
<style type="text/css">
	.st0{fill:none;stroke:#231F20;stroke-width:2;stroke-miterlimit:10;}
	.st1{fill:none;stroke:#231F20;stroke-width:0.75;stroke-miterlimit:10;}
	.st2{fill:#231F20;}
	.st3{font-family:'MyriadPro-Regular';}
	.st4{font-size:48px;}
</style>
<path class="st0" d="M34.8,2H250C267.7,2,282,16.4,282,34.1v31.4c0,17.7-14.4,32.1-32.1,32.1H34.8c-17.7,0-32.1-14.3-32.1-32.1V34.1
	C2.7,16.4,17.1,2,34.8,2z"/>
<g>
	<line class="st1" x1="30.6" y1="49.8" x2="70.4" y2="49.8"/>
	<g>
		<path class="st2" d="M41.3,59.3c0.2-0.5,0.1-1.1-0.2-1.4L31,49.8L41,41.5c0.4-0.3,0.5-0.9,0.2-1.4c-0.2-0.5-0.7-0.6-1.1-0.3
			l-11.1,9c-0.2,0.2-0.4,0.5-0.4,0.8s0.1,0.7,0.4,0.8l11.1,9c0.1,0.1,0.3,0.2,0.4,0.2C40.9,59.8,41.1,59.7,41.3,59.3z"/>
	</g>
</g>
<text transform="matrix(1 0 0 1 117.6951 63.8801)" class="st3 st4">Back</text>
</svg>
