<?xml version="1.0" encoding="utf-8"?>
<!-- Generator: Adobe Illustrator 26.1.0, SVG Export Plug-In . SVG Version: 6.00 Build 0)  -->
<svg version="1.1" id="Layer_1" xmlns="http://www.w3.org/2000/svg" xmlns:xlink="http://www.w3.org/1999/xlink" x="0px" y="0px"
	 viewBox="0 0 700 1080" style="enable-background:new 0 0 700 1080;" xml:space="preserve">
<style type="text/css">
	.st0{fill:none;stroke:#010101;stroke-width:0.425;stroke-miterlimit:10;}
	.st1{fill:none;stroke:#231F20;stroke-width:0.75;stroke-miterlimit:10;}
	.st2{opacity:0.302;fill:none;stroke:#231F20;stroke-width:0.75;stroke-miterlimit:10;}
	.st3{opacity:0.502;fill:none;stroke:#231F20;stroke-width:0.75;stroke-miterlimit:10;}
	.st4{opacity:0.6;fill:none;stroke:#231F20;stroke-width:0.75;stroke-miterlimit:10;}
	.st5{fill:#AB6D50;}
	.st6{fill:#F9E5D6;}
	.st7{fill:#621F2F;}
	.st8{fill:#F9A57A;}
	.st9{fill:#260E12;}
	.st10{fill:#C35E48;}
	.st11{fill:#864A2F;}
	.st12{fill:#260E0E;}
	.st13{fill:#FFFFFF;}
	.st14{fill:#FBB78B;}
	.st15{fill:#48528F;}
	.st16{fill:#C48C53;}
	.st17{fill:#4A2622;}
	.st18{fill:#984E37;}
	.st19{fill:#5F2619;}
	.st20{fill:#511D12;}
	.st21{fill:#7A87C2;}
	.st22{fill:#693622;}
	.st23{fill:#2F1212;}
	.st24{fill:#F26D59;}
	.st25{fill:#BEB7CD;}
	.st26{fill:#D9BDAC;}
	.st27{fill:#1B0E0E;}
</style>
<path class="st0" d="M350.77-25.31C71.38,82.77,168.16,199.85,409.21,295.93C650.25,392,770.77,392,770.77,392"/>
<path class="st0" d="M447.55-20.81C186.42,85.77,264.94,291.42,708.68,351.46"/>
<path class="st0" d="M495.03-4.3c-96.78,43.54-153.39,304.73,208.18,268.7"/>
<g>
	<g>
		<path class="st1" d="M577.95,992.65c-19.24,12.4-40.74,23.51-64.73,32.86c-28.19,11-61.12,17.21-97.69,19.98
			c-62.62,4.76-135.77-0.52-213.56-9c116.76-37.8,192.96-131.03,248.18-228.39c6.81-12.03,14.46-23.85,22.88-35.01
			c32.72-43.57,77.2-77.44,132.15-77.69c15.58-0.05,32.25,0.58,48.41-0.13c30.22-1.39,58.65-7.48,74.97-31.66
			C740.46,717.43,729,895.35,577.95,992.65z"/>
		<path class="st2" d="M728.57,663.61c-25.05,37.11-78.63,31.6-123.38,31.79c-54.96,0.25-99.43,34.11-132.15,77.69
			c58.61-39.37,130.71-58.68,201.13-52.75c-23.38,14.79-45.7,31.27-66.73,49.33c-10.4,8.52-20.63,17.27-30.6,26.3
			c-12.49-4.96-26.05-6.37-39.5-6.54c-23.37,0.32-47.61,5.93-67.33,18.83c-2.02,1.36-4.93,3.55-6.22,4.75
			c2.48-1.42,4.62-2.47,6.83-3.48c22.27-9.61,44.13-11.69,68.68-13.16c12.85-0.48,24.12-0.97,36.02,0.99
			c-13.94,12.7-27.34,25.98-39.84,40.1c-12.74,15.09-25.49,30.17-38.42,45.09c-8.88-4.87-19.98-5.41-29.91-4.72
			c-18.57,1.28-37.59,8.48-53.95,21.67c-1.55,1.28-5.18,4.19-5.38,4.77c6.03-3.19,12.29-5.88,18.96-8.41
			c13.31-5.3,31.99-9.16,40.03-10.54c7.76-1.49,17.48-2.52,23.62-1.86c0.88,0.03,2.95,0.28,5.2,0.74
			c-15.66,18.03-31.6,35.81-48.19,53.01c-16.49,17.03-31.63,31.22-49.75,44.58c-12.18,8.29-25.1,15.45-37.92,22.7
			c-16.45,8.67-29.77,15.29-47.88,22.3c-1.09,0.47-2.15,0.74-3.01,1.12c0.3-0.05,0.59-0.1,0.89-0.15
			c14.33-2.28,28.06-7.18,41.47-12.6c36.59-15.17,67.48-40.41,94.47-65.9c20.96-19.87,40.64-40.97,59.93-62.43
			c-2.67,24.12-9.58,47.42-16.66,70.56c-5.15,17.65-9.24,33.08-15.88,48.54c-18.41,14.28-37.61,27.52-57.53,39.55
			c36.56-2.77,69.5-8.97,97.69-19.98C725.69,942.65,741.99,724.28,728.57,663.61z M569.16,912.97
			c-27.2,32.79-57.85,62.76-91.25,89.2c11.59-20.57,19.86-43.08,24.83-66.11c3.51-16.36,3.88-33.14,3.4-49.81
			c12.16-13.54,24.17-27.22,36.25-40.83c13.63-15.04,28.76-29.67,43.96-43.5c-1.18,20.37-1.68,39.05-5.35,59.39
			C577.74,878.68,573.6,895.86,569.16,912.97z M580.1,899.43c4.88-16.36,8.32-33.07,8.97-50.27c0.9-16.1-0.66-32.15-1.64-48.2
			c14.94-13.54,29.93-26.3,43.61-37.88c10.37-8.5,25.38-21.75,42.7-36.5C652.77,789.09,620.68,847.54,580.1,899.43z"/>
		<path class="st3" d="M683.17,847.55c18.26-43.82,19.44-98.22-10.26-135.2c-5.4-6.72-11.99-12.45-19.32-17.07
			c30.22-1.39,58.65-7.48,74.97-31.66c11.89,53.82,0.43,231.74-150.62,329.04c7.63-9.95,15.64-19.65,23.68-29.16
			C632.31,927.29,664.92,891.34,683.17,847.55z"/>
	</g>
	<path class="st4" d="M595.19,795.98c25.52-20.02,51.05-40.23,73.59-63.64C643.75,752.44,617.45,773.9,595.19,795.98z"/>
	<path class="st4" d="M505.54,889.75c16.49-16.26,33.55-31.96,49.42-48.84c10.28-10.7,19.33-22.52,29.63-33.18
		C556.73,833.31,530.85,862.29,505.54,889.75z"/>
	<path class="st4" d="M411.36,983.19c-20.85,16.04-43.63,26.91-67.65,36.54c-5.57,2.25-11.67,4.53-16.96,6.72
		c4.18-1.3,8.38-2.51,12.56-3.8c34.19-9.84,64.95-28.77,91-52.79c25.23-22.44,48.12-47.43,68.44-74.39
		C471.17,926.19,443.55,958,411.36,983.19z"/>
	<path class="st4" d="M511.48,893.11c-0.89,14.44-3.96,28.69-7.71,42.64c-3.9,15.98-7.78,31.97-13.06,47.56
		c-0.55,1.74-1.35,3.97-1.8,5.38c0.67-1.41,1.32-2.83,1.96-4.26C503.4,955.76,511.66,924.55,511.48,893.11z"/>
	<path class="st4" d="M590.5,805.1c0.77,14.78-0.84,26.46-2.26,40.77c-1.56,14.07-2.47,28.08-3.76,42.07
		c-0.16,1.67-0.44,3.79-0.6,5.15c0.33-1.33,0.63-2.67,0.92-4.01C589.92,861.52,595.22,833.09,590.5,805.1z"/>
	<path class="st4" d="M562.16,799.23c-31.54-2.66-64.25,1.8-93.14,15.01c14.21-5.29,27.03-7.2,41.62-9.58
		c17.47-2.72,35.05-5.1,52.78-4.78c1.84,0,4.48,0.13,5.81,0.17C566.87,799.71,564.52,799.45,562.16,799.23z"/>
	<path class="st4" d="M486.42,885.46c-26.22-0.01-53.19,5.44-75.03,20.57c9.51-5.12,20.17-8.03,30.58-10.97
		c14.91-3.89,28.71-6.87,43.64-8.88c1.79-0.24,4.35-0.43,5.68-0.6C489.67,885.5,488.04,885.46,486.42,885.46z"/>
</g>
<g>
	<g>
		<path class="st5" d="M340.07,324.34c-2.54-11.71-6.94-16.34-15.38-16.62c-15.01-0.51-22.91,5.43-28.74,13.03
			c-3.77,4.91-8.06,8.94-11.75,13.88c-3.93,5.26-9.15,8.46-13.64,13.09c-5.96,6.14-6.62,15.42-0.72,21.89
			c0.12,0.13,0.26,0.22,0.4,0.28c2.29,2.31,6.04,2.94,9.12,3.49c4.51,0.8,9.66,1.39,14.24,1c3.5-0.3,5.69-2.2,7.65-4.99
			c2.61-3.71,5.03-7.29,8.48-10.31c3.61-3.16,7.7-5.42,12.06-7.36c3.83-1.7,7.81-3.37,10.96-6.23
			C339.32,339.52,340.73,327.38,340.07,324.34z"/>
		<path class="st6" d="M352.59,348.5c-1.28-7.55-8.23-13.47-14.91-16.49c-7.23-3.28-15.46-1.76-22.55,1.09
			c-6.29,2.53-13.5,5.47-17.99,10.79c-0.81-1.01,5.27,8.28,8.35,10.65c4.05,3.13,8.16,6.21,12.5,8.95
			c4.03,2.54,8.26,4.78,12.73,6.44c4.01,1.49,9.57,3.55,13.8,2.03c0.39-0.14,0.61-0.43,0.68-0.75c0.18-0.08,0.34-0.23,0.45-0.47
			c2.9-6.12,6.92-12.3,7.15-19.28C352.82,350.46,352.75,349.47,352.59,348.5z"/>
		<path class="st6" d="M282.63,397.67c-0.69,7.81,0.7,12.17,2.31,19.71c-0.02,0.09-0.03,0.18-0.05,0.27
			c1.24,3.84-3.13,30.43-3.27,34.84c-0.11,3.37-0.32,6.77-0.6,10.12c-0.21,2.59-0.97,5.21-0.74,7.81c0.51,5.8,50.6,20.88,77.2-1.12
			c12.38-10.24,14.41-50.09,14.01-59.64c-0.14-3.32-0.14-6.63-0.2-9.94c-0.07-4.04-0.18-8.08-0.82-12.11
			c-3.72-23.46-23.29-31.93-31.09-38.58c-7.3-6.22-15.77-12.02-25.36-13.89c-10.59-2.06-21.53,3.49-28.3,11.42
			c-3.41,3.99-6.5,8.44-9.28,12.9c-1.36,2.19-2.61,4.45-3.71,6.78c-0.93,2-1.55,6.01-2.97,7.56c-0.59,0.65-0.85,1.59-0.29,2.58
			c3.95,7.08,8.38,13.85,13.26,20.3C282.04,391.04,282.66,397.35,282.63,397.67z"/>
		<path class="st7" d="M334.15,354.66c-0.11-1.14-0.99-1.69-1.93-1.23c-3.98,1.95-10.86,5.88-14.98,2.8
			c-1.04-0.77-2.02,0.44-1.86,1.52c-0.1,0.26-0.12,0.56-0.04,0.9c0.62,2.48,1.14,5.06,2.28,7.36c2.65,5.38,8.95,0.34,12.09-2.14
			C335.45,359.36,334.8,361.27,334.15,354.66z"/>
		<path class="st8" d="M338.81,332.2c-0.86-8.84-8.34-19.42-18.95-15.3c-0.08,0.03-0.15,0.07-0.22,0.11c-0.22,0-0.46,0.04-0.7,0.15
			c-5.27,2.38-9.35,5.32-11.34,10.77c-2.03,5.59-1.3,12.79-0.4,18.53c0.81,5.14,2.01,9.36,6.4,12.76
			c8.18,6.34,21.66,3.76,23.53-7.63c0.49-2.99,0.98-6.08,1.3-9.07C338.8,339.1,339.14,335.64,338.81,332.2z"/>
		<path class="st6" d="M226.19,379.07c-3.02-3.14-6.69,2.11-6.69,6.36c0,0.37,0.79,0.77,1.24,0.78
			C223.5,386.25,229.07,382.05,226.19,379.07z"/>
		<path class="st8" d="M238.48,376c-0.03-0.13-0.08-0.26-0.21-0.37c-2.63-2.27-5.07-4.71-7.32-7.34c-0.2-0.23-0.26-0.55-0.15-0.84
			c1-2.75,2.02-5.72,1.2-8.45c-0.83-2.75-2.92-5.85-5.47-7.36c-0.1-1.27-0.55-2.45-1.75-3.22c-0.04-0.03-0.08-0.05-0.13-0.07
			c-0.09-0.09-0.19-0.16-0.35-0.19c-3.77-0.74-9.23-2.17-12.79,0.03c-5.18,3.21-5.06,10.71-3.87,15.9c0.78,3.4,2.48,6.56,4.6,9.33
			c1.15,1.5,2.44,2.9,3.81,4.21c1.36,1.29,13.06,11.38,13.92,11.68c1.48,0.51,1.89-0.35,2.83-1.23c3.36-3.14,5.75-7,5.77-11.67
			C238.57,376.26,238.54,376.12,238.48,376z"/>
		<path class="st6" d="M297.68,338.42c-5.95,1.99-12.31,7.93-16.16,12.77c-4.47,5.63-8.59,11.38-13.58,16.58
			c-4.95,5.17-10.21,10.04-15.05,15.32c-3.82,4.16-7.56,8.71-8.1,14.55c-0.42,4.46-0.33,13.32,4.11,16.03
			c4.6,2.81,14.97-0.95,19.16-2.97c5.78-2.78,13.55-8.15,18.55-12.15c2.71-2.17,9.12-18.49,9.59-22.16
			c0.56-4.38,1.08-8.76,1.55-13.15c0.47-4.39,0.93-8.78,1.27-13.18C299.3,346.73,298.3,338.03,297.68,338.42z"/>
		<path class="st6" d="M255.92,386.12c-0.04-0.3,0.68-2.03-0.18-2.55c-2.47-1.5-4.97-2.95-7.43-4.46c-1.43-0.88-2.82-1.82-4.16-2.82
			c-5.96-4.44-6.54-3.07-7.59-3.85c-1.07-0.8-2.33-2.38-3.4-3.17c-0.52-0.38-1.15-0.34-1.15,0.3c-0.06,4.53-2.01,8.11-4.44,10.96
			c-2.06,2.41-5.89,3.57-7.19,3.61c-0.98,0.04-1.13,1.58-0.53,2.36c0.25,0.32,0.52,0.64,0.8,0.95c0.13,0.14,0.21,0.29,0.26,0.43
			c0.06,0.1,0.11,0.22,0.14,0.36c0.57,2.81,1.45,7.33,3.01,9.72c0.02,0.04,0.05,0.07,0.08,0.1c3.3,4.11,7.15,5.94,11.17,9.17
			c6.01,4.82,11.77,8.92,22.09,7.02C258.22,414.09,256.55,390.78,255.92,386.12z"/>
		<g>
			<path class="st9" d="M220.52,384.9c0.85-0.12,1.65-0.43,2.36-0.9c0.36-0.24,0.02-0.82-0.34-0.58c-0.67,0.45-1.4,0.73-2.2,0.84
				C219.91,384.31,220.1,384.95,220.52,384.9L220.52,384.9z"/>
		</g>
		<g>
			<path class="st9" d="M235.66,374.05c-0.85,6.31-5.39,11.66-11.5,13.48c-0.41,0.12-0.24,0.77,0.18,0.65
				c6.32-1.88,11.09-7.41,11.97-13.95C236.37,373.81,235.72,373.63,235.66,374.05L235.66,374.05z"/>
		</g>
		<g>
			<path class="st9" d="M254.94,384.9c2.4,2.54,3.67,5.75,4.88,8.96c0.15,0.4,0.8,0.23,0.65-0.18c-1.25-3.33-2.57-6.64-5.05-9.26
				C255.11,384.11,254.64,384.59,254.94,384.9L254.94,384.9z"/>
		</g>
		<g>
			<path class="st9" d="M345.12,345.74c-0.12,4.26-1.58,8.28-4.24,11.61c-0.27,0.34,0.21,0.81,0.48,0.48
				c2.77-3.48,4.31-7.63,4.44-12.09C345.81,345.3,345.13,345.31,345.12,345.74L345.12,345.74z"/>
		</g>
		<g>
			<path class="st9" d="M351.03,362.5c-2.13-0.28-3.98,0.6-5.78,1.66c-2.11,1.25-4.16,2.6-6.23,3.9c-4.28,2.7-8.64,5.28-13.42,6.98
				c-0.4,0.14-0.23,0.79,0.18,0.65c4.28-1.52,8.23-3.72,12.09-6.11c2-1.24,3.98-2.52,5.98-3.77c2.19-1.36,4.48-2.99,7.18-2.64
				C351.46,363.22,351.46,362.55,351.03,362.5L351.03,362.5z"/>
		</g>
		<path class="st6" d="M347.07,460.37c0.1-0.3-0.21-0.55-0.45-0.47c-0.01-0.02-0.02-0.04-0.05-0.06c-0.06-0.1-0.12-0.19-0.18-0.28
			c-0.15-0.23-0.32-0.46-0.49-0.68c-0.22-0.28-0.47-0.57-0.77-0.78c-0.49-0.33-1.13-0.47-1.67-0.19c-0.63,0.33-0.84,1.12-1.04,1.75
			c-0.3,0.96-0.49,1.94-0.62,2.93c-0.03,0.2,0.19,0.34,0.36,0.36c1.94,0.19,3.76-0.68,4.89-2.26
			C347.13,460.58,347.13,460.47,347.07,460.37z"/>
		<path class="st8" d="M342.58,451.06c-2.42-0.63-4.59-0.49-4.96,2.18c-0.54,3.92,1.72,13.56,2.17,13.18
			C342.78,463.97,349.01,452.73,342.58,451.06z"/>
		<path class="st6" d="M358.93,372.1c-0.69-0.98-21.89,5.62-24.75,27.73c-0.6,4.63-0.91,11.08-2.12,15.6
			c-1.08,4.02-2.64,7.89-4.23,11.73c-2.49,6.01-5.92,12.31-7.05,18.75c-0.32,1.81-1.59,5.97,0.38,7.09
			c1.51,0.86,4.51,0.08,6.16,0.18c5.4,0.35,13.93,2.64,17.1,7.34c0.83,1.23,2.28,1.04,3.06-0.39c0.31-0.15,12-29.07,15.35-43.84
			C366.05,402.14,367.91,384.86,358.93,372.1z"/>
		<path class="st8" d="M341.23,461.98c-0.14-1.81-0.65-3.68-1-5.4c-0.25-1.24-0.97-2.79-1.05-4c-0.32-4.8-0.05-12.92-2.14-13.82
			c-2.88-1.24-3.17,3.68-3.63,8.15c-0.01,0.1-0.16,0.1-0.17,0c-0.19-1.64-0.43-3.26-0.79-4.87c-0.57-2.55-1.23-5.81-3.59-7.3
			c-0.82-0.52-1.9-0.01-2.16,0.88c-0.14,0.48-0.22,0.96-0.28,1.43c-0.78-2.47-2.03-5.8-4.09-6.1c-3.35-0.49-2.16,3.97-1.78,5.61
			c0.42,1.77,0.84,3.54,1.26,5.32c-0.37-0.8-0.75-1.59-1.16-2.36c-1-1.86-2.84-5.11-5.34-4.61c-1.03,0.21-1.22,1.36-0.88,2.16
			c1.12,2.65,2.19,5.32,3.2,8.01c0.84,2.23,2.3,4.96,2.09,7.43c-0.21,2.56-3.1-1.31-3.65-2.2c-0.64-1.05-1.7-3.12-3.2-2.92
			c-0.28,0.04-0.67,0.01-0.86,0.23c-1.52,1.79-0.04,4.89,0.67,6.75c0.92,2.39,2.17,4.58,3.66,6.63c2.21,3.66,4.98,7.23,9.24,8.47
			c3.06,0.89,6.24,0.35,9.17-0.71c2.65-0.96,6.24-1.87,6.48-5.11C341.29,463.09,341.28,462.54,341.23,461.98z"/>
		<g>
			<path class="st10" d="M321.95,442.86c0.71,2.19,1.17,4.41,1.38,6.7c0.04,0.43,0.71,0.43,0.67,0c-0.22-2.35-0.68-4.63-1.4-6.88
				C322.46,442.27,321.81,442.45,321.95,442.86L321.95,442.86z"/>
		</g>
		<g>
			<path class="st10" d="M326.46,437.74c1.2,3.63,1.28,7.5,2.39,11.14c0.13,0.41,0.78,0.24,0.65-0.18
				c-1.12-3.65-1.19-7.52-2.39-11.14C326.97,437.15,326.32,437.33,326.46,437.74L326.46,437.74z"/>
		</g>
		<g>
			<path class="st10" d="M333.54,448.49c0.17,1.31,0.34,2.61,0.51,3.92c0.06,0.42,0.73,0.43,0.67,0c-0.17-1.31-0.34-2.61-0.51-3.92
				C334.15,448.07,333.48,448.06,333.54,448.49L333.54,448.49z"/>
		</g>
		<g>
			<path class="st9" d="M338.35,385.25c-2.36,6.96-4.1,14.24-5.21,21.5c-0.58,3.8-0.6,7.56-2.09,11.16
				c-1.87,4.53-3.51,9.16-5.51,13.63c-0.18,0.39,0.4,0.73,0.58,0.34c1.94-4.32,3.47-8.8,5.31-13.15c0.79-1.87,1.42-3.72,1.68-5.74
				c0.24-1.88,0.34-3.77,0.61-5.65c1.08-7.4,2.87-14.83,5.27-21.91C339.14,385.02,338.49,384.84,338.35,385.25L338.35,385.25z"/>
		</g>
		<g>
			<path class="st9" d="M365.16,417.86c-1.74,8.64-4.6,17.05-8.16,25.1c-1.71,3.88-3.6,7.68-5.69,11.37c-0.96,1.69-1.95,3.35-3,4.98
				c-1.33,2.07-2.51,3.33-5.04,3.33c-0.43,0-0.43,0.67,0,0.67c3.8,0,5.22-2.92,7-5.87c2.46-4.05,4.64-8.26,6.61-12.56
				c3.92-8.58,7.07-17.59,8.94-26.85C365.89,417.61,365.25,417.43,365.16,417.86L365.16,417.86z"/>
		</g>
		<g>
			<path class="st9" d="M339.05,408.61c-2.34,2.63-4.26,5.55-5.75,8.74c-0.18,0.39,0.4,0.73,0.58,0.34
				c1.46-3.14,3.34-6.02,5.64-8.61C339.82,408.77,339.34,408.29,339.05,408.61L339.05,408.61z"/>
		</g>
		<g>
			<path class="st10" d="M226.48,352c-0.99,0.62-2.53,1.24-3.24,2.2c-0.6,0.81-0.36,2.02-0.04,2.9c0.31,0.84,0.92,1.6,1.79,1.9
				c1.37,0.47,2.4-0.73,3.72-0.76c0.43-0.01,0.43-0.68,0-0.67c-0.53,0.01-0.97,0.14-1.45,0.35c-1.24,0.54-2.53,0.72-3.27-0.68
				c-0.59-1.12-0.61-2.34,0.45-3.18c0.72-0.57,1.59-1.01,2.37-1.49C227.19,352.35,226.85,351.77,226.48,352L226.48,352z"/>
		</g>
		<g>
			<path class="st10" d="M213.13,353.5c1.37-0.68,3.42-0.44,4.9-0.42c1.77,0.03,4.15-0.19,5.44,1.21c0.29,0.32,0.77-0.16,0.48-0.48
				c-1.39-1.51-3.65-1.35-5.54-1.4c-1.73-0.04-4-0.3-5.62,0.5C212.4,353.11,212.74,353.69,213.13,353.5L213.13,353.5z"/>
		</g>
		<g>
			<path class="st10" d="M227.86,358.42c1.1,0.89,1.72,2.12,1.45,3.55c-0.14,0.72-0.48,1.4-1.01,1.92c-0.88,0.84-1.89,0.49-2.75-0.2
				c-1.26-1.02-2.24-2.36-3.75-3.03c-1.55-0.69-3.21-0.56-4.87-0.59c-1.46-0.03-2.65,0.05-4.07,0.47c-0.41,0.12-0.24,0.77,0.18,0.65
				c2.24-0.67,5.45-0.83,7.7-0.2c2.41,0.67,3.46,3.24,5.7,4.08c1.43,0.53,2.69-0.82,3.25-2.04c0.84-1.84,0.16-3.86-1.36-5.09
				C228.01,357.68,227.53,358.15,227.86,358.42L227.86,358.42z"/>
		</g>
		<g>
			<path class="st10" d="M214.82,368.2c1.93-0.8,3.87-1.29,5.97-1.19c1.59,0.07,2.46,0.65,3.17,2.08c0.53,1.06,0.98,2.18,1.47,3.26
				c0.18,0.39,0.76,0.05,0.58-0.34c-0.93-2.06-1.57-5.04-4.11-5.58c-2.39-0.51-5.08,0.22-7.27,1.13
				C214.25,367.72,214.42,368.37,214.82,368.2L214.82,368.2z"/>
		</g>
		<g>
			<path class="st10" d="M227,364.99c0.72,2.07,1.03,4.75-1.57,5.53c-0.41,0.12-0.24,0.77,0.18,0.65c2.98-0.89,2.9-3.89,2.04-6.36
				C227.51,364.41,226.86,364.58,227,364.99L227,364.99z"/>
		</g>
		<path class="st5" d="M334.21,333.68c-1.65-1.02-3.62-1.29-5.18-0.02c-1.44,1.18-1.91,4.28,0.23,4.65
			c1.29,0.23,2.67-0.24,3.99-0.12c0.89,0.08,2.34,0.75,3.08-0.26c0.55-0.74,0.49-1.62-0.05-2.35
			C335.72,334.83,335,334.17,334.21,333.68z"/>
		<path class="st5" d="M309.51,335.59c-0.55,0.73-0.6,1.6-0.05,2.35c0.74,1,2.19,0.34,3.08,0.26c1.31-0.12,2.7,0.34,3.99,0.12
			c2.14-0.38,1.68-3.47,0.23-4.65c-1.55-1.27-3.53-1-5.18,0.02C310.79,334.17,310.07,334.83,309.51,335.59z"/>
		<g>
			<path class="st10" d="M216.43,372.79c1.81,0.55,3.64,0.73,5.52,0.54c0.43-0.04,0.43-0.72,0-0.67c-1.82,0.18-3.59,0.01-5.34-0.52
				C216.2,372.02,216.02,372.67,216.43,372.79L216.43,372.79z"/>
		</g>
		<g>
			<path class="st10" d="M218.73,372.95c-1.02,1.6,2.06,3.38,3.4,3.25c1.36-0.13,2.35-1.12,3.29-2c0.88-0.83,1.11-1.37,0.41-2.47
				c-0.23-0.36-0.82-0.03-0.58,0.34c0.82,1.28-1.47,2.9-2.43,3.25c-0.98,0.35-1.74,0.2-2.53-0.43c-0.33-0.26-1.32-1.06-0.98-1.59
				C219.54,372.92,218.96,372.58,218.73,372.95L218.73,372.95z"/>
		</g>
		<path class="st5" d="M347.72,334.82c-0.15-0.66-0.31-1.31-0.48-1.96c-1.66-6.3-3.76-13.75-8.28-18.64
			c-9.55-10.33-26.86-7.09-36.69,0.98c-3.54,2.9-5.48,8.83-8.69,12.55c-12.08,14.04-17.72,30.16-19.91,38.18c0,0.01,0,0.03,0,0.04
			c0.46,2.82,3.19,2.21,5.03,1.16c1.77-1.01,3.24-1.61,5.32-1.43c2.36,0.2,4.35,0.74,6.29-0.05c2.67-5.63,6.31-12.48,8.66-14.61
			c2.88-2.61,5.12-5.99,7.02-9.35c0.92-1.63,0.25-3.26,1.27-1.64c2.48,3.96,13.31-11.25,15.62-14.35c0.34-0.45,1.87-0.53,2.06,0.01
			c0.88,2.45,2.09,4.78,3.46,7.02c2.48,4.04,4.6,6.88,8.5,9.15c0.54,0.32,0.86,0.91,0.79,1.53c-0.69,6.19-2.49,12.31-5.77,17.61
			c-2.7,4.37-6.58,7.28-10.35,10.39c-0.06,0.14-0.15,0.27-0.29,0.39c-3.86,3.48-7.51,8.01-8.39,13.29c-0.46,2.78,0.4,3.61,3.06,3.2
			c1.87-0.29,3.36-0.64,5.29-0.39c4.79,0.63,8.58,2.63,13.32-0.02c0.02-0.02,0.05-0.04,0.07-0.06c4.25-4.26,7.37-9.59,8.27-15.72
			c0.24-1.66,0.25-3.34,0.17-5.01c-0.08-1.57,1.02-3.23,1.67-4.59c1.27-2.65,2.45-5.31,3.23-8.15
			C349.72,347.96,349.2,341.22,347.72,334.82z"/>
		<path class="st8" d="M309.08,345.17c-0.19-3.48-1.99-7.88-4.39-6.95c-1.07,0.42-1.21,1.52-1.18,2.43c0.1,2.78,0.98,6.39,3.05,8.36
			C309.3,351.61,309.16,346.67,309.08,345.17z"/>
		<g>
			<path class="st9" d="M344.55,460.74c0.38,0.13,0.62,0.44,0.72,0.82c0.1,0.42,0.75,0.24,0.65-0.18c-0.15-0.62-0.59-1.08-1.19-1.29
				C344.32,459.94,344.14,460.59,344.55,460.74L344.55,460.74z"/>
		</g>
		<g>
			<path class="st9" d="M304.41,352.98c-0.38,5.14,2.31,10.4,4.5,14.91c0.19,0.39,0.77,0.05,0.58-0.34
				c-2.12-4.38-4.78-9.57-4.4-14.57C305.12,352.55,304.44,352.55,304.41,352.98L304.41,352.98z"/>
		</g>
		<g>
			<path class="st9" d="M283.63,382.88c-1.25,7.68-1.38,15.46-0.37,23.17c0.06,0.42,0.73,0.43,0.67,0c-1-7.65-0.89-15.38,0.34-22.99
				C284.35,382.63,283.7,382.45,283.63,382.88L283.63,382.88z"/>
		</g>
		<g>
			<path class="st11" d="M311.5,317.73c-4.87,4.06-6.59,10.39-7.06,16.48c-0.03,0.43,0.64,0.43,0.67,0
				c0.46-5.92,2.14-12.06,6.87-16.01C312.31,317.93,311.83,317.45,311.5,317.73L311.5,317.73z"/>
		</g>
		<g>
			<path class="st11" d="M298.51,320.58c-4.41,5.92-5.37,13.19-8.51,19.71c-1.76,3.66-4.3,6.17-7.64,8.44
				c-2.74,1.87-5.56,4.01-6.14,7.48c-0.07,0.42,0.58,0.61,0.65,0.18c0.73-4.32,4.89-6.23,8.04-8.63c2.61-1.99,4.5-4.61,5.87-7.57
				c2.97-6.41,3.99-13.49,8.3-19.27C299.35,320.57,298.76,320.24,298.51,320.58L298.51,320.58z"/>
		</g>
		<g>
			<path class="st11" d="M336.2,327.63c1.09,4.5,1.63,9.08,1.62,13.71c0,0.43,0.67,0.43,0.67,0c0.01-4.69-0.55-9.33-1.65-13.89
				C336.74,327.03,336.1,327.21,336.2,327.63L336.2,327.63z"/>
		</g>
		<g>
			<path class="st11" d="M341.38,368.55c-1.78,2.27-3.57,4.53-5.33,6.83c-1.59,2.08-3.02,4.24-3.7,6.8
				c-0.11,0.42,0.54,0.6,0.65,0.18c0.7-2.66,2.25-4.86,3.92-7.01c1.64-2.11,3.29-4.21,4.94-6.32
				C342.12,368.68,341.64,368.2,341.38,368.55L341.38,368.55z"/>
		</g>
		<path class="st12" d="M333.01,341.75c-0.08-1.1-0.78-2.78-2.36-2c-1.58,0.77-1.56,4.08-0.23,5.12
			C332.39,346.4,333.1,342.89,333.01,341.75z"/>
		<path class="st12" d="M311.75,342.24c0.08-1.1,0.78-2.78,2.36-2c1.58,0.77,1.56,4.08,0.23,5.12
			C312.37,346.89,311.66,343.38,311.75,342.24z"/>
		<g>
			<path class="st10" d="M321.01,344.92c-0.45,0.95-0.91,1.98-0.61,3.04c0.26,0.92,1.03,1.49,1.79,1.99
				c0.36,0.24,0.7-0.34,0.34-0.58c-0.63-0.42-1.25-0.85-1.46-1.62c-0.24-0.88,0.15-1.71,0.52-2.49
				C321.77,344.87,321.19,344.53,321.01,344.92L321.01,344.92z"/>
		</g>
		<g>
			<path class="st10" d="M324.2,349.19c0.38-0.4,0.87-0.61,1.43-0.61c0.43,0,0.43-0.67,0-0.67c-0.72,0-1.4,0.28-1.9,0.8
				C323.42,349.02,323.9,349.5,324.2,349.19L324.2,349.19z"/>
		</g>
		<path class="st13" d="M327.6,350.67c-2.53,1.09-5.22,1.24-7.87,0.52c-1.55-0.42-0.46,1.65-0.08,2.07c2.3,2.59,7.28,1.43,8.82-1.47
			C328.87,351.03,328.32,350.36,327.6,350.67z"/>
	</g>
	<path class="st14" d="M475.72,414.13c-1.69-2.04-7.32-5.31-11.13-6.3c-0.2-0.09-0.42-0.12-0.67-0.05
		c-3.53,0.96-6.53,2.85-9.65,4.69c-1.75,1.03-3.52,2.01-5.33,2.93c-0.95,0.48-2.65,0.92-3.32,1.84c-1.31,1.82,0.2,5.56,0.99,7.33
		c1.28,2.85,10.05,18.23,12.73,20.03C471.36,452.71,484.95,425.3,475.72,414.13z"/>
	<path class="st15" d="M356.03,468.87c-1.51-5.12-9.67-12.54-9.67-12.34c-2.34,1.11,0.52,13.44,1.45,16.31
		c0.91,2.8,5.62,13.53,10,11.4c1.82-0.89,0.58-5.49,0.53-7.34C358.25,474.12,356.81,471.5,356.03,468.87z"/>
	<path class="st14" d="M365.21,474.29c-1.27-6.37-3.24-15.45-9.86-18.18c-0.5-0.21-0.97-0.12-1.33,0.12c-0.37-0.22-0.85-0.27-1.33,0
		c-3.19,1.77-6.42,3.47-9.67,5.12c-0.01-0.14-0.02-0.27-0.04-0.41c-0.23-1.96-0.67-8.1-2.51-9.37c-1.83-1.25-3.43,1.53-3.88,4.29
		c-0.7-1.75-1.97-5.19-2.84-6.88c-1-1.94-2.69-5.35-4.41-6.79c-0.89-0.74-3.47-0.72-4.03,0.89c-0.37,1.06,0.19,3.52,1.02,4.3
		c-2.4-2.25-6.07-5.34-9.64-4.67c-1.74,0.33-2.7,1.89-1.95,3.4c0.54,1.08,2.78,2.99,4.06,4.5c0.49,0.58,0.78,1.16,0,0.96
		c-0.98-0.25-1.93-0.7-2.43-0.81c-1.08-0.24-2.39-0.76-3.47-0.27c-0.4,0.18-0.97,0.73-1.02,1.2c-0.4,3.56,4.44,4.68,6.77,6.43
		c2.73,2.06,2.56,2.36,2.87,2.83c0.08,0.12-0.04,0.27-0.17,0.21c-4.1-1.75-9.06-3.73-10.97-0.94c-0.96,1.41-0.2,2.61,0.98,3.54
		c3.36,2.66,7.28,3.5,10.23,6.92c3.51,4.09,6.12,12.45,12.14,13.59c5.25,0.99,10.8-1.12,15.52-3.18
		C353.81,479.1,365.39,475.2,365.21,474.29z"/>
	<path class="st15" d="M476.78,531.81c-0.07-4.17-3-26.19-3.72-30.3c-1.4-7.95-3.94-15.66-7.11-23.07
		c-3.37-7.89-7.43-15.47-11.86-22.8c-3.35-5.56-7.66-12.85-13.71-15.86c-1.59-0.79-3-0.54-3.8,1.08c-0.74,1.5-0.95,3.76-1.29,5.37
		c-0.52,2.44-0.97,4.89-1.35,7.35c-1.38,8.93-1.69,17.89-1.55,26.91c0.34,20.86,3.28,59.58,3.68,80.44c-0.09,0.13,3.37,5,3.37,4.86
		c2.22-10.07,9.26-15.24,15.67-19.18c3.2-1.97,6.59-3.64,10.11-4.94c2.91-1.07,7.02-1.36,9.57-3.18
		C477.01,536.91,476.82,534.27,476.78,531.81z"/>
	<path class="st16" d="M459.81,504.13l0.95,3.15c0.68,2.24,1.76,4.48,1.19,6.79c-3.81,15.58-2.99,29.08-3.31,45.18
		c-0.54,27.06,2.33,90.08,5.55,120.03c0.07,0.65,0.33,1.27,0.79,1.73c6.81,6.83,29.73,7.23,38.56,1.11c1.01-0.7,2.11-1.2,2.05-2.43
		c-0.31-7.41-1.45-27.1-1.26-30.16c0.61-9.76,0.66-18.05,0.93-26.61c0.28-8.8-0.83-17.88,1.43-26.43c1.95-7.4,5.62-14.21,7.89-21.5
		c2.51-8.08,2.07-16.08,0.76-24.47c-0.65-4.16-1.35-8.31-1.61-12.49c-0.29-4.79-0.07-9.59-0.75-14.37
		c-0.92-6.55-3.63-12.67-8.18-17.84c-11.02-12.54-29.81-15.71-44.19-8.09c-0.08,0.04-0.14,0.09-0.2,0.14
		c-1.21-0.7-3.25,0.33-2.25,2.11C458.78,501.03,459.46,502.94,459.81,504.13z"/>
	<g>
		<path class="st9" d="M463.76,513.29c8.18,1.2,16.45,0.82,24.48-1.12c0.42-0.1,0.24-0.75-0.18-0.65
			c-7.91,1.92-16.08,2.3-24.13,1.12C463.52,512.58,463.34,513.23,463.76,513.29L463.76,513.29z"/>
	</g>
	<path class="st15" d="M433.67,449.39c-0.78-11.07-6.22-34.87-6.61-34.72c-10.58,4.12-20.9,8.9-31.07,13.96
		c-14.22,7.08-28.16,14.74-41.77,22.93c-2.55,1.53-5.23,2.88-7.58,4.73c-2.68,2.12,1.14,2.67,2.41,4.82
		c5.91,10.02,5.82,19.61,6.42,22.15c0.16,0.68,0.81,1.3,1.51,1.23c5.97-0.58,13.34-4.43,19.01-6.27c8.16-2.65,13.23-5.24,21.03-7.98
		c5.86-2.06,11.59-4.52,17.57-6.22c5.7-1.61,8.44-3.86,8.44,1.34c0,1.31,9.86-7.89,10.52-9.09
		C434.56,454.42,433.81,451.41,433.67,449.39z"/>
	<path class="st16" d="M483.08,521.08c0,0.04-0.01,0.07-0.01,0.11c0.2,6.55,0.39,13.1,0.59,19.65c0.16,5.34-0.75,11.17,2.81,15.81
		c3.65,4.76,6.32,9.5,8.11,15.11c1.71,5.39,2.94,10.88,3.99,16.39c4.08,21.4,12.64,58.98,21.6,80.3c0.27,0.64,0.96,0.58,1.66,0.61
		c3.16,0.13,5.25-1.28,7.64-2.73c10.5-6.37,20.32-16.39,26.22-27.35c0.38-0.7,0.53-1.5,0.47-2.29c-1.63-21.45-4.99-44.32-9.1-64.94
		c-3.06-15.33-6.45-31.72-14.08-45.89c-3.16-5.88-6.99-11.81-13.1-15.36c-13.34-7.75-29.1-1.79-36.99,9.17
		C482.49,520.2,482.67,520.73,483.08,521.08z"/>
	<path class="st14" d="M461.34,426.59c4.02-1.48,8.03-4.25,8.85-8.51c-0.61-0.96-1.16-2.01-1.74-3.13
		c-1.48-2.87-8.43-19.16-8.95-26.55c-0.05-0.74-4.07-0.07-4.15,0.52c-2.47,3.91-4.95,7.83-7.72,11.56c-1.96,2.64-5.3,5.51-5.49,8.97
		c-0.47-0.02-0.97,0.45-0.67,0.98c2.16,3.78,6.21,10.29,8.36,15.22C453.55,429.16,456.32,428.43,461.34,426.59z"/>
	<path class="st6" d="M525.22,506.6c0.16-0.31,0.24-0.67,0.16-1.09c-2.96-17.26-6.97-33.85-14.91-49.57
		c-5.01-9.92-11.29-19.16-18.51-27.61c-3.65-4.27-7.51-8.38-11.6-12.22c-0.62-0.59-6.25-5.09-8.07-6.28c0-0.1-0.06-0.6-0.13-0.72
		c-0.78-1.67-2.46-3.49-4.07-4.79c-1.11-0.9-3.78-2.68-4.99-2.68c-0.26,0,0.47,3.44-0.67,7.73c-0.73,2.76-2.82,8.76-4.33,11.01
		c-0.35,2.65-0.21,17.83-0.82,17.87c-0.37,0.28-5.41-11.16-7.91-16.79c-0.16-0.37-2.33-2.25-2.49-2.62
		c-1.24-2.98-3.39-5.52-3.75-6.7c-1.26,1.21-1.82,4.33-1.9,5.95c-0.12,2.26-0.04,4.53,0.08,6.79c-2.49,7.27-4.72,14.83-5.69,22.44
		c-0.21,1.63-0.26,3.24-0.2,4.83c-0.03,0.18-0.03,0.37,0.01,0.57c0.01,0.04,0.02,0.09,0.03,0.13c0.34,5.65,2.15,11.13,4.29,16.43
		c1.83,5.42,4.01,10.73,6.42,15.93c2.36,5.08,5.76,14.41,8.76,19.15c2.09,3.29,12.83,4.33,21.56,2.01c2.77-0.74,2.92,8.8,9.14,16.06
		c1.52,1.78,8.83,1.71,10.99,1.59c11.88-0.69,19.63-6.84,28.48-15.32C525.81,508.04,525.69,507.19,525.22,506.6z"/>
	<path class="st15" d="M448.42,421.74c-1.53-3.71-2.95-7.46-4.66-11.09c-12.28,0.72-19.62,5.03-30.47,9.8
		c-0.86,0.38-0.41,4.53,0.3,4.62c-0.74-0.1,3.14,17.95,3.81,19.61c1.22,3.01,2.77,5.87,4.62,8.53c1.21,1.73,1.57,4.3,1.38,6.22
		c-1.34,13.59-1.57,68.8,9.67,98.72c1.23,3.28,2.46,6.86,5.16,9.2c0.02,0.02,0.05,0.04,0.07,0.06c1.14,0.92,2.84,0.02,2.77-1.45
		C440.14,547.83,430.39,451.72,448.42,421.74z"/>
	<g>
		<path class="st9" d="M457.1,441.35c0.88,22.41,9.97,43.24,18.91,63.44c0.17,0.39,0.75,0.05,0.58-0.34
			c-8.89-20.09-17.95-40.82-18.82-63.1C457.75,440.92,457.08,440.92,457.1,441.35L457.1,441.35z"/>
	</g>
	<path class="st15" d="M533.1,469.83c-3.51-9.79-7.38-19.47-11.98-28.8c-3.88-7.87-7.8-16.84-16.16-20.79
		c-7.3-3.45-27.27-9.67-34.46-10.69c-1.72-0.24,2.07,5.26,2.75,6.85c3.68,8.66,4.76,18.81,6.41,27.71
		c2.42,13.01,4.64,26.06,7.31,39.03c2.66,12.92,8.23,37.56,12.39,50.08c3.63,10.91,7.83,21.87,15.46,30.66
		c0.13,0.15,0.27,0.25,0.42,0.32c7.69,3.68,16.2,2.63,23.19-2.07c6.36-4.27,14.55-13,13.36-21.34
		C548.88,520.32,540.05,489.22,533.1,469.83z"/>
	<path class="st6" d="M450,422.69c-1.91-3.92-4.02-6.43-5.56-10.51c-0.05-0.14-0.18-0.67-0.3-0.68c-0.11-0.14-0.32-0.2-0.47-0.03
		c-0.69,0.71-0.97,1.84-1.26,2.75c-0.59,1.88-0.89,3.84-1.22,5.79c-0.37,2.18,1.41,7.08,2.33,8.38c1.13,1.62,2.39,3.14,3.73,4.59
		c0.17,0.18,0.49,0.09,0.55-0.14C448.47,430.24,450.12,422.94,450,422.69z"/>
	<path class="st6" d="M469.24,405.34c0.03-0.12-3.21,0.05-3.66,0.54c-0.6,0.67-0.53,2.01-0.67,2.82c-0.24,1.4-0.51,2.8-0.82,4.19
		c-0.31,1.39-0.65,2.77-1.02,4.15c-0.22,0.81-0.95,2.16-0.68,3.01c0.23,0.72,1.57,1.4,2.17,1.85c1.07,0.79,2.19,1.53,3.34,2.2
		c1.14,0.67,3.47,2.98,4.38,1.39c1.24-2.18,0.75-6.03,0.91-8.47c0.12-1.93-0.29-5.45-0.93-7.49
		C471.6,407.43,470.69,406.8,469.24,405.34z"/>
	<g>
		<path class="st9" d="M449.07,424.08c0,2.34-0.03,4.68,0.17,7.01c0.04,0.49,0.09,0.98,0.16,1.47c0.08,0.57,0.5,1.16-0.41,1.06
			c-0.43-0.05-1.25-1.02-1.55-1.32c-0.61-0.61-1.13-1.28-1.61-1.99c-0.24-0.36-0.82-0.02-0.58,0.34c0.8,1.19,3.17,4.63,4.89,3.86
			c0.1-0.05,0.17-0.18,0.17-0.29c0-1.63-0.44-3.3-0.51-4.95c-0.07-1.73-0.06-3.47-0.06-5.2
			C449.74,423.65,449.07,423.65,449.07,424.08L449.07,424.08z"/>
	</g>
	<g>
		<path class="st9" d="M458.48,421.42c2.36,1.67,4.46,3.69,6.63,5.59c1.33,1.16,3.11,3.13,4.91,3.54c1.3,0.3,1.47-0.96,1.78-1.95
			c1.05-3.36,1.67-6.9,1.58-10.42c-0.01-0.43-0.68-0.43-0.67,0c0.09,3.17-0.43,6.32-1.29,9.37c-0.14,0.48-0.34,1.95-0.75,2.27
			c-0.48,0.38-1.37-0.33-1.81-0.62c-3.61-2.43-6.49-5.83-10.05-8.34C458.46,420.59,458.13,421.17,458.48,421.42L458.48,421.42z"/>
	</g>
	<g>
		<path class="st9" d="M438.26,470.98c-1.21,10.9-1.48,21.92-1.49,32.88c-0.01,12.32,0.39,24.65,1.4,36.93
			c0.48,5.83,1.1,11.65,2.04,17.43c0.07,0.43,0.72,0.25,0.65-0.18c-1.8-11.1-2.54-22.38-3.01-33.6c-0.5-12.14-0.58-24.32-0.11-36.46
			c0.22-5.67,0.56-11.35,1.19-16.99C438.98,470.55,438.31,470.55,438.26,470.98L438.26,470.98z"/>
	</g>
	<g>
		<path class="st9" d="M488.13,560.69c2.56,3.54,6.48,5.7,7.83,10.07c1.46,4.71,2.1,9.79,3.08,14.62
			c2.09,10.29,4.18,20.57,6.28,30.86c0.09,0.42,0.73,0.24,0.65-0.18c-2.14-10.5-4.27-21-6.41-31.51c-0.53-2.6-1.06-5.2-1.59-7.8
			c-0.47-2.32-0.81-4.73-1.63-6.96c-1.48-4.02-5.21-6.11-7.63-9.45C488.46,560.01,487.88,560.34,488.13,560.69L488.13,560.69z"/>
	</g>
	<path class="st14" d="M599.86,577c-0.37-0.87-0.79-1.7-1.27-2.47c0.41-0.27,0.67-0.74,0.58-1.4c-0.38-2.81-0.92-5.71-3.25-7.62
		c-1.03-0.85-2.27-1.39-3.5-1.89c-0.77-0.31-1.6-0.58-2.27-1.09c-0.69-0.53-1.26-1.28-1.91-1.88c-1.48-1.36-9.78-9.38-12.89-11.95
		c-0.98-0.81-2.08-1.61-2.79-2.71c-0.84-1.3-1.6-2.68-2.38-4.02c-1.68-2.89-3.31-5.8-4.9-8.75c-0.25-0.47-0.51-0.94-0.76-1.41
		c-0.62-1.16-1.9-0.92-2.59-0.14c-0.31-0.11-0.67-0.13-1.08-0.01c-3.24,1-7.97,2.93-11.22,3.93c-1.07,0.33-1.31,1.33-1,2.14
		c-0.01,0.22,0.02,0.47,0.14,0.73c1.15,2.62,2.41,5.2,3.78,7.71c1.33,2.44,3.48,4.89,3.84,7.68c0.57,4.41,1.86,8.97,3.61,13.06
		c1.32,3.1,3.4,5.85,6.06,7.96c1.34,1.06,2.81,1.97,4.36,2.7c1.88,0.9,4.03,1.75,6.09,0.86c3.13-1.36-1.11-4.54-2.65-5.11
		c-3.06-1.13-4.59-4.2-3.07-3.46c1.71,0.84,8.93,4.31,10.69,5.43c1.53,0.98,2.89,2.16,4.15,3.45c1.24,1.27,2.31,3.02,4.11,3.58
		c0.97,0.3,1.9,0.18,2.68-0.49c0.77-0.66,1.16-1.34,0.48-2.22c-0.87-1.13-1.64-2.73-2.55-3.83c-0.46-0.56-5.11-4.67-6.14-5.36
		c0.04-0.02,0.08-0.05,0.12-0.07c2.03,0.82,3.96,1.88,5.72,3.2c2.18,1.65,3.85,3.85,6.2,5.27c0.63,0.38,1.85,0.35,2.53,0.16
		C599.71,578.76,600.23,577.87,599.86,577z"/>
	<path class="st15" d="M563.62,543.75c3.18-1.89,5.13-4.47,7.51-7.15c0.81-0.91,1.05-2.2,0.61-3.34
		c-4.86-12.59-8.69-24.9-14.91-36.87c-5.17-9.95-10.56-19.78-16.03-29.57c-4.99-8.94-9.77-18.1-15.37-26.68
		c-5.49-8.41-7.91-13.22-17.58-18.23c-0.6-0.31-4.29,47.61,0.04,56.97c2.05,4.42,15.07,24.75,16.59,29.96
		c2.08,7.1,9.47,25.01,15.04,37.85c0.15,0.35,0.43,0.62,0.77,0.76C547.95,550.54,556.59,547.92,563.62,543.75z"/>
	<g>
		<path class="st9" d="M506.35,470.39c0.74,5.28,2.1,10.19,4.7,14.87c2.69,4.87,5.66,9.6,8.5,14.38c2.88,4.85,5.51,9.7,7.4,15.04
			c1.81,5.11,3.44,10.27,5.38,15.33c2.21,5.73,4.65,11.37,7.33,16.9c0.19,0.39,0.77,0.05,0.58-0.34
			c-4.85-10.03-8.62-20.39-12.24-30.91c-3.48-10.11-9.46-18.99-14.87-28.14c-1.57-2.66-3.1-5.35-4.12-8.28
			c-1.02-2.93-1.58-5.98-2.01-9.04C506.94,469.78,506.29,469.96,506.35,470.39L506.35,470.39z"/>
	</g>
	<g>
		<path class="st9" d="M539.65,546.86c1.47,1.96,4.23,2.13,6.49,2.36c0.43,0.04,0.43-0.63,0-0.67c-1.93-0.2-4.63-0.33-5.9-2.03
			C539.98,546.18,539.39,546.51,539.65,546.86L539.65,546.86z"/>
	</g>
	<path class="st14" d="M458.94,379.65c-2.2-7.96-10.32-18.28-19.09-12.38c-3.27,1.33-8.57,4.58-10.96,7.23
		c-3.09,3.42-4.36,7.98-4.9,12.46c-0.39,3.22-0.22,7.2,0.31,10.36c0.61,3.63,1.71,9.96,3.03,13.41c2.21,5.76,6.97,6.53,13.46,4.93
		c5.45-1.35,9.85-3.5,14.04-8.23c3.09-3.49,4.21-8.66,4.82-13.01C460.36,389.5,460.26,384.45,458.94,379.65z"/>
	<path class="st17" d="M447.55,386.21c-0.17-0.43-0.49-0.82-0.95-1.09c-1.75-1.02-4.28-1.04-6.12-0.33
		c-1.66,0.65-3.35,3.17-1.42,4.66c0.72,0.56,1.75-0.13,2.49-0.28c1.51-0.31,2.99,0.24,4.46-0.03
		C447.46,388.88,448.03,387.39,447.55,386.21z"/>
	<path class="st17" d="M430.98,387.55c-0.06-2.43-2.72-2.76-4.63-2.16c-1.47,0.47-3.71,1.78-2.63,3.83
		c0.68,1.28,2.37,0.66,3.67,0.67c0.86,0,1.68,0.48,2.55-0.08C430.65,389.35,431,388.42,430.98,387.55z"/>
	<path class="st17" d="M462.29,378.96c-0.05-0.15-0.99-0.05-1.15,0.02c-3.04,1.28-6.08,2.56-9.13,3.83
		c-0.27,0.11-0.25,0.49-0.08,0.61c0.16,1.92-0.19,5.65,0.2,7.53c0.73,2.99,2.52,3.62,4.61,2.92c0.99-0.33,1.6,0.55,1.42,1.3
		c0.6,0.02,1.34,2.24,1.58,2.67c0.63,1.11,2.07,4.4,3.03,3.23c0.39-0.48,1.09-9.22,1.09-10.3
		C463.86,386.84,463.64,382.7,462.29,378.96z"/>
	<path class="st18" d="M458.89,387.23c-2.84-0.45-3.91,2.31-4.94,4.12c-0.1,0.17-0.2,0.34-0.26,0.53c-0.07,0.21-0.1,0.44-0.12,0.66
		c-0.22,2.26-0.29,6.67,2.78,7.55c0.89,0.26,1.42,0.01,1.93-0.61c1.74-2.13,2.77-5.36,3.01-7.98
		C461.44,389.8,461.12,387.59,458.89,387.23z"/>
	<path class="st17" d="M427.48,418.22c0.58,0.66,1.31,1.17,2.29,1.39c2.24,0.51,3.93-0.99,6.02-1.23c1.54-0.17,2.95,0.52,4.49,0.48
		c0.3-0.01,0.58-0.03,0.86-0.08c0.69-0.21,1.35-0.45,2.01-0.72c0.97-0.54,1.84-1.3,2.68-2.14c1.08-1.08,1.99-2.25,3.22-3.18
		c1.29-0.98,2.95-1.37,4.26-2.32c4.03-2.92,1.84-10.09,1.39-14.03c-0.05-0.39,1-8.14-1.37-6.49c-1.61,1.12-0.38,7.5-1.52,10.93
		c-2.25,6.81-7.79,7.12-9.73,7.4c-0.53,0.08-1.07,0.05-1.58-0.1c-0.18-0.05-0.36-0.11-0.53-0.18c-0.87-0.33-1.34-1-2.11-1.4
		c-1.15-0.61-4.12-0.3-4.48-0.26c-0.53,0.01-1.03,0.42-1.53,0.75c-1.01,0.68-1.95,1.11-3.14,1.04c-0.26-0.02-0.51-0.14-0.68-0.33
		c-0.93-1.01-1.58-2.24-2.27-3.4c-0.06-0.1-0.13-0.2-0.25-0.21c-0.16,0-0.23,0.19-0.26,0.34c-0.46,2.74,0.15,5.52,0.76,8.23
		C426.4,414.45,426.52,416.64,427.48,418.22z"/>
	<path class="st17" d="M465.09,365.71c-1.3-2.04-3.74-2.79-6.12-2.38c-0.32,0.05-0.6-0.11-0.69-0.4c-0.7-2.19-2.32-3.8-4.87-4.63
		c-2.68-0.87-5.66,0.32-7.4,2.57c-2.5-1.51-6.27-1.26-9.16-0.59c-3.8,0.88-6.11,3.69-7.76,6.92c-0.2,0.39-0.67,0.6-1.07,0.46
		c-8.41-2.97-17.13,5.93-13.75,14.01c0.2,0.48,0.08,1.04-0.3,1.45c-0.46,0.49-0.99,1.11-1.05,1.22c-0.46,0.76-0.74,1.6-0.81,2.46
		c-0.15,1.67,0.48,3.34,1.71,4.41c4.23,3.67,11.87-0.47,14.27-4.93c0.54-1,0.81-2.86,1.36-4.38c0.13-0.37,0.65-0.39,0.78-0.04
		c0.53,1.41,1.51,2.64,2.96,3.47c1.62,0.93,3.61,1.25,5.54,0.9c2.4-0.44,4.93-3.33,7.29-3.35c0.53,1.35,1.49,2.38,3.37,2.56
		c4.92,0.47,6.17-4.35,10.48-5.14c0.24,0.44,1.86-0.47,2.42-0.88c2.5-1.84,3.53-4.75,2.64-7.39
		C465.9,369.95,466.36,367.71,465.09,365.71z"/>
	<path class="st12" d="M444.34,392.36c-0.08-1.11-0.46-2.16-1.33-2.55c-1.61-0.71-2.32,1.52-2.23,2.7c0.1,1.29,0.71,3.16,2.29,3.08
		c0.33-0.02,0.7-0.17,0.85-0.49C444.22,394.46,444.41,393.38,444.34,392.36z"/>
	<path class="st12" d="M429.64,393.42c-0.07-1.11-0.41-2.16-1.21-2.55c-1.46-0.71-2.1,1.52-2.02,2.7c0.09,1.29,0.64,3.16,2.07,3.08
		c0.3-0.02,0.63-0.17,0.77-0.49C429.53,395.52,429.71,394.45,429.64,393.42z"/>
	<g>
		<path class="st19" d="M432.35,394.11c-0.44,0.87-0.9,1.82-0.7,2.82c0.19,0.96,0.95,1.51,1.75,1.97c0.37,0.22,0.71-0.36,0.34-0.58
			c-0.74-0.43-1.42-0.88-1.46-1.85c-0.03-0.72,0.34-1.41,0.65-2.03C433.12,394.07,432.54,393.73,432.35,394.11L432.35,394.11z"/>
	</g>
	<g>
		<path class="st19" d="M435.19,398.09c0.52-0.37,1.19-0.31,1.62,0.16c0.29,0.32,0.77-0.16,0.48-0.48c-0.62-0.67-1.69-0.8-2.44-0.26
			C434.5,397.75,434.84,398.34,435.19,398.09L435.19,398.09z"/>
	</g>
	<g>
		<path class="st19" d="M458.2,389.78c-1.27,1.18-1.33,3.38-1.53,4.99c-0.05,0.43,0.62,0.43,0.67,0c0.17-1.38,0.24-3.5,1.33-4.52
			C458.99,389.96,458.51,389.48,458.2,389.78L458.2,389.78z"/>
	</g>
	<path class="st20" d="M440.85,400.74c0.02-0.35-0.1-0.61-0.51-0.54c-2.92,0.48-5.83,0.66-8.79,0.56c-0.88-0.03,0.23,2.87,0.39,3.21
		c0.62,1.39,2.22,1.35,3.55,1.32c1.23-0.02,2.42-0.41,3.38-1.26c0.6-0.54,1.15-1.19,1.55-1.91
		C440.53,401.91,440.83,401.23,440.85,400.74z"/>
	<path class="st13" d="M432.52,401.93c0.56,1.22,1.95,1.27,3.13,1.19c1.63-0.11,3.27-0.45,4.8-1.08c0.13-0.26,0.37-0.86,0.39-1.3
		c0.02-0.35-0.1-0.61-0.51-0.54c-2.66,0.44-5.33,0.62-8.02,0.57C432.34,401.19,432.38,401.62,432.52,401.93z"/>
	<g>
		<path class="st9" d="M422.7,440.67c-0.38,7.63,0.15,15.26,1.58,22.77c0.08,0.42,0.73,0.24,0.65-0.18
			c-1.42-7.45-1.93-15.01-1.56-22.59C423.4,440.23,422.72,440.24,422.7,440.67L422.7,440.67z"/>
	</g>
	<g>
		<path class="st9" d="M354.51,478.24c0.73,1.4,1.08,2.89,1.06,4.46c0,0.43,0.67,0.43,0.67,0c0.02-1.69-0.37-3.3-1.15-4.8
			C354.9,477.52,354.32,477.86,354.51,478.24L354.51,478.24z"/>
	</g>
	<g>
		<path class="st19" d="M342.82,462.42c0.87,4.05,0.92,8.13,0.13,12.2c-0.08,0.42,0.57,0.6,0.65,0.18c0.8-4.18,0.76-8.39-0.13-12.56
			C343.38,461.82,342.73,462,342.82,462.42L342.82,462.42z"/>
	</g>
	<g>
		<path class="st19" d="M336.47,456.93c0.06,1.72,1.01,3.35,0.87,5.07c-0.15,1.79-1.36,3.28-2.25,4.76
			c-0.62,1.03-1.19,2.12-1.33,3.33c-0.22,1.77,0.51,3.42,1.22,5c0.18,0.39,0.76,0.05,0.58-0.34c-0.97-2.15-1.63-4.18-0.56-6.42
			c0.6-1.27,1.48-2.38,2.14-3.62c0.48-0.91,0.86-1.89,0.89-2.93c0.05-1.67-0.82-3.18-0.88-4.84
			C337.13,456.5,336.46,456.5,336.47,456.93L336.47,456.93z"/>
	</g>
	<g>
		<path class="st19" d="M326.64,448.74c2.18,3.2,3.79,6.69,4.79,10.44c0.11,0.42,0.76,0.24,0.65-0.18c-1.02-3.8-2.65-7.35-4.86-10.6
			C326.98,448.04,326.4,448.38,326.64,448.74L326.64,448.74z"/>
	</g>
	<g>
		<path class="st19" d="M321.99,453.76c1.24,0.68,2.18,1.66,3.07,2.74c0.92,1.12,1.88,2.25,2.18,3.7c0.09,0.42,0.74,0.24,0.65-0.18
			c-0.3-1.44-1.19-2.55-2.09-3.67c-1.01-1.25-2.06-2.39-3.47-3.17C321.95,452.97,321.61,453.55,321.99,453.76L321.99,453.76z"/>
	</g>
	<g>
		<path class="st19" d="M321.8,461.7c0.91,0.64,1.72,1.4,2.42,2.26c0.28,0.33,0.75-0.14,0.48-0.48c-0.74-0.91-1.6-1.69-2.56-2.36
			C321.79,460.87,321.45,461.45,321.8,461.7L321.8,461.7z"/>
	</g>
	<g>
		<path class="st19" d="M587.47,565.62c4.39,1.25,7.95,4.25,9.95,8.35c0.19,0.39,0.77,0.05,0.58-0.34
			c-2.07-4.25-5.81-7.36-10.35-8.66C587.23,564.85,587.05,565.5,587.47,565.62L587.47,565.62z"/>
	</g>
	<g>
		<path class="st19" d="M589.98,564.28c3.04,1.08,6.2,2.59,7.33,5.86c0.14,0.41,0.79,0.23,0.65-0.18c-1.21-3.51-4.51-5.16-7.8-6.33
			C589.75,563.49,589.58,564.14,589.98,564.28L589.98,564.28z"/>
	</g>
	<g>
		<path class="st9" d="M514.4,432.84c-5.13,11.72-7.05,24.62-5.51,37.32c0.05,0.42,0.72,0.43,0.67,0
			c-1.53-12.57,0.33-25.37,5.41-36.98C515.16,432.79,514.58,432.45,514.4,432.84L514.4,432.84z"/>
	</g>
	<g>
		<path class="st9" d="M415.12,424.83c1.03,11.12,2.96,22.13,5.78,32.94c0.11,0.42,0.76,0.24,0.65-0.18
			c-2.8-10.75-4.73-21.7-5.75-32.76C415.76,424.4,415.08,424.4,415.12,424.83L415.12,424.83z"/>
	</g>
	<g>
		<path class="st9" d="M433.73,373.33c-1.44-2.36-4.02-4.02-6.87-3.4c-3.37,0.73-4.27,3.94-4.71,6.94c0.14-0.08,0.28-0.16,0.41-0.23
			c-3.95-1.62-7.83,1.56-7.24,5.72c0.06,0.43,0.71,0.25,0.65-0.18c-0.53-3.71,3-6.3,6.41-4.89c0.15,0.06,0.39-0.07,0.41-0.23
			c0.37-2.55,0.96-5.47,3.77-6.35c2.68-0.84,5.21,0.73,6.58,2.97C433.38,374.04,433.96,373.7,433.73,373.33L433.73,373.33z"/>
	</g>
	<g>
		<path class="st9" d="M430.72,379.81c0.82-2.36,1.85-5.23,4.54-5.99c0.81-0.23,1.39,0.05,2.13,0.06c0.19,0,0.38,0.13,0.57,0.09
			c0.66-0.15,1.14-1.02,1.67-1.38c4.66-3.07,10.04,2.29,7.37,7.03c-0.21,0.38,0.37,0.72,0.58,0.34c2.46-4.37-1.15-9.83-6.2-8.79
			c-1.19,0.25-2.07,0.83-3,1.57c-0.93,0.73-2.32,0.1-3.53,0.5c-2.8,0.94-3.9,3.83-4.78,6.38
			C429.93,380.04,430.58,380.22,430.72,379.81L430.72,379.81z"/>
	</g>
	<g>
		<path class="st9" d="M443.28,371.06c1.66-4.59,6.57-6.72,11.08-4.94c0.4,0.16,0.58-0.49,0.18-0.65
			c-4.88-1.92-10.14,0.51-11.91,5.41C442.48,371.29,443.13,371.46,443.28,371.06L443.28,371.06z"/>
	</g>
	<g>
		<path class="st9" d="M462.17,379.17c-1.03,0.94-1.92,1.28-3.27,1.48c-0.66,0.09-1.2,0.18-1.79,0.53c-1.66,1-2.29,3.36-4.43,3.62
			c-0.42,0.05-0.43,0.72,0,0.67c2.01-0.24,2.75-1.88,4.1-3.16c1.13-1.07,2.38-0.78,3.7-1.19c0.86-0.27,1.53-0.87,2.17-1.46
			C462.96,379.36,462.49,378.88,462.17,379.17L462.17,379.17z"/>
	</g>
	<g>
		<path class="st9" d="M508.37,519.2c2.57,7.62,8.3,13.03,15.11,16.97c0.38,0.22,0.71-0.36,0.34-0.58
			c-6.66-3.85-12.28-9.12-14.8-16.57C508.88,518.62,508.23,518.79,508.37,519.2L508.37,519.2z"/>
	</g>
	<g>
		<path class="st9" d="M428.83,516.27c-0.66,5.14-0.52,10.29,0.4,15.38c0.08,0.43,0.72,0.25,0.65-0.18
			c-0.91-5.04-1.02-10.13-0.38-15.2C429.56,515.84,428.88,515.85,428.83,516.27L428.83,516.27z"/>
	</g>
	<g>
		<path class="st21" d="M287.05,460.47c-0.36-0.17-11.01,7.3-13.58,13.48c-1.75,4.23-2.79,15.62,2.49,15.71
			c6.15,0.1,6.43-6.15,7.85-9.79C286,474.26,290.57,462.19,287.05,460.47z"/>
		<path class="st21" d="M161.55,445.89c-4.46-3.57-8.66-0.62-13.11,1.49c-0.46,0.22-0.92,0.44-1.38,0.66
			c-7.29,3.49-14.46,6.69-21.13,11.36c-5.66,3.96-11.75,7.34-15.13,12.78c-0.13,0.21-0.14,2.28,0.15,2.16
			c6.39-2.51,12.65-5.35,19.57-5.95c3.36-0.29,6.74-0.19,10.1,0.12c2.98,0.28,6.14,1.01,9.09,0.2c2.73-0.75,5.37-2.68,7.62-4.32
			c2.12-1.55,4.06-3.37,5.44-5.62C165.18,454.8,165.49,449.05,161.55,445.89z"/>
		<path class="st22" d="M188.54,419.58c-0.08-0.93-0.19-1.87-0.32-2.82c-0.52-3.91-1.31-7.94-3.5-11.29
			c-2.34-3.58-6.08-5.75-10.14-6.86c-0.22-0.06-1.14,0.64-1.28,0.74c-0.02,0.01-0.05,0.02-0.07,0.04
			c-11.85,7.83-25.24,12.95-37.1,20.76c-5.58,3.68-10.72,8-15.06,13.1c-4.08,4.8-10.98-1.44-13,4.7
			c-2.38,7.23,0.76,15.37,4.68,19.98c2.2,2.58,4.93,4.84,8.44,5.08c1.27,0.09,2.53,0,3.79-0.1c3.2-0.25,9.72-2.52,13.77-3.73
			c5.19-1.54,1.17-7.33,18.25-6.83c5.16,0.15,14.44-10.76,19.27-12.76c2.47-1.03,4.14-1.79,6.44-3.16c1.14-0.68,2.97-1.83,3.62-3.03
			C188.69,429,188.96,424.34,188.54,419.58z"/>
		<path class="st7" d="M88.92,632.18c-0.15,2.53-0.25,5.07-0.28,7.61c3.44,3.4,8.88,4.8,13.57,5.63c7.73,1.36,15.49,1.61,23.23,0.23
			c14.83-2.65,28.72-10.05,39.19-20.85c3.17-15.77,13.69-55.56,12.5-66.9c-0.05-0.46-0.28-0.79-0.59-0.99c0-1.22,0-2.44-0.01-3.66
			c0-0.61-0.35-1-0.78-1.17c-0.14-0.27-0.37-0.5-0.72-0.63c-16.97-6.2-34.9,0.21-52.25-2.74c-4-0.68-7.96-2.29-12.07-2.11
			c-3.76,0.17-11.04,3.88-14.05,6.07c-2.52,1.83-2.27,4.87-3.08,7.67c-2.38,8.21-4.19,19.61-4.07,28.16
			c0.12,8.21,1.2,16.35,0.76,24.58C89.92,619.46,89.28,625.81,88.92,632.18z"/>
		<path class="st8" d="M324.78,438.38c-1.45-1.24-3.71-0.82-5.47-0.05c-0.16,0.07-2.62-0.61-3.28-0.52
			c-2.24,0.28-4.29,1.4-6.22,2.53c-0.87,0.5-4.99,4.28-5.62,4.18c-1.28-0.21-3.51,2.2-3.97,2.76c-2.78,3.4-3.91,7.7-5.86,11.56
			c-1.4,1.63-3.23,2.97-5.41,3.27c-2.41-0.04-4.83-0.07-7.24-0.11c-0.36-0.01-6.88,17.11-6.25,17.42c0.31,0.64,1.3,0.68,1.66,0.13
			c6.54,0.2,13.33,0.83,19.8,0.08c4.91-0.57,9.83-2.69,11.99-7.36c2.35-5.07,4.16-10.39,6.95-15.25c2.23-3.88,8.39-8.73,7.65-13.57
			c0.36-0.37,0.7-0.75,1.01-1.16C325.45,441.08,326.16,439.57,324.78,438.38z"/>
		<path class="st21" d="M287.04,461.37c0.35-0.47,0.06-1.14-0.53-1.21c-31.92-3.63-71.85-9.63-80.31-11.41
			c-8.11-1.71-21.38-5.81-29.6-3.84c-0.55,0.13,4.09,3.05,4.19,3.56c1.44,7.42-3.53,48.03-0.53,41.11c2.59-5.97,13.5-3.6,53.78-0.38
			c13.56,1.08,33.41,1.46,44.14,0.25c1.17-0.13,1.99-1.2,1.84-2.36C279.39,482.4,278.36,473.05,287.04,461.37z"/>
		<path class="st8" d="M176.3,447.14c-0.44-4.02-4.86-3.3-7.93-3.35c-5.85-0.09-11.69,0.25-17.5,0.94
			c-0.53-0.21-2.09-0.73-2.32-0.03c-0.67,2.02-8.02,8.29-12.23,12.37c-0.69,0.66-0.55,1.64,0,2.32c6.35,7.85,8.35,18.62,16.01,25.52
			c2.92,2.63,6.31,4.86,10.05,2.44c3.72-2.4,6.65-6.57,8.62-10.45c2.22-4.37,3.54-9.09,4.28-13.92
			C176.05,458.01,176.85,452.17,176.3,447.14z"/>
		<g>
			<path class="st6" d="M184.92,427.02c2.66,3.19,4.24,8.24,2.32,12.19c-2.1,4.31-7.76,4.78-10.87,1.36
				c-0.29-0.32-0.77,0.16-0.48,0.48c3.12,3.43,8.7,3.34,11.4-0.6c2.9-4.22,1.12-10.29-1.9-13.91
				C185.11,426.21,184.64,426.69,184.92,427.02L184.92,427.02z"/>
		</g>
		<path class="st21" d="M192.48,472.72c-0.05-6.74-0.27-14.85-3.13-21.09c-2.75-6-8.99-6.14-14.76-7.07
			c-0.48-0.08-0.89,0.09-1.17,0.36c-0.66,0-5.83,1.48-5.19,2.02c5.62,4.76,3.08,22.6-5.46,34.51c-2.8,3.9-5.13-2.89-6.6-5.32
			c-10.15-16.77-16.13-22.31-18.39-22.56c-2.3-0.26-4.66,1.63-6.57,2.7c-2.09,1.18-4.16,2.4-6.18,3.7
			c-3.73,2.4-7.32,5.06-10.52,8.15c-6.51,6.27-10.85,14.15-13.06,22.89c-0.15,0.59-0.29,1.19-0.42,1.79
			c-0.19,0.86-9.33,34.46-11.82,42.49c-1.42,4.57-15.96,49.85-14.87,53.31c1.57,4.96,10.39,10.88,11.37,6.17
			c2.02-9.74,11.09-29.8,22.06-42.83c0.46-0.55,1.27-0.46,1.32,0.25c0.61,7.96,2.08,15.15,3.76,22.98c0.17,0.79,6.28,4.13,7.02,4.37
			c18.59,6.27,39.07,0.93,54.03-11.24c3.31-2.69,7.57-6,9.67-9.78c1.45-2.62,0.84-6.42,0.81-9.3c-0.12-11.4-1.24-22.86-2.91-34.13
			c-0.12-0.82,0.05-1.65,0.48-2.36c6.97-11.58,10.56-25.1,10.06-38.72c-0.01-0.17,0.05-0.34,0.16-0.47
			C192.37,473.35,192.48,473.07,192.48,472.72z"/>
		<path class="st8" d="M158.15,422.93c-0.6-0.94-2.16-1.15-2.78-0.11c-0.59,0.37-2.3,0.41-2.07,1.12c0.17,0.51,2.04,9.27-7.82,24.44
			c-0.76,1.17-1.81,2.21-2.92,3.2c1.83,2.9,3.27,6,5.4,8.72c1.63,2.09,3.46,3.99,5.46,5.69c1.12,0.39,2.25,0.69,3.4,0.87
			c4.4,0.67,8.99-1.83,8.89-6.68c0-0.09-0.02-0.17-0.03-0.25c0.11-0.28,0.15-0.61,0.07-0.97c-0.97-4.34,3.73-10.43,6.29-13.79
			c0.34-0.45-0.86-0.78-1.03-1.18c0.1-0.2,0.16-0.44,0.17-0.71C171.42,434.77,166.82,424.95,158.15,422.93z"/>
		<path class="st8" d="M173.56,401.71c-0.94-0.26-1.95-0.45-3.04-0.55c-8.71-0.81-16.65,1.84-20.54,9.71
			c-4.45,9.03,2.03,16.38,8.14,21.74c0.86,2.74,1.87,5.43,3.06,8.06c0.87,1.93,1.94,4.4,4.31,4.83c5.03,0.92,11.48,2.14,16.15-0.39
			c2.39-1.3,3.57-4.71,3.86-7.2c0.41-3.52,1.19-7.6,1.11-11.13c-0.06-2.8-0.31-5.61-0.83-8.37c-0.99-5.28-3.02-10.89-7.42-14.28
			C176.94,403.01,175.3,402.2,173.56,401.71z"/>
		<path class="st12" d="M168.91,424.48c-0.17-0.94-0.67-1.85-1.4-2.43c-0.64-0.51-1.58-0.25-1.92,0.37
			c-0.39,0.71-0.55,1.5-0.48,2.29c-0.03,0.66,0.07,1.32,0.33,1.95c0.42,1.02,1.75,1.71,2.68,0.79
			C168.89,426.69,169.1,425.56,168.91,424.48z"/>
		<g>
			<path class="st10" d="M159.85,438.05c0.9,2.41,2.44,4.72,4.51,6.28c1.93,1.46,4.23,2.05,6.57,2.47c0.42,0.08,0.6-0.57,0.18-0.65
				c-2.02-0.36-4.03-0.83-5.78-1.96c-2.24-1.45-3.91-3.84-4.84-6.32C160.35,437.47,159.7,437.64,159.85,438.05L159.85,438.05z"/>
		</g>
		<path class="st22" d="M168.34,415.76c-2.13-0.42-4.67,0.51-6.24,1.75c-0.67,0.53-1.2,1.31-1.23,2.17
			c-0.03,0.86,0.57,1.75,1.42,1.88c0.42,0.06,0.83-0.06,1.24-0.18c0.99-0.29,2-0.59,3.03-0.62c1.07-0.03,2.12,0.04,3.14-0.35
			c1.59-0.61,1.72-2.9,0.43-3.87C169.6,416.13,168.99,415.88,168.34,415.76z"/>
		<g>
			<path class="st6" d="M159.33,429.89c2.09,3.52,2.91,8.64,0.51,12.25c-2.68,4.02-8.44,3.81-11.05-0.15
				c-0.24-0.36-0.82-0.02-0.58,0.34c2.5,3.8,7.8,4.68,11.17,1.43c3.76-3.63,2.97-10.11,0.53-14.2
				C159.69,429.18,159.11,429.52,159.33,429.89L159.33,429.89z"/>
		</g>
		<path class="st22" d="M179.28,415.59c-0.61,1.11-0.1,3.34,0.99,3.75c0.7,0.27,1.33,0.07,1.99-0.02c0.64-0.09,1.32,0.09,1.97,0.26
			c0.27,0.07,0.55,0.14,0.79,0.03c1.12-0.49,0.73-2.16,0.36-3.03c-0.58-1.4-1.92-1.86-3.3-2.15
			C180.96,414.18,179.85,414.56,179.28,415.59z"/>
		<path class="st12" d="M183.92,422.93c-0.11-0.91-0.49-1.77-1.06-2.32c-0.5-0.47-1.27-0.2-1.56,0.41c-0.33,0.7-0.48,1.47-0.45,2.23
			c-0.04,0.64,0.02,1.28,0.22,1.88c0.31,0.97,1.37,1.61,2.15,0.69C183.84,425.07,184.05,423.97,183.92,422.93z"/>
		<path class="st22" d="M186.92,410.3c-0.73-3.04-2.26-5.59-3.69-7.04c-2.05-2.05-4.84-3.39-7.56-4.3
			c-5.68-1.91-11.84-2.37-17.75-1.35c-5.65,0.97-11.06,3.27-15.02,7.52c-4.48,4.79-7.76,14.46-13.9,17.34
			c-4.45,2.09-9.25,3.17-13.37,5.96c-3.26,2.21-6.04,5.37-7.4,9.1c-0.89,2.44-1.13,5.41-0.49,8.03c1.01,4.18,4.13,8.32,6.27,5.2
			c5.51-8.02,6.24,0.4,15.52-2.38c4.1-1.23,8.1,2.23,11.49,2.13c11.44-0.31,24.04-16.42,30.95-39.16c0.92-3.01,6.05-3.15,8.2-2.31
			c3.86,1.52,4.62,6.08,5.88,9.55c0.19,0.53,0.27-0.06,0.59-0.55C188.19,415.59,187.56,412.97,186.92,410.3z"/>
		<g>
			<path class="st10" d="M177.98,424.36c1.26,1.21,1.86,3.15,0.46,4.51c-0.31,0.3,0.16,0.78,0.48,0.48
				c1.66-1.62,1.06-3.99-0.46-5.47C178.14,423.59,177.66,424.06,177.98,424.36L177.98,424.36z"/>
		</g>
		<g>
			<path class="st10" d="M175.57,429.43c0.38-0.43,0.92-0.57,1.46-0.39c0.41,0.14,0.59-0.51,0.18-0.65
				c-0.75-0.25-1.59-0.03-2.12,0.57C174.8,429.27,175.28,429.75,175.57,429.43L175.57,429.43z"/>
		</g>
		<g>
			<path class="st10" d="M170.78,446.23c-1.74,2.17-3.59,4.29-5.21,6.55c-1.45,2.03-2.39,4.36-1.57,6.83
				c0.14,0.41,0.79,0.23,0.65-0.18c-0.97-2.91,0.75-5.41,2.49-7.59c1.36-1.72,2.75-3.42,4.12-5.13
				C171.53,446.38,171.06,445.9,170.78,446.23L170.78,446.23z"/>
		</g>
		<path class="st13" d="M180.58,431.69c-0.02-0.68-0.13-0.78-0.71-0.61c-1.97,0.58-5.76,0.8-6.41,0.86
			c-0.23,0.02-0.82-0.04-1.01,0.15c-0.55,0.52,0.36,1.83,0.73,2.17c0.89,0.84,2.07,1.1,3.23,1.06c1-0.03,2.56-0.1,3.26-0.99
			c0.39-0.49,0.68-1.14,0.83-1.76C180.53,432.43,180.59,432.05,180.58,431.69z"/>
		<g>
			<path class="st23" d="M174.57,407.94c0.68-1.23,2.34-1.55,3.44-0.7c0.34,0.26,0.68-0.32,0.34-0.58c-1.4-1.06-3.52-0.58-4.36,0.94
				C173.78,407.98,174.36,408.32,174.57,407.94L174.57,407.94z"/>
		</g>
		<g>
			<path class="st23" d="M160.64,406.79c-4.19,4.86-7.25,10.49-9.98,16.27c-1.43,3.02-2.79,6.08-4.21,9.11
				c-1.37,2.92-2.72,6.46-5.52,8.3c-4.03,2.65-8.75,0.92-13.18,1.52c-3.07,0.42-6.2,1.45-8.68,3.35c-3.49,2.68-4.56,6.71-3.76,10.94
				c0.08,0.42,0.73,0.24,0.65-0.18c-0.82-4.33,0.52-8.3,4.26-10.76c2.6-1.71,5.83-2.63,8.93-2.83c4.32-0.27,8.74,1.07,12.55-1.77
				c2.07-1.54,3.25-3.92,4.35-6.18c1.42-2.92,2.75-5.89,4.11-8.84c3.01-6.52,6.24-13,10.97-18.47
				C161.39,406.94,160.92,406.46,160.64,406.79L160.64,406.79z"/>
		</g>
		<g>
			<path class="st23" d="M138.47,416.52c-1.12,1.96-2.85,3.42-4.99,4.17c-0.41,0.14-0.23,0.79,0.18,0.65
				c2.3-0.81,4.18-2.36,5.39-4.48C139.27,416.49,138.69,416.15,138.47,416.52L138.47,416.52z"/>
		</g>
		<g>
			<path class="st23" d="M148.9,411.67c-2.89,6.1-4.39,12.7-4.4,19.46c0,0.43,0.67,0.43,0.67,0c0.02-6.64,1.47-13.12,4.31-19.12
				C149.67,411.62,149.09,411.28,148.9,411.67L148.9,411.67z"/>
		</g>
		<g>
			<path class="st9" d="M181.32,514.21c-2.89,5.67-5.55,11.45-7.99,17.33c-0.17,0.4,0.48,0.57,0.65,0.18
				c2.42-5.83,5.06-11.55,7.92-17.17C182.1,514.16,181.52,513.82,181.32,514.21L181.32,514.21z"/>
		</g>
		<path class="st21" d="M132.18,516.37c-0.21,0-2.93,2.9-3.92,4.3c-1.53,2.17-2.62,4.63-3.31,7.19c-0.97,3.58-3.64,15.07,1.14,14.62
			c4.78-0.45,6.37-8.02,6.82-10.36c0.56-2.94,1.08-5.91,1.24-8.9c0.07-1.27,0.19-2.55,0.01-3.81
			C134.06,518.64,133.88,516.37,132.18,516.37z"/>
		<path class="st8" d="M163.06,513.26c1.51,0.06,6.38,0.88,6.21-1.56c-0.21-2.94-6.16-3.16-8.18-3.1c-3.36,0.11-6.69,1.14-9.49,3
			c-0.07,0.05-0.15-0.05-0.09-0.1c1.35-1.31,2.73-2.6,4.3-3.65c1.79-1.2,3.85-2.08,6.01-2.17c1.39-0.06,3.13,0.13,4.44-0.43
			c0.72-0.31,1.64-1.21,1.41-2.11c-0.27-1.06-3.19-1.6-4.4-1.79c-2.73-0.43-5.28-0.59-7.61,0.34c-1.8,0.72-3.12,1.69-4.59,2.93
			c-1.46,1.23-6.28,5.62-6.74,5.96c-0.79,0.6-1.52,1.28-2.25,1.95c-1.53,1.42-2.96,2.94-4.28,4.55c-0.53,0.65-1.63,1.22-2.47,1.26
			c-2.16,0.1-4.81,0.08-4.94,0.29c-2.4,3.98-5.11,10.75-6.38,15.23c-0.76,0.7,6.68,0.07,8.92,0.1c6.18,1.56,14.92-5.29,17.09-7.11
			c1.49-0.71,2.97-1.42,4.47-2.1c1.2-0.54,2.03-0.86,3.36-0.81c1.13,0.05,1.89,0.51,2.94,0.72c1.11,0.22,2.77,0.05,2.68-1.5
			c-0.06-1-1.11-1.88-2.27-2.5c0.53,0.03,1.07,0.06,1.62,0.07c1.4,0.02,3.59-0.13,3.58-1.99c-0.01-2.27-4.33-3.6-6-3.81
			c-1.51-0.19-3.04,0.01-4.49,0.45c-0.73,0.22-2.19,0.83-2.88,1.16c-0.52,0.25,1.27-1.02,2.35-1.53
			C158.35,513.57,159.9,513.13,163.06,513.26z"/>
		<path class="st21" d="M129.75,473.67c-0.51-3.61-2.71-14.69-6.32-12.63c-5.79,3.3-11.59,8.23-15.98,13.3
			c-7.62,8.79-12.85,18.42-18.33,28.63c-3.73,6.96-9.83,16.35-10.9,24.31c-1.03,7.68,6.86,14.63,15.11,12.76
			c5.21-1.18,9.9-6.06,12.97-9.9c6.9-8.63,12.85-8.95,18.7-18.34c2.71-4.35,5.6-8.89,6.26-14.08
			C131.88,492.87,130.44,478.51,129.75,473.67z"/>
		<path class="st21" d="M133,516.54c-8.74-1.35-25.86-4.54-37.83-0.09c-0.14-0.12-0.33-0.16-0.56-0.07
			c-5.21,2.2-13.78,0.97-15.47,6.82c-2.73,9.4,0.83,14.53,4.88,17.62c7.52,5.73,42.23,2.7,44.2,0.8c0.21-0.2,0.23-0.45,0.15-0.66
			c0.07-0.1,0.11-0.22,0.1-0.37c-0.57-8.2,0.93-16.21,4.49-23.63C133.03,516.81,133.03,516.67,133,516.54z"/>
		<g>
			<path class="st9" d="M192.03,467.38c0.44,6.21,0.2,12.36-1.17,18.44c-0.1,0.42,0.55,0.6,0.65,0.18
				c1.39-6.14,1.64-12.35,1.2-18.62C192.68,466.95,192,466.95,192.03,467.38L192.03,467.38z"/>
		</g>
		<g>
			<path class="st9" d="M130.56,490.1c0.44,4.6,0.51,8.84-1.62,13.07c-1.98,3.93-4.25,7.72-6.39,11.56
				c-0.21,0.38,0.37,0.72,0.58,0.34c2.32-4.16,4.95-8.27,6.9-12.62c1.79-3.99,1.61-8.09,1.21-12.35
				C131.19,489.67,130.51,489.66,130.56,490.1L130.56,490.1z"/>
		</g>
		<g>
			<path class="st9" d="M134.17,517.24c-1.45-1.66-4.67-1.69-6.69-2.03c-2.58-0.44-5.18-0.79-7.79-1.03
				c-5.81-0.54-11.64-0.55-17.45-0.09c-0.43,0.03-0.43,0.71,0,0.67c5.17-0.41,10.35-0.44,15.52-0.07c2.77,0.2,5.53,0.52,8.27,0.95
				c1.17,0.19,2.34,0.39,3.51,0.62c1.34,0.26,3.22,0.37,4.16,1.45C133.98,518.04,134.45,517.57,134.17,517.24L134.17,517.24z"/>
		</g>
		<g>
			<path class="st9" d="M132.61,533.85c-0.36,2.16-1.29,3.8-2.66,5.48c-0.79,0.97-1.46,1.94-2.68,2.41
				c-0.97,0.38-2.11,0.51-3.12,0.67c-4.31,0.68-8.7,0.99-13.06,1.15c-7.67,0.29-15.79,0.32-23.26-1.65
				c-0.42-0.11-0.6,0.54-0.18,0.65c8.22,2.18,17.22,2.03,25.64,1.58c4.48-0.24,9.33-0.39,13.67-1.61c1.88-0.52,2.89-1.96,4.05-3.45
				c1.2-1.55,1.92-3.12,2.25-5.05C133.33,533.6,132.68,533.42,132.61,533.85L132.61,533.85z"/>
		</g>
		<g>
			<path class="st9" d="M128.14,534.2c-0.36,1.94-0.48,3.76-0.34,5.73c0.03,0.43,0.7,0.43,0.67,0c-0.13-1.91-0.04-3.67,0.32-5.55
				C128.87,533.96,128.22,533.77,128.14,534.2L128.14,534.2z"/>
		</g>
		<g>
			<path class="st23" d="M141.84,450.41c-1.41-0.86-2.93-1.37-4.56-1.56c-0.43-0.05-0.43,0.62,0,0.67c1.51,0.18,2.92,0.68,4.22,1.47
				C141.87,451.21,142.21,450.63,141.84,450.41L141.84,450.41z"/>
		</g>
		<g>
			<path class="st10" d="M169.5,459.78c-1.75,1.93-3.4,3.94-4.94,6.04c-0.26,0.35,0.33,0.69,0.58,0.34c1.5-2.06,3.12-4.02,4.83-5.91
				C170.26,459.94,169.79,459.46,169.5,459.78L169.5,459.78z"/>
		</g>
		<g>
			<path class="st10" d="M153.26,467.03c1.75,0.12,3.47,0.38,5.17,0.78c0.42,0.1,0.6-0.55,0.18-0.65c-1.77-0.41-3.55-0.68-5.35-0.8
				C152.83,466.32,152.83,467,153.26,467.03L153.26,467.03z"/>
		</g>
		<g>
			<path class="st10" d="M161.3,520.21c-3.11-2.09-6.77-1.07-9.67,0.88c-0.36,0.24-0.02,0.82,0.34,0.58
				c2.71-1.83,6.05-2.86,8.99-0.88C161.32,521.03,161.66,520.45,161.3,520.21L161.3,520.21z"/>
		</g>
		<g>
			<path class="st10" d="M304.36,445.2c1.65,2.22-0.84,5.15-1.83,7.18c-0.9,1.86-1.91,3.89-2.22,5.95c-0.28,1.92,0.5,3.29,1.11,5.04
				c0.98,2.82-0.37,5.32-1.86,7.66c-0.23,0.37,0.35,0.7,0.58,0.34c1.23-1.92,2.51-4.11,2.32-6.49c-0.08-0.96-0.44-1.81-0.8-2.69
				c-0.68-1.69-0.93-3.08-0.44-4.87c0.72-2.61,2.1-5.04,3.38-7.42c0.87-1.61,1.54-3.42,0.34-5.04
				C304.68,444.52,304.1,444.85,304.36,445.2L304.36,445.2z"/>
		</g>
		<g>
			<path class="st10" d="M318.82,439.24c-0.43,2.38-3.18,2.75-4.98,3.77c-1.26,0.72-2.38,1.67-3.35,2.75
				c-2.05,2.29-3.42,5.08-4.56,7.92c-0.16,0.4,0.49,0.58,0.65,0.18c1.33-3.31,3.04-6.7,5.83-9.02c1.48-1.23,3.15-1.74,4.81-2.63
				c1.16-0.62,2.01-1.47,2.25-2.79C319.55,438.99,318.9,438.81,318.82,439.24L318.82,439.24z"/>
		</g>
		<g>
			<path class="st10" d="M322.43,443.83c-2.5,0.58-5.01,1.41-7.04,3.04c-2.22,1.79-3.61,4.55-5.15,6.89
				c-0.24,0.36,0.34,0.7,0.58,0.34c1.41-2.15,2.7-4.7,4.63-6.42c2-1.77,4.6-2.62,7.15-3.21
				C323.03,444.38,322.85,443.73,322.43,443.83L322.43,443.83z"/>
		</g>
		<g>
			<path class="st10" d="M321.28,447.86c-1.45,1.57-3.73,2.36-5.35,3.81c-1.57,1.41-2.85,3.07-3.88,4.9
				c-0.21,0.38,0.37,0.72,0.58,0.34c1.09-1.94,2.48-3.68,4.18-5.12c1.53-1.29,3.59-1.99,4.94-3.46
				C322.05,448.02,321.58,447.54,321.28,447.86L321.28,447.86z"/>
		</g>
	</g>
	<g>
		<path class="st7" d="M207.48,677.36c0.04-1.27-1.93-1.27-1.97,0c-0.03,0.87-0.08,1.75-0.13,2.62
			c-11.73-5.43-24.37-10.48-37.14-12.55c-6.26-1.02-12.37-0.5-18.58,0.61c-6.72,1.21-13.43,2.53-20.14,3.82
			c0.08-0.53-0.44-0.97-1-0.99c0.2-0.89-1.21-1.56-1.86-0.65c-3.44,4.86-6.15,10.13-8.12,15.66c-2.63,5.23-4.76,10.7-6.35,16.35
			c-0.84,3.01-2.78,7.57,0.84,9.18c6.76,6.89,17.96,9.08,26.85,11.51c11.95,3.27,24.31,5.6,36.75,5.37
			c5.85-0.11,12.11-0.59,17.6-2.76c4.44-1.75,5.21-6.11,6.6-10.35c3.17-9.63,5.18-19.58,6.11-29.66c0.12-0.7,0.26-1.4,0.37-2.11
			c0.04-0.27-0.02-0.5-0.14-0.7C207.32,680.95,207.42,679.16,207.48,677.36z"/>
		<path class="st8" d="M215.97,534.54c-0.1-0.33-0.2-0.67-0.3-1c-0.22-0.7-0.46-1.39-0.73-2.07c-0.24-0.6-0.58-1.21-0.8-1.84
			c-0.15-0.45-0.25-0.91-0.2-1.38c0.01-0.11,0.03-0.22,0.05-0.32c0.33-1.26,1.77-2.17,1.86-3.77c0.07-1.34-1.15-1.97-2.23-2.37
			c-0.51-0.19-1.29-0.22-1.75-0.53c-0.64-0.43-0.85-1.34-1.19-2.09c-1.57-3.42-3.49-6.71-5.95-9.57
			c-12.91-14.94-38.89-1.73-35.05,17.56c1.81,9.07,10.62,11.69,18.93,13.31c0.69,0.14,2.82,4.2,3.53,4.97c5.14,5.54,15.45,3.4,21-1
			c1.23-0.97,2.67-1.96,3.21-3.5C217.05,538.9,216.54,536.56,215.97,534.54z"/>
		<path class="st8" d="M183.67,560.81c4.83-0.5,8.89-2.47,13.27-4.05c0.63-4.32,1.31-8.64,2.06-12.95c0.02-0.14,0.02-0.27-0.01-0.39
			c0.22-0.27,0.28-0.63,0-1.01c-2.64-3.49-6.25-5.8-10.34-7.64c-3.95-1.77-8.47-4.07-12.94-3.11c-0.37,0.08-0.59,0.29-0.69,0.54
			c-0.61,14.22-2.19,23.13-3.68,28.65C175.45,561.09,179.6,561.23,183.67,560.81z"/>
		<path class="st5" d="M205.82,513.66c-0.74-0.44-1.64-0.59-2.45-0.21c-2.6,1.23-4.52,5.55-2.17,7.76c0.12,0.11,0.25,0.23,0.41,0.28
			c0.29,0.09,0.5-0.12,0.68-0.32c1.31-1.4,2.66-2.52,4.2-3.68C208.03,516.34,207.22,514.49,205.82,513.66z"/>
		<path class="st5" d="M203.83,512.57c-0.01-0.05-0.01-0.09-0.02-0.14c-0.94-3.42-4.52-4.42-7.61-3.23
			c-4.28,1.65-8.01,6.18-10.91,9.53c-3.49,4.03-6.58,8.38-9.72,12.68c-2.26,3.08-6.8,7.13-5.11,11.31c0.06,0.15,0.14,0.27,0.24,0.36
			c1.27,2.53,2.12,5.18,2.6,7.97c0.09,0.53,0.49,0.74,0.9,0.71c0.18,0.07,0.39,0.08,0.63-0.01c2.41-0.93,3.1-3.1,5.76-3.62
			c4.06-0.8,4.37,1.2,7.82,2.2c3.94,1.14,7.11-9.36,7.63-16.82C196.53,526.24,207.11,520.51,203.83,512.57z"/>
		<path class="st5" d="M205.18,507.55c-0.07-2.64-1.64-4.82-4.12-5.86c-2.96-1.25-6.17-0.55-9.09,0.46c-1-0.63-2.12-0.99-3.28-1.08
			c-1.93-0.47-4.25-0.4-5.57-0.29c-3.02,0.24-5.85,1.2-8.35,2.74c-2.45,1.51-4.52,2.59-6.11,5.14c-1.55,2.5-2.6,5.27-4.06,7.81
			c-1.31,2.29-3.26,4.17-4.77,6.35c-3.08,4.45-5.32,9.85-3.31,15.22c0.98,2.61,2.91,5.24,5.49,6.46c2.5,1.18,4.9,0.03,7.34-0.68
			c1.06-0.31,2.33-0.72,3.46-0.51c1.29,0.23,2.11,1.3,3.32,1.69c0.93,0.3,1.98,0.06,2.83-0.42c1.56-0.88,2.74-2.41,4.11-3.55
			c2.73-2.26,5.68-0.66,8.56-2.29c0.8-0.45,1.5-1.02,2.13-1.65c0.78-0.7,1.34-1.49,1.76-2.34c0.14-0.24,0.27-0.48,0.4-0.73
			c0.09-0.18,0.12-0.36,0.11-0.53c0.51-1.61,0.66-3.37,0.78-5.16c0.19-2.99,0.69-5.4,3.1-7.41
			C204.48,517.1,205.97,513.56,205.18,507.55z"/>
		<path class="st8" d="M200.08,527.4c-1.42-1.7-3.34-2.75-5.06-2.01c-3.24,1.39-1.91,5.29-0.47,7.46c1.43,2.14,3.63,4.68,6.37,2.55
			C203.13,533.68,202.13,529.86,200.08,527.4z"/>
		<path class="st13" d="M214.94,531.47c-0.24-0.6-0.58-1.21-0.8-1.84c-0.22,0.34-0.45,0.67-0.72,0.99
			c-0.56,0.64-1.27,1.07-1.86,1.66c-1.03,1.04,0.51,1.66,1.39,1.75c0.85,0.09,1.85-0.11,2.73-0.49
			C215.44,532.84,215.21,532.15,214.94,531.47z"/>
		<path class="st12" d="M208.72,519.88c-0.35-0.47-0.85-0.87-1.5-0.74c-0.59,0.12-0.9,0.7-0.95,1.23c-0.08,0.89,0.26,2.03,0.8,2.75
			c0.54,0.73,1.66,1.17,2.32,0.32C210.13,522.49,209.35,520.72,208.72,519.88z"/>
		<path class="st8" d="M106.54,565.73c0.21-2.57,0.23-5.24-0.05-7.84c-0.17-1.56-0.36-4.69-2.58-4.61c-1.2,0.04-1.7,1.25-1.89,2.26
			c-0.04,0.2-0.03,0.59,0,1.1c-0.03,0.42-0.03,0.85-0.02,1.3c0.04,1.8,0.17,3.57,0.03,5.34c-0.61-2.06-1.38-4.76-1.43-4.91
			c-1.05-2.96-2.38-5.86-4.26-8.39c-1.48-2-3.25-3.96-5.48-5.14c-0.89-0.47-2.1-1.08-3.07-0.51c-1,0.59-1.14,1.88-0.68,2.85
			c1.07,2.25,3.74,3.94,5.07,6.13c1.48,2.43,3.02,6.44,3.5,9.22c-0.21,0.12-0.39,0.49-1.2-0.97c-1.95-3.51-3.21-6.87-6.03-9.88
			c-1.71-1.83-9.42-9.46-12.04-5.73c-1.07,1.52,0.63,3.38,1.86,4.15c2.85,1.78,5.24,3.68,7.28,6.9c0.97,1.53,3.66,7.65,3.48,8.05
			c-0.32,0.7-1.06-0.28-1.25-0.5c-1.73-2.54-3.38-5.07-5.79-7c-1.52-1.21-7.41-3.94-8.62-2.94c-2.02,1.67,0.37,3.83,1.77,4.81
			c2.64,1.86,4.92,2.77,6.69,5.56c0.51,0.79,1.77,2.33,1.32,3.39c-0.32,0.73-1.31-0.82-1.67-1.27c-1.07-1.36-2.36-2.53-3.88-3.36
			c-0.64-0.35-1.31-0.64-2-0.91c-0.56-0.22-1.51-0.75-2.12-0.62c-0.19,0.04-0.37,0.14-0.53,0.25c-1.31,0.91-0.34,2.81,0.51,3.72
			c0.96,1.04,2.22,1.73,3.26,2.69c1.01,0.94,1.89,2,2.69,3.12c0.65,0.92,1.34,1.87,1.81,2.92c0.53,1.18,0.52,2.35,0.7,3.61
			c0.12,0.81,0.27,1.62,0.44,2.42c0.39,1.83,0.89,3.64,1.5,5.41c0.57,1.64,1.24,3.25,2.03,4.79c0.05,0.09,0.07,0.19,0.08,0.28
			c0.34,3.45-0.16,3.75,0.35,7.05c0.03,0.19,0,0.39-0.12,0.55c-0.44,0.61-0.22,1.64,0.71,1.55c6.15-0.64,11.29-4.86,16.35-8.07
			c0.22-0.14,0.35-0.32,0.41-0.52c0.31-0.21,0.53-0.56,0.47-1.02c-0.33-2.56-0.75-5.09-1.26-7.62c0.02-0.06,0.04-0.12,0.06-0.19
			C103.35,580.99,106.22,569.65,106.54,565.73z"/>
		<g>
			<path class="st11" d="M192.66,533.95c-0.3,1.89-1.07,3.2-2.64,4.32c-1.1,0.79-2.17,1.24-3.55,1.14c-1.02-0.08-2-0.45-3.03-0.48
				c-1.55-0.05-3.05,0.42-4.33,1.29c-1.93,1.32-3.56,3.72-6.22,3.09c-0.42-0.1-0.6,0.55-0.18,0.65c1.97,0.47,3.55-0.51,5.02-1.74
				c1.13-0.94,2.19-1.93,3.63-2.36c1.76-0.52,3.25,0.02,4.98,0.23c3.51,0.43,6.45-2.74,6.96-5.96
				C193.37,533.71,192.73,533.53,192.66,533.95L192.66,533.95z"/>
		</g>
		<g>
			<path class="st11" d="M185.14,506.52c1.97-1.79,4.39-2.75,7.05-2.8c0.43-0.01,0.43-0.68,0-0.67c-2.84,0.05-5.43,1.09-7.53,3
				C184.34,506.34,184.82,506.81,185.14,506.52L185.14,506.52z"/>
		</g>
		<g>
			<path class="st11" d="M181.91,513.93c-7.31-2.25-13.63,2.83-17.82,8.28c-0.26,0.34,0.32,0.68,0.58,0.34
				c4.01-5.22,10.05-10.13,17.06-7.97C182.14,514.71,182.32,514.06,181.91,513.93L181.91,513.93z"/>
		</g>
		<g>
			<path class="st11" d="M178.39,519.56c-2.78,2.69-5.18,7.09-5.61,10.97c-0.18,1.65,0.14,3.45,1.29,4.71
				c1.3,1.43,3.3,1.85,5.12,2.19c0.42,0.08,0.6-0.57,0.18-0.65c-1.64-0.31-3.4-0.65-4.64-1.85c-1.6-1.53-1.5-4.01-0.94-5.97
				c0.94-3.22,2.66-6.59,5.09-8.94C179.18,519.73,178.7,519.25,178.39,519.56L178.39,519.56z"/>
		</g>
		<path class="st6" d="M202.17,563.47c-0.44-3.47-1.13-9.86-2.38-10.47c-3.05-1.48-8.33-1.31-11.65-0.93
			c-12.33,1.41-16.48,3.93-17.45,5.51c-0.78,1.27-2.2,6.72-3.02,9.71c-0.16,0.58,0.06,1.04,0.43,1.33c0.79,3.98,8.24,0.85,10.8,0.28
			c7.02-1.58,13.86-3.91,21.05-4.62C200.72,565.06,202.34,564.8,202.17,563.47z"/>
		<path class="st6" d="M212.72,679.34c-0.14-0.01-0.29,0-0.44,0.03c-9.26,1.68-18.47,3.21-27.76,4.23
			c-9.44,0.39-18.89,0.51-28.36,0.12c-15.33-0.63-31.09-1.62-45.67,3.75c-0.23,0.08-0.41,0.2-0.57,0.33
			c-0.35,0.11-0.66,0.34-0.88,0.75c-2.87,5.4-4.81,11.06-5.74,17.04c-0.7,4.58,10.58,3.34,13.09,3.15
			c14.85-1.14,29.84,0.48,44.71,0.73c7.61,0.13,15.29,0.58,22.88-0.06c6.36-0.54,14.02-1.26,19.64-4.3
			c4.14-2.23,4.71-5.72,6.45-9.53c2.11-4.63,3.77-9.4,5.01-14.31C215.44,679.83,213.85,678.98,212.72,679.34z"/>
		<path class="st6" d="M106.32,592.42c0.01-0.15-0.61-5.53-2.07-5.53c-2.94,0-8.19,1.12-10.81,2.35c-2.97,1.39-6.2,3.25-8.5,5.65
			c-2.01,2.09-1.1,5.48-0.77,8.21c-0.5,0.68,17.93-6.69,21.71-8.89C106.63,593.78,106.66,592.99,106.32,592.42z"/>
		<path class="st14" d="M324.23,473.6c-0.68,0.32-2.99,1.92-3.64,2.3c1.74-1.79,5.25-4.72,7.24-6.26c2.31-1.79,6.62-3.71,6.57-7.03
			c-0.01-0.45-0.39-0.86-0.77-1.04c-1.53-0.71-3.22-0.11-4.77,0.75c-1.52,0.6-2.92,1.63-4.27,2.62c-1.15,0.84-2.24,1.74-3.3,2.68
			c-1.36,1.14-2.69,2.33-4.01,3.52c-0.06-0.1-0.13-0.2-0.19-0.29c2.95-5.82,6.61-11.21,11.02-16.04c0.96-1.05,3.26-2.58,2.47-4.29
			c-0.17-0.37-0.4-0.62-0.65-0.77c-2.85-1.78-8.89,4.51-10.68,6.4c-1.74,1.84-3.23,3.91-4.62,6.03c-0.7,1.06-1.38,2.14-2.07,3.21
			c-0.34,0.54-0.66,1.18-1.07,1.67c-0.14,0.17-0.22,0.52-0.47,0.56c-1.11,0.18-0.29-1.67-0.11-2.1c0.56-1.34,1.16-2.66,1.77-3.98
			c1.46-3.11,3.07-6.16,4.82-9.11c0.76-1.29,4.2-5.96,0.33-6.1c-1.17-0.04-2.24,0.96-3.07,1.79c-1.17,0.92-2.15,2.06-3.02,3.29
			c-0.7,0.88-1.36,1.79-1.98,2.74c-1.45,2.23-3.5,4.71-4.61,7.12c-0.57,1.23-1.93,6.05-2.45,6.44c-0.67,0.51,0.57-5.74,1.19-7.79
			c0.53-1.75,0.93-3.11,0.36-4.89c-0.25-0.79-1.38-1.07-2-0.56c-2.19,1.76-3.34,4.56-4.26,7.14c-0.94,2.62-1.64,5.32-2.09,8.06
			c-0.45,2.75-3.11,16.85-4.07,21.14c-0.07,0.31-0.21,0.59-0.42,0.82c-2.87,3.23-10.34,11.87-10.34,11.87
			c3.73,3.25,9.34,7.31,13.72,9.61c0.61,0.32,8.76-7.75,11.39-11.77c0.28-0.43,8.95-3.76,12.76-17.54c2.67-2.77,5.73-5.1,9.17-6.85
			c1.52-0.77,5.49-1.94,3.69-4.38C330.2,470.43,325.96,472.78,324.23,473.6z"/>
		<path class="st24" d="M239.48,553.07c-0.21-0.46-0.52-0.74-0.86-0.89c-0.28-0.92-2.56-1.74-3.77-1.48
			c-13.03,2.85-24.79,3.68-37.91,6.06c-12.71,2.3-26.17,5.7-38.06,10.92c-6.87,3.02-15.59,8.12-20.36,14.01
			c-10.87,13.43-9.55,30.93-11.58,47.12c-1.15,9.16-2.4,17.61-7.63,25.43c-8.27,12.37-16.89,24.58-18.35,39.83
			c-0.57,5.93,2.64,4.03,6.57,3.32c4.04-0.73,9.49-2.23,13.7-2.71c14.21-1.63,27.94,1.06,41.83,3.69
			c10.29,1.95,21.16,3.13,31.75,2.09c5.52-0.54,10.98-1.69,16.2-3.56c5.59-2.01,7.04-4.89,9.5-10.11c1.81-3.85,3.24-7.9,4.49-11.96
			c2.56-8.31,4.25-16.86,5.82-25.41c2.6-14.09,4.13-28.36,4.62-42.67c0.06-1.58,0.35-3.15,0.93-4.63c2.72-6.92,4.6-14.13,5.53-21.55
			C243.07,571.47,243.4,561.57,239.48,553.07z"/>
		<path class="st6" d="M306.14,507.73c0-0.1-0.02-0.2-0.05-0.31c-1.37-5.31-5.24-9.47-10.12-12.05c-1.95-1.03-5.04-2.5-7.31-1.98
			c-0.82,0.19-6.12,4.2-6.56,5.84c-0.49,1.86,1.32,2.85,2.57,3.91c2.52,2.13,5.04,4.26,7.56,6.39c2.43,2.06,5.32,4.11,5.32,7.62
			c0,1.49,2.03,1.67,2.52,0.53c0.13-0.09,0.26-0.21,0.37-0.37c1.85-2.76,4.77-5.36,5.78-8.62
			C306.34,508.31,306.29,507.99,306.14,507.73z"/>
		<path class="st24" d="M296.94,501c-2.42-2.22-5.45-3.83-8.73-4.26c-1.46-0.19-3.65-0.36-5.02,0.26
			c-2.52,1.14-17.88,15.09-22.35,19.09c-8.14,7.28-27.84,24.8-29.58,26.26c-6.3,5.29-11.83,9.46-16.4,11.71
			c-2.13,1.04-0.42,9.22,1.33,8.44c9.52,13.71,11.87,30.61,13.45,46.97c0.17,1.79,2.22,2.23,3.3,1.42c0.65,0.03,2.14-3.41,2.55-4.15
			c9.67-17.56,20.53-30.8,34.26-45.33c21.27-22.5,34.03-44.9,34.03-45.42C303.73,510.49,301.07,504.78,296.94,501z"/>
		<path class="st24" d="M115,624.44c0.29-0.46,0.44-1.03,0.31-1.7c-2.2-11.68-4.85-20.24-8.79-31.46c-0.61-1.72-2.32-1.67-3.86-1.1
			c-7.15,2.63-14.16,5.52-19.66,10.99c-0.63,0.34-1.07,0.98-1.02,1.93c0.65,12.58,0.43,22.62,3.87,34.79
			c2.87,10.14,10.58,18.4,21.41,18.71c1.2,0.03,5.58-9.32,6.38-13.97c0.95-5.51,1.55-11.07,1.86-16.65
			C115.55,625.31,115.34,624.8,115,624.44z"/>
		<path class="st24" d="M156.25,570.49c-1.1-1.55-6.89,2.2-6.91,2.21c-14.97,8.44-38.24,40.07-42.17,46.42
			c-3.82,6.16-10.73,12.57-12.1,19.82c-0.03,0.15-0.06,0.3-0.08,0.44c-1.01,5.92,1.56,13.68,7.47,16.22
			c9.83,4.23,21.1-6.15,27.96-11.89c9.44-7.9,17.89-16.91,25.95-26.19c5.45-6.28,6.38-15.83,6.49-23.88
			C162.95,585.44,161.03,577.23,156.25,570.49z"/>
		<g>
			<path class="st10" d="M102.12,563.83c0.59,1.73,0.97,3.5,1.11,5.33c0.03,0.43,0.71,0.43,0.67,0c-0.15-1.89-0.52-3.72-1.14-5.51
				C102.63,563.24,101.98,563.42,102.12,563.83L102.12,563.83z"/>
		</g>
		<g>
			<path class="st10" d="M196.1,535.29c0.22,0.33,0.46,0.56,0.77,0.79c0.76,0.56,1.23,0.93,1.56,1.87c0.49,1.4,1.17,2.7,2.02,3.91
				c0.25,0.35,0.83,0.02,0.58-0.34c-0.98-1.4-1.52-2.86-2.19-4.41c-0.46-1.07-1.55-1.24-2.16-2.16
				C196.44,534.6,195.86,534.93,196.1,535.29L196.1,535.29z"/>
		</g>
		<g>
			<path class="st10" d="M302.09,468c-0.57,1.05-1.04,2.14-1.43,3.27c-0.14,0.41,0.51,0.59,0.65,0.18c0.37-1.07,0.82-2.11,1.36-3.11
				C302.87,467.96,302.29,467.62,302.09,468L302.09,468z"/>
		</g>
		<g>
			<path class="st9" d="M124.83,650.04c13.02-10.98,25.5-24.06,29.26-41.23c0.09-0.42-0.56-0.6-0.65-0.18
				c-3.73,17.07-16.15,30.03-29.08,40.94C124.02,649.85,124.5,650.32,124.83,650.04L124.83,650.04z"/>
		</g>
		<g>
			<path class="st9" d="M111.31,612.97c-2.76,3.4-5.21,7.02-7.34,10.85c-0.21,0.38,0.37,0.72,0.58,0.34
				c2.1-3.78,4.51-7.36,7.24-10.72C112.05,613.11,111.58,612.63,111.31,612.97L111.31,612.97z"/>
		</g>
		<g>
			<path class="st9" d="M238.6,596.67c-2.83,7.59-5.66,15.19-8.5,22.78c-0.15,0.41,0.5,0.58,0.65,0.18
				c2.83-7.59,5.66-15.19,8.5-22.78C239.4,596.45,238.75,596.27,238.6,596.67L238.6,596.67z"/>
		</g>
		<g>
			<path class="st9" d="M219.84,552.99c6.95-2.61,14.28-5.26,21.78-3.53c0.42,0.1,0.6-0.55,0.18-0.65
				c-7.63-1.76-15.06,0.87-22.14,3.53C219.26,552.49,219.43,553.14,219.84,552.99L219.84,552.99z"/>
		</g>
	</g>
	<path class="st8" d="M393.42,539.88c-0.94-3.09-3.43-6.02-5.89-8.51c0.01-0.32-0.11-0.65-0.44-0.94
		c-8.37-7.4-16.75-14.81-25.12-22.21c-7.56-6.69-22.92-22.79-23.51-22.4c-5.38,0.62-9.95,5.36-12.13,9.83
		c-0.08,0.17-0.13,0.35-0.14,0.51c-0.13,0.32-0.11,0.71,0.17,1.1c12.71,17.41,42.76,53.76,53.2,58.02
		c3.65,1.49,7.83-1.73,10.31-4.49C392.48,547.88,394.62,543.85,393.42,539.88z"/>
	<path class="st6" d="M418.64,599.37c-0.25-12.63-4.99-28.82-10.7-40.03c-2.9-5.68-6.24-12.02-10.52-16.81
		c-2.73-3.05-7.88,0.58-10.81,2.06c-5.37,2.72-10.37,6.2-14.78,10.3c-1.62,1.5-3.75,3.04-3.83,5.44c-0.1,2.82,0.9,5.98,1.41,8.74
		c1.28,6.92,2.83,13.83,5.43,20.39c1.02,2.58,2.07,5.49,3.71,7.75c1.39,1.92,2.91,1.91,5.18,2.2c8.16,1.03,16.32,2.23,24.5,3.09
		C412.78,602.97,418.65,599.72,418.64,599.37z"/>
	<path class="st25" d="M447.72,745.4c-0.1-0.47-0.1-0.94,0-1.41c2.38-11.68,2.15-23.73-0.99-35.26
		c-3.15-11.57-8.87-22.22-14.54-32.71c-2.14-5.6-3.35-11.57-6.75-16.6c-0.35-0.52-0.83-0.8-1.32-0.88
		c-0.32-0.34-0.76-0.58-1.33-0.64c-4.48-0.43-8.8,2.14-12.77,3.91c-5.11,2.28-10.2,4.61-15.49,6.45
		c-8.65,3.01-27.66,9.5-26.53,10.26c0.48,2.36,0.01,7.81,0.7,10.1c0.23,0.74,0.21,1.53-0.06,2.26c-3.2,8.88-8.65,35.73-6.72,62.51
		c0.02,0.26,0.12,0.47,0.22,0.66c0.16,1.8,0.55,3.57,2.04,4.57c3.17,2.12,10,1.77,13.7,2.27c7.79,1.04,56.97,3.06,69.7-8.22
		C447.8,752.48,448.07,747.14,447.72,745.4z"/>
	<path class="st8" d="M374.46,529.48c-5.08-1.88-12.24-0.23-16.58,2.58c-1.63,1.06-3.09,2.38-4.26,3.92
		c-1.4,1.85-2.1,4.06-3.22,6.04c-0.39,0.22-0.79,0.42-1.23,0.61c-0.84,0.38-1.48,0.83-1.89,1.67c-0.72,1.47-0.09,2.95,0.12,4.45
		c0.24,1.69-0.46,2.87-1.02,4.43c-1.27,3.51-2.01,7.27-1.88,11c0.11,3.01,2.42,5.87,5.14,7.14c6.28,3.19,11.68,2.01,16.53,0.8
		c0.28-0.07,0.49-0.2,0.64-0.36c0.56,0.17,1.22,0.07,1.66-0.5c3.45-4.48,7.38-8.67,10.74-13.18c2.51-3.37,3.89-7.46,4.12-11.61
		c0.34-6.11-2.21-14.16-8.4-16.8C374.78,529.6,374.62,529.54,374.46,529.48z"/>
	<path class="st17" d="M359.23,536.75c-0.79-1.25-1.98-2.27-3.39-1.82c-0.74,0.24-1.26,1.02-1.08,1.8c0.19,0.83,1.01,1.08,1.63,1.5
		c0.62,0.42,1.08,0.97,1.46,1.61c0.38,0.64,0.99,1.18,1.77,0.73c0.61-0.36,0.7-1.04,0.54-1.69
		C360,538.25,359.68,537.46,359.23,536.75z"/>
	<path class="st8" d="M385.96,585.34c-3.58-12.16-3.28-25.14-3.33-37.76c0-0.96-1.17-1.78-2.04-1.17c-1.11,0.79-2.64,2.9-2.68,3
		c-6.05,4.09-10.25,10.03-14.44,15.92c-0.02,0.02-0.05,0.04-0.07,0.06c-2.97,2.87-3.22,1.45-2.44,5.38
		c1.35,6.89,1.54,21.64,2.27,21.83c8.29,2.26,16.98,0.86,24.09-3.97C387.8,588.32,386.14,585.51,385.96,585.34z"/>
	<path class="st26" d="M428.51,661.76c0.52-12.87-2.61-39.89-4.97-49.89c-5.76-24.43-11.87-31.64-12.64-31.71
		c-7.59-0.72-18.63-0.56-26.24-0.16c-0.38,0.02-0.67,0.17-0.88,0.38c-15.15,3.07-29,10.68-39.74,21.81
		c-0.36,0.37-3.3,11.09-2.01,16.27c0.95,3.82,3.3,27.33,10.7,42.99c3.34,7.07,9.3,19.91,16.29,23.66
		c1.21,0.65,31.73,5.73,55.71-14.28C427.34,668.66,428.37,665.38,428.51,661.76z"/>
	<path class="st17" d="M418.31,569.92c-1.21-1.58-2.35-2.57-1.87-4.73c0.24-1.11,0.72-2.16,0.91-3.28c0.34-1.94-0.36-3.5-1.86-4.74
		c-0.92-0.75-2.15-1.37-3.24-2.1c-0.7-0.47-1.13-1.24-1.16-2.09c-0.03-0.82-0.05-1.65-0.1-2.51c-0.22-3.63-0.26-9.23-3.28-11.25
		c-1.85-1.23-4.37-1.63-5.61-3.48c-0.93-1.39-0.85-3.19-1.16-4.83c-0.84-4.43-5.09-7.96-9.61-7.97c-1.15,0-2.39,0.18-3.37-0.42
		c-0.71-0.44-1.14-1.21-1.57-1.92c-3.85-6.35-11.21-3.86-16.68-1.88c-0.87,0.31-1.77,0.64-2.69,0.55c-1.18-0.11-2.19-0.88-3.28-1.36
		c-2.48-1.09-6.16-0.11-8.38,1.45c-2.22,1.56-4.61,3.94-5.19,6.59c-0.58,2.66,1.35,5.36,3.21,7.36c0.6,0.64,1.32,1.15,1.92,1.79
		c3.77,4.09,2.47,10.48-1.55,13.83c-3.36,2.8-5.15,7.37-4.6,11.71c0.06,0.43,0.13,0.9-0.06,1.29c-0.26,0.54-0.9,0.76-1.47,0.94
		c-4.6,1.47-7.37,5.51-8.51,10.49c-1.09,4.76,1.09,9.82,4.76,12.47c4.12,2.97,8.14,2.43,13.02,1.03c4.84-1.39,10.63-3.46,15.66-3.33
		c2.54,0.07,5,1.13,7.38,1.89c1.85,0.59,3.99,1.36,5.96,0.95c1.95-0.41,3.55-1.97,5.18-3.04c3.04-2.01,6.93-2.45,10.01-0.23
		c1.89,1.36,5.25,1.71,8.09,1.09c1.67,0.39,3.45,0.33,5.13-0.23c3.75-1.26,5.94-5.05,5.79-8.92
		C420.02,573.21,419.44,571.39,418.31,569.92z"/>
	<g>
		<path class="st27" d="M384.78,532.52c2.93,4.02,4,9.2,2.73,14.03c-0.66,2.5-2.01,4.72-3.35,6.91c-1.12,1.84-2.68,3.91-3,6.11
			c-0.24,1.67,0.5,2.66,1.76,3.62c2.09,1.6,3.75,3.5,4.73,5.98c1.92,4.88,0.57,10.37-3.1,14.03c-0.31,0.31,0.17,0.78,0.48,0.48
			c3.21-3.2,4.8-7.78,3.96-12.27c-0.41-2.17-1.36-4.24-2.72-5.97c-0.64-0.81-1.37-1.55-2.18-2.2c-1.4-1.12-2.68-1.9-2.17-4.02
			c0.63-2.64,2.65-5.04,3.99-7.36c1.2-2.09,2.17-4.26,2.57-6.65c0.76-4.57-0.4-9.3-3.12-13.03
			C385.11,531.83,384.52,532.17,384.78,532.52L384.78,532.52z"/>
	</g>
	<g>
		<path class="st27" d="M380.85,530.13c-3.64-1.96-7.55,2.79-9.01,5.62c-2.39,4.62-2.17,9.95-0.99,14.88
			c0.1,0.42,0.75,0.24,0.65-0.18c-0.98-4.11-1.33-8.5,0.13-12.54c0.62-1.72,1.55-3.35,2.77-4.72c1.41-1.56,3.89-3.67,6.1-2.48
			C380.89,530.91,381.23,530.33,380.85,530.13L380.85,530.13z"/>
	</g>
	<g>
		<path class="st27" d="M375.36,526.9c-4.65-2.63-9.48,0.26-12.54,3.88c-0.28,0.33,0.2,0.81,0.48,0.48
			c2.85-3.37,7.34-6.26,11.72-3.78C375.4,527.7,375.74,527.12,375.36,526.9L375.36,526.9z"/>
	</g>
	<g>
		<path class="st27" d="M388.28,529.08c4.24-1.09,8.69,0.05,11.89,3.05c0.32,0.3,0.79-0.18,0.48-0.48
			c-3.37-3.17-8.06-4.38-12.54-3.23C387.68,528.54,387.86,529.19,388.28,529.08L388.28,529.08z"/>
	</g>
	<g>
		<path class="st27" d="M392.47,540c2.77,3.54,5.85,7.6,5.26,12.37c-0.28,2.24-1.48,3.78-2.9,5.44c-0.9,1.06-1.86,2.19-2.19,3.58
			c-0.69,2.94,1.7,5.2,3.95,6.63c1.85,1.18,3.96,2.18,5.06,4.19c1.11,2.03,0.86,4.52-0.36,6.42c-0.24,0.36,0.35,0.7,0.58,0.34
			c1.79-2.77,1.47-6.43-0.91-8.75c-2.86-2.79-10.14-4.88-7.01-10.17c0.95-1.61,2.48-2.8,3.41-4.42c0.94-1.62,1.23-3.53,1.07-5.38
			c-0.38-4.16-3.01-7.56-5.49-10.73C392.68,539.19,392.21,539.66,392.47,540L392.47,540z"/>
	</g>
	<g>
		<path class="st27" d="M401.27,550.51c1.51,1.57,3.06,3.17,4.1,5.1c1.05,1.94,1.03,3.99,1.66,6.05c0.3,0.97,0.63,1.15,1.62,1.24
			c2.41,0.22,4.34,0.98,5.91,2.91c0.27,0.34,0.75-0.14,0.48-0.48c-1.01-1.24-2.28-2.19-3.81-2.69c-0.78-0.26-1.53-0.26-2.32-0.41
			c-1.5-0.28-1.39-1.41-1.61-2.67c-0.71-3.98-2.8-6.67-5.55-9.53C401.44,549.73,400.97,550.2,401.27,550.51L401.27,550.51z"/>
	</g>
	<g>
		<path class="st27" d="M359.71,545.64c-1.89,3.97-2.9,8.3-2.8,12.7c0.01,0.48,0.25,1.35,0.1,1.76c-0.3,0.81-1.03,1.1-1.74,1.4
			c-0.69,0.29-1.35,0.64-1.97,1.06c-1.38,0.92-2.56,2.11-3.49,3.48c-4.03,5.97-1.75,14.12,4.49,17.52c0.38,0.21,0.72-0.37,0.34-0.58
			c-7.06-3.83-8.29-13.5-2.26-18.87c1.39-1.24,2.88-1.62,4.46-2.47c1.14-0.62,0.82-1.56,0.77-2.71c-0.19-4.48,0.76-8.91,2.69-12.95
			C360.48,545.59,359.9,545.25,359.71,545.64L359.71,545.64z"/>
	</g>
	<g>
		<path class="st27" d="M359.5,569.48c-1.03,2.2-2.02,4.71-1.38,7.17c0.49,1.89,1.85,3.43,3.78,3.84c0.42,0.09,0.6-0.56,0.18-0.65
			c-4.85-1.02-3.46-6.87-2-10.02C360.26,569.43,359.68,569.08,359.5,569.48L359.5,569.48z"/>
	</g>
	<path class="st8" d="M336.35,665.05c-3.65-9.07-11.96-14.88-21.96-15.25c-0.65-0.02-0.97,0.45-0.98,0.95
		c-3.4,6.45-7.51,12.44-12.35,17.94c-0.26,0.29-0.3,0.62-0.22,0.92c-0.07,0.16-0.1,0.34-0.07,0.54c0.7,5.03,2.33,10.03,5.18,14.31
		c2.42,3.65,5.62,5.09,9.94,3.78c8.33-2.53,17.35-17.5,20.57-22.06C336.75,665.74,336.64,665.32,336.35,665.05z"/>
	<path class="st12" d="M354.97,540c-0.05-0.45-0.29-0.82-0.9-0.83c-0.86-0.01-1.63,1.57-1.83,2.2c-0.19,0.6-0.47,2.47,0.3,2.82
		c1.08,0.49,1.83-2.23,2.15-2.87C354.87,540.97,355.02,540.45,354.97,540z"/>
	<path class="st13" d="M347.33,550.53c0.57,0.22,0.96,0.11,1.24,0.56c0.14,0.22,0.06,0.43-0.01,0.66c-0.14,0.47-0.28,0.95-0.48,1.41
		c-0.23,0.51-0.62,0.98-1.15,1.19c-0.31,0.13-1.06,0.33-0.91-0.19c0.22-0.77,0.49-1.63,0.8-2.36
		C346.87,551.69,347.25,550.63,347.33,550.53z"/>
	<path class="st26" d="M357.67,591.01c-19.81,9.28-32.21,29.2-42.34,47.64c-1.35,2.45-2.66,4.93-3.86,7.46
		c-0.76,1.61-1.49,3.01-0.98,4.79c1.11,3.85,5.96,7.74,8.92,10.2c7.6,6.32,19.42,12.17,28.65,9.72
		c2.28,0.01,10.85-26.11,12.52-39.35c0.91-7.26,0.09-13.33,0.35-20.64C361.14,604.72,358.35,590.69,357.67,591.01z"/>
	<g>
		<path class="st9" d="M421.35,740.37c-1.82,2.28-4.23,4.61-5.25,7.4c-1.26,3.44-1.87,7.21-2.74,10.76c-0.1,0.42,0.54,0.6,0.65,0.18
			c0.8-3.25,1.5-6.54,2.42-9.75c0.91-3.17,3.39-5.59,5.4-8.12C422.09,740.51,421.62,740.03,421.35,740.37L421.35,740.37z"/>
	</g>
	<g>
		<path class="st9" d="M373.31,692.45c19.59,4.48,40.83-0.87,55.96-14.09c0.33-0.29-0.15-0.76-0.48-0.48
			c-14.94,13.05-35.96,18.34-55.3,13.91C373.07,691.7,372.89,692.35,373.31,692.45L373.31,692.45z"/>
	</g>
	<g>
		<path class="st9" d="M357.23,618.66c2.38,13.64,1.15,27.72-3.54,40.75c-0.15,0.41,0.5,0.58,0.65,0.18
			c4.73-13.15,5.95-27.34,3.54-41.11C357.8,618.06,357.15,618.24,357.23,618.66L357.23,618.66z"/>
	</g>
	<path class="st8" d="M307.41,660.6c-2.75,5.56-9.83,0.97-15.51-1.14c-5.98-2.22-18.31-7.69-18.59-7.49
		c-3.82-1.71-8.76-2.66-11.81,1.07c-2.11,2.58-0.91,8.06,1.25,10.42c-0.26,0.35,17.09,12.69,26.54,17.7
		c4.44,2.35,8.8,5.08,13.65,6.4c4,1.09,10.85,2.24,14.6,0.02C321,686.15,307.87,659.67,307.41,660.6z"/>
	<path class="st8" d="M276.96,641.73c0-0.15-0.04-0.31-0.16-0.45c-1.99-2.34-3.76-4.83-5.3-7.48c-0.71-1.22-1.44-3.34-3.01-3.71
		c-4.37-1.03-2.08,6.92-1.52,8.52c0.05,0.14,0.13,0.23,0.22,0.3c0.15,0.45,0.3,0.9,0.38,1.38c0.21,1.12,0.36,1.74-0.78,2.26
		c-1.05,0.48-1.64,0.18-2.45-0.59c-0.52-0.49-0.91-1.12-1.23-1.76c-0.09-0.18-0.17-0.37-0.25-0.56c0.85-2.49,1.21-5.3-0.78-7.11
		c0.83-0.6,1.53-1.01,2.02-2.11c0.67-1.52,0.64-4.62-1.53-4.95c-0.26-0.04-0.54-0.01-0.83,0.05c0.04-0.1,0.08-0.19,0.13-0.29
		c0.82-1.81,1.66-4.23,0.96-6.23c-1.44-4.13-4.14,0.17-5.18,2.37c-0.03,0.03-0.06,0.05-0.08,0.09c-1.31,2.4-2.76,5.21-3.22,7.99
		c-0.44,0.3-0.86,0.63-1.22,0.98c-0.88,0.86-1.25,2.05-1.34,3.37c-2.93,2.75-3.97,7.97-2.99,11.63c0.28,1.81,1.25,3.9,1.94,5.46
		c2.66,5.96,14.97,15.32,15.43,15.31c3.79-0.13,14.05-10.95,14.06-11.28C280.43,649.55,280.1,646.29,276.96,641.73z"/>
	<g>
		<path class="st19" d="M261,626.23c-2.01,4.09-1.7,8.89,0.88,12.66c0.24,0.36,0.83,0.02,0.58-0.34c-2.43-3.57-2.78-8.1-0.88-11.99
			C261.77,626.19,261.19,625.84,261,626.23L261,626.23z"/>
	</g>
	<g>
		<path class="st19" d="M253.84,630.24c-0.75,5.69,1.98,10.79,4.7,15.58c0.21,0.38,0.79,0.04,0.58-0.34
			c-2.66-4.7-5.34-9.66-4.6-15.24C254.56,629.82,253.89,629.82,253.84,630.24L253.84,630.24z"/>
	</g>
	<g>
		<path class="st19" d="M251.46,634.82c-0.79,4.32,0.49,8.66,3.52,11.85c0.3,0.31,0.77-0.16,0.48-0.48c-2.86-3-4.09-7.12-3.34-11.2
			C252.19,634.58,251.54,634.4,251.46,634.82L251.46,634.82z"/>
	</g>
	<g>
		<path class="st19" d="M260.9,633.83c0.57-0.13,1.04-0.46,1.37-0.95c0.24-0.36-0.34-0.7-0.58-0.34c-0.23,0.34-0.57,0.55-0.97,0.64
			C260.29,633.28,260.47,633.92,260.9,633.83L260.9,633.83z"/>
	</g>
	<path class="st8" d="M340.91,456.84c-0.18-0.48-0.7-0.91-1.25-0.71c-1.88,0.7-1.88,2.89-2.24,4.67c-0.43,2.16-0.72,4.34-0.9,6.53
		c-0.1-0.04-0.18-0.1-0.28-0.14c0.05-3.34,0.1-6.68,0.14-10.02c0.02-1.46,0.61-5.03-1.51-5.57c-3.76-0.97-3.24,9.97-2.96,14.81
		c-0.19,0-0.38,0-0.57,0c-0.48-3.5-0.96-7-1.43-10.5c-0.4-2.94-0.15-6.94-2.98-8.7c-0.48-0.3-1.1-0.09-1.39,0.36
		c-1.62,2.54-1.14,5.3-0.83,8.16c0.42,3.92,0.85,7.85,1.27,11.77c-0.08,0.03-0.16,0.06-0.97-0.49l-2.6-8.9
		c-0.76-3.39-1.17-6.42-3.47-6.09c-3.19,0.46-1.3,10.5,0.73,15.88c0.52,1.85,1.01,3.71,1.43,5.59c0.53,2.39,1.36,5.34,0.74,7.76
		c-0.05,0.18-0.1,0.36-0.23,0.5c-0.48,0.54-0.85-0.15-1.09-0.51c-0.64-0.96-1.18-1.97-1.68-3c-0.7-1.45-1.41-2.8-2.88-3.56
		c-0.03-0.01-0.06-0.02-0.08-0.03c-0.13-0.08-0.28-0.13-0.46-0.15c-1.33-0.14-2.16,1.05-2.24,2.25c-0.09,1.32,0.32,2.65,0.91,3.82
		c0.8,2.41,2.37,4.91,3.16,6.26c2.73,4.7,6.37,9.35,10.71,12.6c0.4,0.3,12.05-11.47,12.09-11.8c0.54-4.55,0.23-9.17,0.18-13.72
		c0.32-3.19,0.64-6.37,0.96-9.56C341.45,461.75,341.81,459.32,340.91,456.84z"/>
</g>
<g>
</g>
<g>
</g>
<g>
</g>
<g>
</g>
<g>
</g>
<g>
</g>
</svg>
