<?xml version="1.0" encoding="utf-8"?>
<!-- Generator: Adobe Illustrator 26.1.0, SVG Export Plug-In . SVG Version: 6.00 Build 0)  -->
<svg version="1.1" id="Layer_1" xmlns="http://www.w3.org/2000/svg" xmlns:xlink="http://www.w3.org/1999/xlink" x="0px" y="0px"
	 viewBox="0 0 1080 760" style="enable-background:new 0 0 1080 760;" xml:space="preserve">
<style type="text/css">
	.st0{fill:none;stroke:#010101;stroke-width:0.425;stroke-miterlimit:10;}
	.st1{fill:none;stroke:#231F20;stroke-width:0.75;stroke-miterlimit:10;}
	.st2{opacity:0.302;fill:none;stroke:#231F20;stroke-width:0.75;stroke-miterlimit:10;}
	.st3{opacity:0.502;fill:none;stroke:#231F20;stroke-width:0.75;stroke-miterlimit:10;}
	.st4{opacity:0.6;fill:none;stroke:#231F20;stroke-width:0.75;stroke-miterlimit:10;}
	.st5{fill:#AB6D50;}
	.st6{fill:#F9E5D6;}
	.st7{fill:#621F2F;}
	.st8{fill:#F9A57A;}
	.st9{fill:#260E12;}
	.st10{fill:#C35E48;}
	.st11{fill:#864A2F;}
	.st12{fill:#260E0E;}
	.st13{fill:#FFFFFF;}
	.st14{fill:#FBB78B;}
	.st15{fill:#48528F;}
	.st16{fill:#C48C53;}
	.st17{fill:#4A2622;}
	.st18{fill:#984E37;}
	.st19{fill:#5F2619;}
	.st20{fill:#511D12;}
	.st21{fill:#7A87C2;}
	.st22{fill:#693622;}
	.st23{fill:#2F1212;}
	.st24{fill:#F26D59;}
	.st25{fill:#BEB7CD;}
	.st26{fill:#D9BDAC;}
	.st27{fill:#1B0E0E;}
</style>
<path class="st0" d="M1104.33,411.44c-108.08-279.39-225.16-182.61-321.24,58.44c-96.07,241.04-96.07,361.56-96.07,361.56"/>
<path class="st0" d="M1099.83,508.23C993.25,247.09,787.6,325.62,727.56,769.36"/>
<path class="st0" d="M1083.32,555.7c-43.54-96.78-304.73-153.39-268.7,208.18"/>
<g>
	<g>
		<path class="st1" d="M86.37,638.63c-12.4-19.24-23.51-40.74-32.86-64.73c-11-28.19-17.21-61.12-19.98-97.69
			c-4.76-62.62,0.52-135.77,9-213.56c37.8,116.76,131.03,192.96,228.39,248.18c12.03,6.81,23.85,14.46,35.01,22.88
			c43.57,32.72,77.44,77.2,77.69,132.15c0.05,15.58-0.58,32.25,0.13,48.41c1.39,30.22,7.48,58.65,31.66,74.97
			C361.59,801.14,183.68,789.67,86.37,638.63z"/>
		<path class="st2" d="M415.41,789.24c-37.11-25.05-31.6-78.63-31.79-123.38c-0.25-54.96-34.11-99.43-77.69-132.15
			c39.37,58.61,58.68,130.71,52.75,201.13c-14.79-23.38-31.27-45.7-49.33-66.73c-8.52-10.4-17.27-20.63-26.3-30.6
			c4.96-12.49,6.37-26.05,6.54-39.5c-0.32-23.37-5.93-47.61-18.83-67.33c-1.36-2.02-3.55-4.93-4.75-6.22
			c1.42,2.48,2.47,4.62,3.48,6.83c9.61,22.27,11.69,44.13,13.16,68.68c0.48,12.85,0.97,24.12-0.99,36.02
			c-12.7-13.94-25.98-27.34-40.1-39.84c-15.09-12.74-30.17-25.49-45.09-38.42c4.87-8.88,5.41-19.98,4.72-29.91
			c-1.28-18.57-8.48-37.59-21.67-53.95c-1.28-1.55-4.19-5.18-4.77-5.38c3.19,6.03,5.88,12.29,8.41,18.96
			c5.3,13.31,9.16,31.99,10.54,40.03c1.49,7.76,2.52,17.48,1.86,23.62c-0.03,0.88-0.28,2.95-0.74,5.2
			c-18.03-15.66-35.81-31.6-53.01-48.19c-17.03-16.49-31.22-31.63-44.58-49.75c-8.29-12.18-15.45-25.1-22.7-37.92
			c-8.67-16.45-15.29-29.77-22.3-47.88c-0.47-1.09-0.74-2.15-1.12-3.01c0.05,0.3,0.1,0.59,0.15,0.89
			c2.28,14.33,7.18,28.06,12.6,41.47c15.17,36.59,40.41,67.48,65.9,94.47c19.87,20.96,40.97,40.64,62.43,59.93
			c-24.12-2.67-47.42-9.58-70.56-16.66c-17.65-5.15-33.08-9.24-48.54-15.88c-14.28-18.41-27.52-37.61-39.55-57.53
			c2.77,36.56,8.97,69.5,19.98,97.69C136.37,786.37,354.75,802.66,415.41,789.24z M166.05,629.84
			c-32.79-27.2-62.76-57.85-89.2-91.25c20.57,11.59,43.08,19.86,66.11,24.83c16.36,3.51,33.14,3.88,49.81,3.4
			c13.54,12.16,27.22,24.17,40.83,36.25c15.04,13.63,29.67,28.76,43.5,43.96c-20.37-1.18-39.05-1.68-59.39-5.35
			C200.35,638.41,183.16,634.27,166.05,629.84z M179.59,640.77c16.36,4.88,33.07,8.32,50.27,8.97c16.1,0.9,32.15-0.66,48.2-1.64
			c13.54,14.94,26.3,29.93,37.88,43.61c8.5,10.37,21.75,25.38,36.5,42.7C289.93,713.44,231.48,681.35,179.59,640.77z"/>
		<path class="st3" d="M231.48,743.85c43.82,18.26,98.22,19.44,135.2-10.26c6.72-5.4,12.45-11.99,17.07-19.32
			c1.39,30.22,7.48,58.65,31.66,74.97c-53.82,11.89-231.74,0.43-329.04-150.62c9.95,7.63,19.65,15.64,29.16,23.68
			C151.74,692.99,187.69,725.59,231.48,743.85z"/>
	</g>
	<path class="st4" d="M283.05,655.87c20.02,25.52,40.23,51.05,63.64,73.59C326.58,704.42,305.12,678.12,283.05,655.87z"/>
	<path class="st4" d="M189.27,566.21c16.26,16.49,31.96,33.55,48.84,49.42c10.7,10.28,22.52,19.33,33.18,29.63
		C245.72,617.41,216.73,591.52,189.27,566.21z"/>
	<path class="st4" d="M95.84,472.03c-16.04-20.85-26.91-43.63-36.54-67.65c-2.25-5.57-4.53-11.67-6.72-16.96
		c1.3,4.18,2.51,8.38,3.8,12.56c9.84,34.19,28.77,64.95,52.79,91c22.44,25.23,47.43,48.12,74.39,68.44
		C152.84,531.84,121.03,504.22,95.84,472.03z"/>
	<path class="st4" d="M185.91,572.15c-14.44-0.89-28.69-3.96-42.64-7.71c-15.98-3.9-31.97-7.78-47.56-13.06
		c-1.74-0.55-3.97-1.35-5.38-1.8c1.41,0.67,2.83,1.32,4.26,1.96C123.26,564.08,154.47,572.33,185.91,572.15z"/>
	<path class="st4" d="M273.92,651.17c-14.78,0.77-26.46-0.84-40.77-2.26c-14.07-1.56-28.08-2.47-42.07-3.76
		c-1.67-0.16-3.79-0.44-5.15-0.6c1.33,0.33,2.67,0.63,4.01,0.92C217.51,650.59,245.93,655.89,273.92,651.17z"/>
	<path class="st4" d="M279.79,622.83c2.66-31.54-1.8-64.25-15.01-93.14c5.29,14.21,7.2,27.03,9.58,41.62
		c2.72,17.47,5.1,35.05,4.78,52.78c0,1.84-0.13,4.48-0.17,5.81C279.31,627.54,279.58,625.19,279.79,622.83z"/>
	<path class="st4" d="M193.57,547.1c0.01-26.22-5.44-53.19-20.57-75.03c5.12,9.51,8.03,20.17,10.97,30.58
		c3.89,14.91,6.87,28.71,8.88,43.64c0.24,1.79,0.43,4.35,0.6,5.68C193.52,550.34,193.56,548.72,193.57,547.1z"/>
</g>
<g>
	<g>
		<path class="st5" d="M533.05,94.49c-2.54-11.71-6.94-16.34-15.38-16.62c-15.01-0.51-22.91,5.43-28.74,13.03
			c-3.77,4.91-8.06,8.94-11.75,13.88c-3.93,5.26-9.15,8.46-13.64,13.09c-5.96,6.14-6.62,15.42-0.72,21.89
			c0.12,0.13,0.26,0.22,0.4,0.28c2.29,2.31,6.04,2.94,9.12,3.49c4.51,0.8,9.66,1.39,14.24,1c3.5-0.3,5.69-2.2,7.65-4.99
			c2.61-3.71,5.03-7.29,8.48-10.31c3.61-3.16,7.7-5.42,12.06-7.36c3.83-1.7,7.81-3.37,10.96-6.23
			C532.3,109.67,533.71,97.53,533.05,94.49z"/>
		<path class="st6" d="M545.57,118.65c-1.28-7.55-8.23-13.47-14.91-16.49c-7.23-3.28-15.46-1.76-22.55,1.09
			c-6.29,2.53-13.5,5.47-17.99,10.79c-0.81-1.01,5.27,8.28,8.35,10.65c4.05,3.13,8.16,6.21,12.5,8.95
			c4.03,2.54,8.26,4.78,12.73,6.44c4.01,1.49,9.57,3.55,13.8,2.03c0.39-0.14,0.61-0.43,0.68-0.75c0.18-0.08,0.34-0.23,0.45-0.47
			c2.9-6.12,6.92-12.3,7.15-19.28C545.8,120.61,545.73,119.62,545.57,118.65z"/>
		<path class="st6" d="M475.61,167.82c-0.69,7.81,0.7,12.17,2.31,19.71c-0.02,0.09-0.03,0.18-0.05,0.27
			c1.24,3.84-3.13,30.43-3.27,34.84c-0.11,3.37-0.32,6.77-0.6,10.12c-0.21,2.59-0.97,5.21-0.74,7.81c0.51,5.8,50.6,20.88,77.2-1.12
			c12.38-10.24,14.41-50.09,14.01-59.64c-0.14-3.32-0.14-6.63-0.2-9.94c-0.07-4.04-0.18-8.08-0.82-12.11
			c-3.72-23.46-23.29-31.93-31.09-38.58c-7.3-6.22-15.77-12.02-25.36-13.89c-10.59-2.06-21.53,3.49-28.3,11.42
			c-3.41,3.99-6.5,8.44-9.28,12.9c-1.36,2.19-2.61,4.45-3.71,6.78c-0.93,2-1.55,6.01-2.97,7.56c-0.59,0.65-0.85,1.59-0.29,2.58
			c3.95,7.08,8.38,13.85,13.26,20.3C475.02,161.19,475.64,167.5,475.61,167.82z"/>
		<path class="st7" d="M527.13,124.81c-0.11-1.14-0.99-1.69-1.93-1.23c-3.98,1.95-10.86,5.88-14.98,2.8
			c-1.04-0.77-2.02,0.44-1.86,1.52c-0.1,0.26-0.12,0.56-0.04,0.9c0.62,2.48,1.14,5.06,2.28,7.36c2.65,5.38,8.95,0.34,12.09-2.14
			C528.43,129.51,527.78,131.42,527.13,124.81z"/>
		<path class="st8" d="M531.79,102.35c-0.86-8.84-8.34-19.42-18.95-15.3c-0.08,0.03-0.15,0.07-0.22,0.11c-0.22,0-0.46,0.04-0.7,0.15
			c-5.27,2.38-9.35,5.32-11.34,10.77c-2.03,5.59-1.3,12.79-0.4,18.53c0.81,5.14,2.01,9.36,6.4,12.76
			c8.18,6.34,21.66,3.76,23.53-7.63c0.49-2.99,0.98-6.08,1.3-9.07C531.77,109.25,532.12,105.79,531.79,102.35z"/>
		<path class="st6" d="M419.17,149.21c-3.02-3.14-6.69,2.11-6.69,6.36c0,0.37,0.79,0.77,1.24,0.78
			C416.48,156.4,422.05,152.2,419.17,149.21z"/>
		<path class="st8" d="M431.46,146.15c-0.03-0.13-0.08-0.26-0.21-0.37c-2.63-2.27-5.07-4.71-7.32-7.34
			c-0.2-0.23-0.26-0.55-0.15-0.84c1-2.75,2.02-5.72,1.2-8.45c-0.83-2.75-2.92-5.85-5.47-7.36c-0.1-1.27-0.55-2.45-1.75-3.22
			c-0.04-0.03-0.08-0.05-0.13-0.07c-0.09-0.09-0.19-0.16-0.35-0.19c-3.77-0.74-9.23-2.17-12.79,0.03
			c-5.18,3.21-5.06,10.71-3.87,15.9c0.78,3.4,2.48,6.56,4.6,9.33c1.15,1.5,2.44,2.9,3.81,4.21c1.36,1.29,13.06,11.38,13.92,11.68
			c1.48,0.51,1.89-0.35,2.83-1.23c3.36-3.14,5.75-7,5.77-11.67C431.55,146.41,431.52,146.27,431.46,146.15z"/>
		<path class="st6" d="M490.66,108.57c-5.95,1.99-12.31,7.93-16.16,12.77c-4.47,5.63-8.59,11.37-13.58,16.58
			c-4.95,5.17-10.21,10.04-15.05,15.32c-3.82,4.16-7.56,8.71-8.1,14.55c-0.42,4.46-0.33,13.32,4.11,16.03
			c4.6,2.81,14.97-0.95,19.16-2.97c5.78-2.78,13.55-8.15,18.55-12.15c2.71-2.17,9.12-18.49,9.59-22.16
			c0.56-4.38,1.08-8.76,1.55-13.15c0.47-4.39,0.93-8.78,1.27-13.18C492.28,116.88,491.28,108.18,490.66,108.57z"/>
		<path class="st6" d="M448.9,156.27c-0.04-0.3,0.68-2.03-0.18-2.55c-2.47-1.5-4.97-2.95-7.43-4.46c-1.43-0.88-2.82-1.82-4.16-2.82
			c-5.96-4.44-6.54-3.07-7.59-3.85c-1.07-0.8-2.33-2.38-3.4-3.17c-0.52-0.38-1.15-0.34-1.15,0.3c-0.06,4.53-2.01,8.11-4.44,10.96
			c-2.06,2.41-5.89,3.57-7.19,3.61c-0.98,0.04-1.13,1.58-0.53,2.36c0.25,0.32,0.52,0.64,0.8,0.95c0.13,0.14,0.21,0.29,0.26,0.43
			c0.06,0.1,0.11,0.22,0.14,0.36c0.57,2.81,1.45,7.33,3.01,9.72c0.02,0.04,0.05,0.07,0.08,0.1c3.3,4.11,7.15,5.94,11.17,9.17
			c6.01,4.82,11.77,8.92,22.09,7.02C451.2,184.24,449.53,160.93,448.9,156.27z"/>
		<g>
			<path class="st9" d="M413.5,155.05c0.85-0.12,1.65-0.43,2.36-0.9c0.36-0.24,0.02-0.82-0.34-0.58c-0.67,0.45-1.4,0.73-2.2,0.84
				C412.89,154.46,413.07,155.1,413.5,155.05L413.5,155.05z"/>
		</g>
		<g>
			<path class="st9" d="M428.64,144.2c-0.85,6.31-5.39,11.66-11.5,13.48c-0.41,0.12-0.24,0.77,0.18,0.65
				c6.32-1.88,11.09-7.41,11.97-13.95C429.35,143.96,428.7,143.78,428.64,144.2L428.64,144.2z"/>
		</g>
		<g>
			<path class="st9" d="M447.91,155.05c2.4,2.54,3.67,5.75,4.88,8.96c0.15,0.4,0.8,0.23,0.65-0.18c-1.25-3.33-2.57-6.64-5.05-9.26
				C448.09,154.26,447.62,154.73,447.91,155.05L447.91,155.05z"/>
		</g>
		<g>
			<path class="st9" d="M538.1,115.89c-0.12,4.26-1.58,8.28-4.24,11.61c-0.27,0.34,0.21,0.81,0.48,0.48
				c2.77-3.48,4.31-7.63,4.44-12.09C538.78,115.45,538.11,115.45,538.1,115.89L538.1,115.89z"/>
		</g>
		<g>
			<path class="st9" d="M544.01,132.64c-2.13-0.28-3.98,0.6-5.78,1.66c-2.11,1.25-4.16,2.6-6.23,3.9c-4.28,2.7-8.64,5.28-13.42,6.98
				c-0.41,0.14-0.23,0.79,0.18,0.65c4.28-1.52,8.23-3.72,12.09-6.11c2-1.24,3.98-2.52,5.98-3.77c2.19-1.36,4.48-2.99,7.18-2.64
				C544.44,133.37,544.43,132.7,544.01,132.64L544.01,132.64z"/>
		</g>
		<path class="st6" d="M540.05,230.52c0.1-0.3-0.21-0.55-0.45-0.47c-0.01-0.02-0.02-0.04-0.05-0.06c-0.06-0.1-0.12-0.19-0.18-0.28
			c-0.15-0.23-0.32-0.46-0.49-0.68c-0.22-0.28-0.47-0.57-0.77-0.78c-0.49-0.33-1.13-0.47-1.67-0.19c-0.63,0.33-0.84,1.12-1.04,1.75
			c-0.3,0.96-0.49,1.94-0.62,2.93c-0.03,0.2,0.19,0.34,0.36,0.36c1.94,0.19,3.76-0.68,4.89-2.26
			C540.11,230.73,540.1,230.62,540.05,230.52z"/>
		<path class="st8" d="M535.56,221.21c-2.42-0.63-4.59-0.49-4.96,2.18c-0.54,3.92,1.72,13.56,2.17,13.18
			C535.76,234.12,541.99,222.88,535.56,221.21z"/>
		<path class="st6" d="M551.91,142.25c-0.69-0.98-21.89,5.62-24.75,27.73c-0.6,4.63-0.91,11.08-2.12,15.6
			c-1.08,4.02-2.64,7.89-4.23,11.73c-2.49,6.01-5.92,12.31-7.05,18.75c-0.32,1.81-1.59,5.97,0.38,7.09
			c1.51,0.86,4.51,0.08,6.16,0.18c5.4,0.35,13.93,2.64,17.1,7.34c0.83,1.23,2.28,1.04,3.06-0.39c0.31-0.15,12-29.07,15.35-43.84
			C559.03,172.29,560.89,155.01,551.91,142.25z"/>
		<path class="st8" d="M534.21,232.13c-0.14-1.81-0.65-3.68-1-5.4c-0.25-1.24-0.97-2.79-1.05-4c-0.32-4.8-0.05-12.92-2.14-13.82
			c-2.88-1.24-3.17,3.68-3.63,8.15c-0.01,0.1-0.16,0.1-0.17,0c-0.19-1.64-0.43-3.26-0.79-4.87c-0.57-2.55-1.23-5.81-3.59-7.3
			c-0.82-0.52-1.9-0.01-2.16,0.88c-0.14,0.48-0.22,0.96-0.28,1.43c-0.78-2.47-2.03-5.8-4.09-6.1c-3.35-0.49-2.16,3.97-1.78,5.61
			c0.42,1.77,0.84,3.54,1.26,5.32c-0.37-0.8-0.75-1.59-1.16-2.36c-1-1.86-2.84-5.11-5.34-4.61c-1.03,0.21-1.22,1.36-0.88,2.16
			c1.12,2.65,2.19,5.32,3.2,8.01c0.84,2.23,2.3,4.96,2.09,7.43c-0.21,2.56-3.1-1.31-3.65-2.2c-0.64-1.05-1.7-3.12-3.2-2.92
			c-0.28,0.04-0.67,0.01-0.86,0.23c-1.52,1.79-0.04,4.89,0.67,6.75c0.92,2.39,2.17,4.58,3.66,6.63c2.21,3.66,4.98,7.23,9.24,8.47
			c3.06,0.89,6.24,0.35,9.17-0.71c2.65-0.96,6.24-1.87,6.48-5.11C534.27,233.24,534.26,232.69,534.21,232.13z"/>
		<g>
			<path class="st10" d="M514.93,213.01c0.71,2.19,1.17,4.41,1.38,6.7c0.04,0.43,0.71,0.43,0.67,0c-0.22-2.35-0.68-4.63-1.4-6.88
				C515.44,212.42,514.79,212.6,514.93,213.01L514.93,213.01z"/>
		</g>
		<g>
			<path class="st10" d="M519.44,207.89c1.2,3.63,1.28,7.5,2.39,11.14c0.13,0.41,0.78,0.24,0.65-0.18
				c-1.12-3.65-1.19-7.52-2.39-11.14C519.95,207.3,519.3,207.48,519.44,207.89L519.44,207.89z"/>
		</g>
		<g>
			<path class="st10" d="M526.52,218.64c0.17,1.31,0.34,2.61,0.51,3.92c0.06,0.42,0.73,0.43,0.67,0c-0.17-1.31-0.34-2.61-0.51-3.92
				C527.13,218.22,526.46,218.21,526.52,218.64L526.52,218.64z"/>
		</g>
		<g>
			<path class="st9" d="M531.33,155.4c-2.36,6.96-4.1,14.24-5.21,21.5c-0.58,3.8-0.6,7.56-2.09,11.16
				c-1.87,4.53-3.51,9.16-5.51,13.63c-0.18,0.39,0.4,0.73,0.58,0.34c1.94-4.32,3.47-8.8,5.31-13.15c0.79-1.87,1.42-3.72,1.68-5.74
				c0.24-1.88,0.34-3.77,0.61-5.65c1.08-7.4,2.87-14.83,5.27-21.91C532.12,155.17,531.47,154.99,531.33,155.4L531.33,155.4z"/>
		</g>
		<g>
			<path class="st9" d="M558.14,188.01c-1.74,8.64-4.6,17.05-8.16,25.1c-1.71,3.88-3.6,7.68-5.69,11.37
				c-0.96,1.69-1.95,3.35-3.01,4.98c-1.33,2.07-2.51,3.33-5.04,3.33c-0.43,0-0.43,0.67,0,0.67c3.8,0,5.22-2.92,7-5.87
				c2.46-4.05,4.64-8.26,6.61-12.56c3.92-8.58,7.07-17.59,8.94-26.85C558.87,187.76,558.23,187.58,558.14,188.01L558.14,188.01z"/>
		</g>
		<g>
			<path class="st9" d="M532.03,178.76c-2.34,2.63-4.26,5.55-5.75,8.74c-0.18,0.39,0.4,0.73,0.58,0.34
				c1.46-3.14,3.34-6.02,5.64-8.61C532.8,178.91,532.32,178.44,532.03,178.76L532.03,178.76z"/>
		</g>
		<g>
			<path class="st10" d="M419.46,122.15c-0.99,0.62-2.53,1.24-3.24,2.2c-0.6,0.81-0.36,2.02-0.04,2.9c0.31,0.84,0.92,1.6,1.79,1.9
				c1.37,0.47,2.4-0.73,3.72-0.76c0.43-0.01,0.43-0.68,0-0.67c-0.53,0.01-0.97,0.14-1.45,0.35c-1.24,0.54-2.53,0.72-3.27-0.68
				c-0.59-1.12-0.61-2.34,0.45-3.18c0.72-0.57,1.59-1.01,2.37-1.49C420.17,122.5,419.83,121.92,419.46,122.15L419.46,122.15z"/>
		</g>
		<g>
			<path class="st10" d="M406.11,123.65c1.37-0.68,3.42-0.44,4.9-0.42c1.77,0.03,4.15-0.19,5.44,1.21c0.29,0.32,0.77-0.16,0.48-0.48
				c-1.39-1.51-3.65-1.35-5.54-1.4c-1.73-0.04-4-0.3-5.62,0.5C405.38,123.26,405.72,123.84,406.11,123.65L406.11,123.65z"/>
		</g>
		<g>
			<path class="st10" d="M420.84,128.57c1.1,0.89,1.72,2.12,1.45,3.55c-0.14,0.72-0.48,1.4-1.01,1.92c-0.88,0.84-1.89,0.49-2.75-0.2
				c-1.26-1.02-2.24-2.36-3.75-3.03c-1.55-0.69-3.21-0.56-4.87-0.59c-1.46-0.03-2.65,0.05-4.07,0.47c-0.41,0.12-0.24,0.77,0.18,0.65
				c2.24-0.67,5.45-0.83,7.7-0.2c2.41,0.67,3.46,3.24,5.7,4.08c1.43,0.53,2.69-0.82,3.25-2.04c0.84-1.84,0.16-3.86-1.36-5.09
				C420.99,127.83,420.51,128.3,420.84,128.57L420.84,128.57z"/>
		</g>
		<g>
			<path class="st10" d="M407.8,138.35c1.93-0.8,3.87-1.29,5.97-1.19c1.59,0.07,2.46,0.65,3.17,2.08c0.53,1.06,0.98,2.18,1.47,3.26
				c0.18,0.39,0.76,0.05,0.58-0.34c-0.93-2.06-1.57-5.04-4.11-5.58c-2.39-0.51-5.08,0.22-7.27,1.13
				C407.22,137.87,407.4,138.52,407.8,138.35L407.8,138.35z"/>
		</g>
		<g>
			<path class="st10" d="M419.98,135.14c0.72,2.07,1.03,4.75-1.57,5.53c-0.41,0.12-0.24,0.77,0.18,0.65
				c2.98-0.89,2.9-3.89,2.04-6.36C420.49,134.56,419.84,134.73,419.98,135.14L419.98,135.14z"/>
		</g>
		<path class="st5" d="M527.19,103.83c-1.65-1.02-3.62-1.29-5.18-0.02c-1.44,1.18-1.91,4.28,0.23,4.65
			c1.29,0.23,2.67-0.24,3.99-0.12c0.89,0.08,2.34,0.75,3.08-0.26c0.55-0.74,0.49-1.62-0.05-2.35
			C528.7,104.98,527.98,104.32,527.19,103.83z"/>
		<path class="st5" d="M502.49,105.74c-0.55,0.73-0.6,1.6-0.05,2.35c0.74,1,2.19,0.34,3.08,0.26c1.31-0.12,2.7,0.34,3.99,0.12
			c2.14-0.38,1.68-3.47,0.23-4.65c-1.55-1.27-3.53-1-5.18,0.02C503.77,104.32,503.05,104.98,502.49,105.74z"/>
		<g>
			<path class="st10" d="M409.41,142.94c1.81,0.55,3.64,0.73,5.52,0.54c0.43-0.04,0.43-0.72,0-0.67c-1.82,0.18-3.59,0.01-5.34-0.52
				C409.18,142.17,409,142.82,409.41,142.94L409.41,142.94z"/>
		</g>
		<g>
			<path class="st10" d="M411.71,143.1c-1.02,1.6,2.06,3.38,3.4,3.25c1.36-0.13,2.35-1.12,3.29-2c0.88-0.83,1.11-1.37,0.41-2.47
				c-0.23-0.36-0.82-0.03-0.58,0.34c0.82,1.28-1.47,2.9-2.42,3.25c-0.98,0.35-1.74,0.2-2.53-0.43c-0.33-0.26-1.32-1.06-0.98-1.59
				C412.52,143.07,411.94,142.73,411.71,143.1L411.71,143.1z"/>
		</g>
		<path class="st5" d="M540.7,104.97c-0.15-0.66-0.31-1.31-0.48-1.96c-1.66-6.3-3.76-13.75-8.28-18.64
			c-9.55-10.33-26.86-7.09-36.69,0.98c-3.54,2.9-5.48,8.83-8.69,12.55c-12.08,14.04-17.72,30.16-19.91,38.18c0,0.01,0,0.03,0,0.04
			c0.46,2.82,3.19,2.21,5.03,1.16c1.77-1.01,3.24-1.61,5.32-1.43c2.36,0.2,4.35,0.74,6.29-0.05c2.67-5.63,6.31-12.48,8.66-14.61
			c2.88-2.61,5.12-5.99,7.02-9.35c0.92-1.63,0.25-3.26,1.27-1.64c2.48,3.96,13.31-11.25,15.62-14.35c0.34-0.45,1.87-0.53,2.06,0.01
			c0.88,2.45,2.09,4.78,3.46,7.02c2.48,4.04,4.6,6.88,8.5,9.15c0.54,0.32,0.86,0.91,0.79,1.53c-0.69,6.19-2.49,12.31-5.77,17.61
			c-2.7,4.37-6.58,7.28-10.35,10.39c-0.06,0.14-0.15,0.27-0.29,0.39c-3.86,3.48-7.51,8.01-8.39,13.29c-0.46,2.78,0.4,3.61,3.06,3.2
			c1.87-0.29,3.36-0.64,5.28-0.39c4.79,0.63,8.58,2.63,13.32-0.02c0.02-0.02,0.05-0.04,0.07-0.06c4.25-4.26,7.37-9.59,8.27-15.72
			c0.24-1.66,0.25-3.34,0.17-5.01c-0.08-1.57,1.02-3.23,1.67-4.59c1.27-2.65,2.45-5.31,3.23-8.15
			C542.7,118.11,542.18,111.36,540.7,104.97z"/>
		<path class="st8" d="M502.06,115.32c-0.19-3.48-1.99-7.88-4.39-6.95c-1.07,0.42-1.21,1.52-1.18,2.43c0.1,2.78,0.98,6.39,3.05,8.36
			C502.28,121.76,502.14,116.82,502.06,115.32z"/>
		<g>
			<path class="st9" d="M537.53,230.89c0.38,0.13,0.62,0.44,0.72,0.82c0.1,0.42,0.75,0.24,0.65-0.18c-0.15-0.62-0.59-1.08-1.19-1.29
				C537.3,230.09,537.12,230.74,537.53,230.89L537.53,230.89z"/>
		</g>
		<g>
			<path class="st9" d="M497.39,123.13c-0.38,5.14,2.31,10.4,4.5,14.91c0.19,0.39,0.77,0.05,0.58-0.34
				c-2.12-4.38-4.78-9.57-4.4-14.57C498.1,122.69,497.42,122.7,497.39,123.13L497.39,123.13z"/>
		</g>
		<g>
			<path class="st9" d="M476.61,153.02c-1.25,7.68-1.38,15.46-0.37,23.17c0.06,0.42,0.73,0.43,0.67,0c-1-7.65-0.89-15.38,0.34-22.99
				C477.33,152.78,476.68,152.6,476.61,153.02L476.61,153.02z"/>
		</g>
		<g>
			<path class="st11" d="M504.48,87.88c-4.87,4.06-6.59,10.39-7.06,16.48c-0.03,0.43,0.64,0.43,0.67,0
				c0.46-5.92,2.14-12.06,6.87-16.01C505.29,88.08,504.81,87.6,504.48,87.88L504.48,87.88z"/>
		</g>
		<g>
			<path class="st11" d="M491.49,90.73c-4.41,5.92-5.37,13.19-8.51,19.71c-1.76,3.66-4.3,6.17-7.64,8.44
				c-2.74,1.87-5.56,4.01-6.14,7.48c-0.07,0.42,0.58,0.61,0.65,0.18c0.73-4.32,4.89-6.23,8.04-8.63c2.61-1.99,4.5-4.61,5.87-7.57
				c2.97-6.41,3.99-13.49,8.3-19.27C492.33,90.72,491.74,90.39,491.49,90.73L491.49,90.73z"/>
		</g>
		<g>
			<path class="st11" d="M529.18,97.78c1.09,4.5,1.63,9.08,1.62,13.71c0,0.43,0.67,0.43,0.67,0c0.01-4.69-0.55-9.33-1.65-13.89
				C529.72,97.18,529.08,97.36,529.18,97.78L529.18,97.78z"/>
		</g>
		<g>
			<path class="st11" d="M534.36,138.69c-1.78,2.27-3.57,4.53-5.33,6.83c-1.59,2.08-3.02,4.24-3.7,6.8
				c-0.11,0.42,0.54,0.6,0.65,0.18c0.7-2.66,2.25-4.86,3.92-7.01c1.64-2.11,3.29-4.21,4.94-6.32
				C535.1,138.83,534.62,138.35,534.36,138.69L534.36,138.69z"/>
		</g>
		<path class="st12" d="M525.99,111.9c-0.08-1.1-0.78-2.78-2.36-2c-1.58,0.77-1.56,4.08-0.23,5.12
			C525.37,116.55,526.08,113.04,525.99,111.9z"/>
		<path class="st12" d="M504.73,112.39c0.08-1.1,0.78-2.78,2.36-2c1.58,0.77,1.56,4.08,0.23,5.12
			C505.35,117.04,504.64,113.53,504.73,112.39z"/>
		<g>
			<path class="st10" d="M513.99,115.07c-0.45,0.95-0.91,1.98-0.61,3.04c0.26,0.92,1.03,1.49,1.79,1.99
				c0.36,0.24,0.7-0.34,0.34-0.58c-0.63-0.42-1.25-0.85-1.46-1.62c-0.24-0.88,0.15-1.71,0.52-2.49
				C514.75,115.02,514.17,114.68,513.99,115.07L513.99,115.07z"/>
		</g>
		<g>
			<path class="st10" d="M517.18,119.34c0.38-0.4,0.87-0.61,1.43-0.61c0.43,0,0.43-0.67,0-0.67c-0.72,0-1.4,0.28-1.9,0.8
				C516.4,119.17,516.88,119.65,517.18,119.34L517.18,119.34z"/>
		</g>
		<path class="st13" d="M520.58,120.82c-2.53,1.09-5.22,1.24-7.87,0.52c-1.55-0.42-0.46,1.65-0.08,2.07
			c2.3,2.59,7.28,1.43,8.82-1.47C521.85,121.18,521.3,120.51,520.58,120.82z"/>
	</g>
	<path class="st14" d="M668.7,184.28c-1.69-2.04-7.32-5.31-11.13-6.3c-0.2-0.09-0.42-0.12-0.67-0.05c-3.53,0.96-6.53,2.85-9.65,4.69
		c-1.75,1.03-3.52,2.01-5.33,2.93c-0.95,0.48-2.65,0.92-3.32,1.84c-1.31,1.82,0.2,5.56,0.99,7.33c1.28,2.85,10.05,18.23,12.73,20.03
		C664.34,222.85,677.93,195.44,668.7,184.28z"/>
	<path class="st15" d="M549.01,239.02c-1.51-5.12-9.67-12.54-9.67-12.34c-2.34,1.11,0.52,13.44,1.45,16.31
		c0.91,2.8,5.62,13.53,10,11.4c1.82-0.89,0.58-5.49,0.53-7.34C551.23,244.27,549.79,241.65,549.01,239.02z"/>
	<path class="st14" d="M558.19,244.43c-1.27-6.37-3.24-15.45-9.86-18.18c-0.5-0.21-0.97-0.12-1.33,0.12c-0.37-0.22-0.85-0.27-1.33,0
		c-3.19,1.77-6.42,3.47-9.67,5.12c-0.01-0.14-0.02-0.27-0.04-0.41c-0.23-1.96-0.67-8.1-2.51-9.37c-1.83-1.25-3.43,1.53-3.88,4.29
		c-0.7-1.75-1.97-5.19-2.84-6.88c-1-1.94-2.69-5.35-4.41-6.79c-0.89-0.74-3.47-0.72-4.03,0.89c-0.37,1.06,0.19,3.52,1.02,4.3
		c-2.4-2.25-6.07-5.34-9.64-4.67c-1.74,0.33-2.7,1.89-1.95,3.4c0.54,1.08,2.78,2.99,4.06,4.5c0.49,0.58,0.78,1.16,0,0.96
		c-0.98-0.25-1.93-0.7-2.43-0.81c-1.08-0.24-2.39-0.76-3.47-0.27c-0.4,0.18-0.97,0.73-1.02,1.2c-0.4,3.56,4.44,4.68,6.77,6.43
		c2.73,2.06,2.56,2.36,2.87,2.83c0.08,0.12-0.04,0.27-0.17,0.21c-4.1-1.75-9.06-3.73-10.97-0.94c-0.96,1.41-0.2,2.61,0.98,3.54
		c3.36,2.66,7.28,3.5,10.23,6.92c3.51,4.09,6.12,12.45,12.14,13.59c5.25,0.99,10.8-1.12,15.52-3.18
		C546.79,249.25,558.37,245.35,558.19,244.43z"/>
	<path class="st15" d="M669.76,301.96c-0.07-4.17-3-26.19-3.73-30.3c-1.4-7.95-3.94-15.66-7.11-23.07
		c-3.37-7.89-7.43-15.47-11.86-22.8c-3.35-5.56-7.66-12.85-13.71-15.86c-1.59-0.79-3-0.54-3.8,1.08c-0.74,1.5-0.95,3.76-1.29,5.37
		c-0.52,2.44-0.97,4.89-1.35,7.35c-1.38,8.93-1.69,17.89-1.55,26.91c0.34,20.86,3.28,59.58,3.68,80.44c-0.09,0.13,3.37,5,3.37,4.86
		c2.22-10.07,9.26-15.24,15.67-19.18c3.2-1.97,6.59-3.64,10.11-4.94c2.91-1.07,7.02-1.36,9.57-3.18
		C669.99,307.05,669.8,304.42,669.76,301.96z"/>
	<path class="st16" d="M652.79,274.28l0.95,3.15c0.68,2.24,1.76,4.48,1.19,6.79c-3.81,15.58-2.99,29.08-3.31,45.18
		c-0.54,27.06,2.33,90.08,5.55,120.03c0.07,0.65,0.33,1.27,0.79,1.73c6.81,6.83,29.73,7.23,38.56,1.11c1.01-0.7,2.11-1.2,2.05-2.43
		c-0.31-7.41-1.45-27.1-1.26-30.16c0.61-9.76,0.66-18.05,0.93-26.61c0.28-8.8-0.83-17.88,1.43-26.43c1.95-7.4,5.62-14.21,7.89-21.5
		c2.51-8.08,2.07-16.08,0.76-24.47c-0.65-4.16-1.35-8.31-1.61-12.49c-0.29-4.79-0.07-9.59-0.75-14.37
		c-0.92-6.55-3.63-12.67-8.18-17.84c-11.02-12.54-29.81-15.71-44.19-8.09c-0.08,0.04-0.14,0.09-0.2,0.14
		c-1.21-0.7-3.25,0.33-2.25,2.11C651.76,271.18,652.44,273.09,652.79,274.28z"/>
	<g>
		<path class="st9" d="M656.74,283.44c8.18,1.2,16.45,0.82,24.48-1.12c0.42-0.1,0.24-0.75-0.18-0.65
			c-7.91,1.91-16.08,2.3-24.13,1.12C656.5,282.73,656.32,283.38,656.74,283.44L656.74,283.44z"/>
	</g>
	<path class="st15" d="M626.65,219.54c-0.78-11.07-6.22-34.87-6.61-34.72c-10.58,4.12-20.9,8.9-31.07,13.96
		c-14.22,7.08-28.16,14.74-41.77,22.93c-2.55,1.53-5.23,2.88-7.58,4.73c-2.68,2.12,1.14,2.67,2.41,4.82
		c5.91,10.02,5.82,19.61,6.42,22.15c0.16,0.68,0.81,1.3,1.51,1.23c5.97-0.58,13.34-4.43,19.01-6.27c8.16-2.65,13.23-5.24,21.03-7.98
		c5.86-2.06,11.59-4.52,17.57-6.22c5.7-1.61,8.44-3.86,8.44,1.34c0,1.31,9.86-7.89,10.52-9.09
		C627.54,224.57,626.79,221.56,626.65,219.54z"/>
	<path class="st16" d="M676.06,291.22c0,0.04-0.01,0.07-0.01,0.11c0.2,6.55,0.39,13.1,0.59,19.65c0.16,5.34-0.75,11.17,2.81,15.81
		c3.65,4.76,6.32,9.5,8.11,15.11c1.71,5.39,2.94,10.88,3.99,16.39c4.08,21.39,12.64,58.98,21.6,80.3c0.27,0.64,0.96,0.58,1.66,0.61
		c3.16,0.13,5.25-1.28,7.64-2.73c10.5-6.37,20.32-16.39,26.22-27.35c0.38-0.7,0.53-1.5,0.47-2.29c-1.63-21.45-4.99-44.32-9.1-64.94
		c-3.06-15.33-6.45-31.72-14.08-45.89c-3.16-5.88-6.99-11.81-13.1-15.36c-13.34-7.75-29.1-1.79-36.99,9.17
		C675.47,290.35,675.65,290.88,676.06,291.22z"/>
	<path class="st14" d="M654.32,196.74c4.02-1.48,8.03-4.25,8.85-8.51c-0.61-0.96-1.16-2.01-1.74-3.13
		c-1.48-2.87-8.43-19.16-8.95-26.55c-0.05-0.74-4.07-0.07-4.15,0.52c-2.47,3.91-4.95,7.83-7.72,11.56c-1.96,2.64-5.3,5.51-5.48,8.97
		c-0.47-0.02-0.97,0.45-0.67,0.98c2.16,3.78,6.21,10.29,8.36,15.22C646.53,199.31,649.3,198.58,654.32,196.74z"/>
	<path class="st6" d="M718.2,276.75c0.16-0.31,0.24-0.67,0.16-1.09c-2.96-17.26-6.97-33.85-14.91-49.57
		c-5.01-9.92-11.29-19.16-18.51-27.61c-3.65-4.27-7.51-8.38-11.6-12.22c-0.62-0.59-6.25-5.09-8.07-6.28c0-0.1-0.06-0.6-0.13-0.72
		c-0.78-1.67-2.46-3.49-4.07-4.79c-1.11-0.9-3.78-2.68-4.99-2.68c-0.26,0,0.47,3.44-0.67,7.73c-0.73,2.76-2.82,8.76-4.33,11.01
		c-0.35,2.65-0.21,17.83-0.82,17.87c-0.37,0.28-5.41-11.16-7.91-16.79c-0.16-0.37-2.33-2.25-2.49-2.62
		c-1.24-2.98-3.39-5.52-3.75-6.7c-1.26,1.21-1.82,4.33-1.9,5.95c-0.12,2.26-0.04,4.53,0.08,6.79c-2.49,7.27-4.72,14.83-5.69,22.44
		c-0.21,1.63-0.26,3.24-0.2,4.83c-0.03,0.18-0.03,0.37,0.01,0.57c0.01,0.04,0.02,0.09,0.03,0.13c0.34,5.65,2.15,11.13,4.29,16.43
		c1.83,5.42,4.01,10.73,6.42,15.93c2.36,5.08,5.76,14.41,8.76,19.15c2.09,3.29,12.83,4.33,21.56,2.01c2.77-0.74,2.92,8.8,9.14,16.06
		c1.52,1.78,8.83,1.71,10.99,1.59c11.88-0.69,19.63-6.84,28.48-15.32C718.79,278.19,718.67,277.34,718.2,276.75z"/>
	<path class="st15" d="M641.4,191.88c-1.53-3.71-2.95-7.46-4.66-11.09c-12.28,0.72-19.62,5.03-30.47,9.8
		c-0.86,0.38-0.41,4.53,0.3,4.62c-0.74-0.1,3.14,17.95,3.81,19.61c1.22,3.01,2.77,5.87,4.62,8.53c1.21,1.73,1.57,4.3,1.38,6.22
		c-1.34,13.59-1.57,68.8,9.67,98.72c1.23,3.28,2.46,6.86,5.16,9.2c0.02,0.02,0.05,0.04,0.07,0.06c1.14,0.92,2.84,0.02,2.77-1.45
		C633.12,317.98,623.37,221.87,641.4,191.88z"/>
	<g>
		<path class="st9" d="M650.07,211.5c0.88,22.41,9.97,43.24,18.91,63.44c0.17,0.39,0.75,0.05,0.58-0.34
			c-8.89-20.09-17.95-40.82-18.82-63.1C650.73,211.07,650.06,211.07,650.07,211.5L650.07,211.5z"/>
	</g>
	<path class="st15" d="M726.08,239.98c-3.51-9.79-7.38-19.47-11.98-28.8c-3.88-7.87-7.8-16.84-16.16-20.79
		c-7.3-3.45-27.27-9.67-34.46-10.69c-1.72-0.24,2.07,5.26,2.75,6.85c3.68,8.66,4.76,18.81,6.41,27.71
		c2.42,13.01,4.64,26.06,7.31,39.03c2.66,12.92,8.23,37.56,12.39,50.08c3.63,10.91,7.83,21.87,15.46,30.66
		c0.13,0.15,0.27,0.25,0.42,0.32c7.69,3.68,16.2,2.63,23.19-2.07c6.36-4.27,14.55-13,13.36-21.34
		C741.86,290.47,733.03,259.37,726.08,239.98z"/>
	<path class="st6" d="M642.98,192.84c-1.91-3.92-4.02-6.43-5.56-10.51c-0.05-0.14-0.18-0.67-0.3-0.68c-0.11-0.14-0.32-0.2-0.47-0.03
		c-0.69,0.71-0.97,1.84-1.26,2.75c-0.59,1.88-0.89,3.84-1.22,5.79c-0.37,2.18,1.41,7.08,2.33,8.38c1.13,1.62,2.39,3.14,3.73,4.59
		c0.17,0.18,0.49,0.09,0.55-0.14C641.45,200.39,643.1,193.09,642.98,192.84z"/>
	<path class="st6" d="M662.22,175.49c0.03-0.12-3.21,0.05-3.66,0.54c-0.6,0.67-0.53,2.01-0.67,2.82c-0.24,1.4-0.51,2.8-0.82,4.19
		c-0.31,1.39-0.65,2.77-1.02,4.15c-0.22,0.81-0.95,2.16-0.68,3.01c0.23,0.72,1.57,1.4,2.17,1.85c1.07,0.79,2.19,1.53,3.34,2.2
		c1.14,0.67,3.47,2.98,4.38,1.39c1.24-2.18,0.75-6.03,0.91-8.47c0.12-1.93-0.29-5.45-0.93-7.49
		C664.58,177.58,663.67,176.95,662.22,175.49z"/>
	<g>
		<path class="st9" d="M642.04,194.23c0,2.34-0.03,4.68,0.17,7.01c0.04,0.49,0.09,0.98,0.16,1.47c0.08,0.57,0.5,1.16-0.41,1.06
			c-0.43-0.05-1.25-1.02-1.55-1.32c-0.61-0.61-1.13-1.28-1.61-1.99c-0.24-0.36-0.82-0.02-0.58,0.34c0.8,1.19,3.17,4.63,4.89,3.86
			c0.1-0.05,0.17-0.18,0.17-0.29c0-1.63-0.44-3.3-0.51-4.95c-0.07-1.73-0.06-3.47-0.06-5.2C642.72,193.8,642.04,193.8,642.04,194.23
			L642.04,194.23z"/>
	</g>
	<g>
		<path class="st9" d="M651.46,191.57c2.36,1.67,4.46,3.69,6.63,5.59c1.33,1.16,3.11,3.13,4.91,3.54c1.3,0.3,1.47-0.96,1.78-1.95
			c1.05-3.36,1.67-6.9,1.58-10.43c-0.01-0.43-0.68-0.43-0.67,0c0.09,3.17-0.43,6.32-1.29,9.37c-0.14,0.48-0.34,1.95-0.75,2.27
			c-0.48,0.38-1.37-0.33-1.81-0.62c-3.61-2.43-6.49-5.83-10.05-8.34C651.44,190.74,651.11,191.32,651.46,191.57L651.46,191.57z"/>
	</g>
	<g>
		<path class="st9" d="M631.24,241.13c-1.21,10.9-1.48,21.92-1.49,32.88c-0.01,12.32,0.39,24.65,1.4,36.93
			c0.48,5.83,1.1,11.65,2.04,17.43c0.07,0.43,0.72,0.25,0.65-0.18c-1.8-11.1-2.54-22.38-3.01-33.6c-0.5-12.14-0.58-24.32-0.11-36.46
			c0.22-5.67,0.56-11.35,1.19-16.99C631.96,240.7,631.29,240.7,631.24,241.13L631.24,241.13z"/>
	</g>
	<g>
		<path class="st9" d="M681.11,330.84c2.56,3.54,6.48,5.7,7.83,10.07c1.46,4.71,2.1,9.79,3.08,14.62
			c2.09,10.29,4.18,20.57,6.28,30.86c0.09,0.42,0.73,0.24,0.65-0.18c-2.14-10.5-4.27-21-6.41-31.51c-0.53-2.6-1.06-5.2-1.59-7.8
			c-0.47-2.32-0.81-4.73-1.63-6.96c-1.48-4.02-5.21-6.11-7.63-9.45C681.44,330.16,680.86,330.49,681.11,330.84L681.11,330.84z"/>
	</g>
	<path class="st14" d="M792.84,347.15c-0.37-0.87-0.79-1.7-1.27-2.47c0.41-0.27,0.67-0.74,0.58-1.4c-0.38-2.81-0.92-5.71-3.25-7.62
		c-1.03-0.85-2.27-1.39-3.5-1.89c-0.77-0.31-1.6-0.58-2.27-1.09c-0.69-0.53-1.26-1.28-1.91-1.88c-1.48-1.36-9.78-9.38-12.89-11.95
		c-0.98-0.81-2.08-1.61-2.79-2.71c-0.84-1.3-1.6-2.68-2.38-4.02c-1.68-2.89-3.31-5.8-4.9-8.75c-0.25-0.47-0.51-0.94-0.76-1.41
		c-0.62-1.16-1.9-0.92-2.59-0.14c-0.31-0.11-0.67-0.13-1.08-0.01c-3.24,1-7.97,2.93-11.22,3.93c-1.07,0.33-1.31,1.33-1,2.14
		c-0.01,0.22,0.02,0.47,0.14,0.73c1.15,2.62,2.41,5.2,3.78,7.71c1.33,2.44,3.48,4.89,3.84,7.68c0.57,4.41,1.86,8.97,3.61,13.06
		c1.32,3.1,3.4,5.85,6.06,7.96c1.34,1.06,2.81,1.97,4.36,2.7c1.88,0.9,4.03,1.75,6.09,0.86c3.13-1.36-1.11-4.54-2.65-5.11
		c-3.06-1.13-4.59-4.2-3.07-3.46c1.71,0.84,8.93,4.31,10.69,5.43c1.53,0.98,2.89,2.16,4.15,3.45c1.24,1.27,2.31,3.02,4.11,3.58
		c0.97,0.3,1.9,0.18,2.68-0.49c0.77-0.66,1.16-1.34,0.48-2.22c-0.87-1.13-1.64-2.73-2.55-3.83c-0.46-0.56-5.11-4.67-6.14-5.36
		c0.04-0.02,0.08-0.05,0.12-0.07c2.03,0.82,3.96,1.88,5.72,3.2c2.18,1.65,3.85,3.85,6.2,5.27c0.63,0.38,1.85,0.35,2.53,0.16
		C792.69,348.91,793.21,348.02,792.84,347.15z"/>
	<path class="st15" d="M756.6,313.9c3.18-1.89,5.13-4.47,7.51-7.15c0.81-0.91,1.05-2.2,0.61-3.34c-4.86-12.59-8.69-24.9-14.91-36.87
		c-5.17-9.95-10.56-19.78-16.03-29.57c-4.99-8.94-9.77-18.1-15.37-26.68c-5.49-8.41-7.91-13.22-17.58-18.23
		c-0.6-0.31-4.29,47.61,0.04,56.97c2.05,4.42,15.07,24.75,16.59,29.96c2.08,7.1,9.47,25.01,15.04,37.85
		c0.15,0.35,0.43,0.62,0.77,0.76C740.93,320.69,749.57,318.07,756.6,313.9z"/>
	<g>
		<path class="st9" d="M699.33,240.54c0.74,5.28,2.1,10.19,4.7,14.87c2.69,4.87,5.66,9.6,8.5,14.38c2.88,4.85,5.51,9.7,7.4,15.04
			c1.81,5.11,3.44,10.27,5.38,15.33c2.21,5.73,4.65,11.37,7.33,16.9c0.19,0.39,0.77,0.05,0.58-0.34
			c-4.85-10.03-8.62-20.39-12.24-30.91c-3.48-10.11-9.46-18.99-14.87-28.14c-1.57-2.66-3.1-5.35-4.12-8.28
			c-1.02-2.93-1.58-5.98-2.01-9.04C699.92,239.93,699.27,240.11,699.33,240.54L699.33,240.54z"/>
	</g>
	<g>
		<path class="st9" d="M732.63,317.01c1.47,1.96,4.23,2.13,6.49,2.36c0.43,0.04,0.43-0.63,0-0.67c-1.93-0.2-4.63-0.33-5.9-2.03
			C732.96,316.33,732.37,316.66,732.63,317.01L732.63,317.01z"/>
	</g>
	<path class="st14" d="M651.91,149.8c-2.2-7.96-10.32-18.28-19.09-12.38c-3.27,1.33-8.57,4.58-10.96,7.23
		c-3.09,3.42-4.36,7.98-4.9,12.46c-0.39,3.22-0.22,7.2,0.31,10.36c0.61,3.63,1.71,9.96,3.03,13.41c2.21,5.76,6.97,6.53,13.46,4.93
		c5.45-1.35,9.85-3.5,14.04-8.23c3.09-3.49,4.21-8.66,4.82-13.01C653.34,159.65,653.24,154.6,651.91,149.8z"/>
	<path class="st17" d="M640.53,156.36c-0.17-0.43-0.49-0.82-0.95-1.09c-1.75-1.02-4.28-1.04-6.12-0.33
		c-1.66,0.65-3.35,3.17-1.42,4.66c0.72,0.56,1.75-0.13,2.49-0.28c1.51-0.31,2.99,0.24,4.46-0.03
		C640.44,159.03,641.01,157.54,640.53,156.36z"/>
	<path class="st17" d="M623.96,157.7c-0.06-2.43-2.72-2.76-4.63-2.16c-1.47,0.47-3.71,1.78-2.63,3.83c0.68,1.28,2.37,0.66,3.67,0.67
		c0.86,0,1.68,0.48,2.55-0.08C623.63,159.5,623.98,158.57,623.96,157.7z"/>
	<path class="st17" d="M655.27,149.11c-0.05-0.15-0.99-0.05-1.15,0.02c-3.04,1.28-6.08,2.56-9.13,3.83
		c-0.27,0.11-0.25,0.49-0.08,0.61c0.16,1.92-0.19,5.65,0.2,7.53c0.73,2.99,2.52,3.62,4.61,2.92c0.99-0.33,1.6,0.55,1.42,1.3
		c0.6,0.02,1.34,2.24,1.58,2.67c0.63,1.11,2.07,4.4,3.03,3.23c0.39-0.48,1.09-9.22,1.09-10.3
		C656.84,156.99,656.62,152.85,655.27,149.11z"/>
	<path class="st18" d="M651.87,157.38c-2.84-0.45-3.91,2.31-4.94,4.12c-0.1,0.17-0.2,0.34-0.26,0.53c-0.07,0.21-0.1,0.44-0.12,0.66
		c-0.22,2.26-0.29,6.67,2.78,7.55c0.89,0.26,1.42,0.01,1.93-0.61c1.74-2.13,2.77-5.36,3.01-7.98
		C654.42,159.95,654.1,157.74,651.87,157.38z"/>
	<path class="st17" d="M620.46,188.37c0.58,0.66,1.31,1.17,2.29,1.39c2.24,0.51,3.93-0.99,6.02-1.23c1.54-0.18,2.95,0.52,4.49,0.48
		c0.3-0.01,0.58-0.03,0.86-0.08c0.69-0.21,1.35-0.45,2.01-0.72c0.97-0.54,1.84-1.3,2.68-2.14c1.08-1.08,1.99-2.25,3.22-3.18
		c1.29-0.98,2.95-1.37,4.26-2.32c4.03-2.92,1.84-10.09,1.39-14.03c-0.05-0.39,1-8.14-1.37-6.49c-1.61,1.12-0.38,7.5-1.52,10.93
		c-2.25,6.81-7.79,7.12-9.73,7.4c-0.53,0.08-1.07,0.05-1.58-0.1c-0.18-0.05-0.36-0.11-0.53-0.18c-0.87-0.33-1.34-1-2.12-1.4
		c-1.15-0.61-4.12-0.3-4.48-0.26c-0.53,0.01-1.03,0.42-1.53,0.75c-1.01,0.68-1.95,1.11-3.14,1.04c-0.26-0.02-0.51-0.14-0.68-0.33
		c-0.93-1.01-1.58-2.24-2.27-3.4c-0.06-0.1-0.13-0.2-0.25-0.21c-0.16,0-0.23,0.19-0.26,0.34c-0.46,2.74,0.15,5.52,0.76,8.23
		C619.38,184.6,619.5,186.79,620.46,188.37z"/>
	<path class="st17" d="M658.07,135.86c-1.3-2.04-3.74-2.79-6.12-2.38c-0.32,0.05-0.6-0.11-0.69-0.4c-0.7-2.19-2.32-3.8-4.87-4.63
		c-2.68-0.87-5.66,0.32-7.4,2.57c-2.5-1.51-6.27-1.26-9.16-0.59c-3.8,0.88-6.11,3.69-7.76,6.92c-0.2,0.39-0.67,0.6-1.07,0.46
		c-8.41-2.97-17.13,5.93-13.75,14.01c0.2,0.48,0.08,1.04-0.3,1.45c-0.46,0.49-0.99,1.11-1.05,1.22c-0.46,0.76-0.74,1.6-0.81,2.46
		c-0.15,1.67,0.48,3.34,1.71,4.41c4.23,3.67,11.87-0.47,14.27-4.93c0.54-1,0.81-2.86,1.36-4.38c0.13-0.37,0.65-0.39,0.78-0.04
		c0.53,1.41,1.51,2.64,2.96,3.47c1.62,0.93,3.61,1.25,5.54,0.9c2.4-0.44,4.93-3.33,7.29-3.35c0.53,1.35,1.49,2.38,3.37,2.56
		c4.92,0.47,6.17-4.35,10.48-5.14c0.24,0.44,1.86-0.47,2.42-0.88c2.5-1.84,3.53-4.75,2.64-7.39
		C658.88,140.1,659.34,137.86,658.07,135.86z"/>
	<path class="st12" d="M637.32,162.51c-0.08-1.11-0.46-2.16-1.33-2.55c-1.61-0.71-2.32,1.52-2.23,2.7c0.1,1.29,0.71,3.16,2.29,3.08
		c0.33-0.02,0.7-0.17,0.85-0.49C637.2,164.61,637.39,163.53,637.32,162.51z"/>
	<path class="st12" d="M622.62,163.57c-0.07-1.11-0.41-2.16-1.21-2.55c-1.46-0.71-2.1,1.52-2.02,2.7c0.09,1.29,0.64,3.16,2.07,3.08
		c0.3-0.02,0.63-0.17,0.77-0.49C622.51,165.67,622.69,164.59,622.62,163.57z"/>
	<g>
		<path class="st19" d="M625.33,164.26c-0.44,0.87-0.9,1.82-0.7,2.82c0.19,0.96,0.95,1.51,1.75,1.97c0.37,0.22,0.71-0.36,0.34-0.58
			c-0.74-0.43-1.42-0.88-1.46-1.85c-0.03-0.72,0.34-1.41,0.65-2.03C626.1,164.22,625.52,163.88,625.33,164.26L625.33,164.26z"/>
	</g>
	<g>
		<path class="st19" d="M628.17,168.24c0.52-0.37,1.19-0.31,1.62,0.16c0.29,0.32,0.77-0.16,0.48-0.48c-0.62-0.67-1.69-0.8-2.44-0.26
			C627.48,167.9,627.82,168.49,628.17,168.24L628.17,168.24z"/>
	</g>
	<g>
		<path class="st19" d="M651.18,159.93c-1.27,1.18-1.33,3.38-1.53,4.99c-0.05,0.43,0.62,0.43,0.67,0c0.17-1.38,0.24-3.5,1.33-4.52
			C651.97,160.11,651.49,159.63,651.18,159.93L651.18,159.93z"/>
	</g>
	<path class="st20" d="M633.83,170.89c0.02-0.35-0.1-0.61-0.51-0.54c-2.92,0.48-5.83,0.66-8.79,0.56c-0.88-0.03,0.23,2.87,0.39,3.21
		c0.62,1.39,2.22,1.35,3.55,1.32c1.23-0.02,2.42-0.41,3.38-1.26c0.6-0.54,1.15-1.19,1.55-1.91
		C633.51,172.06,633.81,171.38,633.83,170.89z"/>
	<path class="st13" d="M625.5,172.08c0.56,1.22,1.95,1.27,3.13,1.19c1.63-0.11,3.27-0.45,4.8-1.08c0.13-0.26,0.37-0.86,0.39-1.3
		c0.02-0.35-0.1-0.61-0.51-0.54c-2.66,0.44-5.33,0.62-8.02,0.57C625.32,171.34,625.36,171.77,625.5,172.08z"/>
	<g>
		<path class="st9" d="M615.68,210.82c-0.38,7.63,0.15,15.26,1.58,22.77c0.08,0.42,0.73,0.24,0.65-0.18
			c-1.42-7.45-1.93-15.01-1.56-22.59C616.38,210.38,615.7,210.39,615.68,210.82L615.68,210.82z"/>
	</g>
	<g>
		<path class="st9" d="M547.49,248.39c0.73,1.4,1.08,2.89,1.06,4.46c0,0.43,0.67,0.43,0.67,0c0.02-1.69-0.38-3.3-1.15-4.8
			C547.88,247.67,547.3,248.01,547.49,248.39L547.49,248.39z"/>
	</g>
	<g>
		<path class="st19" d="M535.8,232.57c0.87,4.05,0.92,8.13,0.13,12.2c-0.08,0.42,0.57,0.6,0.65,0.18c0.8-4.18,0.76-8.39-0.13-12.56
			C536.36,231.97,535.71,232.15,535.8,232.57L535.8,232.57z"/>
	</g>
	<g>
		<path class="st19" d="M529.45,227.08c0.06,1.72,1.01,3.35,0.87,5.07c-0.15,1.79-1.36,3.28-2.25,4.76
			c-0.62,1.03-1.19,2.12-1.33,3.33c-0.22,1.77,0.51,3.42,1.22,5c0.18,0.39,0.76,0.05,0.58-0.34c-0.97-2.15-1.63-4.18-0.56-6.42
			c0.6-1.27,1.48-2.38,2.14-3.62c0.48-0.91,0.86-1.89,0.89-2.93c0.05-1.67-0.82-3.18-0.88-4.84
			C530.11,226.65,529.43,226.65,529.45,227.08L529.45,227.08z"/>
	</g>
	<g>
		<path class="st19" d="M519.62,218.88c2.18,3.2,3.79,6.69,4.79,10.44c0.11,0.42,0.76,0.24,0.65-0.18c-1.02-3.8-2.65-7.35-4.86-10.6
			C519.96,218.19,519.38,218.53,519.62,218.88L519.62,218.88z"/>
	</g>
	<g>
		<path class="st19" d="M514.97,223.91c1.24,0.68,2.18,1.66,3.07,2.74c0.92,1.12,1.88,2.25,2.18,3.7c0.09,0.42,0.74,0.24,0.65-0.18
			c-0.3-1.44-1.19-2.55-2.09-3.67c-1.01-1.25-2.06-2.39-3.47-3.17C514.93,223.12,514.59,223.7,514.97,223.91L514.97,223.91z"/>
	</g>
	<g>
		<path class="st19" d="M514.78,231.85c0.91,0.64,1.72,1.4,2.42,2.26c0.28,0.33,0.75-0.14,0.48-0.48c-0.74-0.91-1.6-1.69-2.56-2.36
			C514.77,231.02,514.43,231.6,514.78,231.85L514.78,231.85z"/>
	</g>
	<g>
		<path class="st19" d="M780.45,335.77c4.39,1.25,7.95,4.25,9.95,8.35c0.19,0.39,0.77,0.05,0.58-0.34
			c-2.07-4.25-5.81-7.36-10.35-8.66C780.21,335,780.03,335.65,780.45,335.77L780.45,335.77z"/>
	</g>
	<g>
		<path class="st19" d="M782.96,334.43c3.04,1.08,6.2,2.59,7.33,5.86c0.14,0.41,0.79,0.23,0.65-0.18c-1.21-3.51-4.51-5.16-7.8-6.33
			C782.73,333.64,782.56,334.29,782.96,334.43L782.96,334.43z"/>
	</g>
	<g>
		<path class="st9" d="M707.38,202.99c-5.13,11.72-7.05,24.62-5.51,37.32c0.05,0.42,0.72,0.43,0.67,0
			c-1.53-12.57,0.33-25.37,5.41-36.98C708.14,202.94,707.56,202.6,707.38,202.99L707.38,202.99z"/>
	</g>
	<g>
		<path class="st9" d="M608.1,194.98c1.03,11.12,2.96,22.13,5.78,32.94c0.11,0.42,0.76,0.24,0.65-0.18
			c-2.8-10.75-4.73-21.7-5.75-32.76C608.73,194.55,608.06,194.55,608.1,194.98L608.1,194.98z"/>
	</g>
	<g>
		<path class="st9" d="M626.71,143.48c-1.44-2.36-4.02-4.02-6.87-3.4c-3.37,0.73-4.27,3.94-4.71,6.94c0.14-0.08,0.28-0.16,0.41-0.23
			c-3.95-1.62-7.83,1.56-7.24,5.72c0.06,0.43,0.71,0.25,0.65-0.18c-0.53-3.71,3-6.3,6.41-4.89c0.15,0.06,0.39-0.07,0.41-0.23
			c0.37-2.55,0.96-5.47,3.77-6.35c2.68-0.84,5.21,0.73,6.58,2.97C626.36,144.19,626.94,143.85,626.71,143.48L626.71,143.48z"/>
	</g>
	<g>
		<path class="st9" d="M623.7,149.96c0.82-2.36,1.85-5.23,4.54-5.99c0.81-0.23,1.39,0.05,2.13,0.06c0.19,0,0.38,0.13,0.57,0.09
			c0.66-0.15,1.14-1.02,1.67-1.38c4.66-3.07,10.04,2.29,7.37,7.03c-0.21,0.38,0.37,0.72,0.58,0.34c2.46-4.37-1.15-9.83-6.2-8.79
			c-1.19,0.25-2.07,0.83-3,1.57c-0.93,0.73-2.32,0.1-3.53,0.5c-2.8,0.94-3.9,3.83-4.78,6.38
			C622.91,150.19,623.56,150.36,623.7,149.96L623.7,149.96z"/>
	</g>
	<g>
		<path class="st9" d="M636.26,141.21c1.66-4.59,6.57-6.72,11.08-4.94c0.4,0.16,0.58-0.49,0.18-0.65
			c-4.88-1.92-10.14,0.51-11.91,5.41C635.46,141.43,636.11,141.61,636.26,141.21L636.26,141.21z"/>
	</g>
	<g>
		<path class="st9" d="M655.15,149.32c-1.03,0.94-1.92,1.28-3.27,1.48c-0.66,0.09-1.2,0.18-1.79,0.53c-1.66,1-2.29,3.36-4.43,3.62
			c-0.42,0.05-0.43,0.72,0,0.67c2.01-0.24,2.75-1.88,4.1-3.16c1.13-1.07,2.38-0.78,3.7-1.19c0.86-0.27,1.53-0.87,2.17-1.46
			C655.94,149.51,655.47,149.03,655.15,149.32L655.15,149.32z"/>
	</g>
	<g>
		<path class="st9" d="M701.35,289.35c2.57,7.62,8.3,13.03,15.11,16.97c0.38,0.22,0.71-0.36,0.34-0.58
			c-6.66-3.85-12.28-9.12-14.8-16.57C701.86,288.77,701.21,288.94,701.35,289.35L701.35,289.35z"/>
	</g>
	<g>
		<path class="st9" d="M621.81,286.42c-0.66,5.14-0.52,10.29,0.4,15.38c0.08,0.43,0.72,0.25,0.65-0.18
			c-0.91-5.04-1.02-10.13-0.38-15.2C622.53,285.99,621.86,286,621.81,286.42L621.81,286.42z"/>
	</g>
	<g>
		<path class="st21" d="M480.02,230.62c-0.36-0.17-11.01,7.3-13.58,13.48c-1.75,4.23-2.79,15.62,2.49,15.71
			c6.15,0.1,6.43-6.15,7.85-9.79C478.98,244.41,483.55,232.34,480.02,230.62z"/>
		<path class="st21" d="M354.53,216.04c-4.46-3.57-8.66-0.62-13.11,1.49c-0.46,0.22-0.92,0.44-1.38,0.66
			c-7.29,3.49-14.46,6.69-21.13,11.36c-5.66,3.96-11.75,7.34-15.13,12.78c-0.13,0.21-0.14,2.28,0.15,2.16
			c6.39-2.51,12.65-5.35,19.57-5.95c3.36-0.29,6.74-0.19,10.1,0.12c2.98,0.28,6.14,1.01,9.09,0.2c2.73-0.75,5.37-2.68,7.62-4.32
			c2.12-1.55,4.06-3.37,5.44-5.62C358.16,224.95,358.47,219.2,354.53,216.04z"/>
		<path class="st22" d="M381.52,189.73c-0.08-0.93-0.19-1.87-0.32-2.82c-0.52-3.91-1.31-7.94-3.5-11.29
			c-2.34-3.58-6.08-5.75-10.14-6.86c-0.22-0.06-1.14,0.64-1.28,0.74c-0.02,0.01-0.05,0.02-0.07,0.04
			c-11.85,7.83-25.24,12.95-37.1,20.76c-5.58,3.68-10.72,8-15.06,13.1c-4.08,4.8-10.98-1.44-13,4.7
			c-2.38,7.23,0.76,15.37,4.68,19.98c2.2,2.58,4.93,4.84,8.44,5.08c1.27,0.09,2.53,0,3.79-0.1c3.2-0.25,9.72-2.52,13.77-3.73
			c5.19-1.54,1.17-7.33,18.25-6.83c5.16,0.15,14.44-10.76,19.27-12.76c2.47-1.03,4.14-1.79,6.44-3.16c1.14-0.68,2.97-1.83,3.62-3.03
			C381.67,199.15,381.94,194.49,381.52,189.73z"/>
		<path class="st7" d="M281.89,402.33c-0.15,2.53-0.25,5.07-0.28,7.61c3.44,3.4,8.88,4.8,13.57,5.63
			c7.73,1.36,15.49,1.61,23.23,0.23c14.83-2.65,28.72-10.05,39.19-20.85c3.17-15.77,13.69-55.56,12.5-66.9
			c-0.05-0.46-0.28-0.79-0.59-0.99c0-1.22,0-2.44-0.01-3.66c0-0.61-0.35-1-0.78-1.17c-0.14-0.27-0.37-0.5-0.72-0.63
			c-16.97-6.2-34.9,0.21-52.25-2.74c-4-0.68-7.96-2.29-12.07-2.11c-3.76,0.17-11.04,3.88-14.05,6.07c-2.52,1.83-2.27,4.87-3.08,7.67
			c-2.38,8.21-4.19,19.61-4.07,28.16c0.12,8.21,1.2,16.35,0.76,24.58C282.9,389.61,282.26,395.96,281.89,402.33z"/>
		<path class="st8" d="M517.76,208.53c-1.45-1.24-3.71-0.82-5.47-0.05c-0.16,0.07-2.62-0.61-3.28-0.52
			c-2.24,0.28-4.29,1.4-6.22,2.53c-0.87,0.5-4.99,4.28-5.62,4.18c-1.28-0.21-3.51,2.2-3.97,2.76c-2.78,3.4-3.91,7.7-5.86,11.56
			c-1.4,1.63-3.23,2.97-5.41,3.27c-2.41-0.04-4.83-0.07-7.24-0.11c-0.36-0.01-6.88,17.11-6.25,17.42c0.31,0.64,1.3,0.68,1.66,0.13
			c6.54,0.2,13.33,0.83,19.8,0.08c4.91-0.57,9.83-2.69,11.99-7.36c2.35-5.07,4.16-10.39,6.95-15.25c2.23-3.88,8.39-8.73,7.65-13.57
			c0.36-0.37,0.7-0.75,1.01-1.16C518.43,211.23,519.14,209.72,517.76,208.53z"/>
		<path class="st21" d="M480.02,231.52c0.35-0.47,0.06-1.14-0.53-1.21c-31.92-3.63-71.85-9.63-80.31-11.41
			c-8.11-1.71-21.38-5.81-29.6-3.84c-0.55,0.13,4.09,3.05,4.19,3.56c1.44,7.42-3.53,48.03-0.53,41.11c2.59-5.97,13.5-3.6,53.78-0.38
			c13.56,1.08,33.41,1.46,44.14,0.25c1.17-0.13,1.99-1.2,1.84-2.36C472.36,252.55,471.33,243.2,480.02,231.52z"/>
		<path class="st8" d="M369.28,217.29c-0.44-4.02-4.86-3.3-7.93-3.35c-5.85-0.09-11.69,0.25-17.5,0.94
			c-0.53-0.21-2.09-0.73-2.32-0.03c-0.67,2.02-8.02,8.29-12.23,12.37c-0.69,0.66-0.55,1.64,0,2.32c6.35,7.85,8.35,18.62,16.01,25.52
			c2.92,2.63,6.31,4.86,10.05,2.44c3.72-2.4,6.65-6.57,8.62-10.45c2.22-4.37,3.54-9.09,4.28-13.92
			C369.03,228.16,369.83,222.32,369.28,217.29z"/>
		<g>
			<path class="st6" d="M377.89,197.17c2.66,3.19,4.24,8.24,2.32,12.19c-2.1,4.31-7.76,4.78-10.87,1.36
				c-0.29-0.32-0.77,0.16-0.48,0.48c3.12,3.43,8.7,3.34,11.4-0.6c2.9-4.22,1.12-10.29-1.9-13.91
				C378.09,196.36,377.62,196.84,377.89,197.17L377.89,197.17z"/>
		</g>
		<path class="st21" d="M385.46,242.87c-0.05-6.74-0.27-14.85-3.13-21.09c-2.75-6-8.99-6.14-14.76-7.07
			c-0.48-0.08-0.89,0.09-1.17,0.36c-0.66,0-5.83,1.48-5.19,2.02c5.62,4.76,3.08,22.6-5.46,34.51c-2.8,3.9-5.13-2.89-6.6-5.32
			c-10.15-16.77-16.13-22.31-18.39-22.56c-2.3-0.26-4.66,1.63-6.57,2.7c-2.09,1.18-4.16,2.4-6.18,3.7
			c-3.73,2.4-7.32,5.06-10.52,8.15c-6.51,6.27-10.85,14.15-13.06,22.89c-0.15,0.59-0.29,1.19-0.42,1.79
			c-0.19,0.86-9.33,34.46-11.82,42.49c-1.42,4.57-15.96,49.85-14.87,53.31c1.57,4.96,10.39,10.88,11.37,6.17
			c2.02-9.74,11.09-29.8,22.06-42.83c0.46-0.55,1.27-0.46,1.32,0.25c0.61,7.96,2.08,15.15,3.76,22.98c0.17,0.79,6.28,4.13,7.02,4.37
			c18.59,6.27,39.07,0.93,54.03-11.24c3.31-2.69,7.57-6,9.67-9.78c1.45-2.62,0.84-6.42,0.81-9.3c-0.12-11.4-1.24-22.86-2.91-34.13
			c-0.12-0.82,0.05-1.65,0.48-2.36c6.97-11.58,10.56-25.1,10.06-38.72c-0.01-0.17,0.05-0.34,0.16-0.47
			C385.35,243.5,385.46,243.22,385.46,242.87z"/>
		<path class="st8" d="M351.13,193.08c-0.6-0.94-2.16-1.15-2.78-0.11c-0.59,0.37-2.3,0.41-2.07,1.12c0.17,0.51,2.04,9.27-7.82,24.44
			c-0.76,1.17-1.81,2.21-2.92,3.2c1.83,2.9,3.27,6,5.4,8.72c1.63,2.09,3.46,3.99,5.46,5.69c1.12,0.39,2.25,0.69,3.4,0.87
			c4.4,0.67,8.99-1.83,8.89-6.68c0-0.09-0.02-0.17-0.03-0.25c0.11-0.28,0.15-0.61,0.07-0.97c-0.97-4.34,3.73-10.43,6.29-13.79
			c0.34-0.45-0.86-0.78-1.03-1.18c0.1-0.2,0.16-0.44,0.17-0.71C364.4,204.92,359.8,195.1,351.13,193.08z"/>
		<path class="st8" d="M366.54,171.86c-0.94-0.26-1.95-0.45-3.04-0.55c-8.71-0.81-16.65,1.84-20.54,9.71
			c-4.45,9.03,2.03,16.38,8.14,21.74c0.86,2.74,1.87,5.43,3.06,8.06c0.87,1.93,1.94,4.4,4.31,4.83c5.03,0.92,11.48,2.14,16.15-0.39
			c2.39-1.3,3.57-4.71,3.86-7.2c0.41-3.52,1.19-7.6,1.11-11.13c-0.06-2.8-0.31-5.61-0.83-8.37c-0.99-5.28-3.02-10.89-7.42-14.28
			C369.92,173.16,368.28,172.35,366.54,171.86z"/>
		<path class="st12" d="M361.89,194.63c-0.17-0.94-0.67-1.85-1.4-2.43c-0.64-0.51-1.58-0.25-1.92,0.37
			c-0.39,0.71-0.55,1.5-0.48,2.29c-0.03,0.66,0.07,1.32,0.33,1.95c0.42,1.02,1.75,1.71,2.68,0.79
			C361.86,196.84,362.08,195.71,361.89,194.63z"/>
		<g>
			<path class="st10" d="M352.83,208.2c0.9,2.41,2.44,4.72,4.51,6.28c1.93,1.46,4.23,2.05,6.57,2.47c0.42,0.08,0.6-0.57,0.18-0.65
				c-2.02-0.36-4.03-0.83-5.78-1.96c-2.24-1.45-3.91-3.84-4.84-6.32C353.33,207.61,352.68,207.79,352.83,208.2L352.83,208.2z"/>
		</g>
		<path class="st22" d="M361.32,185.91c-2.13-0.42-4.67,0.51-6.24,1.75c-0.67,0.53-1.2,1.31-1.23,2.17
			c-0.03,0.86,0.57,1.75,1.42,1.88c0.42,0.06,0.83-0.06,1.24-0.18c0.99-0.29,2-0.59,3.03-0.62c1.07-0.03,2.11,0.04,3.14-0.35
			c1.59-0.61,1.72-2.9,0.43-3.87C362.58,186.28,361.97,186.03,361.32,185.91z"/>
		<g>
			<path class="st6" d="M352.31,200.04c2.09,3.52,2.91,8.64,0.51,12.25c-2.68,4.02-8.44,3.81-11.05-0.15
				c-0.24-0.36-0.82-0.02-0.58,0.34c2.5,3.8,7.8,4.68,11.17,1.43c3.76-3.63,2.97-10.11,0.53-14.2
				C352.67,199.33,352.08,199.67,352.31,200.04L352.31,200.04z"/>
		</g>
		<path class="st22" d="M372.26,185.74c-0.61,1.11-0.1,3.34,0.99,3.75c0.7,0.27,1.33,0.07,1.99-0.02c0.64-0.09,1.32,0.09,1.97,0.26
			c0.27,0.07,0.55,0.14,0.79,0.03c1.12-0.49,0.73-2.16,0.36-3.03c-0.58-1.4-1.92-1.86-3.3-2.15
			C373.94,184.33,372.83,184.7,372.26,185.74z"/>
		<path class="st12" d="M376.9,193.08c-0.11-0.91-0.49-1.77-1.06-2.32c-0.5-0.47-1.27-0.2-1.56,0.41c-0.33,0.7-0.48,1.47-0.45,2.23
			c-0.04,0.64,0.02,1.28,0.22,1.88c0.31,0.97,1.37,1.61,2.15,0.69C376.82,195.22,377.03,194.12,376.9,193.08z"/>
		<path class="st22" d="M379.9,180.45c-0.73-3.04-2.26-5.59-3.69-7.04c-2.05-2.05-4.84-3.39-7.56-4.3
			c-5.68-1.91-11.84-2.37-17.75-1.35c-5.65,0.97-11.06,3.27-15.02,7.52c-4.48,4.79-7.76,14.46-13.9,17.34
			c-4.45,2.09-9.25,3.17-13.37,5.96c-3.26,2.21-6.04,5.37-7.4,9.1c-0.89,2.44-1.13,5.41-0.49,8.03c1.01,4.18,4.13,8.32,6.27,5.2
			c5.51-8.02,6.24,0.4,15.52-2.38c4.1-1.23,8.1,2.23,11.49,2.13c11.44-0.31,24.04-16.42,30.95-39.16c0.92-3.01,6.05-3.15,8.2-2.31
			c3.86,1.52,4.62,6.08,5.88,9.55c0.19,0.53,0.27-0.06,0.59-0.55C381.17,185.73,380.54,183.11,379.9,180.45z"/>
		<g>
			<path class="st10" d="M370.96,194.51c1.26,1.21,1.86,3.15,0.46,4.51c-0.31,0.3,0.16,0.78,0.48,0.48
				c1.66-1.62,1.06-3.99-0.46-5.47C371.12,193.74,370.64,194.21,370.96,194.51L370.96,194.51z"/>
		</g>
		<g>
			<path class="st10" d="M368.55,199.58c0.38-0.43,0.92-0.57,1.46-0.39c0.41,0.14,0.59-0.51,0.18-0.65
				c-0.75-0.25-1.59-0.03-2.12,0.57C367.78,199.42,368.26,199.9,368.55,199.58L368.55,199.58z"/>
		</g>
		<g>
			<path class="st10" d="M363.76,216.38c-1.74,2.17-3.59,4.29-5.21,6.55c-1.45,2.03-2.39,4.36-1.57,6.83
				c0.14,0.41,0.79,0.23,0.65-0.18c-0.97-2.91,0.75-5.41,2.49-7.59c1.36-1.72,2.75-3.42,4.12-5.13
				C364.51,216.52,364.03,216.05,363.76,216.38L363.76,216.38z"/>
		</g>
		<path class="st13" d="M373.56,201.84c-0.02-0.68-0.13-0.78-0.71-0.61c-1.97,0.58-5.76,0.8-6.41,0.86
			c-0.23,0.02-0.82-0.04-1.01,0.15c-0.55,0.52,0.36,1.83,0.73,2.17c0.89,0.84,2.07,1.1,3.23,1.06c1-0.03,2.56-0.1,3.26-0.99
			c0.39-0.49,0.68-1.14,0.83-1.76C373.51,202.58,373.57,202.2,373.56,201.84z"/>
		<g>
			<path class="st23" d="M367.55,178.09c0.68-1.23,2.34-1.55,3.44-0.7c0.34,0.26,0.68-0.32,0.34-0.58c-1.4-1.06-3.52-0.58-4.36,0.94
				C366.76,178.13,367.34,178.47,367.55,178.09L367.55,178.09z"/>
		</g>
		<g>
			<path class="st23" d="M353.61,176.94c-4.19,4.86-7.25,10.49-9.98,16.27c-1.43,3.02-2.79,6.08-4.21,9.11
				c-1.37,2.92-2.72,6.46-5.52,8.3c-4.03,2.65-8.75,0.92-13.18,1.52c-3.07,0.42-6.2,1.45-8.68,3.35c-3.49,2.68-4.56,6.71-3.76,10.94
				c0.08,0.42,0.73,0.24,0.65-0.18c-0.82-4.33,0.52-8.3,4.26-10.76c2.6-1.71,5.83-2.63,8.93-2.83c4.32-0.27,8.74,1.07,12.55-1.77
				c2.07-1.54,3.25-3.92,4.35-6.18c1.42-2.92,2.75-5.89,4.11-8.84c3.01-6.52,6.24-13,10.97-18.47
				C354.37,177.09,353.9,176.61,353.61,176.94L353.61,176.94z"/>
		</g>
		<g>
			<path class="st23" d="M331.45,186.67c-1.12,1.96-2.85,3.42-4.99,4.17c-0.41,0.14-0.23,0.79,0.18,0.65
				c2.3-0.81,4.18-2.36,5.39-4.48C332.25,186.64,331.67,186.3,331.45,186.67L331.45,186.67z"/>
		</g>
		<g>
			<path class="st23" d="M341.88,181.82c-2.89,6.1-4.39,12.7-4.4,19.46c0,0.43,0.67,0.43,0.67,0c0.02-6.64,1.47-13.12,4.31-19.12
				C342.65,181.77,342.07,181.43,341.88,181.82L341.88,181.82z"/>
		</g>
		<g>
			<path class="st9" d="M374.3,284.36c-2.89,5.67-5.55,11.45-7.99,17.33c-0.17,0.4,0.48,0.57,0.65,0.18
				c2.42-5.83,5.06-11.55,7.92-17.17C375.08,284.31,374.5,283.97,374.3,284.36L374.3,284.36z"/>
		</g>
		<path class="st21" d="M325.16,286.52c-0.21,0-2.93,2.9-3.92,4.3c-1.53,2.17-2.62,4.63-3.31,7.19c-0.97,3.58-3.64,15.07,1.14,14.62
			c4.78-0.45,6.37-8.02,6.82-10.36c0.56-2.94,1.08-5.91,1.24-8.9c0.07-1.27,0.19-2.55,0.01-3.81
			C327.04,288.79,326.86,286.52,325.16,286.52z"/>
		<path class="st8" d="M356.04,283.41c1.51,0.06,6.38,0.88,6.21-1.56c-0.21-2.94-6.16-3.16-8.18-3.1c-3.36,0.11-6.69,1.14-9.49,3
			c-0.07,0.05-0.15-0.05-0.09-0.1c1.35-1.31,2.73-2.6,4.3-3.65c1.79-1.2,3.85-2.08,6.01-2.17c1.39-0.06,3.13,0.13,4.44-0.43
			c0.72-0.31,1.64-1.21,1.41-2.11c-0.27-1.06-3.19-1.6-4.4-1.79c-2.73-0.43-5.28-0.59-7.61,0.34c-1.8,0.72-3.12,1.69-4.59,2.93
			c-1.46,1.23-6.28,5.62-6.74,5.96c-0.79,0.6-1.52,1.28-2.25,1.95c-1.53,1.42-2.96,2.94-4.28,4.55c-0.53,0.65-1.63,1.22-2.47,1.26
			c-2.16,0.1-4.81,0.08-4.94,0.29c-2.4,3.98-5.11,10.75-6.38,15.23c-0.76,0.7,6.68,0.07,8.92,0.1c6.18,1.56,14.92-5.29,17.09-7.11
			c1.49-0.71,2.97-1.42,4.47-2.1c1.2-0.54,2.03-0.86,3.36-0.81c1.13,0.05,1.89,0.51,2.94,0.72c1.11,0.22,2.77,0.05,2.68-1.5
			c-0.06-1-1.11-1.88-2.27-2.5c0.53,0.03,1.07,0.06,1.62,0.07c1.4,0.02,3.59-0.13,3.58-1.99c-0.01-2.27-4.33-3.6-6-3.81
			c-1.51-0.19-3.04,0.01-4.49,0.45c-0.73,0.22-2.19,0.83-2.88,1.16c-0.52,0.25,1.27-1.02,2.35-1.53
			C351.33,283.72,352.88,283.28,356.04,283.41z"/>
		<path class="st21" d="M322.73,243.82c-0.51-3.61-2.71-14.69-6.32-12.63c-5.79,3.3-11.59,8.23-15.98,13.3
			c-7.62,8.79-12.85,18.42-18.33,28.63c-3.73,6.96-9.83,16.35-10.9,24.31c-1.03,7.68,6.86,14.63,15.11,12.76
			c5.21-1.18,9.9-6.06,12.97-9.9c6.9-8.63,12.85-8.95,18.7-18.34c2.71-4.35,5.6-8.89,6.26-14.08
			C324.86,263.02,323.42,248.66,322.73,243.82z"/>
		<path class="st21" d="M325.98,286.68c-8.74-1.35-25.86-4.54-37.83-0.09c-0.14-0.12-0.33-0.16-0.56-0.07
			c-5.21,2.2-13.78,0.97-15.47,6.82c-2.73,9.4,0.83,14.53,4.88,17.62c7.52,5.73,42.23,2.7,44.2,0.8c0.21-0.2,0.23-0.45,0.15-0.66
			c0.07-0.1,0.11-0.22,0.1-0.37c-0.57-8.2,0.93-16.21,4.49-23.63C326.01,286.96,326.01,286.82,325.98,286.68z"/>
		<g>
			<path class="st9" d="M385.01,237.53c0.44,6.21,0.2,12.36-1.17,18.44c-0.1,0.42,0.55,0.6,0.65,0.18
				c1.39-6.14,1.64-12.35,1.2-18.62C385.66,237.1,384.98,237.1,385.01,237.53L385.01,237.53z"/>
		</g>
		<g>
			<path class="st9" d="M323.54,260.24c0.44,4.6,0.51,8.84-1.62,13.07c-1.98,3.93-4.25,7.72-6.39,11.56
				c-0.21,0.38,0.37,0.72,0.58,0.34c2.32-4.16,4.95-8.27,6.9-12.62c1.79-3.99,1.61-8.09,1.21-12.35
				C324.17,259.82,323.49,259.81,323.54,260.24L323.54,260.24z"/>
		</g>
		<g>
			<path class="st9" d="M327.15,287.39c-1.45-1.66-4.67-1.69-6.69-2.03c-2.58-0.44-5.18-0.79-7.79-1.03
				c-5.81-0.54-11.64-0.55-17.45-0.09c-0.43,0.03-0.43,0.71,0,0.67c5.17-0.41,10.35-0.44,15.52-0.07c2.77,0.2,5.53,0.52,8.27,0.95
				c1.17,0.19,2.34,0.39,3.51,0.62c1.34,0.26,3.22,0.37,4.16,1.45C326.96,288.19,327.43,287.72,327.15,287.39L327.15,287.39z"/>
		</g>
		<g>
			<path class="st9" d="M325.59,304c-0.36,2.16-1.29,3.8-2.66,5.48c-0.79,0.97-1.46,1.94-2.68,2.41c-0.97,0.38-2.11,0.51-3.12,0.67
				c-4.31,0.68-8.7,0.99-13.06,1.15c-7.67,0.29-15.79,0.32-23.26-1.65c-0.42-0.11-0.6,0.54-0.18,0.65
				c8.22,2.18,17.22,2.03,25.64,1.58c4.48-0.24,9.33-0.39,13.67-1.61c1.88-0.52,2.89-1.96,4.05-3.45c1.2-1.55,1.92-3.12,2.25-5.05
				C326.31,303.75,325.66,303.57,325.59,304L325.59,304z"/>
		</g>
		<g>
			<path class="st9" d="M321.12,304.35c-0.36,1.94-0.48,3.76-0.34,5.73c0.03,0.43,0.7,0.43,0.67,0c-0.13-1.91-0.04-3.67,0.32-5.55
				C321.84,304.1,321.2,303.92,321.12,304.35L321.12,304.35z"/>
		</g>
		<g>
			<path class="st23" d="M334.82,220.55c-1.41-0.86-2.93-1.37-4.56-1.56c-0.43-0.05-0.43,0.62,0,0.67c1.51,0.18,2.92,0.68,4.22,1.47
				C334.85,221.36,335.19,220.78,334.82,220.55L334.82,220.55z"/>
		</g>
		<g>
			<path class="st10" d="M362.48,229.93c-1.75,1.93-3.4,3.94-4.94,6.04c-0.26,0.35,0.33,0.69,0.58,0.34
				c1.5-2.06,3.12-4.02,4.83-5.91C363.24,230.09,362.77,229.61,362.48,229.93L362.48,229.93z"/>
		</g>
		<g>
			<path class="st10" d="M346.24,237.18c1.75,0.12,3.47,0.38,5.17,0.78c0.42,0.1,0.6-0.55,0.18-0.65c-1.77-0.41-3.55-0.68-5.35-0.8
				C345.81,236.47,345.81,237.14,346.24,237.18L346.24,237.18z"/>
		</g>
		<g>
			<path class="st10" d="M354.28,290.36c-3.11-2.09-6.77-1.07-9.67,0.88c-0.36,0.24-0.02,0.82,0.34,0.58
				c2.71-1.83,6.05-2.86,8.99-0.88C354.3,291.18,354.64,290.6,354.28,290.36L354.28,290.36z"/>
		</g>
		<g>
			<path class="st10" d="M497.34,215.35c1.65,2.22-0.84,5.15-1.83,7.18c-0.9,1.86-1.91,3.89-2.22,5.95
				c-0.28,1.92,0.5,3.29,1.11,5.04c0.98,2.82-0.37,5.32-1.86,7.66c-0.23,0.37,0.35,0.7,0.58,0.34c1.23-1.92,2.51-4.11,2.32-6.49
				c-0.08-0.96-0.44-1.81-0.8-2.69c-0.68-1.69-0.93-3.08-0.44-4.87c0.72-2.61,2.1-5.04,3.38-7.42c0.87-1.61,1.54-3.42,0.34-5.04
				C497.66,214.67,497.08,215,497.34,215.35L497.34,215.35z"/>
		</g>
		<g>
			<path class="st10" d="M511.8,209.38c-0.43,2.38-3.18,2.75-4.98,3.77c-1.26,0.72-2.38,1.67-3.35,2.75
				c-2.05,2.29-3.42,5.08-4.56,7.92c-0.16,0.4,0.49,0.58,0.65,0.18c1.33-3.31,3.04-6.7,5.83-9.02c1.48-1.23,3.15-1.74,4.81-2.63
				c1.16-0.62,2.01-1.47,2.25-2.79C512.53,209.14,511.88,208.96,511.8,209.38L511.8,209.38z"/>
		</g>
		<g>
			<path class="st10" d="M515.41,213.98c-2.5,0.58-5.01,1.41-7.04,3.04c-2.22,1.79-3.61,4.55-5.15,6.89
				c-0.24,0.36,0.34,0.7,0.58,0.34c1.41-2.15,2.7-4.7,4.63-6.42c2-1.77,4.6-2.62,7.15-3.21
				C516.01,214.53,515.83,213.88,515.41,213.98L515.41,213.98z"/>
		</g>
		<g>
			<path class="st10" d="M514.26,218.01c-1.45,1.57-3.73,2.36-5.35,3.81c-1.57,1.41-2.85,3.07-3.88,4.9
				c-0.21,0.38,0.37,0.72,0.58,0.34c1.09-1.94,2.48-3.68,4.18-5.12c1.53-1.29,3.59-1.99,4.94-3.46
				C515.03,218.17,514.55,217.69,514.26,218.01L514.26,218.01z"/>
		</g>
	</g>
	<g>
		<path class="st7" d="M400.46,447.51c0.04-1.27-1.93-1.27-1.97,0c-0.03,0.87-0.08,1.75-0.13,2.62
			c-11.73-5.43-24.37-10.48-37.14-12.55c-6.26-1.02-12.37-0.5-18.58,0.61c-6.72,1.21-13.43,2.53-20.14,3.82
			c0.08-0.53-0.44-0.97-1-0.99c0.2-0.89-1.21-1.56-1.86-0.65c-3.44,4.86-6.15,10.13-8.12,15.66c-2.63,5.23-4.76,10.7-6.35,16.35
			c-0.84,3.01-2.78,7.57,0.84,9.18c6.76,6.89,17.96,9.08,26.85,11.51c11.95,3.27,24.31,5.6,36.75,5.37
			c5.85-0.11,12.11-0.59,17.6-2.76c4.44-1.75,5.21-6.11,6.6-10.35c3.17-9.63,5.18-19.58,6.11-29.66c0.12-0.7,0.26-1.4,0.37-2.11
			c0.04-0.27-0.02-0.5-0.14-0.7C400.3,451.09,400.4,449.3,400.46,447.51z"/>
		<path class="st8" d="M408.95,304.69c-0.1-0.33-0.2-0.67-0.3-1c-0.22-0.7-0.46-1.39-0.73-2.07c-0.24-0.6-0.58-1.21-0.8-1.84
			c-0.15-0.45-0.25-0.91-0.2-1.38c0.01-0.11,0.03-0.22,0.05-0.32c0.33-1.26,1.77-2.17,1.86-3.77c0.07-1.34-1.15-1.97-2.23-2.37
			c-0.51-0.19-1.29-0.22-1.75-0.53c-0.64-0.43-0.85-1.34-1.19-2.09c-1.57-3.42-3.49-6.71-5.95-9.57
			c-12.91-14.94-38.89-1.73-35.05,17.56c1.81,9.07,10.62,11.69,18.93,13.31c0.69,0.14,2.82,4.2,3.53,4.97c5.14,5.54,15.45,3.4,21-1
			c1.23-0.97,2.67-1.96,3.21-3.5C410.03,309.05,409.52,306.71,408.95,304.69z"/>
		<path class="st8" d="M376.65,330.96c4.83-0.5,8.89-2.47,13.27-4.05c0.63-4.32,1.31-8.64,2.06-12.95c0.02-0.14,0.02-0.27-0.01-0.39
			c0.22-0.27,0.28-0.63,0-1.01c-2.64-3.49-6.25-5.8-10.34-7.64c-3.95-1.77-8.47-4.07-12.94-3.11c-0.37,0.08-0.59,0.29-0.69,0.54
			c-0.61,14.22-2.19,23.13-3.68,28.65C368.43,331.24,372.58,331.38,376.65,330.96z"/>
		<path class="st5" d="M398.8,283.81c-0.74-0.44-1.64-0.59-2.45-0.21c-2.6,1.23-4.52,5.55-2.17,7.76c0.12,0.11,0.25,0.23,0.41,0.28
			c0.29,0.09,0.5-0.12,0.68-0.32c1.31-1.4,2.66-2.52,4.2-3.68C401.01,286.49,400.2,284.64,398.8,283.81z"/>
		<path class="st5" d="M396.8,282.72c-0.01-0.05-0.01-0.09-0.02-0.14c-0.94-3.42-4.52-4.42-7.61-3.23
			c-4.28,1.65-8.01,6.18-10.91,9.53c-3.49,4.03-6.58,8.38-9.72,12.68c-2.26,3.08-6.8,7.13-5.11,11.31c0.06,0.15,0.14,0.27,0.24,0.36
			c1.27,2.53,2.12,5.18,2.6,7.97c0.09,0.53,0.49,0.74,0.9,0.71c0.18,0.07,0.39,0.08,0.63-0.01c2.41-0.93,3.1-3.1,5.76-3.62
			c4.06-0.8,4.37,1.2,7.82,2.2c3.94,1.14,7.11-9.36,7.63-16.82C389.51,296.39,400.09,290.66,396.8,282.72z"/>
		<path class="st5" d="M398.16,277.7c-0.07-2.64-1.64-4.82-4.12-5.86c-2.96-1.25-6.17-0.55-9.09,0.46c-1-0.63-2.12-0.99-3.28-1.08
			c-1.93-0.47-4.25-0.4-5.57-0.29c-3.02,0.24-5.85,1.2-8.35,2.74c-2.45,1.51-4.52,2.59-6.11,5.14c-1.55,2.5-2.6,5.27-4.06,7.81
			c-1.31,2.29-3.26,4.17-4.77,6.35c-3.08,4.45-5.32,9.85-3.31,15.22c0.98,2.61,2.91,5.24,5.49,6.46c2.5,1.18,4.9,0.03,7.34-0.68
			c1.06-0.31,2.33-0.72,3.46-0.51c1.29,0.23,2.11,1.3,3.32,1.69c0.93,0.3,1.98,0.06,2.83-0.42c1.56-0.88,2.74-2.41,4.11-3.55
			c2.73-2.26,5.68-0.66,8.56-2.29c0.8-0.45,1.5-1.02,2.13-1.65c0.78-0.7,1.34-1.49,1.76-2.34c0.14-0.24,0.27-0.48,0.4-0.73
			c0.09-0.18,0.12-0.36,0.11-0.53c0.51-1.61,0.66-3.37,0.78-5.16c0.19-2.99,0.69-5.4,3.1-7.41
			C397.46,287.25,398.95,283.71,398.16,277.7z"/>
		<path class="st8" d="M393.06,297.55c-1.42-1.7-3.34-2.75-5.06-2.01c-3.24,1.39-1.91,5.29-0.47,7.46c1.43,2.14,3.63,4.68,6.37,2.55
			C396.11,303.83,395.11,300.01,393.06,297.55z"/>
		<path class="st13" d="M407.92,301.62c-0.24-0.6-0.58-1.21-0.8-1.84c-0.22,0.34-0.45,0.67-0.72,0.99
			c-0.56,0.64-1.27,1.07-1.86,1.66c-1.03,1.04,0.51,1.66,1.39,1.75c0.85,0.09,1.85-0.11,2.73-0.49
			C408.42,302.99,408.19,302.29,407.92,301.62z"/>
		<path class="st12" d="M401.7,290.03c-0.35-0.47-0.85-0.87-1.5-0.74c-0.59,0.12-0.9,0.7-0.95,1.23c-0.08,0.89,0.26,2.03,0.8,2.75
			c0.54,0.73,1.66,1.17,2.32,0.32C403.11,292.63,402.33,290.87,401.7,290.03z"/>
		<path class="st8" d="M299.52,335.88c0.21-2.57,0.23-5.24-0.05-7.84c-0.17-1.56-0.36-4.69-2.58-4.61c-1.2,0.04-1.7,1.25-1.89,2.26
			c-0.04,0.2-0.03,0.59,0,1.1c-0.03,0.42-0.03,0.85-0.02,1.3c0.04,1.8,0.17,3.57,0.03,5.34c-0.61-2.06-1.38-4.76-1.43-4.91
			c-1.05-2.96-2.38-5.86-4.26-8.39c-1.48-2-3.25-3.96-5.48-5.14c-0.89-0.47-2.1-1.08-3.07-0.51c-1,0.59-1.14,1.88-0.68,2.85
			c1.07,2.25,3.74,3.94,5.07,6.13c1.48,2.43,3.02,6.44,3.5,9.22c-0.21,0.12-0.39,0.49-1.2-0.97c-1.95-3.51-3.21-6.87-6.03-9.88
			c-1.71-1.83-9.42-9.46-12.04-5.73c-1.07,1.52,0.63,3.38,1.86,4.15c2.85,1.78,5.24,3.68,7.28,6.9c0.97,1.53,3.66,7.65,3.48,8.05
			c-0.32,0.7-1.06-0.28-1.25-0.5c-1.73-2.54-3.38-5.07-5.79-7c-1.52-1.21-7.41-3.94-8.62-2.94c-2.02,1.67,0.37,3.83,1.77,4.81
			c2.64,1.86,4.92,2.77,6.69,5.56c0.51,0.79,1.77,2.33,1.32,3.39c-0.32,0.73-1.31-0.82-1.67-1.27c-1.07-1.36-2.36-2.53-3.88-3.36
			c-0.64-0.35-1.31-0.64-2-0.91c-0.56-0.22-1.51-0.75-2.12-0.62c-0.19,0.04-0.37,0.14-0.53,0.25c-1.31,0.91-0.34,2.81,0.51,3.72
			c0.96,1.04,2.22,1.73,3.26,2.69c1.01,0.94,1.89,2,2.69,3.12c0.65,0.92,1.34,1.87,1.81,2.92c0.53,1.18,0.52,2.35,0.7,3.61
			c0.12,0.81,0.27,1.62,0.44,2.42c0.39,1.83,0.89,3.64,1.5,5.41c0.57,1.64,1.24,3.25,2.03,4.79c0.05,0.09,0.07,0.19,0.08,0.28
			c0.34,3.45-0.16,3.75,0.35,7.05c0.03,0.19,0,0.39-0.12,0.55c-0.44,0.61-0.22,1.64,0.71,1.55c6.15-0.64,11.29-4.86,16.35-8.07
			c0.22-0.14,0.35-0.32,0.41-0.52c0.31-0.21,0.53-0.56,0.47-1.02c-0.33-2.56-0.75-5.09-1.26-7.62c0.02-0.06,0.04-0.12,0.06-0.19
			C296.32,351.14,299.2,339.79,299.52,335.88z"/>
		<g>
			<path class="st11" d="M385.64,304.1c-0.3,1.89-1.07,3.2-2.64,4.32c-1.1,0.79-2.17,1.24-3.55,1.14c-1.02-0.08-2-0.45-3.03-0.48
				c-1.55-0.05-3.05,0.42-4.33,1.29c-1.93,1.32-3.56,3.72-6.22,3.09c-0.42-0.1-0.6,0.55-0.18,0.65c1.97,0.47,3.55-0.51,5.02-1.74
				c1.13-0.94,2.19-1.93,3.63-2.36c1.76-0.52,3.25,0.02,4.98,0.23c3.51,0.43,6.45-2.74,6.96-5.96
				C386.35,303.86,385.71,303.68,385.64,304.1L385.64,304.1z"/>
		</g>
		<g>
			<path class="st11" d="M378.11,276.67c1.97-1.79,4.39-2.75,7.05-2.8c0.43-0.01,0.43-0.68,0-0.67c-2.84,0.05-5.43,1.09-7.53,3
				C377.32,276.49,377.8,276.96,378.11,276.67L378.11,276.67z"/>
		</g>
		<g>
			<path class="st11" d="M374.89,284.08c-7.31-2.25-13.63,2.83-17.82,8.28c-0.26,0.34,0.32,0.68,0.58,0.34
				c4.01-5.22,10.05-10.13,17.06-7.97C375.12,284.86,375.3,284.21,374.89,284.08L374.89,284.08z"/>
		</g>
		<g>
			<path class="st11" d="M371.37,289.71c-2.78,2.69-5.18,7.09-5.61,10.97c-0.18,1.65,0.14,3.45,1.29,4.71
				c1.3,1.43,3.3,1.85,5.12,2.19c0.42,0.08,0.6-0.57,0.18-0.65c-1.64-0.31-3.4-0.65-4.64-1.85c-1.6-1.53-1.5-4.01-0.94-5.97
				c0.94-3.22,2.66-6.59,5.09-8.94C372.16,289.88,371.68,289.4,371.37,289.71L371.37,289.71z"/>
		</g>
		<path class="st6" d="M395.15,333.62c-0.44-3.47-1.13-9.86-2.38-10.47c-3.05-1.48-8.33-1.31-11.65-0.93
			c-12.33,1.41-16.48,3.93-17.45,5.51c-0.78,1.27-2.2,6.72-3.02,9.71c-0.16,0.58,0.06,1.04,0.43,1.33c0.79,3.98,8.24,0.85,10.8,0.28
			c7.02-1.58,13.86-3.91,21.05-4.62C393.7,335.21,395.32,334.95,395.15,333.62z"/>
		<path class="st6" d="M405.7,449.48c-0.14-0.01-0.29,0-0.44,0.03c-9.26,1.68-18.47,3.21-27.76,4.23
			c-9.44,0.39-18.89,0.51-28.36,0.12c-15.33-0.63-31.09-1.62-45.67,3.75c-0.23,0.08-0.41,0.2-0.57,0.33
			c-0.35,0.11-0.66,0.34-0.88,0.75c-2.87,5.4-4.81,11.06-5.74,17.04c-0.7,4.58,10.58,3.34,13.09,3.15
			c14.85-1.14,29.84,0.48,44.71,0.73c7.61,0.13,15.29,0.58,22.88-0.06c6.36-0.54,14.02-1.26,19.64-4.3
			c4.14-2.23,4.71-5.72,6.45-9.53c2.11-4.63,3.77-9.4,5.01-14.31C408.42,449.98,406.83,449.13,405.7,449.48z"/>
		<path class="st6" d="M299.3,362.57c0.01-0.15-0.61-5.53-2.07-5.53c-2.94,0-8.19,1.12-10.81,2.35c-2.97,1.39-6.2,3.25-8.5,5.65
			c-2.01,2.09-1.1,5.48-0.77,8.21c-0.5,0.68,17.93-6.69,21.71-8.89C299.61,363.93,299.64,363.14,299.3,362.57z"/>
		<path class="st14" d="M517.21,243.74c-0.68,0.32-2.99,1.92-3.64,2.3c1.74-1.79,5.25-4.72,7.24-6.26c2.31-1.79,6.62-3.71,6.57-7.03
			c-0.01-0.45-0.39-0.86-0.77-1.04c-1.53-0.71-3.22-0.11-4.77,0.75c-1.52,0.6-2.92,1.63-4.27,2.62c-1.15,0.84-2.24,1.74-3.3,2.68
			c-1.36,1.14-2.69,2.33-4.01,3.52c-0.06-0.1-0.13-0.2-0.19-0.29c2.95-5.82,6.61-11.21,11.02-16.04c0.96-1.05,3.26-2.58,2.47-4.29
			c-0.17-0.37-0.4-0.62-0.65-0.77c-2.85-1.78-8.89,4.51-10.68,6.4c-1.74,1.84-3.23,3.91-4.62,6.03c-0.7,1.06-1.38,2.14-2.07,3.21
			c-0.34,0.54-0.66,1.18-1.07,1.67c-0.14,0.17-0.22,0.52-0.47,0.56c-1.11,0.18-0.29-1.67-0.11-2.1c0.56-1.34,1.16-2.66,1.77-3.98
			c1.46-3.11,3.07-6.16,4.82-9.11c0.76-1.29,4.2-5.96,0.33-6.1c-1.17-0.04-2.24,0.96-3.07,1.79c-1.17,0.92-2.15,2.06-3.02,3.29
			c-0.7,0.88-1.36,1.79-1.98,2.74c-1.45,2.23-3.5,4.71-4.61,7.12c-0.57,1.23-1.93,6.05-2.45,6.44c-0.67,0.51,0.57-5.74,1.19-7.79
			c0.53-1.75,0.93-3.11,0.36-4.89c-0.25-0.79-1.38-1.07-2-0.56c-2.19,1.76-3.34,4.56-4.26,7.14c-0.94,2.62-1.64,5.32-2.09,8.06
			c-0.45,2.75-3.11,16.85-4.07,21.14c-0.07,0.31-0.21,0.59-0.42,0.82c-2.87,3.23-10.34,11.87-10.34,11.87
			c3.73,3.25,9.34,7.31,13.72,9.61c0.61,0.32,8.76-7.75,11.39-11.77c0.28-0.43,8.95-3.76,12.76-17.54c2.67-2.77,5.73-5.1,9.17-6.85
			c1.52-0.77,5.49-1.94,3.69-4.38C523.18,240.58,518.94,242.93,517.21,243.74z"/>
		<path class="st24" d="M432.46,323.22c-0.21-0.46-0.52-0.74-0.86-0.89c-0.28-0.92-2.56-1.74-3.77-1.48
			c-13.03,2.85-24.79,3.68-37.91,6.06c-12.71,2.3-26.17,5.7-38.06,10.92c-6.87,3.02-15.59,8.12-20.36,14.01
			c-10.87,13.43-9.55,30.93-11.58,47.12c-1.15,9.16-2.4,17.61-7.63,25.43c-8.27,12.37-16.89,24.58-18.35,39.83
			c-0.57,5.93,2.64,4.03,6.57,3.32c4.04-0.73,9.49-2.23,13.7-2.71c14.21-1.63,27.94,1.06,41.83,3.69
			c10.29,1.95,21.16,3.13,31.75,2.09c5.52-0.54,10.98-1.69,16.2-3.56c5.59-2.01,7.04-4.89,9.5-10.11c1.81-3.85,3.24-7.9,4.49-11.96
			c2.56-8.31,4.25-16.86,5.82-25.41c2.6-14.09,4.13-28.36,4.62-42.67c0.06-1.58,0.35-3.15,0.93-4.63c2.72-6.92,4.6-14.13,5.53-21.55
			C436.05,341.62,436.38,331.72,432.46,323.22z"/>
		<path class="st6" d="M499.12,277.88c0-0.1-0.02-0.2-0.05-0.31c-1.37-5.31-5.24-9.47-10.12-12.05c-1.95-1.03-5.04-2.5-7.31-1.98
			c-0.82,0.19-6.12,4.2-6.56,5.84c-0.49,1.86,1.32,2.85,2.57,3.91c2.52,2.13,5.04,4.26,7.56,6.39c2.43,2.06,5.32,4.11,5.32,7.62
			c0,1.49,2.03,1.67,2.52,0.53c0.13-0.09,0.26-0.21,0.37-0.37c1.85-2.76,4.77-5.36,5.78-8.62
			C499.32,278.46,499.27,278.14,499.12,277.88z"/>
		<path class="st24" d="M489.92,271.15c-2.42-2.22-5.45-3.83-8.73-4.26c-1.46-0.19-3.65-0.36-5.02,0.26
			c-2.52,1.14-17.88,15.09-22.35,19.09c-8.14,7.28-27.84,24.8-29.58,26.26c-6.3,5.29-11.83,9.46-16.4,11.71
			c-2.13,1.04-0.42,9.22,1.33,8.44c9.52,13.71,11.87,30.61,13.45,46.97c0.17,1.79,2.22,2.23,3.3,1.42c0.65,0.03,2.14-3.41,2.55-4.15
			c9.67-17.56,20.53-30.8,34.26-45.33c21.27-22.5,34.03-44.9,34.03-45.42C496.71,280.64,494.05,274.93,489.92,271.15z"/>
		<path class="st24" d="M307.98,394.58c0.29-0.46,0.44-1.03,0.31-1.7c-2.2-11.68-4.85-20.24-8.79-31.46
			c-0.61-1.72-2.32-1.67-3.86-1.1c-7.15,2.63-14.16,5.52-19.66,10.99c-0.63,0.34-1.07,0.98-1.02,1.93
			c0.65,12.58,0.43,22.62,3.87,34.79c2.87,10.14,10.58,18.4,21.41,18.71c1.2,0.03,5.58-9.32,6.38-13.97
			c0.95-5.51,1.55-11.07,1.86-16.65C308.53,395.46,308.32,394.95,307.98,394.58z"/>
		<path class="st24" d="M349.23,340.64c-1.1-1.55-6.89,2.2-6.91,2.21c-14.97,8.44-38.24,40.07-42.17,46.42
			c-3.82,6.16-10.73,12.57-12.1,19.82c-0.03,0.15-0.06,0.3-0.08,0.44c-1.01,5.92,1.56,13.68,7.47,16.22
			c9.83,4.23,21.1-6.15,27.96-11.89c9.44-7.9,17.89-16.91,25.95-26.19c5.45-6.28,6.38-15.83,6.49-23.88
			C355.93,355.59,354.01,347.38,349.23,340.64z"/>
		<g>
			<path class="st10" d="M295.1,333.98c0.59,1.73,0.97,3.5,1.11,5.33c0.03,0.43,0.71,0.43,0.67,0c-0.15-1.89-0.52-3.72-1.14-5.51
				C295.61,333.39,294.96,333.57,295.1,333.98L295.1,333.98z"/>
		</g>
		<g>
			<path class="st10" d="M389.08,305.44c0.22,0.33,0.46,0.56,0.77,0.79c0.76,0.56,1.23,0.93,1.56,1.87c0.49,1.4,1.17,2.7,2.02,3.91
				c0.25,0.35,0.83,0.02,0.58-0.34c-0.98-1.4-1.52-2.86-2.19-4.41c-0.46-1.07-1.55-1.24-2.16-2.16
				C389.42,304.75,388.84,305.08,389.08,305.44L389.08,305.44z"/>
		</g>
		<g>
			<path class="st10" d="M495.07,238.15c-0.57,1.05-1.04,2.14-1.43,3.27c-0.14,0.41,0.51,0.59,0.65,0.18
				c0.37-1.07,0.82-2.11,1.36-3.11C495.85,238.1,495.27,237.76,495.07,238.15L495.07,238.15z"/>
		</g>
		<g>
			<path class="st9" d="M317.81,420.19c13.02-10.98,25.5-24.06,29.26-41.23c0.09-0.42-0.56-0.6-0.65-0.18
				c-3.73,17.07-16.15,30.03-29.08,40.94C317,420,317.48,420.47,317.81,420.19L317.81,420.19z"/>
		</g>
		<g>
			<path class="st9" d="M304.29,383.12c-2.76,3.4-5.21,7.02-7.34,10.85c-0.21,0.38,0.37,0.72,0.58,0.34
				c2.1-3.78,4.51-7.36,7.24-10.72C305.03,383.26,304.56,382.78,304.29,383.12L304.29,383.12z"/>
		</g>
		<g>
			<path class="st9" d="M431.58,366.82c-2.83,7.59-5.66,15.19-8.5,22.78c-0.15,0.41,0.5,0.58,0.65,0.18
				c2.83-7.59,5.66-15.19,8.5-22.78C432.38,366.6,431.73,366.42,431.58,366.82L431.58,366.82z"/>
		</g>
		<g>
			<path class="st9" d="M412.82,323.14c6.95-2.61,14.28-5.26,21.78-3.53c0.42,0.1,0.6-0.55,0.18-0.65
				c-7.63-1.76-15.06,0.87-22.14,3.53C412.24,322.64,412.41,323.29,412.82,323.14L412.82,323.14z"/>
		</g>
	</g>
	<path class="st8" d="M586.4,310.03c-0.94-3.09-3.43-6.02-5.89-8.51c0.01-0.32-0.11-0.65-0.44-0.94
		c-8.37-7.4-16.75-14.81-25.12-22.21c-7.56-6.69-22.92-22.79-23.51-22.4c-5.38,0.62-9.95,5.36-12.13,9.83
		c-0.08,0.17-0.13,0.35-0.14,0.51c-0.13,0.32-0.11,0.71,0.17,1.1c12.71,17.41,42.76,53.76,53.2,58.02
		c3.65,1.49,7.83-1.73,10.31-4.49C585.46,318.03,587.6,314,586.4,310.03z"/>
	<path class="st6" d="M611.62,369.52c-0.25-12.63-4.99-28.82-10.7-40.03c-2.9-5.68-6.24-12.02-10.52-16.81
		c-2.73-3.05-7.88,0.58-10.81,2.06c-5.37,2.72-10.37,6.2-14.78,10.3c-1.62,1.5-3.75,3.04-3.83,5.44c-0.1,2.82,0.9,5.98,1.41,8.74
		c1.28,6.92,2.83,13.83,5.43,20.39c1.02,2.58,2.07,5.49,3.71,7.75c1.39,1.92,2.91,1.91,5.18,2.2c8.16,1.03,16.32,2.23,24.5,3.09
		C605.76,373.12,611.63,369.87,611.62,369.52z"/>
	<path class="st25" d="M640.7,515.55c-0.1-0.47-0.1-0.94,0-1.41c2.38-11.68,2.15-23.73-0.99-35.26
		c-3.15-11.57-8.87-22.22-14.54-32.71c-2.14-5.6-3.35-11.57-6.75-16.6c-0.35-0.52-0.83-0.8-1.32-0.88
		c-0.32-0.34-0.76-0.58-1.33-0.64c-4.48-0.43-8.8,2.14-12.77,3.91c-5.11,2.28-10.2,4.61-15.49,6.45
		c-8.65,3.01-27.66,9.5-26.53,10.26c0.48,2.36,0.01,7.81,0.7,10.1c0.23,0.74,0.21,1.53-0.06,2.26c-3.2,8.88-8.65,35.73-6.72,62.51
		c0.02,0.26,0.12,0.47,0.22,0.66c0.16,1.8,0.55,3.57,2.04,4.57c3.17,2.12,10,1.77,13.7,2.27c7.79,1.04,56.97,3.06,69.7-8.22
		C640.78,522.63,641.05,517.29,640.7,515.55z"/>
	<path class="st8" d="M567.43,299.63c-5.08-1.88-12.24-0.23-16.58,2.58c-1.63,1.06-3.09,2.38-4.26,3.92
		c-1.4,1.85-2.1,4.06-3.22,6.04c-0.39,0.22-0.79,0.42-1.23,0.61c-0.84,0.38-1.48,0.83-1.89,1.67c-0.72,1.47-0.09,2.95,0.12,4.45
		c0.24,1.69-0.46,2.87-1.02,4.43c-1.27,3.51-2.01,7.27-1.88,11c0.11,3.01,2.42,5.87,5.14,7.14c6.28,3.19,11.68,2.01,16.53,0.8
		c0.28-0.07,0.49-0.2,0.64-0.36c0.56,0.17,1.22,0.07,1.66-0.5c3.45-4.48,7.38-8.67,10.74-13.18c2.51-3.37,3.89-7.46,4.12-11.61
		c0.34-6.11-2.21-14.16-8.4-16.8C567.76,299.75,567.6,299.69,567.43,299.63z"/>
	<path class="st17" d="M552.21,306.9c-0.79-1.25-1.98-2.27-3.39-1.82c-0.74,0.24-1.26,1.02-1.08,1.8c0.19,0.83,1.01,1.08,1.63,1.5
		c0.62,0.42,1.08,0.97,1.46,1.61c0.38,0.64,0.99,1.18,1.77,0.73c0.61-0.36,0.7-1.04,0.54-1.69
		C552.98,308.4,552.66,307.61,552.21,306.9z"/>
	<path class="st8" d="M578.94,355.49c-3.58-12.16-3.28-25.14-3.33-37.76c0-0.96-1.17-1.78-2.04-1.17c-1.11,0.79-2.64,2.9-2.68,3
		c-6.05,4.09-10.25,10.03-14.44,15.92c-0.02,0.02-0.05,0.04-0.07,0.06c-2.97,2.87-3.22,1.45-2.44,5.38
		c1.35,6.89,1.54,21.64,2.27,21.83c8.29,2.26,16.98,0.86,24.09-3.97C580.78,358.47,579.12,355.65,578.94,355.49z"/>
	<path class="st26" d="M621.49,431.91c0.52-12.87-2.61-39.89-4.97-49.89c-5.76-24.43-11.87-31.64-12.64-31.71
		c-7.59-0.72-18.63-0.56-26.24-0.16c-0.38,0.02-0.67,0.17-0.88,0.38c-15.15,3.07-29,10.68-39.74,21.81
		c-0.36,0.37-3.3,11.09-2.01,16.27c0.95,3.82,3.3,27.33,10.7,42.99c3.34,7.07,9.3,19.91,16.29,23.66
		c1.21,0.65,31.73,5.73,55.71-14.28C620.32,438.81,621.35,435.53,621.49,431.91z"/>
	<path class="st17" d="M611.29,340.07c-1.21-1.58-2.35-2.57-1.87-4.73c0.24-1.11,0.72-2.16,0.91-3.28c0.34-1.94-0.36-3.5-1.86-4.74
		c-0.92-0.75-2.15-1.37-3.24-2.1c-0.7-0.47-1.13-1.24-1.16-2.09c-0.03-0.82-0.05-1.65-0.1-2.51c-0.22-3.63-0.26-9.23-3.28-11.25
		c-1.85-1.23-4.37-1.63-5.61-3.48c-0.93-1.39-0.85-3.19-1.16-4.83c-0.84-4.43-5.09-7.96-9.61-7.97c-1.15,0-2.39,0.18-3.37-0.42
		c-0.71-0.44-1.14-1.21-1.57-1.92c-3.85-6.35-11.21-3.86-16.68-1.88c-0.87,0.31-1.77,0.64-2.69,0.55c-1.18-0.11-2.19-0.88-3.28-1.36
		c-2.48-1.09-6.16-0.11-8.38,1.45c-2.22,1.56-4.61,3.94-5.19,6.59c-0.58,2.66,1.35,5.36,3.21,7.36c0.6,0.64,1.32,1.15,1.92,1.79
		c3.77,4.09,2.47,10.48-1.55,13.83c-3.36,2.8-5.15,7.37-4.6,11.71c0.06,0.43,0.13,0.9-0.06,1.29c-0.26,0.54-0.9,0.76-1.47,0.94
		c-4.6,1.47-7.37,5.51-8.51,10.49c-1.09,4.76,1.09,9.82,4.76,12.47c4.12,2.97,8.14,2.43,13.02,1.03c4.84-1.39,10.63-3.46,15.66-3.33
		c2.54,0.07,5,1.13,7.38,1.89c1.85,0.59,3.99,1.36,5.96,0.95c1.95-0.41,3.55-1.97,5.18-3.04c3.04-2.01,6.93-2.45,10.01-0.23
		c1.89,1.36,5.25,1.71,8.09,1.09c1.67,0.39,3.45,0.33,5.13-0.23c3.75-1.26,5.94-5.05,5.79-8.92
		C613,343.36,612.42,341.54,611.29,340.07z"/>
	<g>
		<path class="st27" d="M577.76,302.67c2.93,4.02,4,9.2,2.73,14.03c-0.66,2.5-2.01,4.72-3.35,6.91c-1.12,1.84-2.68,3.91-3,6.11
			c-0.24,1.67,0.5,2.66,1.76,3.62c2.09,1.6,3.75,3.5,4.73,5.98c1.92,4.88,0.57,10.37-3.1,14.03c-0.31,0.31,0.17,0.78,0.48,0.48
			c3.21-3.2,4.8-7.78,3.96-12.27c-0.41-2.17-1.36-4.24-2.72-5.97c-0.64-0.81-1.37-1.55-2.18-2.2c-1.4-1.12-2.68-1.9-2.17-4.02
			c0.63-2.64,2.65-5.04,3.99-7.36c1.2-2.09,2.17-4.26,2.57-6.65c0.76-4.57-0.4-9.3-3.12-13.03
			C578.09,301.98,577.5,302.32,577.76,302.67L577.76,302.67z"/>
	</g>
	<g>
		<path class="st27" d="M573.83,300.28c-3.64-1.96-7.55,2.79-9.01,5.62c-2.39,4.62-2.17,9.95-0.99,14.88
			c0.1,0.42,0.75,0.24,0.65-0.18c-0.98-4.11-1.33-8.5,0.13-12.54c0.62-1.72,1.55-3.35,2.77-4.72c1.41-1.56,3.89-3.67,6.1-2.48
			C573.87,301.06,574.21,300.48,573.83,300.28L573.83,300.28z"/>
	</g>
	<g>
		<path class="st27" d="M568.34,297.05c-4.65-2.63-9.48,0.26-12.54,3.88c-0.28,0.33,0.2,0.81,0.48,0.48
			c2.85-3.37,7.34-6.26,11.72-3.78C568.38,297.85,568.72,297.27,568.34,297.05L568.34,297.05z"/>
	</g>
	<g>
		<path class="st27" d="M581.26,299.23c4.24-1.09,8.69,0.05,11.89,3.05c0.32,0.3,0.79-0.18,0.48-0.48
			c-3.37-3.17-8.06-4.38-12.54-3.23C580.66,298.69,580.84,299.34,581.26,299.23L581.26,299.23z"/>
	</g>
	<g>
		<path class="st27" d="M585.45,310.15c2.77,3.54,5.85,7.6,5.26,12.37c-0.28,2.24-1.48,3.78-2.9,5.44c-0.9,1.06-1.86,2.19-2.19,3.58
			c-0.69,2.94,1.7,5.2,3.95,6.63c1.85,1.18,3.96,2.18,5.06,4.19c1.11,2.03,0.86,4.52-0.36,6.42c-0.24,0.36,0.35,0.7,0.58,0.34
			c1.79-2.77,1.47-6.43-0.91-8.75c-2.86-2.79-10.14-4.88-7.01-10.17c0.95-1.61,2.48-2.8,3.41-4.42c0.94-1.62,1.23-3.53,1.07-5.38
			c-0.38-4.16-3.01-7.56-5.49-10.73C585.66,309.34,585.19,309.81,585.45,310.15L585.45,310.15z"/>
	</g>
	<g>
		<path class="st27" d="M594.25,320.66c1.51,1.57,3.06,3.17,4.1,5.1c1.05,1.94,1.03,3.99,1.66,6.05c0.3,0.97,0.63,1.15,1.62,1.24
			c2.41,0.22,4.34,0.98,5.91,2.91c0.27,0.34,0.75-0.14,0.48-0.48c-1.01-1.24-2.28-2.19-3.81-2.69c-0.78-0.26-1.53-0.26-2.33-0.41
			c-1.5-0.28-1.39-1.41-1.61-2.67c-0.71-3.98-2.8-6.67-5.55-9.53C594.42,319.87,593.95,320.35,594.25,320.66L594.25,320.66z"/>
	</g>
	<g>
		<path class="st27" d="M552.69,315.79c-1.89,3.97-2.9,8.3-2.8,12.7c0.01,0.48,0.25,1.35,0.1,1.76c-0.3,0.81-1.03,1.1-1.74,1.4
			c-0.69,0.29-1.35,0.64-1.97,1.06c-1.38,0.92-2.56,2.11-3.49,3.48c-4.03,5.97-1.75,14.12,4.49,17.52c0.38,0.21,0.72-0.37,0.34-0.58
			c-7.06-3.83-8.29-13.5-2.26-18.87c1.39-1.24,2.88-1.62,4.46-2.47c1.14-0.62,0.82-1.56,0.77-2.71c-0.19-4.48,0.76-8.91,2.69-12.95
			C553.46,315.74,552.88,315.4,552.69,315.79L552.69,315.79z"/>
	</g>
	<g>
		<path class="st27" d="M552.48,339.63c-1.03,2.2-2.02,4.71-1.38,7.17c0.49,1.89,1.85,3.43,3.78,3.84c0.42,0.09,0.6-0.56,0.18-0.65
			c-4.85-1.02-3.46-6.87-2-10.02C553.24,339.58,552.66,339.23,552.48,339.63L552.48,339.63z"/>
	</g>
	<path class="st8" d="M529.33,435.2c-3.65-9.07-11.96-14.88-21.96-15.25c-0.65-0.02-0.97,0.45-0.98,0.95
		c-3.4,6.45-7.51,12.44-12.35,17.94c-0.26,0.29-0.3,0.62-0.22,0.92c-0.07,0.16-0.1,0.34-0.07,0.54c0.7,5.03,2.33,10.03,5.18,14.31
		c2.42,3.65,5.62,5.09,9.94,3.78c8.33-2.53,17.35-17.5,20.57-22.06C529.73,435.89,529.62,435.47,529.33,435.2z"/>
	<path class="st12" d="M547.95,310.15c-0.05-0.45-0.29-0.82-0.9-0.83c-0.86-0.01-1.63,1.57-1.83,2.2c-0.19,0.6-0.47,2.47,0.3,2.82
		c1.08,0.49,1.83-2.23,2.15-2.87C547.85,311.12,548,310.6,547.95,310.15z"/>
	<path class="st13" d="M540.31,320.68c0.57,0.22,0.96,0.11,1.24,0.56c0.14,0.22,0.06,0.43-0.01,0.66c-0.14,0.47-0.28,0.95-0.48,1.41
		c-0.23,0.51-0.62,0.98-1.15,1.19c-0.31,0.13-1.06,0.33-0.91-0.19c0.22-0.77,0.49-1.63,0.8-2.36
		C539.85,321.84,540.23,320.78,540.31,320.68z"/>
	<path class="st26" d="M550.65,361.16c-19.81,9.28-32.21,29.2-42.34,47.64c-1.35,2.45-2.66,4.93-3.86,7.46
		c-0.76,1.61-1.49,3.01-0.98,4.79c1.11,3.85,5.96,7.74,8.92,10.2c7.6,6.32,19.42,12.17,28.65,9.72
		c2.28,0.01,10.85-26.11,12.52-39.35c0.91-7.26,0.09-13.33,0.35-20.64C554.12,374.87,551.33,360.84,550.65,361.16z"/>
	<g>
		<path class="st9" d="M614.33,510.52c-1.82,2.28-4.23,4.61-5.25,7.4c-1.26,3.44-1.87,7.21-2.74,10.76c-0.1,0.42,0.54,0.6,0.65,0.18
			c0.8-3.25,1.5-6.54,2.42-9.75c0.91-3.17,3.39-5.59,5.4-8.12C615.07,510.66,614.6,510.18,614.33,510.52L614.33,510.52z"/>
	</g>
	<g>
		<path class="st9" d="M566.29,462.59c19.59,4.48,40.83-0.87,55.96-14.09c0.33-0.29-0.15-0.76-0.48-0.48
			c-14.94,13.05-35.96,18.34-55.3,13.91C566.05,461.85,565.87,462.5,566.29,462.59L566.29,462.59z"/>
	</g>
	<g>
		<path class="st9" d="M550.21,388.81c2.38,13.64,1.15,27.72-3.54,40.75c-0.15,0.41,0.5,0.58,0.65,0.18
			c4.73-13.15,5.95-27.34,3.54-41.11C550.78,388.21,550.13,388.39,550.21,388.81L550.21,388.81z"/>
	</g>
	<path class="st8" d="M500.39,430.75c-2.75,5.56-9.83,0.97-15.51-1.14c-5.98-2.22-18.31-7.69-18.59-7.49
		c-3.82-1.71-8.76-2.66-11.81,1.07c-2.11,2.58-0.91,8.06,1.25,10.42c-0.26,0.35,17.09,12.69,26.54,17.7
		c4.44,2.35,8.8,5.08,13.65,6.4c4,1.09,10.85,2.24,14.6,0.02C513.98,456.3,500.85,429.82,500.39,430.75z"/>
	<path class="st8" d="M469.94,411.88c0-0.15-0.04-0.31-0.16-0.45c-1.99-2.34-3.76-4.83-5.3-7.48c-0.71-1.22-1.44-3.34-3.01-3.71
		c-4.37-1.03-2.08,6.92-1.52,8.52c0.05,0.14,0.13,0.23,0.22,0.3c0.15,0.45,0.3,0.9,0.38,1.38c0.21,1.12,0.36,1.74-0.78,2.26
		c-1.05,0.48-1.64,0.18-2.45-0.59c-0.52-0.49-0.91-1.12-1.23-1.76c-0.09-0.18-0.17-0.37-0.25-0.56c0.85-2.49,1.21-5.3-0.78-7.11
		c0.83-0.6,1.53-1.01,2.02-2.11c0.67-1.52,0.64-4.62-1.53-4.95c-0.26-0.04-0.54-0.01-0.83,0.05c0.04-0.1,0.08-0.19,0.13-0.29
		c0.82-1.81,1.66-4.23,0.96-6.23c-1.44-4.13-4.14,0.17-5.18,2.37c-0.03,0.03-0.06,0.05-0.08,0.09c-1.31,2.4-2.76,5.21-3.22,7.99
		c-0.44,0.3-0.86,0.63-1.22,0.98c-0.88,0.86-1.25,2.05-1.34,3.37c-2.93,2.75-3.97,7.97-2.99,11.63c0.28,1.81,1.25,3.9,1.94,5.46
		c2.66,5.96,14.97,15.32,15.43,15.31c3.79-0.13,14.05-10.95,14.06-11.28C473.41,419.69,473.08,416.43,469.94,411.88z"/>
	<g>
		<path class="st19" d="M453.98,396.38c-2.01,4.09-1.7,8.89,0.88,12.66c0.24,0.36,0.83,0.02,0.58-0.34
			c-2.43-3.57-2.78-8.1-0.88-11.99C454.75,396.34,454.17,395.99,453.98,396.38L453.98,396.38z"/>
	</g>
	<g>
		<path class="st19" d="M446.81,400.39c-0.75,5.69,1.98,10.79,4.7,15.58c0.21,0.38,0.79,0.04,0.58-0.34
			c-2.66-4.7-5.34-9.66-4.6-15.24C447.54,399.96,446.87,399.97,446.81,400.39L446.81,400.39z"/>
	</g>
	<g>
		<path class="st19" d="M444.44,404.97c-0.79,4.32,0.49,8.66,3.52,11.85c0.3,0.31,0.77-0.16,0.48-0.48c-2.86-3-4.09-7.12-3.34-11.2
			C445.17,404.73,444.52,404.55,444.44,404.97L444.44,404.97z"/>
	</g>
	<g>
		<path class="st19" d="M453.88,403.98c0.57-0.13,1.04-0.46,1.37-0.95c0.24-0.36-0.34-0.7-0.58-0.34c-0.23,0.34-0.57,0.55-0.97,0.64
			C453.27,403.42,453.45,404.07,453.88,403.98L453.88,403.98z"/>
	</g>
	<path class="st8" d="M533.89,226.99c-0.18-0.48-0.7-0.91-1.25-0.71c-1.88,0.7-1.88,2.89-2.24,4.67c-0.43,2.16-0.72,4.34-0.9,6.53
		c-0.1-0.04-0.18-0.1-0.28-0.14c0.05-3.34,0.1-6.68,0.15-10.02c0.02-1.46,0.61-5.03-1.51-5.57c-3.76-0.97-3.24,9.97-2.96,14.81
		c-0.19,0-0.38,0-0.57,0c-0.48-3.5-0.96-7-1.43-10.5c-0.4-2.94-0.15-6.94-2.98-8.7c-0.48-0.3-1.1-0.09-1.39,0.36
		c-1.62,2.54-1.14,5.3-0.83,8.16c0.42,3.92,0.85,7.85,1.27,11.77c-0.08,0.03-0.16,0.06-0.97-0.49l-2.6-8.9
		c-0.76-3.39-1.17-6.42-3.47-6.09c-3.19,0.46-1.3,10.5,0.73,15.88c0.52,1.85,1.01,3.71,1.43,5.59c0.53,2.39,1.36,5.34,0.74,7.76
		c-0.05,0.18-0.1,0.36-0.23,0.5c-0.48,0.54-0.85-0.15-1.09-0.51c-0.64-0.96-1.18-1.97-1.68-3c-0.7-1.45-1.41-2.8-2.88-3.56
		c-0.03-0.01-0.06-0.02-0.08-0.03c-0.13-0.08-0.28-0.13-0.46-0.15c-1.33-0.14-2.16,1.05-2.24,2.25c-0.09,1.32,0.32,2.65,0.91,3.82
		c0.8,2.41,2.37,4.91,3.16,6.26c2.73,4.7,6.37,9.35,10.71,12.6c0.4,0.3,12.05-11.47,12.09-11.8c0.54-4.55,0.23-9.17,0.18-13.72
		c0.32-3.19,0.64-6.37,0.96-9.56C534.42,231.9,534.79,229.47,533.89,226.99z"/>
</g>
<g>
</g>
<g>
</g>
<g>
</g>
<g>
</g>
<g>
</g>
<g>
</g>
</svg>
