<?xml version="1.0" encoding="utf-8"?>
<!-- Generator: Adobe Illustrator 26.1.0, SVG Export Plug-In . SVG Version: 6.00 Build 0)  -->
<svg version="1.1" id="Layer_1" xmlns="http://www.w3.org/2000/svg" xmlns:xlink="http://www.w3.org/1999/xlink" x="0px" y="0px"
	 viewBox="0 0 240 85" style="enable-background:new 0 0 240 85;" xml:space="preserve">
<style type="text/css">
	.st0{fill:#141717;}
	.st1{fill:#020202;}
</style>
<g>
	<path class="st0" d="M1.36,48.8h24.65c3.68,0,4.86-1.07,4.86-4.41c0-2.21,0.01-3.93,0.02-5.2c-1.33,0.74-2.4,0.96-4.2,0.96H13.51
		V2.99L1.35,3c0.53,0.96,0.98,2.16,0.98,3.77v38.25C2.32,46.82,1.92,47.81,1.36,48.8"/>
	<path class="st0" d="M39.78,2.99c0.66,1.2,0.96,2.4,0.96,3.78v37.7c0,3.11,1.27,4.38,4.4,4.38c2.58,0,6.13-0.02,7.73-0.04
		c-0.63-1.13-0.94-2.37-0.94-3.71V2.99H39.78z"/>
	<path class="st0" d="M65.36,3c0.71,1.29,0.97,2.35,0.97,3.77v37.7c0,3.11,1.27,4.38,4.37,4.38c2.63,0,6.15-0.02,7.75-0.04
		c-0.5-0.89-0.94-2.14-0.94-3.73V33.03h8.51c11.02,0,16.04-8.24,16.04-15.89c0-8.72-6-14.14-15.67-14.14H65.36z M85.5,24.26h-8.29
		V11.77h8.29c1.61,0,5.37,0.59,5.37,6.01C90.87,21.78,88.81,24.26,85.5,24.26"/>
	<path class="st0" d="M110.02,11.7h8.94v32.77c0,3.11,1.27,4.38,4.38,4.38c2.75,0,6.17-0.02,7.74-0.04
		c-0.6-1.09-0.94-2.41-0.94-3.73V11.7h8.86c3.48,0,4.21-2.19,4.21-4.03V2.49c-1.28,0.43-2.61,0.5-3.78,0.51h-32.99l0,9.61
		C107.31,12.13,108.52,11.7,110.02,11.7"/>
	<path class="st0" d="M210.37,23.62c0,0,0.31,0.35,16.46,18.82c4.07,4.65,7.41,6.81,11.29,7.25V3h-11.25
		c0.53,0.95,0.94,2.09,0.94,3.69v19.84c0,0-0.73-0.91-15.36-17.55c-2.2-2.5-4.59-5.98-8.71-5.98h-4.65
		c0.61,1.07,0.97,2.02,0.97,4.12v41.67h11.26c-0.62-1.13-0.95-2.41-0.95-3.68V23.62z"/>
	<path class="st0" d="M168.66,2.27c-13.31,0-22.61,9.72-22.61,23.63c0,13.91,9.3,23.63,22.61,23.63c13.23,0,22.46-9.72,22.46-23.63
		c0-6.67-2.24-12.71-6.3-16.99C180.76,4.63,175.02,2.27,168.66,2.27 M168.73,39.81c-6.73,0-10.92-5.33-10.92-13.91
		c0-8.49,4.18-13.76,10.92-13.76c6.45,0,10.62,5.4,10.62,13.76C179.35,34.35,175.19,39.81,168.73,39.81"/>
	<path class="st1" d="M37.29,56.02c0.03,0.32-0.04,0.56-0.21,0.71c-0.17,0.16-0.3,0.34-0.39,0.54c2.4-0.25,4.94-0.52,7.61-0.82
		c2.68-0.29,5.4-0.46,8.17-0.51c0.34,0,0.7,0.01,1.08,0.02c0.38,0.01,0.61,0.16,0.67,0.46c0,0.2-0.06,0.35-0.18,0.44
		c-0.12,0.09-0.28,0.15-0.46,0.17c-0.18,0.02-0.38,0.03-0.6,0.03h-0.6c-2.8,0.14-5.61,0.39-8.44,0.76c-2.83,0.37-5.57,0.7-8.21,0.97
		c-1.69,2.4-3.14,5.03-4.34,7.87c-1.2,2.84-2.38,5.72-3.55,8.62c-0.4,0.95-0.81,1.93-1.22,2.94c-0.42,1.01-0.7,2-0.85,2.97
		c-0.06,0.32-0.08,0.6-0.07,0.85c0.01,0.25-0.13,0.43-0.44,0.54c-0.4,0.11-0.68,0.09-0.85-0.07c-0.17-0.16-0.27-0.38-0.3-0.66
		c-0.03-0.28-0.02-0.59,0.02-0.92c0.05-0.33,0.1-0.59,0.16-0.8c0.86-3.85,2.03-7.49,3.51-10.93c1.48-3.43,3.04-6.76,4.71-9.97
		c-1.69,0.16-3.34,0.36-4.94,0.59c-1.6,0.24-3.21,0.47-4.82,0.68c-1.61,0.22-3.26,0.4-4.94,0.56c-1.68,0.16-3.44,0.24-5.28,0.24
		c-0.55,0.02-0.98-0.08-1.29-0.31c-0.31-0.23-0.48-0.49-0.51-0.8c-0.03-0.31,0.08-0.59,0.32-0.87c0.25-0.27,0.66-0.43,1.25-0.48
		c0.31-0.02,0.47,0.06,0.48,0.24c0.02,0.18,0.05,0.36,0.12,0.54c1.85-0.05,3.64-0.15,5.37-0.31c1.74-0.16,3.45-0.34,5.14-0.54
		c1.69-0.2,3.38-0.41,5.05-0.63c1.68-0.21,3.39-0.4,5.14-0.56c0.18-0.23,0.42-0.52,0.69-0.87c0.28-0.35,0.58-0.65,0.92-0.88
		c0.34-0.24,0.68-0.37,1.04-0.39C36.61,55.45,36.95,55.64,37.29,56.02"/>
	<path class="st1" d="M37.77,76.58c-0.1,0-0.21,0-0.31-0.01c-0.82-0.03-1.57-0.29-2.23-0.76c-0.85-0.63-1.25-1.48-1.18-2.53
		c0.03-0.13,0.07-0.24,0.13-0.36c0.05-0.09,0.06-0.19,0.04-0.3c0-0.09-0.02-0.14-0.05-0.17c-0.06-0.06-0.11-0.12-0.17-0.19
		c-0.06-0.08-0.11-0.16-0.15-0.25c-0.04-0.1-0.05-0.23-0.02-0.38c0.05-0.32,0.22-0.54,0.5-0.68c0.24-0.11,0.51-0.23,0.8-0.36
		c0.23-0.35,0.52-0.75,0.86-1.22c0.34-0.47,0.74-0.94,1.18-1.39c0.44-0.45,0.93-0.84,1.45-1.17c0.54-0.34,1.14-0.53,1.8-0.58
		c0.6-0.05,1.06,0.03,1.38,0.25c0.31,0.22,0.51,0.52,0.58,0.9l0,0.02l-0.01,0.02c-0.16,0.73-0.45,1.38-0.85,1.91
		c-0.4,0.53-0.89,1.01-1.44,1.42c-0.55,0.41-1.17,0.78-1.85,1.08c-0.67,0.3-1.34,0.59-2,0.85c-0.18,0.46-0.22,0.88-0.14,1.24
		c0.08,0.37,0.26,0.68,0.54,0.9c0.28,0.23,0.67,0.39,1.14,0.48c0.48,0.09,1.03,0.07,1.64-0.06c0.8-0.16,1.53-0.44,2.16-0.83
		c0.63-0.39,1.21-0.81,1.72-1.23c0.18-0.13,0.36-0.29,0.54-0.46c0.22-0.21,0.5-0.28,0.82-0.2l0.04,0.01l0.03,0.03
		c0.14,0.16,0.18,0.32,0.14,0.48c-0.04,0.13-0.12,0.26-0.25,0.39c-0.12,0.12-0.25,0.23-0.4,0.33c-0.13,0.09-0.23,0.17-0.29,0.25
		c-0.46,0.46-1.04,0.89-1.75,1.3c-0.71,0.41-1.47,0.73-2.28,0.96C39.19,76.49,38.48,76.58,37.77,76.58 M39.88,67.57
		c-0.34,0.17-0.67,0.41-0.97,0.7c-0.31,0.3-0.59,0.62-0.84,0.95c-0.25,0.34-0.48,0.69-0.69,1.04c-0.13,0.23-0.26,0.45-0.38,0.65
		c0.33-0.15,0.69-0.32,1.08-0.51c0.52-0.25,1.01-0.53,1.45-0.85c0.43-0.31,0.79-0.66,1.07-1.05c0.26-0.36,0.37-0.73,0.35-1.15
		c-0.19-0.04-0.37-0.04-0.52,0.01C40.23,67.42,40.05,67.49,39.88,67.57"/>
	<path class="st1" d="M61.6,78.07c-0.48,0-0.91-0.09-1.28-0.27c-0.37-0.18-0.66-0.41-0.85-0.69l-0.02-0.03v-0.04
		c0-0.09-0.01-0.17-0.03-0.24c-0.02-0.07-0.05-0.15-0.09-0.22l-0.02-0.03l0-0.04c0.07-0.82,0.32-1.51,0.76-2.03
		c0.42-0.51,0.89-1,1.38-1.46c0.17-0.22,0.39-0.44,0.65-0.61c0.24-0.17,0.45-0.36,0.64-0.58l0.04-0.03
		c0.12-0.06,0.25-0.14,0.38-0.24c0.13-0.11,0.27-0.21,0.4-0.31c0.14-0.11,0.3-0.18,0.47-0.23c0.18-0.05,0.39-0.02,0.64,0.07
		l0.03,0.01l0.02,0.02c0.18,0.21,0.16,0.38,0.12,0.49c-0.05,0.13-0.14,0.26-0.26,0.37c-0.12,0.11-0.26,0.22-0.42,0.31
		c-0.15,0.08-0.26,0.17-0.34,0.24c-0.29,0.28-0.59,0.57-0.91,0.87c-0.32,0.3-0.62,0.63-0.9,0.98c-0.13,0.15-0.26,0.31-0.4,0.5
		c-0.13,0.18-0.24,0.37-0.32,0.56c-0.08,0.18-0.14,0.37-0.16,0.56c-0.02,0.16,0.02,0.32,0.12,0.47c0.41,0.03,0.78,0.01,1.12-0.06
		c0.36-0.07,0.69-0.17,0.99-0.3c0.31-0.13,0.59-0.28,0.85-0.44c0.27-0.17,0.52-0.34,0.76-0.5c0.24-0.16,0.5-0.34,0.78-0.54
		c0.27-0.19,0.53-0.4,0.75-0.6c0.22-0.2,0.41-0.43,0.56-0.67c0.14-0.23,0.2-0.48,0.18-0.75c-0.02-0.27-0.12-0.51-0.31-0.73
		c-0.19-0.23-0.43-0.44-0.71-0.64c-0.29-0.21-0.6-0.41-0.91-0.6c-0.33-0.2-0.63-0.42-0.88-0.66c-0.27-0.25-0.47-0.52-0.59-0.83
		c-0.1-0.23-0.13-0.49-0.09-0.77c-0.73,0.56-1.43,1.18-2.1,1.83c-0.75,0.73-1.56,1.45-2.4,2.14c-0.42,0.33-0.86,0.66-1.3,1
		c-0.45,0.34-0.93,0.65-1.43,0.93c-0.5,0.28-1.05,0.53-1.63,0.74c-0.58,0.21-1.23,0.37-1.92,0.47c-0.67-0.03-1.17-0.19-1.52-0.47
		c-0.35-0.28-0.59-0.63-0.72-1.04c-0.13-0.4-0.17-0.86-0.14-1.37c0.03-0.38,0.08-0.76,0.15-1.14c-0.36,0.32-0.74,0.67-1.13,1.05
		c-0.5,0.49-0.98,0.94-1.44,1.34c-0.25,0.19-0.57,0.44-0.97,0.75c-0.4,0.32-0.84,0.6-1.28,0.83c-0.46,0.24-0.91,0.37-1.36,0.41
		c-0.47,0.04-0.89-0.15-1.25-0.55l-0.03-0.05c-0.09-0.36-0.09-0.75,0.02-1.15c0.1-0.39,0.25-0.78,0.44-1.16
		c0.19-0.38,0.42-0.76,0.69-1.12c0.27-0.36,0.53-0.69,0.77-0.99c0.89-1.11,1.87-2.07,2.92-2.84l1.08-0.55
		c0.37-0.19,0.89-0.27,1.56-0.23c0.38,0.11,0.66,0.26,0.86,0.46c0.19,0.19,0.3,0.45,0.32,0.77c0.08,0.02,0.21,0.04,0.4,0.05
		c0.29,0.01,0.46,0.11,0.52,0.29l0.01,0.04c0,0.45-0.08,0.97-0.24,1.54c-0.15,0.56-0.28,1.11-0.38,1.64
		c-0.1,0.53-0.13,1.03-0.08,1.49c0.04,0.42,0.25,0.75,0.63,0.99c0.07-0.02,0.15-0.02,0.2,0.03c0.9-0.03,1.69-0.22,2.36-0.56
		c0.7-0.36,1.35-0.75,1.92-1.13c0.88-0.58,1.72-1.22,2.48-1.9c0.77-0.68,1.55-1.39,2.29-2.09c0.74-0.7,1.52-1.41,2.3-2.1
		c0.77-0.68,1.6-1.35,2.47-1.97l0.05-0.03l0.05,0.01c0.04,0.01,0.06,0.01,0.08,0c0.06-0.03,0.13-0.05,0.19-0.05h0.01
		c0.33,0.02,0.56,0.15,0.7,0.38l0.03,0.05l-0.02,0.05c-0.14,0.37-0.34,0.7-0.59,0.97c-0.25,0.27-0.51,0.52-0.77,0.77
		c-0.26,0.24-0.51,0.5-0.74,0.77c-0.21,0.25-0.36,0.56-0.45,0.9c0.17,0.43,0.44,0.78,0.81,1.02c0.4,0.27,0.81,0.53,1.23,0.78
		c0.43,0.26,0.81,0.55,1.12,0.88c0.33,0.34,0.51,0.81,0.53,1.39c0.02,0.72-0.24,1.39-0.8,2c-0.54,0.59-1.13,1.11-1.75,1.54
		c-0.32,0.22-0.67,0.45-1.02,0.68c-0.35,0.22-0.72,0.43-1.11,0.61c-0.39,0.18-0.82,0.33-1.27,0.44
		C62.63,78.02,62.13,78.07,61.6,78.07 M50.04,68.9c-1.1,0.61-2.03,1.37-2.77,2.27c-0.67,0.82-1.26,1.73-1.75,2.72
		c0.87-0.49,1.69-1.07,2.45-1.74c0.83-0.74,1.64-1.52,2.39-2.3c-0.09-0.15-0.14-0.32-0.15-0.52c-0.01-0.17-0.05-0.31-0.13-0.43
		H50.04z"/>
	<path class="st1" d="M87.53,77.86c-0.1,0-0.2,0-0.31-0.01l-0.04-0.01c-0.67-0.29-1.13-0.77-1.35-1.43
		c-0.21-0.64-0.3-1.36-0.26-2.14c0.04-0.77,0.17-1.58,0.37-2.39c0.16-0.65,0.31-1.25,0.46-1.8c-0.39,0.38-0.77,0.8-1.13,1.26
		c-0.45,0.58-0.94,1.15-1.45,1.69c-0.24,0.26-0.51,0.53-0.79,0.8c-0.28,0.27-0.59,0.53-0.91,0.76c-0.33,0.23-0.7,0.44-1.11,0.6
		c-0.41,0.17-0.88,0.26-1.41,0.28h-0.02l-0.02,0c-0.12-0.04-0.22-0.08-0.3-0.14c-0.05-0.04-0.13-0.08-0.23-0.11L79,75.21l-0.02-0.03
		c-0.18-0.25-0.32-0.54-0.42-0.84l-0.01-0.02l0-0.02c0.05-0.86,0.26-1.66,0.63-2.36c0.37-0.69,0.78-1.38,1.22-2.04
		c0.51-0.79,1.03-1.5,1.54-2.12c0.52-0.63,1.23-1.16,2.1-1.58l0.04-0.02l0.04,0.01c0.05,0.01,0.07,0.01,0.07,0.01
		c0.03-0.02,0.08-0.04,0.12-0.05l0.04-0.01h0.52c0.17,0,0.33,0.02,0.48,0.05c0.4,0.15,0.66,0.38,0.8,0.71
		c0.13,0.31,0.17,0.65,0.12,1.02c-0.04,0.34-0.15,0.68-0.3,1.01c0.08-0.11,0.16-0.21,0.24-0.31c0.17-0.22,0.37-0.42,0.58-0.6
		c0.22-0.18,0.52-0.31,0.87-0.38l0.02,0l0.02,0.01c0.25,0.06,0.43,0.16,0.51,0.3c0.08,0.14,0.11,0.28,0.1,0.44
		c-0.01,0.14-0.05,0.3-0.13,0.46c-0.07,0.15-0.12,0.27-0.16,0.39c-0.27,0.8-0.53,1.69-0.78,2.62c-0.25,0.94-0.4,1.89-0.45,2.81
		c-0.04,0.46-0.02,0.93,0.08,1.38c0.09,0.43,0.31,0.77,0.65,1.03c0.13,0.04,0.31,0.04,0.52,0c0.29-0.05,0.5,0.01,0.62,0.19
		l0.03,0.04l-0.01,0.05c-0.04,0.19-0.17,0.44-0.59,0.49C87.93,77.85,87.74,77.86,87.53,77.86 M84.14,68.2
		c-0.79,0.81-1.5,1.69-2.12,2.61c-0.63,0.94-1.12,2.02-1.47,3.2c0.38-0.15,0.71-0.34,0.98-0.56c0.32-0.27,0.63-0.55,0.94-0.83
		c0.13-0.4,0.29-0.79,0.48-1.16c0.19-0.37,0.37-0.75,0.55-1.14c0.18-0.38,0.33-0.77,0.46-1.16C84.05,68.85,84.11,68.53,84.14,68.2"
		/>
	<path class="st1" d="M99.11,76.56c-0.41,0-0.76-0.06-1.04-0.19c-0.35-0.15-0.62-0.35-0.81-0.57c-0.34-0.37-0.58-0.85-0.69-1.43
		c-0.11-0.56-0.16-1.18-0.15-1.83c0.01-0.65,0.07-1.32,0.17-2l0.25-1.7c-0.11,0.06-0.22,0.14-0.32,0.22
		c-0.16,0.13-0.33,0.28-0.49,0.45c-0.17,0.16-0.33,0.33-0.5,0.5c-0.17,0.17-0.34,0.33-0.52,0.46c-0.29,0.36-0.6,0.69-0.92,0.99
		c-0.31,0.3-0.61,0.63-0.87,1c-0.32,0.34-0.63,0.68-0.92,1.01c-0.3,0.34-0.61,0.69-0.92,1.03c-0.18,0.15-0.33,0.31-0.46,0.47
		c-0.14,0.18-0.28,0.35-0.44,0.51c-0.16,0.17-0.36,0.32-0.58,0.44c-0.22,0.12-0.5,0.21-0.82,0.26c-0.33-0.02-0.53-0.09-0.65-0.22
		c-0.1-0.11-0.2-0.23-0.29-0.37l-0.03-0.05l0.02-0.05c0.22-0.79,0.57-1.52,1.02-2.17c0.44-0.63,0.85-1.29,1.23-1.95
		c0.1-0.32,0.28-0.66,0.5-1.01c0.22-0.34,0.43-0.68,0.63-1c0.08-0.15,0.16-0.32,0.22-0.51c0.07-0.19,0.16-0.38,0.26-0.55
		c0.11-0.17,0.24-0.33,0.39-0.47c0.16-0.14,0.37-0.25,0.63-0.32l0.03-0.01l0.03,0.01c0.59,0.13,0.9,0.35,0.94,0.68
		c0.04,0.29-0.04,0.62-0.23,0.98c-0.18,0.34-0.41,0.69-0.68,1.03c-0.14,0.18-0.25,0.34-0.33,0.49c0.17-0.14,0.35-0.32,0.54-0.53
		c0.33-0.36,0.68-0.73,1.05-1.12c0.37-0.39,0.77-0.75,1.18-1.08c0.42-0.34,0.87-0.57,1.33-0.68c0.51-0.12,0.9-0.06,1.17,0.19
		c0.26,0.24,0.42,0.53,0.47,0.87c0,0.66-0.11,1.35-0.32,2.06c-0.21,0.69-0.32,1.45-0.34,2.25c-0.02,0.29-0.03,0.61-0.02,0.95
		c0.01,0.33,0.06,0.65,0.15,0.95c0.08,0.29,0.21,0.54,0.36,0.74c0.15,0.19,0.35,0.3,0.61,0.35c0.37,0.06,0.67,0.03,0.89-0.08
		c0.24-0.13,0.49-0.26,0.74-0.37c0.14-0.04,0.24-0.09,0.32-0.16c0.1-0.09,0.21-0.17,0.33-0.24c0.12-0.08,0.25-0.14,0.38-0.18
		c0.15-0.04,0.32-0.01,0.5,0.08l0.05,0.03l0.01,0.06c0.04,0.19,0,0.47-0.37,0.7c-0.26,0.16-0.5,0.3-0.72,0.43
		c-0.5,0.3-1.06,0.51-1.67,0.63C99.3,76.56,99.2,76.56,99.11,76.56"/>
	<path class="st1" d="M112.39,79.48l-0.03-0.01c-0.29-0.11-0.5-0.26-0.64-0.45c-0.13-0.18-0.23-0.39-0.28-0.63
		c-0.06-0.23-0.09-0.47-0.1-0.71c-0.01-0.24-0.02-0.47-0.02-0.7c-0.04-0.73-0.03-1.52,0.03-2.34c0.07-0.82,0.16-1.65,0.27-2.47
		c0.11-0.82,0.24-1.64,0.4-2.45c0.11-0.58,0.23-1.14,0.34-1.68c-0.48,0.71-0.96,1.41-1.42,2.07c-0.6,0.86-1.24,1.7-1.9,2.5
		c-0.66,0.8-1.39,1.57-2.16,2.3c-0.77,0.73-1.6,1.4-2.49,2.01c-0.22,0.09-0.4,0.18-0.56,0.26c-0.17,0.09-0.34,0.18-0.5,0.26
		c-0.17,0.08-0.37,0.15-0.57,0.21c-0.21,0.05-0.44,0.07-0.7,0.05c-0.66-0.02-1.12-0.22-1.36-0.61c-0.23-0.37-0.34-0.82-0.3-1.33
		c0.03-0.5,0.15-1.02,0.34-1.55c0.19-0.52,0.37-0.98,0.55-1.36c0.31-0.69,0.69-1.4,1.12-2.12c0.44-0.72,0.94-1.41,1.49-2.04
		c0.56-0.63,1.19-1.19,1.87-1.66c0.69-0.47,1.44-0.8,2.25-0.99l0.93,0c0.77,0.19,1.29,0.56,1.57,1.09c0.22,0.41,0.29,0.91,0.23,1.5
		c0.45-0.64,0.9-1.28,1.35-1.91c0.54-0.77,1.03-1.63,1.47-2.57c0.09-0.21,0.15-0.37,0.2-0.49c0.04-0.12,0.08-0.24,0.11-0.35
		c0.03-0.12,0.08-0.25,0.14-0.4c0.06-0.15,0.14-0.35,0.25-0.6c0.07-0.13,0.15-0.32,0.27-0.59c0.11-0.26,0.24-0.53,0.39-0.79
		c0.15-0.26,0.32-0.5,0.52-0.71c0.21-0.23,0.44-0.34,0.67-0.34c0.32,0,0.52,0.1,0.6,0.31c0.06,0.18,0.06,0.39-0.02,0.62
		c-0.07,0.21-0.16,0.43-0.27,0.64c-0.11,0.21-0.19,0.36-0.23,0.46c-1.1,2.5-1.99,5.11-2.64,7.75c-0.65,2.64-0.95,5.49-0.88,8.48
		c0.1,0.06,0.28,0.03,0.41,0.06c0.12,0.03,0.19,0.12,0.19,0.24c-0.05,0.56-0.33,0.9-0.82,1.02L112.39,79.48z M108.21,67.65
		c-0.02,0-0.04,0-0.06,0c-0.35,0.08-0.72,0.25-1.09,0.52c-0.38,0.27-0.75,0.6-1.08,0.95c-0.34,0.36-0.67,0.75-0.97,1.16
		c-0.31,0.41-0.58,0.79-0.79,1.14c-0.27,0.43-0.53,0.86-0.78,1.3c-0.25,0.44-0.46,0.87-0.62,1.29c-0.16,0.42-0.28,0.85-0.34,1.26
		c-0.06,0.36-0.06,0.69-0.02,1c0.6-0.2,1.15-0.45,1.62-0.74c0.51-0.31,1-0.67,1.45-1.04c0.45-0.38,0.88-0.78,1.29-1.19
		c0.4-0.4,0.79-0.8,1.17-1.2c-0.04-0.27-0.02-0.55,0.06-0.82c0.08-0.27,0.16-0.55,0.27-0.86c0.1-0.29,0.19-0.59,0.28-0.88
		c0.08-0.28,0.13-0.57,0.13-0.85c0-0.1-0.01-0.23-0.03-0.36c-0.02-0.13-0.05-0.25-0.09-0.37c-0.04-0.1-0.09-0.18-0.17-0.24
		C108.36,67.67,108.29,67.65,108.21,67.65"/>
	<path class="st1" d="M142.13,59.65c0,0.11,0.05,0.2,0.14,0.27c-0.06,0.54-0.27,1.03-0.62,1.46c-0.35,0.43-0.7,0.84-1.04,1.22
		c-0.34,0.41-0.64,0.82-0.9,1.24c-0.26,0.42-0.59,0.83-0.99,1.24c-0.15,0.11-0.33,0.15-0.53,0.12c-0.2-0.03-0.36-0.03-0.48,0.02
		c-1.57,1.99-3.04,4.03-4.43,6.12c-1.38,2.09-2.58,4.35-3.6,6.8c0.65-0.07,1.34-0.15,2.1-0.24c0.75-0.09,1.54-0.17,2.35-0.24
		c0.81-0.07,1.63-0.12,2.44-0.15c0.81-0.03,1.61-0.03,2.38,0.02c0.28,0.02,0.58,0.05,0.9,0.07c0.32,0.02,0.62,0.07,0.9,0.15
		c0.28,0.08,0.51,0.18,0.71,0.31c0.2,0.12,0.33,0.3,0.39,0.53c-0.09,0.2-0.24,0.34-0.44,0.41c-0.2,0.07-0.42,0.09-0.67,0.07
		c-0.25-0.02-0.49-0.06-0.74-0.12c-0.25-0.06-0.48-0.08-0.69-0.08c-0.83-0.05-1.69-0.04-2.58,0.02c-0.89,0.06-1.78,0.14-2.65,0.26
		c-0.88,0.11-1.73,0.24-2.56,0.37c-0.83,0.14-1.6,0.25-2.31,0.34c-0.12,0.16-0.23,0.33-0.32,0.53c-0.09,0.19-0.26,0.31-0.51,0.36
		c-0.25-0.02-0.41-0.1-0.51-0.22c-0.09-0.12-0.17-0.25-0.23-0.39c-0.49,0.11-1.08,0.24-1.75,0.39c-0.68,0.15-1.38,0.31-2.12,0.49
		c-0.43,0.11-0.95,0.25-1.55,0.41c-0.6,0.16-1.15,0.27-1.66,0.32c-0.51,0.06-0.92,0.01-1.22-0.15c-0.31-0.16-0.42-0.51-0.32-1.05
		c0.06-0.05,0.12-0.09,0.18-0.14c0.06-0.05,0.11-0.11,0.14-0.2c1.41-0.36,2.84-0.69,4.27-0.99c1.43-0.29,2.93-0.56,4.5-0.78
		c1.14-3.13,2.54-6.13,4.22-9.01c1.68-2.88,3.62-5.54,5.84-7.99c0.34-0.39,0.69-0.76,1.06-1.14c0.37-0.37,0.77-0.65,1.2-0.83
		c0.06-0.05,0.17-0.09,0.32-0.14c0.37-0.05,0.65-0.03,0.85,0.05C141.8,59.44,141.98,59.53,142.13,59.65 M151.4,57.85
		c-0.34,0.25-0.73,0.32-1.18,0.2c-0.45-0.11-0.88-0.18-1.31-0.2c-0.89-0.05-1.81-0.05-2.77,0c-0.95,0.05-1.91,0.11-2.88,0.2
		c-0.97,0.09-1.93,0.2-2.88,0.34c-0.95,0.14-1.89,0.26-2.81,0.37c-1.38,0.18-2.73,0.36-4.04,0.53c-1.31,0.17-2.68,0.36-4.13,0.56
		c-0.18,0.02-0.38,0.05-0.6,0.08c-0.22,0.03-0.41,0.04-0.6,0.02c-0.19-0.02-0.35-0.07-0.51-0.15c-0.15-0.08-0.25-0.22-0.28-0.43
		c0.09-0.32,0.28-0.55,0.55-0.71c0.28-0.16,0.6-0.28,0.97-0.36c0.37-0.08,0.76-0.13,1.18-0.15c0.41-0.02,0.81-0.06,1.18-0.1
		c2.25-0.29,4.64-0.54,7.17-0.75c2.54-0.2,5.04-0.35,7.5-0.44c0.34-0.02,0.81-0.04,1.41-0.05c0.6-0.01,1.19,0.01,1.78,0.07
		c0.58,0.06,1.1,0.16,1.54,0.31C151.13,57.33,151.37,57.55,151.4,57.85"/>
	<path class="st1" d="M149.13,76.56c-0.41,0-0.76-0.06-1.04-0.19c-0.35-0.15-0.62-0.35-0.81-0.57c-0.34-0.37-0.58-0.85-0.69-1.43
		c-0.11-0.56-0.16-1.18-0.15-1.83c0.01-0.65,0.07-1.32,0.17-2l0.25-1.7c-0.11,0.06-0.22,0.14-0.32,0.22
		c-0.16,0.13-0.32,0.28-0.49,0.45c-0.17,0.16-0.33,0.33-0.5,0.5c-0.17,0.17-0.34,0.33-0.52,0.46c-0.29,0.36-0.6,0.69-0.92,0.99
		c-0.31,0.29-0.6,0.63-0.87,1c-0.32,0.34-0.63,0.68-0.92,1.01c-0.3,0.34-0.61,0.69-0.92,1.03c-0.18,0.15-0.33,0.31-0.46,0.47
		c-0.14,0.18-0.29,0.35-0.44,0.51c-0.16,0.17-0.36,0.32-0.58,0.44c-0.22,0.12-0.5,0.21-0.82,0.26c-0.33-0.02-0.53-0.09-0.66-0.22
		c-0.11-0.11-0.2-0.24-0.29-0.37l-0.03-0.05l0.02-0.05c0.22-0.79,0.57-1.52,1.01-2.17c0.44-0.63,0.85-1.29,1.23-1.95
		c0.11-0.32,0.28-0.66,0.5-1.01c0.22-0.34,0.43-0.68,0.63-1c0.08-0.15,0.16-0.32,0.22-0.5c0.07-0.19,0.16-0.38,0.26-0.55
		c0.11-0.17,0.24-0.33,0.39-0.47c0.16-0.14,0.37-0.25,0.63-0.32l0.03-0.01l0.03,0.01c0.59,0.13,0.9,0.35,0.94,0.68
		c0.04,0.29-0.04,0.62-0.23,0.98c-0.18,0.34-0.41,0.69-0.68,1.04c-0.14,0.18-0.25,0.34-0.33,0.49c0.17-0.14,0.35-0.32,0.55-0.53
		c0.33-0.36,0.68-0.73,1.05-1.12c0.37-0.39,0.77-0.75,1.18-1.08c0.42-0.34,0.87-0.57,1.33-0.68c0.51-0.12,0.9-0.06,1.18,0.19
		c0.27,0.24,0.42,0.53,0.47,0.87c0,0.66-0.11,1.35-0.32,2.06c-0.21,0.69-0.32,1.45-0.34,2.25c-0.02,0.29-0.03,0.61-0.02,0.95
		c0.01,0.33,0.06,0.65,0.15,0.95c0.08,0.29,0.21,0.54,0.36,0.74c0.15,0.19,0.35,0.3,0.61,0.35c0.37,0.06,0.67,0.03,0.89-0.09
		c0.26-0.14,0.5-0.26,0.74-0.37c0.14-0.04,0.24-0.09,0.32-0.16c0.1-0.09,0.21-0.17,0.33-0.24c0.12-0.08,0.25-0.14,0.38-0.18
		c0.15-0.04,0.32-0.01,0.5,0.08l0.05,0.03l0.01,0.06c0.04,0.19,0,0.47-0.37,0.7c-0.26,0.16-0.49,0.3-0.72,0.43
		c-0.5,0.3-1.06,0.51-1.67,0.63C149.32,76.56,149.23,76.56,149.13,76.56"/>
	<path class="st1" d="M153.82,72.83l0.04,0.04c0.15,0.18,0.31,0.35,0.46,0.51c0.16,0.17,0.3,0.37,0.42,0.59l0.03,0.05l-0.02,0.05
		c-0.24,0.58-0.47,1.27-0.69,2.06c-0.22,0.78-0.34,1.54-0.36,2.26c0,0.32,0.01,0.64,0.03,0.96c0.02,0.3,0.09,0.59,0.21,0.84
		c0.11,0.25,0.28,0.46,0.5,0.63c0.21,0.16,0.5,0.27,0.86,0.32c0.49-0.15,0.84-0.38,1.05-0.66c0.21-0.29,0.33-0.62,0.36-0.97
		c0.03-0.36,0.01-0.74-0.06-1.13c-0.08-0.42-0.16-0.78-0.25-1.11c-0.09-0.34-0.21-0.69-0.38-1.05c-0.18-0.39-0.25-0.74-0.23-1.05
		c0.05-0.53,0.23-1.01,0.56-1.44c0.3-0.4,0.53-0.82,0.68-1.27l0.02-0.07l0.07-0.01c1.29-0.24,2.63-0.51,3.97-0.81
		c1.34-0.29,2.58-0.65,3.7-1.05c0.18-0.07,0.37-0.13,0.57-0.2c0.19-0.06,0.38-0.14,0.55-0.23c0.17-0.09,0.32-0.18,0.44-0.29
		c0.08-0.07,0.14-0.15,0.17-0.24c-0.27-0.07-0.54-0.03-0.82,0.1c-0.35,0.17-0.7,0.31-1.03,0.42c-1.07,0.34-2.22,0.65-3.44,0.91
		c-1.22,0.26-2.43,0.47-3.61,0.62l-0.22,0.03l0.1-0.2c0.49-1.01,1.02-2,1.59-2.95c0.57-0.95,1.15-1.83,1.72-2.62
		c0.58-0.79,1.17-1.51,1.77-2.13c0.6-0.62,1.21-1.13,1.82-1.51l0.57-0.36l-0.41,0.53c-0.08,0.1-0.12,0.23-0.14,0.39
		c-0.02,0.18,0.03,0.25,0.07,0.28c0.13,0.03,0.21,0.06,0.25,0.09c0.25-0.02,0.5-0.11,0.75-0.26c0.26-0.16,0.5-0.37,0.7-0.61
		c0.2-0.24,0.36-0.51,0.48-0.79c0.11-0.26,0.17-0.51,0.17-0.74c-0.14-0.15-0.26-0.27-0.37-0.35c-0.07-0.05-0.24-0.12-0.65-0.14
		c-0.38-0.01-0.77,0.06-1.16,0.24c-0.4,0.17-0.78,0.41-1.14,0.68c-0.36,0.28-0.71,0.58-1.02,0.89c-0.32,0.31-0.59,0.57-0.82,0.79
		c-1.25,1.21-2.39,2.6-3.38,4.12c-0.99,1.53-1.94,3.2-2.82,4.97l-0.03,0.07h-0.07c-0.28,0-0.54,0.02-0.77,0.07
		c-0.25,0.05-0.54,0.08-0.86,0.08h-0.03l-0.03-0.02c-0.15-0.09-0.37-0.21-0.65-0.34c-0.28-0.13-0.56-0.21-0.85-0.26
		c-0.28-0.05-0.55-0.03-0.8,0.03c-0.22,0.06-0.39,0.2-0.51,0.43c0.02,0.18,0.11,0.31,0.26,0.42c0.18,0.12,0.4,0.22,0.68,0.29
		c0.28,0.07,0.6,0.11,0.94,0.12c0.35,0.01,0.7,0,1.02-0.01L153.82,72.83z M155.58,76.33c-0.08,0.27-0.18,0.57-0.27,0.89
		c-0.13,0.44-0.23,0.89-0.3,1.32c-0.06,0.43-0.07,0.84-0.02,1.2c0.05,0.32,0.19,0.57,0.43,0.76c0.3-0.27,0.49-0.58,0.59-0.93
		c0.11-0.4,0.14-0.81,0.11-1.24c-0.03-0.43-0.12-0.85-0.26-1.26C155.77,76.79,155.67,76.54,155.58,76.33 M154.66,72.91
		c0.04,0.07,0.08,0.14,0.12,0.22c0,0,0,0.01,0,0.01l0.09-0.14c0.03-0.04,0.05-0.07,0.06-0.11
		C154.83,72.88,154.73,72.89,154.66,72.91"/>
	<path class="st1" d="M176.88,78.17c-0.06,0-0.13,0-0.19,0c-0.67-0.03-1.2-0.2-1.58-0.5c-0.4-0.31-0.58-0.73-0.53-1.25
		c0.05-0.54,0.26-1.06,0.62-1.54c0.36-0.47,0.73-0.9,1.11-1.3c0.38-0.41,0.78-0.8,1.19-1.16c0.38-0.34,0.78-0.65,1.18-0.91
		l-0.12-0.36c-0.03-0.08-0.04-0.15-0.03-0.23c-0.48,0.29-0.94,0.61-1.36,0.95c-0.52,0.41-1.07,0.81-1.62,1.18
		c-0.57,0.38-1.22,0.71-1.92,0.97c-0.7,0.26-1.55,0.42-2.52,0.47c-0.52-0.09-0.89-0.3-1.12-0.63c-0.22-0.32-0.34-0.7-0.35-1.12
		c-0.01-0.41,0.04-0.85,0.15-1.3c0.07-0.29,0.16-0.58,0.25-0.84c-0.41,0.33-0.81,0.72-1.2,1.15c-0.5,0.55-1.01,1.08-1.52,1.55
		c-0.24,0.24-0.52,0.48-0.81,0.71c-0.29,0.22-0.59,0.47-0.89,0.74c-0.13,0.11-0.31,0.26-0.52,0.44c-0.24,0.21-0.5,0.38-0.77,0.53
		c-0.28,0.15-0.57,0.25-0.87,0.3c-0.32,0.05-0.63-0.04-0.92-0.26c-0.28-0.21-0.41-0.5-0.38-0.89c0.02-0.36,0.12-0.74,0.29-1.13
		c0.17-0.39,0.37-0.77,0.59-1.15c0.22-0.37,0.42-0.7,0.6-0.96c0.33-0.57,0.64-1.11,0.95-1.61c0.3-0.5,0.6-0.95,0.91-1.34
		c0.07-0.24,0.21-0.49,0.41-0.76c0.21-0.28,0.46-0.51,0.73-0.68c0.29-0.18,0.58-0.25,0.87-0.23c0.31,0.03,0.57,0.23,0.79,0.61
		l0.03,0.06l-0.03,0.06c-0.58,1.11-1.22,2.18-1.92,3.16c-0.62,0.87-1.16,1.82-1.61,2.82c0.72-0.48,1.41-1.05,2.08-1.72
		c0.78-0.78,1.56-1.56,2.36-2.34c0.09-0.08,0.2-0.19,0.33-0.33c0.13-0.14,0.29-0.28,0.46-0.43c0.17-0.14,0.35-0.27,0.53-0.37
		c0.19-0.11,0.39-0.16,0.59-0.16c0.3,0,0.52,0.08,0.64,0.24c0.12,0.15,0.18,0.34,0.18,0.55c0,0.2-0.03,0.4-0.09,0.64
		c-0.06,0.22-0.11,0.42-0.15,0.58c-0.11,0.31-0.23,0.6-0.35,0.9c-0.12,0.28-0.21,0.57-0.28,0.85c-0.06,0.28-0.09,0.54-0.08,0.78
		c0.01,0.21,0.09,0.41,0.25,0.59c0.37,0.04,0.73,0.04,1.07-0.02c0.36-0.06,0.7-0.14,1.01-0.26c0.32-0.12,0.63-0.26,0.92-0.42
		c0.3-0.16,0.58-0.33,0.84-0.49c0.55-0.33,1.09-0.67,1.61-1.03c0.52-0.36,1.04-0.7,1.55-1.03c1.07-0.74,2.12-1.49,3.14-2.24
		c1.04-0.76,2.22-1.42,3.5-1.94l0.04-0.01c0.28,0,0.47,0.05,0.58,0.15c0.1,0.09,0.18,0.22,0.23,0.37l0.02,0.06l-0.03,0.05
		c-0.32,0.47-0.76,0.88-1.32,1.21c-0.54,0.33-1.07,0.66-1.58,0.98c-0.49,0.33-0.98,0.65-1.48,0.98c-0.45,0.29-0.82,0.65-1.11,1.06
		c0.14,0.08,0.31,0.14,0.49,0.19c0.24,0.07,0.49,0.13,0.74,0.18c0.25,0.06,0.51,0.11,0.78,0.16c0.27,0.05,0.53,0.13,0.76,0.23
		c0.24,0.11,0.43,0.23,0.57,0.38c0.13,0.13,0.28,0.26,0.45,0.39l0.04,0.03l0.01,0.04c0.02,0.09,0.05,0.19,0.08,0.28
		c0.03,0.1,0.07,0.18,0.11,0.25l0.02,0.03l-0.01,0.04c-0.11,0.84-0.48,1.55-1.09,2.1c-0.59,0.53-1.31,1.04-2.14,1.5
		c-0.31,0.18-0.65,0.36-0.99,0.53c-0.35,0.17-0.72,0.33-1.09,0.47c-0.38,0.14-0.77,0.25-1.15,0.34
		C177.53,78.14,177.21,78.17,176.88,78.17 M176.35,76.63c0.7,0,1.34-0.13,1.91-0.41c0.61-0.29,1.17-0.58,1.68-0.86
		c0.5-0.3,0.99-0.65,1.46-1.03c0.45-0.36,0.79-0.77,1.02-1.22c-0.08-0.15-0.2-0.27-0.37-0.36c-0.2-0.11-0.44-0.2-0.7-0.26
		c-0.28-0.06-0.56-0.13-0.86-0.18c-0.3-0.06-0.57-0.14-0.82-0.23h-0.13c-0.31,0.32-0.65,0.65-1.02,0.99
		c-0.38,0.35-0.74,0.71-1.07,1.08c-0.31,0.35-0.61,0.76-0.9,1.2C176.28,75.76,176.22,76.18,176.35,76.63"/>
	<path class="st1" d="M187.64,77.12c-0.31,0-0.61-0.03-0.88-0.1c-0.19-0.09-0.34-0.19-0.47-0.29l-0.43-0.33
		c-0.21-0.39-0.32-0.82-0.33-1.29c-0.01-0.46,0.05-0.94,0.17-1.42c0.12-0.48,0.29-0.97,0.51-1.46c0.21-0.5,0.44-0.99,0.69-1.45
		c0.36-0.64,0.77-1.28,1.23-1.9c0.46-0.63,0.95-1.08,1.46-1.34c0.04-0.03,0.13-0.07,0.25-0.11c0.29-0.04,0.49-0.02,0.65,0.04
		c0.14,0.06,0.27,0.13,0.39,0.22l0.04,0.03l0.01,0.04c0.07,0.3,0.05,0.65-0.07,1.06c-0.12,0.41-0.29,0.75-0.53,1l-0.02,0.02
		c-0.19,0.12-0.39,0.14-0.58,0.06c-0.12-0.05-0.19-0.06-0.24-0.06c-0.18,0.36-0.39,0.76-0.65,1.17c-0.26,0.43-0.52,0.88-0.76,1.34
		c-0.24,0.46-0.45,0.94-0.63,1.41c-0.17,0.47-0.26,0.94-0.26,1.42c0,0.35,0.13,0.61,0.41,0.79c0.48-0.02,0.94-0.09,1.35-0.21
		c0.42-0.13,0.83-0.28,1.2-0.46c0.38-0.18,0.73-0.37,1.05-0.57c0.33-0.2,0.65-0.4,0.96-0.6c1.34-0.81,2.56-1.69,3.61-2.61
		c0.34-0.36,0.69-0.72,1.03-1.05c0.15-0.16,0.31-0.33,0.48-0.52c0.19-0.21,0.45-0.34,0.79-0.37l0.08-0.01l0.04,0.07
		c0.1,0.18,0.14,0.46-0.2,0.75c-0.21,0.18-0.4,0.36-0.56,0.52c-0.5,0.51-1.04,1.05-1.6,1.6c-0.56,0.55-1.17,1.03-1.82,1.44
		c-0.79,0.61-1.65,1.2-2.57,1.74c-0.92,0.54-1.96,1.01-3.09,1.38C188.1,77.1,187.86,77.12,187.64,77.12 M193.54,62.92
		c-0.23,0-0.45-0.04-0.67-0.12c-0.4-0.15-0.62-0.47-0.62-0.94v-0.04l0.02-0.04c0.17-0.29,0.48-0.49,0.94-0.58
		c0.44-0.09,0.85-0.08,1.22,0.04l0.06,0.03c0.44,0.4,0.55,0.75,0.35,1.06c-0.18,0.26-0.46,0.45-0.85,0.54
		C193.84,62.9,193.69,62.92,193.54,62.92"/>
	<path class="st1" d="M214,78.57c-0.23,0-0.43-0.03-0.62-0.08c-0.4-0.1-0.73-0.31-0.99-0.63c-0.25-0.3-0.45-0.66-0.6-1.05
		c-0.15-0.39-0.26-0.82-0.32-1.28c-0.07-0.46-0.11-0.91-0.13-1.32c-0.02-0.49-0.01-1.01,0.05-1.53c0.05-0.51,0.12-1.03,0.2-1.53
		c0.08-0.5,0.16-0.98,0.23-1.45c0.06-0.35,0.1-0.7,0.13-1.02c-0.88,0.75-1.71,1.64-2.46,2.63c-0.82,1.09-1.62,2.16-2.36,3.2
		c-0.11,0.16-0.22,0.34-0.35,0.53c-0.13,0.2-0.27,0.4-0.43,0.58c-0.16,0.18-0.34,0.35-0.53,0.5c-0.2,0.15-0.45,0.25-0.73,0.3
		l-0.03,0l-0.03-0.01c-0.3-0.07-0.5-0.22-0.58-0.43c-0.07-0.19-0.09-0.4-0.06-0.63c0.03-0.21,0.11-0.43,0.21-0.65
		c0.1-0.2,0.18-0.38,0.25-0.52c0.48-1.16,1.02-2.3,1.58-3.39c0.5-0.95,0.99-1.88,1.46-2.8c-0.31,0.18-0.64,0.38-0.98,0.58
		c-0.47,0.28-0.98,0.54-1.51,0.77c-0.53,0.23-1.12,0.43-1.75,0.61c-0.59,0.16-1.24,0.27-1.93,0.33c0.06,0.52,0.07,1.07,0.04,1.61
		c-0.03,0.6-0.15,1.17-0.34,1.71c-0.19,0.54-0.47,1.04-0.82,1.48c-0.36,0.45-0.81,0.79-1.36,1.03c-0.3,0.13-0.66,0.22-1.08,0.27
		c-0.42,0.04-0.81,0-1.13-0.12c-0.61-0.21-1.01-0.58-1.19-1.1c-0.17-0.51-0.21-1.08-0.1-1.7c0.1-0.61,0.28-1.23,0.54-1.83
		c0.26-0.6,0.51-1.12,0.76-1.52c0.11-0.19,0.26-0.43,0.45-0.72c0.19-0.28,0.42-0.56,0.68-0.83c0.26-0.27,0.56-0.5,0.89-0.68
		c0.34-0.19,0.71-0.28,1.11-0.26c0.35,0.02,0.59,0.12,0.72,0.29c0.12,0.16,0.2,0.35,0.24,0.57c0.03,0.18,0.06,0.37,0.09,0.57
		l0.01,0.05c0.03,0.17,0.1,0.32,0.21,0.44c0.74-0.02,1.42-0.09,2.01-0.23c0.6-0.14,1.16-0.32,1.66-0.53
		c0.5-0.22,0.98-0.46,1.42-0.73c0.44-0.27,0.88-0.55,1.29-0.84c0.12-0.09,0.24-0.2,0.35-0.31l0.33-0.37
		c0.12-0.13,0.26-0.25,0.43-0.34c0.17-0.1,0.39-0.16,0.65-0.18l0.06,0l0.04,0.04c0.13,0.13,0.2,0.28,0.22,0.44
		c0.01,0.15-0.01,0.31-0.05,0.46c-0.05,0.15-0.11,0.3-0.19,0.45c-0.08,0.14-0.15,0.27-0.21,0.4c-0.42,0.85-0.84,1.72-1.25,2.58
		c-0.3,0.63-0.59,1.27-0.88,1.91l1.26-1.58c0.6-0.75,1.26-1.51,1.97-2.24c0.25-0.23,0.51-0.48,0.79-0.75
		c0.3-0.29,0.66-0.44,1.06-0.44c0.43,0.02,0.72,0.21,0.84,0.58c0.12,0.33,0.16,0.73,0.12,1.18c-0.03,0.44-0.1,0.88-0.2,1.33
		c-0.1,0.45-0.16,0.78-0.18,1.01c-0.09,0.59-0.15,1.21-0.17,1.84c-0.02,0.64-0.01,1.25,0.03,1.81c0.02,0.27,0.06,0.55,0.11,0.83
		c0.05,0.28,0.12,0.54,0.21,0.78c0.08,0.23,0.2,0.43,0.36,0.61c0.15,0.17,0.35,0.3,0.6,0.4c0.15,0.02,0.31,0.01,0.43-0.04
		c0.14-0.06,0.26-0.11,0.37-0.17c0.12-0.06,0.24-0.11,0.37-0.14c0.15-0.04,0.32-0.01,0.5,0.08l0.06,0.03v0.07
		c0,0.23-0.09,0.43-0.28,0.58c-0.17,0.14-0.38,0.25-0.62,0.33c-0.24,0.08-0.51,0.12-0.79,0.14C214.11,78.57,214.05,78.57,214,78.57
		 M197.62,74.1c0.02,0.22,0.08,0.44,0.16,0.66c0.07,0.2,0.19,0.3,0.37,0.33c0.09,0.01,0.2,0,0.33-0.04c0.14-0.05,0.27-0.11,0.4-0.18
		c0.13-0.07,0.25-0.14,0.36-0.22c0.11-0.07,0.18-0.12,0.23-0.16c0.25-0.21,0.46-0.5,0.63-0.86c0.17-0.36,0.3-0.76,0.39-1.19
		c0.09-0.42,0.13-0.85,0.13-1.26c0-0.34-0.04-0.64-0.13-0.9c-0.06,0.07-0.1,0.13-0.1,0.18c0,0.14-0.08,0.3-0.48,0.33
		c-0.25,0.02-0.4-0.02-0.49-0.13c-0.07-0.1-0.11-0.21-0.11-0.34c0-0.11,0.01-0.22,0.02-0.34c-0.15,0.21-0.3,0.45-0.46,0.7
		c-0.21,0.34-0.42,0.7-0.61,1.08c-0.18,0.37-0.34,0.76-0.46,1.16C197.68,73.31,197.62,73.7,197.62,74.1"/>
	<path class="st1" d="M215.94,78.23c-0.27,0-0.54-0.04-0.79-0.12c-0.37-0.11-0.58-0.31-0.63-0.58c-0.05-0.32,0.05-0.61,0.3-0.87
		c0.23-0.24,0.5-0.46,0.8-0.65c0.31-0.2,0.61-0.39,0.9-0.55c0.29-0.16,0.5-0.32,0.62-0.45l0.03-0.02l0.19-0.11
		c0.49-0.29,0.98-0.58,1.46-0.86c0.49-0.29,1.02-0.57,1.57-0.83c-0.29-0.29-0.67-0.6-1.12-0.92c-0.53-0.38-0.98-0.79-1.35-1.22
		c-0.38-0.44-0.58-0.92-0.6-1.42c-0.01-0.51,0.37-1.04,1.13-1.57c0.34-0.25,0.77-0.49,1.29-0.71c0.51-0.22,1.07-0.41,1.65-0.57
		c0.58-0.16,1.18-0.26,1.78-0.32c0.61-0.06,1.2-0.04,1.76,0.06l0.05,0.02c0.17,0.13,0.35,0.24,0.52,0.35
		c0.15,0.09,0.32,0.29,0.26,0.67c-0.08,0.24-0.2,0.41-0.38,0.54c-0.18,0.13-0.44,0.19-0.78,0.17h0c-0.15,0-0.27-0.02-0.36-0.08
		c-0.09-0.05-0.17-0.1-0.23-0.17c-0.06-0.06-0.11-0.12-0.16-0.18c-0.03-0.03-0.07-0.06-0.12-0.09c-0.99,0.13-1.89,0.35-2.67,0.65
		c-0.75,0.29-1.37,0.71-1.84,1.23c0.12,0.28,0.29,0.53,0.5,0.74c0.23,0.23,0.48,0.46,0.74,0.66c0.27,0.21,0.53,0.43,0.8,0.65
		c0.24,0.2,0.47,0.43,0.66,0.67l1.84-0.84c0.63-0.29,1.29-0.58,1.97-0.86c0.36-0.12,0.71-0.24,1.05-0.37
		c0.34-0.13,0.71-0.26,1.08-0.39c0.33-0.11,0.68-0.24,1.05-0.38c0.39-0.15,0.77-0.18,1.15-0.09l0.15,0.03l-0.07,0.14
		c-0.08,0.15-0.2,0.28-0.36,0.37c-0.15,0.09-0.32,0.16-0.51,0.22c-0.18,0.06-0.37,0.11-0.57,0.16c-0.19,0.05-0.38,0.1-0.55,0.17
		c-0.36,0.14-0.72,0.27-1.04,0.41c-0.35,0.15-0.69,0.28-0.99,0.39c-0.67,0.28-1.34,0.57-1.97,0.86c-0.61,0.27-1.2,0.57-1.77,0.89
		c0.08,0.17,0.14,0.35,0.16,0.56c0.02,0.23,0.06,0.46,0.1,0.67l0.01,0.03l-0.01,0.02c-0.09,0.39-0.24,0.73-0.44,1
		c-0.19,0.27-0.41,0.53-0.66,0.77l-0.02,0.02l-1.08,0.64c-0.39,0.23-0.82,0.45-1.28,0.64c-0.45,0.19-0.93,0.37-1.43,0.52
		c-0.49,0.15-1,0.24-1.52,0.27C216.12,78.23,216.03,78.23,215.94,78.23 M220.87,73.86c-0.89,0.5-1.77,1-2.64,1.5
		c-0.79,0.46-1.49,1.02-2.08,1.66c0.46-0.08,0.97-0.2,1.51-0.35c0.67-0.18,1.28-0.42,1.82-0.71c0.54-0.29,0.96-0.62,1.24-1.01
		C220.97,74.62,221.02,74.26,220.87,73.86"/>
</g>
<g>
</g>
<g>
</g>
<g>
</g>
<g>
</g>
<g>
</g>
<g>
</g>
</svg>
