<?xml version="1.0" encoding="utf-8"?>
<!-- Generator: Adobe Illustrator 26.1.0, SVG Export Plug-In . SVG Version: 6.00 Build 0)  -->
<svg version="1.1" id="Layer_1" xmlns="http://www.w3.org/2000/svg" xmlns:xlink="http://www.w3.org/1999/xlink" x="0px" y="0px"
	 viewBox="0 0 500 560" style="enable-background:new 0 0 500 560;" xml:space="preserve">
<style type="text/css">
	.st0{fill:#FFFFFF;}
	.st1{fill:#160E14;}
	.st2{fill:#010101;}
	.st3{fill:#FBBE4B;}
	.st4{fill:#F69C20;}
</style>
<g>
	<path class="st0" d="M254.65,506.88L252.8,557l-44.88-0.19c0,0-2.14-2.81,1.66-4.62c2.71-1.29,5.03-1.09,7.66-2.41
		c2.62-1.32,0.85-40.88,0.85-40.88L254.65,506.88z"/>
	<path class="st1" d="M252.8,558.14L252.8,558.14l-44.89-0.19c-0.36,0-0.69-0.17-0.91-0.45c-0.12-0.16-1.16-1.59-0.73-3.34
		c0.3-1.26,1.25-2.27,2.82-3.02c1.45-0.69,2.77-0.98,4.05-1.27c1.17-0.26,2.28-0.5,3.42-1.05c1.25-2.39,1.18-22,0.39-39.88
		c-0.03-0.63,0.45-1.16,1.08-1.2l36.56-2.02c0.33-0.02,0.64,0.1,0.87,0.33c0.23,0.23,0.35,0.54,0.34,0.86l-1.85,50.12
		C253.93,557.66,253.42,558.14,252.8,558.14z M208.6,555.66l43.1,0.18l1.76-47.75l-34.17,1.89c0.12,2.89,0.42,10.86,0.51,18.85
		c0.24,20.82-1.08,21.49-2.04,21.97c-1.46,0.73-2.81,1.03-4.12,1.32c-1.2,0.27-2.34,0.52-3.56,1.1c-0.63,0.3-1.41,0.8-1.58,1.49
		C208.42,555.05,208.5,555.4,208.6,555.66z"/>
</g>
<g>
	<path class="st2" d="M206.12,557.57l48.53,0.22l-0.53-17.73c-7.96,0.74-15.27,9.91-23.31,7.78c-4.62-1.2-8.67-6.09-13.11-5.9
		c-0.33,3.95-0.8,6.68-1.49,7.08c-2.84,1.58-5.36,1.37-8.29,2.9C203.8,554.17,206.12,557.57,206.12,557.57z"/>
</g>
<g>
	<path class="st0" d="M315.54,504.15l4.46,52.85l-44.88-0.19c0,0-2.14-2.81,1.66-4.62c2.71-1.29,5.03-1.09,7.66-2.41
		c2.62-1.32-5.46-43.61-5.46-43.61L315.54,504.15z"/>
	<path class="st1" d="M320.01,558.14L320.01,558.14l-44.89-0.19c-0.36,0-0.69-0.17-0.91-0.45c-0.12-0.16-1.16-1.59-0.73-3.34
		c0.3-1.26,1.25-2.27,2.82-3.02c1.45-0.69,2.77-0.98,4.05-1.27c1.15-0.25,2.23-0.49,3.35-1.02c0.88-2.85-2.23-23.62-5.84-42.48
		c-0.06-0.32,0.02-0.66,0.22-0.92c0.2-0.26,0.51-0.42,0.84-0.44l36.56-2.02c0.61-0.04,1.15,0.43,1.21,1.05l4.46,52.85
		c0.03,0.32-0.08,0.64-0.3,0.87C320.64,558.01,320.33,558.14,320.01,558.14z M275.81,555.66l42.95,0.18l-4.27-50.49l-34.14,1.89
		c0.59,3.15,2.14,11.6,3.48,20.06c3.52,22.3,2.19,22.97,1.13,23.5c-1.46,0.73-2.81,1.03-4.12,1.32c-1.2,0.27-2.34,0.52-3.56,1.1
		c-0.63,0.3-1.41,0.8-1.58,1.49C275.63,555.05,275.71,555.4,275.81,555.66z"/>
</g>
<g>
	<path class="st2" d="M273.33,557.57l48.53,0.22l-1.85-17.52c-7.96,0.74-13.95,9.71-21.99,7.57c-4.62-1.2-10.6-6.12-15.04-5.93
		c-0.33,3.96-0.8,6.7-1.49,7.11c-2.84,1.58-3.42,1.36-6.36,2.89C271,554.17,273.33,557.57,273.33,557.57z"/>
</g>
<g>
	<path class="st3" d="M299.56,230.32c0,0,15.78,3.36,20.48,13.09c4.7,9.74-20.82,87.63-20.82,87.63l-69.16-1.01
		c0,0,1.4-46.5,7.05-66.48c9.35-33.03,35.8-50.29,35.8-50.29L299.56,230.32z"/>
	<path class="st3" d="M299.22,332.13c-0.01,0-0.01,0-0.02,0l-69.16-1.01c-0.29,0-0.57-0.12-0.77-0.33c-0.2-0.21-0.31-0.49-0.3-0.78
		c0.06-1.9,1.46-46.86,7.09-66.74c9.35-33.04,35.98-50.73,36.25-50.9c0.36-0.23,0.82-0.23,1.17-0.01l26.49,16.95
		c1.95,0.44,16.39,4.02,21.04,13.64c4.75,9.85-18.14,80.42-20.76,88.44C300.1,331.83,299.69,332.13,299.22,332.13z M231.18,328.97
		l67.26,0.98c7.21-22.11,24.28-78.49,20.62-86.07c-4.41-9.14-19.58-12.47-19.73-12.51c-0.13-0.03-0.25-0.08-0.36-0.15l-26.05-16.67
		c-3.88,2.74-26.41,19.72-34.78,49.29C233.07,281.78,231.43,321.83,231.18,328.97z"/>
</g>
<g>
	<path class="st1" d="M295.45,218.92c-4.5,0-9.15-1.79-12.79-5.33c-6.97-6.78-7.62-17.46-1.45-23.8c6.17-6.34,16.86-5.98,23.83,0.8
		c6.97,6.78,7.62,17.46,1.45,23.8C303.54,217.41,299.56,218.92,295.45,218.92z M292.25,187.41c-3.55,0-6.97,1.28-9.49,3.88
		c-5.34,5.49-4.71,14.79,1.41,20.74c6.12,5.95,15.44,6.33,20.77,0.84h0c5.34-5.49,4.71-14.79-1.41-20.74
		C300.31,189,296.2,187.41,292.25,187.41z"/>
</g>
<g>
	<path class="st0" d="M310.68,210.94c1.54-1.61,1.51-4.19-0.06-5.76c-1.57-1.57-4.08-1.53-5.61,0.09c-1.53,1.61-1.51,4.19,0.06,5.76
		C306.64,212.59,309.15,212.55,310.68,210.94z"/>
	<path class="st1" d="M307.83,213.26c-1.33,0-2.57-0.52-3.52-1.47c-1.97-1.97-2.01-5.24-0.08-7.27c0.95-1,2.22-1.56,3.58-1.57
		c0.02,0,0.04,0,0.06,0c1.33,0,2.58,0.52,3.52,1.47c1.97,1.97,2.01,5.23,0.08,7.27l0,0c-0.94,1-2.21,1.55-3.57,1.57
		C307.87,213.26,307.85,213.26,307.83,213.26z M307.87,205.11c-0.01,0-0.02,0-0.03,0c-0.77,0.01-1.5,0.33-2.04,0.9
		c-1.13,1.19-1.11,3.1,0.04,4.25c0.55,0.55,1.26,0.82,2.03,0.83c0.77-0.01,1.49-0.33,2.03-0.9l0,0c1.13-1.19,1.11-3.09-0.04-4.25
		C309.32,205.41,308.61,205.11,307.87,205.11z"/>
</g>
<g>
	<path class="st0" d="M292.25,217.32c-2.64-0.79-7.12-2.48-7.12-2.48c-0.62,0.77-5.44,10.25-5.44,10.25s-0.7,5.68,7.37,7.75
		c8.06,2.07,11.36-2.41,11.36-2.41l3.64-13.01C302.07,217.42,294.9,218.11,292.25,217.32z"/>
	<path class="st1" d="M291.13,234.47c-1.28,0-2.72-0.17-4.33-0.58c-8.88-2.28-8.18-8.86-8.17-8.93c0.02-0.13,0.05-0.25,0.11-0.36
		c1.14-2.25,4.93-9.64,5.57-10.43c0.29-0.36,0.79-0.5,1.22-0.33c0.04,0.02,4.47,1.68,7.04,2.46h0c2,0.6,7.46,0.25,9.4,0.06
		c0.36-0.04,0.7,0.11,0.93,0.38c0.23,0.27,0.31,0.64,0.21,0.99l-3.64,13.01c-0.04,0.13-0.09,0.25-0.17,0.35
		C299.17,231.24,296.71,234.47,291.13,234.47z M280.76,225.38c-0.02,0.86,0.24,4.79,6.57,6.41c6.49,1.66,9.5-1.19,10.11-1.87
		l3.16-11.29c-2.34,0.16-6.6,0.35-8.66-0.27c-1.98-0.59-4.92-1.66-6.35-2.19C284.7,217.74,282.62,221.73,280.76,225.38z"/>
</g>
<g>
	<path class="st2" d="M303.69,206.44c1.16,1.66-0.84-1.73-1.58-2.5c-2.48-2.61-5.31-5.29-8.01-7.71c-6.38-5.72-20.6-22.63-4.29-28
		c8.81-2.9,6.36,7.5,11.71,9.56c3.5,1.35,7.24-1.69,10.3-0.36c8.54,3.71,4,10.53,7.9,16.57c1.92,2.98,6.77,4.41,4.8,8.95
		c-1.99,4.57-13.17,12.99-18.06,12.65c-2.62-0.19,5.56-5.47,4.85-8.21C310.02,202.36,303.07,205.56,303.69,206.44z"/>
</g>
<g>
	<path class="st2" d="M300.92,201.62c-0.14-0.07-0.53,3.53-1.03,4.36c-1.68,2.81-3.42,3.75-6.46,4.52
		c-3.25,0.81-10.59-6.73-14.47-7.7c-2.88-0.72-12.7,8.97-11.08,12.21c7.49,14.99,37.34,15.81,41.76-1.85
		c0.41-1.61-5.08-0.22-5.75-2.87C302.46,204.53,307.21,204.84,300.92,201.62z"/>
</g>
<g>
	<path class="st2" d="M214.43,256.7l18.93-10.86c0,0,22.55,33.97,35.08,32.3c14.1-1.88,17.79-55.09,45.38-43.71
		c31.74,13.09-14.2,88.26-45.38,87.7C237.26,321.57,214.43,256.7,214.43,256.7z"/>
</g>
<g>
	<path class="st2" d="M254.81,229.41l-17.26-70.72l-3.9-82.97l20.33-2.23l12.25,69.88l15.03,48.17c-3.22,8.5-2.96,12.36-2.96,12.36
		l-1.86,7.32L254.81,229.41z"/>
</g>
<g>
	<path class="st0" d="M250.88,75.01c0,0,6.35-18.32,6.18-22.32c-0.17-4-7.19,8.79-7.19,8.79s2.57-23.09,0.17-23.53
		c-2.39-0.44-4.32,17.3-4.32,17.3s-0.93-21.16-3.68-20.25c-2.75,0.91-0.98,20.22-0.98,20.22s-3.85-17.22-6.17-16.64
		c-2.32,0.58,2.09,18.04,2.09,18.04s-4.74-11.71-6.79-10.89c-2.06,0.81,3.01,16.65,3.01,16.65l2.38,13.06L250.88,75.01z"/>
	<path class="st1" d="M235.58,76.52c-0.52,0-0.97-0.37-1.06-0.89l-2.37-12.99c-5.34-16.74-3.17-17.6-2.35-17.92
		c0.52-0.21,1.77-0.7,4.16,3.13c-0.73-4.09-1.17-8.17-0.35-9.53c0.31-0.52,0.73-0.72,1.02-0.79c0.3-0.07,0.77-0.1,1.29,0.22
		c1.18,0.73,2.43,3.73,3.51,7.09c-0.12-8.84,1.02-10.46,2.27-10.88c0.5-0.16,1.01-0.09,1.46,0.22c1.47,1.01,2.37,5.98,2.92,11.1
		c0.72-3.74,1.69-7.21,2.86-8.09c0.5-0.37,0.98-0.38,1.29-0.33c1.33,0.24,2.38,1.4,1.7,13.06c-0.14,2.34-0.33,4.69-0.5,6.66
		c3.78-6.14,4.93-5.88,5.54-5.73c0.41,0.1,1.12,0.46,1.17,1.77c0.18,4.09-5.58,20.83-6.24,22.72c-0.15,0.42-0.54,0.71-0.99,0.73
		l-15.3,0.42C235.6,76.52,235.59,76.52,235.58,76.52z M250.88,75.01L250.88,75.01L250.88,75.01z M230.76,47.11
		c-0.09,2.27,1.61,9.12,3.47,14.94c0.01,0.04,0.03,0.09,0.03,0.14l2.22,12.14l13.63-0.37c1.7-4.95,5.19-15.71,5.79-20.01
		c-1.31,1.65-3.41,5.02-5.08,8.06c-0.25,0.45-0.78,0.67-1.28,0.51c-0.49-0.16-0.81-0.64-0.75-1.15c0.96-8.63,1.52-18.53,0.98-21.67
		c-1.05,2.38-2.3,9.46-2.97,15.68c-0.06,0.55-0.53,0.96-1.08,0.96c-0.01,0-0.02,0-0.04,0c-0.57-0.02-1.02-0.47-1.05-1.03
		c-0.34-7.75-1.33-16.62-2.42-18.88c-0.88,2.25-0.79,11.03-0.08,18.7c0.05,0.57-0.35,1.08-0.91,1.17c-0.56,0.09-1.1-0.28-1.22-0.83
		c-1.37-6.13-3.41-13.06-4.71-15.23c-0.18,2.57,1.16,9.87,2.74,16.14c0.14,0.55-0.17,1.12-0.71,1.29c-0.54,0.18-1.13-0.09-1.34-0.62
		C234.15,52.5,231.94,48.34,230.76,47.11z"/>
</g>
<g>
	<path class="st0" d="M166.22,219.2l6.7-0.62c0,0,12.22,23.26,34,20.88c21.11-2.3,26.21-25.28,26.21-25.28l6.89-0.59
		c0,0-7.63,30.67-31.72,32.47C178.77,248.27,166.22,219.2,166.22,219.2z"/>
	<path class="st1" d="M205.18,247.26c-13.97,0-23.82-6.96-29.77-13.05c-6.89-7.05-10.05-14.28-10.18-14.59
		c-0.14-0.32-0.11-0.68,0.06-0.98c0.18-0.3,0.49-0.49,0.83-0.53l6.7-0.62c0.44-0.04,0.85,0.19,1.06,0.57
		c0.12,0.23,12.14,22.59,32.93,20.31c20.1-2.19,25.22-24.21,25.27-24.43c0.1-0.46,0.49-0.8,0.96-0.84l6.89-0.59
		c0.35-0.03,0.69,0.11,0.92,0.38c0.23,0.27,0.31,0.62,0.23,0.96c-0.08,0.31-8.11,31.45-32.69,33.28
		C207.3,247.22,206.23,247.26,205.18,247.26z M167.89,220.13c2.93,5.64,15.58,26.69,40.35,24.85c20.05-1.5,28.43-24.13,30.32-30.17
		l-4.56,0.39c-1.16,4.12-7.57,23.23-26.95,25.34c-1.09,0.12-2.15,0.17-3.19,0.17c-18.29,0-29.43-17.41-31.53-20.99L167.89,220.13z"
		/>
</g>
<g>
	<path class="st0" d="M215.38,257.16c0,0-15.2-12.01-14.3-17.38c0.9-5.37,16.21-16.27,21.11-15.01c4.91,1.26,5.09,7.1,5.09,7.1
		l7.11-7.19c0.65-0.07,1.89,5.66,1.89,10.1c0,5.66-2.62,11.98-2.62,11.98L215.38,257.16z"/>
	<path class="st1" d="M215.38,258.24c-0.24,0-0.48-0.08-0.67-0.23c-1.61-1.27-15.68-12.57-14.7-18.41
		c0.59-3.54,6.03-8.49,11.16-11.83c2.3-1.5,8.01-4.89,11.29-4.05c3.3,0.85,4.89,3.58,5.54,5.88l5.62-5.69
		c0.17-0.18,0.4-0.29,0.65-0.31c0.35-0.04,0.7,0.07,0.98,0.32c1.21,1.08,2.12,7.33,2.12,10.86c0,5.81-2.59,12.12-2.7,12.39
		c-0.09,0.22-0.26,0.41-0.46,0.53l-18.28,10.4C215.75,258.2,215.57,258.24,215.38,258.24z M221.28,225.75
		c-1.86,0-5.24,1.44-8.93,3.84c-5.42,3.53-9.81,7.99-10.2,10.37c-0.56,3.34,7.65,11.32,13.34,15.9l17.31-9.85
		c0.52-1.36,2.4-6.57,2.4-11.22c0-3.17-0.61-6.58-1.09-8.28l-6.06,6.14c-0.31,0.31-0.76,0.4-1.17,0.25
		c-0.4-0.16-0.67-0.54-0.69-0.97c-0.01-0.2-0.23-5.04-4.28-6.09C221.74,225.77,221.52,225.75,221.28,225.75z"/>
</g>
<g>
	<path class="st2" d="M231.1,330.76c0,0-12.6,80.76-14.45,101.5c-1.85,20.75,0.18,96.51,0.18,96.51l39.53,0.44l5.92-93.84
		l15.28,93.3l44.29-0.27l-21.11-196.9L231.1,330.76z"/>
</g>
<g>
	<path class="st0" d="M319.46,518.88C319.46,518.88,319.46,518.88,319.46,518.88l-40.26-0.29c-0.6,0-1.08-0.49-1.07-1.09
		c0-0.6,0.49-1.05,1.09-1.07l40.25,0.29c0.6,0,1.08,0.49,1.07,1.09C320.54,518.4,320.05,518.88,319.46,518.88z"/>
</g>
<g>
	<path class="st0" d="M256.03,517.14h-37.94c-0.6,0-1.08-0.48-1.08-1.08c0-0.6,0.48-1.08,1.08-1.08h37.94c0.6,0,1.08,0.48,1.08,1.08
		C257.12,516.66,256.63,517.14,256.03,517.14z"/>
</g>
<g>
	<path class="st0" d="M261.38,437.85c-0.55,0-1.02-0.41-1.08-0.97l-5.2-50.67l-8.15-13.72c-0.3-0.51-0.14-1.18,0.38-1.48
		c0.52-0.3,1.18-0.14,1.48,0.38l8.27,13.92c0.08,0.13,0.13,0.29,0.15,0.44l5.22,50.9c0.06,0.59-0.37,1.13-0.97,1.19
		C261.45,437.85,261.41,437.85,261.38,437.85z"/>
</g>
<g>
	<path class="st4" d="M154.61,41.65L78.43,224.57l161.33-10.75l16.48-42.66L154.61,41.65z"/>
	<path class="st4" d="M78.43,225.65c-0.35,0-0.68-0.17-0.88-0.45c-0.22-0.3-0.26-0.7-0.12-1.05l76.19-182.91
		c0.15-0.35,0.47-0.6,0.85-0.66c0.38-0.05,0.76,0.1,1,0.4l101.63,129.5c0.24,0.3,0.3,0.7,0.16,1.06l-16.48,42.66
		c-0.15,0.39-0.52,0.66-0.94,0.69L78.5,225.65C78.48,225.65,78.45,225.65,78.43,225.65z M154.9,43.77l-74.8,179.6L239,212.78
		l16.01-41.45L154.9,43.77z"/>
</g>
<g>
	<path class="st0" d="M256.17,172.72l15.47,8.44l-14.28,36.63l-17.34-3.11L256.17,172.72z"/>
	<path class="st1" d="M257.36,218.88c-0.06,0-0.13-0.01-0.19-0.02l-17.34-3.11c-0.32-0.06-0.59-0.25-0.75-0.53
		c-0.16-0.28-0.18-0.62-0.07-0.92l16.14-41.96c0.11-0.29,0.34-0.52,0.64-0.63c0.29-0.11,0.62-0.08,0.89,0.07l15.47,8.44
		c0.48,0.26,0.69,0.84,0.49,1.34l-14.28,36.63C258.21,218.61,257.8,218.88,257.36,218.88z M241.5,213.85l15.18,2.72l13.61-34.92
		l-13.55-7.4L241.5,213.85z"/>
</g>
<g>
	<path class="st1" d="M132.93,66.12c-0.29,0-0.58-0.12-0.79-0.35L75.13,4.1c-0.41-0.44-0.38-1.12,0.06-1.53
		c0.44-0.41,1.12-0.38,1.53,0.06l57.01,61.67c0.41,0.44,0.38,1.12-0.06,1.53C133.46,66.02,133.19,66.12,132.93,66.12z"/>
</g>
<g>
	<path class="st1" d="M107.2,100.73c-0.21,0-0.42-0.06-0.6-0.18L43.12,58.13c-0.5-0.33-0.63-1-0.3-1.5c0.33-0.5,1-0.63,1.5-0.3
		l63.48,42.42c0.5,0.33,0.63,1,0.3,1.5C107.89,100.56,107.55,100.73,107.2,100.73z"/>
</g>
<g>
	<path class="st1" d="M88.91,138.82c-0.14,0-0.29-0.03-0.43-0.09L22.6,110.13c-0.55-0.24-0.8-0.88-0.56-1.42
		c0.24-0.55,0.87-0.8,1.42-0.56l65.88,28.59c0.55,0.24,0.8,0.88,0.56,1.42C89.73,138.58,89.33,138.82,88.91,138.82z"/>
</g>
<g>
	<path class="st1" d="M71.88,190.64c-0.08,0-0.16-0.01-0.24-0.03l-67-14.98c-0.58-0.13-0.95-0.71-0.82-1.29
		c0.13-0.58,0.71-0.95,1.29-0.82l67,14.98c0.58,0.13,0.95,0.71,0.82,1.29C72.83,190.3,72.38,190.64,71.88,190.64z"/>
</g>
<g>
	<path class="st1" d="M94.66,220.03c-0.14,0-0.28-0.03-0.42-0.08c-0.55-0.23-0.81-0.86-0.58-1.42l67.41-161.87
		c0.23-0.55,0.86-0.81,1.42-0.58c0.55,0.23,0.81,0.86,0.58,1.42L95.66,219.36C95.49,219.78,95.09,220.03,94.66,220.03z"/>
</g>
<g>
	<path class="st1" d="M179.57,90.86c-0.32,0-0.64-0.14-0.86-0.42l-9.31-12.04c-0.37-0.47-0.28-1.15,0.19-1.52
		c0.47-0.37,1.15-0.28,1.52,0.19l9.31,12.04c0.37,0.47,0.28,1.15-0.19,1.52C180.03,90.78,179.8,90.86,179.57,90.86z"/>
</g>
<g>
	<path class="st1" d="M238.69,162.68c-0.32,0-0.63-0.14-0.85-0.41L187.89,99.9c-0.37-0.47-0.3-1.15,0.17-1.52
		c0.47-0.37,1.15-0.3,1.52,0.17l49.95,62.38c0.37,0.47,0.3,1.15-0.17,1.52C239.17,162.6,238.93,162.68,238.69,162.68z"/>
</g>
<g>
	<path class="st1" d="M4.64,557.3c-0.18,0-0.29,0-0.3,0c-0.36-0.01-0.7-0.16-0.95-0.42c-0.24-0.26-0.37-0.62-0.35-0.98
		c0.01-0.18,1.17-18.48,7.61-42.23c5.95-21.94,17.75-53.2,40.22-77.48c22.46-24.28,52.29-38.4,73.36-45.97
		c22.81-8.19,40.58-10.69,40.75-10.72c0.39-0.05,0.77,0.07,1.06,0.32c0.29,0.26,0.45,0.63,0.44,1.02
		c-0.01,0.49-1.69,49.68-40.81,113.21c-20.57,33.39-52.46,48.81-75.6,55.86C26.69,557.04,7.27,557.3,4.64,557.3z M163.75,382.37
		c-4.82,0.8-20.04,3.66-38.69,10.36c-20.77,7.47-50.17,21.38-72.25,45.26c-22.1,23.89-33.74,54.72-39.61,76.38
		c-5.35,19.72-7.01,35.59-7.41,40.28c4.99-0.09,22.67-0.89,43.58-7.28c22.67-6.93,53.93-22.04,74.04-54.7
		C158.25,436.12,163.11,391.24,163.75,382.37z"/>
</g>
<g>
	<path class="st1" d="M7.05,555.71c-0.32,0-0.64-0.12-0.9-0.35c-0.54-0.5-0.58-1.35-0.08-1.89l156.22-171.4
		c0.5-0.54,1.34-0.58,1.88-0.08c0.54,0.5,0.58,1.35,0.08,1.89L8.03,555.27C7.77,555.56,7.41,555.71,7.05,555.71z"/>
</g>
<g>
	<path class="st1" d="M59.93,498.71c-0.79,0-1.44-0.45-1.44-1.01c0-0.56,0.64-1.01,1.44-1.01l61.53-0.09c0,0,0,0,0,0
		c0.79,0,1.44,0.45,1.44,1.01c0,0.56-0.64,1.01-1.44,1.01L59.93,498.71C59.93,498.71,59.93,498.71,59.93,498.71z"/>
</g>
<g>
	<path class="st1" d="M129.59,484.68c-0.05,0-0.09,0-0.14-0.01l-53.3-4.45c-0.8-0.07-1.39-0.71-1.32-1.44
		c0.07-0.73,0.8-1.25,1.59-1.2l53.3,4.45c0.8,0.07,1.39,0.71,1.32,1.44C130.97,484.17,130.33,484.68,129.59,484.68z"/>
</g>
<g>
	<path class="st1" d="M102.82,450.67c-0.66,0-1.21-0.51-1.25-1.19l-3.12-46.6c-0.05-0.7,0.48-1.31,1.17-1.35
		c0.7-0.06,1.29,0.48,1.34,1.18l3.12,46.6c0.05,0.7-0.48,1.31-1.17,1.35C102.88,450.67,102.85,450.67,102.82,450.67z"/>
</g>
<g>
	<path class="st1" d="M40.46,517.49c-0.58,0-1.1-0.41-1.22-1.01l-9.77-48.94c-0.14-0.68,0.3-1.35,0.97-1.49
		c0.67-0.14,1.33,0.3,1.47,0.99l9.77,48.94c0.14,0.68-0.3,1.35-0.97,1.49C40.63,517.48,40.54,517.49,40.46,517.49z"/>
</g>
<g>
	<path class="st1" d="M455.33,265.2c-0.42,0-0.84-0.16-1.16-0.49c-0.63-0.64-0.63-1.68,0.01-2.31l22.19-21.94
		c0.64-0.64,1.68-0.63,2.31,0.01c0.63,0.64,0.63,1.68-0.01,2.31l-22.19,21.94C456.16,265.04,455.74,265.2,455.33,265.2z"/>
</g>
<g>
	<path class="st1" d="M345.75,373.66c-0.42,0-0.84-0.16-1.16-0.48c-0.63-0.64-0.63-1.68,0.01-2.31l89.12-88.17
		c0.64-0.63,1.68-0.63,2.31,0.01c0.63,0.64,0.63,1.68-0.01,2.31l-89.12,88.17C346.58,373.5,346.17,373.66,345.75,373.66z"/>
</g>
<g>
	<path class="st1" d="M405.46,349.37c-0.42,0-0.84-0.16-1.16-0.48c-0.63-0.64-0.63-1.68,0.01-2.31l89.13-88.17
		c0.64-0.63,1.68-0.63,2.31,0.01c0.63,0.64,0.63,1.68-0.01,2.31l-89.13,88.17C406.3,349.22,405.88,349.37,405.46,349.37z"/>
</g>
<g>
	<path class="st1" d="M50.1,385c-0.42,0-0.84-0.16-1.16-0.48c-0.63-0.64-0.63-1.68,0.01-2.31l89.12-88.17
		c0.64-0.63,1.68-0.63,2.31,0.01c0.63,0.64,0.63,1.68-0.01,2.31l-89.12,88.17C50.93,384.84,50.52,385,50.1,385z"/>
</g>
<g>
	<path class="st1" d="M405.46,488.95c-11.68,0-21.18-9.5-21.18-21.18s9.5-21.18,21.18-21.18s21.18,9.5,21.18,21.18
		S417.14,488.95,405.46,488.95z M405.46,449.23c-10.22,0-18.54,8.32-18.54,18.54s8.32,18.54,18.54,18.54
		c10.22,0,18.54-8.32,18.54-18.54S415.69,449.23,405.46,449.23z"/>
</g>
<g>
</g>
<g>
</g>
<g>
</g>
<g>
</g>
<g>
</g>
<g>
</g>
</svg>
