<?xml version="1.0" encoding="utf-8"?>
<!-- Generator: Adobe Illustrator 26.1.0, SVG Export Plug-In . SVG Version: 6.00 Build 0)  -->
<svg version="1.1" id="Layer_1" xmlns="http://www.w3.org/2000/svg" xmlns:xlink="http://www.w3.org/1999/xlink" x="0px" y="0px"
	 viewBox="0 0 440 55" style="enable-background:new 0 0 440 55;" xml:space="preserve">
<style type="text/css">
	.st0{fill:#141717;}
</style>
<g>
	<g>
		<path class="st0" d="M13.35,35.09h15.13v2.93H10.05V5.56h3.3V35.09z"/>
		<path class="st0" d="M52.74,28.12H34.95c0.09,4.31,3.44,7.79,7.84,7.79c3.21,0,5.69-1.79,6.88-3.71L52,34.03
			c-2.52,3.21-5.69,4.54-9.22,4.54c-6.37,0-11.1-4.81-11.1-11.28s4.72-11.28,10.82-11.28c6.74,0,10.27,4.77,10.27,10.64
			C52.78,27.06,52.78,27.57,52.74,28.12z M49.62,25.64c-0.18-4.04-2.66-7.02-7.11-7.02c-4.17,0-7.24,3.35-7.52,7.02H49.62z"/>
		<path class="st0" d="M73,24.18c0-3.71-2.02-5.55-5.73-5.55c-2.52,0-4.86,1.01-6.37,2.52l-1.74-2.06c1.74-1.74,4.77-3.07,8.44-3.07
			c4.63,0,8.35,2.57,8.35,7.79v9.4c0,1.65,0.14,3.62,0.37,4.81h-2.8c-0.18-1.05-0.32-2.34-0.32-3.48h-0.09
			c-1.97,2.84-4.36,4.03-7.79,4.03c-3.26,0-7.43-1.74-7.43-6.51c0-6.6,7.29-7.2,15.13-7.2V24.18z M72.08,27.29
			c-5.09,0-11,0.55-11,4.63c0,3.07,2.61,4.08,5.04,4.08c4.4,0,6.88-3.3,6.88-7.11v-1.6H72.08z"/>
		<path class="st0" d="M92.76,38.02h-3.44l-8.76-21.46h3.49l6.97,18.16h0.09l7.02-18.16h3.35L92.76,38.02z"/>
		<path class="st0" d="M125.81,28.12h-17.79c0.09,4.31,3.44,7.79,7.84,7.79c3.21,0,5.69-1.79,6.88-3.71l2.34,1.83
			c-2.52,3.21-5.69,4.54-9.22,4.54c-6.37,0-11.1-4.81-11.1-11.28s4.72-11.28,10.82-11.28c6.74,0,10.27,4.77,10.27,10.64
			C125.86,27.06,125.86,27.57,125.81,28.12z M122.7,25.64c-0.18-4.04-2.66-7.02-7.11-7.02c-4.17,0-7.24,3.35-7.52,7.02H122.7z"/>
		<path class="st0" d="M151.4,34.68h0.09l6.65-18.11h3.39l-10.68,27.01c-1.28,3.3-3.03,5.46-6.74,5.46c-0.92,0-1.88-0.09-2.8-0.28
			l0.32-2.84c0.69,0.23,1.47,0.37,2.29,0.37c2.11,0,3.21-1.38,4.13-3.81l1.74-4.49l-9.17-21.41h3.49L151.4,34.68z"/>
		<path class="st0" d="M176.24,38.57c-6.65,0-11.42-4.81-11.42-11.28s4.77-11.28,11.42-11.28c6.69,0,11.46,4.81,11.46,11.28
			S182.94,38.57,176.24,38.57z M176.24,18.63c-4.95,0-8.12,3.85-8.12,8.67s3.16,8.62,8.12,8.62c5,0,8.16-3.81,8.16-8.62
			S181.24,18.63,176.24,18.63z"/>
		<path class="st0" d="M209.99,38.02c-0.09-1.15-0.18-2.75-0.18-3.67h-0.09c-1.19,2.48-4.31,4.22-7.34,4.22
			c-5.46,0-8.16-3.53-8.16-8.85V16.56h3.12v11.88c0,4.49,1.33,7.52,5.82,7.52c3.3,0,6.51-2.66,6.51-8.39v-11h3.12V33.3
			c0,1.15,0.05,3.25,0.18,4.72H209.99z"/>
		<path class="st0" d="M220.85,16.56h2.98c0.09,1.15,0.18,2.75,0.18,3.67h0.09c1.19-2.48,3.85-4.22,6.88-4.22
			c0.78,0,1.42,0.04,2.06,0.23l-0.41,2.93c-0.37-0.14-1.38-0.27-2.2-0.27c-3.3,0-6.28,2.38-6.28,8.12v11h-3.12V21.29
			C221.04,20.14,220.99,18.03,220.85,16.56z"/>
		<path class="st0" d="M259.13,16.01c2.34,0,5.18,0.87,6.6,4.54c1.47-2.93,4.08-4.54,7.52-4.54c5.46,0,8.16,3.53,8.16,8.85v13.16
			h-3.12V26.15c0-4.49-1.51-7.52-5.55-7.52c-4.49,0-6.1,3.99-6.1,7.98v11.42h-3.12V25.51c0-4.17-1.01-6.88-5.18-6.88
			c-2.98,0-6.23,2.66-6.23,8.39v11H249V21.29c0-1.15-0.04-3.26-0.18-4.72h2.98c0.09,1.15,0.18,2.75,0.18,3.67h0.09
			C253.31,17.76,256.06,16.01,259.13,16.01z"/>
		<path class="st0" d="M308.97,28.12h-17.79c0.09,4.31,3.44,7.79,7.84,7.79c3.21,0,5.69-1.79,6.88-3.71l2.34,1.83
			c-2.52,3.21-5.69,4.54-9.22,4.54c-6.37,0-11.1-4.81-11.1-11.28s4.72-11.28,10.82-11.28c6.74,0,10.27,4.77,10.27,10.64
			C309.02,27.06,309.02,27.57,308.97,28.12z M305.85,25.64c-0.18-4.04-2.66-7.02-7.11-7.02c-4.17,0-7.24,3.35-7.52,7.02H305.85z"/>
		<path class="st0" d="M327.12,21.65c-0.92-1.79-2.89-3.03-5.27-3.03c-2.25,0-4.54,0.96-4.54,3.35c0,2.02,1.61,2.93,5.14,3.67
			c5.04,1.05,7.43,2.93,7.43,6.28c0,4.91-4.13,6.65-8.07,6.65c-3.26,0-6.51-1.28-8.48-4.17l2.48-1.83c1.1,1.88,3.44,3.35,5.96,3.35
			c2.66,0,5.04-0.96,5.04-3.76c0-2.25-2.25-3.16-6.33-4.13c-2.52-0.6-6.14-1.7-6.14-5.78c0-4.36,3.76-6.24,7.66-6.24
			c2.98,0,6.14,1.42,7.52,3.85L327.12,21.65z"/>
		<path class="st0" d="M347.48,21.65c-0.92-1.79-2.89-3.03-5.27-3.03c-2.25,0-4.54,0.96-4.54,3.35c0,2.02,1.61,2.93,5.13,3.67
			c5.04,1.05,7.43,2.93,7.43,6.28c0,4.91-4.12,6.65-8.07,6.65c-3.26,0-6.51-1.28-8.48-4.17l2.48-1.83c1.1,1.88,3.44,3.35,5.96,3.35
			c2.66,0,5.04-0.96,5.04-3.76c0-2.25-2.25-3.16-6.33-4.13c-2.52-0.6-6.14-1.7-6.14-5.78c0-4.36,3.76-6.24,7.66-6.24
			c2.98,0,6.14,1.42,7.52,3.85L347.48,21.65z"/>
		<path class="st0" d="M369.94,24.18c0-3.71-2.02-5.55-5.73-5.55c-2.52,0-4.86,1.01-6.37,2.52l-1.74-2.06
			c1.74-1.74,4.77-3.07,8.44-3.07c4.63,0,8.35,2.57,8.35,7.79v9.4c0,1.65,0.14,3.62,0.37,4.81h-2.8c-0.18-1.05-0.32-2.34-0.32-3.48
			h-0.09c-1.97,2.84-4.36,4.03-7.79,4.03c-3.26,0-7.43-1.74-7.43-6.51c0-6.6,7.29-7.2,15.13-7.2V24.18z M369.03,27.29
			c-5.09,0-11,0.55-11,4.63c0,3.07,2.61,4.08,5.04,4.08c4.4,0,6.88-3.3,6.88-7.11v-1.6H369.03z"/>
		<path class="st0" d="M382.04,42.33c1.7,2.2,4.95,3.94,8.21,3.94c6.14,0,8.39-3.81,8.39-8.44V33.8h-0.09
			c-1.65,2.66-5,4.22-8.12,4.22c-6.69,0-11.1-4.63-11.1-10.91c0-6.1,4.4-11.1,11.1-11.1c3.12,0,6.42,1.51,8.12,4.26h0.09v-3.71h3.12
			v21.28c0,4.68-2.15,11.19-11.65,11.19c-3.94,0-7.79-1.65-10.32-4.31L382.04,42.33z M390.76,35.36c4.81,0,8.25-3.39,8.25-8.35
			c0-4.49-3.44-8.39-8.25-8.39c-5.18,0-8.12,3.9-8.12,8.39C382.64,31.51,385.58,35.36,390.76,35.36z"/>
		<path class="st0" d="M429.36,28.12h-17.79c0.09,4.31,3.44,7.79,7.84,7.79c3.21,0,5.69-1.79,6.88-3.71l2.34,1.83
			c-2.52,3.21-5.69,4.54-9.22,4.54c-6.37,0-11.1-4.81-11.1-11.28s4.72-11.28,10.82-11.28c6.74,0,10.27,4.77,10.27,10.64
			C429.41,27.06,429.41,27.57,429.36,28.12z M426.24,25.64c-0.18-4.04-2.66-7.02-7.11-7.02c-4.17,0-7.24,3.35-7.52,7.02H426.24z"/>
	</g>
</g>
<g>
</g>
<g>
</g>
<g>
</g>
<g>
</g>
<g>
</g>
<g>
</g>
</svg>
