<?xml version="1.0" encoding="utf-8"?>
<!-- Generator: Adobe Illustrator 26.1.0, SVG Export Plug-In . SVG Version: 6.00 Build 0)  -->
<svg version="1.1" id="Layer_1" xmlns="http://www.w3.org/2000/svg" xmlns:xlink="http://www.w3.org/1999/xlink" x="0px" y="0px"
	 viewBox="0 0 375 60" style="enable-background:new 0 0 375 60;" xml:space="preserve">
<style type="text/css">
	.st0{fill:#141717;}
</style>
<g>
	<g>
		<path class="st0" d="M20.95,43.97H17.1V27.64L2.9,6.05h4.82l11.41,18.37L30.65,6.05h4.5L20.95,27.64V43.97z"/>
		<path class="st0" d="M51.48,44.61c-7.77,0-13.34-5.62-13.34-13.17c0-7.55,5.57-13.18,13.34-13.18c7.82,0,13.39,5.62,13.39,13.18
			C64.87,38.99,59.3,44.61,51.48,44.61z M51.48,21.31c-5.78,0-9.48,4.5-9.48,10.12c0,5.62,3.7,10.07,9.48,10.07
			c5.84,0,9.53-4.45,9.53-10.07C61.02,25.81,57.32,21.31,51.48,21.31z"/>
		<path class="st0" d="M90.91,43.97c-0.11-1.34-0.21-3.21-0.21-4.28h-0.11c-1.39,2.89-5.03,4.93-8.57,4.93
			c-6.37,0-9.53-4.12-9.53-10.34V18.9h3.64v13.87c0,5.25,1.55,8.78,6.8,8.78c3.86,0,7.61-3.11,7.61-9.8V18.9h3.64v19.55
			c0,1.34,0.05,3.8,0.21,5.52H90.91z"/>
		<path class="st0" d="M103.6,18.9h3.48c0.11,1.34,0.21,3.21,0.21,4.29h0.11c1.39-2.89,4.5-4.93,8.03-4.93
			c0.91,0,1.66,0.05,2.41,0.27l-0.48,3.43c-0.43-0.16-1.61-0.32-2.57-0.32c-3.86,0-7.34,2.79-7.34,9.48v12.85h-3.64V24.42
			C103.82,23.08,103.77,20.62,103.6,18.9z"/>
		<path class="st0" d="M155.45,37.44h0.05L168.2,6.05h5.89v37.92h-3.86V11.03h-0.11l-13.71,32.94h-2.04l-13.71-32.94h-0.11v32.94
			h-3.86V6.05h5.89L155.45,37.44z"/>
		<path class="st0" d="M206.71,32.4h-20.78c0.11,5.03,4.02,9.1,9.16,9.1c3.75,0,6.64-2.09,8.03-4.34l2.73,2.14
			c-2.95,3.75-6.64,5.3-10.77,5.3c-7.44,0-12.96-5.62-12.96-13.17c0-7.55,5.52-13.18,12.64-13.18c7.87,0,12,5.57,12,12.43
			C206.77,31.17,206.77,31.76,206.71,32.4z M203.07,29.51c-0.21-4.71-3.11-8.19-8.3-8.19c-4.87,0-8.46,3.91-8.78,8.19H203.07z"/>
		<path class="st0" d="M227.93,24.85c-1.07-2.09-3.37-3.54-6.16-3.54c-2.62,0-5.3,1.12-5.3,3.91c0,2.36,1.87,3.43,6,4.28
			c5.89,1.23,8.68,3.43,8.68,7.34c0,5.73-4.82,7.77-9.43,7.77c-3.8,0-7.6-1.5-9.91-4.87l2.89-2.14c1.29,2.2,4.02,3.91,6.96,3.91
			c3.11,0,5.89-1.12,5.89-4.39c0-2.62-2.62-3.7-7.39-4.82c-2.95-0.7-7.18-1.98-7.18-6.75c0-5.09,4.39-7.28,8.94-7.28
			c3.48,0,7.18,1.66,8.78,4.5L227.93,24.85z"/>
		<path class="st0" d="M251.71,24.85c-1.07-2.09-3.37-3.54-6.16-3.54c-2.62,0-5.3,1.12-5.3,3.91c0,2.36,1.87,3.43,6,4.28
			c5.89,1.23,8.68,3.43,8.68,7.34c0,5.73-4.82,7.77-9.43,7.77c-3.8,0-7.6-1.5-9.91-4.87l2.89-2.14c1.29,2.2,4.02,3.91,6.96,3.91
			c3.11,0,5.89-1.12,5.89-4.39c0-2.62-2.62-3.7-7.39-4.82c-2.95-0.7-7.18-1.98-7.18-6.75c0-5.09,4.39-7.28,8.94-7.28
			c3.48,0,7.18,1.66,8.78,4.5L251.71,24.85z"/>
		<path class="st0" d="M277.96,27.8c0-4.34-2.36-6.48-6.69-6.48c-2.95,0-5.68,1.18-7.45,2.95l-2.04-2.41
			c2.04-2.04,5.57-3.59,9.86-3.59c5.41,0,9.75,3,9.75,9.1v10.98c0,1.93,0.16,4.23,0.43,5.62h-3.27c-0.21-1.23-0.38-2.73-0.38-4.07
			h-0.11c-2.3,3.32-5.09,4.71-9.11,4.71c-3.8,0-8.68-2.04-8.68-7.61c0-7.71,8.52-8.41,17.67-8.41V27.8z M276.88,31.44
			c-5.94,0-12.85,0.64-12.85,5.41c0,3.59,3.05,4.77,5.89,4.77c5.14,0,8.03-3.86,8.03-8.3v-1.87H276.88z"/>
		<path class="st0" d="M292.1,49c1.98,2.57,5.78,4.61,9.59,4.61c7.18,0,9.8-4.45,9.8-9.85v-4.71h-0.11
			c-1.93,3.11-5.84,4.93-9.48,4.93c-7.82,0-12.96-5.41-12.96-12.75c0-7.12,5.14-12.96,12.96-12.96c3.64,0,7.5,1.77,9.48,4.98h0.11
			V18.9h3.64v24.85c0,5.46-2.52,13.07-13.6,13.07c-4.61,0-9.1-1.93-12.05-5.04L292.1,49z M302.27,40.86c5.62,0,9.64-3.96,9.64-9.75
			c0-5.25-4.02-9.8-9.64-9.8c-6.05,0-9.48,4.55-9.48,9.8C292.79,36.36,296.22,40.86,302.27,40.86z"/>
		<path class="st0" d="M347.38,32.4h-20.78c0.11,5.03,4.02,9.1,9.16,9.1c3.75,0,6.64-2.09,8.03-4.34l2.73,2.14
			c-2.95,3.75-6.64,5.3-10.76,5.3c-7.45,0-12.96-5.62-12.96-13.17c0-7.55,5.52-13.18,12.64-13.18c7.87,0,12,5.57,12,12.43
			C347.43,31.17,347.43,31.76,347.38,32.4z M343.73,29.51c-0.21-4.71-3.11-8.19-8.3-8.19c-4.87,0-8.46,3.91-8.78,8.19H343.73z"/>
		<path class="st0" d="M368.59,24.85c-1.07-2.09-3.37-3.54-6.16-3.54c-2.62,0-5.3,1.12-5.3,3.91c0,2.36,1.88,3.43,6,4.28
			c5.89,1.23,8.68,3.43,8.68,7.34c0,5.73-4.82,7.77-9.43,7.77c-3.8,0-7.61-1.5-9.91-4.87l2.89-2.14c1.29,2.2,4.02,3.91,6.96,3.91
			c3.11,0,5.89-1.12,5.89-4.39c0-2.62-2.62-3.7-7.39-4.82c-2.95-0.7-7.18-1.98-7.18-6.75c0-5.09,4.39-7.28,8.94-7.28
			c3.48,0,7.18,1.66,8.78,4.5L368.59,24.85z"/>
	</g>
</g>
<g>
</g>
<g>
</g>
<g>
</g>
<g>
</g>
<g>
</g>
<g>
</g>
</svg>
