<?xml version="1.0" encoding="utf-8"?>
<!-- Generator: Adobe Illustrator 26.1.0, SVG Export Plug-In . SVG Version: 6.00 Build 0)  -->
<svg version="1.1" id="Layer_1" xmlns="http://www.w3.org/2000/svg" xmlns:xlink="http://www.w3.org/1999/xlink" x="0px" y="0px"
	 viewBox="0 0 1920 1080" style="enable-background:new 0 0 1920 1080;" xml:space="preserve">
<style type="text/css">
	.st0{fill:none;stroke:#010101;stroke-width:0.425;stroke-miterlimit:10;}
	.st1{fill:#F49670;}
	.st2{fill:#8A5147;}
	.st3{fill:#F0E0D6;}
	.st4{fill:#3C2623;}
	.st5{fill:#D3754E;}
	.st6{fill:#FFFFFF;}
	.st7{fill:#5C3731;}
	.st8{fill:#BCACA3;}
	.st9{fill:#4B302E;}
	.st10{fill:#B25636;}
	.st11{fill:#D2804E;}
	.st12{fill:#FEC358;}
	.st13{fill:#C5863B;}
	.st14{fill:#704945;}
	.st15{fill:#F5AA6E;}
	.st16{fill:#ECDBD2;}
	.st17{fill:#FFD78F;}
	.st18{fill:#F0EBE9;}
	.st19{fill:#FFD95B;stroke:#231F20;stroke-width:0.5;stroke-miterlimit:10;}
	.st20{fill:#141717;}
</style>
<path class="st0" d="M258.83,1293.26c21.15-248.5,140-396.87,255.42-471.19c92.73-59.7,225.49-74.84,331.12-79.52
	c105.62-4.68,213.21-6.86,313.46-40.23c60.41-20.11,119.52-53.72,152.22-107.97c48.11-79.82,28.07-180.43,27.04-273.43
	c-2.79-250.52,160.06-495.03,393.46-590.78"/>
<path class="st0" d="M283.24,1352.97c11.39-235.6,85.9-366.93,209.87-453.44c171.53-119.7,371.49-91.38,580.74-105.33
	c105.13-7,222.21-30.58,280.81-117.44c59.62-88.36,35.21-205.16,39.14-311.4c4.99-134.76,60.29-264.86,142.15-372.53
	c81.86-107.67,189.28-194.19,304.6-265.63"/>
<path class="st0" d="M310.89,1306.18c16.27-145.23,138.28-419.55,450.47-473.45c146.91-25.36,300.01,4.34,446.02-25.76
	c67.05-13.82,134.85-39.81,179.48-91.32c62.31-71.93,65.99-174.93,86.76-267.49c34.71-154.66,124.39-293.43,236.61-406.19
	c112.21-112.76,246.54-201.46,384.36-281.56"/>
<g>
	<path class="st1" d="M1062.29,612.63c-0.76-4.02-2.38-11.86-2.8-15.58c-0.08-0.74-0.16-1.27-0.23-1.51
		c0.03-0.01,0.06-0.02,0.1-0.03c0.12-0.04,0.07-0.22-0.05-0.19c-0.03,0.01-0.06,0.02-0.1,0.03c-0.09-0.31-0.18-0.63-0.27-0.94
		c-0.04-0.12-0.22-0.07-0.19,0.05c0.09,0.31,0.18,0.63,0.27,0.94c-2.94,0.8-6.01,0.77-9.03,0.56c-3.18-0.22-6.34-0.54-9.53-0.56
		c-1.85-0.01-3.7,0.04-5.55,0.17c-0.07,0-0.11,0.06-0.09,0.12c0.27,1.6,0.56,3.2,0.87,4.79c0.14,0.71,0.29,1.43,0.43,2.14
		c-0.04,0.02-0.06,0.06-0.05,0.11c0.92,4.67,2.1,9.28,3.54,13.81c0.7,2.2,1.43,4.39,2.38,6.49c0.93,2.06,2.12,3.97,3.41,5.83
		c2.68,3.87,18.5,18.96,21.57,22.82c0.08,0.11,0.18,0.21,0.29,0.33h20.53C1079.04,638.16,1062.87,613.77,1062.29,612.63z"/>
	<path class="st1" d="M944.36,616.39c-0.02-0.38-0.04-0.76-0.07-1.14c0.24-6.17-0.26-12.36-1.5-18.41
		c-0.16-0.77-0.33-1.55-0.52-2.32c-0.11-0.44-0.21-0.9-0.69-1.05c-0.51-0.16-1.09,0.06-1.58,0.19c-0.78,0.21-1.55,0.41-2.33,0.6
		c-3.15,0.79-6.32,1.47-9.52,2.05c-3.61,0.65-7.25,1.17-10.91,1.55c-0.01-0.18-0.01-0.37-0.02-0.55c-0.01-0.12-0.2-0.1-0.19,0.03
		c0.05,1.42,0.1,2.84,0.15,4.25c0,0.04,0,0.08,0,0.12c-0.04,3.34-0.07,6.67-0.11,10.01c-0.05,4.39-0.18,8.78-0.08,13.17
		c0.1,4.35,0.76,8.61,1.6,12.88c0.84,4.31,1.71,8.62,2.56,12.93c0.08,0.42,0.17,0.85,0.25,1.27h22.21
		c0.29-4.12,0.55-8.25,0.74-12.38C944.7,631.88,944.79,624.12,944.36,616.39z"/>
	<path class="st2" d="M1024.24,407.25L1024.24,407.25c-0.77-1.65-1.89-3.14-3.22-4.41c-2.64-2.51-6.02-4.03-9.53-4.87
		c-0.79-0.19-1.58-0.35-2.38-0.49c-3.65-1.31-7.4-2.45-11.26-2.97c-3.09-0.42-6.26-0.41-9.32,0.23c-0.04-0.02-0.08-0.03-0.13-0.03
		c-4.83,0.77-10,2.26-13.36,6.05c-1.83,2.06-2.83,4.64-3.89,7.14c-0.4,0.95-0.87,1.85-1.35,2.74c-0.87,1.58-1.81,3.12-2.64,4.74
		c-0.94,1.86-1.45,3.85-1.39,5.89c0.01,0.23,0.02,0.46,0.04,0.69v0c0.03,0.3,0.06,0.61,0.12,0.91c0.23,1.33,0.71,2.56,1.35,3.74
		c0.83,1.55,1.27,2.93,1.22,4.7c-0.03,1.45-0.24,2.9-0.05,4.35c0.07,0.51,0.19,1,0.36,1.48c0.21,0.6,0.5,1.18,0.83,1.73
		c1.35,2.21,3.34,3.99,4.28,6.45c1.03,2.65,0.93,5.61,2.07,8.23c0.52,1.2,1.31,2.17,2.3,3.02c0.63,0.55,1.3,1.06,1.9,1.64
		c0.48,0.46,0.91,0.96,1.24,1.56c0.08,0.14,0.24,0.11,0.32,0.02c0.05,0.02,0.12,0.01,0.13-0.06c0.26-1.74,0.55-3.47,0.86-5.19
		c0.22-1.22,0.46-2.43,0.7-3.64c0.01-0.07,0.03-0.14,0.04-0.21c0.01-0.04,0.01-0.07,0.02-0.11c0.01-0.05,0.02-0.1,0.03-0.15
		c0.46-2.21,0.96-4.41,1.51-6.59l0.12-0.47c0,0,0,0,0,0c0.02-0.06,0.03-0.13,0.05-0.19c0.48-1.91,1-3.82,1.56-5.71
		c0.1-0.33,0.2-0.67,0.3-1c0.04-0.12,0.07-0.25,0.11-0.37c0.01-0.04,0.02-0.07,0.03-0.1c0.02-0.07,0.04-0.14,0.06-0.21
		c0.04-0.12,0.07-0.25,0.11-0.37c0-0.01,0.01-0.02,0.01-0.04c0.24-0.79,0.49-1.59,0.75-2.38c0.04-0.12,0.08-0.25,0.12-0.37
		c0-0.01,0.01-0.02,0.01-0.03c0.21-0.63,0.42-1.27,0.65-1.89c0.37-1.02,0.77-2.02,1.21-3.01c1.94-4.3,4.9-7.89,8.7-10.67
		c1.73-1.27,3.57-2.36,5.49-3.32c0,0,0,0,0,0c2.07-1.04,4.22-1.93,6.41-2.7c2.07-0.73,4.2-1.47,6.36-1.96
		c0.06-0.02,0.13-0.03,0.19-0.04c0.33-0.07,0.67-0.14,1-0.2c0.01,0,0.03,0,0.04-0.01c0.1-0.02,0.2-0.04,0.3-0.05
		c0.07-0.01,0.14-0.02,0.21-0.03c1.37-0.18,2.73-0.13,4.07,0.29c0.37,0.12,0.84,0.25,1.27,0.24c0.09-0.36,0.24-0.7,0.46-0.99
		C1024.53,407.9,1024.39,407.57,1024.24,407.25z"/>
	<path class="st3" d="M1073.95,593.65c-0.71-1.26-1.27-2.59-1.73-3.95c-1.86-5.48-2.09-21.89-3.69-27.43
		c-0.86-2.97-2.17-5.78-3.38-8.61c-1.21-2.84-2.21-5.72-2.91-8.72c-2.59-11.16-1.91-23.44-8.29-33.43c-3-4.7-7.17-8.54-11.66-11.8
		c-5.09-3.7-12.97-6.74-18.61-9.51c-0.68-0.33-1.35-0.66-2.03-0.98c-0.06-0.03-0.12-0.06-0.18-0.08c-1.92-0.92-3.86-1.81-5.8-2.7
		c-0.21-0.1-0.43-0.2-0.64-0.29c-0.79-0.36-1.57-0.72-2.35-1.08c-0.31,0.29-0.71,0.51-1.18,0.6c-1.36,0.26-2.72,0.44-4.09,0.56
		c-2.16,0.2-4.32,0.26-6.5,0.32h0c-0.31,0.01-0.63,0.02-0.95,0.03h0c-2.07,0.06-4.13,0.13-6.19,0.32c-1.26,0.12-2.51,0.24-3.76,0.36
		c0,0,0,0,0,0c-0.46,0.04-0.92,0.09-1.37,0.14h-0.01c-3.05,0.3-6.1,0.61-9.15,0.85c-1.23,0.1-2.47,0.19-3.7,0.27
		c-0.89,0.05-1.7-0.41-2.24-1.09c-0.7,0.32-1.4,0.65-2.1,0.97c-1.88,0.87-3.77,1.74-5.66,2.61c-0.06,0.03-0.12,0.06-0.18,0.08
		c-3.22,1.49-6.45,2.98-9.68,4.47c-7.57,3.5-15.39,7-21.67,12.63c-3.07,2.75-5.63,6-7.45,9.7c-1.93,3.91-3.09,8.15-4.02,12.39
		c-0.96,4.37-1.69,8.78-2.81,13.12c-1.22,4.75-3.08,9.29-4.68,13.92c-3.25,9.38-4.75,30.63-4.25,40.56
		c0.06,1.22,0.15,2.43,0.27,3.65c0.01,0.04,0.03,0.08,0.07,0.1c1.25,0.41,2.48,0.41,3.72,0.22c0.7-0.11,1.4-0.27,2.11-0.45
		c1.87-0.49,3.75-1.1,5.64-1.04c2.15,0.06,8.91,0.74,11.04,0.95c1.65,0.16,3.32,0.1,4.96-0.16c0.01,0.34,0.03,0.69,0.04,1.03
		c0.11,2.8,0.21,5.61,0.48,8.4c0.26,2.65,0.73,5.24,1.31,7.83c0.01,0.07,0.03,0.13,0.04,0.2c0.62,2.7,1.27,5.42,1.39,8.21
		c0.12,2.81-0.34,5.59-0.76,8.36c-0.83,5.49-0.88,10.98-0.82,16.52c0,0.03,0,0.06,0,0.09c0,0.09,0,0.17,0,0.26h102.51
		c0.23-6.7,0.46-13.4,0.69-20.1c0.13-3.87-0.5-20.88-0.78-29.67c0,0,0,0,0,0c-0.02-0.73-0.04-1.41-0.06-2.02
		c-0.05-1.75-0.07-2.91-0.05-3.2c5.36,0.22,16.41-0.08,21.77-0.19c0.69-0.01,1.38-0.03,2.08-0.05c1.05-0.03,2.1-0.06,3.15-0.1h0.01
		c0.84-0.03,1.67-0.07,2.51-0.11c0.52-0.03,1.07-0.03,1.56-0.23C1075.24,595.78,1074.43,594.5,1073.95,593.65z"/>
	<path class="st1" d="M1027.53,438.72c-0.08-2.62-0.17-5.25-0.27-7.8c-0.01-0.13-0.01-0.26-0.02-0.39c0-0.1-0.01-0.19-0.01-0.29
		c-0.07-1.63-0.14-3.22-0.21-4.73c-0.28-5.69-0.62-10.29-0.98-12.1c-0.08-0.39-0.16-0.65-0.23-0.77c-1.4-2.01-3.76-2.98-6.06-3.56
		c-0.31-0.08-0.63-0.15-0.94-0.22c-0.06-0.02-0.13-0.03-0.19-0.04c-0.09-0.02-0.18-0.04-0.27-0.05c-0.35-0.07-0.71-0.13-1.06-0.18
		c-0.06-0.01-0.13-0.02-0.2-0.03c-4.83-0.69-9.49,0.07-14.01,1.74c-0.43,0.16-0.86,0.32-1.28,0.49h0c-0.09,0.04-0.19,0.08-0.28,0.12
		c-3.79,1.54-6.95,3.45-9.05,6.44c0,0,0,0,0,0.01c-0.13,0.18-0.25,0.36-0.36,0.54c-0.32,0.5-0.61,1.03-0.87,1.59
		c-0.05,0.11-0.1,0.22-0.15,0.33c-0.49,1.12-0.86,2.35-1.11,3.73c-0.02,0.11-0.04,0.21-0.06,0.32c0,0.01,0,0.01,0,0.02
		c-0.06,0.31-0.13,0.61-0.21,0.9c0,0,0,0.01,0,0.02c-0.43,1.59-1.09,2.93-1.8,4.22c-0.52,0.96-1.07,1.88-1.57,2.87
		c-0.06,0.12-0.12,0.23-0.18,0.35c-0.12,0.25-0.24,0.51-0.36,0.77c-0.18,0.41-0.36,0.84-0.51,1.29c-0.07,0.19-0.13,0.38-0.2,0.58
		c-0.13,0.44-0.26,0.9-0.36,1.38c-0.01,0.04-0.02,0.08-0.03,0.11c-0.38,1.91-0.68,3.99-0.21,5.91c0.06,0.24,0.13,0.47,0.21,0.71
		c0.1,0.28,0.22,0.56,0.36,0.83c0.09,0.18,0.2,0.36,0.31,0.54c0.15,0.24,0.25,2.66,0.59,5.62c0,0.01,0,0.02,0,0.03
		c0.01,0.07,0.02,0.14,0.02,0.21c0,0.03,0.01,0.05,0.01,0.08c0.01,0.06,0.01,0.12,0.02,0.19c0.4,3.36,1.12,7.28,2.54,9.52
		c0.24,0.38,0.51,0.72,0.8,0.99c5.57,5.28,10.07,8.39,13.57,10.06c1.97,0.94,3.6,1.51,5.02,1.84c2.56,0.6,4.46,0.44,6.5,0.3
		c4.48-0.3,6.77-5.34,8.97-11.99c0.21-0.63,2.26-0.58,2.6-1.16c0.03-0.04,0.04-0.08,0.05-0.13c0.6-4.55,1.05-8.32,1.3-12.05
		c0.01-0.12,0.02-0.24,0.02-0.36C1027.56,444.69,1027.62,441.87,1027.53,438.72z"/>
	<path class="st1" d="M1008.2,467.62c-0.05,1-0.1,2.02-0.15,3.04c-0.02,0.47-0.05,0.95-0.07,1.43c-0.01,0.28-0.03,0.57-0.04,0.85
		c-0.04,0.89-0.09,1.79-0.13,2.68l-0.04,0.8c-0.2,4.55-0.37,9-0.44,12.87c-2.43,0.74-9.21,5.44-11.7,5.81
		c-6.61,0.85-8.97-3.43-15.49-4.27c-0.19-0.03-0.38-0.06-0.57-0.09c-0.37-7.2-0.07-14.44,0.14-21.64c0.1-3.26,0.31-7.97,0.56-12.66
		c0.16-3.08,0.34-6.16,0.51-8.81c0.29-4.51,0.54-7.8,0.66-7.81c0.08-0.88,0.36-1.78,0.9-2.41c0.7-0.81,2.29-1.33,3.3-1.17
		c1.13,0.17,1.31,1.78,1.38,2.73c0.06,0.86-0.08,1.71-0.48,2.42c7.74,0.41,22.45,0.8,22.63,4.03
		C1009.3,447.47,1008.74,456.97,1008.2,467.62z"/>
	<path class="st4" d="M1006.85,440.9c0.04,1.86-0.65,3.38-1.54,3.38c-0.89,0-1.65-1.5-1.69-3.37c-0.04-1.86,0.65-3.38,1.54-3.38
		S1006.81,439.04,1006.85,440.9z"/>
	<path class="st4" d="M1025.4,437.53c-0.02,1.87-0.76,3.35-1.65,3.33c-0.89-0.03-1.59-1.56-1.57-3.43c0.02-1.87,0.76-3.35,1.65-3.33
		C1024.73,434.13,1025.43,435.66,1025.4,437.53z"/>
	<path class="st5" d="M986.43,449.58c-0.04-0.02-0.08-0.02-0.12,0.02c-0.07,0.09-0.13,0.18-0.21,0.26c0,0,0,0,0,0
		c-0.05,0.05-0.1,0.11-0.15,0.15c-0.25,0.25-0.54,0.45-0.88,0.59c-0.01,0.01-0.03,0.01-0.04,0.02c-0.28,0.11-0.79,0.12-0.79,0.12
		c-0.24-0.02-2.18-0.98-2.23-1.11c-0.1-0.25-0.2-0.49-0.32-0.73c-0.2-0.4-0.4-0.84-0.74-1.14c-0.05-0.04-0.11-0.08-0.16-0.12v0h0
		c-0.02,0.25-0.03,0.51-0.05,0.77v0c0,0.01,0,0.03,0,0.04c0,0.08-0.01,0.16-0.01,0.23c-0.01,0.16-0.02,0.32-0.03,0.48
		c-0.03,0.43-0.05,0.86-0.08,1.3c-0.02,0.28-0.03,0.56-0.05,0.84c0,0.02,0,0.04,0,0.05c-0.01,0.22-0.03,0.45-0.04,0.67
		c-0.01,0.23-0.03,0.45-0.04,0.68c-0.01,0.09-0.01,0.19-0.02,0.28c-0.02,0.38-0.04,0.75-0.06,1.13c-0.04,0.77-0.08,1.54-0.12,2.31
		c0.02-0.04,0.03-0.07,0.04-0.11c0.04,0.02,0.08,0.01,0.11-0.03c0.08-0.1,0.06-0.14,0.05-0.27c0-0.01,0-0.02,0-0.03
		c0.02-0.03,0.03-0.05,0.05-0.08c0.32-0.49,0.82-0.76,1.35-1c0.29-0.13,0.59-0.26,0.87-0.41c0.41-0.21,0.78-0.48,1.04-0.88
		c0.48-0.72,0.29-1.85,1.16-2.28c0.47-0.24,0.8-0.53,1.07-0.89c0.07-0.1,0.14-0.2,0.21-0.31c0.06-0.1,0.12-0.2,0.17-0.3
		c0.03-0.06,0.06-0.11,0.09-0.17C986.51,449.66,986.48,449.6,986.43,449.58z"/>
	<path class="st2" d="M979.6,448.04c0.07,0.22,0.13,0.44,0.18,0.67c0.09,0.4,0.07,1-0.07,1.5c-0.66-2.09-1.24-4.2-1.78-6.33
		c-0.33-2.4-0.93-4.75-2.13-6.87c-0.17-0.31-0.4-0.56-0.66-0.76c-0.21-0.92-0.39-1.85-0.53-2.77c0.62-1.77,1.45-3.46,2.49-4.94
		c1.82-2.58,3.42-3.62,6.24-4.64c3.12-1.13,5.46-6.46,8.77-5.99c-4.58,9.42-2.4,16.17-3.9,17.21c-0.33,0.23-1.1,0.42-1.45,0.24
		c-0.14-0.07-0.27-0.14-0.41-0.19c-0.29-0.12-0.6-0.19-0.9-0.24c-1.3-0.19-2.22,0.23-3.13,1.21c-1.26,1.36-2.48,5.21-2.67,7.92
		C979.55,445.49,979.73,446.61,979.6,448.04z"/>
	<path class="st5" d="M1016.37,462.54c-1.09,0.43-2.28,0.46-3.41,0.06c-0.12-0.04-0.2,0.13-0.08,0.18c1.17,0.41,2.42,0.4,3.56-0.06
		C1016.56,462.68,1016.49,462.5,1016.37,462.54z"/>
	<path class="st1" d="M987.13,435.92c0-0.01,0-0.02,0-0.02c0.03,0.03,0.06,0.06,0.08,0.09c0.45,0.47,0.82,1.01,1.11,1.61
		c0.06,0.11,0.22,0.02,0.17-0.09c-0.3-0.63-0.72-1.21-1.22-1.72c-0.09-0.1-0.19-0.19-0.29-0.28c-0.03-0.03-0.07-0.06-0.1-0.09
		c-0.49-0.44-1.04-0.81-1.62-1.1c-1.25-0.63-2.67-0.89-4.02-0.64c-3.27,0.62-3.96,4.58-3.54,7.35c0.26,1.73,0.92,3.4,1.59,5.02
		c0.11,0.27,0.23,0.53,0.36,0.77c0.21,0.42,0.44,0.79,0.69,1.13h0c0.13,0.18,0.27,0.36,0.4,0.52l0,0c0.05,0.06,0.11,0.12,0.16,0.18
		c0,0,0.01,0.01,0.01,0.01c0.36,0.39,0.73,0.72,1.1,0.98c0.52,0.37,1.04,0.63,1.54,0.79c0.45,0.15,0.87,0.21,1.24,0.21
		c0.09,0,0.17,0,0.25-0.01c0.22-0.02,0.42-0.07,0.58-0.14c0.01,0,0.02-0.01,0.02-0.01c0,0,0,0,0.01,0c0.12-0.05,0.23-0.11,0.34-0.16
		c0.08-0.04,0.16-0.08,0.23-0.13c0.97-0.54,1.48-1.21,1.78-2.39c0.44-1.78,0.54-3.73,0.42-5.57c0-0.08-0.01-0.16-0.02-0.24
		c-0.01-0.16-0.03-0.33-0.04-0.49c-0.05-0.49-0.12-0.97-0.23-1.45c-0.07-0.32-0.15-0.64-0.24-0.95c-0.25-0.84-0.79-1.74-0.81-2.63
		C987.07,436.28,987.09,436.1,987.13,435.92C987.13,435.92,987.13,435.92,987.13,435.92z"/>
	<path class="st5" d="M985.78,443.32c-1.4-0.11-1.57-1.75-1.55-2.82c0.02-0.84,0.06-1.77-0.42-2.52c-0.82-1.27-2.84-1.06-3.06,0.5
		c-0.02,0.12,0.18,0.13,0.2,0.01c0.17-1.25,1.73-1.52,2.53-0.62c0.62,0.69,0.58,1.69,0.56,2.54c-0.02,1.21,0.18,3,1.74,3.11
		C985.9,443.52,985.91,443.33,985.78,443.32z"/>
	<path class="st5" d="M1011.75,449.25c1.87,0.01,3.8,0.57,5.64-0.02c0.78-0.25,1.54-0.71,2-1.41c0.56-0.87,0.5-1.92,0.28-2.87
		c-0.22-0.93-0.57-1.83-0.88-2.73l-0.98-2.88c-0.65-1.92-1.3-3.84-1.96-5.76c-0.04-0.12,0.15-0.17,0.19-0.05
		c1.13,3.33,2.27,6.66,3.39,10c0.43,1.26,0.91,2.73,0.31,4.04c-0.48,1.05-1.56,1.68-2.64,1.95c-1.77,0.44-3.58-0.05-5.36-0.07
		C1011.62,449.45,1011.63,449.25,1011.75,449.25z"/>
	<path class="st2" d="M1025.89,412.13c-0.02-0.23-0.03-0.45-0.05-0.67c-0.21-0.67-0.43-1.33-0.66-1.98
		c-0.12-0.35-0.25-0.71-0.39-1.06c-0.07-0.18-0.25-0.58-0.27-0.64c-0.08-0.15-0.15-0.31-0.22-0.46c-0.23-0.2-0.43-0.44-0.58-0.71
		c-0.77-0.39-1.55-0.75-2.32-1.1c-3.14-1.43-6.47-2.49-9.92-2.93c-3.42-0.44-7.2-0.36-10.49,0.94c-1.56,0.62-2.93,1.58-4.19,2.69
		c-1.3,1.15-2.55,2.39-3.73,3.66c-2.2,2.36-4.17,5.54-3.15,8.81c0.02,0.07,1.2,1.27,1.22,1.2c0.98-5.01,9.37-5.89,10.73-6.11
		c1.38-0.23,2.77-0.05,4.13,0.13c2.33,0.32,4.67,0.65,6.93-0.33c2.17-0.94,3.92-1.72,6.27-2.22c2.46-0.52,4.75-0.16,6.35,1.54
		c-0.03,0.03,0.42,0.46,0.55,0.62c0.08,0.1,0.22-0.04,0.14-0.14C1026.11,413.19,1025.91,412.3,1025.89,412.13z"/>
	<path class="st1" d="M1015.03,486.13c-0.79-0.36-1.57-0.72-2.35-1.08c-1.7-0.78-3.41-1.54-5.15-2.22c-0.35-0.14-0.7-0.27-1.05-0.4
		c-2.94-1.09-5.99-1.85-9.13-1.98c-3.27-0.14-6.54,0.32-9.74,0.95c-1.61,0.32-3.21,0.68-4.8,1.05c-0.12,0.03-0.07,0.22,0.05,0.19
		c0.52-0.12,1.04-0.24,1.57-0.36c0.03,0.01,0.05,0.03,0.07,0.05c-1.69,0.78-3.38,1.56-5.08,2.35c-1.96,0.9-3.92,1.81-5.87,2.71
		c-0.7,0.32-1.4,0.65-2.1,0.97c0.52,1.3,1.35,2.52,2.13,3.63c1.16,1.65,2.5,3.17,3.99,4.53c2.95,2.69,6.51,4.74,10.37,5.8
		c8.14,2.24,17.32,0,22.97-6.42c2.37-2.7,4.06-5.98,4.78-9.49C1015.46,486.33,1015.24,486.23,1015.03,486.13z"/>
	<path class="st2" d="M974.1,418.32c-0.73-1.56-1.93-2.89-2.48-4.53c-0.18-0.52-0.3-1.1-0.33-1.67c0.03,0.02,0.05,0.05,0.07,0.07
		c0.08,0.09,0.22-0.05,0.14-0.14c-0.07-0.08-0.14-0.14-0.21-0.22c0.01-0.94,0.3-1.85,1.11-2.45c0.1-0.07,0-0.24-0.1-0.17
		c-0.85,0.64-1.19,1.49-1.23,2.41c-0.39-0.37-0.82-0.7-1.28-0.99c-2.11-1.34-4.77-1.76-7.22-1.24c-3.4,0.72-6.1,3.29-7.46,6.42
		c-0.71,1.63-1.03,3.36-1.05,5.13c-0.02,2.11,0.26,4.37-0.68,6.34c-0.79,1.66-2.35,2.72-3.86,3.65c-1.49,0.91-3.01,1.77-4.27,3.01
		c-2.86,2.8-4.4,6.86-4.11,10.85c0.01,0.07,0.07,0.1,0.12,0.09c2.65,1.64,6.1,2,9.17,1.44c3.12-0.57,6.85-3.46,9.94-1.29
		c0.07,0.05,0.16-0.04,0.14-0.11c-0.31-1.46,0.02-2.99,0.85-4.23c0.86-1.29,2.16-1.97,3.62-2.38c1.27-0.35,2.62-0.54,3.8-1.15
		c0.01,0,0.01-0.01,0.02-0.01c1.13-0.59,1.89-1.6,2.17-2.84c0.31-1.39,0.13-2.85,0.15-4.26c0.02-1.57,0.43-2.9,1.26-4.23
		c0.72-1.15,1.61-2.25,2.06-3.55C974.91,420.93,974.69,419.58,974.1,418.32z"/>
	<path class="st2" d="M1009.05,430.75c-1.28-0.48-2.7-0.78-4.04-0.93c-1.28-0.15-2.57-0.05-3.81,0.28c-2.69,0.71-5.07,2.39-6.94,4.5
		c-0.01,0.01-0.01,0.02-0.02,0.03c-0.09,0.12-0.09,0.28-0.01,0.43c0.01,0.02,0.02,0.04,0.03,0.05c0.25,0.35,0.84,0.49,1.27,0.53
		c0.05,0.01,0.11,0.01,0.15,0.01c0.16,0.01,0.46-0.01,0.87-0.05c0.79-0.08,1.98-0.25,3.29-0.45c3.43-0.52,7.74-1.25,8.26-1.2
		c0.39,0.04,0.91,0.03,1.39-0.09c0.19-0.04,0.38-0.11,0.54-0.19c0.44-0.21,0.78-0.54,0.86-1.06
		C1011.08,431.58,1009.8,431.03,1009.05,430.75z"/>
	<path class="st2" d="M1027.01,425.51c-0.67,0.12-1.34,0.3-1.98,0.54c-1.52,0.55-3.08,1.27-4.42,2.16
		c-0.78,0.52-2.12,1.48-1.65,2.59c0.55,1.32,2.53,1.07,3.59,0.71c0.67-0.23,3.08-0.89,4.68-1.27
		C1027.16,428.61,1027.09,427.02,1027.01,425.51z"/>
	<path class="st6" d="M1018.63,456.04c-3.15,1.08-6.53,1.51-9.89,1.24c-0.26-0.02-0.53-0.04-0.79-0.07
		c-0.08-0.01-0.12,0.05-0.13,0.1c-0.11-0.07-0.21-0.13-0.32-0.2c-0.08-0.05-0.17,0-0.18,0.06c-0.01,0.03,0,0.06,0.04,0.09
		c0.43,0.27,0.88,0.55,1.33,0.82c1.57,0.95,3.3,1.81,5.28,1.72c1.35-0.05,2.31-0.12,3.3-0.71c0.81-0.48,1.41-1.65,1.67-2.56
		c0.04-0.14,0.08-0.28,0.1-0.41C1019.06,456.06,1018.71,456.01,1018.63,456.04z"/>
	<path class="st5" d="M1018.99,454.36c-1.15-0.2-2.11,0.59-2.66,1.45c-0.1-0.46-0.51-0.85-1.04-1c-0.95-0.27-1.91,0.22-2.57,0.77
		c-1.26,1.05-2.87,1.38-3.98,1.48c-0.76,0.07-1.29,0.03-1.33,0.03c-0.07,0-0.11,0.04-0.1,0.09c0,0.04,0.04,0.09,0.11,0.11
		c0.46,0.11,0.88,0.2,1.29,0.29c2.52,0.53,4.3,0.65,7.28,0.19c1.01-0.16,2.23-0.52,2.94-1.21c0.22-0.21,0.39-0.46,0.49-0.74
		C1019.82,454.74,1019.4,454.44,1018.99,454.36z"/>
	<path class="st7" d="M968.99,413.6c0.04-0.12-0.15-0.17-0.19-0.05c-0.92,3-2.77,5.7-3.27,8.83c-0.45,2.85,0.53,5.76,2.65,7.73
		c0.09,0.09,0.23-0.05,0.14-0.14c-2.25-2.09-3.14-5.19-2.48-8.17C966.48,418.92,968.13,416.4,968.99,413.6z"/>
	<path class="st7" d="M958.7,433.85c-1.27,0.99-2.63,2.05-3.35,3.53c-0.62,1.27-0.73,2.82,0.07,4.03c0.07,0.1,0.24,0.01,0.17-0.1
		c-0.85-1.29-0.62-2.96,0.15-4.24c0.76-1.27,1.95-2.19,3.1-3.09C958.94,433.91,958.8,433.77,958.7,433.85z"/>
	<path class="st7" d="M952.2,443.33c-1.65-1.01-0.78-3.15-0.12-4.48c0.06-0.11-0.11-0.21-0.17-0.1c-0.72,1.43-1.56,3.67,0.19,4.75
		C952.21,443.57,952.31,443.4,952.2,443.33z"/>
	<path class="st7" d="M982.65,427.38c-1.56-0.52-3.24-0.38-4.7,0.39c-0.11,0.06-0.01,0.23,0.1,0.17c1.41-0.74,3.04-0.88,4.55-0.37
		C982.72,427.61,982.77,427.42,982.65,427.38z"/>
	<path class="st7" d="M1016.85,406.47c-0.49-1.54-1.37-2.92-2.55-4.02c-0.09-0.09-0.23,0.05-0.14,0.14
		c1.12,1.04,1.97,2.34,2.45,3.79c0.48,1.42,0.81,3.31-0.01,4.67c-0.07,0.11,0.1,0.21,0.17,0.1
		C1017.59,409.78,1017.31,407.92,1016.85,406.47z"/>
	<path class="st7" d="M1018.72,405.71c-0.04-0.12-0.23-0.07-0.19,0.05c0.4,1.07,0.4,2.19,0.01,3.26c-0.04,0.12,0.15,0.17,0.19,0.05
		C1019.13,407.98,1019.13,406.81,1018.72,405.71z"/>
	<path class="st7" d="M1003.07,411.19c-3.07-0.91-6.38-1.94-8.38-4.63c-0.07-0.1-0.24,0-0.17,0.1c2.04,2.73,5.37,3.79,8.5,4.72
		C1003.14,411.41,1003.19,411.22,1003.07,411.19z"/>
	<path class="st7" d="M981.59,402.12c-1.54-0.71-3.28-0.78-4.86-0.18c-0.12,0.04-0.07,0.23,0.05,0.19c1.53-0.59,3.22-0.53,4.71,0.16
		C981.61,402.34,981.71,402.17,981.59,402.12z"/>
	<path class="st2" d="M1026.02,457.56c-0.12,0.09-3.64,2.91-4.94,3.67c-3.8,2.23-8.45,2.84-12.65,2.12
		c-1.05-0.18-2.08-0.44-3.05-0.79c-2.73-0.96-6.86-2.17-8.8-4.45c-2.29-2.67-2.1-6.23-2.32-9.52c-0.05-0.8-0.16-1.61-0.43-2.37
		c-0.26-0.74-0.69-1.39-1.17-2.01c-0.66-0.86-1.3-1.7-1.85-2.61v0c-0.26-0.43-0.49-0.87-0.71-1.34c-0.8-1.78-1.26-3.67-1.55-5.6v0
		c-0.08-0.54-0.15-1.08-0.21-1.62c-0.01-0.14-0.03-0.29-0.04-0.43c0-0.01,0-0.02,0-0.03c-0.1-1-0.16-2-0.22-2.99
		c-0.01-0.11-0.17-0.14-0.19-0.03c-0.2,0.89-0.47,1.76-0.82,2.59c-0.05,0.12-0.1,0.24-0.16,0.36c-0.17,0.37-0.35,0.74-0.55,1.09
		c-0.02,0.03-0.02,0.06,0,0.09c0,0.05,0.02,0.1,0.05,0.14c-0.01,0.02-0.02,0.05,0,0.09c0.21,0.49,0.4,0.99,0.58,1.49
		c0.01,0.03,0.02,0.05,0.03,0.08c0.05,0.14,0.1,0.28,0.14,0.43c0.02,0.06,0.04,0.11,0.05,0.17c0.41,1.29,0.72,2.62,0.94,3.95
		c0.08,0.48,0.15,0.96,0.21,1.45c0.03,0.25,0.06,0.49,0.08,0.74c0.17,1.69,0.23,3.38,0.24,5.08c0,2.23-0.1,4.46-0.2,6.7
		c-0.09,1.99-0.31,4.05,0.11,6.01c0.05,0.25,0.12,0.51,0.19,0.76c0.32,1.05,0.79,2.05,1.27,3.05c0.43,0.91,0.91,1.78,1.71,2.42
		c0.81,0.65,8.8,8.39,15.11,10.58c0.31,0.11,0.62,0.21,0.92,0.3c8.53,2.6,15.01-0.59,16.46-4.91c0.39-1.17,1.33-8.37,1.81-12.15
		c0.17-1.36,0.29-2.28,0.29-2.33C1026.33,457.59,1026.13,457.48,1026.02,457.56z"/>
	<path class="st6" d="M1031.45,430.82c-1.37-0.47-2.79-0.48-4.2-0.29c-0.69,0.1-1.37,0.25-2.04,0.42c-1.18,0.31-2.78,0.6-3.65,1.54
		c-0.34,0.37-0.88,1.17-1.02,1.41c-0.47,0.77-0.81,1.59-1.04,2.44c-0.85-0.25-1.73-0.35-2.59-0.31c-0.07,0-0.14,0.01-0.21,0.01
		c-1.3,0.09-2.57,0.51-3.7,1.24c-0.44-1.53-1.36-2.83-2.95-3.59c-0.22-0.11-0.46-0.2-0.71-0.29c-2.03-0.69-4.21-0.39-6.24,0.13
		c-1.07,0.28-2.41,0.54-3.35,1.24c0,0-0.01-0.01-0.01-0.01c-1.23-0.32-2.52-0.39-3.18,0.85c-0.02,0.03-0.03,0.06-0.05,0.1
		c-0.05,0.11-0.09,0.22-0.13,0.33c-0.28-0.13-0.56-0.26-0.84-0.39c-0.43-0.2-0.87-0.39-1.3-0.59c-1.78-0.79-3.59-1.53-5.41-2.23
		c-0.18-0.07-0.37-0.14-0.55-0.21c0,0-0.01,0-0.01,0c-0.41-0.15-0.81-0.3-1.22-0.45c-0.24-0.09-0.49-0.18-0.73-0.27
		c-1.34-0.48-2.69-0.93-4.04-1.36c-0.24-0.07-0.34,0.3-0.11,0.38c1.33,0.42,2.66,0.86,3.97,1.33c0.25,0.09,0.5,0.18,0.75,0.27
		c0.42,0.15,0.84,0.31,1.26,0.47c0.06,0.02,0.12,0.04,0.18,0.07c0.16,0.06,0.32,0.12,0.48,0.18c2.53,0.97,5.03,2.03,7.49,3.18
		c-0.16,0.98,0.24,1.97,1.02,2.62c0.01,0.01,0.02,0.01,0.03,0.02c-0.24,0.96-0.33,1.96-0.27,2.95c0.07,1.32,0.4,2.64,0.96,3.88
		c0.71,1.57,1.77,3.15,3.33,3.98c1.62,0.86,3.53,0.74,5.27,0.37c0.98-0.21,1.78-0.55,2.49-1.05c0.71-0.5,1.31-1.16,1.87-1.99
		c1.13-1.65,1.87-3.56,2.18-5.53c0.21-1.35,0.22-2.73-0.07-3.98c1.14-0.75,2.41-1.18,3.72-1.25c0.07-0.01,0.14-0.01,0.21-0.01
		c0.79-0.02,1.58,0.08,2.36,0.31c-0.48,2.17-0.21,4.49,0.74,6.59c0.71,1.57,1.77,3.15,3.33,3.98c1.2,0.63,2.57,0.73,3.9,0.59
		c0.46-0.05,0.92-0.13,1.37-0.22c1.97-0.41,3.23-1.4,4.36-3.04c1.13-1.65,1.87-3.56,2.18-5.53
		C1035.8,435.67,1035.05,432.05,1031.45,430.82z M1012.87,440.95c-0.27,2.59-1.47,6.08-3.73,7.81c-0.45,0.34-0.93,0.61-1.46,0.79
		c-1.56,0.54-3.48,0.8-5.09,0.37c-1.72-0.46-2.92-1.81-3.76-3.32c-0.79-1.42-1.26-2.99-1.36-4.57c-0.13-2.06,0.38-4.14,1.62-5.88
		c0.04-0.02,0.08-0.05,0.1-0.11c0.01-0.03,0.03-0.05,0.04-0.08c0.09-0.12,0.18-0.24,0.28-0.35c0.04-0.05,0.05-0.11,0.04-0.16
		c0.09-0.11,0.2-0.21,0.31-0.3c0.93-0.77,2.46-1.03,3.52-1.3c1.64-0.41,3.36-0.67,5.03-0.32c0.37,0.08,0.74,0.19,1.1,0.33
		c1.06,0.42,2.01,1.11,2.61,2.11c0.28,0.47,0.48,0.98,0.61,1.52c-0.03,0.08,0,0.17,0.05,0.23
		C1013,438.78,1012.98,439.9,1012.87,440.95z M1034.97,438.38c-0.33,3.1-1.98,7.49-5.19,8.61c-0.74,0.26-1.56,0.45-2.39,0.54
		c-0.92,0.1-1.85,0.06-2.7-0.16c-1.72-0.46-2.92-1.81-3.76-3.32c-1.73-3.09-1.92-6.92-0.09-9.92c0.11-0.18,1.11-1.39,1.23-1.5
		c0.95-0.84,2.37-1.07,3.41-1.33c0.58-0.14,1.18-0.27,1.78-0.36c1.08-0.16,2.18-0.19,3.26,0.04c1.49,0.32,2.91,1.1,3.7,2.44
		C1035.09,434.87,1035.15,436.72,1034.97,438.38z"/>
	<path class="st5" d="M991.86,487.39c-2.55-0.28-5.12-0.3-7.68-0.06c-0.12,0.01-0.13,0.21,0,0.2c2.56-0.24,5.13-0.22,7.68,0.06
		C991.98,487.6,991.98,487.4,991.86,487.39z"/>
	<path class="st5" d="M1004.72,485.59c-2.25,0.36-4.47,0.85-6.67,1.47c-0.12,0.03-0.07,0.22,0.05,0.19
		c2.19-0.62,4.42-1.11,6.67-1.47C1004.9,485.76,1004.84,485.57,1004.72,485.59z"/>
	<path class="st8" d="M1043.09,553.94c0.03-2.34,0.07-4.67,0.12-7.01c0-0.13-0.19-0.13-0.2,0c-0.18,8.31-0.24,16.62-0.19,24.92
		c0.01,2.34,0.04,4.67,0.07,7.01c0,0.13,0.2,0.13,0.2,0C1042.98,570.55,1042.98,562.24,1043.09,553.94z"/>
	<path class="st8" d="M938.33,557.04c-0.39-2.12-0.82-4.23-1.29-6.34c-0.03-0.12-0.22-0.07-0.19,0.05
		c1.67,7.41,2.8,14.95,3.37,22.53c0.16,2.15,0.27,4.3,0.35,6.46c0,0.13,0.2,0.13,0.2,0C940.51,572.13,939.7,564.54,938.33,557.04z"
		/>
	<path class="st8" d="M1025.73,628.34c-3.9-6.19-8.02-12.24-12.35-18.14c-1.23-1.68-2.49-3.35-3.75-5.01c-0.08-0.1-0.25,0-0.17,0.1
		c4.44,5.81,8.69,11.78,12.71,17.89c1.15,1.74,2.28,3.5,3.39,5.26C1025.63,628.55,1025.8,628.45,1025.73,628.34z"/>
	<path class="st8" d="M1028.08,640.32c-2.91-3.29-5.55-6.81-7.88-10.54c-0.07-0.11-0.24-0.01-0.17,0.1
		c2.34,3.74,4.98,7.28,7.91,10.58C1028.03,640.55,1028.17,640.41,1028.08,640.32z"/>
	<path class="st8" d="M1021.65,489.21c-1.09,3.07-2.45,6.05-4.15,8.84c-1.44,2.37-3.12,4.68-5.13,6.61
		c-2.11,2.01-4.59,3.28-7.39,4.03c-5.8,1.57-12.02,1.68-17.85,0.23c-5.2-1.29-10.06-3.87-14.03-7.46c-3.2-2.9-5.75-6.45-7.49-10.38
		c0.06-0.03,0.12-0.06,0.18-0.08c1.99,4.49,5.04,8.47,8.89,11.56c4.23,3.39,9.29,5.67,14.62,6.64c2.94,0.54,5.95,0.69,8.93,0.46
		c2.96-0.22,5.98-0.76,8.76-1.79c2.74-1.02,4.96-2.83,6.85-5.03c1.81-2.11,3.35-4.45,4.66-6.9c1.17-2.19,2.15-4.46,2.98-6.79
		C1021.53,489.15,1021.59,489.18,1021.65,489.21z"/>
</g>
<path class="st1" d="M1130.41,592.96c2.57-2.57,6.23-4.28,9.89-4.69c1.95-1.45,6.73-4.32,7.02-5.06
	c2.93-7.62,9.22-28.22,13.14-41.63c-3.05-0.08-6.1-0.27-9.14-0.59c-5.33-0.56-10.94-1.14-16.07-2.86c-0.2-0.07-0.4-0.14-0.6-0.21
	c-0.37,1.94-0.74,3.88-1.1,5.83c-1.94,10.5-3.84,21-5.76,31.5c-1.09,5.95-2.18,11.9-3.26,17.85c-0.01,0.04,0.01,0.09,0.05,0.11
	c1.31,0.68,2.66,1.28,4.04,1.78C1129.14,594.27,1129.73,593.59,1130.41,592.96z"/>
<path class="st9" d="M1191.23,481.18c-0.17-5.36-1.57-10.61-3.5-15.59c-0.95-2.44-2.01-4.84-3.21-7.17
	c-1.15-2.24-2.51-4.37-4.33-6.13c-3.65-3.51-8.54-5.48-13.04-7.64c-1.07-0.52-2.15-1.03-3.22-1.55c-0.12-1.18-0.35-2.34-0.58-3.5
	c-0.02-0.12-0.21-0.07-0.19,0.05c0.22,1.11,0.45,2.23,0.57,3.35c-0.14-0.07-0.27-0.13-0.41-0.2c-0.11-0.05-0.21,0.11-0.1,0.17
	c0.18,0.08,0.35,0.17,0.53,0.25c0.03,0.29,0.05,0.59,0.06,0.89c0.05,1.43-0.18,2.79-0.59,4.15c-0.69,2.28-1.68,4.54-1.28,6.97
	c0.39,2.34,1.77,4.37,2.26,6.69c0.52,2.45-0.4,4.8-1.04,7.13c-0.57,2.05-0.87,4.19,0.21,6.13c1.03,1.84,2.9,3.19,3.51,5.25
	c0.8,2.67-0.9,5.24-1.4,7.79c-0.19,0.97,0.02,1.75,0.75,2.43c0.79,0.74,1.72,1.24,2.26,2.23c1.06,1.94,0.67,4.36,0.87,6.48
	c0.07,0.76,0.1,1.99,1.02,2.21c0.4,0.1,0.82-0.04,1.18-0.21c0.59-0.27,1.15-0.63,1.69-0.98c2.09-1.33,3.99-2.91,5.99-4.37
	c1.02-0.74,2.06-1.45,3.15-2.07c1-0.57,2.06-1.03,3.11-1.49c1.94-0.85,3.96-1.86,4.88-3.89c0.46-1.03,0.63-2.16,0.74-3.28
	C1191.24,483.93,1191.27,482.55,1191.23,481.18z"/>
<path class="st9" d="M1281.56,542.49c-0.21-2.45-3.02-9.43-4.04-11.51c-2.11-4.28-4.33-5.2-4.38-10.09
	c-0.02-2.27,0.23-4.59-0.27-6.83c-0.43-1.95-1.53-3.52-3.04-4.8c-1.43-1.21-3.06-2.15-4.54-3.3c-1.72-1.33-3.04-2.95-3.62-5.08
	c-0.61-2.19-0.53-4.51-0.6-6.76c-0.06-2.16-0.28-4.29-1.12-6.3c-0.78-1.88-1.99-3.59-3.53-4.93c-1.67-1.47-3.74-2.33-5.48-3.7
	c-0.33-0.26-0.63-0.54-0.91-0.83c-0.18-0.55-0.42-1.08-0.71-1.58c-0.36-0.6-0.79-1.13-1.27-1.61c-0.95-2.28-1.4-4.84-2.41-7.11
	c-0.83-1.87-2.12-3.38-3.8-4.55c-1.77-1.23-3.77-2.07-5.74-2.93c-2.96-1.3-6.08-2.96-7.69-5.69c0.02-0.12,0.04-0.24,0.07-0.36
	c0.2-0.91,0.53-1.77,0.65-2.7c0.11-0.85,0.09-1.71-0.04-2.56c-0.26-1.69-1-3.23-2.1-4.53c-1.1-1.3-2.47-2.38-3.43-3.81
	c-1.29-1.92-1.13-4.12-0.83-6.3c1.31-2.15,2.04-4.65,2.05-7.18c0.02-3.94-1.8-7.79-4.74-10.39c-0.71-0.63-1.48-1.17-2.3-1.64
	c-0.92-0.52-1.9-0.96-2.7-1.66c-1.88-1.65-1.3-4.1-1.11-6.28c0.16-1.9-0.22-3.68-1.29-5.27c-1.02-1.52-2.5-2.71-4.14-3.53
	c-3.86-1.92-8.24-1.44-12.37-0.57c-1.62-1.37-3.41-2.52-5.42-3.24c-2.64-0.94-5.46-1.04-8-0.09c-2.76,0.41-5.39,1.6-7.52,3.42
	c-1.71,1.47-2.79,3.72-5.05,4.43c-1.02,0.32-2.07,0.5-3.08,0.86c-0.91,0.32-1.78,0.73-2.62,1.2c-3.34,1.9-6.16,5.03-7.38,8.71
	c-0.62,1.88-0.81,4.02,0.01,5.87c0.45,1.01,1.42,1.92,0.69,3.07c-0.56,0.88-1.56,1.41-2.31,2.1c-1.64,1.52-2.82,3.53-3.33,5.7
	c-0.24,1.02-0.43,2.29,0.24,3.19c0.43,0.59,1.17,0.91,1.87,0.71c-0.88,2.36-1.7,5.7,0.99,7.19c2.24,1.24,4.92,0.28,6.63-1.38
	c0.93-0.9,1.66-1.96,2.33-3.06c0.02,0.21,0.04,0.42,0.06,0.63c0.01,0.12,0.21,0.12,0.2,0c-0.04-0.31-0.06-0.61-0.08-0.92
	c0.15-0.25,0.31-0.51,0.46-0.76c0.06-0.11-0.1-0.21-0.17-0.1c-0.1,0.17-0.2,0.34-0.31,0.51c-0.22-4.83,1.5-9.67,4.57-13.41
	c1.64-1.99,3.66-3.67,5.96-4.85c2.33-1.19,4.89-1.87,7.34-2.78c1.51-0.57,3.01-1.24,4.31-2.17c3.53,2.76,6.32,6.45,8.01,10.61
	c1.18,2.88,1.77,5.93,1.84,9.03c0.09,3.69-0.37,7.41,0.22,11.08c0.56,3.54,2.14,6.88,4.47,9.6c0.01,4.19,0.16,8.38,0.72,12.54
	c0.66,4.89,1.98,9.62,4,14.13c2.93,6.55,7.04,12.47,11.27,18.25c0.32,3.35,0.37,6.71,0.03,10.08c-0.5,4.93-1.68,9.76-3.14,14.48
	c-2.36,7.61-6.57,13.41-9.85,25.05c-1.49,5.29-2.52,8.39-2.62,13.9c0,0.07,0.06,0.1,0.12,0.09c3.29-0.48,6.66-3.05,9.98-2.66
	c1.69,0.2,3.37,0.62,4.92,1.35c1.37,0.65,2.62,1.53,3.88,2.38c1.2,0.81,2.44,1.6,3.8,2.1c1.38,0.51,2.84,0.65,4.3,0.51
	c3.05-0.3,16.8-1.11,18.3-0.59c1.45,0.5,2.93,0.95,4.46,1.08c1.39,0.12,2.78-0.06,4.13-0.4c2.82-0.72,5.41-2.1,8.14-3.07
	c1.37-0.49,2.8-0.89,4.26-1.01c1.54-0.13,3.03,0.16,4.54,0.4c1.37,0.22,2.84,0.4,4.17-0.1c1.2-0.45,1.91-1.43,2.58-2.45
	c0.77-1.17,1.25-2.51,1.56-3.86c0.54-2.37,0.7-4.88,0.85-7.3C1281.64,546.28,1281.72,544.37,1281.56,542.49z"/>
<path class="st1" d="M1162.65,436.58c0,3.63,0.33,13.95,2.34,22.46c1.62,6.86,6.03,10.74,10.49,11.24
	c5.19,0.59,11.73,0.52,26.38-12.46c3.65-3.23,2.38-13.47,2.76-14.03c1.61-2.34,1.34-5.32,0.88-7.97c-0.91-5.26-3.1-10.29-6.26-14.59
	c-3.26-4.44-7.45-7.72-12.17-10.49c-4.96-2.91-10.07-5.03-15.89-3.83c-2.31,0.48-3.7,1.63-5.15,3.59
	c-1.21,1.62-2.04,5.96-2.57,10.86c-0.16,1.43-0.29,2.9-0.4,4.37C1162.77,429.75,1162.65,433.72,1162.65,436.58z"/>
<path class="st1" d="M1207.28,485.46c-0.14-8.97-3.5-48.73-3.72-48.72c-0.06-0.87-0.26-1.74-0.67-2.32
	c-0.53-0.74-1.74-1.12-2.53-0.87c-0.87,0.27-1.02,1.89-1.08,2.84c-0.05,0.86,0.04,1.69,0.35,2.36c-5.96,1.11-17.27,2.82-17.43,6.05
	c-0.11,2.04,0.25,11.44,0.57,21.97c0.03,1.03,0.06,2.06,0.09,3.11c0.01,0.44,0.03,0.88,0.04,1.33c0.03,1.03,0.06,2.05,0.09,3.08
	c0.21,7.61,0.34,15.06,0.24,20.12c0,0.08-0.87,2.18-0.81,2.17l15.91,6.22c0.05-0.01,2.87-5.37,4.29-8.12
	c0.34,0.2,0.7,0.38,1.07,0.53c0.13,0.05,0.29-0.05,0.31-0.26C1205.04,485.17,1207.42,495.17,1207.28,485.46z"/>
<path class="st4" d="M1184.34,435.49c-0.02,1.87,0.68,3.4,1.57,3.41c0.89,0.01,1.63-1.5,1.65-3.37s-0.68-3.4-1.57-3.41
	S1184.37,433.61,1184.34,435.49z"/>
<path class="st4" d="M1166.03,434.46c-0.02,1.87,0.68,3.4,1.57,3.41c0.89,0.01,1.63-1.5,1.65-3.37s-0.68-3.4-1.57-3.41
	C1166.79,431.08,1166.05,432.59,1166.03,434.46z"/>
<path class="st10" d="M1172.27,459.49c1.09,0.45,2.26,0.49,3.37,0.1c0.12-0.04,0.2,0.14,0.08,0.18c-1.16,0.41-2.39,0.38-3.53-0.09
	C1172.08,459.63,1172.15,459.44,1172.27,459.49z"/>
<path class="st6" d="M1180.13,452.76c0.03-0.06-0.09-0.08-0.14-0.06c-0.83,0.35-1.76,0.4-2.66,0.47c-0.89,0.07-1.79,0.14-2.68,0.16
	c-0.9,0.02-1.74-0.12-2.6-0.4c-0.69-0.22-1.37-0.46-2.09-0.52c-0.03-0.11-0.2-0.06-0.18,0.06c0.18,1.2,0.65,2.66,1.6,3.49
	c0.85,0.75,2.18,0.98,3.27,0.89c1.15-0.1,2.22-0.56,3.07-1.33C1178.25,455.04,1179.74,453.66,1180.13,452.76z"/>
<path class="st11" d="M1179.89,452.71c-0.89,0.28-1.82,0.46-2.57-0.26c-0.62-0.6-1.12-1.33-1.81-1.86c-0.5-0.38-1.16-0.67-1.8-0.49
	c-0.55,0.15-0.93,0.62-0.94,1.18c0,0.01,0,0.02,0.01,0.03c0,0,0,0.01,0,0.01v0.01c-0.42-0.51-0.91-1.08-1.58-1.21
	c-1.52-0.3-1.69,1.63-1.34,2.64c0.02,0.06,0.03,0.09,0.1,0.17c1.29,1.22,3.12,1.53,4.86,1.45c1.03-0.05,2.04-0.25,3.03-0.51
	c0.78-0.2,1.55-0.43,2.14-0.99c0.03-0.01,0.15-0.13,0.1-0.19C1180.03,452.63,1179.89,452.7,1179.89,452.71z"/>
<path class="st10" d="M1177.36,445.43c-1.37,0.39-3.01,0.43-4.31-0.25c-1.51-0.78-1.5-2.36-1.13-3.82c0.74-2.88,1.87-5.68,3.23-8.32
	c0.06-0.11-0.11-0.21-0.17-0.1c-0.78,1.52-1.48,3.08-2.07,4.68c-0.56,1.51-1.19,3.13-1.38,4.73c-0.16,1.33,0.31,2.48,1.55,3.06
	c1.33,0.63,2.94,0.6,4.33,0.2C1177.54,445.58,1177.49,445.4,1177.36,445.43z"/>
<path class="st9" d="M1182.26,408.01c-0.57-2.09-3.52-2.29-5.27-2.53c-4.22-0.57-9.07,0.03-11.99,3.47
	c-1.65,1.94-2.38,4.58-2.75,7.04c-0.19,1.29-0.27,2.59-0.23,3.89c0.02,0.63,0.07,1.26,0.15,1.88c0.11-0.02,0.22-0.03,0.34-0.04
	c0.19-0.54,0.39-1.08,0.62-1.61c0.87-2.04,1.99-4.23,3.56-5.83c0.86-0.87,1.9-1.42,3.14-1.43c1.07-0.01,2.14,0.29,3.21,0.11
	c1.08-0.18,1.79-0.93,2.64-1.54c1.05-0.76,2.2-0.73,3.44-0.77C1180.56,410.61,1182.78,409.91,1182.26,408.01z"/>
<path class="st9" d="M1228.47,404.61c-0.66-0.52-1.5-0.57-2.3-0.53c1.82-0.97,2.79-3.39,1.9-5.32c-0.65-1.41-2.14-2.24-3.65-2.29
	c-0.62-2.11-2.7-3.57-4.9-3.41c-1.23,0.09-2.38,0.61-3.27,1.45c0.06-1.27-0.7-2.44-1.79-3.08c-1.29-0.76-2.91-0.89-4.37-0.71
	c-2.67,0.34-5.12,1.87-6.73,4.01c-0.77,1.02-1.32,2.19-1.62,3.42c-0.39,0.05-0.78,0.14-1.16,0.28c-0.12,0.04-0.07,0.23,0.05,0.19
	c0.35-0.13,0.71-0.22,1.06-0.27c-0.04,0.21-0.09,0.42-0.12,0.63c-0.02,0.12,0.17,0.18,0.19,0.05c0.03-0.24,0.08-0.48,0.14-0.71
	c2.5-0.27,4.94,1.29,6.35,3.34c0.87,1.27,1.45,2.71,1.87,4.18c0.42,1.44,0.67,2.87,1.5,4.14c0.39,0.6,0.87,1.22,1.26,1.88
	c0.17,0.28,0.32,0.57,0.44,0.87c0.05,0.11,0.09,0.22,0.12,0.33c-0.34-0.1-0.67-0.21-1-0.34c-0.12-0.04-0.17,0.14-0.05,0.19
	c0.37,0.14,0.74,0.26,1.12,0.37c0.13,0.53,0.14,1.08-0.05,1.67c-0.04,0.12,0.15,0.17,0.19,0.05c0.19-0.57,0.18-1.12,0.06-1.66
	c0.2,0.06,0.4,0.11,0.61,0.16c0.43,0.11,0.87,0.19,1.31,0.26c0.29,0.05,0.59,0.08,0.89,0.11c0.82,0.08,1.65,0.1,2.47,0.05
	c1.19-0.07,2.37-0.28,3.52-0.64c1.55-0.48,3.02-1.25,4.28-2.28c1.26-1.04,2.63-2.5,2.63-4.24
	C1229.41,405.96,1229.11,405.12,1228.47,404.61z"/>
<path class="st9" d="M1205.59,428.1c-0.53-3.07-1.21-6.14-2.42-9.02c-1.26-3.02-3.16-5.54-5.47-7.85c-1.12-1.12-2.27-2.23-3.62-3.08
	c-1.37-0.87-2.91-1.36-4.49-1.65c-1.82-0.33-3.68-0.45-5.53-0.62c-0.83-0.08-1.88-0.35-2.69-0.06c-0.51,0.18-0.87,0.66-0.75,1.21
	c0.02,0.09,0.14,0.09,0.18,0.02c0.09-0.15,0.19-0.31,0.31-0.43c0.03-0.03,0.06-0.05,0.1-0.08c0.24,1.73,0.43,3.49,0.79,5.21
	c0.29,1.39,0.77,2.81,1.76,3.87c2.09,2.25,5.61,2,7.83,4.08c1.18,1.1,1.95,2.64,2.08,4.25c0.11,1.43-0.29,2.97,0.28,4.33
	c0.58,1.37,2.03,1.72,3.11,2.57c1.36,1.07,1.27,2.93,1.74,4.45c0.44,1.42,1.26,2.77,2.69,3.35c1.64,0.67,3.51,0.25,5.14-0.25
	c0.04-0.01,0.07-0.05,0.07-0.09C1206.87,434.91,1206.17,431.44,1205.59,428.1z"/>
<path class="st12" d="M1247.2,526.22c0-0.13,0-0.27-0.01-0.41c-0.01-0.2-0.01-0.39-0.02-0.59c-0.07-1.75-0.27-3.48-0.63-5.19
	c-0.21-0.98-0.48-1.95-0.81-2.92c-0.46-1.3-1.03-2.56-1.74-3.74c-3.33-10.15-15.15-19.65-25.08-25.99
	c-0.74-0.47-1.47-0.93-2.19-1.37c-1.35,1.13-2.76,1.87-4.43,2.53c-2.54,1-5.41,1.26-8.12,1.25c-3.08-0.01-6.18-0.45-9.2-1.01
	c-1.87-0.35-3.73-0.77-5.57-1.26c-3.68,0.86-7.41,1.49-11.17,1.22c-2.21-0.16-4.01-1.31-4.9-3.27l-1.75,0.92l-9.74,5.1l-7.36,3.86
	c-0.09,0.06-0.17,0.11-0.26,0.17c-2.12,1.4-4.26,2.79-6.25,4.36c-2,1.58-3.85,3.37-5.3,5.48c-1.35,1.96-2.36,4.12-3.16,6.36
	c-1.07,2.96-1.79,6.03-2.55,9.08c-0.28,1.11-0.57,2.22-0.88,3.32c-0.18,0.65-0.38,1.3-0.58,1.94c-0.78,2.43-1.78,4.75-3.03,6.96
	c-0.6,1.06-1.23,2.09-1.87,3.13c-0.68,1.1-1.35,2.21-1.98,3.33c-0.14,0.25-0.28,0.5-0.41,0.76c-0.98,1.84-1.83,3.76-2.28,5.81
	c-0.59,2.71-0.07,5.35-0.06,8.09c0,1.95-0.49,3.79-1.15,5.6c2.15,1.41,4.72,1.74,7.31,1.81c3.08,0.08,6.18-0.07,9.22,0.6
	c2.23,0.49,4.29,1.11,5.72,2.94c0.24,0.31,0.56,2.13,0.92,4.87c0.28,2.18,0.58,4.94,0.89,7.98c0.66,6.63,1.32,14.6,1.75,20.8
	c0.08,1.12,0.15,2.19,0.21,3.17c0.23,3.72,0.34,6.36,0.25,6.96c0.58-0.04,1.16-0.07,1.74-0.08c0.07,0,0.13,0,0.2,0
	c1.77-0.02,3.51,0.36,5.24,0.72c2.17,0.45,7.97,1.28,9.81,2.53c1.93,1.32,3.38,3.36,5.62,4.19c2.21,0.82,4.66,0.49,6.91,0.05
	c2.65-0.52,5.24-1.29,7.81-2.09c4.85-1.51,9.69-3.07,14.77-3.41c0.32-0.57,0.71-1.12,1.17-1.63c3.32-3.72,8.32-4.79,12.5-7.18
	c-0.02-0.04-0.03-0.08-0.02-0.13c0.39-3.7,1.01-7.36,1.73-11.01c0.17-0.85,0.34-1.7,0.51-2.54c0.02-0.08,0.04-0.17,0.05-0.25
	c0.11-0.53,0.22-1.05,0.33-1.58c0.04-0.17,0.07-0.33,0.11-0.5c0.03-0.15,0.06-0.3,0.1-0.46c0.08-0.38,0.16-0.75,0.24-1.12
	c0.98-4.54,1.98-9.07,2.74-13.65c0.2-1.19,0.43-2.39,0.51-3.6c0.06-0.84,0.05-1.68,0.19-2.51c0.13-0.77,0.46-1.5,0.78-2.21
	c0.1-0.21,0.16-0.41,0.38-0.5c0.26-0.1,0.69,0.05,0.96,0.04c0.8-0.04,1.53-0.13,2.34-0.05c1.29,0.12,2.42,0.19,3.63-0.38
	c0.41-0.19,0.81-0.41,1.21-0.62c0.59-0.05,1.18-0.12,1.77-0.21c1.08-0.17,5.24-0.91,5.54-0.94c2.08-0.25,4.2-0.18,6.11,0.78
	c0.07,0.03,0.14-0.01,0.15-0.09c0.31-3.56,0.09-7.13-0.05-10.7c-0.01-0.32-0.03-0.64-0.04-0.96c-0.02-0.45-0.03-0.9-0.04-1.35
	c-0.05-3.4,0.15-6.76,0.49-10.15c0.24-2.29,0.49-4.61,0.63-6.93c0.04-0.69,0.07-1.38,0.09-2.07c0-0.02,0-0.04,0-0.06
	c0.01-0.19,0.01-0.38,0.01-0.56C1247.21,527.18,1247.21,526.7,1247.2,526.22z"/>
<path class="st1" d="M1204.15,479.5c-0.13,0.72-21.09,0.88-21.09,0.88l-11.49,6.02c-0.5,6.81-3.17,13.45-2.83,20.35
	c0.21,4.4,2.17,8.41,2.77,12.74c0.59,4.3,0.07,8.66-0.24,12.96c-0.34,4.63-0.47,9.4,1.29,13.79c0.04,0.09,0.15,0.09,0.19,0
	c1.08-2.62,2.19-5.31,4.1-7.45c1.83-2.05,4.18-3.55,5.99-5.63c3.37-3.87,5.06-8.83,7.71-13.17c2.71-4.45,6.51-8.07,10.31-11.59
	c3.91-3.61,7.77-7.2,10.93-11.51c1.98-2.71,3.86-5.5,5.98-8.11c0.38-0.47,0.77-0.95,1.17-1.41
	C1211.4,482.58,1204.98,479.59,1204.15,479.5z"/>
<path class="st9" d="M1227.57,488.67c-0.4-1.92-0.88-3.82-1.41-5.7c-1.05-3.67-2.34-7.27-3.87-10.76
	c-3.09-7.06-7.13-13.7-11.99-19.68c-0.68-0.83-1.4-1.64-2.08-2.47c-0.43-0.52-0.75-1.05-0.92-1.71c-0.13-0.51-0.21-1.04-0.41-1.53
	c-0.6-1.48-2.37-2.67-3.84-1.52c-0.1,0.08,0.04,0.21,0.14,0.14c0.27-0.21,0.57-0.33,0.87-0.37c0.39,2.44,0.19,4.96-0.62,7.3
	c-0.73,2.11-1.99,4.1-1.85,6.41c0.12,2.14,1.14,4.08,1.53,6.17c0.22,1.18,0.14,2.32-0.14,3.49c-0.26,1.07-0.62,2.11-0.77,3.2
	c-0.13,0.93-0.07,1.87,0.33,2.73c0.4,0.88,1.04,1.61,1.61,2.37c0.71,0.95,1.12,1.89,1.26,3.07c0.11,0.98,0.15,1.99,0.65,2.87
	c0.89,1.54,2.68,2.29,4.32,2.76c2.07,0.59,4.29,0.98,5.75,2.73c0.81,0.97,1.41,2.09,2.33,2.98c0.77,0.75,1.69,1.52,2.82,1.54
	c0.64,0.01,1.26-0.08,1.9-0.04c0.6,0.04,1.2,0.16,1.78,0.35c1.21,0.39,3.13,0.54,4.02,1.45c0.06,0.06,0.16,0.01,0.17-0.07
	C1229.19,492.27,1228,490.72,1227.57,488.67z"/>
<path class="st9" d="M1191.68,426.92c-1.62-1.1-3.17-1.46-5.3-1.51c-1.67-0.04-5,0.11-5.65,2.15c-0.23,0.72-0.04,1.49,0.69,1.74
	c0.35,0.12,0.72,0.11,1.08,0.08c0.62-0.04,1.24-0.1,1.87-0.12c1.29-0.03,2.54,0.11,3.81,0.37c1.02,0.21,2.1,0.54,3.15,0.48
	c0.78-0.04,1.62-0.43,1.73-1.35C1193.16,427.95,1192.27,427.32,1191.68,426.92z"/>
<path class="st9" d="M1172.28,425.22c-1.62-1.1-3.17-1.46-5.3-1.51c-1.67-0.04-5,0.11-5.65,2.15c-0.23,0.72-0.04,1.49,0.69,1.74
	c0.35,0.12,0.72,0.11,1.08,0.08c0.62-0.04,1.24-0.1,1.87-0.12c1.29-0.03,2.54,0.11,3.81,0.37c1.02,0.21,2.1,0.54,3.15,0.48
	c0.78-0.04,1.62-0.43,1.73-1.35C1173.76,426.26,1172.87,425.62,1172.28,425.22z"/>
<path class="st13" d="M1205.16,603.08c-1.88-1.73-3.76-3.46-5.64-5.19c-1.67-1.54-3.35-3.1-4.65-4.97
	c-1.34-1.93-2.11-4.17-3.03-6.31c-0.88-2.06-1.96-4.03-3.12-5.95c-2.32-3.81-4.99-7.4-7.32-11.21c-2.43-3.97-4.29-8.22-5.74-12.64
	c-1.16-3.56-2.08-7.2-2.92-10.85c-0.05,0.05-0.11,0.09-0.17,0.12c1.76,7.58,3.85,15.13,7.75,21.92c2.26,3.95,4.99,7.61,7.42,11.45
	c1.21,1.91,2.36,3.87,3.33,5.92c1,2.11,1.71,4.35,2.85,6.39c1.22,2.19,3.01,3.98,4.83,5.68c2.08,1.93,4.18,3.85,6.27,5.77
	C1205.12,603.31,1205.26,603.17,1205.16,603.08z"/>
<path class="st14" d="M1196.69,400.79c-1.12-0.5-2.33-0.42-3.47-0.02c-0.6,0.21-1.17,0.49-1.71,0.81c-0.59,0.35-1.13,0.81-1.76,1.08
	c-0.77,0.32-1.58,0.15-2.38,0.04c-0.65-0.09-1.28-0.09-1.92,0.05c-1.16,0.25-2.23,0.91-2.95,1.86c-0.82,1.08-1.17,2.46-0.99,3.81
	c0.02,0.12,0.21,0.12,0.2,0c-0.21-1.6,0.34-3.25,1.55-4.34c0.59-0.53,1.32-0.91,2.09-1.1c0.86-0.21,1.67-0.12,2.53,0
	c0.66,0.09,1.33,0.14,1.96-0.13c0.69-0.29,1.27-0.8,1.91-1.17c1.45-0.83,3.22-1.42,4.84-0.7
	C1196.7,401.01,1196.8,400.84,1196.69,400.79z"/>
<path class="st14" d="M1213.67,426.38c-0.04-0.12-0.23-0.07-0.19,0.05c0.37,1.2,0.76,2.42,0.74,3.69c-0.02,1.28-0.49,2.33-1.37,3.25
	c-0.61,0.64-1.31,1.25-1.65,2.09c-0.36,0.9-0.25,2.02-0.98,2.75c-0.09,0.09,0.05,0.23,0.14,0.14c0.69-0.69,0.66-1.68,0.94-2.56
	c0.36-1.14,1.35-1.83,2.08-2.71C1215.01,431.12,1214.36,428.58,1213.67,426.38z"/>
<path class="st14" d="M1209.53,433.39c-0.13,0.55-0.26,1.11-0.39,1.66c-0.03,0.12,0.16,0.17,0.19,0.05
	c0.13-0.55,0.26-1.11,0.39-1.66C1209.75,433.32,1209.56,433.26,1209.53,433.39z"/>
<path class="st14" d="M1210.97,410.64c-0.87-3.89-4.12-6.81-8.07-7.29c-0.12-0.02-0.12,0.18,0,0.2c3.87,0.47,7.03,3.35,7.89,7.15
	C1210.81,410.81,1211,410.76,1210.97,410.64z"/>
<path class="st14" d="M1167.38,410.8c-2-0.37-4.05,0.03-5.75,1.14c-0.11,0.07-0.01,0.24,0.1,0.17c1.66-1.08,3.66-1.48,5.6-1.12
	C1167.45,411.01,1167.5,410.82,1167.38,410.8z"/>
<path class="st14" d="M1199.34,415.28c-0.09-0.09-0.23,0.05-0.14,0.14c1.12,1.17,1.57,2.83,1.19,4.4c-0.03,0.12,0.16,0.17,0.19,0.05
	C1200.97,418.23,1200.51,416.5,1199.34,415.28z"/>
<path class="st14" d="M1203.35,416.77c-0.06-0.11-0.23-0.01-0.17,0.1c0.62,1.2,0.43,2.67-0.47,3.68c-0.08,0.09,0.05,0.23,0.14,0.14
	C1203.81,419.61,1204.01,418.04,1203.35,416.77z"/>
<path class="st14" d="M1218.98,413.84c-0.12-0.63-0.21-1.33-0.48-1.92c-0.46-1.04-1.54-1.49-2.58-1.76
	c-0.75-0.2-1.39-0.42-1.57-1.27c-0.12-0.53-0.1-1.06-0.37-1.55c-0.47-0.87-1.46-1.38-2.44-1.28c-0.07,0.01-0.1,0.07-0.09,0.13
	c0,0,0,0,0,0c0,0.01,0.01,0.02,0.01,0.02c0,0.01,0.01,0.01,0.01,0.02c0,0,0,0,0,0c0.01,0.01,0.01,0.02,0.02,0.02
	c1.8,1.25,0.82,3.76,1.39,5.61c0.06,0.19,0.13,0.37,0.22,0.54c0.06,0.12,0.13,0.23,0.21,0.33c0.26,0.35,0.61,0.6,1,0.77
	c0.25,0.11,0.52,0.18,0.8,0.21c0.17,0.02,0.34,0.04,0.51,0.05c0.3,0.03,0.6,0.05,0.89,0.11c0.82,0.08,1.65,0.1,2.47,0.05
	C1218.99,413.89,1218.99,413.87,1218.98,413.84z"/>
<path class="st14" d="M1214.21,431.09c0.02-0.12-0.25,1.07-0.88,1.87c-0.4,0.51-1.3,1.2-1.81,2.04c-0.45,0.74-0.52,1.63-0.66,2.18
	c-0.17,0.65-0.89,1.35-1.24,1.66c-0.59,0.51-0.98,0.59-1.38,1.03c-0.5,0.55-0.22,1.65-0.54,2.32c-0.04-0.06-0.15-0.07-0.18,0.02
	c-0.24,0.93-0.51,1.85-0.73,2.79c-0.14,0.61,0.31,1.03,0.8,1.33c0.44,0.27,0.99,0.36,1.41,0.02c0.46-0.36,0.49-0.95,0.53-1.48
	c0.05-0.63,0.53-0.7,0.99-0.94c0.3-0.15,0.57-0.38,0.79-0.64c0.44-0.53,0.68-1.19,0.77-1.87c0.24-1.8-0.64-3.64,0.36-5.3
	c0.47-0.78,0.96-1.49,1.25-2.36c0.24-0.72,0.37-1.48,0.38-2.24C1214.15,431.38,1214.19,431.24,1214.21,431.09z"/>
<path class="st15" d="M1208.33,438.67c-0.83-1.48-2.41-2.18-4.07-1.91c-1.83,0.29-3.21,1.57-4.26,3.03c0.01,0.39-0.05,0.76-0.2,1.13
	c0.37,3.03,0.35,6.09-0.07,9.12c-0.01,0.06,0.05,0.12,0.11,0.11c3.62-0.52,6.94-2.9,8.45-6.26
	C1209.02,442.24,1209.25,440.29,1208.33,438.67z"/>
<path class="st16" d="M1208.15,449.01c-0.51-0.38-1.32-0.32-1.89-0.35c-0.42-0.02-0.85-0.02-1.27-0.02
	c0.02-0.24,0.04-0.47,0.06-0.71c0.03-0.43,0.06-0.86,0.08-1.28c0.01-0.17,0.06-0.4-0.09-0.54c-0.14-0.14-0.35-0.11-0.51-0.11
	c-0.5,0-0.85,0.02-1.34,0.1c-0.28,0.04-0.21,0.27-0.24,0.67c-0.03,0.51-0.07,1.27-0.1,2.07c-0.86,0.01-1.79,0.15-2.32,0.67
	c-0.32,0.32-0.46,0.76-0.58,1.2c-0.19,0.68-0.35,1.37-0.48,2.06c-0.26,1.33-0.44,2.69-0.52,4.05c-0.03,0.57-0.1,1.16-0.05,1.74
	c0.04,0.37,0.2,0.67,0.57,0.83c0.49,0.21,1.12,0.15,1.63,0.17c0.78,0.03,1.55,0.04,2.32,0.04c0.71-0.01,1.42-0.03,2.12-0.07
	c0.51-0.03,1.09,0.01,1.48-0.33c0.27-0.24,0.42-0.58,0.54-0.92c0.22-0.64,0.38-1.32,0.51-1.99c0.26-1.33,0.38-2.69,0.47-4.06
	c0.04-0.67,0.13-1.36,0.1-2.04C1208.62,449.76,1208.52,449.3,1208.15,449.01z M1204.48,452.85c0.17-0.25,0.14-0.78,0.18-1.08
	c0.05-0.42,0.11-0.83,0.15-1.25c0.21,0,0.42,0,0.63,0c0.38,0,0.78,0.12,0.85,0.57c0.03,0.19,0.02,0.38,0.01,0.57
	c-0.03,0.94-0.06,1.89-0.15,2.83c-0.08,0.88-0.19,1.77-0.4,2.61c-0.1,0.41-0.25,0.52-0.7,0.59c-0.24,0.04-0.5,0.03-0.74,0.04
	c-0.46,0.02-0.93,0.04-1.39,0.05c-0.47,0.01-0.93,0.02-1.4,0.02c-0.21,0-0.48,0.04-0.69-0.01c-0.55-0.12-0.58-0.44-0.54-0.84
	c0.07-0.87,0.25-1.74,0.37-2.6c0.12-0.87,0.22-1.75,0.48-2.59c0.17-0.56,0.44-1.04,1.02-1.24c0.2-0.07,0.41-0.1,0.63-0.12
	c-0.02,0.49-0.04,0.96-0.07,1.33c-0.02,0.35-0.25,1.11,0.24,1.3C1203.31,453.15,1204.26,453.16,1204.48,452.85z"/>
<path class="st14" d="M1231.14,464.45c-1.93-0.97-4.26-1.26-5.92-2.71c-1.73-1.51-2.28-3.89-2.45-6.08c-0.12-1.45-0.1-2.9-0.25-4.34
	c-0.11-1.09-0.29-2.23-1.06-3.07c-0.08-0.09-0.22,0.05-0.14,0.14c0.83,0.91,0.95,2.23,1.04,3.4c0.11,1.29,0.1,2.58,0.21,3.87
	c0.15,1.92,0.57,3.92,1.79,5.46c1.33,1.67,3.4,2.19,5.32,2.91c1.91,0.71,3.6,1.84,4.96,3.37c1.53,1.71,2.57,3.82,2.97,6.07
	c0.02,0.12,0.21,0.07,0.19-0.05C1237.11,469.61,1234.59,466.2,1231.14,464.45z"/>
<path class="st14" d="M1242.2,487.84c-1.34-0.93-2.84-1.42-4.35-2.01c-0.84-0.33-1.68-0.71-2.37-1.29
	c-0.76-0.63-1.24-1.48-1.61-2.39c-0.66-1.64-1.13-3.59-2.83-4.47c-0.11-0.06-0.21,0.11-0.1,0.17c1.67,0.87,2.11,2.82,2.77,4.43
	c0.61,1.49,1.54,2.55,2.98,3.26c1.44,0.71,3.02,1.08,4.42,1.86c1.44,0.8,2.7,1.92,3.68,3.25c1.09,1.47,1.83,3.18,2.13,4.99
	c0.02,0.12,0.21,0.07,0.19-0.05C1246.6,492.47,1244.79,489.65,1242.2,487.84z"/>
<path class="st14" d="M1249.16,487.86c-0.07-0.1-0.24-0.01-0.17,0.1c1.28,1.86,1.82,4.13,1.52,6.36c-0.02,0.12,0.17,0.18,0.19,0.05
	C1251.01,492.08,1250.46,489.76,1249.16,487.86z"/>
<path class="st14" d="M1257.2,488.97c-0.74-2.54-2.6-4.65-5.03-5.69c-0.11-0.05-0.21,0.12-0.1,0.17c2.39,1.02,4.22,3.08,4.94,5.58
	C1257.05,489.14,1257.24,489.09,1257.2,488.97z"/>
<path class="st14" d="M1223.32,487.54c-2.55,0.78-4.59-1.33-5.91-3.23c-0.07-0.1-0.24-0.01-0.17,0.1c1.36,1.97,3.49,4.13,6.13,3.32
	C1223.49,487.69,1223.44,487.5,1223.32,487.54z"/>
<path class="st12" d="M1235.33,651.86h-88.93c0-0.02,0-0.04,0-0.06h-12.99c0.02-0.15,0.05-0.3,0.08-0.46
	c0.63-2.84,1.44-5.65,2.36-8.43c0.54-1.62,1.11-3.23,1.72-4.82c0.29-0.76,0.58-1.53,0.89-2.29c0.02-0.04,0.03-0.08,0.05-0.12
	c0.3-0.75,0.6-1.51,0.92-2.26c0.16-0.4,0.33-0.8,0.5-1.2c0.26-0.62,0.52-1.23,0.78-1.84c0.35-0.81,0.7-1.62,1.05-2.42
	c0.2-0.46,0.41-0.92,0.61-1.39c0.72-1.64,1.45-3.27,2.17-4.91c1.67-3.77,3.33-7.55,4.84-11.39c1.79-4.53,3.36-9.14,4.5-13.84
	c-0.27-0.38-0.52-0.77-0.74-1.19c-0.06-0.11,0.12-0.21,0.18-0.1c0.19,0.35,0.4,0.7,0.62,1.02c0.21-0.89,0.41-1.79,0.59-2.68
	c0.03-0.12,0.22-0.12,0.2,0c-0.2,0.97-0.41,1.93-0.64,2.89c0.07,0.1,0.14,0.2,0.22,0.29c-0.03-0.14-0.05-0.29-0.08-0.43
	c-0.02-0.12,0.17-0.17,0.19-0.05c0.04,0.25,0.09,0.49,0.13,0.74c0.26,0.3,0.52,0.6,0.77,0.9c0.04,0.04,0.03,0.08,0,0.12
	c0.38,0.45,0.78,0.87,1.21,1.28c0.09,0.08-0.06,0.22-0.15,0.14c-0.63-0.6-1.21-1.25-1.74-1.95c0.64,3.44,1.24,6.88,1.8,10.34
	c2.33-2.45,4.55-5.16,6.12-8.14c1.48-2.8,2.86-5.64,3.77-8.64c0.29,0.05,0.59,0.11,0.88,0.17c3.67,0.7,7.37,1.23,11.11,1.59
	c6.98,0.67,14.03,0.92,20.94,2.02c6.69,1.06,10.83,4.35,17,6.9C1228.79,606.85,1235.39,648.61,1235.33,651.86z"/>
<path class="st13" d="M1151.41,532.71c0.92-2.95,1.55-6.01,1.47-9.12c0-0.13-0.2-0.13-0.2,0c0.3,11.18-8.62,20.69-6.98,31.99
	c0.38,2.62,1.36,5.13,3.06,7.17c0.08,0.1,0.22-0.04,0.14-0.14c-3.28-3.92-3.7-9.38-2.76-14.22
	C1147.2,542.95,1149.76,537.97,1151.41,532.71z"/>
<path class="st13" d="M1215,524.72c-0.01-0.12-0.2-0.13-0.2,0c0.15,2.1-0.42,4.12-0.97,6.12c-0.55,2-0.95,3.97-1,6.06
	c-0.05,2.18,0.13,4.37-0.01,6.55c-0.14,2.13-0.67,4.2-1.1,6.29c-0.45,2.19-0.77,4.42-0.35,6.63c0.02,0.12,0.21,0.07,0.19-0.05
	c-0.78-4.17,1.04-8.2,1.42-12.31c0.2-2.15,0.04-4.3,0.05-6.46c0.01-2.17,0.33-4.23,0.91-6.32
	C1214.51,529.1,1215.16,526.95,1215,524.72z"/>
<path class="st10" d="M1207.02,440.99c-0.94-1.11-2.52-0.62-3.38,0.31c-0.57,0.61-0.92,1.36-1.31,2.1c-0.4,0.77-1.2,2.36-2.31,1.72
	c-0.11-0.06-0.21,0.11-0.1,0.17c1.41,0.81,2.34-1.33,2.81-2.26c0.41-0.79,0.88-1.62,1.65-2.12c0.78-0.5,1.86-0.53,2.49,0.22
	C1206.97,441.22,1207.11,441.08,1207.02,440.99z"/>
<path class="st15" d="M1189.58,463.64c-0.04-0.04-0.11-0.03-0.15,0.02c-2.07,2.63-3.89,4.35-6.57,6.23
	c0.01,0.44,0.03,0.88,0.04,1.33c0.03,1.03,0.06,2.05,0.09,3.08c0.12-0.15,0.21-0.31,0.29-0.48c0.18-0.39,0.24-0.83,0.6-1.11
	c0.54-0.4,1.29-0.35,1.9-0.58c0.48-0.18,0.82-0.52,1.01-1c0.23-0.61,0.21-1.28,0.38-1.91c0.22-0.83,0.86-1.41,1.47-1.98
	C1189.56,466.39,1190.8,464.82,1189.58,463.64z"/>
<path class="st10" d="M1187.38,486.56c-2.2-0.69-4.49-1.04-6.79-1.04c-0.13,0-0.13,0.2,0,0.2c2.29,0.01,4.55,0.35,6.74,1.03
	C1187.45,486.78,1187.5,486.59,1187.38,486.56z"/>
<path class="st10" d="M1202.11,486.18c-2.66-0.77-5.64-0.86-8,0.79c-0.1,0.07,0,0.24,0.1,0.17c2.32-1.62,5.23-1.53,7.85-0.77
	C1202.18,486.41,1202.23,486.22,1202.11,486.18z"/>
<path class="st1" d="M1136.33,571.29c-2.84-3.58-22.9-37.71-31.93-55.07c-1.07,0.6-5.74,3.26-8.15,4.46
	c5.28,16.81,16.7,51.16,17.79,54.51c1.25,3.86,2.48,7.77,4.33,11.39c1.67,3.27,3.88,6.28,6.86,8.48c2.78,2.06,6.39,3.48,9.9,3.01
	c3.72-0.5,6.45-3.86,8.36-6.83c2.02-3.15,3.38-6.67,4.58-10.2c0.3-0.87,0.59-1.75,0.88-2.62
	C1149.05,578.47,1139.74,575.58,1136.33,571.29z"/>
<path class="st1" d="M1107.06,523.97c-0.04-0.35-0.19-0.71-0.28-1.05c-0.11-0.4-0.21-0.81-0.32-1.21c-0.22-0.82-0.44-1.64-0.65-2.46
	c0.37-4.22,0.62-8.48-0.15-12.66c-0.44-2.4-1.32-4.64-2.21-6.91c-0.83-2.11-1.89-5.94-3.06-7.58c-0.4-0.56-1.05-1.47-1.86-1.32
	c-0.71,0.14-0.85,0.96-0.84,1.56c0.03,2.38,1.31,7.25,1.7,9.62c0.29,1.75,0.54,3.51,0.83,5.26c-0.96-1.45-1.98-2.86-3.17-4.16
	c-1.21-1.32-2.45-2.61-3.7-3.9c-2.26-3.17-1.02-1.71-3.28-4.88c-2.52-3.53-5.02-7.1-7.93-10.33c-0.72-0.8-1.47-1.58-2.25-2.33
	c-0.65-0.62-1.32-1.31-2.16-1.65c-1.33-0.53-2.48-0.31-1.98,1.3c0.27,0.89,0.99,1.63,1.55,2.35c0.74,0.95,1.48,1.9,2.21,2.86
	c1.4,1.83,2.77,3.68,4.13,5.54c2.6,3.58,1.63,2.59,4.09,6.27c-0.49,0.55-0.45,0.47-0.93,1.03c-2.7-3.44-9.5-14.11-12.69-17.84
	c-0.68-0.79-2.12-3.23-3.32-2.43c-0.77,0.52-0.67,1.44-0.5,2.23c0.25,1.14,9.12,14.06,10.67,16.22c0.86,1.19,1.67,2.41,2.45,3.64
	c0.25,0.4,0.5,0.8,0.75,1.2c-0.52,0.66-0.31,0.6-0.81,1.27c-2.35-3.08-10.15-11.15-12.6-12.81c-0.57-0.39-1.74-0.73-2.1,0.05
	c-0.37,0.79-0.58,1.54-0.15,2.28c1.1,1.92,2.37,2.99,3.43,4.5c0.01,0.02,0.03,0.04,0.04,0.06c-0.11-0.06-0.22-0.11-0.34-0.16
	c-0.69-0.31-1.37-0.34-1.7,0.45c-0.31,0.75-0.09,1.66,0.22,2.37c0.4,0.91,4.05,4.72,10.33,9.9c5.54,4.57,16.25,14.78,18.74,16.76
	c-0.19,0.05-0.37,0.1-0.56,0.15c-0.12,0.03-0.07,0.22,0.05,0.19c0.23-0.06,0.47-0.12,0.7-0.18c0.41,0.32,0.81,0.65,1.22,0.98
	c0.1,0.08,0.24-0.06,0.14-0.14c-0.37-0.3-0.75-0.6-1.13-0.9c1.1-0.3,2.18-0.63,3.26-1c1.26-0.44,2.55-0.89,3.75-1.48
	C1106.94,524.48,1107.09,524.32,1107.06,523.97z"/>
<path class="st10" d="M1081.46,505.74c-2.13-3.03-4.96-5.5-8.26-7.19c-0.11-0.06-0.21,0.11-0.1,0.17c3.26,1.67,6.08,4.12,8.19,7.12
	C1081.36,505.94,1081.53,505.85,1081.46,505.74z"/>
<path class="st10" d="M1097.96,514.28c-0.96-0.93-2.12-1.5-3.41-1.84c-1.59-0.42-3.21-0.61-4.71-1.33
	c-1.52-0.73-2.84-1.81-3.87-3.14c-0.08-0.1-0.21,0.04-0.14,0.14c1.7,2.2,4.06,3.52,6.75,4.1c1.47,0.32,2.97,0.57,4.24,1.41
	c1.06,0.7,1.91,1.69,2.48,2.82c0.67,1.33,0.94,2.85,0.71,4.32c-0.02,0.12,0.17,0.18,0.19,0.05
	C1100.58,518.42,1099.69,515.95,1097.96,514.28z"/>
<path class="st1" d="M1244,559.85c-0.79-0.03-3.31-0.22-4.1-0.12c-0.3,0.04-4.46,0.78-5.54,0.94c-0.59,0.09-1.18,0.17-1.77,0.21
	c-0.4,0.21-0.8,0.43-1.21,0.62c-1.21,0.57-2.34,0.51-3.63,0.38c-0.81-0.08-1.53,0.02-2.33,0.05c-0.27,0.01-0.7-0.14-0.97-0.04
	c-0.23,0.09-0.29,0.29-0.38,0.5c-0.32,0.71-0.65,1.44-0.78,2.21c-0.14,0.83-0.13,1.67-0.19,2.51c-0.09,1.2-0.32,2.41-0.51,3.6
	c-0.48,2.94-1.07,5.86-1.69,8.78c1.07,12.34,2.12,23.54,2.26,25.47c0.28,4.04,0.77,30.03,1.71,38.2c0.34,2.95,0.69,5.91,1.06,8.86
	h14c0.14-21.56,4.5-57.87,4.52-61.52C1244.45,589.18,1244.89,573.02,1244,559.85z"/>
<path class="st10" d="M1138.41,577.21c-2.06-4.73-4.34-9.36-6.83-13.87c-0.06-0.11-0.23-0.01-0.17,0.1
	c2.49,4.52,4.77,9.14,6.83,13.87C1138.29,577.42,1138.46,577.33,1138.41,577.21z"/>
<path class="st10" d="M1234.69,603.41c-1.64-4.64-4.05-8.98-7.14-12.82c-0.08-0.1-0.22,0.04-0.14,0.14
	c3.06,3.81,5.46,8.12,7.09,12.73C1234.54,603.58,1234.73,603.53,1234.69,603.41z"/>
<path class="st13" d="M1195.54,605.17c-2.71,0.35-5.45,0.34-8.18,0.41c-2.68,0.08-5.31,0.33-7.93,0.9
	c-1.33,0.29-2.66,0.59-4.01,0.73c-1.41,0.14-2.83,0.13-4.24,0.06c-2.77-0.13-5.54-0.33-8.31-0.5c-3.16-0.19-6.32-0.39-9.47-0.58
	c-0.13-0.01-0.13,0.19,0,0.2c5.61,0.35,11.21,0.71,16.82,1.04c2.71,0.16,5.33,0.09,8-0.47c1.31-0.28,2.61-0.59,3.93-0.78
	c1.39-0.2,2.79-0.3,4.19-0.35c3.07-0.12,6.16-0.06,9.22-0.45C1195.67,605.35,1195.67,605.16,1195.54,605.17z"/>
<path class="st13" d="M1213.36,601.72c-2.23,1.18-4.72,1.75-7.24,1.66c-0.13,0-0.13,0.19,0,0.2c2.56,0.09,5.08-0.49,7.34-1.68
	C1213.57,601.83,1213.47,601.66,1213.36,601.72z"/>
<path class="st17" d="M1170.19,635.49c-3.1-0.15-6.2,0.2-9.3,0.24c-3.11,0.04-6.23-0.23-9.33-0.53c-4.07-0.38-8.14-0.93-12.14-1.78
	c-0.31,0.75-0.62,1.5-0.92,2.26c0.74,0.33,1.5,0.63,2.28,0.88c2.95,0.96,6.03,1.59,9.08,2.14c6.12,1.12,12.37,1.72,18.59,1.67
	c1.35-0.01,2.71-0.09,4.02-0.44c1.05-0.29,2.45-0.78,2.98-1.82C1176.7,635.68,1171.38,635.55,1170.19,635.49z M1161.95,626.7
	c2.72-0.95,5.45-2.09,7.85-3.72c1.92-1.31,3.79-3.13,4.25-5.5c0.19-0.96,0.14-2.15-1-2.44c-1.26-0.32-2.49,0.76-3.47,1.37
	c-2.77,1.73-5.57,3.41-8.39,5.05c-2.78,1.61-5.56,3.22-8.43,4.65c-3.85,1.92-7.91,3.23-12.05,4.28c-0.26,0.61-0.52,1.22-0.78,1.84
	c4.4-0.37,8.75-1.64,12.98-2.81C1155.93,628.58,1158.98,627.74,1161.95,626.7z M1163.02,646.85c-1.13-0.68-2.43-1.12-3.64-1.65
	c-1.36-0.6-2.73-1.19-4.09-1.79c-2.67-1.17-5.33-2.33-8-3.5c-2.91-1.27-6.03-2.47-8.84-4.1c-0.3,0.76-0.6,1.52-0.89,2.29
	c1.55,1.49,3.22,2.86,4.87,4.17c4.06,3.23,8.5,6.13,13.51,7.62c1.22,0.36,2.47,0.64,3.73,0.81c1.05,0.14,2.18,0.31,3.22,0.04
	c0.75-0.19,1.44-0.67,1.56-1.48C1164.63,648.22,1163.85,647.35,1163.02,646.85z M1156.67,615.54c1.33-1.78,2.44-3.74,3.06-5.88
	c0.2-0.7,0.37-1.67-0.45-2.04c-0.79-0.35-1.72,0.16-2.35,0.6c-0.9,0.63-1.63,1.46-2.35,2.28c-0.87,1-1.75,1.99-2.63,2.98
	c-1.78,2.01-3.58,4-5.38,5.98c-0.67,0.74-1.35,1.47-2.03,2.21c-0.72,1.63-1.45,3.27-2.17,4.91c-0.2,0.46-0.41,0.92-0.61,1.39
	c1.71-0.94,3.37-1.97,4.96-3.09C1150.4,622.27,1153.95,619.17,1156.67,615.54z"/>
<path class="st17" d="M1213.05,591.78c2.04-0.99,4.13-2.04,5.91-3.46c-0.18,0.85-0.35,1.69-0.51,2.54
	c-1.25,1.49-2.62,2.89-4.09,4.17c-2.56,2.22-5.49,4.27-8.63,5.58c-1.1,0.46-3.36,1.2-4.15-0.17c-0.68-1.19,0.53-2.66,1.37-3.39
	c1.28-1.12,2.92-1.79,4.44-2.52C1209.27,593.6,1211.16,592.69,1213.05,591.78z"/>
<path class="st17" d="M1219.21,586.44c0.04,0.01,0.09,0.02,0.14,0.04c-0.11,0.53-0.22,1.05-0.33,1.58
	c-2.58,0.89-5.33,1.32-8.07,1.24c-3.17-0.09-6.32-0.82-9.18-2.2c-1.19-0.58-2.58-1.39-2.65-2.87c-0.07-1.31,1.06-2.04,2.28-1.8
	c0.74,0.14,1.37,0.59,1.97,1.02c0.72,0.51,1.46,0.99,2.24,1.4c1.53,0.82,3.17,1.43,4.87,1.81c2.89,0.66,5.9,0.68,8.79,0.03
	c-0.03-0.02-0.05-0.04-0.08-0.06c-4.46-1.2-8.42-3.84-11.63-7.13c-2.97-3.05-5.67-6.82-6.41-11.09c-0.18-1.02-0.23-2.07-0.13-3.1
	c0.07-0.76,0.13-2.01,0.93-2.38c0.67-0.32,1.45,0.11,1.98,0.52c0.83,0.64,1.53,1.52,2.17,2.34
	C1211.06,572.12,1212.73,581.37,1219.21,586.44z"/>
<path class="st17" d="M1219.79,584.4c-0.08,0.37-0.16,0.75-0.24,1.12c-0.03,0.15-0.06,0.3-0.1,0.46c-2.15-2.62-3.9-5.56-5.18-8.7
	c-1.45-3.55-2.43-7.48-2.45-11.33c-0.01-1.02,0.08-2.04,0.38-3.02c0.24-0.79,0.63-1.74,1.3-2.26c0.63-0.49,1.2-0.21,1.54,0.44
	c0.44,0.83,0.73,1.75,0.94,2.66c0.91,3.9,0.35,7.97,0.97,11.91C1217.43,578.72,1218.4,581.67,1219.79,584.4z"/>
<path class="st17" d="M1161.89,491.53l-7.36,3.86c-0.09,0.06-0.17,0.11-0.26,0.17c-0.34,0.88,0.08,1.71,0.92,2.08
	c0.99,0.44,2.13,0.26,3.14-0.01c1.4-0.38,2.74-0.98,4.11-1.45c2.47-0.83,5.02-1.45,7.59-1.86c-0.06,0.08-0.12,0.17-0.18,0.25
	c-4.81,2.05-9.58,4.67-12.17,9.38c-0.61,1.1-1.2,2.42-1.3,3.68c-0.06,0.77,0.13,1.99,1.08,2.12c0.55,0.08,1-0.27,1.33-0.66
	c0.51-0.6,0.94-1.29,1.39-1.93c1.06-1.51,2.12-3.01,3.18-4.51c1.14-1.62,2.26-3.26,3.43-4.86c0.79-1.07,1.67-2.12,2.81-2.8
	c-0.14,0.27-0.27,0.54-0.38,0.82c-4.58,5.12-8.8,11.2-8.46,18.34c0.07,1.43,0.3,3.19,1.67,3.98c0.53,0.31,1.2,0.44,1.79,0.24
	c0.69-0.23,1.06-0.88,1.33-1.52c0.71-1.69,0.75-3.56,0.78-5.37c0.04-2.05,0.17-4.08,0.47-6.11c0.33-2.19,0.84-4.36,1.51-6.47
	c0.32-1.01,0.68-2.03,1.09-3.01c0.27-0.3,0.54-0.59,0.81-0.88c0.13-0.62,0.26-1.24,0.38-1.87
	C1167.83,492.26,1164.8,491.42,1161.89,491.53z"/>
<path class="st17" d="M1238.02,516.64c0.86,1.37,1.82,2.67,2.87,3.9c1.85,2.16,3.98,4.07,6.32,5.67c0-0.13,0-0.27-0.01-0.41
	c-0.01-0.2-0.01-0.39-0.02-0.59c-1.44-2.26-2.66-4.66-3.84-7.06c-0.79-1.6-1.56-3.21-2.39-4.8c-0.42-0.82-0.86-1.62-1.32-2.42
	c-0.37-0.64-0.71-1.33-1.19-1.89c-0.29-0.34-0.69-0.7-1.16-0.72c-0.49-0.02-0.82,0.35-0.99,0.77c-0.48,1.19-0.35,2.61-0.02,3.82
	C1236.64,514.24,1237.29,515.48,1238.02,516.64z M1236.72,520.52c-1.49-1.54-2.98-3.07-4.47-4.61c-0.47-0.49-0.96-1.02-1.7-0.99
	c-0.56,0.03-1.08,0.35-1.44,0.77c-0.96,1.12-0.52,2.65,0.19,3.78c1.84,2.92,5.03,4.95,8.15,6.26c1.97,0.82,4.03,1.39,6.11,1.85
	c1,0.22,2.02,0.44,3.03,0.59c0.19,0.03,0.4,0.05,0.6,0.05c0.01-0.19,0.01-0.38,0.01-0.56c-2.3-0.4-4.47-1.62-6.27-3.1
	C1239.42,523.33,1238.07,521.91,1236.72,520.52z M1229.41,530.07c-2.29-0.37-4.68-0.51-7-0.23c-0.9,0.11-1.72,0.49-1.98,1.43
	c-0.26,0.92,0.13,1.83,0.71,2.54c1.34,1.64,3.43,2.52,5.43,3.05c2.14,0.57,4.45,0.99,6.67,0.97c2.12-0.02,4.21-0.54,6.14-1.42
	c2.21-1,4.21-2.46,5.95-4.15c0.62-0.6,1.21-1.24,1.76-1.91c0.04-0.69,0.07-1.38,0.09-2.07c-3.2,1.8-6.84,2.76-10.52,2.76
	C1234.2,531.04,1231.83,530.47,1229.41,530.07z"/>
<path class="st18" d="M1162.41,376.78c-0.63-4.29-1.96-8.49-3.88-12.38c-3.76-7.6-9.93-13.9-17.75-17.3
	c-3.79-1.65-7.88-2.6-12.01-2.69c-4.83-0.1-9.58,1.05-14.08,2.73c-4.08,1.53-8.06,3.44-11.77,5.74c-3.42,2.13-6.62,4.65-9.29,7.68
	c-2.69,3.05-4.77,6.6-5.95,10.49c-1.21,3.97-1.5,8.18-1.09,12.3c0.42,4.25,1.57,8.42,3.23,12.35c0.8,1.89,1.58,3.84,2.77,5.51
	c6.61,9.24,14.66,14.61,22.23,15.37c4.81,0.49,9.67-0.13,14.34-1.33c2.34-0.61,4.62-1.41,6.9-2.19c0.31-0.1,0.63-0.21,0.95-0.16
	c0.26,0.04,0.5,0.18,0.72,0.32c2.18,1.34,4.35,2.68,6.53,4.01c1.07,0.65,2.19,1.23,3.28,1.84c0.32,0.18,0.63,0.16,0.65-0.26
	c0.03-0.69-0.15-1.35-0.25-2.02c-0.16-1.01-0.35-2.02-0.55-3.02c-0.18-0.9-0.38-1.79-0.56-2.68c-0.17-0.83-0.45-1.72-0.5-2.57
	c-0.03-0.15-0.05-0.31-0.01-0.45c0.05-0.16,0.19-0.28,0.32-0.39c1.12-0.95,2.24-1.88,3.28-2.91c0.5-0.49,3.33-2.74,3.45-3.44
	c0.01-0.05,0.04-0.09,0.07-0.13c2.87-3.34,5.79-6.84,7.57-10.91C1162.86,386.04,1163.08,381.33,1162.41,376.78z"/>
<path class="st19" d="M547.85,707.44c13.18,6.4,15,7.66,15,22.66c0.03,64.81,0.09,129.62-0.05,194.43
	c-1.04,28.29,17.68,47.86,46.23,47.03c238.11-0.09,476.23-0.05,714.34,0.02c12.8,0.01,24.62-2.23,34.29-11.3
	c9.07-8.52,13.26-19.21,13.27-31.46c0.06-78.16,0.22-156.32-0.07-234.48c-0.1-26.13-18.18-42.52-45.59-42.52
	c-184.37-0.02-368.74-0.01-553.1-0.01c-54.07,0-108.15,0.2-162.22-0.1c-19.73-0.11-34.83,6.76-43.77,24.96
	c-3.27,6.65-8.93,9.17-15.94,9.22c-10.62,0.08-21.24,0.02-31.86,0.02c-0.53,0.8-1.06,1.61-1.59,2.41
	C527.1,694.76,536.96,702.16,547.85,707.44z"/>
<g>
	<g>
		<path class="st20" d="M619.98,626.6h9.29v1.57h-11.06v-17.36h10.76v1.57h-9v5.98h8.41v1.54h-8.41V626.6z"/>
		<path class="st20" d="M634.13,616.69c0.05,0.61,0.1,1.47,0.1,1.96h0.05c0.64-1.32,2.3-2.26,3.92-2.26c2.92,0,4.36,1.89,4.36,4.73
			v7.04h-1.67v-6.35c0-2.4-0.71-4.02-3.11-4.02c-1.77,0-3.48,1.42-3.48,4.49v5.88h-1.67v-8.95c0-0.61-0.02-1.74-0.1-2.53H634.13z"/>
		<path class="st20" d="M652.05,618.09h-3.24v6.69c0,1.72,0.71,2.11,1.72,2.11c0.47,0,1.01-0.15,1.45-0.37l0.07,1.45
			c-0.59,0.22-1.2,0.34-1.96,0.34c-1.23,0-2.94-0.54-2.94-3.07v-7.16h-2.38v-1.4h2.38v-3.24h1.67v3.24h3.24V618.09z"/>
		<path class="st20" d="M665.07,622.87h-9.51c0.05,2.31,1.84,4.17,4.19,4.17c1.72,0,3.04-0.96,3.68-1.99l1.25,0.98
			c-1.35,1.72-3.04,2.43-4.93,2.43c-3.41,0-5.93-2.57-5.93-6.03c0-3.46,2.53-6.03,5.79-6.03c3.6,0,5.49,2.55,5.49,5.69
			C665.1,622.31,665.1,622.58,665.07,622.87z M663.4,621.54c-0.1-2.16-1.42-3.75-3.8-3.75c-2.23,0-3.87,1.79-4.02,3.75H663.4z"/>
		<path class="st20" d="M668.58,616.69h1.59c0.05,0.61,0.1,1.47,0.1,1.96h0.05c0.64-1.32,2.06-2.26,3.68-2.26
			c0.42,0,0.76,0.02,1.1,0.12l-0.22,1.57c-0.2-0.07-0.74-0.15-1.18-0.15c-1.77,0-3.36,1.28-3.36,4.34v5.88h-1.67v-8.95
			C668.68,618.6,668.65,617.47,668.58,616.69z"/>
		<path class="st20" d="M689.69,628.17h-1.77v-7.48l-6.5-9.88h2.21l5.22,8.41l5.27-8.41h2.06l-6.5,9.88V628.17z"/>
		<path class="st20" d="M703.66,628.46c-3.55,0-6.11-2.57-6.11-6.03c0-3.46,2.55-6.03,6.11-6.03c3.58,0,6.13,2.57,6.13,6.03
			C709.79,625.89,707.24,628.46,703.66,628.46z M703.66,617.79c-2.65,0-4.34,2.06-4.34,4.63c0,2.58,1.69,4.61,4.34,4.61
			c2.67,0,4.37-2.04,4.37-4.61C708.03,619.85,706.34,617.79,703.66,617.79z"/>
		<path class="st20" d="M721.71,628.17c-0.05-0.61-0.1-1.47-0.1-1.96h-0.05c-0.64,1.32-2.3,2.26-3.92,2.26
			c-2.92,0-4.37-1.89-4.37-4.73v-7.04h1.67v6.35c0,2.4,0.71,4.02,3.11,4.02c1.77,0,3.48-1.42,3.48-4.49v-5.88h1.67v8.95
			c0,0.61,0.02,1.74,0.1,2.53H721.71z"/>
		<path class="st20" d="M727.52,616.69h1.59c0.05,0.61,0.1,1.47,0.1,1.96h0.05c0.64-1.32,2.06-2.26,3.68-2.26
			c0.42,0,0.76,0.02,1.1,0.12l-0.22,1.57c-0.2-0.07-0.74-0.15-1.18-0.15c-1.77,0-3.36,1.28-3.36,4.34v5.88h-1.67v-8.95
			C727.62,618.6,727.59,617.47,727.52,616.69z"/>
		<path class="st20" d="M751.25,625.17h0.02l5.81-14.37h2.7v17.36h-1.77v-15.08h-0.05l-6.28,15.08h-0.93l-6.28-15.08h-0.05v15.08
			h-1.77v-17.36h2.7L751.25,625.17z"/>
		<path class="st20" d="M774.72,622.87h-9.51c0.05,2.31,1.84,4.17,4.19,4.17c1.72,0,3.04-0.96,3.68-1.99l1.25,0.98
			c-1.35,1.72-3.04,2.43-4.93,2.43c-3.41,0-5.93-2.57-5.93-6.03c0-3.46,2.53-6.03,5.79-6.03c3.6,0,5.49,2.55,5.49,5.69
			C774.74,622.31,774.74,622.58,774.72,622.87z M773.05,621.54c-0.1-2.16-1.42-3.75-3.8-3.75c-2.23,0-3.87,1.79-4.02,3.75H773.05z"
			/>
		<path class="st20" d="M784.43,619.41c-0.49-0.96-1.54-1.62-2.82-1.62c-1.2,0-2.43,0.51-2.43,1.79c0,1.08,0.86,1.57,2.75,1.96
			c2.7,0.56,3.97,1.57,3.97,3.36c0,2.62-2.21,3.56-4.32,3.56c-1.74,0-3.48-0.69-4.54-2.23l1.32-0.98c0.59,1,1.84,1.79,3.19,1.79
			c1.42,0,2.7-0.51,2.7-2.01c0-1.2-1.2-1.69-3.38-2.21c-1.35-0.32-3.29-0.91-3.29-3.09c0-2.33,2.01-3.33,4.09-3.33
			c1.59,0,3.29,0.76,4.02,2.06L784.43,619.41z"/>
		<path class="st20" d="M795.31,619.41c-0.49-0.96-1.54-1.62-2.82-1.62c-1.2,0-2.43,0.51-2.43,1.79c0,1.08,0.86,1.57,2.75,1.96
			c2.7,0.56,3.97,1.57,3.97,3.36c0,2.62-2.21,3.56-4.32,3.56c-1.74,0-3.48-0.69-4.54-2.23l1.32-0.98c0.59,1,1.84,1.79,3.19,1.79
			c1.42,0,2.7-0.51,2.7-2.01c0-1.2-1.2-1.69-3.38-2.21c-1.35-0.32-3.29-0.91-3.29-3.09c0-2.33,2.01-3.33,4.09-3.33
			c1.59,0,3.29,0.76,4.02,2.06L795.31,619.41z"/>
		<path class="st20" d="M807.33,620.76c0-1.99-1.08-2.97-3.07-2.97c-1.35,0-2.6,0.54-3.41,1.35l-0.93-1.1
			c0.93-0.93,2.55-1.64,4.51-1.64c2.48,0,4.46,1.37,4.46,4.17v5.03c0,0.88,0.07,1.94,0.2,2.57h-1.5c-0.1-0.56-0.17-1.25-0.17-1.86
			h-0.05c-1.05,1.52-2.33,2.16-4.17,2.16c-1.74,0-3.97-0.93-3.97-3.48c0-3.53,3.9-3.85,8.09-3.85V620.76z M806.84,622.43
			c-2.72,0-5.88,0.29-5.88,2.48c0,1.64,1.4,2.18,2.7,2.18c2.35,0,3.68-1.77,3.68-3.8v-0.86H806.84z"/>
		<path class="st20" d="M813.8,630.47c0.91,1.18,2.65,2.11,4.39,2.11c3.29,0,4.49-2.04,4.49-4.51v-2.16h-0.05
			c-0.88,1.42-2.67,2.26-4.34,2.26c-3.58,0-5.93-2.48-5.93-5.84c0-3.26,2.35-5.93,5.93-5.93c1.67,0,3.43,0.81,4.34,2.28h0.05v-1.99
			h1.67v11.38c0,2.5-1.15,5.98-6.23,5.98c-2.11,0-4.17-0.88-5.52-2.3L813.8,630.47z M818.46,626.74c2.58,0,4.41-1.81,4.41-4.46
			c0-2.4-1.84-4.49-4.41-4.49c-2.77,0-4.34,2.08-4.34,4.49C814.12,624.68,815.69,626.74,818.46,626.74z"/>
		<path class="st20" d="M839.1,622.87h-9.51c0.05,2.31,1.84,4.17,4.19,4.17c1.72,0,3.04-0.96,3.68-1.99l1.25,0.98
			c-1.35,1.72-3.04,2.43-4.93,2.43c-3.41,0-5.93-2.57-5.93-6.03c0-3.46,2.53-6.03,5.79-6.03c3.6,0,5.49,2.55,5.49,5.69
			C839.13,622.31,839.13,622.58,839.1,622.87z M837.44,621.54c-0.1-2.16-1.42-3.75-3.8-3.75c-2.23,0-3.87,1.79-4.02,3.75H837.44z"/>
	</g>
</g>
<g>
</g>
<g>
</g>
<g>
</g>
<g>
</g>
<g>
</g>
<g>
</g>
</svg>
