<?xml version="1.0" encoding="utf-8"?>
<!-- Generator: Adobe Illustrator 26.1.0, SVG Export Plug-In . SVG Version: 6.00 Build 0)  -->
<svg version="1.1" id="Layer_1" xmlns="http://www.w3.org/2000/svg" xmlns:xlink="http://www.w3.org/1999/xlink" x="0px" y="0px"
	 viewBox="0 0 1080 1130" style="enable-background:new 0 0 1080 1130;" xml:space="preserve">
<style type="text/css">
	.st0{fill:none;stroke:#010101;stroke-width:0.425;stroke-miterlimit:10;}
	.st1{fill:#F49670;}
	.st2{fill:#8A5147;}
	.st3{fill:#F0E0D6;}
	.st4{fill:#3C2623;}
	.st5{fill:#D3754E;}
	.st6{fill:#FFFFFF;}
	.st7{fill:#5C3731;}
	.st8{fill:#BCACA3;}
	.st9{fill:#4B302E;}
	.st10{fill:#B25636;}
	.st11{fill:#D2804E;}
	.st12{fill:#FEC358;}
	.st13{fill:#C5863B;}
	.st14{fill:#704945;}
	.st15{fill:#F5AA6E;}
	.st16{fill:#ECDBD2;}
	.st17{fill:#FFD78F;}
	.st18{fill:#F0EBE9;}
	.st19{fill:#FFD95B;stroke:#231F20;stroke-width:0.5;stroke-miterlimit:10;}
	.st20{fill:#141717;}
</style>
<path class="st0" d="M-6.73,1003.94c16.84-15.61,33.16-29.88,52.53-45.18c9.18-6.12,17.34-12.24,26.51-18.36
	c34.67-20.4,68.33-35.69,107.08-46.91c6.12-2.04,13.26-2.04,19.38-4.08c37.73-13.26,75.47-17.34,114.22-21.42
	c77.5-9.18,152.97-9.18,230.47-14.28c25.49-2.04,49.97-5.1,75.47-8.16c25.49-4.08,48.95-8.16,73.43-15.3
	c21.42-6.12,42.83-11.22,64.25-20.4c30.59-13.26,59.15-28.55,84.64-49.97c25.49-22.44,45.89-47.93,58.13-79.54
	c14.28-38.75,19.38-80.56,18.36-121.36c-1.02-42.83-6.12-84.64-5.1-127.47c0-18.36-1.02-36.71,0-55.07
	c7.14-75.47,25.49-147.87,58.13-217.22c15.3-32.63,32.63-62.21,53.03-93.82c16.32-24.48,33.65-42.83,50.99-66.29
	c2.04-3.06,5.1-5.1,8.67-8.16"/>
<path class="st0" d="M-6.87,1066.72c61.85-57.99,135.28-99.8,219.92-120.19c1.02,0,3.06-2.04,4.08-2.04
	c145.83-33.65,286.56-21.42,431.37-31.61c50.99-4.08,100.96-9.18,148.89-26.51c9.18-4.08,18.36-7.14,27.53-10.2
	C880,852.7,925.89,810.89,949.35,754.8c13.26-31.61,19.38-65.27,20.4-99.94c1.02-63.23-3.06-127.47-1.02-190.7
	c1.02-5.1,1.02-9.18,1.02-14.28c1.02-20.4,5.1-39.77,8.16-61.19c8.16-42.83,19.38-82.6,36.71-121.36c1.02-2.04,0-3.06,1.02-5.1
	c7.14-16.32,14.28-32.63,22.44-48.95c8.16-14.28,15.3-28.55,23.46-42.83c6.12-8.16,11.22-16.32,16.32-25.49
	c2.04-3.06,4.08-5.1,5.64-8.08"/>
<path class="st0" d="M-6.63,1142.92c9.61-11.81,19.8-24.05,31.02-35.27c5.1-4.08,8.16-9.18,13.26-13.26
	c27.53-24.48,53.03-45.89,84.64-66.29c15.3-9.18,29.57-16.32,44.87-25.49c12.24-7.14,25.49-11.22,38.75-17.34
	c5.1-1.02,9.18-3.06,13.26-5.1c2.04-1.02,3.06,0,5.1-1.02c32.63-13.26,66.29-20.4,101.98-27.53c23.46-4.08,44.87-6.12,68.33-8.16
	c26.51-2.04,53.03-2.04,79.54-3.06c130.53-1.02,266.17,11.22,390.58-40.79c2.04-1.02,3.06,0,5.1-1.02
	c36.71-16.32,68.33-37.73,94.84-69.35c27.53-32.63,42.83-70.37,53.03-111.16c0-1.02,2.04-3.06,2.04-4.08
	c8.16-36.71,14.28-70.37,21.42-107.08c9.18-54.05,21.42-104.02,42.26-154.18"/>
<g>
	<path class="st1" d="M630.47,727.91c-0.78-4.1-2.42-12.1-2.85-15.88c-0.09-0.75-0.16-1.29-0.23-1.54c0.03-0.01,0.07-0.02,0.1-0.03
		c0.12-0.04,0.07-0.23-0.05-0.19c-0.03,0.01-0.07,0.02-0.1,0.03c-0.09-0.32-0.18-0.64-0.27-0.96c-0.04-0.12-0.23-0.07-0.19,0.05
		c0.09,0.32,0.18,0.64,0.27,0.96c-3,0.82-6.12,0.79-9.21,0.57c-3.24-0.23-6.46-0.55-9.71-0.57c-1.89-0.01-3.78,0.05-5.66,0.17
		c-0.07,0-0.11,0.06-0.1,0.13c0.27,1.63,0.57,3.26,0.89,4.88c0.14,0.73,0.29,1.46,0.44,2.18c-0.04,0.02-0.07,0.06-0.05,0.11
		c0.94,4.76,2.14,9.46,3.61,14.08c0.72,2.24,1.46,4.48,2.43,6.62c0.95,2.1,2.16,4.05,3.47,5.94c2.73,3.94,18.86,19.33,22,23.27
		c0.09,0.11,0.19,0.22,0.3,0.33h20.94C647.55,753.95,631.06,729.07,630.47,727.91z"/>
	<path class="st1" d="M510.2,731.75c-0.02-0.39-0.05-0.77-0.07-1.16c0.25-6.29-0.26-12.6-1.53-18.77c-0.16-0.79-0.34-1.58-0.53-2.36
		c-0.11-0.45-0.22-0.91-0.71-1.07c-0.52-0.17-1.11,0.06-1.61,0.2c-0.79,0.21-1.58,0.42-2.38,0.62c-3.21,0.8-6.45,1.5-9.7,2.09
		c-3.68,0.67-7.4,1.19-11.12,1.58c-0.01-0.19-0.01-0.38-0.02-0.56c-0.01-0.13-0.2-0.1-0.2,0.03c0.05,1.44,0.11,2.89,0.16,4.34
		c0,0.04,0,0.08,0,0.12c-0.04,3.4-0.08,6.8-0.11,10.21c-0.05,4.47-0.19,8.95-0.09,13.43c0.1,4.44,0.78,8.79,1.63,13.14
		c0.86,4.4,1.74,8.79,2.61,13.19c0.09,0.43,0.17,0.87,0.26,1.3h22.65c0.3-4.2,0.56-8.41,0.75-12.62
		C510.55,747.54,510.64,739.63,510.2,731.75z"/>
	<path class="st2" d="M591.66,518.47L591.66,518.47c-0.79-1.69-1.93-3.21-3.28-4.5c-2.69-2.56-6.14-4.11-9.72-4.97
		c-0.8-0.19-1.61-0.36-2.43-0.5c-3.73-1.34-7.55-2.49-11.48-3.03c-3.15-0.43-6.38-0.42-9.5,0.23c-0.04-0.02-0.08-0.03-0.13-0.03
		c-4.92,0.79-10.2,2.31-13.62,6.17c-1.86,2.1-2.88,4.73-3.97,7.28c-0.41,0.96-0.88,1.88-1.38,2.79c-0.88,1.62-1.85,3.18-2.69,4.84
		c-0.96,1.89-1.48,3.93-1.42,6.01c0.01,0.23,0.02,0.47,0.04,0.7v0c0.03,0.31,0.07,0.62,0.12,0.93c0.23,1.36,0.72,2.61,1.37,3.82
		c0.85,1.58,1.29,2.99,1.25,4.79c-0.03,1.48-0.25,2.96-0.06,4.43c0.07,0.52,0.19,1.02,0.36,1.51c0.22,0.61,0.51,1.2,0.85,1.76
		c1.37,2.25,3.4,4.07,4.37,6.57c1.05,2.71,0.95,5.72,2.11,8.4c0.53,1.22,1.34,2.21,2.34,3.08c0.65,0.56,1.33,1.08,1.94,1.67
		c0.49,0.47,0.93,0.98,1.27,1.59c0.08,0.14,0.24,0.11,0.32,0.02c0.05,0.02,0.12,0.01,0.14-0.06c0.27-1.77,0.56-3.54,0.88-5.29
		c0.23-1.24,0.46-2.48,0.72-3.71c0.01-0.07,0.03-0.14,0.05-0.22c0.01-0.04,0.01-0.08,0.02-0.12c0.01-0.05,0.02-0.1,0.03-0.15
		c0.47-2.25,0.98-4.49,1.54-6.72l0.12-0.48c0,0,0,0,0,0c0.02-0.07,0.03-0.13,0.05-0.2c0.49-1.95,1.02-3.89,1.59-5.83
		c0.1-0.34,0.2-0.68,0.3-1.02c0.04-0.13,0.07-0.25,0.11-0.38c0.01-0.04,0.02-0.07,0.03-0.11c0.02-0.07,0.04-0.14,0.06-0.21
		c0.04-0.13,0.08-0.25,0.11-0.38c0-0.01,0.01-0.02,0.01-0.04c0.25-0.81,0.5-1.62,0.76-2.43c0.04-0.13,0.08-0.25,0.12-0.38
		c0-0.01,0.01-0.02,0.01-0.03c0.21-0.65,0.43-1.29,0.67-1.93c0.37-1.04,0.78-2.06,1.23-3.07c1.97-4.38,5-8.04,8.87-10.88
		c1.76-1.29,3.64-2.41,5.59-3.39c0,0,0,0,0,0c2.11-1.06,4.31-1.97,6.53-2.76c2.11-0.75,4.28-1.5,6.49-1.99
		c0.07-0.02,0.13-0.03,0.2-0.05c0.34-0.07,0.68-0.14,1.02-0.2c0.01,0,0.03,0,0.04-0.01c0.1-0.02,0.21-0.04,0.31-0.05
		c0.07-0.01,0.15-0.02,0.22-0.03c1.4-0.19,2.78-0.14,4.15,0.29c0.38,0.12,0.86,0.26,1.3,0.25c0.09-0.37,0.25-0.71,0.47-1.01
		C591.96,519.13,591.82,518.8,591.66,518.47z"/>
	<path class="st3" d="M642.36,708.56c-0.72-1.28-1.3-2.64-1.77-4.03c-1.89-5.59-2.13-22.32-3.77-27.98
		c-0.88-3.03-2.21-5.89-3.45-8.78c-1.23-2.89-2.26-5.83-2.97-8.9c-2.64-11.38-1.95-23.91-8.45-34.09
		c-3.06-4.79-7.31-8.71-11.89-12.03c-5.19-3.77-13.23-6.88-18.98-9.7c-0.69-0.34-1.38-0.67-2.07-1c-0.06-0.03-0.12-0.06-0.18-0.09
		c-1.96-0.94-3.93-1.85-5.91-2.75c-0.22-0.1-0.44-0.2-0.66-0.3c-0.8-0.36-1.6-0.73-2.4-1.1c-0.32,0.3-0.72,0.52-1.2,0.61
		c-1.38,0.27-2.77,0.45-4.17,0.57c-2.2,0.2-4.41,0.26-6.62,0.32h0c-0.32,0.01-0.64,0.02-0.97,0.03h0c-2.11,0.06-4.22,0.13-6.31,0.32
		c-1.28,0.12-2.56,0.24-3.84,0.37c0,0,0,0,0,0c-0.47,0.05-0.93,0.09-1.4,0.14h-0.01c-3.11,0.31-6.22,0.62-9.34,0.87
		c-1.26,0.1-2.52,0.19-3.78,0.27c-0.91,0.06-1.74-0.42-2.28-1.11c-0.72,0.33-1.43,0.66-2.14,0.99c-1.92,0.89-3.85,1.78-5.77,2.66
		c-0.06,0.03-0.12,0.06-0.18,0.09c-3.29,1.52-6.58,3.04-9.87,4.56c-7.72,3.57-15.7,7.14-22.09,12.88c-3.13,2.81-5.74,6.12-7.6,9.9
		c-1.97,3.99-3.15,8.31-4.1,12.64c-0.98,4.45-1.73,8.96-2.86,13.38c-1.25,4.85-3.14,9.48-4.77,14.2
		c-3.31,9.57-4.84,31.24-4.34,41.36c0.06,1.24,0.16,2.48,0.27,3.72c0.01,0.05,0.03,0.08,0.08,0.1c1.27,0.42,2.53,0.42,3.79,0.23
		c0.72-0.11,1.43-0.28,2.15-0.46c1.91-0.5,3.82-1.12,5.75-1.07c2.19,0.06,9.08,0.76,11.26,0.97c1.68,0.16,3.39,0.1,5.06-0.16
		c0.01,0.35,0.03,0.7,0.04,1.05c0.11,2.86,0.21,5.72,0.49,8.57c0.26,2.7,0.74,5.34,1.34,7.98c0.01,0.07,0.03,0.13,0.04,0.2
		c0.63,2.76,1.29,5.53,1.42,8.37c0.13,2.86-0.35,5.7-0.77,8.53c-0.85,5.6-0.9,11.2-0.84,16.85c0,0.03,0,0.06,0,0.09
		c0,0.09,0,0.17,0,0.26h104.54c0.23-6.83,0.47-13.66,0.7-20.49c0.13-3.95-0.51-21.29-0.79-30.25c0,0,0,0,0,0
		c-0.02-0.75-0.04-1.44-0.06-2.06c-0.05-1.78-0.07-2.97-0.05-3.27c5.46,0.22,16.74-0.08,22.2-0.19c0.71-0.01,1.41-0.03,2.12-0.05
		c1.07-0.03,2.14-0.06,3.21-0.11h0.01c0.85-0.03,1.71-0.07,2.56-0.11c0.53-0.03,1.09-0.03,1.59-0.24
		C643.68,710.73,642.85,709.43,642.36,708.56z"/>
	<path class="st1" d="M595.02,550.56c-0.08-2.67-0.17-5.36-0.27-7.95c-0.01-0.13-0.01-0.26-0.02-0.4c0-0.1-0.01-0.2-0.01-0.29
		c-0.07-1.67-0.14-3.28-0.22-4.82c-0.29-5.8-0.63-10.49-1-12.34c-0.08-0.4-0.16-0.67-0.24-0.78c-1.43-2.05-3.83-3.04-6.18-3.63
		c-0.32-0.08-0.64-0.16-0.96-0.22c-0.07-0.02-0.13-0.03-0.2-0.04c-0.09-0.02-0.19-0.04-0.28-0.06c-0.36-0.07-0.72-0.13-1.08-0.19
		c-0.07-0.01-0.13-0.02-0.2-0.03c-4.93-0.7-9.67,0.08-14.28,1.77c-0.44,0.16-0.88,0.33-1.3,0.5h0c-0.1,0.04-0.19,0.08-0.29,0.12
		c-3.87,1.57-7.08,3.52-9.23,6.57c0,0,0,0,0,0.01c-0.13,0.18-0.25,0.36-0.37,0.55c-0.32,0.51-0.62,1.05-0.89,1.62
		c-0.05,0.11-0.1,0.22-0.15,0.33c-0.5,1.14-0.88,2.4-1.13,3.81c-0.02,0.11-0.04,0.22-0.06,0.32c0,0.01,0,0.01,0,0.02
		c-0.06,0.32-0.14,0.62-0.22,0.92c0,0,0,0.01,0,0.02c-0.44,1.62-1.11,2.99-1.83,4.3c-0.53,0.97-1.09,1.92-1.6,2.93
		c-0.06,0.12-0.12,0.24-0.18,0.36c-0.13,0.25-0.25,0.52-0.37,0.78c-0.19,0.42-0.36,0.86-0.52,1.31c-0.07,0.2-0.14,0.39-0.2,0.6
		c-0.14,0.45-0.26,0.92-0.36,1.41c-0.01,0.04-0.02,0.08-0.03,0.12c-0.39,1.95-0.69,4.07-0.21,6.03c0.06,0.24,0.13,0.48,0.22,0.72
		c0.1,0.29,0.22,0.57,0.36,0.84c0.1,0.19,0.2,0.37,0.32,0.55c0.16,0.25,0.26,2.71,0.6,5.73c0,0.01,0,0.02,0,0.03
		c0.01,0.07,0.02,0.14,0.02,0.21c0,0.03,0.01,0.06,0.01,0.08c0.01,0.06,0.01,0.13,0.02,0.19c0.41,3.43,1.14,7.43,2.59,9.71
		c0.25,0.39,0.52,0.73,0.81,1.01c5.68,5.38,10.27,8.56,13.84,10.26c2.01,0.96,3.67,1.54,5.12,1.88c2.61,0.61,4.55,0.45,6.63,0.31
		c4.57-0.31,6.9-5.44,9.15-12.23c0.21-0.64,2.3-0.59,2.65-1.18c0.03-0.04,0.04-0.09,0.05-0.13c0.61-4.64,1.07-8.48,1.32-12.29
		c0.01-0.12,0.02-0.25,0.02-0.37C595.05,556.65,595.11,553.77,595.02,550.56z"/>
	<path class="st1" d="M575.31,580.03c-0.05,1.02-0.11,2.06-0.16,3.11c-0.02,0.48-0.05,0.97-0.07,1.46
		c-0.01,0.29-0.03,0.58-0.04,0.87c-0.04,0.91-0.09,1.83-0.13,2.73l-0.04,0.82c-0.21,4.64-0.37,9.18-0.45,13.13
		c-2.48,0.75-9.4,5.55-11.93,5.93c-6.74,0.87-9.15-3.5-15.8-4.35c-0.2-0.03-0.39-0.06-0.58-0.09c-0.37-7.34-0.08-14.72,0.14-22.06
		c0.1-3.32,0.32-8.13,0.57-12.91c0.17-3.14,0.35-6.28,0.52-8.98c0.29-4.6,0.56-7.96,0.67-7.96c0.09-0.9,0.36-1.82,0.92-2.46
		c0.71-0.82,2.33-1.36,3.37-1.2c1.16,0.18,1.34,1.81,1.41,2.78c0.06,0.88-0.08,1.74-0.49,2.47c7.9,0.42,22.89,0.81,23.08,4.11
		C576.43,559.48,575.85,569.17,575.31,580.03z"/>
	<path class="st4" d="M573.94,552.79c0.04,1.9-0.66,3.44-1.57,3.45c-0.91,0-1.68-1.53-1.72-3.44c-0.04-1.9,0.66-3.44,1.57-3.45
		C573.12,549.35,573.89,550.89,573.94,552.79z"/>
	<path class="st4" d="M592.85,549.34c-0.02,1.9-0.78,3.42-1.69,3.39c-0.91-0.03-1.62-1.59-1.6-3.5c0.02-1.9,0.78-3.42,1.69-3.39
		C592.16,545.87,592.88,547.44,592.85,549.34z"/>
	<path class="st5" d="M553.11,561.63c-0.04-0.02-0.09-0.02-0.12,0.02c-0.07,0.09-0.14,0.18-0.21,0.26c0,0,0,0,0,0
		c-0.05,0.06-0.1,0.11-0.15,0.16c-0.26,0.25-0.56,0.46-0.9,0.6c-0.01,0.01-0.03,0.01-0.04,0.02c-0.29,0.12-0.81,0.12-0.81,0.12
		c-0.24-0.02-2.22-1-2.27-1.13c-0.1-0.25-0.21-0.5-0.32-0.75c-0.2-0.41-0.4-0.85-0.75-1.16c-0.06-0.05-0.11-0.09-0.17-0.12v0h0
		c-0.02,0.26-0.03,0.52-0.05,0.79v0c0,0.01,0,0.03,0,0.04c0,0.08-0.01,0.16-0.01,0.24c-0.01,0.16-0.02,0.33-0.03,0.49
		c-0.03,0.43-0.05,0.88-0.08,1.33c-0.02,0.28-0.03,0.57-0.05,0.86c0,0.02,0,0.04,0,0.05c-0.01,0.23-0.03,0.46-0.04,0.69
		c-0.01,0.23-0.03,0.46-0.04,0.7c-0.01,0.1-0.01,0.19-0.02,0.29c-0.02,0.38-0.04,0.77-0.07,1.15c-0.04,0.78-0.09,1.57-0.13,2.36
		c0.02-0.04,0.03-0.07,0.05-0.11c0.04,0.02,0.09,0.01,0.11-0.03c0.08-0.1,0.06-0.15,0.05-0.28c0-0.01,0-0.02,0-0.03
		c0.02-0.03,0.03-0.06,0.05-0.08c0.32-0.5,0.84-0.77,1.37-1.02c0.3-0.14,0.6-0.26,0.88-0.42c0.41-0.22,0.79-0.49,1.06-0.89
		c0.49-0.74,0.3-1.88,1.18-2.33c0.48-0.24,0.81-0.54,1.09-0.91c0.08-0.1,0.15-0.21,0.21-0.32c0.06-0.1,0.12-0.2,0.18-0.31
		c0.03-0.06,0.06-0.12,0.09-0.18C553.18,561.71,553.15,561.66,553.11,561.63z"/>
	<path class="st2" d="M546.14,560.06c0.07,0.22,0.13,0.45,0.18,0.68c0.09,0.41,0.07,1.02-0.07,1.53c-0.67-2.13-1.27-4.29-1.81-6.46
		c-0.34-2.45-0.95-4.84-2.17-7c-0.18-0.31-0.41-0.57-0.68-0.77c-0.21-0.94-0.4-1.89-0.54-2.82c0.63-1.81,1.48-3.53,2.54-5.04
		c1.86-2.63,3.49-3.69,6.36-4.73c3.18-1.15,5.57-6.59,8.94-6.11c-4.67,9.6-2.45,16.49-3.98,17.55c-0.34,0.23-1.12,0.43-1.48,0.25
		c-0.14-0.07-0.28-0.14-0.42-0.2c-0.3-0.12-0.61-0.2-0.92-0.24c-1.33-0.19-2.26,0.23-3.19,1.23c-1.29,1.39-2.53,5.31-2.72,8.07
		C546.09,557.47,546.27,558.6,546.14,560.06z"/>
	<path class="st5" d="M583.64,574.85c-1.11,0.44-2.33,0.47-3.47,0.06c-0.12-0.04-0.2,0.14-0.08,0.18c1.2,0.42,2.46,0.4,3.63-0.06
		C583.84,574.99,583.76,574.81,583.64,574.85z"/>
	<path class="st1" d="M553.82,547.7c0-0.01,0-0.02,0-0.02c0.03,0.03,0.06,0.06,0.09,0.09c0.46,0.48,0.84,1.03,1.13,1.64
		c0.06,0.12,0.23,0.02,0.17-0.1c-0.31-0.64-0.73-1.23-1.24-1.75c-0.1-0.1-0.19-0.19-0.29-0.29c-0.03-0.03-0.07-0.06-0.1-0.09
		c-0.5-0.44-1.06-0.82-1.66-1.12c-1.28-0.64-2.72-0.91-4.1-0.65c-3.33,0.63-4.04,4.67-3.61,7.49c0.26,1.76,0.94,3.47,1.62,5.12
		c0.11,0.28,0.24,0.54,0.36,0.79c0.22,0.43,0.45,0.81,0.7,1.16h0c0.13,0.19,0.27,0.36,0.41,0.53l0,0c0.05,0.06,0.11,0.12,0.16,0.18
		c0,0,0.01,0.01,0.01,0.01c0.36,0.4,0.74,0.73,1.12,1c0.53,0.38,1.07,0.64,1.57,0.8c0.46,0.15,0.89,0.22,1.26,0.22
		c0.09,0,0.17,0,0.25-0.01c0.23-0.02,0.43-0.07,0.6-0.14c0.01,0,0.02-0.01,0.02-0.01c0,0,0,0,0.01,0c0.12-0.06,0.24-0.11,0.35-0.17
		c0.08-0.04,0.16-0.08,0.23-0.13c0.99-0.55,1.51-1.23,1.81-2.43c0.45-1.81,0.55-3.8,0.42-5.68c0-0.08-0.01-0.17-0.02-0.25
		c-0.01-0.17-0.03-0.34-0.05-0.5c-0.05-0.5-0.13-0.99-0.23-1.48c-0.07-0.33-0.15-0.65-0.25-0.97c-0.26-0.86-0.81-1.77-0.82-2.68
		C553.76,548.07,553.78,547.89,553.82,547.7C553.82,547.7,553.82,547.7,553.82,547.7z"/>
	<path class="st5" d="M552.44,555.25c-1.43-0.11-1.6-1.79-1.58-2.88c0.02-0.86,0.06-1.8-0.43-2.57c-0.84-1.3-2.9-1.09-3.12,0.51
		c-0.02,0.13,0.18,0.13,0.2,0.01c0.18-1.27,1.77-1.55,2.58-0.64c0.63,0.7,0.59,1.72,0.57,2.59c-0.02,1.23,0.18,3.05,1.78,3.18
		C552.57,555.45,552.57,555.26,552.44,555.25z"/>
	<path class="st5" d="M578.93,561.3c1.9,0.01,3.87,0.58,5.75-0.02c0.8-0.26,1.57-0.72,2.04-1.44c0.57-0.89,0.51-1.96,0.28-2.93
		c-0.22-0.95-0.58-1.86-0.89-2.78l-1-2.94c-0.67-1.96-1.33-3.92-2-5.88c-0.04-0.12,0.15-0.17,0.19-0.05c1.15,3.4,2.31,6.8,3.46,10.2
		c0.44,1.29,0.93,2.78,0.31,4.12c-0.49,1.07-1.59,1.71-2.7,1.99c-1.81,0.45-3.65-0.06-5.47-0.07
		C578.8,561.5,578.8,561.3,578.93,561.3z"/>
	<path class="st2" d="M593.35,523.44c-0.02-0.23-0.04-0.46-0.05-0.69c-0.21-0.68-0.44-1.35-0.68-2.02
		c-0.13-0.36-0.26-0.72-0.39-1.08c-0.07-0.19-0.25-0.59-0.27-0.65c-0.08-0.16-0.15-0.31-0.22-0.47c-0.24-0.21-0.44-0.45-0.59-0.73
		c-0.78-0.4-1.58-0.77-2.36-1.12c-3.2-1.46-6.6-2.54-10.12-2.99c-3.49-0.45-7.35-0.37-10.7,0.96c-1.59,0.63-2.99,1.61-4.27,2.74
		c-1.33,1.17-2.6,2.44-3.81,3.73c-2.24,2.4-4.25,5.65-3.21,8.98c0.02,0.07,1.23,1.3,1.24,1.22c1-5.11,9.56-6,10.94-6.23
		c1.4-0.23,2.83-0.05,4.22,0.14c2.38,0.32,4.76,0.66,7.07-0.34c2.22-0.96,4-1.75,6.39-2.26c2.51-0.53,4.84-0.17,6.48,1.57
		c-0.03,0.03,0.42,0.47,0.56,0.64c0.08,0.1,0.22-0.04,0.14-0.14C593.57,524.52,593.36,523.62,593.35,523.44z"/>
	<path class="st1" d="M582.27,598.91c-0.8-0.36-1.6-0.73-2.4-1.1c-1.74-0.79-3.48-1.57-5.26-2.27c-0.36-0.14-0.72-0.28-1.07-0.41
		c-3-1.11-6.1-1.89-9.31-2.02c-3.34-0.14-6.67,0.32-9.93,0.97c-1.64,0.32-3.27,0.7-4.9,1.07c-0.13,0.03-0.07,0.23,0.06,0.2
		c0.53-0.12,1.06-0.24,1.6-0.36c0.03,0.01,0.05,0.03,0.07,0.05c-1.73,0.8-3.45,1.6-5.18,2.39c-2,0.92-3.99,1.84-5.99,2.77
		c-0.72,0.33-1.43,0.66-2.14,0.99c0.53,1.33,1.37,2.57,2.17,3.7c1.18,1.68,2.55,3.24,4.07,4.62c3.01,2.74,6.64,4.84,10.57,5.92
		c8.31,2.28,17.66,0,23.42-6.55c2.42-2.75,4.14-6.1,4.88-9.68C582.71,599.11,582.49,599.01,582.27,598.91z"/>
	<path class="st2" d="M540.53,529.76c-0.75-1.59-1.96-2.94-2.53-4.62c-0.18-0.53-0.3-1.12-0.33-1.7c0.03,0.02,0.05,0.05,0.07,0.08
		c0.09,0.09,0.23-0.05,0.14-0.14c-0.07-0.08-0.15-0.15-0.22-0.22c0.01-0.96,0.31-1.88,1.13-2.5c0.1-0.08,0-0.25-0.1-0.17
		c-0.86,0.65-1.21,1.52-1.25,2.46c-0.4-0.38-0.84-0.72-1.3-1.01c-2.15-1.37-4.86-1.8-7.37-1.27c-3.47,0.73-6.22,3.36-7.61,6.55
		c-0.72,1.66-1.05,3.42-1.07,5.23c-0.02,2.15,0.26,4.46-0.69,6.47c-0.8,1.69-2.39,2.78-3.94,3.72c-1.52,0.93-3.07,1.81-4.35,3.07
		c-2.91,2.86-4.49,6.99-4.19,11.06c0.01,0.07,0.07,0.1,0.12,0.09c2.7,1.68,6.22,2.04,9.35,1.46c3.18-0.59,6.98-3.53,10.13-1.31
		c0.08,0.05,0.16-0.04,0.15-0.11c-0.32-1.49,0.02-3.05,0.86-4.32c0.88-1.32,2.2-2.01,3.69-2.42c1.3-0.36,2.67-0.55,3.88-1.18
		c0.01,0,0.01-0.01,0.02-0.01c1.15-0.6,1.92-1.63,2.21-2.89c0.32-1.42,0.13-2.9,0.15-4.35c0.02-1.6,0.44-2.96,1.29-4.31
		c0.74-1.18,1.64-2.29,2.1-3.62C541.35,532.42,541.13,531.04,540.53,529.76z"/>
	<path class="st2" d="M576.18,542.43c-1.3-0.49-2.75-0.79-4.12-0.95c-1.3-0.15-2.62-0.05-3.89,0.28c-2.74,0.72-5.17,2.44-7.07,4.59
		c-0.01,0.01-0.01,0.02-0.02,0.03c-0.1,0.12-0.09,0.29-0.01,0.44c0.01,0.02,0.02,0.04,0.03,0.05c0.26,0.36,0.85,0.5,1.29,0.54
		c0.06,0.01,0.11,0.01,0.16,0.01c0.16,0.01,0.47-0.01,0.88-0.05c0.8-0.08,2.02-0.26,3.36-0.46c3.49-0.53,7.89-1.27,8.42-1.22
		c0.4,0.04,0.93,0.03,1.42-0.09c0.19-0.05,0.38-0.11,0.56-0.19c0.45-0.21,0.8-0.55,0.88-1.09
		C578.24,543.27,576.93,542.72,576.18,542.43z"/>
	<path class="st2" d="M594.49,537.09c-0.69,0.13-1.36,0.31-2.02,0.55c-1.55,0.56-3.14,1.3-4.51,2.21c-0.8,0.53-2.16,1.51-1.68,2.64
		c0.57,1.35,2.58,1.09,3.66,0.72c0.68-0.23,3.14-0.91,4.77-1.29C594.64,540.25,594.57,538.63,594.49,537.09z"/>
	<path class="st6" d="M585.94,568.22c-3.21,1.1-6.66,1.54-10.09,1.27c-0.27-0.02-0.54-0.04-0.8-0.07c-0.08-0.01-0.13,0.05-0.13,0.11
		c-0.11-0.07-0.22-0.14-0.32-0.2c-0.08-0.05-0.17,0-0.19,0.06c-0.01,0.03,0,0.06,0.04,0.09c0.44,0.27,0.89,0.56,1.36,0.84
		c1.61,0.97,3.36,1.84,5.38,1.76c1.37-0.06,2.36-0.13,3.37-0.72c0.82-0.49,1.44-1.68,1.7-2.61c0.04-0.15,0.08-0.29,0.1-0.42
		C586.38,568.24,586.02,568.19,585.94,568.22z"/>
	<path class="st5" d="M586.31,566.51c-1.17-0.21-2.15,0.6-2.71,1.48c-0.1-0.47-0.52-0.87-1.07-1.02c-0.97-0.27-1.95,0.22-2.62,0.78
		c-1.29,1.07-2.92,1.41-4.06,1.51c-0.78,0.07-1.32,0.03-1.35,0.03c-0.07,0-0.11,0.04-0.1,0.09c0,0.05,0.04,0.09,0.11,0.11
		c0.46,0.11,0.9,0.21,1.32,0.29c2.57,0.54,4.38,0.67,7.43,0.19c1.03-0.16,2.27-0.53,3-1.24c0.22-0.22,0.4-0.47,0.5-0.75
		C587.15,566.89,586.73,566.59,586.31,566.51z"/>
	<path class="st7" d="M535.32,524.94c0.04-0.12-0.15-0.18-0.19-0.05c-0.93,3.06-2.82,5.81-3.33,9c-0.46,2.91,0.54,5.87,2.7,7.88
		c0.09,0.09,0.23-0.05,0.14-0.14c-2.3-2.13-3.2-5.29-2.53-8.33C532.76,530.37,534.45,527.8,535.32,524.94z"/>
	<path class="st7" d="M524.83,545.59c-1.3,1.01-2.68,2.09-3.42,3.6c-0.63,1.29-0.74,2.88,0.08,4.11c0.07,0.11,0.24,0.01,0.17-0.1
		c-0.87-1.32-0.63-3.02,0.15-4.32c0.78-1.29,1.99-2.24,3.17-3.15C525.07,545.65,524.93,545.51,524.83,545.59z"/>
	<path class="st7" d="M518.2,555.26c-1.68-1.03-0.8-3.21-0.12-4.57c0.06-0.11-0.11-0.22-0.17-0.1c-0.73,1.46-1.6,3.74,0.19,4.84
		C518.21,555.5,518.31,555.33,518.2,555.26z"/>
	<path class="st7" d="M549.25,538.99c-1.59-0.53-3.31-0.38-4.79,0.4c-0.11,0.06-0.01,0.23,0.1,0.17c1.44-0.76,3.1-0.89,4.64-0.38
		C549.32,539.23,549.37,539.03,549.25,538.99z"/>
	<path class="st7" d="M584.13,517.67c-0.5-1.57-1.4-2.98-2.6-4.1c-0.09-0.09-0.23,0.05-0.14,0.14c1.14,1.06,2.01,2.39,2.5,3.87
		c0.49,1.45,0.82,3.38-0.01,4.76c-0.07,0.11,0.11,0.21,0.17,0.1C584.89,521.05,584.59,519.14,584.13,517.67z"/>
	<path class="st7" d="M586.03,516.9c-0.04-0.12-0.24-0.07-0.19,0.05c0.41,1.09,0.41,2.23,0.01,3.32c-0.04,0.12,0.15,0.17,0.19,0.05
		C586.46,519.21,586.45,518.01,586.03,516.9z"/>
	<path class="st7" d="M570.07,522.48c-3.14-0.93-6.51-1.98-8.55-4.72c-0.08-0.1-0.25,0-0.17,0.1c2.08,2.79,5.48,3.86,8.67,4.81
		C570.14,522.71,570.2,522.52,570.07,522.48z"/>
	<path class="st7" d="M548.17,513.23c-1.57-0.73-3.34-0.8-4.96-0.18c-0.12,0.05-0.07,0.24,0.05,0.19c1.56-0.6,3.28-0.54,4.8,0.16
		C548.19,513.46,548.29,513.29,548.17,513.23z"/>
	<path class="st2" d="M593.48,569.77c-0.13,0.09-3.71,2.96-5.04,3.74c-3.88,2.27-8.62,2.9-12.9,2.16c-1.07-0.18-2.12-0.45-3.12-0.8
		c-2.79-0.98-6.99-2.21-8.98-4.53c-2.34-2.72-2.14-6.35-2.37-9.71c-0.06-0.82-0.17-1.64-0.44-2.42c-0.27-0.75-0.71-1.42-1.19-2.05
		c-0.68-0.88-1.33-1.73-1.89-2.66v0c-0.26-0.44-0.5-0.89-0.72-1.37c-0.81-1.81-1.28-3.74-1.58-5.71v0c-0.09-0.55-0.15-1.1-0.21-1.65
		c-0.01-0.15-0.03-0.29-0.04-0.44c0-0.01,0-0.02,0-0.03c-0.1-1.02-0.17-2.04-0.22-3.05c-0.01-0.11-0.17-0.14-0.2-0.03
		c-0.2,0.91-0.48,1.79-0.84,2.64c-0.05,0.12-0.1,0.24-0.16,0.36c-0.17,0.38-0.36,0.75-0.56,1.12c-0.02,0.03-0.02,0.06,0,0.09
		c0,0.05,0.02,0.1,0.05,0.14c-0.01,0.02-0.02,0.06,0,0.09c0.22,0.5,0.41,1.01,0.59,1.52c0.01,0.03,0.02,0.05,0.03,0.08
		c0.05,0.15,0.1,0.29,0.15,0.43c0.02,0.06,0.04,0.11,0.05,0.17c0.42,1.32,0.73,2.67,0.96,4.03c0.08,0.49,0.15,0.98,0.21,1.48
		c0.03,0.25,0.06,0.5,0.09,0.75c0.18,1.72,0.24,3.45,0.24,5.18c0,2.28-0.1,4.55-0.21,6.83c-0.09,2.03-0.31,4.13,0.11,6.13
		c0.05,0.26,0.12,0.52,0.19,0.77c0.32,1.08,0.81,2.1,1.29,3.11c0.44,0.93,0.93,1.82,1.74,2.47c0.83,0.66,8.97,8.55,15.41,10.79
		c0.32,0.11,0.63,0.21,0.94,0.31c8.7,2.65,15.31-0.6,16.78-5.01c0.4-1.2,1.36-8.53,1.85-12.39c0.18-1.38,0.29-2.32,0.3-2.37
		C593.79,569.8,593.59,569.69,593.48,569.77z"/>
	<path class="st6" d="M599.01,542.5c-1.39-0.48-2.85-0.49-4.29-0.29c-0.7,0.1-1.4,0.25-2.08,0.43c-1.2,0.31-2.83,0.61-3.73,1.57
		c-0.35,0.37-0.9,1.19-1.04,1.44c-0.48,0.78-0.83,1.62-1.06,2.49c-0.87-0.25-1.76-0.36-2.64-0.32c-0.07,0-0.14,0.01-0.21,0.01
		c-1.32,0.1-2.62,0.52-3.77,1.26c-0.45-1.56-1.39-2.89-3-3.66c-0.23-0.11-0.47-0.21-0.72-0.29c-2.07-0.71-4.29-0.4-6.37,0.14
		c-1.09,0.28-2.46,0.55-3.42,1.26c0,0-0.01-0.01-0.01-0.01c-1.25-0.33-2.57-0.4-3.24,0.87c-0.02,0.03-0.03,0.06-0.05,0.1
		c-0.05,0.11-0.1,0.23-0.13,0.34c-0.29-0.13-0.57-0.27-0.86-0.4c-0.44-0.2-0.88-0.4-1.33-0.6c-1.82-0.8-3.66-1.56-5.51-2.27
		c-0.19-0.07-0.37-0.14-0.56-0.21c0,0-0.01,0-0.01,0c-0.41-0.16-0.83-0.31-1.25-0.46c-0.25-0.09-0.5-0.18-0.75-0.27
		c-1.36-0.49-2.74-0.95-4.12-1.38c-0.25-0.08-0.35,0.31-0.11,0.38c1.36,0.43,2.71,0.88,4.05,1.36c0.26,0.09,0.51,0.18,0.77,0.28
		c0.43,0.16,0.86,0.31,1.28,0.48c0.06,0.02,0.12,0.04,0.18,0.07c0.16,0.06,0.33,0.12,0.49,0.19c2.58,0.99,5.13,2.07,7.63,3.24
		c-0.17,1,0.24,2.01,1.04,2.67c0.01,0.01,0.02,0.01,0.03,0.02c-0.24,0.98-0.33,1.99-0.28,3.01c0.07,1.35,0.4,2.69,0.98,3.96
		c0.72,1.6,1.81,3.22,3.4,4.06c1.65,0.87,3.6,0.75,5.38,0.38c1-0.21,1.82-0.56,2.54-1.08c0.72-0.51,1.33-1.19,1.91-2.03
		c1.15-1.68,1.9-3.63,2.22-5.64c0.22-1.38,0.22-2.78-0.07-4.06c1.16-0.77,2.46-1.2,3.8-1.27c0.07-0.01,0.14-0.01,0.21-0.01
		c0.8-0.02,1.61,0.08,2.41,0.31c-0.49,2.21-0.21,4.58,0.75,6.72c0.72,1.6,1.8,3.22,3.39,4.06c1.23,0.65,2.62,0.75,3.98,0.6
		c0.47-0.05,0.94-0.13,1.4-0.23c2.01-0.42,3.3-1.43,4.45-3.11c1.15-1.68,1.9-3.63,2.22-5.64
		C603.46,547.45,602.69,543.75,599.01,542.5z M580.07,552.83c-0.28,2.64-1.5,6.2-3.81,7.96c-0.45,0.35-0.95,0.62-1.49,0.81
		c-1.59,0.55-3.55,0.82-5.19,0.38c-1.75-0.47-2.98-1.85-3.83-3.38c-0.81-1.45-1.29-3.05-1.39-4.66c-0.13-2.11,0.38-4.22,1.65-6
		c0.04-0.02,0.08-0.06,0.1-0.11c0.01-0.03,0.03-0.05,0.04-0.08c0.09-0.12,0.19-0.24,0.28-0.36c0.04-0.05,0.05-0.11,0.04-0.17
		c0.1-0.11,0.2-0.22,0.32-0.31c0.95-0.79,2.51-1.05,3.59-1.32c1.67-0.42,3.43-0.69,5.13-0.32c0.38,0.08,0.75,0.19,1.12,0.33
		c1.08,0.43,2.05,1.13,2.66,2.15c0.29,0.48,0.49,1,0.62,1.55c-0.03,0.08,0,0.18,0.05,0.23C580.2,550.62,580.18,551.76,580.07,552.83
		z M602.61,550.21c-0.33,3.16-2.02,7.64-5.29,8.78c-0.75,0.26-1.59,0.46-2.44,0.55c-0.94,0.1-1.89,0.06-2.75-0.17
		c-1.75-0.47-2.98-1.85-3.83-3.38c-1.76-3.15-1.96-7.05-0.09-10.12c0.11-0.18,1.13-1.42,1.25-1.53c0.97-0.86,2.41-1.09,3.47-1.35
		c0.59-0.15,1.2-0.28,1.81-0.37c1.1-0.16,2.22-0.19,3.32,0.04c1.52,0.32,2.97,1.13,3.78,2.49
		C602.73,546.63,602.79,548.52,602.61,550.21z"/>
	<path class="st5" d="M558.64,600.19c-2.6-0.28-5.22-0.3-7.83-0.06c-0.13,0.01-0.13,0.21,0,0.2c2.61-0.24,5.23-0.22,7.83,0.06
		C558.77,600.41,558.77,600.21,558.64,600.19z"/>
	<path class="st5" d="M571.76,598.36c-2.29,0.37-4.56,0.87-6.8,1.5c-0.12,0.03-0.07,0.23,0.05,0.19c2.24-0.63,4.5-1.13,6.8-1.5
		C571.94,598.53,571.88,598.34,571.76,598.36z"/>
	<path class="st8" d="M610.89,668.06c0.03-2.38,0.07-4.77,0.12-7.15c0-0.13-0.2-0.13-0.2,0c-0.18,8.47-0.25,16.94-0.19,25.42
		c0.01,2.38,0.04,4.77,0.07,7.15c0,0.13,0.2,0.13,0.2,0C610.78,685,610.78,676.53,610.89,668.06z"/>
	<path class="st8" d="M504.06,671.22c-0.39-2.16-0.84-4.32-1.32-6.46c-0.03-0.12-0.22-0.07-0.19,0.05
		c1.71,7.56,2.86,15.24,3.44,22.97c0.16,2.19,0.28,4.39,0.35,6.58c0,0.13,0.2,0.13,0.2,0C506.28,686.61,505.45,678.87,504.06,671.22
		z"/>
	<path class="st8" d="M593.19,743.93c-3.98-6.31-8.18-12.48-12.59-18.5c-1.26-1.72-2.53-3.42-3.83-5.11c-0.08-0.1-0.25,0-0.17,0.1
		c4.53,5.93,8.86,12.01,12.96,18.24c1.17,1.78,2.32,3.57,3.46,5.36C593.08,744.14,593.26,744.04,593.19,743.93z"/>
	<path class="st8" d="M595.58,756.15c-2.97-3.35-5.66-6.95-8.03-10.75c-0.07-0.11-0.24-0.01-0.17,0.1
		c2.38,3.81,5.08,7.42,8.06,10.79C595.53,756.39,595.67,756.25,595.58,756.15z"/>
	<path class="st8" d="M589.02,602.04c-1.12,3.13-2.5,6.17-4.23,9.02c-1.47,2.42-3.18,4.77-5.23,6.74c-2.15,2.05-4.68,3.34-7.54,4.11
		c-5.91,1.6-12.26,1.71-18.2,0.23c-5.3-1.32-10.26-3.94-14.31-7.61c-3.26-2.96-5.86-6.58-7.64-10.59c0.06-0.03,0.12-0.06,0.18-0.09
		c2.03,4.58,5.14,8.64,9.06,11.79c4.31,3.46,9.48,5.78,14.91,6.77c3,0.55,6.07,0.7,9.11,0.47c3.02-0.23,6.1-0.77,8.93-1.83
		c2.79-1.04,5.06-2.89,6.98-5.13c1.84-2.15,3.42-4.54,4.75-7.04c1.19-2.23,2.19-4.55,3.04-6.93
		C588.9,601.98,588.96,602.01,589.02,602.04z"/>
</g>
<path class="st1" d="M699.93,707.85c2.62-2.62,6.35-4.37,10.09-4.78c1.99-1.48,6.86-4.4,7.16-5.16c2.99-7.77,9.4-28.78,13.4-42.45
	c-3.11-0.08-6.22-0.28-9.32-0.6c-5.44-0.57-11.16-1.16-16.39-2.92c-0.2-0.07-0.41-0.14-0.61-0.21c-0.38,1.98-0.75,3.96-1.12,5.94
	c-1.98,10.71-3.92,21.42-5.88,32.13c-1.11,6.07-2.22,12.14-3.33,18.21c-0.01,0.04,0.01,0.09,0.05,0.11c1.33,0.7,2.71,1.3,4.13,1.82
	C698.65,709.19,699.24,708.49,699.93,707.85z"/>
<path class="st9" d="M761.96,593.86c-0.18-5.47-1.6-10.82-3.57-15.9c-0.97-2.48-2.05-4.94-3.27-7.31c-1.17-2.28-2.56-4.46-4.42-6.25
	c-3.72-3.58-8.71-5.59-13.3-7.8c-1.1-0.53-2.19-1.06-3.29-1.58c-0.12-1.2-0.36-2.39-0.6-3.57c-0.03-0.13-0.22-0.07-0.19,0.05
	c0.23,1.13,0.46,2.27,0.58,3.42c-0.14-0.07-0.28-0.13-0.42-0.2c-0.11-0.06-0.22,0.12-0.1,0.17c0.18,0.09,0.36,0.17,0.54,0.26
	c0.03,0.3,0.05,0.6,0.06,0.9c0.06,1.45-0.18,2.85-0.6,4.24c-0.7,2.32-1.72,4.63-1.3,7.11c0.4,2.39,1.81,4.46,2.31,6.82
	c0.53,2.5-0.4,4.89-1.06,7.27c-0.58,2.09-0.89,4.28,0.22,6.25c1.05,1.87,2.95,3.25,3.58,5.36c0.81,2.72-0.92,5.34-1.43,7.95
	c-0.19,0.99,0.02,1.79,0.76,2.48c0.81,0.76,1.75,1.27,2.3,2.27c1.08,1.98,0.69,4.45,0.89,6.61c0.07,0.77,0.11,2.03,1.04,2.26
	c0.41,0.1,0.83-0.04,1.2-0.21c0.6-0.28,1.17-0.65,1.72-1c2.13-1.36,4.07-2.97,6.11-4.46c1.04-0.76,2.1-1.48,3.21-2.11
	c1.02-0.58,2.1-1.05,3.18-1.52c1.98-0.87,4.04-1.89,4.97-3.97c0.47-1.05,0.64-2.2,0.75-3.34C761.97,596.66,762,595.26,761.96,593.86
	z"/>
<path class="st9" d="M854.08,656.38c-0.21-2.5-3.08-9.62-4.12-11.74c-2.16-4.37-4.42-5.3-4.47-10.29c-0.02-2.32,0.23-4.68-0.28-6.96
	c-0.44-1.99-1.56-3.59-3.1-4.89c-1.46-1.24-3.12-2.2-4.63-3.37c-1.75-1.36-3.1-3.01-3.7-5.18c-0.62-2.24-0.54-4.6-0.61-6.9
	c-0.07-2.2-0.29-4.38-1.14-6.43c-0.8-1.92-2.03-3.66-3.59-5.03c-1.7-1.49-3.82-2.38-5.59-3.78c-0.34-0.27-0.64-0.55-0.92-0.85
	c-0.18-0.56-0.42-1.1-0.73-1.61c-0.37-0.61-0.8-1.15-1.3-1.64c-0.97-2.32-1.43-4.93-2.46-7.25c-0.85-1.91-2.16-3.45-3.87-4.64
	c-1.8-1.26-3.85-2.11-5.85-2.99c-3.02-1.33-6.2-3.02-7.85-5.81c0.02-0.12,0.04-0.25,0.07-0.37c0.21-0.93,0.54-1.81,0.66-2.75
	c0.11-0.87,0.09-1.75-0.04-2.61c-0.27-1.72-1.02-3.3-2.14-4.62c-1.12-1.33-2.52-2.43-3.49-3.89c-1.31-1.96-1.15-4.2-0.84-6.42
	c1.33-2.19,2.08-4.74,2.09-7.32c0.02-4.02-1.83-7.94-4.83-10.59c-0.72-0.64-1.51-1.2-2.34-1.67c-0.94-0.53-1.94-0.98-2.76-1.7
	c-1.91-1.68-1.32-4.18-1.13-6.41c0.17-1.93-0.22-3.75-1.31-5.37c-1.04-1.55-2.55-2.77-4.22-3.6c-3.94-1.96-8.4-1.47-12.62-0.58
	c-1.65-1.39-3.48-2.57-5.53-3.3c-2.69-0.96-5.57-1.06-8.16-0.09c-2.81,0.42-5.5,1.63-7.66,3.49c-1.74,1.5-2.85,3.8-5.15,4.52
	c-1.04,0.32-2.11,0.51-3.14,0.87c-0.92,0.33-1.82,0.74-2.67,1.23c-3.4,1.94-6.28,5.13-7.52,8.88c-0.63,1.92-0.83,4.1,0.01,5.99
	c0.46,1.03,1.44,1.96,0.71,3.13c-0.57,0.9-1.59,1.44-2.35,2.14c-1.67,1.55-2.87,3.6-3.39,5.82c-0.24,1.04-0.43,2.33,0.24,3.25
	c0.44,0.6,1.2,0.93,1.9,0.73c-0.9,2.4-1.74,5.81,1.01,7.33c2.28,1.26,5.02,0.29,6.76-1.4c0.94-0.91,1.69-2,2.38-3.12
	c0.02,0.22,0.04,0.43,0.06,0.65c0.01,0.13,0.21,0.13,0.2,0c-0.04-0.31-0.06-0.63-0.08-0.94c0.16-0.26,0.31-0.52,0.47-0.78
	c0.07-0.11-0.11-0.21-0.17-0.1c-0.1,0.17-0.21,0.35-0.31,0.53c-0.22-4.93,1.53-9.87,4.66-13.67c1.67-2.03,3.74-3.75,6.08-4.95
	c2.38-1.22,4.99-1.9,7.48-2.84c1.54-0.58,3.06-1.27,4.4-2.21c3.6,2.81,6.44,6.58,8.17,10.82c1.2,2.94,1.8,6.04,1.88,9.21
	c0.09,3.76-0.37,7.55,0.22,11.3c0.57,3.61,2.18,7.01,4.56,9.79c0.01,4.27,0.16,8.55,0.74,12.78c0.68,4.99,2.02,9.81,4.08,14.4
	c2.99,6.68,7.18,12.72,11.5,18.61c0.33,3.41,0.38,6.84,0.03,10.28c-0.51,5.02-1.71,9.95-3.2,14.76c-2.41,7.76-6.7,13.68-10.05,25.54
	c-1.52,5.4-2.57,8.55-2.67,14.17c0,0.07,0.06,0.1,0.13,0.1c3.36-0.49,6.79-3.11,10.18-2.71c1.73,0.2,3.44,0.63,5.02,1.38
	c1.4,0.66,2.67,1.56,3.95,2.42c1.23,0.82,2.48,1.63,3.88,2.15c1.41,0.52,2.9,0.67,4.39,0.52c3.11-0.3,17.14-1.13,18.67-0.6
	c1.48,0.51,2.99,0.97,4.55,1.1c1.42,0.12,2.84-0.06,4.21-0.41c2.88-0.73,5.52-2.14,8.31-3.13c1.4-0.5,2.85-0.91,4.34-1.03
	c1.57-0.13,3.09,0.16,4.63,0.4c1.4,0.22,2.9,0.41,4.26-0.1c1.22-0.46,1.95-1.45,2.63-2.5c0.78-1.19,1.28-2.56,1.59-3.94
	c0.55-2.42,0.71-4.97,0.87-7.45C854.16,660.24,854.24,658.3,854.08,656.38z"/>
<path class="st1" d="M732.81,548.38c0,3.71,0.34,14.23,2.39,22.91c1.65,7,6.15,10.95,10.7,11.46c5.3,0.6,11.96,0.53,26.91-12.7
	c3.72-3.29,2.43-13.74,2.82-14.3c1.64-2.39,1.37-5.42,0.9-8.13c-0.93-5.36-3.16-10.5-6.38-14.88c-3.32-4.53-7.6-7.87-12.41-10.7
	c-5.06-2.97-10.27-5.13-16.21-3.9c-2.36,0.49-3.77,1.67-5.25,3.66c-1.23,1.66-2.08,6.08-2.62,11.08c-0.16,1.45-0.29,2.96-0.4,4.46
	C732.94,541.41,732.81,545.46,732.81,548.38z"/>
<path class="st1" d="M778.33,598.22c-0.14-9.15-3.57-49.69-3.79-49.69c-0.06-0.89-0.26-1.77-0.68-2.36
	c-0.54-0.75-1.78-1.14-2.58-0.88c-0.89,0.28-1.04,1.93-1.1,2.89c-0.05,0.88,0.05,1.73,0.35,2.41c-6.07,1.13-17.61,2.88-17.78,6.17
	c-0.11,2.08,0.25,11.67,0.58,22.41c0.03,1.05,0.06,2.11,0.09,3.17c0.01,0.45,0.03,0.9,0.04,1.35c0.03,1.05,0.06,2.09,0.09,3.14
	c0.21,7.76,0.35,15.36,0.24,20.52c0,0.08-0.89,2.22-0.83,2.21l16.22,6.34c0.05-0.01,2.92-5.47,4.38-8.28
	c0.35,0.21,0.72,0.39,1.1,0.54c0.13,0.05,0.29-0.05,0.32-0.26C776.05,597.93,778.47,608.13,778.33,598.22z"/>
<path class="st4" d="M754.94,547.26c-0.02,1.91,0.69,3.46,1.6,3.48c0.91,0.01,1.66-1.53,1.68-3.43s-0.69-3.46-1.6-3.48
	C755.72,543.81,754.96,545.35,754.94,547.26z"/>
<path class="st4" d="M736.26,546.21c-0.02,1.91,0.69,3.46,1.6,3.48c0.91,0.01,1.66-1.53,1.68-3.43c0.02-1.91-0.69-3.46-1.6-3.48
	S736.28,544.31,736.26,546.21z"/>
<path class="st10" d="M742.62,571.74c1.11,0.46,2.31,0.5,3.44,0.1c0.12-0.04,0.2,0.14,0.08,0.18c-1.18,0.42-2.44,0.39-3.6-0.09
	C742.43,571.88,742.5,571.69,742.62,571.74z"/>
<path class="st6" d="M750.64,564.87c0.03-0.06-0.09-0.08-0.15-0.06c-0.85,0.36-1.8,0.41-2.71,0.48c-0.91,0.07-1.82,0.14-2.73,0.17
	c-0.92,0.02-1.78-0.12-2.65-0.4c-0.7-0.23-1.39-0.46-2.13-0.53c-0.03-0.11-0.21-0.06-0.19,0.06c0.19,1.22,0.66,2.71,1.63,3.55
	c0.87,0.76,2.22,1,3.34,0.9c1.17-0.1,2.26-0.57,3.13-1.36C748.73,567.2,750.24,565.79,750.64,564.87z"/>
<path class="st11" d="M750.39,564.82c-0.91,0.29-1.86,0.47-2.62-0.27c-0.64-0.61-1.15-1.36-1.85-1.9c-0.51-0.39-1.19-0.68-1.83-0.5
	c-0.56,0.16-0.95,0.63-0.96,1.21c0,0.01,0,0.02,0.01,0.03c0,0,0,0.01,0,0.01v0.01c-0.43-0.52-0.93-1.1-1.61-1.24
	c-1.54-0.31-1.72,1.66-1.37,2.69c0.02,0.06,0.03,0.09,0.1,0.18c1.32,1.24,3.18,1.56,4.95,1.48c1.05-0.05,2.08-0.26,3.09-0.52
	c0.79-0.2,1.58-0.44,2.19-1.01c0.03-0.01,0.16-0.13,0.1-0.2C750.54,564.74,750.4,564.82,750.39,564.82z"/>
<path class="st10" d="M747.82,557.4c-1.4,0.4-3.07,0.43-4.4-0.25c-1.54-0.8-1.53-2.41-1.15-3.89c0.76-2.94,1.9-5.79,3.29-8.48
	c0.06-0.11-0.11-0.21-0.17-0.1c-0.8,1.55-1.51,3.14-2.11,4.77c-0.57,1.54-1.21,3.19-1.41,4.82c-0.17,1.35,0.32,2.53,1.58,3.12
	c1.36,0.64,3,0.61,4.42,0.21C748,557.56,747.94,557.37,747.82,557.4z"/>
<path class="st9" d="M752.82,519.24c-0.59-2.13-3.59-2.34-5.37-2.58c-4.3-0.58-9.25,0.03-12.23,3.54c-1.68,1.97-2.43,4.67-2.81,7.18
	c-0.2,1.31-0.28,2.64-0.23,3.97c0.02,0.64,0.07,1.28,0.15,1.92c0.11-0.02,0.23-0.03,0.34-0.04c0.19-0.55,0.4-1.1,0.63-1.64
	c0.89-2.08,2.03-4.32,3.63-5.94c0.88-0.89,1.94-1.45,3.2-1.46c1.09-0.01,2.18,0.29,3.27,0.11c1.1-0.18,1.82-0.95,2.69-1.57
	c1.07-0.77,2.24-0.75,3.5-0.79C751.08,521.89,753.35,521.18,752.82,519.24z"/>
<path class="st9" d="M799.93,515.77c-0.67-0.53-1.53-0.58-2.35-0.54c1.86-0.99,2.84-3.46,1.94-5.43c-0.66-1.44-2.18-2.28-3.72-2.34
	c-0.63-2.16-2.75-3.64-4.99-3.48c-1.25,0.09-2.43,0.62-3.33,1.48c0.06-1.3-0.71-2.49-1.82-3.14c-1.31-0.78-2.97-0.91-4.45-0.72
	c-2.72,0.35-5.22,1.91-6.86,4.09c-0.78,1.04-1.35,2.23-1.66,3.49c-0.4,0.05-0.79,0.15-1.18,0.29c-0.12,0.04-0.07,0.24,0.05,0.19
	c0.36-0.13,0.72-0.22,1.08-0.28c-0.05,0.21-0.09,0.43-0.12,0.65c-0.02,0.13,0.17,0.18,0.19,0.05c0.03-0.24,0.08-0.49,0.14-0.73
	c2.55-0.28,5.04,1.31,6.48,3.41c0.89,1.29,1.48,2.77,1.91,4.27c0.42,1.46,0.69,2.92,1.53,4.22c0.4,0.61,0.89,1.25,1.29,1.92
	c0.17,0.29,0.33,0.58,0.45,0.88c0.05,0.11,0.09,0.22,0.12,0.33c-0.34-0.11-0.69-0.22-1.02-0.35c-0.12-0.04-0.17,0.15-0.05,0.19
	c0.37,0.14,0.75,0.27,1.14,0.38c0.14,0.54,0.15,1.11-0.05,1.7c-0.04,0.12,0.15,0.18,0.19,0.05c0.19-0.58,0.19-1.15,0.07-1.7
	c0.21,0.06,0.41,0.11,0.62,0.16c0.44,0.11,0.88,0.2,1.33,0.26c0.3,0.05,0.6,0.09,0.91,0.11c0.84,0.08,1.68,0.1,2.52,0.05
	c1.21-0.07,2.42-0.29,3.59-0.65c1.59-0.49,3.08-1.27,4.36-2.33c1.28-1.06,2.68-2.55,2.68-4.32
	C800.9,517.15,800.59,516.29,799.93,515.77z"/>
<path class="st9" d="M776.61,539.73c-0.54-3.13-1.23-6.26-2.46-9.2c-1.29-3.08-3.22-5.65-5.58-8c-1.14-1.14-2.32-2.27-3.69-3.14
	c-1.39-0.88-2.97-1.39-4.58-1.68c-1.86-0.34-3.76-0.46-5.63-0.64c-0.85-0.08-1.92-0.36-2.75-0.06c-0.52,0.19-0.89,0.67-0.77,1.24
	c0.02,0.09,0.14,0.09,0.18,0.02c0.09-0.15,0.19-0.31,0.32-0.44c0.03-0.03,0.06-0.06,0.1-0.08c0.25,1.77,0.44,3.56,0.8,5.31
	c0.3,1.42,0.79,2.86,1.79,3.95c2.13,2.3,5.72,2.04,7.99,4.16c1.2,1.12,1.99,2.7,2.12,4.34c0.12,1.45-0.3,3.03,0.29,4.42
	c0.59,1.4,2.07,1.76,3.17,2.62c1.39,1.09,1.3,2.99,1.78,4.54c0.45,1.45,1.28,2.83,2.74,3.42c1.67,0.68,3.58,0.25,5.24-0.26
	c0.04-0.01,0.07-0.05,0.07-0.1C777.91,546.67,777.2,543.14,776.61,539.73z"/>
<path class="st12" d="M819.04,639.79c0-0.14,0-0.28-0.01-0.41c-0.01-0.2-0.01-0.4-0.02-0.6c-0.08-1.78-0.27-3.55-0.65-5.3
	c-0.21-1-0.49-1.99-0.83-2.98c-0.46-1.33-1.05-2.61-1.78-3.81c-3.4-10.35-15.45-20.04-25.57-26.51c-0.76-0.48-1.5-0.95-2.23-1.39
	c-1.38,1.15-2.81,1.91-4.52,2.58c-2.59,1.02-5.52,1.29-8.28,1.28c-3.14-0.01-6.3-0.45-9.38-1.03c-1.9-0.35-3.8-0.78-5.68-1.28
	c-3.76,0.88-7.56,1.52-11.39,1.25c-2.25-0.16-4.09-1.33-5-3.33l-1.79,0.94l-9.93,5.2l-7.51,3.94c-0.09,0.06-0.18,0.12-0.26,0.17
	c-2.17,1.43-4.34,2.84-6.38,4.45c-2.04,1.62-3.92,3.44-5.41,5.59c-1.38,2-2.4,4.21-3.22,6.48c-1.09,3.02-1.82,6.15-2.61,9.26
	c-0.29,1.13-0.58,2.26-0.9,3.39c-0.19,0.66-0.38,1.32-0.6,1.98c-0.79,2.47-1.81,4.84-3.09,7.1c-0.61,1.08-1.26,2.14-1.9,3.19
	c-0.69,1.13-1.38,2.25-2.02,3.4c-0.14,0.25-0.28,0.51-0.42,0.77c-1,1.87-1.87,3.84-2.32,5.92c-0.6,2.77-0.07,5.46-0.06,8.25
	c0,1.99-0.5,3.87-1.17,5.71c2.19,1.44,4.82,1.78,7.45,1.85c3.15,0.08,6.31-0.07,9.4,0.61c2.27,0.5,4.38,1.13,5.83,3
	c0.25,0.32,0.58,2.17,0.94,4.97c0.29,2.22,0.6,5.04,0.9,8.14c0.67,6.76,1.34,14.89,1.78,21.21c0.08,1.14,0.15,2.23,0.22,3.24
	c0.24,3.79,0.35,6.49,0.26,7.1c0.59-0.04,1.19-0.07,1.78-0.08c0.07,0,0.14,0,0.21,0c1.8-0.02,3.58,0.37,5.35,0.74
	c2.21,0.46,8.13,1.3,10,2.58c1.96,1.34,3.44,3.43,5.73,4.28c2.25,0.83,4.75,0.5,7.05,0.05c2.7-0.53,5.34-1.31,7.96-2.13
	c4.95-1.54,9.88-3.13,15.06-3.48c0.33-0.58,0.72-1.14,1.19-1.66c3.38-3.8,8.49-4.88,12.75-7.32c-0.02-0.04-0.03-0.08-0.02-0.13
	c0.4-3.77,1.03-7.51,1.76-11.23c0.17-0.86,0.34-1.73,0.52-2.59c0.02-0.09,0.04-0.17,0.05-0.26c0.11-0.54,0.23-1.08,0.34-1.61
	c0.04-0.17,0.07-0.34,0.11-0.51c0.03-0.16,0.07-0.31,0.1-0.46c0.08-0.38,0.16-0.76,0.25-1.15c1-4.63,2.02-9.25,2.79-13.92
	c0.2-1.21,0.44-2.44,0.52-3.67c0.06-0.86,0.05-1.71,0.19-2.56c0.13-0.78,0.47-1.53,0.79-2.25c0.1-0.21,0.16-0.42,0.39-0.51
	c0.27-0.1,0.71,0.05,0.98,0.04c0.82-0.04,1.56-0.14,2.38-0.06c1.31,0.13,2.47,0.19,3.7-0.39c0.42-0.2,0.82-0.42,1.23-0.64
	c0.6-0.05,1.21-0.13,1.8-0.22c1.1-0.17,5.34-0.93,5.65-0.96c2.12-0.25,4.28-0.18,6.23,0.79c0.07,0.03,0.14-0.01,0.15-0.09
	c0.32-3.63,0.1-7.28-0.06-10.91c-0.01-0.33-0.03-0.66-0.04-0.98c-0.02-0.46-0.03-0.92-0.04-1.38c-0.06-3.46,0.15-6.9,0.5-10.35
	c0.24-2.34,0.5-4.7,0.65-7.07c0.04-0.7,0.08-1.41,0.1-2.11c0-0.02,0-0.04,0-0.06c0.01-0.19,0.01-0.38,0.01-0.58
	C819.05,640.77,819.05,640.28,819.04,639.79z"/>
<path class="st1" d="M775.14,592.15c-0.13,0.74-21.51,0.9-21.51,0.9l-11.72,6.14c-0.51,6.95-3.23,13.72-2.89,20.75
	c0.22,4.49,2.21,8.58,2.82,12.99c0.61,4.39,0.08,8.83-0.25,13.22c-0.35,4.72-0.48,9.59,1.31,14.06c0.04,0.1,0.15,0.09,0.19,0
	c1.1-2.67,2.23-5.41,4.18-7.59c1.86-2.09,4.26-3.62,6.1-5.74c3.44-3.95,5.16-9,7.86-13.43c2.77-4.54,6.63-8.23,10.51-11.82
	c3.99-3.68,7.93-7.35,11.14-11.74c2.02-2.77,3.93-5.6,6.09-8.27c0.39-0.48,0.79-0.97,1.19-1.44
	C782.53,595.29,775.98,592.24,775.14,592.15z"/>
<path class="st9" d="M799.02,601.49c-0.41-1.95-0.89-3.89-1.44-5.82c-1.07-3.74-2.39-7.41-3.95-10.98
	c-3.15-7.2-7.27-13.97-12.23-20.07c-0.69-0.85-1.42-1.67-2.12-2.52c-0.44-0.53-0.76-1.07-0.93-1.74c-0.13-0.52-0.21-1.06-0.41-1.56
	c-0.61-1.51-2.42-2.73-3.92-1.55c-0.1,0.08,0.04,0.22,0.14,0.14c0.27-0.21,0.58-0.34,0.89-0.38c0.4,2.49,0.19,5.06-0.63,7.45
	c-0.74,2.15-2.03,4.18-1.89,6.54c0.12,2.18,1.16,4.16,1.56,6.29c0.23,1.21,0.14,2.37-0.15,3.56c-0.26,1.09-0.63,2.15-0.79,3.26
	c-0.13,0.95-0.07,1.91,0.33,2.79c0.4,0.9,1.06,1.64,1.65,2.42c0.72,0.97,1.15,1.93,1.28,3.13c0.11,1,0.15,2.03,0.66,2.92
	c0.91,1.57,2.74,2.34,4.4,2.81c2.12,0.6,4.38,1,5.86,2.78c0.83,0.99,1.44,2.13,2.38,3.04c0.79,0.76,1.72,1.55,2.87,1.57
	c0.65,0.01,1.29-0.09,1.94-0.04c0.62,0.05,1.23,0.17,1.82,0.36c1.24,0.4,3.19,0.55,4.1,1.48c0.06,0.06,0.17,0.01,0.17-0.07
	C800.67,605.17,799.46,603.59,799.02,601.49z"/>
<path class="st9" d="M762.42,538.52c-1.65-1.12-3.23-1.49-5.4-1.54c-1.7-0.05-5.1,0.11-5.76,2.2c-0.23,0.73-0.04,1.52,0.7,1.77
	c0.35,0.12,0.74,0.11,1.1,0.08c0.63-0.05,1.27-0.11,1.9-0.12c1.31-0.03,2.59,0.12,3.88,0.38c1.04,0.21,2.14,0.55,3.21,0.49
	c0.8-0.05,1.65-0.44,1.77-1.37C763.93,539.58,763.02,538.93,762.42,538.52z"/>
<path class="st9" d="M742.63,536.8c-1.65-1.12-3.23-1.49-5.4-1.54c-1.7-0.05-5.1,0.11-5.76,2.2c-0.23,0.73-0.04,1.52,0.7,1.77
	c0.35,0.12,0.74,0.11,1.1,0.08c0.63-0.05,1.27-0.11,1.9-0.12c1.31-0.03,2.59,0.12,3.88,0.38c1.04,0.21,2.14,0.55,3.21,0.49
	c0.8-0.05,1.65-0.44,1.77-1.37C744.15,537.85,743.23,537.2,742.63,536.8z"/>
<path class="st13" d="M776.17,718.17c-1.92-1.77-3.84-3.53-5.75-5.3c-1.7-1.57-3.42-3.16-4.74-5.07c-1.37-1.97-2.15-4.25-3.09-6.44
	c-0.9-2.1-2-4.11-3.18-6.07c-2.37-3.89-5.09-7.55-7.47-11.43c-2.48-4.05-4.38-8.38-5.85-12.89c-1.19-3.63-2.12-7.34-2.98-11.06
	c-0.05,0.05-0.11,0.09-0.17,0.13c1.79,7.73,3.93,15.43,7.9,22.36c2.31,4.03,5.09,7.76,7.57,11.68c1.24,1.95,2.41,3.95,3.4,6.04
	c1.02,2.15,1.74,4.44,2.9,6.52c1.25,2.24,3.07,4.06,4.93,5.79c2.12,1.97,4.26,3.93,6.4,5.89
	C776.12,718.4,776.26,718.26,776.17,718.17z"/>
<path class="st14" d="M767.53,511.87c-1.14-0.51-2.37-0.43-3.54-0.02c-0.61,0.21-1.19,0.5-1.74,0.82c-0.6,0.36-1.15,0.83-1.8,1.1
	c-0.79,0.33-1.61,0.15-2.43,0.04c-0.66-0.09-1.31-0.09-1.96,0.05c-1.18,0.26-2.27,0.93-3.01,1.89c-0.84,1.1-1.19,2.51-1.01,3.88
	c0.02,0.13,0.22,0.13,0.2,0c-0.22-1.63,0.34-3.32,1.58-4.43c0.61-0.54,1.35-0.93,2.13-1.12c0.88-0.22,1.7-0.12,2.58,0
	c0.68,0.1,1.35,0.14,2-0.13c0.7-0.29,1.29-0.82,1.95-1.19c1.48-0.85,3.29-1.45,4.93-0.72C767.54,512.1,767.64,511.93,767.53,511.87z
	"/>
<path class="st14" d="M784.85,537.97c-0.04-0.12-0.23-0.07-0.19,0.05c0.38,1.22,0.78,2.47,0.76,3.77c-0.02,1.31-0.5,2.38-1.4,3.31
	c-0.63,0.66-1.34,1.27-1.68,2.13c-0.37,0.92-0.26,2.06-1,2.8c-0.09,0.09,0.05,0.23,0.14,0.14c0.71-0.71,0.67-1.71,0.96-2.61
	c0.37-1.16,1.38-1.86,2.12-2.76C786.21,542.81,785.55,540.22,784.85,537.97z"/>
<path class="st14" d="M780.62,545.12c-0.13,0.56-0.27,1.13-0.4,1.69c-0.03,0.12,0.16,0.18,0.19,0.05c0.13-0.56,0.27-1.13,0.4-1.69
	C780.84,545.05,780.65,544.99,780.62,545.12z"/>
<path class="st14" d="M782.09,521.92c-0.89-3.97-4.2-6.94-8.23-7.43c-0.13-0.02-0.13,0.18,0,0.2c3.95,0.48,7.17,3.41,8.04,7.29
	C781.93,522.1,782.12,522.04,782.09,521.92z"/>
<path class="st14" d="M737.63,522.08c-2.04-0.38-4.13,0.03-5.87,1.16c-0.11,0.07-0.01,0.24,0.1,0.17c1.69-1.1,3.73-1.51,5.72-1.14
	C737.71,522.3,737.76,522.11,737.63,522.08z"/>
<path class="st14" d="M770.23,526.65c-0.09-0.09-0.23,0.05-0.14,0.14c1.14,1.19,1.6,2.89,1.21,4.49c-0.03,0.12,0.16,0.18,0.19,0.05
	C771.9,529.66,771.42,527.9,770.23,526.65z"/>
<path class="st14" d="M774.32,528.17c-0.06-0.11-0.23-0.01-0.17,0.1c0.63,1.22,0.44,2.73-0.48,3.75c-0.09,0.09,0.05,0.24,0.14,0.14
	C774.79,531.07,775,529.47,774.32,528.17z"/>
<path class="st14" d="M790.26,525.18c-0.12-0.65-0.22-1.35-0.49-1.96c-0.47-1.06-1.58-1.52-2.63-1.8c-0.76-0.2-1.42-0.43-1.6-1.29
	c-0.12-0.54-0.1-1.08-0.37-1.58c-0.48-0.89-1.49-1.4-2.49-1.3c-0.07,0.01-0.1,0.07-0.09,0.13c0,0,0,0,0,0
	c0,0.01,0.01,0.02,0.01,0.02c0,0.01,0.01,0.01,0.01,0.02c0,0,0,0,0,0c0.01,0.01,0.01,0.02,0.02,0.02c1.84,1.28,0.84,3.83,1.42,5.72
	c0.06,0.19,0.13,0.37,0.23,0.55c0.07,0.12,0.14,0.23,0.22,0.33c0.27,0.35,0.62,0.61,1.02,0.78c0.25,0.11,0.53,0.18,0.82,0.21
	c0.17,0.02,0.34,0.04,0.52,0.05c0.3,0.03,0.61,0.05,0.91,0.11c0.84,0.08,1.68,0.1,2.52,0.05
	C790.27,525.24,790.27,525.21,790.26,525.18z"/>
<path class="st14" d="M785.4,542.78c0.02-0.12-0.26,1.09-0.9,1.91c-0.41,0.52-1.33,1.22-1.84,2.08c-0.46,0.76-0.53,1.66-0.67,2.22
	c-0.17,0.67-0.9,1.38-1.27,1.69c-0.6,0.52-1,0.6-1.4,1.05c-0.51,0.56-0.23,1.69-0.55,2.36c-0.04-0.06-0.16-0.07-0.18,0.02
	c-0.25,0.95-0.52,1.89-0.74,2.84c-0.14,0.62,0.31,1.05,0.82,1.36c0.45,0.27,1.01,0.37,1.44,0.02c0.46-0.37,0.5-0.97,0.54-1.51
	c0.05-0.65,0.54-0.72,1.01-0.95c0.31-0.16,0.58-0.38,0.8-0.65c0.45-0.54,0.69-1.21,0.79-1.91c0.24-1.83-0.65-3.71,0.37-5.4
	c0.48-0.79,0.98-1.52,1.28-2.41c0.25-0.74,0.37-1.51,0.39-2.28C785.34,543.07,785.37,542.93,785.4,542.78z"/>
<path class="st15" d="M779.4,550.51c-0.85-1.5-2.45-2.22-4.15-1.95c-1.87,0.3-3.27,1.6-4.35,3.09c0.01,0.39-0.06,0.78-0.21,1.16
	c0.38,3.09,0.36,6.21-0.07,9.3c-0.01,0.07,0.05,0.12,0.11,0.11c3.69-0.54,7.08-2.96,8.62-6.39
	C780.11,554.15,780.34,552.16,779.4,550.51z"/>
<path class="st16" d="M779.21,561.05c-0.52-0.39-1.35-0.33-1.93-0.36c-0.43-0.02-0.86-0.02-1.29-0.02c0.02-0.24,0.04-0.48,0.06-0.72
	c0.03-0.44,0.06-0.87,0.08-1.31c0.01-0.17,0.06-0.41-0.09-0.56c-0.14-0.14-0.36-0.11-0.52-0.11c-0.51,0-0.87,0.02-1.36,0.1
	c-0.28,0.04-0.22,0.28-0.25,0.69c-0.04,0.52-0.07,1.29-0.1,2.11c-0.87,0.01-1.82,0.15-2.37,0.68c-0.33,0.32-0.47,0.78-0.59,1.22
	c-0.19,0.69-0.35,1.39-0.49,2.1c-0.27,1.36-0.45,2.74-0.53,4.13c-0.03,0.58-0.1,1.18-0.05,1.77c0.04,0.38,0.21,0.69,0.58,0.85
	c0.5,0.21,1.14,0.15,1.66,0.17c0.79,0.03,1.58,0.04,2.37,0.04c0.72-0.01,1.44-0.03,2.16-0.07c0.52-0.03,1.11,0.01,1.51-0.34
	c0.28-0.24,0.43-0.6,0.55-0.94c0.23-0.66,0.39-1.34,0.52-2.03c0.27-1.36,0.39-2.75,0.48-4.14c0.04-0.68,0.13-1.39,0.1-2.08
	C779.7,561.82,779.6,561.34,779.21,561.05z M775.47,564.96c0.18-0.25,0.14-0.79,0.18-1.1c0.06-0.42,0.11-0.85,0.16-1.27
	c0.21,0,0.43,0,0.64,0c0.39,0,0.8,0.12,0.87,0.58c0.03,0.19,0.02,0.39,0.01,0.58c-0.03,0.96-0.07,1.93-0.15,2.88
	c-0.08,0.9-0.19,1.8-0.41,2.67c-0.11,0.41-0.26,0.53-0.71,0.6c-0.24,0.04-0.51,0.03-0.76,0.04c-0.47,0.02-0.95,0.04-1.42,0.05
	c-0.47,0.01-0.95,0.02-1.43,0.02c-0.22,0-0.49,0.04-0.7-0.01c-0.56-0.12-0.59-0.45-0.55-0.86c0.07-0.89,0.25-1.77,0.38-2.65
	c0.13-0.88,0.23-1.79,0.49-2.64c0.17-0.57,0.45-1.06,1.04-1.26c0.2-0.07,0.42-0.11,0.64-0.13c-0.02,0.5-0.04,0.97-0.07,1.36
	c-0.02,0.36-0.26,1.13,0.25,1.32C774.28,565.27,775.25,565.29,775.47,564.96z"/>
<path class="st14" d="M802.66,576.8c-1.97-0.99-4.34-1.29-6.04-2.77c-1.77-1.53-2.32-3.97-2.5-6.2c-0.12-1.47-0.1-2.96-0.26-4.43
	c-0.12-1.11-0.3-2.28-1.08-3.13c-0.09-0.09-0.23,0.05-0.14,0.14c0.85,0.93,0.97,2.27,1.07,3.47c0.11,1.31,0.11,2.63,0.21,3.95
	c0.16,1.96,0.58,4,1.83,5.57c1.35,1.71,3.47,2.24,5.42,2.97c1.95,0.73,3.67,1.88,5.06,3.43c1.56,1.74,2.62,3.89,3.03,6.19
	c0.02,0.13,0.21,0.07,0.19-0.05C808.75,582.06,806.18,578.58,802.66,576.8z"/>
<path class="st14" d="M813.94,600.65c-1.36-0.95-2.9-1.45-4.43-2.05c-0.85-0.33-1.71-0.72-2.42-1.31c-0.78-0.65-1.26-1.51-1.64-2.44
	c-0.67-1.67-1.15-3.66-2.88-4.56c-0.11-0.06-0.21,0.11-0.1,0.17c1.71,0.89,2.15,2.88,2.82,4.52c0.62,1.52,1.57,2.6,3.04,3.33
	c1.47,0.72,3.08,1.1,4.51,1.89c1.47,0.82,2.76,1.96,3.76,3.31c1.11,1.5,1.86,3.24,2.18,5.09c0.02,0.13,0.21,0.07,0.19-0.05
	C818.43,605.38,816.58,602.49,813.94,600.65z"/>
<path class="st14" d="M821.03,600.67c-0.07-0.1-0.24-0.01-0.17,0.1c1.3,1.89,1.86,4.21,1.55,6.49c-0.02,0.13,0.17,0.18,0.19,0.05
	C822.92,604.97,822.37,602.61,821.03,600.67z"/>
<path class="st14" d="M829.24,601.8c-0.75-2.59-2.65-4.75-5.13-5.81c-0.12-0.05-0.22,0.12-0.1,0.17c2.43,1.04,4.3,3.14,5.04,5.69
	C829.08,601.98,829.27,601.93,829.24,601.8z"/>
<path class="st14" d="M794.69,600.34c-2.6,0.8-4.68-1.35-6.02-3.29c-0.07-0.1-0.25-0.01-0.17,0.1c1.39,2.01,3.55,4.21,6.25,3.38
	C794.86,600.5,794.81,600.3,794.69,600.34z"/>
<path class="st12" d="M806.94,767.92h-90.69c0-0.02,0-0.04,0-0.07H703c0.02-0.15,0.05-0.31,0.08-0.47c0.64-2.89,1.47-5.76,2.4-8.59
	c0.55-1.65,1.14-3.29,1.75-4.92c0.29-0.78,0.6-1.56,0.9-2.33c0.02-0.04,0.03-0.08,0.05-0.13c0.3-0.77,0.62-1.54,0.93-2.3
	c0.17-0.41,0.33-0.81,0.51-1.22c0.26-0.63,0.53-1.25,0.8-1.88c0.35-0.83,0.71-1.65,1.07-2.47c0.21-0.47,0.41-0.94,0.62-1.41
	c0.73-1.67,1.48-3.34,2.21-5c1.7-3.85,3.39-7.7,4.94-11.61c1.82-4.62,3.43-9.32,4.59-14.11c-0.27-0.39-0.53-0.79-0.75-1.21
	c-0.06-0.11,0.12-0.21,0.18-0.1c0.19,0.36,0.41,0.71,0.64,1.04c0.22-0.91,0.42-1.82,0.61-2.74c0.03-0.13,0.23-0.13,0.2,0
	c-0.2,0.99-0.42,1.97-0.65,2.95c0.07,0.1,0.15,0.2,0.22,0.3c-0.03-0.15-0.05-0.29-0.08-0.44c-0.02-0.12,0.17-0.18,0.2-0.05
	c0.05,0.25,0.09,0.5,0.14,0.75c0.26,0.3,0.53,0.61,0.79,0.92c0.04,0.04,0.03,0.09,0,0.12c0.39,0.45,0.8,0.89,1.23,1.3
	c0.09,0.09-0.06,0.23-0.15,0.14c-0.65-0.61-1.24-1.28-1.78-1.99c0.65,3.51,1.26,7.02,1.84,10.54c2.37-2.5,4.64-5.26,6.25-8.3
	c1.51-2.86,2.91-5.75,3.85-8.81c0.3,0.06,0.6,0.11,0.9,0.17c3.75,0.71,7.51,1.26,11.33,1.63c7.12,0.68,14.31,0.94,21.35,2.06
	c6.82,1.08,11.05,4.44,17.34,7.04C800.26,722.02,807,764.6,806.94,767.92z"/>
<path class="st13" d="M721.35,646.4c0.94-3.01,1.59-6.13,1.5-9.3c0-0.13-0.2-0.13-0.2,0c0.31,11.4-8.79,21.1-7.12,32.63
	c0.39,2.67,1.38,5.23,3.12,7.31c0.08,0.1,0.22-0.04,0.14-0.14c-3.34-3.99-3.77-9.57-2.81-14.5
	C717.06,656.85,719.67,651.77,721.35,646.4z"/>
<path class="st13" d="M786.2,638.26c-0.01-0.13-0.21-0.13-0.2,0c0.15,2.14-0.42,4.2-0.99,6.24c-0.57,2.04-0.97,4.05-1.02,6.18
	c-0.05,2.23,0.14,4.46-0.01,6.68c-0.14,2.17-0.69,4.28-1.13,6.41c-0.46,2.23-0.78,4.5-0.36,6.76c0.02,0.13,0.22,0.07,0.19-0.05
	c-0.8-4.25,1.06-8.36,1.45-12.55c0.2-2.19,0.04-4.39,0.05-6.58c0.01-2.21,0.34-4.31,0.92-6.44
	C785.7,642.73,786.36,640.54,786.2,638.26z"/>
<path class="st10" d="M778.07,552.87c-0.95-1.13-2.57-0.63-3.45,0.31c-0.58,0.62-0.94,1.39-1.33,2.14
	c-0.41,0.79-1.22,2.41-2.35,1.76c-0.11-0.06-0.21,0.11-0.1,0.17c1.43,0.83,2.38-1.36,2.87-2.3c0.42-0.81,0.89-1.65,1.68-2.16
	c0.79-0.51,1.9-0.54,2.54,0.22C778.01,553.11,778.15,552.97,778.07,552.87z"/>
<path class="st15" d="M760.27,575.97c-0.04-0.04-0.12-0.03-0.16,0.02c-2.11,2.68-3.97,4.44-6.7,6.35c0.01,0.45,0.03,0.9,0.04,1.35
	c0.03,1.05,0.06,2.09,0.09,3.14c0.12-0.15,0.22-0.31,0.3-0.49c0.19-0.4,0.24-0.85,0.61-1.13c0.55-0.41,1.32-0.36,1.94-0.59
	c0.49-0.18,0.84-0.53,1.03-1.02c0.24-0.62,0.22-1.31,0.39-1.95c0.23-0.85,0.88-1.44,1.5-2.02
	C760.26,578.77,761.53,577.17,760.27,575.97z"/>
<path class="st10" d="M758.03,599.34c-2.25-0.7-4.57-1.06-6.93-1.06c-0.13,0-0.13,0.2,0,0.2c2.33,0.01,4.64,0.36,6.87,1.06
	C758.1,599.57,758.16,599.38,758.03,599.34z"/>
<path class="st10" d="M773.06,598.96c-2.71-0.79-5.75-0.88-8.16,0.81c-0.1,0.07,0,0.25,0.1,0.17c2.37-1.65,5.34-1.56,8-0.79
	C773.13,599.19,773.18,599,773.06,598.96z"/>
<path class="st1" d="M705.98,685.75c-2.9-3.65-23.35-38.45-32.56-56.16c-1.09,0.62-5.85,3.32-8.31,4.54
	c5.39,17.15,17.03,52.17,18.14,55.59c1.28,3.94,2.53,7.92,4.42,11.62c1.7,3.34,3.96,6.4,6.99,8.65c2.84,2.1,6.51,3.55,10.09,3.07
	c3.79-0.51,6.58-3.93,8.52-6.97c2.06-3.21,3.44-6.8,4.67-10.4c0.3-0.89,0.6-1.78,0.89-2.68
	C718.95,693.08,709.45,690.13,705.98,685.75z"/>
<path class="st1" d="M676.12,637.5c-0.04-0.35-0.19-0.73-0.28-1.07c-0.11-0.41-0.22-0.82-0.33-1.23c-0.22-0.84-0.44-1.67-0.67-2.51
	c0.38-4.3,0.63-8.65-0.16-12.91c-0.45-2.45-1.35-4.74-2.25-7.04c-0.85-2.16-1.93-6.05-3.12-7.73c-0.41-0.57-1.07-1.5-1.89-1.35
	c-0.73,0.14-0.86,0.98-0.86,1.6c0.03,2.42,1.33,7.39,1.73,9.81c0.29,1.78,0.55,3.58,0.85,5.37c-0.98-1.48-2.02-2.91-3.23-4.24
	c-1.24-1.35-2.5-2.66-3.78-3.97c-2.3-3.23-1.04-1.75-3.35-4.98c-2.57-3.6-5.12-7.24-8.09-10.53c-0.74-0.82-1.5-1.61-2.3-2.37
	c-0.66-0.63-1.34-1.34-2.21-1.68c-1.35-0.54-2.53-0.31-2.02,1.32c0.28,0.91,1.01,1.66,1.58,2.4c0.76,0.97,1.51,1.94,2.25,2.92
	c1.42,1.87,2.83,3.75,4.21,5.65c2.66,3.65,1.67,2.64,4.17,6.39c-0.5,0.56-0.46,0.47-0.95,1.05c-2.75-3.51-9.69-14.39-12.95-18.19
	c-0.69-0.81-2.17-3.29-3.39-2.47c-0.79,0.53-0.69,1.47-0.51,2.27c0.26,1.16,9.3,14.34,10.88,16.54c0.87,1.21,1.7,2.46,2.5,3.72
	c0.26,0.41,0.51,0.82,0.77,1.22c-0.53,0.67-0.31,0.62-0.83,1.29c-2.4-3.14-10.35-11.37-12.85-13.06c-0.58-0.4-1.77-0.75-2.14,0.05
	c-0.38,0.81-0.59,1.57-0.16,2.33c1.13,1.96,2.41,3.05,3.5,4.58c0.01,0.02,0.03,0.04,0.04,0.06c-0.11-0.06-0.23-0.11-0.35-0.16
	c-0.7-0.31-1.4-0.35-1.73,0.46c-0.31,0.76-0.1,1.7,0.23,2.42c0.41,0.92,4.13,4.81,10.53,10.1c5.65,4.66,16.57,15.08,19.11,17.09
	c-0.19,0.05-0.38,0.1-0.57,0.15c-0.12,0.03-0.07,0.22,0.05,0.19c0.24-0.06,0.48-0.12,0.72-0.19c0.42,0.33,0.83,0.66,1.24,1
	c0.1,0.08,0.24-0.06,0.14-0.14c-0.38-0.31-0.77-0.61-1.15-0.92c1.12-0.3,2.23-0.64,3.32-1.02c1.28-0.45,2.61-0.9,3.82-1.51
	C676,638.01,676.16,637.86,676.12,637.5z"/>
<path class="st10" d="M650.02,618.91c-2.17-3.09-5.06-5.61-8.42-7.33c-0.11-0.06-0.21,0.11-0.1,0.17c3.33,1.71,6.2,4.2,8.35,7.26
	C649.92,619.11,650.09,619.01,650.02,618.91z"/>
<path class="st10" d="M666.84,627.61c-0.98-0.95-2.17-1.53-3.48-1.87c-1.62-0.42-3.27-0.62-4.8-1.35c-1.55-0.74-2.9-1.85-3.95-3.21
	c-0.08-0.1-0.22,0.04-0.14,0.14c1.73,2.24,4.14,3.59,6.88,4.18c1.5,0.32,3.03,0.58,4.33,1.44c1.08,0.71,1.95,1.73,2.53,2.88
	c0.69,1.36,0.96,2.9,0.72,4.41c-0.02,0.13,0.17,0.18,0.19,0.05C669.52,631.84,668.61,629.32,666.84,627.61z"/>
<path class="st1" d="M815.78,674.08c-0.81-0.03-3.37-0.22-4.18-0.13c-0.31,0.04-4.55,0.79-5.65,0.96c-0.6,0.09-1.2,0.17-1.81,0.22
	c-0.41,0.22-0.81,0.44-1.23,0.63c-1.23,0.58-2.39,0.52-3.7,0.39c-0.82-0.08-1.56,0.02-2.38,0.06c-0.28,0.01-0.72-0.14-0.99-0.04
	c-0.23,0.09-0.29,0.29-0.39,0.51c-0.33,0.72-0.66,1.46-0.79,2.25c-0.14,0.85-0.13,1.71-0.19,2.56c-0.09,1.23-0.32,2.46-0.52,3.67
	c-0.49,3-1.09,5.98-1.72,8.95c1.1,12.58,2.17,24.01,2.3,25.97c0.29,4.12,0.78,30.63,1.74,38.96c0.35,3.01,0.7,6.03,1.08,9.04h14.28
	c0.14-21.98,4.59-59.01,4.61-62.74C816.24,704,816.68,687.52,815.78,674.08z"/>
<path class="st10" d="M708.09,691.79c-2.1-4.82-4.42-9.54-6.96-14.15c-0.06-0.11-0.23-0.01-0.17,0.1c2.54,4.6,4.86,9.33,6.96,14.15
	C707.97,692.01,708.14,691.91,708.09,691.79z"/>
<path class="st10" d="M806.28,718.51c-1.67-4.74-4.13-9.16-7.28-13.07c-0.08-0.1-0.22,0.04-0.14,0.14
	c3.12,3.88,5.57,8.28,7.23,12.98C806.13,718.68,806.32,718.63,806.28,718.51z"/>
<path class="st13" d="M766.36,720.3c-2.77,0.35-5.56,0.34-8.35,0.42c-2.74,0.08-5.41,0.34-8.09,0.92c-1.35,0.29-2.71,0.6-4.09,0.74
	c-1.44,0.14-2.88,0.13-4.32,0.06c-2.83-0.13-5.65-0.34-8.47-0.51c-3.22-0.2-6.44-0.4-9.66-0.6c-0.13-0.01-0.13,0.19,0,0.2
	c5.72,0.35,11.43,0.73,17.15,1.06c2.77,0.16,5.44,0.09,8.15-0.48c1.33-0.28,2.66-0.6,4.01-0.8c1.41-0.21,2.84-0.3,4.27-0.36
	c3.14-0.13,6.28-0.06,9.4-0.46C766.49,720.49,766.49,720.29,766.36,720.3z"/>
<path class="st13" d="M784.53,716.79c-2.28,1.2-4.82,1.78-7.39,1.69c-0.13,0-0.13,0.19,0,0.2c2.61,0.09,5.18-0.5,7.49-1.72
	C784.74,716.9,784.64,716.73,784.53,716.79z"/>
<path class="st17" d="M740.5,751.23c-3.16-0.16-6.32,0.2-9.48,0.24c-3.17,0.05-6.36-0.24-9.51-0.54c-4.15-0.39-8.3-0.95-12.38-1.82
	c-0.32,0.76-0.63,1.53-0.93,2.3c0.76,0.34,1.53,0.64,2.32,0.9c3.01,0.98,6.15,1.62,9.26,2.19c6.24,1.14,12.62,1.75,18.96,1.7
	c1.37-0.01,2.76-0.09,4.1-0.45c1.08-0.29,2.5-0.79,3.04-1.86C747.14,751.42,741.72,751.29,740.5,751.23z M732.1,742.26
	c2.78-0.97,5.56-2.13,8-3.79c1.96-1.33,3.87-3.19,4.33-5.61c0.19-0.98,0.15-2.19-1.02-2.49c-1.28-0.32-2.54,0.77-3.54,1.4
	c-2.83,1.76-5.68,3.48-8.56,5.15c-2.83,1.64-5.67,3.28-8.6,4.74c-3.93,1.95-8.07,3.29-12.29,4.36c-0.27,0.62-0.53,1.25-0.8,1.88
	c4.49-0.38,8.92-1.68,13.23-2.87C725.96,744.17,729.07,743.32,732.1,742.26z M733.19,762.81c-1.15-0.69-2.48-1.15-3.71-1.68
	c-1.39-0.61-2.78-1.22-4.17-1.83c-2.72-1.19-5.44-2.38-8.16-3.57c-2.96-1.3-6.14-2.52-9.01-4.18c-0.31,0.77-0.61,1.55-0.9,2.33
	c1.58,1.52,3.28,2.91,4.97,4.25c4.14,3.29,8.67,6.25,13.78,7.77c1.24,0.37,2.52,0.65,3.8,0.83c1.07,0.15,2.22,0.31,3.29,0.04
	c0.76-0.2,1.47-0.68,1.59-1.51C734.83,764.2,734.04,763.31,733.19,762.81z M726.71,730.88c1.36-1.81,2.49-3.82,3.12-6
	c0.21-0.71,0.38-1.7-0.46-2.08c-0.8-0.36-1.75,0.16-2.39,0.61c-0.92,0.64-1.67,1.49-2.4,2.32c-0.89,1.02-1.78,2.03-2.68,3.04
	c-1.82,2.05-3.65,4.08-5.49,6.1c-0.69,0.75-1.38,1.5-2.07,2.25c-0.74,1.67-1.48,3.33-2.21,5c-0.21,0.47-0.41,0.94-0.62,1.41
	c1.74-0.95,3.43-2.01,5.06-3.15C720.32,737.74,723.94,734.58,726.71,730.88z"/>
<path class="st17" d="M784.21,706.65c2.08-1.01,4.21-2.08,6.03-3.53c-0.18,0.86-0.35,1.73-0.52,2.59c-1.27,1.52-2.67,2.95-4.17,4.25
	c-2.61,2.27-5.6,4.35-8.8,5.69c-1.12,0.47-3.43,1.22-4.23-0.18c-0.7-1.21,0.54-2.71,1.39-3.46c1.31-1.14,2.98-1.82,4.52-2.57
	C780.36,708.51,782.29,707.58,784.21,706.65z"/>
<path class="st17" d="M790.49,701.2c0.05,0.01,0.09,0.02,0.14,0.04c-0.12,0.54-0.23,1.08-0.34,1.61c-2.64,0.91-5.43,1.34-8.23,1.26
	c-3.23-0.09-6.45-0.83-9.36-2.25c-1.21-0.59-2.63-1.42-2.7-2.92c-0.07-1.33,1.09-2.08,2.32-1.84c0.75,0.15,1.39,0.6,2.01,1.04
	c0.73,0.52,1.49,1.01,2.28,1.43c1.56,0.83,3.24,1.45,4.96,1.85c2.94,0.68,6.02,0.69,8.96,0.03c-0.03-0.02-0.06-0.04-0.08-0.06
	c-4.55-1.22-8.59-3.91-11.86-7.27c-3.03-3.11-5.78-6.95-6.54-11.31c-0.18-1.04-0.24-2.11-0.13-3.16c0.08-0.77,0.13-2.05,0.95-2.43
	c0.68-0.32,1.48,0.11,2.02,0.53c0.84,0.65,1.56,1.55,2.22,2.39C782.18,686.6,783.88,696.04,790.49,701.2z"/>
<path class="st17" d="M791.09,699.12c-0.08,0.38-0.17,0.76-0.25,1.15c-0.03,0.16-0.07,0.31-0.1,0.46c-2.19-2.67-3.98-5.67-5.28-8.87
	c-1.48-3.62-2.48-7.63-2.5-11.55c-0.01-1.04,0.08-2.08,0.39-3.08c0.24-0.81,0.64-1.77,1.33-2.31c0.65-0.5,1.22-0.22,1.57,0.45
	c0.44,0.85,0.74,1.78,0.96,2.71c0.93,3.98,0.35,8.13,0.99,12.15C788.68,693.33,789.67,696.33,791.09,699.12z"/>
<path class="st17" d="M732.04,604.42l-7.51,3.94c-0.09,0.06-0.18,0.12-0.26,0.17c-0.35,0.9,0.08,1.74,0.94,2.12
	c1.01,0.45,2.17,0.26,3.2-0.01c1.43-0.38,2.79-1,4.2-1.47c2.52-0.85,5.11-1.48,7.74-1.9c-0.06,0.08-0.12,0.17-0.18,0.26
	c-4.9,2.1-9.77,4.76-12.41,9.57c-0.62,1.13-1.22,2.46-1.33,3.76c-0.07,0.79,0.13,2.03,1.1,2.17c0.56,0.08,1.02-0.28,1.36-0.68
	c0.52-0.61,0.95-1.31,1.42-1.97c1.08-1.54,2.16-3.07,3.24-4.6c1.16-1.65,2.3-3.32,3.5-4.95c0.8-1.09,1.7-2.16,2.86-2.86
	c-0.14,0.27-0.27,0.55-0.39,0.84c-4.67,5.22-8.98,11.42-8.63,18.71c0.07,1.45,0.31,3.25,1.7,4.06c0.54,0.31,1.22,0.45,1.82,0.24
	c0.71-0.24,1.09-0.9,1.36-1.55c0.72-1.72,0.76-3.63,0.79-5.48c0.04-2.09,0.17-4.16,0.48-6.23c0.34-2.24,0.86-4.45,1.54-6.6
	c0.33-1.03,0.69-2.07,1.11-3.07c0.27-0.3,0.55-0.6,0.82-0.9c0.13-0.64,0.26-1.27,0.39-1.9C738.1,605.15,735.01,604.3,732.04,604.42z
	"/>
<path class="st17" d="M809.67,630.02c0.87,1.4,1.85,2.73,2.93,3.98c1.89,2.2,4.06,4.15,6.44,5.79c0-0.14,0-0.28-0.01-0.41
	c-0.01-0.2-0.01-0.4-0.02-0.6c-1.47-2.31-2.71-4.75-3.91-7.2c-0.8-1.64-1.59-3.28-2.43-4.89c-0.43-0.83-0.88-1.66-1.35-2.47
	c-0.37-0.65-0.73-1.35-1.21-1.93c-0.29-0.34-0.71-0.71-1.19-0.73c-0.5-0.02-0.83,0.35-1.01,0.79c-0.49,1.21-0.36,2.66-0.02,3.89
	C808.27,627.58,808.93,628.84,809.67,630.02z M808.35,633.97c-1.52-1.57-3.04-3.13-4.56-4.7c-0.48-0.5-0.98-1.04-1.73-1.01
	c-0.57,0.03-1.1,0.36-1.47,0.78c-0.98,1.14-0.53,2.7,0.2,3.85c1.88,2.97,5.13,5.05,8.31,6.38c2.01,0.84,4.11,1.42,6.23,1.89
	c1.02,0.22,2.06,0.45,3.09,0.6c0.2,0.03,0.4,0.05,0.62,0.06c0.01-0.19,0.01-0.38,0.01-0.58c-2.34-0.41-4.56-1.66-6.4-3.16
	C811.11,636.84,809.73,635.4,808.35,633.97z M800.9,643.72c-2.34-0.38-4.78-0.52-7.13-0.24c-0.92,0.11-1.76,0.5-2.02,1.45
	c-0.26,0.94,0.14,1.87,0.73,2.59c1.37,1.68,3.5,2.57,5.54,3.11c2.18,0.58,4.54,1.01,6.8,0.99c2.16-0.02,4.29-0.55,6.26-1.45
	c2.26-1.02,4.29-2.51,6.06-4.23c0.63-0.62,1.23-1.27,1.8-1.94c0.04-0.7,0.08-1.41,0.1-2.11c-3.26,1.83-6.98,2.82-10.73,2.82
	C805.78,644.71,803.36,644.12,800.9,643.72z"/>
<path class="st18" d="M732.57,487.39c-0.64-4.37-2-8.66-3.96-12.62c-3.84-7.75-10.13-14.17-18.1-17.64
	c-3.86-1.68-8.04-2.65-12.25-2.74c-4.92-0.1-9.77,1.07-14.36,2.79c-4.16,1.56-8.22,3.5-12,5.86c-3.49,2.17-6.76,4.75-9.48,7.83
	c-2.74,3.11-4.86,6.73-6.07,10.7c-1.23,4.05-1.53,8.34-1.11,12.54c0.43,4.34,1.6,8.59,3.29,12.6c0.82,1.93,1.61,3.92,2.83,5.62
	c6.74,9.43,14.95,14.9,22.67,15.68c4.91,0.5,9.87-0.13,14.62-1.36c2.39-0.62,4.71-1.44,7.04-2.23c0.31-0.11,0.64-0.21,0.96-0.16
	c0.27,0.04,0.51,0.19,0.74,0.33c2.22,1.37,4.44,2.73,6.66,4.09c1.09,0.67,2.23,1.25,3.35,1.88c0.33,0.18,0.64,0.17,0.66-0.27
	c0.03-0.7-0.15-1.37-0.26-2.06c-0.16-1.03-0.36-2.06-0.56-3.08c-0.19-0.91-0.38-1.82-0.58-2.74c-0.18-0.85-0.46-1.75-0.51-2.62
	c-0.03-0.15-0.05-0.31-0.01-0.46c0.05-0.16,0.19-0.28,0.32-0.4c1.14-0.97,2.28-1.92,3.35-2.97c0.51-0.5,3.39-2.79,3.52-3.51
	c0.01-0.05,0.04-0.1,0.07-0.14c2.93-3.4,5.91-6.98,7.72-11.13C733.03,496.84,733.26,492.03,732.57,487.39z"/>
<path class="st18" d="M666.07,543.22c-0.06-3.27-0.77-6.39-2.04-9.11c-1.32-2.84-3.27-5.17-5.5-7.14c-2.34-2.07-4.94-3.91-7.71-5.36
	c-1.51-0.79-8.8-2.9-17.26-2.43c-11.89,0.66-19.62,9.02-22.97,13.99c-1.94,2.89-3.45,6.42-4.36,9.67
	c-1.45,5.24-1.05,10.17,0.39,15.33c0.05,0.18,0.1,0.36,0.08,0.55c-0.02,0.2-0.11,0.38-0.21,0.56c-0.05,0.54-0.72,1.37-0.98,1.86
	c-0.38,0.71-0.75,1.43-1.13,2.14c-0.3,0.58-2.18,3.25-1.75,3.82c0.15,0.2,0.44,0.18,0.68,0.15c2.61-0.35,5.24-0.78,7.87-1.01
	c0.26-0.03,0.53-0.07,0.78,0.02c0.23,0.08,0.42,0.25,0.6,0.41c2.28,2.02,4.97,3.54,7.84,4.52c6.32,2.15,13.55,1.91,20.64,0.25
	c6.15-1.44,12.69-4.04,17.6-9.34C663.51,556.89,666.19,549.76,666.07,543.22z"/>
<path class="st19" d="M105.84,824.6c13.44,6.53,15.29,7.81,15.3,23.11c0.03,66.09,0.09,132.18-0.05,198.28
	c-1.06,28.85,18.03,48.8,47.15,47.97c242.83-0.09,485.66-0.05,728.49,0.02c13.06,0.01,25.1-2.27,34.97-11.53
	c9.25-8.68,13.52-19.59,13.53-32.09c0.07-79.71,0.22-159.42-0.07-239.13c-0.1-26.65-18.54-43.36-46.5-43.37
	c-188.02-0.02-376.04-0.01-564.05-0.01c-55.14,0-110.29,0.2-165.43-0.11c-20.12-0.11-35.52,6.89-44.64,25.46
	c-3.33,6.79-9.11,9.35-16.26,9.4c-10.83,0.08-21.66,0.02-32.49,0.02c-0.54,0.82-1.08,1.64-1.62,2.46
	C84.68,811.67,94.74,819.21,105.84,824.6z"/>
<g>
	<g>
		<path class="st20" d="M179.4,742.15h9.48v1.6H177.6v-17.71h10.98v1.6h-9.18v6.1h8.58v1.58h-8.58V742.15z"/>
		<path class="st20" d="M193.83,732.05c0.05,0.62,0.1,1.5,0.1,2h0.05c0.65-1.35,2.35-2.3,4-2.3c2.98,0,4.45,1.93,4.45,4.83v7.18
			h-1.7v-6.48c0-2.45-0.73-4.1-3.18-4.1c-1.8,0-3.55,1.45-3.55,4.58v6h-1.7v-9.13c0-0.63-0.03-1.78-0.1-2.58H193.83z"/>
		<path class="st20" d="M212.11,733.48h-3.3v6.83c0,1.75,0.73,2.15,1.75,2.15c0.48,0,1.03-0.15,1.48-0.38l0.08,1.48
			c-0.6,0.23-1.23,0.35-2,0.35c-1.25,0-3-0.55-3-3.13v-7.3h-2.43v-1.43h2.43v-3.3h1.7v3.3h3.3V733.48z"/>
		<path class="st20" d="M225.39,738.35h-9.7c0.05,2.35,1.88,4.25,4.28,4.25c1.75,0,3.1-0.98,3.75-2.03l1.28,1
			c-1.38,1.75-3.1,2.48-5.03,2.48c-3.48,0-6.05-2.63-6.05-6.15s2.58-6.15,5.9-6.15c3.68,0,5.6,2.6,5.6,5.8
			C225.41,737.78,225.41,738.05,225.39,738.35z M223.69,737c-0.1-2.2-1.45-3.83-3.88-3.83c-2.28,0-3.95,1.83-4.1,3.83H223.69z"/>
		<path class="st20" d="M228.96,732.05h1.63c0.05,0.62,0.1,1.5,0.1,2h0.05c0.65-1.35,2.1-2.3,3.75-2.3c0.43,0,0.78,0.03,1.13,0.13
			l-0.23,1.6c-0.2-0.08-0.75-0.15-1.2-0.15c-1.8,0-3.43,1.3-3.43,4.43v6h-1.7v-9.13C229.06,734,229.04,732.85,228.96,732.05z"/>
		<path class="st20" d="M250.49,743.75h-1.8v-7.63l-6.63-10.08h2.25l5.33,8.58l5.38-8.58h2.1l-6.63,10.08V743.75z"/>
		<path class="st20" d="M264.74,744.05c-3.63,0-6.23-2.63-6.23-6.15s2.6-6.15,6.23-6.15c3.65,0,6.25,2.63,6.25,6.15
			S268.39,744.05,264.74,744.05z M264.74,733.18c-2.7,0-4.43,2.1-4.43,4.73s1.73,4.7,4.43,4.7c2.73,0,4.45-2.08,4.45-4.7
			S267.47,733.18,264.74,733.18z"/>
		<path class="st20" d="M283.15,743.75c-0.05-0.62-0.1-1.5-0.1-2H283c-0.65,1.35-2.35,2.3-4,2.3c-2.98,0-4.45-1.93-4.45-4.83v-7.18
			h1.7v6.48c0,2.45,0.73,4.1,3.18,4.1c1.8,0,3.55-1.45,3.55-4.58v-6h1.7v9.13c0,0.62,0.03,1.78,0.1,2.58H283.15z"/>
		<path class="st20" d="M289.07,732.05h1.63c0.05,0.62,0.1,1.5,0.1,2h0.05c0.65-1.35,2.1-2.3,3.75-2.3c0.43,0,0.78,0.03,1.13,0.13
			l-0.23,1.6c-0.2-0.08-0.75-0.15-1.2-0.15c-1.8,0-3.43,1.3-3.43,4.43v6h-1.7v-9.13C289.17,734,289.14,732.85,289.07,732.05z"/>
		<path class="st20" d="M313.27,740.7h0.02l5.93-14.66h2.75v17.71h-1.8v-15.38h-0.05l-6.4,15.38h-0.95l-6.4-15.38h-0.05v15.38h-1.8
			v-17.71h2.75L313.27,740.7z"/>
		<path class="st20" d="M337.2,738.35h-9.7c0.05,2.35,1.88,4.25,4.28,4.25c1.75,0,3.1-0.98,3.75-2.03l1.28,1
			c-1.38,1.75-3.1,2.48-5.03,2.48c-3.48,0-6.05-2.63-6.05-6.15s2.58-6.15,5.9-6.15c3.68,0,5.6,2.6,5.6,5.8
			C337.23,737.78,337.23,738.05,337.2,738.35z M335.5,737c-0.1-2.2-1.45-3.83-3.88-3.83c-2.28,0-3.95,1.83-4.1,3.83H335.5z"/>
		<path class="st20" d="M347.1,734.83c-0.5-0.97-1.58-1.65-2.88-1.65c-1.23,0-2.48,0.53-2.48,1.83c0,1.1,0.88,1.6,2.8,2
			c2.75,0.58,4.05,1.6,4.05,3.43c0,2.68-2.25,3.63-4.4,3.63c-1.78,0-3.55-0.7-4.63-2.28l1.35-1c0.6,1.03,1.88,1.83,3.25,1.83
			c1.45,0,2.75-0.53,2.75-2.05c0-1.23-1.23-1.73-3.45-2.25c-1.38-0.33-3.35-0.92-3.35-3.15c0-2.38,2.05-3.4,4.18-3.4
			c1.63,0,3.35,0.78,4.1,2.1L347.1,734.83z"/>
		<path class="st20" d="M358.21,734.83c-0.5-0.97-1.58-1.65-2.88-1.65c-1.23,0-2.48,0.53-2.48,1.83c0,1.1,0.88,1.6,2.8,2
			c2.75,0.58,4.05,1.6,4.05,3.43c0,2.68-2.25,3.63-4.4,3.63c-1.78,0-3.55-0.7-4.63-2.28l1.35-1c0.6,1.03,1.88,1.83,3.25,1.83
			c1.45,0,2.75-0.53,2.75-2.05c0-1.23-1.23-1.73-3.45-2.25c-1.38-0.33-3.35-0.92-3.35-3.15c0-2.38,2.05-3.4,4.18-3.4
			c1.63,0,3.35,0.78,4.1,2.1L358.21,734.83z"/>
		<path class="st20" d="M370.46,736.2c0-2.03-1.1-3.03-3.13-3.03c-1.38,0-2.65,0.55-3.48,1.38l-0.95-1.13
			c0.95-0.95,2.6-1.68,4.6-1.68c2.53,0,4.55,1.4,4.55,4.25v5.13c0,0.9,0.08,1.98,0.2,2.63h-1.53c-0.1-0.58-0.18-1.28-0.18-1.9h-0.05
			c-1.08,1.55-2.38,2.2-4.25,2.2c-1.78,0-4.05-0.95-4.05-3.55c0-3.6,3.98-3.93,8.25-3.93V736.2z M369.96,737.9c-2.78,0-6,0.3-6,2.53
			c0,1.68,1.43,2.23,2.75,2.23c2.4,0,3.75-1.8,3.75-3.88v-0.88H369.96z"/>
		<path class="st20" d="M377.06,746.11c0.93,1.2,2.7,2.15,4.48,2.15c3.35,0,4.58-2.08,4.58-4.6v-2.2h-0.05
			c-0.9,1.45-2.73,2.3-4.43,2.3c-3.65,0-6.05-2.53-6.05-5.95c0-3.33,2.4-6.05,6.05-6.05c1.7,0,3.5,0.83,4.43,2.33h0.05v-2.03h1.7
			v11.6c0,2.55-1.18,6.1-6.35,6.1c-2.15,0-4.25-0.9-5.63-2.35L377.06,746.11z M381.81,742.3c2.63,0,4.5-1.85,4.5-4.55
			c0-2.45-1.88-4.58-4.5-4.58c-2.83,0-4.43,2.13-4.43,4.58C377.38,740.2,378.98,742.3,381.81,742.3z"/>
		<path class="st20" d="M402.86,738.35h-9.7c0.05,2.35,1.88,4.25,4.28,4.25c1.75,0,3.1-0.98,3.75-2.03l1.28,1
			c-1.38,1.75-3.1,2.48-5.03,2.48c-3.48,0-6.05-2.63-6.05-6.15s2.58-6.15,5.9-6.15c3.68,0,5.6,2.6,5.6,5.8
			C402.89,737.78,402.89,738.05,402.86,738.35z M401.16,737c-0.1-2.2-1.45-3.83-3.88-3.83c-2.28,0-3.95,1.83-4.1,3.83H401.16z"/>
	</g>
</g>
<path class="st19" d="M901.64,371.87H167.19c-16.77,0-30.37-13.6-30.37-30.37v-53.38c0-16.77,13.6-30.37,30.37-30.37h734.46
	c16.77,0,30.37,13.6,30.37,30.37v53.38C932.01,358.27,918.41,371.87,901.64,371.87z"/>
<g>
	<g>
		<path class="st20" d="M181.75,238.75h9.48v1.6h-11.28v-17.71h10.98v1.6h-9.18v6.1h8.58v1.58h-8.58V238.75z"/>
		<path class="st20" d="M196.18,228.65c0.05,0.62,0.1,1.5,0.1,2h0.05c0.65-1.35,2.35-2.3,4-2.3c2.98,0,4.45,1.93,4.45,4.83v7.18
			h-1.7v-6.48c0-2.45-0.73-4.1-3.18-4.1c-1.8,0-3.55,1.45-3.55,4.58v6h-1.7v-9.13c0-0.63-0.03-1.78-0.1-2.58H196.18z"/>
		<path class="st20" d="M214.46,230.07h-3.3v6.83c0,1.75,0.73,2.15,1.75,2.15c0.48,0,1.03-0.15,1.48-0.38l0.08,1.48
			c-0.6,0.23-1.23,0.35-2,0.35c-1.25,0-3-0.55-3-3.13v-7.3h-2.43v-1.43h2.43v-3.3h1.7v3.3h3.3V230.07z"/>
		<path class="st20" d="M227.74,234.95h-9.7c0.05,2.35,1.88,4.25,4.28,4.25c1.75,0,3.1-0.98,3.75-2.03l1.28,1
			c-1.38,1.75-3.1,2.48-5.03,2.48c-3.48,0-6.05-2.63-6.05-6.15s2.58-6.15,5.9-6.15c3.68,0,5.6,2.6,5.6,5.8
			C227.76,234.38,227.76,234.65,227.74,234.95z M226.04,233.6c-0.1-2.2-1.45-3.83-3.88-3.83c-2.28,0-3.95,1.83-4.1,3.83H226.04z"/>
		<path class="st20" d="M231.31,228.65h1.63c0.05,0.62,0.1,1.5,0.1,2h0.05c0.65-1.35,2.1-2.3,3.75-2.3c0.43,0,0.78,0.03,1.13,0.13
			l-0.23,1.6c-0.2-0.08-0.75-0.15-1.2-0.15c-1.8,0-3.43,1.3-3.43,4.43v6h-1.7v-9.13C231.41,230.6,231.39,229.45,231.31,228.65z"/>
		<path class="st20" d="M252.84,240.35h-1.8v-7.63l-6.63-10.08h2.25l5.33,8.58l5.38-8.58h2.1l-6.63,10.08V240.35z"/>
		<path class="st20" d="M267.09,240.65c-3.63,0-6.23-2.63-6.23-6.15s2.6-6.15,6.23-6.15c3.65,0,6.25,2.63,6.25,6.15
			S270.74,240.65,267.09,240.65z M267.09,229.77c-2.7,0-4.43,2.1-4.43,4.73s1.73,4.7,4.43,4.7c2.73,0,4.45-2.08,4.45-4.7
			S269.82,229.77,267.09,229.77z"/>
		<path class="st20" d="M285.5,240.35c-0.05-0.62-0.1-1.5-0.1-2h-0.05c-0.65,1.35-2.35,2.3-4,2.3c-2.98,0-4.45-1.93-4.45-4.83v-7.18
			h1.7v6.48c0,2.45,0.73,4.1,3.18,4.1c1.8,0,3.55-1.45,3.55-4.58v-6h1.7v9.13c0,0.62,0.03,1.78,0.1,2.58H285.5z"/>
		<path class="st20" d="M291.42,228.65h1.63c0.05,0.62,0.1,1.5,0.1,2h0.05c0.65-1.35,2.1-2.3,3.75-2.3c0.43,0,0.78,0.03,1.13,0.13
			l-0.23,1.6c-0.2-0.08-0.75-0.15-1.2-0.15c-1.8,0-3.43,1.3-3.43,4.43v6h-1.7v-9.13C291.52,230.6,291.49,229.45,291.42,228.65z"/>
		<path class="st20" d="M319.43,237.73h0.05v-15.08h1.8v17.71h-2.25l-10.3-15.23h-0.05v15.23h-1.8v-17.71h2.25L319.43,237.73z"/>
		<path class="st20" d="M333.25,232.8c0-2.03-1.1-3.03-3.13-3.03c-1.38,0-2.65,0.55-3.48,1.38l-0.95-1.13
			c0.95-0.95,2.6-1.68,4.6-1.68c2.53,0,4.55,1.4,4.55,4.25v5.13c0,0.9,0.08,1.98,0.2,2.63h-1.53c-0.1-0.58-0.18-1.28-0.18-1.9h-0.05
			c-1.08,1.55-2.38,2.2-4.25,2.2c-1.78,0-4.05-0.95-4.05-3.55c0-3.6,3.98-3.93,8.25-3.93V232.8z M332.75,234.5c-2.78,0-6,0.3-6,2.53
			c0,1.68,1.43,2.23,2.75,2.23c2.4,0,3.75-1.8,3.75-3.88v-0.88H332.75z"/>
		<path class="st20" d="M344.75,228.35c1.28,0,2.83,0.48,3.6,2.48c0.8-1.6,2.23-2.48,4.1-2.48c2.98,0,4.45,1.93,4.45,4.83v7.18h-1.7
			v-6.48c0-2.45-0.83-4.1-3.03-4.1c-2.45,0-3.33,2.18-3.33,4.35v6.23h-1.7v-6.83c0-2.28-0.55-3.75-2.83-3.75
			c-1.63,0-3.4,1.45-3.4,4.58v6h-1.7v-9.13c0-0.63-0.03-1.78-0.1-2.58h1.63c0.05,0.62,0.1,1.5,0.1,2h0.05
			C341.58,229.3,343.08,228.35,344.75,228.35z"/>
		<path class="st20" d="M371.93,234.95h-9.7c0.05,2.35,1.88,4.25,4.28,4.25c1.75,0,3.1-0.98,3.75-2.03l1.28,1
			c-1.38,1.75-3.1,2.48-5.03,2.48c-3.48,0-6.05-2.63-6.05-6.15s2.58-6.15,5.9-6.15c3.68,0,5.6,2.6,5.6,5.8
			C371.96,234.38,371.96,234.65,371.93,234.95z M370.23,233.6c-0.1-2.2-1.45-3.83-3.88-3.83c-2.28,0-3.95,1.83-4.1,3.83H370.23z"/>
	</g>
</g>
<g>
</g>
<g>
</g>
<g>
</g>
<g>
</g>
<g>
</g>
<g>
</g>
</svg>
