<?xml version="1.0" encoding="utf-8"?>
<!-- Generator: Adobe Illustrator 26.1.0, SVG Export Plug-In . SVG Version: 6.00 Build 0)  -->
<svg version="1.1" id="Layer_1" xmlns="http://www.w3.org/2000/svg" xmlns:xlink="http://www.w3.org/1999/xlink" x="0px" y="0px"
	 viewBox="0 0 535 480" style="enable-background:new 0 0 535 480;" xml:space="preserve">
<style type="text/css">
	.st0{fill:#2E1F44;}
	.st1{fill:#FEC358;}
	.st2{fill:#F8A47B;}
	.st3{fill:#DE6C4B;}
	.st4{fill:#534571;}
</style>
<g>
	<path class="st0" d="M377.61,88.67c-2.17-5.86-4.82-11.48-5-17.84c-0.06-2.16-0.06-4.48-0.46-6.63c-0.41-2.21-1.26-4.24-3.06-5.74
		c-0.01-0.1-0.02-0.2-0.03-0.3c-0.08-0.68-0.87-0.87-1.27-0.57c-0.79-0.32-1.45,0.88-0.65,1.34c0.18,0.1,0.35,0.21,0.52,0.33
		c0.26,4.23-0.84,8.21-2.54,11.99c-0.97,2.18-2.15,4.3-3.39,6.36c-0.28,0.47-0.57,0.94-0.86,1.41c-0.54,0.89-1.1,1.77-1.64,2.64
		c-1.05,1.69-2.12,3.37-3.2,5.04c-0.03,0.05-0.07,0.11-0.1,0.16c-0.62,0.98-1.26,1.96-1.89,2.94c-0.01,0.03-0.03,0.05-0.04,0.07
		c-0.02,0.04-0.05,0.08-0.08,0.12c-2.18,3.37-4.39,6.72-6.6,10.08c-0.47,0.71-0.93,1.42-1.4,2.13c-0.73,1.11-1.46,2.22-2.19,3.33
		c-1,1.53-2.01,3.07-3.01,4.61c-0.52,0.8-1.04,1.61-1.57,2.41c-0.57,0.89-1.15,1.78-1.72,2.68c-0.07,0.11-0.14,0.22-0.21,0.33
		c-0.21,0.34-0.43,0.68-0.65,1.02c-0.03,0.04-0.05,0.09-0.08,0.14c-0.73,1.14-1.45,2.28-2.17,3.43c-0.5,0.8-1,1.6-1.49,2.4
		c-2.74,4.43-5.4,8.9-7.94,13.45c-0.29,0.52-0.58,1.04-0.87,1.57c-0.24,0.43-0.48,0.87-0.72,1.31c-0.57,1.05-1.13,2.11-1.69,3.17
		c-0.33,0.63-0.65,1.26-0.98,1.89c-4.11,8.04-7.71,16.34-10.59,24.9c-0.28,0.86,0.9,1.22,1.37,0.58c1.6-2.21,3.52-4.05,5.63-5.63
		c5-3.76,11.09-6.13,16.65-8.89c3.69-1.83,7.31-3.88,10.43-6.6c2.05-1.79,3.68-3.91,5.24-6.08c1.23-1.71,2.41-3.46,3.72-5.12
		c3.64-4.62,8.43-6.39,13.39-9.17c2.4-1.34,4.55-3.06,6.4-5.07c1.32-1.42,2.48-2.99,3.48-4.67
		C381.72,109.08,381.19,98.31,377.61,88.67z"/>
	<path class="st0" d="M286.88,47.68c-0.04-0.5-0.1-1.01-0.19-1.52c-0.09-0.52-0.22-1.04-0.37-1.54c-1.9-6.17-8.31-10.94-14.62-7.72
		c-0.16-0.15-0.39-0.23-0.67-0.17c-0.08,0.02-0.17,0.04-0.25,0.06c-5.76,1.47-10.66,6.66-10.83,12.8c-0.03,1.26,0.15,2.61,0.72,3.75
		c0.34,0.68,0.77,1.23,1.32,1.76c0.18,0.18,0.42,0.32,0.62,0.48c1.08,0.89,1.34,1.59,0.94,3.07c-0.33,1.22-1.18,2.12-1.39,3.48
		c-0.21,1.42-0.06,2.9,0.48,4.24c0.93,2.3,2.51,3.52,4.37,4c2.46,0.64,5.41-0.01,8.05-1.16c1.77-0.77,3.39-1.77,4.63-2.75
		c0.41-0.33,0.8-0.68,1.15-1.06c2.05-2.12,3.32-4.85,4.35-7.61c0.19-0.5,0.36-1.01,0.53-1.53c0.51-1.61,0.91-3.27,1.1-4.95
		C286.95,50.1,286.98,48.89,286.88,47.68z"/>
	<path class="st1" d="M449.43,250.85c-1.28-7.45-2.56-14.9-3.84-22.35c-0.1-0.59-0.2-1.18-0.3-1.77c-0.02-0.09-0.03-0.18-0.04-0.27
		l-2.02-11.8c-0.62-3.64-0.84-7.71-2.14-11.18c-1.62-4.34-6.62-5.49-10.67-3.95c-2.32,0.89-4.04,2.54-5.33,4.54
		c-11.02-0.67-21.96-2.55-32.56-5.65c-5.76-1.68-11.37-3.86-17.03-5.87c-0.03-0.01-0.05-0.01-0.07-0.02
		c-0.45-0.16-0.91-0.32-1.37-0.48c-4.58-1.59-9.2-3.04-13.97-3.98c-5.5-1.08-11.12-1.55-16.72-1.39c-1.63,0.04-3.26,0.16-4.89,0.31
		c-0.68,0.07-1.36,0.13-2.04,0.2c-3.5,0.37-6.99,0.82-10.52,0.97c-2.29,0.1-4.53-0.01-6.75-0.27c-3.53-0.42-6.98-1.26-10.44-2.35
		c-0.95-0.3-1.9-0.6-2.84-0.91c-3.26-1.06-6.51-2.14-9.82-3.07c-1.12-0.31-2.24-0.61-3.37-0.88c-9.24-2.21-18.74-3.22-28.23-3.03
		c-3.04,0.06-6.08,0.24-9.12,0.55c-0.32,0.03-0.32,0.53,0,0.5c0.83-0.08,1.66-0.15,2.49-0.22c-1.51,0.34-3.03,0.69-4.55,1.03
		c-5.32,1.21-10.66,2.4-15.98,3.6c-5.21,1.16-10.41,2.33-15.62,3.5c-5.59,1.25-11.18,2.52-16.77,3.8
		c-8.44,1.92-16.87,3.88-25.29,5.9c-5.12,1.23-10.36,2.86-14.21,6.64c-4.11,4.05-6.51,9.67-9.29,14.64c-0.3,0.53-0.6,1.07-0.91,1.61
		c-0.73,1.32-1.48,2.64-2.24,3.95c-0.7,1.24-1.42,2.47-2.14,3.71c-4.69,8.05-9.54,16-14.51,23.88
		c-13.75,21.79-28.34,43.04-42.53,64.55c-7.95,12.04-15.77,24.18-23.23,36.53c-3.43,5.68-6.79,11.4-10.06,17.18
		c-7.13,10.28-14.02,20.71-19.98,31.63c-10.45,19.14-17.13,40.25-24.68,60.63c-4.46,12.04-8.91,24.08-13.37,36.12
		c-0.19,0.51,0.41,1.11,0.92,0.92c22-8.09,45.68-5.75,68.63-5.32c11.45,0.21,22.79-0.3,34.14-1.96c11.61-1.69,23.08-4.18,34.63-6.24
		c11.65-2.08,23.45-3.72,35.31-3.53c0.24,0,0.48,0.01,0.72,0.02c12.08,0.3,23.66,3.23,35.46,5.52c0.24,0.05,0.48,0.1,0.72,0.13
		c11.73,2.2,23.22,2.42,35.12,1.31c12.12-1.13,24.41-2.06,36.46-3.79c5.63-0.8,6.64-5.93,8.33-10.6c0.75-2.08,1.49-4.17,2.21-6.27
		c0.42-0.55,0.76-1.21,1.06-1.87c2.4-5.21,4.55-10.55,6.8-15.83c9.04-21.17,17.85-42.47,25.37-64.23
		c7.61-22.03,12.79-44.76,20.18-66.85c4.19-12.51,8.98-24.8,14.02-36.99c1.78-4.33,3.43-8.79,5.48-13.02
		c0.5-1.05,1.04-2.08,1.61-3.1c0.15-0.27,0.31-0.55,0.47-0.82c1.47-0.23,2.97-0.37,4.46-0.48c4.19-0.32,8.38-0.62,12.56-1.05
		c16.76-1.7,33.41-4.64,49.74-8.79c4.14-1.05,8.26-2.18,12.36-3.38C449.4,251.11,449.46,250.98,449.43,250.85z"/>
	<path class="st1" d="M221.7,186.59c-5.59,1.25-11.18,2.52-16.77,3.8c-1.59,2.63-3.18,5.27-4.78,7.9c-1.51,2.5-3.03,5.01-4.54,7.51
		c-1.4,2.32-3.04,4.67-3.6,7.36c-0.89,4.31,1.38,8.18,3.9,11.48c1.54,2.01,3.39,3.88,4.72,6.05c2.12,3.46,1.03,6.43-1.14,9.54
		c-3.26,4.66-7.27,9.07-9.94,14.1c-2.57,4.84-1.71,10.32-1.13,15.56c1.36,12.38,4.09,24.6,6.58,36.79
		c1.1,5.39,2.23,10.78,3.43,16.15c1.91,8.62,4,17.2,6.4,25.71c0.22,0.77,1.18,0.65,1.44,0c5.44-13.31,8.29-27.43,11.26-41.45
		c3.06-14.46,6.11-28.92,8.88-43.44c0.31-1.66,0.63-3.32,0.94-4.98c1.56-8.42,3.03-16.85,4.34-25.32c0.06-0.34,0.11-0.68,0.16-1.02
		c0.04-0.24,0.08-0.49,0.11-0.74c0.57-3.72,1.1-7.43,1.61-11.16c0.91-6.81,1.72-13.64,2.38-20.49c0.34-3.55,0.65-7.1,0.91-10.66
		c0.14-1.99,0.42-4.1,0.46-6.18C232.11,184.26,226.9,185.42,221.7,186.59z"/>
	<path class="st0" d="M203.78,126.66l-29.87-4.29c-2.46-0.35-4.16-2.63-3.81-5.09l10.93-76.07c0.35-2.46,2.63-4.16,5.09-3.81
		l29.87,4.29c2.46,0.35,4.16,2.63,3.81,5.09l-10.93,76.07C208.51,125.31,206.23,127.02,203.78,126.66z"/>
	<path class="st2" d="M339.74,112.56c-0.2,0-0.41-0.01-0.61-0.01c-1.21-0.03-2.42-0.06-3.62-0.16c-0.93-0.07-1.86-0.17-2.77-0.34
		c-2.28-0.41-4.15-1.44-6.26-2.3c-3.1-1.26-7.01-0.02-10.25,0.44c-9.08,1.31-18.16,2.62-27.24,3.93c-0.62,0.09-0.39,1.04,0.22,0.95
		c0.14-0.02,0.28-0.04,0.42-0.06c-4.54,5.87-7.89,12.66-11.49,19.13c-3.98,7.16-7.94,14.34-11.88,21.52
		c-0.4,0.74-0.81,1.48-1.21,2.22c-1.2,2.2-2.41,4.4-3.61,6.59c-2.73,5-5.45,10-8.15,15.01c-2.53,4.68-5.06,9.37-7.57,14.05
		c-0.25,0.04-0.51,0.08-0.76,0.13c-0.16,0.03,3.52,0.81,8.97,1.92c-0.09,4.22,0.36,8.41,2.27,12.24c1.17,2.35,3.09,4.9,5.41,6.88
		c0.38,0.33,0.77,0.64,1.17,0.93c2.14,1.57,4.56,2.62,7.01,2.64c3.17,0.03,6.14-1.53,8.92-2.85c2.24-1.06,4.5-2.15,6.6-3.49
		c0.7-0.44,1.38-0.91,2.04-1.41c0.54-0.41,1.03-0.84,1.48-1.28c1.81-1.79,2.92-3.86,3.59-6.1c2.01,0.37,3.22,0.57,3.24,0.53
		c3.42-6.47,6.84-12.81,10.22-19.08c1.48-2.75,2.96-5.48,4.42-8.21c2.27-4.22,4.51-8.41,6.7-12.6c4.33-8.26,8.49-16.49,12.37-24.82
		c0.01-0.01,0.02-0.03,0.02-0.04c0.08-0.17,0.16-0.34,0.24-0.51c0.45-0.97,0.9-1.95,1.34-2.92c2.13-4.69,4.17-9.41,6.09-14.2
		c0.19-0.47,0.38-0.94,0.56-1.42c0.29-0.72,0.57-1.45,0.85-2.17c0.26-0.68,0.53-1.36,0.78-2.04c0.32-0.82,0.62-1.65,0.93-2.47
		C340.3,112.88,340.04,112.57,339.74,112.56z"/>
	<path class="st2" d="M339.84,83.51c-0.66-6.37-2.99-12.57-7.09-17.53c-1.6-1.94-3.45-3.71-5.44-5.34c-0.41-0.34-0.83-0.67-1.25-1
		c-3.41-2.63-7.16-4.89-10.8-6.89c-1.91-1.05-3.87-2.02-5.87-2.87c-0.46-0.2-0.92-0.39-1.39-0.57c-4.96-1.95-10.17-3.16-15.56-3.19
		c-0.08-0.21-0.29-0.38-0.58-0.32c-1.76,0.4-3.42,1.05-4.97,1.88c-2.42,1.28-4.61,3.01-6.62,4.95c-1.77,1.71-3.42,3.59-4.97,5.48
		c-1.05,1.27-2.05,2.55-3.03,3.79c-1.21,1.53-3.06,4.54-5.27,8.47c-8.78,15.65-23.1,45.83-24.17,54.81
		c-1.12,9.49-1.05,22.06,11.11,28.85c3.4,1.9,7.19,3.14,11.11,3.87c0.24,0.04,0.49,0.09,0.74,0.13c5.22,0.88,10.65,0.88,15.77,0.37
		c8.65-0.87,16.37-3.24,20.51-5.4c6.56-3.41,13.19-6.95,19.49-10.93c1.31-0.82,2.61-1.67,3.9-2.54c0.62-0.42,1.24-0.85,1.85-1.28
		c0.08-0.06,0.17-0.12,0.25-0.18c0.44-0.31,0.89-0.63,1.33-0.95c0.71-0.52,1.4-1.05,2.07-1.61c3.04-2.49,5.64-5.38,7.45-8.96
		c0.63-1.24,1.17-2.53,1.64-3.83c0.2-0.55,0.39-1.11,0.56-1.67c0-0.02,0.01-0.05,0.02-0.07c0.44-1.41,0.81-2.84,1.13-4.28
		c0.34-1.54,0.63-3.09,0.9-4.63c0.05-0.3,0.1-0.61,0.16-0.92c0.31-1.85,0.61-3.72,0.86-5.6c0.56-4.23,0.86-8.52,0.5-12.71
		C345.95,87.63,340.42,89.14,339.84,83.51z"/>
	<path class="st0" d="M275.99,89.75c-1.76,3.05-4.56,4.72-6.27,3.74c-1.7-0.98-1.66-4.25,0.1-7.3c1.76-3.05,4.56-4.72,6.27-3.74
		C277.8,83.44,277.75,86.71,275.99,89.75z"/>
	<path class="st0" d="M307.77,105.54c-1.43,3.21-4.05,5.17-5.84,4.37c-1.8-0.8-2.09-4.05-0.66-7.27c1.43-3.21,4.05-5.17,5.84-4.37
		C308.91,99.07,309.2,102.33,307.77,105.54z"/>
	<path class="st0" d="M322.17,85.29c-1.41-3.67-2.82-4.54-4.41-5.74c-2.08-1.58-5.91-2.11-8.2-0.31c-2.05,1.61-2.8,5.56,0.31,6.52
		c1.3,0.39,3.43,1.44,4.31,2.61c1.25,1.67,1.85,5.76,3.34,6.85c1.26,0.92,3.21,1.13,4.01-0.31
		C322.99,92.27,322.8,86.92,322.17,85.29z"/>
	<path class="st0" d="M290.78,66.42c-1.73-0.98-3.09-1.93-7.02-1.79c-0.64,0.02-1.73,0.3-2.94,0.76c-2.06,0.79-4.48,2.12-5.65,3.63
		c-0.04,0.06-0.09,0.12-0.13,0.18c-0.79,1.27,0.14,2.86,1.42,3.62c1.59,0.94,5.59-0.12,7.61,0.36c1.41,0.34,3.22,1.89,4.1,2.93
		c2.1,2.49,5.45,0.23,6.12-2.28C295.04,71.02,293.05,67.71,290.78,66.42z"/>
	<path class="st0" d="M343.11,66.15c-1.78-5.11-4.32-10.02-7.7-14.23c-0.31-0.39-0.63-0.78-0.96-1.16c-1.58-1.82-3.34-3.5-5.28-4.99
		c-3.28-2.52-6.95-4.23-10.85-5.52c-4.41-1.46-9-2.9-13.66-3.12c-3.45-0.15-6.35,0.7-9.15,2.07c-1.56,0.76-3.1,1.68-4.69,2.67
		c-0.28,0.17-0.56,0.34-0.84,0.51c0,0,0,0-0.01,0.01c-1.21,0.74-2.44,1.46-3.66,2.21c-1.05,0.65-2.09,1.31-3.09,2.02
		c-1.43,1.01-2.56,2.16-2.81,3.95c-0.02,0.17,0.03,0.36,0.11,0.53c-1.36,0.12-2.65-0.14-3.66-1.37c-0.61-0.74-1.67,0.32-1.06,1.06
		c1.19,1.46,2.78,1.89,4.46,1.82c0.87-0.04,1.76-0.2,2.64-0.44c1.31-0.35,2.61-0.65,3.9-0.88c2.71-0.47,5.4-0.64,8.26-0.31
		c3.97,0.45,7.76,1.62,11.4,3.19c0.47,0.2,0.94,0.41,1.41,0.63c3.45,1.6,6.76,3.53,9.97,5.52c6.44,4,12.8,8.61,16.05,15.69
		c0.63,1.37,1.15,2.8,1.55,4.25c0.62,2.28,0.96,4.63,0.98,6.99c0.04,4.02-1.11,7.67-2.15,11.5c-1.05,3.9-1.33,7.58,0.22,11.38
		c0.3,0.75,0.64,1.49,1,2.23c0.45,0.93,0.93,1.85,1.44,2.76c0.08,0.13,0.16,0.27,0.23,0.41c0.42,0.72,0.85,1.44,1.29,2.15
		c0.66,1.07,1.35,2.12,2.04,3.15c0.01,0,0.01,0,0.01,0c0.03,0.06,0.07,0.11,0.11,0.17c0.01,0.03,0.03,0.05,0.05,0.07
		c0.1,0.16,0.27,0.28,0.45,0.33c0.25,0.08,0.53,0.04,0.72-0.18c0.84-0.97,1.5-2.04,2.03-3.17c0.98-2.08,1.52-4.35,1.95-6.63
		c0.11-0.57,0.21-1.14,0.31-1.72c0.56-3.2,0.94-6.43,1.14-9.68c0.11-1.71,0.17-3.42,0.18-5.13
		C347.53,85.28,346.3,75.29,343.11,66.15z"/>
	<path class="st0" d="M372.66,86.1c-0.24-0.7-0.57-1.44-0.94-2.21c-1.44-3-3.51-6.34-3.41-9.46c0.02-0.74,0.17-1.47,0.47-2.17
		c0.73-1.69,2.06-3.01,2.71-4.76c0.39-1.06,0.6-2.18,0.65-3.3c0.03-0.59,0.01-1.18-0.04-1.77c-0.3-3.24-1.78-6.29-3.95-8.71
		c-2.63-2.93-6.12-4.91-9.69-6.47c-3.07-1.34-6.83-2.21-9.32-4.55c-2.81-8.45-10.12-14.6-18.85-16.56
		c-5.35-1.2-10.55-0.08-15.93-0.39c-3.13-0.18-5.57-1.45-8.41-2.59c-2.37-0.96-4.83-1.4-7.37-1.59c-4.81-0.35-9.96-0.12-14.27,2.27
		c-1.73,0.95-3.29,2.24-4.47,3.83c-1.6,2.15-1.88,5.68-4.21,7.19c-1.49,0.96-3.31,1.13-4.89,1.92c-0.29,0.14-0.57,0.31-0.84,0.5
		c-1.74,1.27-2.89,3.15-3.73,5.1c-1.48,3.42-2.88,8.07-1.09,11.63c1.88,3.75,6.4,4.43,10.18,4.08h0.01
		c3.43-0.31,6.86-1.14,10.21-2.23c0.06,0.12,0.13,0.25,0.2,0.37c0.47,0.85,1.09,1.63,1.83,2.3c5.42,4.88,13.18,3.56,19.92,3.43
		c-0.66,1.76,0.04,3.75,1.65,5c2.79,2.14,7.51,2.15,10.84,2.08c1.93-0.04,3.85-0.25,5.72-0.6c-0.59,1.91-0.47,4.03,0.7,6.09
		c1.52,2.64,4.59,3.69,7.22,4.86c0.61,0.27,1.23,0.57,1.86,0.87c0.37,0.18,0.75,0.37,1.13,0.56c-0.16,3.34,0.05,6.75,0.08,9.86
		c0.06,5.21-0.57,11.79,1.74,16.65c0.59,1.24,1.37,2.14,2.28,2.78c0.66,0.46,1.38,0.78,2.15,0.99c0.95,0.26,1.96,0.35,3,0.33
		c1.4-0.02,2.85-0.26,4.25-0.59c1.18-0.27,3.04-0.73,4.86-1.43c2.55-0.97,5.03-2.44,5.44-4.57c0.1,0.04,0.19,0.07,0.28,0.11
		c0.51,0.19,1.03,0.33,1.54,0.41c2.12,0.37,4.21-0.12,6.02-1.19c0.47-0.27,0.93-0.59,1.36-0.95c1.72-1.41,3.07-3.39,3.74-5.6
		c0.21-0.7,0.36-1.41,0.46-2.12C374.25,92.37,373.69,89.12,372.66,86.1z"/>
	<path class="st2" d="M347.02,124.22c-0.22-2.64-1.41-4.66-3.13-6.12c-0.63-0.55-1.35-1.02-2.11-1.42
		c-0.79-0.41-1.64-0.75-2.52-1.01c-0.61-0.18-1.23-0.33-1.86-0.44c-0.15-0.03-0.3-0.05-0.45-0.08c-1.6-0.24-3.22-0.27-4.73-0.1
		c-0.95,0.1-0.96,1.6,0,1.5c1.37-0.15,2.85-0.15,4.31,0.03c0.13,0.01,0.27,0.03,0.4,0.05c-0.16,0.02-0.33,0.05-0.49,0.08
		c-4.62,0.94-7.7,5.92-9.66,10.43c-0.32,0.73-0.61,1.45-0.87,2.14c-0.16,0.44-0.32,0.87-0.47,1.29c-0.58,1.62-1.2,3.73-0.59,5.42
		c0.2,0.56,0.53,1.08,1.05,1.52c0.3,0.25,0.64,0.44,1.01,0.58c0.13,0.05,0.26,0.1,0.4,0.13c0.64,0.18,1.36,0.23,2.11,0.19
		c0.07,0,0.14-0.01,0.21-0.01c1.99-0.13,4.14-0.82,5.59-1.22C341.13,135.6,347.62,131.14,347.02,124.22z"/>
	<path class="st3" d="M334.89,119.97c-1.84,0.47-3.54,1.55-4.83,2.93c-1.92,2.03-2.87,5.92-6.43,4.78c-0.92-0.29-1.31,1.15-0.4,1.45
		c2.49,0.8,4.53-0.18,5.92-2.31c1.12-1.71,2.03-3.27,3.81-4.38c0.83-0.52,1.75-0.94,2.72-1.12c0.68-0.12,4.8-0.04,4.36,1.66
		c-0.24,0.93,1.2,1.33,1.45,0.4C342.31,120.13,336.99,119.44,334.89,119.97z"/>
	<path class="st3" d="M328.52,137.88c-2.61,0.67-5.22-0.11-7.05-2.07c-0.66-0.71-1.72,0.36-1.06,1.06c2.19,2.34,5.41,3.26,8.51,2.46
		C329.86,139.08,329.46,137.64,328.52,137.88z"/>
	<path class="st3" d="M258.11,118.52c-0.87-0.41-1.63,0.88-0.76,1.29c2.62,1.25,4.27,3.78,4.27,6.69c0,0.96,1.5,0.97,1.5,0
		C263.12,123.1,261.19,119.98,258.11,118.52z"/>
	<path class="st2" d="M395.42,180.78c-2.35-0.31-4.47-1.25-6.5-2.4c0.3-1.9,0.6-3.8,0.91-5.7c0.39-2.44,0.91-4.89,1.16-7.34
		c0.2-2-1.14-3.04-2.51-4.29c-1.77-1.61-3.64-3.1-5.48-4.62c-0.51-0.42-1.03-0.85-1.55-1.29c-3.09-2.57-6.14-5.4-7.37-9.32
		c-1.36-4.33-1.17-9.16-1.29-13.68c0.11-0.01,0.21-0.08,0.2-0.23c-0.29-3.02-0.29-6.03-0.14-9.04c0.29-6.21,1.19-12.41,1.31-18.64
		c0.05-2.9-0.06-5.8-0.35-8.69c-0.38-3.93-1.08-7.83-2.08-11.64c-0.5-1.92-1.08-3.82-1.73-5.68c-0.43-1.23-0.96-2.57-1.67-3.77
		c-0.81-1.37-1.84-2.56-3.2-3.19c-0.77-0.36-1.66-0.54-2.67-0.47c-0.04,0-0.07,0.02-0.11,0.03c-0.67-0.89-1.46-1.67-2.4-2.25
		c-1.42-0.88-3.45-1.28-4.9-0.23c-1.61,1.17-1.07,3.14-0.35,4.7c-1.09-0.61-2.2-0.61-3.08,0.72c-1.13,1.71-0.07,3.72,0.71,5.33
		c1.23,2.54,2.47,5.08,3.71,7.61c0.03,0.05,0.05,0.1,0.07,0.15c-0.06,0.01-0.12,0.01-0.18,0.01c-1.4,0.18-2.57,1.44-1.89,2.94
		c0,0.01,0.01,0.02,0.01,0.03c-0.02,0.01-0.04,0.02-0.05,0.04c-0.04,0.03-0.07,0.07-0.08,0.12c-0.01,0.03-0.01,0.07,0,0.11
		c1.29,6.43,1.5,12.9,1.06,19.34c-0.69,10.28-3.01,20.51-5.14,30.54c-0.15,0.74-0.32,1.48-0.49,2.23c-0.67,3.03-1.3,6.14-0.96,9.21
		c0.36,3.25,2.02,6.02,4.44,8.18c2.62,2.34,5.86,3.8,9.07,5.13c3.79,1.58,7.53,3.21,11.19,5.06c1.87,0.94,3.72,1.93,5.54,2.95
		c2.05,1.15,4.07,2.36,6.06,3.61c1.23,0.77,2.45,1.56,3.71,2.29c-0.09,0.58-0.18,1.16-0.28,1.75c-0.05,0.31,0.43,0.45,0.48,0.13
		c0.08-0.54,0.17-1.08,0.26-1.62c2.05,1.14,4.2,2.06,6.58,2.38C395.74,181.32,395.74,180.83,395.42,180.78z"/>
	<path class="st1" d="M531.94,217.32c-0.47-5.09-2.46-9.84-5.81-13.7c-4.25-4.89-9.94-8.68-15.28-12.25
		c-11.43-7.65-90.19-37.39-128.37-41.04c-0.01,0-0.02-0.01-0.04-0.01c-0.01,0-0.01,0-0.01-0.01h-0.06c-0.21,0.01-0.31,0.25-0.21,0.4
		c-0.23,1.46-0.46,2.94-0.69,4.43c-0.91,5.76-1.87,11.67-2.84,17.6c-1.08,6.64-2.17,13.29-3.19,19.76
		c-0.28,1.77-0.56,3.53-0.83,5.27c-0.01,0.13,0.04,0.28,0.17,0.31c0.03,0.01,0.05,0.01,0.08,0.01c4.27,0.86,8.6,1.73,12.63,3.46
		c4,1.72,7.24,4.42,10.28,7.49c2.97,3.01,5.83,6.03,9.26,8.53c1.59,1.16,3.22,2.26,4.88,3.34c0.92,0.6,1.85,1.19,2.78,1.78
		c1.37,0.88,2.75,1.75,4.12,2.63c0.94,0.61,1.88,1.22,2.83,1.83c-3.07,2.14-6.25,4.12-9.54,5.92c-9.38,5.15-19.39,8.62-29.82,10.89
		c-5.63,1.23-6.24-14.91-11.72-13.07c-4.55,1.52-8.86,3.62-12.8,6.34c-7.34,5.08-13.21,12-17.81,19.6
		c-3.96,6.54-7.02,13.58-9.43,20.83c-0.23,0.68-0.45,1.36-0.66,2.04c-0.62,1.98-1.2,3.97-1.73,5.97c-0.05,0.2,0.18,0.4,0.36,0.28
		c12.13-7.88,25.57-13.68,39.58-17.19c11.56-2.9,23.51-4.23,35.45-3.87c7.08,0.21,14.14,1.19,21.23,1.19
		c3.37,0.01,6.76-0.22,10.07-0.88c3.54-0.7,6.89-2,10.22-3.37c3.16-1.29,6.33-2.52,9.64-3.4c3.53-0.93,7.13-1.56,10.74-2.02
		c6.88-0.86,13.83-1.1,20.74-1.68c11.7-0.97,24.12-3.11,33.67-10.44C528.02,238.03,532.91,227.7,531.94,217.32z"/>
	<path class="st3" d="M358.47,88.17c-0.36-0.88-1.81-0.49-1.45,0.4c4.3,10.48,4.12,21.86,3.84,32.99c-0.02,0.96,1.47,0.96,1.5,0
		C362.65,110.3,362.82,98.76,358.47,88.17z"/>
	<path class="st3" d="M369.99,105.75c-1.03-6.35-1.8-12.9-3.56-19.09c-1.54-5.41-4.82-9.51-8.54-13.6
		c-0.65-0.72-1.71,0.35-1.06,1.06c4.01,4.42,7.17,8.7,8.59,14.59c1.38,5.73,2.18,11.63,3.13,17.44
		C368.7,107.1,370.14,106.7,369.99,105.75z"/>
	<path class="st1" d="M160.05,123.74c0-0.17,0-0.33,0-0.5c-0.01-0.4-0.34-0.75-0.75-0.75c-4.69,0.05-9.15,1.07-13.39,3
		c-0.17-0.01-0.36,0.03-0.53,0.17c-0.08,0.06-0.16,0.12-0.24,0.18c-0.05,0.03-0.09,0.04-0.14,0.07c-0.15,0.07-0.24,0.17-0.3,0.28
		c-3.5,2.73-7,5.46-10.5,8.19c-1.4,1.29-2.8,2.6-4.19,3.91c-6,5.72-11.81,11.86-16.75,18.54c-1.57,2.12-3.01,4.31-4.34,6.55
		c-0.15,0.44-0.31,0.87-0.46,1.3c-0.12,0.33-0.24,0.67-0.36,1c-2.07,5.67-4.18,11.31-6.31,16.95
		c-9.11,24.16-18.47,48.29-25.14,73.27c-6.53,24.43-10.51,49.85-8.91,75.18c0.61,9.79,1.21,21.39,7.08,29.7
		c5.82,8.24,16.06,9.67,25.32,7.33c16.26-4.11,28.18-16.57,36.5-30.81c-0.1,2.55-0.16,5.1-0.15,7.66c0,0.96,1.5,0.97,1.5,0
		c-0.01-3.53,0.09-7.04,0.28-10.55c2.11-3.89,3.97-7.87,5.58-11.83c0.36-0.89-1.08-1.28-1.44-0.4c-1.17,2.88-2.47,5.77-3.91,8.62
		c1.76-24.38,7.7-48.42,11.51-72.51c4.51-28.49,7.51-57.23,9-86.03C159.83,156.1,160.17,139.91,160.05,123.74z"/>
	<path class="st0" d="M160.05,123.23c-0.01-0.4-0.34-0.75-0.75-0.75c-4.69,0.05-9.15,1.07-13.39,3c-0.17-0.01-0.36,0.03-0.53,0.17
		c-0.08,0.06-0.16,0.12-0.24,0.18c-0.05,0.03-0.09,0.04-0.14,0.07c-0.15,0.07-0.24,0.17-0.3,0.28c-2.1,1.63-4.19,3.27-6.29,4.91
		c-1.41,1.1-2.81,2.19-4.22,3.29c-1.4,1.29-2.8,2.59-4.18,3.91c-6,5.72-11.81,11.86-16.75,18.54c-1.57,2.12-3.01,4.31-4.34,6.55
		c-0.15,0.44-0.31,0.87-0.46,1.3c-0.12,0.33-0.24,0.67-0.36,1c-0.06,0.95-0.1,1.9-0.13,2.86c-0.12,3.85-0.24,7.92,0.92,11.63
		c1.72,5.46,6.34,7.89,11.39,8.04c0.17,0,0.34,0,0.52,0c0.1,0,0.2,0,0.31,0c1.7-0.03,3.44-0.32,5.13-0.82
		c8.02-2.42,13.77-8.96,17.7-16.08c2.73-4.93,4.96-10.18,6.91-15.53c1.34-3.65,2.54-7.36,3.67-11.03c0.37-1.22,0.74-2.45,1.1-3.68
		c1.67-5.72,3.16-11.51,4.46-17.33C160.05,123.57,160.05,123.4,160.05,123.23z"/>
	<path class="st2" d="M186.1,65.76c-3.39,3.38-6.75,6.78-10.07,10.22c-3.11,3.21-6.19,6.45-9.25,9.72
		c-3.23,3.45-6.42,6.92-9.58,10.44c-2.96,3.29-5.88,6.66-8.23,10.44c-0.63,1.02-1.21,2.06-1.76,3.12v0
		c-0.05,0.09-0.09,0.18-0.14,0.27c-0.05,0.1-0.1,0.2-0.15,0.3c0,0.01,0,0.01,0,0.01c-1.31,2.61-2.43,5.32-3.54,8.01
		c-1.73,4.25-3.39,8.51-4.97,12.81v0c-0.07,0.18-0.13,0.35-0.2,0.53c-3.26,8.89-6.24,17.87-9.07,26.9
		c-2.94,9.41-5.72,18.88-8.49,28.34c-0.19-0.1-0.46,0.16-0.3,0.38c0.05,0.06,0.09,0.12,0.14,0.18c-0.07,0.25-0.15,0.51-0.22,0.76
		c-0.1,0.35-0.2,0.69-0.3,1.04c-0.09,0.31,0.37,0.49,0.46,0.19c0.12-0.41,0.24-0.82,0.36-1.22c0.02-0.09,0.05-0.18,0.08-0.28
		c0.07,0.09,0.15,0.18,0.23,0.27c1.7-0.03,3.44-0.32,5.13-0.82c8.02-2.42,13.77-8.96,17.7-16.08c2.73-4.93,4.96-10.18,6.91-15.53
		c1.29-4.67,2.77-9.29,4.45-13.84c0.1-0.29,0.21-0.58,0.32-0.87c1.19-3.12,2.59-6.08,4.48-8.75c1.07-1.52,2.3-2.94,3.74-4.24
		c2.57-2.31,5.33-4.43,8.11-6.51c1.79-1.34,3.6-2.67,5.36-4.03c0.61-0.46,1.24-0.92,1.89-1.38c0.01-0.01,0.01-0.01,0.02-0.01
		c1.51-1.09,3.05-2.2,4.32-3.51c1.76-1.81,1.6-4.25,1.67-6.61c0.04-1.28,0.08-2.56,0.12-3.84c0.05-1.39,0.09-2.77,0.13-4.16
		c0.25-7.68,0.5-15.37,0.75-23.05c0.01-0.24,0.01-0.47,0.02-0.71c0.09-2.76,0.18-5.52,0.27-8.29
		C186.51,65.79,186.26,65.59,186.1,65.76z"/>
	<path class="st2" d="M223.96,80.03c-2.67-1.14-5.64-1.75-8.66-1.92c-3.53-0.2-7.11,0.19-10.36,1.03
		c-5.69,1.47-11.93,3.77-16.94,6.69c4.04-2.82,15.68-11.96,23.35-15.93c1.61-0.83,3.57-1.57,5.44-2.24
		c2.77-0.97,5.36-1.77,6.41-2.37c1.33-0.77,2.88-1.82,3.57-3.26c0.55-1.16,0.18-2.39-0.74-3.24c-1.17-1.07-2.91-1.16-4.4-1.11
		c-1.1,0.03-2.26,0.21-3.47,0.5c-4.47,1.08-9.63,3.76-14.99,7.03c-6.2,3.78-11.15,5.92-16.96,9.76c-0.48,0.31-0.96,0.64-1.45,0.98
		c0.47-0.57,0.96-1.13,1.47-1.7c4.75-5.23,11.16-10.17,15.33-13.12c3.51-2.49,7.3-4.58,11.19-6.4c2.07-0.97,4.18-1.84,6.3-2.7
		c0.02-0.01,0.03-0.01,0.04-0.02c1.63-0.67,3.28-1.38,4.67-2.49c1.01-0.8,2.08-2.04,1.45-3.41c-0.63-1.35-2.27-1.67-3.6-1.45
		c-0.63,0.1-1.25,0.26-1.88,0.45c-1.42,0.43-2.83,1.01-4.2,1.48c-1.98,0.68-3.96,1.39-5.91,2.16c-3.9,1.53-7.72,3.29-11.29,5.5
		c-3.66,2.26-17.44,12.43-21.43,16.82c0.38-2.18,0.34-2.29,0.31-3.25c-0.01-0.41-0.02-0.98,0.01-1.93c0.01-0.23-0.27-0.3-0.42-0.17
		c-6.53,5.16-12.9,10.8-17.33,17.93c-2.44,3.93-4.2,8.26-6.11,12.46c-2.04,4.48-4.07,8.96-6.11,13.44
		c-0.01,0.04-0.02,0.07-0.02,0.11v0c0,0.1,0.06,0.18,0.14,0.23c-0.09,0.02-0.18,0.04-0.27,0.05h-0.01c-0.16,0.03-0.2,0.17-0.15,0.3
		c0,0.01,0,0.01,0,0.01c0.05,0.11,0.15,0.2,0.29,0.18c7.17-1.01,12.88-5.05,17.12-10.78c2.39-3.24,4.6-6.64,6.68-10.08
		c0.92-1.54,1.87-3.08,2.71-4.67c0.03-0.03,0.06-0.06,0.08-0.11c0.01-0.03,0.02-0.07,0.04-0.1c0.01-0.02,0.01-0.03,0.02-0.05
		c0.3,0,0.61,0,0.91-0.01c1.32-0.04,2.63-0.17,3.87-0.46c0.23,2.58,0.82,5.1,1.77,7.53c0.06,0.16,0.21,0.22,0.37,0.15
		c0.2-0.09,0.39-0.19,0.59-0.28c-0.4,2.06-0.81,4.13-1.21,6.19c-2.81,6.2-4.4,12.89-4.69,19.71c-0.2,0.09-0.41,0.2-0.62,0.29
		c-0.29,0.13-0.04,0.56,0.25,0.43c0.12-0.05,0.23-0.11,0.35-0.16c-0.01,0.1-0.01,0.2-0.02,0.31c-0.01,0.32,0.49,0.32,0.5,0
		c0-0.18,0.02-0.36,0.03-0.54c1.08-0.5,2.14-1.06,3.2-1.64c0.01-0.01,0.01-0.01,0.02-0.01c8.62-4.74,16.77-11.38,27.2-9.05
		c1.54,0.35,3.23,0.66,4.71,0.12c0.43-0.15,0.84-0.38,1.22-0.7c1.32-1.1,1.39-2.88,0.37-4.22c-0.23-0.3-0.49-0.56-0.77-0.78
		c-1.34-1.05-3.26-1.31-4.9-1.52c-2.88-0.37-5.78-0.33-8.67-0.15c-4.3,0.26-9.09,0.41-13.04,2.35c-0.75,0.37-1.47,0.8-2.15,1.31
		c-0.04-1.08-0.09-2.16-0.14-3.25c-0.01-0.27-0.02-0.53-0.04-0.8c0.83-0.46,1.65-0.94,2.46-1.43c1.32-0.8,2.64-1.61,3.98-2.37
		c3.09-1.75,6.27-3.35,9.56-4.7c4.81-1.98,9.87-3.46,15.04-4.09c1.83-0.22,3.67-0.34,5.51-0.34c2.32,0,6.36,0.8,7.45-2.08
		C227.8,82.35,225.64,80.75,223.96,80.03z M182.52,82.39c-0.32,0.46-0.53,0.72-0.47,0.48C182.2,82.72,182.36,82.56,182.52,82.39z"/>
	<path class="st3" d="M172.64,72.71c-1.55,1.19-3.11,2.38-4.66,3.57c-0.76,0.58-0.01,1.88,0.76,1.29c1.55-1.19,3.11-2.38,4.66-3.57
		C174.16,73.43,173.41,72.13,172.64,72.71z"/>
	<path class="st4" d="M314.21,33.68c-10.79-2.98-20.79,3.24-26.73,11.95c-0.54,0.8,0.75,1.55,1.29,0.76
		c5.56-8.15,14.92-14.06,25.04-11.26C314.74,35.38,315.14,33.94,314.21,33.68z"/>
	<path class="st4" d="M313.07,42.9c-4.22,3.37-6.64,8.28-6.83,13.67c-0.03,0.96,1.46,0.96,1.5,0c0.18-5.02,2.48-9.49,6.39-12.61
		C314.88,43.36,313.82,42.31,313.07,42.9z"/>
	<path class="st4" d="M335.41,50.16c-4.16,2.58-8.44,5.49-9.66,10.53c-0.23,0.94,1.22,1.34,1.45,0.4c1.13-4.65,5.15-7.26,8.98-9.64
		C336.98,50.95,336.23,49.65,335.41,50.16z"/>
	<path class="st3" d="M280.3,101.11c0.74-0.62-0.33-1.68-1.06-1.06c-3.37,2.84-8.34,4.68-9.87,9.21c-1.39,4.13,1.56,7.39,4.41,9.98
		c0.71,0.65,1.78-0.41,1.06-1.06c-3.3-2.99-6.05-6.73-2.62-10.87C274.39,104.7,277.73,103.28,280.3,101.11z"/>
	<path class="st0" d="M485.11,241.69c-8.56,0.51-16.69-2.2-24.37-5.73c-5.11-2.35-10.05-5.08-15.14-7.46
		c-2.15-1.01-4.33-1.96-6.55-2.79c-3.94-1.47-8.05-2.59-12.25-2.95c-4.01-0.34-8.03,0.01-12.05-0.05
		c-7.16-0.13-14.19-2.11-20.25-5.96c-3.28-2.08-6.14-4.78-9.68-6.45c-3.67-1.74-7.73-2.48-11.7-3.14c-0.3-0.05-0.57-0.42-0.55-0.72
		c0.39-4.82,0.88-9.62,1.49-14.41c0.48,0.16,0.96,0.33,1.44,0.5c-0.55,4.42-1.01,8.84-1.37,13.28c3.92,0.66,7.85,1.47,11.46,3.19
		c3.79,1.8,6.84,4.76,10.42,6.91c7.26,4.38,15.07,5.43,23.4,5.25c7.63-0.17,14.6,0.9,21.71,3.76c1.4,0.56,2.8,1.17,4.19,1.81
		c12.83,5.89,25.18,14.35,39.82,13.47C486.07,240.13,486.06,241.63,485.11,241.69z"/>
	<path class="st0" d="M351.25,268.96c-13.69,4.52-26.59,11.08-38.29,19.5c-0.78,0.56-0.03,1.86,0.76,1.29
		c11.6-8.35,24.36-14.88,37.94-19.35C352.56,270.1,352.17,268.65,351.25,268.96z"/>
	<path class="st0" d="M151.54,222.78c-6.91,39.36-8.21,83.69-35.34,115.69c-6.5,7.67-14.27,14.18-23.18,18.87
		c-0.85,0.45-0.1,1.74,0.76,1.29c35.93-18.91,47.57-60.89,53.46-98.06c1.97-12.46,3.57-24.97,5.75-37.39
		C153.15,222.23,151.7,221.83,151.54,222.78z"/>
	<path class="st1" d="M336.43,187.17c-3.5,0.37-6.99,0.82-10.52,0.97c-2.29,0.1-4.53-0.01-6.75-0.27
		c-4.41,2.61-8.57,5.71-12.45,8.46c-5.98,4.23-12.01,8.48-17.88,12.92c-1.18,0.89-2.36,1.79-3.52,2.7
		c-3.99,3.1-7.88,6.31-11.62,9.68c-9.98,9-17.28,19.63-22.7,31.89c-3.23,7.31-6.06,14.83-8.65,22.42
		c-1.82,5.34-3.53,10.73-5.16,16.11c-0.32,1.07-0.64,2.14-0.96,3.22c-2.03,6.85-3.92,13.75-5.54,20.7
		c-1.82,7.85-3.06,15.86-2.23,23.92c0.07,0.76,0.94,0.99,1.39,0.38c3.86-5.27,7.71-10.53,11.57-15.79c0.64-0.87,1.27-1.73,1.91-2.6
		c2.52-3.44,5.05-6.87,7.56-10.31c5.63-7.68,11.26-15.36,16.89-23.05c2.65-3.63,5.31-7.25,7.96-10.88c1.72-2.34,3.44-4.69,5.15-7.04
		c3.16-4.32,6.44-8.92,7.05-14.4c0.72-6.52-2.78-13.46,0.6-19.61c2.76-5.03,8.4-7.72,13.42-9.94c5.19-2.29,10.58-4.32,15.11-7.81
		c5.12-3.94,8.43-9.53,11.62-15.03c3.27-5.62,6.52-11.25,9.79-16.87C337.79,187.03,337.11,187.1,336.43,187.17z"/>
	<path class="st0" d="M336.48,187.03c-0.09-0.06-3.99-3.16-4.26-3.2c-6.27-4.15-13.15-7.91-20.9-7.51
		c-0.34,0.02-0.67,0.04-1.01,0.07c-5.09,0.47-9.88,2.48-14.24,5.14c-1.59,0.97-3.12,2.03-4.59,3.13
		c-9.54,7.15-17.88,16.05-24.86,25.82c0.2-6.28,0.04-12.57-0.5-18.85c-0.4-4.58-0.9-9.31-1.66-14c-0.72-4.48-1.68-8.93-3.02-13.15
		c-0.15-0.48-0.31-0.96-0.47-1.44c-0.98-2.87-4.13-2.74-6.75-2.81c-3.7-0.1-7.44,0.47-10.96,1.61c-6.95,2.25-12.99,6.67-17.19,12.65
		c-0.22,0.32-0.17,0.8-0.29,1.07c-1.6,3.51-2.95,7.21-4.08,11.03c-3.43,11.56-4.94,24.29-5.65,36.54
		c-1.12,19.16-3.29,38.19-6.93,57.05c-2.78,14.45-6.48,28.6-10.69,42.64c-1.32,4.42-2.7,8.82-4.12,13.22
		c-2.94,9.15-5.55,18.34-7.07,27.84c-1.5,9.37-2.27,18.84-3.1,28.29c-1.57,17.89-6.74,75.95-7.29,89.07
		c12.08,0.3,23.66,3.23,35.46,5.52c0.24,0.05,0.48,0.1,0.72,0.13c0.25-11.09,1.56-39.58,1.94-45.23c0.76-11.37,1.8-22.78,3.52-34.05
		c1.66-10.85,4.37-21.37,8.12-31.69c3.65-10.05,7.9-19.89,11.13-30.09c1.93-6.09,3.33-12.3,4.57-18.55c0.8,1.24,1.61,2.48,2.36,3.75
		c5.06,8.59,7.89,18.65,11.18,28.01c0.12,0.35,0.52,0.68,0.92,0.52l6.51-2.62c0.48-0.19,0.65-0.62,0.44-1.1
		c-3.55-8.14-6.95-16.31-8.03-25.2c-0.82-6.74-2.1-12.91-4.8-19.08c-0.21-0.49-0.43-0.97-0.66-1.46c-1.03-2.16-2.14-4.28-3.28-6.37
		c0-0.02-0.01-0.03-0.02-0.04c0.01-0.03,0.02-0.05,0.02-0.08c1.51-6.71,3.37-13.34,6.03-19.78c4.19-10.14,9.57-19.9,15.62-29.21
		c0.43-0.67,0.87-1.33,1.31-2c0.05-0.07,0.09-0.14,0.14-0.21c1.92-2.89,3.91-5.74,5.95-8.55c0.08-0.11,0.15-0.22,0.22-0.31
		c0.17-0.24,0.34-0.47,0.52-0.71c2.89-3.95,5.86-7.8,8.89-11.56c13.2-16.42,49.14-41.95,50.82-44.13
		C336.49,187.09,336.51,187.05,336.48,187.03z"/>
	<path class="st4" d="M262.09,214c-4.47,6.4-7.56,13.57-9.15,21.21c-0.2,0.94,1.25,1.34,1.45,0.4c1.57-7.52,4.6-14.55,9-20.85
		C263.94,213.96,262.64,213.21,262.09,214z"/>
	<ellipse class="st0" cx="246.2" cy="371.44" rx="5.12" ry="5.49"/>
	<ellipse class="st0" cx="108.83" cy="217.09" rx="5.12" ry="5.49"/>
	<ellipse class="st0" cx="402.56" cy="193.61" rx="5.12" ry="5.49"/>
	<ellipse class="st0" cx="239.46" cy="437.38" rx="5.12" ry="5.49"/>
	<path class="st3" d="M284.88,155.64c-5.8,2.69-12.22,2.39-18.45,2.02c-0.96-0.06-0.96,1.44,0,1.5c6.54,0.38,13.13,0.59,19.2-2.23
		C286.51,156.53,285.75,155.24,284.88,155.64z"/>
	<path class="st4" d="M245.14,238.53c-14.45-3.18-22.51-16.6-25.34-30.2c-0.2-0.94-1.64-0.54-1.45,0.4
		c2.93,14.09,11.45,27.96,26.38,31.25C245.68,240.19,246.08,238.74,245.14,238.53z"/>
	<path class="st4" d="M222.71,374.85c-3.28-3.73-8.66-4.29-13.29-5.03c-5.9-0.94-11.84-1.48-17.81-1.66c-0.96-0.03-0.96,1.47,0,1.5
		c5.51,0.16,11.01,0.63,16.46,1.46c4.56,0.7,10.33,1.1,13.57,4.79C222.29,376.63,223.34,375.57,222.71,374.85z"/>
	<path class="st0" d="M283.67,363.35c-1.34-9.25-2.68-18.52-3.03-27.87c-0.33-8.89,0.75-17.74-0.53-26.6
		c-1.32-9.14-3.44-18.06-4.14-27.3c-0.1-1.31-0.18-2.62-0.24-3.93c-0.4-7.74-0.26-15.51,0.16-23.24c0.21-3.85,0.49-7.7,0.83-11.55
		c0-0.02,0-0.04,0-0.05c0,0,0-0.01,0-0.01c0.56-6.5,1.25-12.98,1.95-19.47c0.08-0.69-0.84-0.92-1.28-0.53
		c-1.46,1.31-2.92,2.63-4.38,3.95c0.01-0.45,0.02-0.91,0.02-1.36c0.01-0.96-1.49-0.96-1.5,0c0,0.92-0.03,1.83-0.06,2.75
		c-0.24,0.21-0.47,0.43-0.71,0.64c-0.58,0.52,0.01,1.32,0.63,1.25c-0.12,2.45-0.33,4.9-0.58,7.33c-0.58,5.73-1.45,11.43-2.22,17.14
		c-0.01,0.04-0.01,0.08-0.01,0.13c-1.18,8.75-2.15,17.5-1.61,26.35c0.15,2.53,0.44,5.05,0.8,7.55c0.9,6.26,2.31,12.44,3.46,18.66
		c1.77,9.54,2.23,18.91,1.61,28.58c-0.67,10.49-1.98,20.95-1.27,31.47c0.04,0.57,0.6,0.93,1.12,0.65c3.31-1.77,6.76-2.96,10.45-3.62
		C283.58,364.2,283.73,363.72,283.67,363.35z"/>
	<path class="st4" d="M245.94,311.51c0.62-2.59,0.42-5.22,1.01-7.82c-0.04-0.13-3.19-19.53-4.85-29.13
		c-0.84-4.86-2.28-9.42-3.91-14.05c-1.74-4.93-2.52-9.86-2.81-15.06c-0.21-3.89,0.17-8.07-1.86-11.5c-1.83-1.62-3.4-3.44-4.78-5.41
		c-1.76-2.15-5.28-6.04-5.14-5.86c-0.46,8.95-0.73,19.06,1.1,27.88c1.94,9.33,7.85,17.08,9.95,26.31c2.16,9.47,1,19.49,2.28,29.1
		c1.04,7.76,2.83,13.94,5.43,21.31C242.35,324.79,245.13,314.88,245.94,311.51z"/>
	<path class="st4" d="M276.78,235.51c0.02-0.59-0.65-0.9-1.13-0.65c-1.7,0.9-4.89,1.97-5.98,3.66c-0.94,1.45-0.67,4.27-0.83,5.95
		c-0.18,1.88-1.08,8.98-0.24,10.04c0.05-0.1,8.14-11.7,8.14-11.7S276.67,238.48,276.78,235.51z"/>
</g>
<g>
</g>
<g>
</g>
<g>
</g>
<g>
</g>
<g>
</g>
<g>
</g>
</svg>
