<?xml version="1.0" encoding="utf-8"?>
<!-- Generator: Adobe Illustrator 26.1.0, SVG Export Plug-In . SVG Version: 6.00 Build 0)  -->
<svg version="1.1" id="Layer_1" xmlns="http://www.w3.org/2000/svg" xmlns:xlink="http://www.w3.org/1999/xlink" x="0px" y="0px"
	 viewBox="0 0 200 135" style="enable-background:new 0 0 200 135;" xml:space="preserve">
<g>
	<path d="M141.06,1.38c0.46,0.08,0.92,0.14,1.38,0.24c0.43,0.09,0.86,0.2,1.28,0.34c1.05,0.37,1.75,1.08,2.1,2.16
		c0.31,0.99,0.48,2,0.63,3.02c0.31,2.13,0.31,4.27,0.26,6.41c-0.01,0.36,0,0.71,0,1.1c0.15,0,0.27,0,0.39,0
		c3.13-0.12,6.26-0.21,9.38-0.36c3.07-0.15,6.14-0.35,9.22-0.52c2.28-0.13,4.57-0.26,6.85-0.35c3.69-0.14,7.38-0.27,11.07-0.37
		c2.31-0.07,4.63-0.08,6.94-0.12c0.75-0.01,1.5-0.04,2.25-0.08c0.46-0.02,0.82,0.1,0.99,0.56c0.02,0.05,0.05,0.1,0.08,0.13
		c0.43,0.33,0.67,0.8,0.96,1.22c0.31,0.44,0.63,0.87,0.95,1.29c0.23,0.3,0.25,0.46,0.07,0.63c-0.2,0.19-0.53,0.16-0.74-0.1
		c-0.33-0.4-0.65-0.82-0.97-1.23c-0.19-0.25-0.38-0.51-0.63-0.83c-0.05,0.2-0.09,0.32-0.11,0.45c-0.26,1.46-0.27,2.93-0.21,4.4
		c0.13,3.25,0.29,6.5,0.41,9.75c0.12,3.32,0.17,6.63,0.11,9.95c-0.04,2.09-0.06,4.18-0.01,6.26c0.04,1.55,0.18,3.1,0.48,4.63
		c0.52,2.65,1.07,5.29,1.59,7.94c0.34,1.73,0.6,3.48,0.78,5.24c0.29,2.84,0.38,5.69,0.43,8.54c0.04,2.23,0.03,4.47,0.09,6.7
		c0.06,2.37,0.17,4.73,0.26,7.1c0.08,2.28,0.41,4.53,0.64,6.79c0.11,1.06,0.18,2.13,0.26,3.2c0.12,1.53,0.25,3.07,0.37,4.6
		c0.08,1.04,0.16,2.08,0.24,3.12c-0.29,0.2-0.56,0.37-0.81,0.57c-0.51,0.39-1,0.8-1.5,1.2c-0.07,0.05-0.15,0.1-0.24,0.11
		c-0.34,0.04-0.69,0.08-1.03,0.1c-0.23,0.02-0.39,0.12-0.54,0.29c-1.58,1.73-3.15,3.47-4.75,5.18c-1.66,1.78-3.35,3.54-5.02,5.3
		c-0.16,0.16-0.3,0.34-0.44,0.52c-1.72,2.1-3.41,4.23-5.25,6.23c-0.27,0.29-0.54,0.59-0.86,0.93c0.55,0,1.03,0,1.59,0
		c-0.14,0.14-0.22,0.23-0.32,0.32c-0.74,0.7-1.47,1.4-2.21,2.1c-0.09,0.08-0.22,0.14-0.34,0.15c-0.26,0.03-0.53,0.04-0.8,0.05
		c-0.35,0.01-0.69,0.01-1.02,0.17c-0.26,0.12-0.54,0.09-0.82,0.01c-0.2-0.06-0.42-0.09-0.63-0.08c-2.89,0.09-5.78,0.22-8.66,0.29
		c-2.93,0.07-5.86,0.08-8.79,0.12c-3.25,0.04-6.5,0.05-9.75,0.12c-3.64,0.07-7.27,0.19-10.91,0.3c-3.32,0.1-6.63,0.21-9.95,0.31
		c-3.77,0.12-7.54,0.23-11.31,0.34c-2.13,0.06-4.25,0.12-6.38,0.16c-3.71,0.06-7.41,0.09-11.12,0.14c-3.26,0.04-6.53,0.08-9.79,0.15
		c-4,0.09-8,0.19-11.99,0.33c-2.71,0.1-5.43,0.25-8.14,0.41c-2.42,0.14-4.83,0.3-7.25,0.48c-2.19,0.16-4.37,0.34-6.56,0.53
		c-2.23,0.19-4.45,0.38-6.67,0.6c-2.42,0.24-4.84,0.51-7.26,0.76c-2.39,0.25-4.79,0.52-7.18,0.75c-2.5,0.25-5.01,0.47-7.51,0.69
		c-0.99,0.09-1.98,0.12-2.96,0.17c-3.1,0.16-6.2,0.32-9.3,0.47c-1.35,0.06-2.7,0.08-4.05,0.13c-0.2,0.01-0.39,0.04-0.59,0.06
		c-0.48,0-0.96,0-1.45,0c-0.15-0.06-0.3-0.11-0.44-0.19c-0.4-0.22-0.67-0.55-0.67-1.02c0-0.49,0.3-0.82,0.72-1.02
		c0.13-0.06,0.27-0.1,0.43-0.16c0-0.23,0.02-0.47,0-0.71c-0.15-1.41-0.32-2.82-0.48-4.23c-0.15-1.33-0.31-2.66-0.44-3.99
		c-0.19-1.93-0.37-3.86-0.55-5.79c-0.15-1.67-0.3-3.33-0.43-5c-0.16-1.91-0.31-3.81-0.45-5.72c-0.13-1.88-0.26-3.76-0.35-5.65
		c-0.14-2.97-0.29-5.93-0.36-8.9c-0.07-3.12-0.04-6.24-0.08-9.35c-0.03-3.32-0.07-6.64-0.14-9.95c-0.06-2.89-0.22-5.78-0.27-8.67
		c-0.05-2.93-0.04-5.86-0.02-8.79c0.02-2.54,0.08-5.08,0.16-7.63c0.1-2.93,0.23-5.86,0.36-8.78c0.08-1.68,0.16-3.37,0.27-5.05
		c0.13-2.07,0.3-4.14,0.45-6.2c0.06-0.76,0.12-1.52,0.18-2.28c0.01-0.13,0-0.26,0-0.39c-0.39,0-0.74,0-1.1,0
		c-0.25,0-0.48-0.04-0.66-0.23c-0.24-0.26-0.24-0.55,0.05-0.76c0.14-0.1,0.34-0.15,0.51-0.19c0.13-0.03,0.27-0.01,0.4-0.01
		c0.12-0.01,0.24-0.02,0.4-0.03c0.06-0.25,0.11-0.49,0.17-0.73c0.1-0.41,0.35-0.68,0.78-0.77c0.41-0.09,0.68,0.11,0.72,0.53
		c0.03,0.29,0.04,0.58,0.05,0.87c0.61,0.14,20.42-0.91,21.47-1.14c0.01-0.09,0.02-0.19,0.02-0.3c-0.04-1.93-0.09-3.85-0.12-5.78
		c-0.02-1.66,0.02-3.32,0.5-4.93c0.36-1.2,0.91-2.31,1.61-3.35c0.58-0.85,1.43-1.21,2.4-1.38c1.38-0.25,2.75-0.16,4.1,0.19
		c0.9,0.23,1.79,0.54,2.68,0.84c1.32,0.44,2.07,1.42,2.47,2.7c0.27,0.85,0.37,1.72,0.48,2.6c0.31,2.52,0.27,5.05,0.32,7.58
		c0,0.19,0.01,0.37,0.01,0.56c0,0.04,0.03,0.07,0.05,0.13c0.69-0.06,1.38-0.11,2.07-0.17c1.45-0.12,2.91-0.25,4.36-0.37
		c1.89-0.15,3.79-0.3,5.68-0.45c1.47-0.12,2.93-0.23,4.4-0.34c1.6-0.13,3.2-0.25,4.8-0.38c1.51-0.12,3.01-0.23,4.52-0.34
		c1.69-0.13,3.39-0.26,5.08-0.38c2.11-0.15,4.22-0.3,6.33-0.44c2.55-0.16,5.1-0.3,7.65-0.44c0.83-0.05,1.66-0.07,2.49-0.09
		c3.72-0.12,7.43-0.23,11.15-0.36c3.61-0.12,7.22-0.25,10.83-0.4c3.23-0.14,6.47-0.31,9.7-0.48c2.48-0.13,4.97-0.26,7.45-0.4
		c1.04-0.06,2.08-0.12,3.14-0.18c0.02-0.07,0.05-0.13,0.06-0.19c0.04-1.39,0.35-2.73,0.74-4.05c0.53-1.82,1-3.66,1.68-5.44
		c0.17-0.44,0.35-0.87,0.56-1.28c0.51-1.01,1.32-1.71,2.33-2.18c0.88-0.41,1.82-0.63,2.78-0.71c0.14-0.01,0.28-0.06,0.42-0.09
		C140.15,1.38,140.6,1.38,141.06,1.38z M131.09,16.72c-0.16,0-0.29-0.01-0.42,0c-1.74,0.09-3.47,0.17-5.21,0.26
		c-2.79,0.15-5.58,0.3-8.38,0.44c-2.38,0.12-4.76,0.23-7.14,0.31c-3.96,0.15-7.91,0.28-11.87,0.41c-3.02,0.1-6.04,0.18-9.07,0.28
		c-0.86,0.03-1.71,0.05-2.57,0.09c-2.16,0.11-4.33,0.23-6.49,0.36c-1.86,0.11-3.71,0.22-5.57,0.35c-2,0.14-4,0.3-6,0.45
		c-1.63,0.12-3.26,0.23-4.88,0.35c-2.24,0.17-4.48,0.35-6.72,0.53c-2.25,0.17-4.51,0.34-6.76,0.51c-2.63,0.21-5.25,0.43-7.88,0.64
		c-0.22,0.02-0.44,0.05-0.68,0.08c-0.01,0.14-0.02,0.25-0.02,0.35c0.03,0.8,0.04,1.61,0.09,2.41c0.16,2.93,0.29,5.85,0.28,8.79
		c-0.01,3.02-0.2,6.04-0.41,9.06c-0.06,0.8-0.2,1.59-0.45,2.36c-0.25,0.75-0.69,1.35-1.37,1.77c-0.71,0.45-1.48,0.73-2.3,0.91
		c-1.65,0.38-3.27,0.27-4.86-0.27c-1.14-0.39-1.97-1.13-2.41-2.26c-0.23-0.59-0.45-1.21-0.54-1.84c-0.12-0.83-0.16-1.68-0.16-2.52
		c-0.02-2.96,0.01-5.91-0.01-8.87c-0.01-1.82,0.06-3.64,0.23-5.45c0.09-1.01,0.2-2.02,0.3-3.04c0.01-0.14,0-0.28,0-0.46
		c-0.32,0.03-0.61,0.05-0.9,0.08c0,0.21,0,0.37,0,0.53c0,0.51-0.36,0.85-0.91,0.86c-0.54,0.01-0.93-0.31-0.97-0.8
		c-0.01-0.14-0.02-0.29-0.03-0.48c-7.2,0.58-14.38,0.83-21.54,1.19c-0.02,0.09-0.04,0.11-0.04,0.14c-0.1,1.8-0.22,3.61-0.31,5.41
		c-0.11,2.19-0.21,4.38-0.27,6.58c-0.1,3.75-0.21,7.49-0.24,11.24c-0.03,3.65,0.02,7.31,0.09,10.96c0.04,2.5,0.16,5,0.27,7.5
		c0.1,2.23,0.26,4.46,0.36,6.69c0.1,2.22,0.17,4.44,0.23,6.66c0.11,4.16,0.12,8.32,0.35,12.48c0.09,1.68,0.17,3.37,0.27,5.05
		c0.11,1.76,0.24,3.52,0.37,5.29c0.11,1.48,0.23,2.96,0.35,4.44c0.14,1.71,0.3,3.41,0.45,5.12c0.14,1.55,0.29,3.09,0.43,4.64
		c0.18,1.82,0.35,3.65,0.54,5.47c0.16,1.53,0.33,3.06,0.51,4.59c0.19,1.54,0.39,3.08,0.23,4.64c-0.01,0.05,0.01,0.1,0.01,0.19
		c0.17,0,0.32,0.01,0.48,0c1.54-0.06,3.07-0.12,4.61-0.19c2.5-0.12,5-0.24,7.5-0.39c1.6-0.09,3.2-0.21,4.8-0.34
		c1.88-0.16,3.76-0.34,5.63-0.53c1.9-0.19,3.8-0.4,5.71-0.6c1.54-0.17,3.08-0.36,4.62-0.52c1.72-0.18,3.43-0.35,5.15-0.51
		c2.2-0.21,4.39-0.42,6.59-0.61c2.25-0.19,4.51-0.36,6.76-0.52c2.6-0.18,5.2-0.38,7.81-0.52c3.69-0.19,7.38-0.36,11.07-0.48
		c3.57-0.12,7.14-0.19,10.71-0.26c3.08-0.06,6.15-0.1,9.23-0.15c2.6-0.04,5.19-0.07,7.79-0.13c3.12-0.08,6.23-0.18,9.35-0.28
		c1.97-0.06,3.93-0.12,5.9-0.19c2.74-0.09,5.48-0.19,8.22-0.29c2.13-0.07,4.25-0.14,6.38-0.19c3.74-0.1,7.49-0.22,11.23-0.28
		c4.63-0.06,9.26-0.04,13.89-0.1c3.56-0.05,7.12-0.16,10.67-0.25c0.08,0,0.15-0.02,0.24-0.04c0.07-0.81,0.13-1.6,0.2-2.47
		c-0.22,0.21-0.38,0.37-0.54,0.52c-0.1,0.09-0.22,0.12-0.32,0.03c-0.13-0.12-0.02-0.22,0.07-0.3c0.24-0.25,0.5-0.49,0.73-0.75
		c0.09-0.1,0.17-0.25,0.18-0.38c0.12-1.16,0.24-2.32,0.33-3.48c0.08-0.95,0.12-1.9,0.18-2.84c0.12-1.8,0.24-3.6,0.38-5.41
		c0.08-1.01,0.17-2.03,0.32-3.03c0.09-0.58,0.25-1.15,0.47-1.69c0.34-0.81,1.04-1.17,1.91-1.06c0.26,0.03,0.53,0.08,0.79,0.14
		c1,0.26,2.01,0.42,3.05,0.37c0.16-0.01,0.32,0.01,0.48,0.01c0.95,0,1.9,0.06,2.85-0.02c1.44-0.12,2.87-0.33,4.3-0.53
		c1.64-0.23,3.29-0.45,4.95-0.52c0.18-0.01,0.36-0.07,0.53-0.15c0.59-0.28,1.2-0.18,1.65,0.3c0.04,0.04,0.09,0.08,0.19,0.18
		c-0.03-0.53-0.06-0.98-0.09-1.42c-0.13-1.79-0.25-3.58-0.38-5.36c-0.09-1.21-0.16-2.43-0.27-3.64c-0.13-1.41-0.33-2.82-0.42-4.23
		c-0.15-2.19-0.28-4.38-0.33-6.57c-0.07-3.26-0.07-6.53-0.08-9.8c-0.01-2.82-0.07-5.65-0.35-8.46c-0.13-1.33-0.28-2.66-0.51-3.98
		c-0.36-2.08-0.82-4.14-1.2-6.22c-0.29-1.6-0.56-3.22-0.75-4.83c-0.22-1.88-0.23-3.77-0.18-5.65c0.07-2.82,0.18-5.64,0.21-8.47
		c0.03-3.21-0.01-6.42-0.04-9.63c-0.02-1.91-0.08-3.83-0.08-5.74c0-0.89,0.11-1.79,0.21-2.68c0.06-0.57,0.2-1.13,0.31-1.72
		c-0.14,0-0.28,0-0.41,0c-0.48,0.01-0.96,0.03-1.44,0.04c-4.44,0.08-8.88,0.13-13.32,0.25c-2.89,0.08-5.77,0.24-8.66,0.39
		c-3.37,0.17-6.73,0.39-10.1,0.56c-2.73,0.14-5.45,0.24-8.18,0.35c-1.03,0.04-2.06,0.08-3.09,0.12c-0.1,0-0.2,0.03-0.31,0.04
		c-0.01,0.1-0.02,0.18-0.02,0.26c-0.02,1.19-0.04,2.38-0.05,3.57c-0.01,2.93-0.02,5.86-0.24,8.79c-0.16,2.22-0.43,4.42-0.84,6.6
		c-0.18,0.95-0.43,1.88-0.86,2.75c-0.56,1.12-1.42,1.89-2.62,2.28c-0.68,0.22-1.39,0.3-2.1,0.29c-0.96-0.02-1.92-0.09-2.88-0.17
		c-0.82-0.07-1.61-0.27-2.36-0.59c-1.37-0.59-2.3-1.59-2.64-3.07c-0.12-0.53-0.21-1.08-0.22-1.63c-0.07-2.52,0.24-5,0.92-7.42
		c1.01-3.58,1.85-7.2,2.71-10.81c0.03-0.13,0.05-0.27,0.08-0.45c-0.92,0.05-1.78,0.09-2.63,0.13c-0.1,0.8-0.35,1.09-0.91,1.09
		C131.46,17.71,131.18,17.42,131.09,16.72z M141.29,16.25c-1.11,0.05-2.19,0.09-3.26,0.14c-0.04,0.12-0.07,0.19-0.09,0.27
		c-0.28,1.12-0.57,2.23-0.82,3.35c-0.55,2.41-1.15,4.81-1.85,7.18c-0.52,1.75-0.96,3.51-1.08,5.34c-0.06,0.92-0.09,1.84-0.11,2.76
		c-0.01,0.29,0.04,0.59,0.09,0.88c0.21,1.3,0.98,2.11,2.23,2.46c1.42,0.39,2.86,0.51,4.33,0.37c1.03-0.1,1.74-0.66,2.13-1.6
		c0.22-0.53,0.39-1.08,0.51-1.64c0.42-1.9,0.62-3.83,0.79-5.76c0.22-2.53,0.3-5.07,0.32-7.62c0.02-1.94,0.05-3.88,0.08-5.82
		c0-0.13,0-0.26,0-0.37c-0.42,0-0.79,0-1.17,0c-0.04,0.32-0.07,0.59-0.11,0.87c-0.41,2.93-0.62,5.88-0.85,8.82
		c-0.15,1.88-0.26,3.76-0.18,5.65c0.02,0.4-0.19,0.66-0.53,0.82c-0.58,0.29-1.55,0.01-1.51-0.95c0.06-1.38,0.07-2.75,0.16-4.13
		c0.12-2.06,0.28-4.11,0.45-6.16c0.12-1.49,0.3-2.98,0.44-4.47C141.28,16.53,141.28,16.41,141.29,16.25z M32.16,22.56
		c-0.06,0.64-0.1,1.23-0.17,1.81c-0.3,2.43-0.42,4.88-0.38,7.33c0.03,1.75,0.03,3.51,0.03,5.26c0,1.65-0.02,3.29-0.01,4.94
		c0,0.88,0.19,1.72,0.54,2.53c0.22,0.51,0.56,0.91,1.08,1.12c0.2,0.08,0.39,0.17,0.6,0.23c1.26,0.39,2.51,0.32,3.75-0.08
		c0.87-0.28,1.51-0.8,1.63-1.78c0.09-0.73,0.21-1.46,0.26-2.19c0.07-0.88,0.09-1.76,0.12-2.65c0.07-1.86,0.2-3.72,0.18-5.57
		c-0.05-3.79-0.19-7.57-0.29-11.35c0-0.06-0.03-0.12-0.05-0.2c-0.45,0.04-0.89,0.08-1.36,0.12c0,0.13,0,0.24,0,0.34
		c0.03,1,0.05,2.01,0.08,3.01c0.08,2.78-0.04,5.56-0.15,8.35c-0.01,0.29-0.06,0.59-0.12,0.87c-0.1,0.49-0.51,0.76-1.08,0.73
		c-0.53-0.02-0.9-0.35-0.95-0.85c-0.03-0.29-0.03-0.59-0.03-0.88c0.02-1.31,0.09-2.62,0.07-3.93c-0.03-2.37-0.11-4.73-0.18-7.1
		c0-0.1-0.02-0.2-0.04-0.34C34.52,22.36,33.36,22.45,32.16,22.56z M39.5,20.72c0-0.18,0-0.31,0-0.44c0-0.62,0-1.23,0-1.85
		c-0.02-2.09,0.01-4.17-0.25-6.25c-0.1-0.81-0.23-1.62-0.53-2.38c-0.25-0.62-0.63-1.12-1.29-1.34c-0.46-0.15-0.91-0.32-1.37-0.46
		c-1.24-0.37-2.48-0.64-3.79-0.54c-0.85,0.07-1.57,0.32-1.97,1.14c-0.05,0.11-0.13,0.21-0.19,0.31c-0.83,1.4-1.23,2.93-1.3,4.54
		c-0.13,2.63,0,5.27,0.06,7.9c0,0.07,0.04,0.15,0.06,0.23c0.34-0.02,0.66-0.05,1.01-0.07c0.02-0.27,0.05-0.52,0.07-0.77
		c0.06-0.97,0.1-1.95,0.17-2.92c0.08-1.1,0.38-2.14,1.04-3.03c0.95-1.29,2.22-1.93,3.85-1.77c1.29,0.13,2.42,1.12,2.73,2.38
		c0.18,0.77,0.25,1.56,0.25,2.35c0,0.88,0,1.77,0,2.65c0,0.13,0.01,0.26,0.02,0.4c0.09,0.01,0.16,0.02,0.22,0.02
		C38.67,20.8,39.06,20.76,39.5,20.72z M144.57,14.75c0.02-0.1,0.04-0.16,0.04-0.23c0.09-2.5,0.18-5-0.2-7.49
		c-0.13-0.84-0.35-1.67-0.54-2.5c-0.14-0.57-0.53-0.91-1.08-1.08c-1.56-0.47-3.14-0.51-4.71-0.07c-1.11,0.31-1.93,0.96-2.34,2.07
		c-0.15,0.41-0.33,0.82-0.46,1.24c-0.57,1.73-1.14,3.45-1.67,5.19c-0.22,0.73-0.39,1.47-0.55,2.22c-0.08,0.36-0.08,0.73-0.12,1.15
		c1.01-0.05,1.97-0.09,2.92-0.14c0.03-0.1,0.05-0.16,0.06-0.23c0.21-1.08,0.41-2.15,0.64-3.23c0.15-0.72,0.3-1.44,0.49-2.15
		c0.22-0.81,0.73-1.4,1.51-1.71c0.41-0.16,0.84-0.31,1.27-0.35c1.75-0.16,3.1,0.5,3.83,2.09c0.23,0.51,0.33,1.05,0.29,1.6
		c-0.09,1-0.2,2-0.3,2.99c-0.02,0.21-0.03,0.41-0.05,0.66C143.96,14.78,144.27,14.76,144.57,14.75z M182.53,114.6
		c-0.13,0.11-0.23,0.21-0.34,0.29c-0.46,0.35-0.97,0.64-1.37,1.04c-1,1.01-1.94,2.07-2.9,3.11c-0.08,0.08-0.16,0.2-0.15,0.3
		c0,0.22-0.16,0.3-0.3,0.38c-0.07,0.04-0.21,0.03-0.29-0.02c-0.04-0.02-0.05-0.18-0.01-0.25c0.14-0.23,0.28-0.46,0.46-0.65
		c0.47-0.52,0.95-1.02,1.43-1.52c0.07-0.07,0.12-0.15,0.18-0.23c-0.25,0.06-0.46,0.17-0.69,0.25c-0.07,0.03-0.2,0-0.25-0.06
		c-0.04-0.05-0.03-0.17,0-0.25c0.02-0.07,0.08-0.14,0.13-0.2c0.29-0.35,0.58-0.7,0.88-1.04c0.36-0.41,0.73-0.8,1.1-1.2
		c-0.43,0.24-0.86,0.51-1.19,0.85c-0.73,0.74-1.42,1.53-2.14,2.29c-0.14,0.15-0.23,0.31-0.23,0.53c-0.03,1.12-0.07,2.25-0.11,3.37
		c0,0.06,0.03,0.11,0.04,0.17c0.03,0.02,0.07,0.04,0.1,0.06c0.03-0.06,0.04-0.14,0.09-0.18c0.73-0.71,1.46-1.41,2.19-2.12
		c0.11-0.1,0.21-0.21,0.3-0.32c0.58-0.72,1.17-1.43,1.74-2.16c3.09-3.96,6.33-7.79,9.77-11.44c0.05-0.05,0.1-0.12,0.18-0.22
		c-0.16-0.01-0.26-0.02-0.36-0.02c-2.5,0-5,0.01-7.5,0c-0.22,0-0.38,0.07-0.55,0.19c-1.23,0.95-2.47,1.88-3.69,2.83
		c-0.32,0.25-0.63,0.4-1.02,0.18c-0.2,0.31-0.31,0.62-0.35,0.95c-0.12,0.97-0.27,1.93-0.37,2.91c-0.14,1.33-0.24,2.66-0.36,4
		c-0.01,0.11,0.01,0.22,0.02,0.41c0.15-0.17,0.23-0.26,0.31-0.34c2.08-2.23,4.17-4.45,6.25-6.68c0.67-0.71,1.33-1.43,2.01-2.13
		c0.08-0.08,0.26-0.19,0.32-0.16c0.19,0.1,0.3,0,0.43-0.09c0.16-0.1,0.31-0.21,0.48-0.3c0.23-0.12,0.36-0.05,0.37,0.2
		c0,0.14-0.01,0.3-0.07,0.43c-0.08,0.21-0.21,0.4-0.31,0.61c-0.07,0.14-0.17,0.22-0.32,0.13c-0.15-0.09-0.06-0.2-0.01-0.31
		c0.07-0.18,0.23-0.32,0.21-0.63c-0.23,0.24-0.42,0.4-0.58,0.59c-0.09,0.11-0.12,0.26-0.22,0.36c-0.28,0.3-0.58,0.59-0.87,0.89
		c-0.19,0.19-0.37,0.38-0.56,0.58c0.39,0.14,0.43,0.28,0.2,0.54c-0.05,0.06-0.12,0.11-0.17,0.17c-0.3,0.31-0.61,0.6-0.9,0.92
		c-1.3,1.46-2.59,2.92-3.88,4.39c-0.07,0.08-0.14,0.17-0.25,0.3c0.36-0.14,1.27-0.76,1.51-1.03c0.8-0.86,1.6-1.73,2.39-2.6
		c0.97-1.05,1.93-2.12,2.9-3.17c0.22-0.23,0.46-0.45,0.7-0.66c0.11-0.1,0.24-0.17,0.41,0.03c-0.19,0.28-0.38,0.57-0.58,0.85
		c-0.03,0.05-0.12,0.09-0.17,0.08c-0.2-0.04-0.29,0.1-0.39,0.22c-0.75,0.83-1.51,1.67-2.26,2.5c-0.55,0.6-1.1,1.2-1.65,1.81
		C182.36,114.41,182.43,114.49,182.53,114.6z M35.71,21.05c0-0.34,0-0.64,0-0.93c-0.02-1.15-0.04-2.3-0.08-3.45
		c-0.01-0.33-0.09-0.67-0.19-0.98c-0.21-0.61-0.73-0.82-1.32-0.58c-0.33,0.14-0.6,0.35-0.81,0.63c-0.48,0.64-0.74,1.36-0.81,2.15
		c-0.1,1.05-0.15,2.11-0.23,3.16c-0.01,0.08,0.01,0.15,0.02,0.27C33.43,21.24,34.54,21.15,35.71,21.05z M141.46,14.87
		c0.03-0.24,0.06-0.46,0.09-0.67c0.07-0.64,0.14-1.28,0.19-1.92c0.04-0.44,0.07-0.88,0.06-1.32c-0.01-0.53-0.24-0.99-0.65-1.32
		c-0.38-0.31-0.81-0.28-1.26-0.18c-0.41,0.1-0.53,0.41-0.6,0.77c-0.21,1.05-0.43,2.09-0.64,3.14c-0.1,0.52-0.2,1.04-0.32,1.62
		C139.39,14.95,140.42,14.91,141.46,14.87z M177.95,107.8c0.97-0.82,1.9-1.6,2.83-2.39c-0.01-0.03-0.01-0.05-0.02-0.08
		c-0.41,0-0.83,0.03-1.24-0.01c-0.31-0.03-0.5,0.1-0.68,0.32C178.33,106.26,178.08,106.99,177.95,107.8z M177.25,104.66
		c-0.11,0.38-0.21,0.74-0.31,1.09c0.02,0,0.03,0.01,0.05,0.01c0.24-0.31,0.48-0.62,0.75-0.97
		C177.57,104.74,177.44,104.71,177.25,104.66z M183.8,110.77c-0.02-0.02-0.04-0.05-0.07-0.07c-0.5,0.4-1.19,1.13-1.28,1.41
		C182.94,111.62,183.37,111.19,183.8,110.77z"/>
	<path d="M70.61,25.39c-1.95,0.12-3.9,0.25-5.85,0.37c-1.4,0.09-2.8,0.17-4.21,0.26c-2.04,0.13-4.09,0.26-6.13,0.38
		c-1.43,0.09-2.86,0.17-4.29,0.26c-1.18,0.07-2.35,0.14-3.53,0.2c-0.12,0.01-0.24,0.01-0.36-0.02c-0.26-0.06-0.43-0.28-0.42-0.52
		c0.01-0.22,0.18-0.41,0.44-0.46c0.21-0.04,0.42-0.05,0.64-0.07c2.47-0.15,4.94-0.29,7.41-0.44c3.02-0.18,6.03-0.37,9.05-0.56
		c2.54-0.16,5.07-0.32,7.61-0.48c2.91-0.19,5.82-0.39,8.73-0.56c3.02-0.18,6.04-0.35,9.06-0.47c1.86-0.08,3.72-0.06,5.58-0.07
		c0.61,0,1.2,0.13,1.77,0.34c0.32,0.12,0.43,0.26,0.38,0.47c-0.05,0.22-0.3,0.36-0.59,0.27c-0.77-0.23-1.56-0.24-2.35-0.21
		c-2.86,0.12-5.72,0.24-8.58,0.38c-1.46,0.07-2.91,0.16-4.37,0.26c-1.95,0.12-3.9,0.26-5.85,0.38
		C73.38,25.22,71.99,25.3,70.61,25.39C70.61,25.39,70.61,25.39,70.61,25.39z"/>
	<path d="M10.57,118.64c-0.02,0.31-0.04,0.63-0.05,0.94c-0.03,1.36-0.05,2.73-0.08,4.09c0,0.07,0,0.13,0,0.2
		c0,0.17-0.08,0.29-0.26,0.28c-0.18,0-0.26-0.12-0.26-0.29c0-0.43,0-0.86,0.01-1.28c0.04-1.82,0.06-3.64,0.11-5.45
		c0.04-1.43,0.13-2.86,0.15-4.29c0.01-0.75-0.08-1.49-0.13-2.24c-0.02-0.29-0.06-0.58-0.16-0.86c-0.01,0.18-0.01,0.36-0.04,0.53
		c-0.01,0.07-0.1,0.16-0.17,0.18c-0.12,0.03-0.2-0.06-0.2-0.19c0.01-0.28,0.02-0.56,0.04-0.84c0.02-0.4,0.05-0.8,0.08-1.2
		c0.01-0.12,0.02-0.28,0.17-0.28c0.11,0,0.28,0.08,0.32,0.17c0.11,0.22,0.2,0.47,0.23,0.71c0.12,0.95,0.14,1.93,0.34,2.86
		c0.15,0.69,0.04,1.37,0.14,2.05c0.1,0.69,0.12,1.38,0.16,2.08c0.13,2.24,0.26,4.49,0.37,6.73c0.06,1.27,0.07,2.54,0.11,3.81
		c0,0.09,0.02,0.21-0.02,0.27c-0.06,0.08-0.17,0.16-0.27,0.18c-0.13,0.02-0.23-0.07-0.24-0.21c-0.01-0.09,0-0.19-0.01-0.28
		c-0.08-2.51-0.17-5.02-0.26-7.54c0-0.05-0.01-0.1-0.01-0.14C10.61,118.64,10.59,118.64,10.57,118.64z"/>
	<path d="M189.05,35.09c0.02,0.32-0.08,0.46-0.31,0.5c-0.26,0.04-0.43-0.08-0.47-0.36c-0.14-0.91-0.27-1.83-0.39-2.74
		c-0.29-2.07-0.57-4.13-0.86-6.2c-0.28-1.99-0.56-3.97-0.83-5.96c-0.04-0.25-0.08-0.5-0.1-0.76c-0.02-0.24,0.1-0.38,0.32-0.44
		c0.25-0.06,0.49,0.03,0.58,0.24c0.05,0.11,0.06,0.23,0.08,0.35c0.31,2.22,0.64,4.45,0.94,6.67c0.24,1.79,0.46,3.58,0.68,5.37
		c0.13,1.05,0.24,2.1,0.36,3.15C189.04,34.99,189.05,35.06,189.05,35.09z"/>
	<path d="M185.29,33.35c0,0.61,0,1.19,0,1.76c0,0.13,0.01,0.27-0.01,0.4c-0.01,0.16-0.11,0.24-0.27,0.24
		c-0.15,0-0.26-0.07-0.27-0.23c-0.01-0.09-0.01-0.19-0.01-0.28c-0.06-2.27-0.12-4.54-0.19-6.82c-0.05-1.94-0.14-3.88-0.14-5.81
		c0-0.62-0.04-1.21-0.13-1.82c-0.03-0.24,0.05-0.36,0.24-0.38c0.21-0.03,0.33,0.07,0.37,0.32c0.09,0.55,0.18,1.11,0.23,1.67
		c0.19,1.85,0.4,3.69,0.53,5.55c0.12,1.67,0.14,3.34,0.21,5.01c0,0.05,0,0.11,0,0.16c-0.02,0.26-0.13,0.35-0.39,0.31
		C185.41,33.41,185.35,33.37,185.29,33.35z"/>
	<path d="M172.65,116.86c0.05,0.01,0.16,0.01,0.22,0.06c0.09,0.07,0.19,0.19,0.18,0.28c-0.01,0.11-0.12,0.22-0.21,0.31
		c-0.05,0.05-0.15,0.05-0.23,0.06c-2.36,0.38-4.72,0.76-7.08,1.14c-2.4,0.39-4.8,0.78-7.2,1.17c-1.31,0.21-2.61,0.42-3.92,0.63
		c-0.05,0.01-0.11,0.02-0.16,0.02c-0.23,0-0.42-0.15-0.43-0.34c-0.02-0.18,0.1-0.33,0.34-0.38c0.39-0.08,0.79-0.14,1.18-0.2
		c4.08-0.65,8.15-1.31,12.23-1.96c1.61-0.26,3.22-0.51,4.83-0.77C172.48,116.88,172.54,116.88,172.65,116.86z"/>
	<path d="M11.95,114.09c-0.13,0.09-0.21,0.15-0.31,0.2c-0.18,0.09-0.37,0.07-0.54-0.03c-0.3-0.17-0.3-0.53,0-0.71
		c0.24-0.15,0.59-0.08,0.75,0.15c0.04,0.06,0.07,0.14,0.12,0.25c0.05-0.04,0.09-0.08,0.14-0.11c0.37-0.2,0.68-0.03,0.69,0.39
		c0.02,0.51,0.01,1.02,0.02,1.52c0.08,3.26,0.16,6.52,0.25,9.79c0.01,0.45,0.06,0.91,0.08,1.36c0.02,0.29-0.09,0.43-0.33,0.45
		c-0.22,0.02-0.39-0.11-0.41-0.38c-0.08-1-0.18-2-0.21-3c-0.1-3.18-0.16-6.36-0.24-9.54C11.96,114.34,11.95,114.25,11.95,114.09z"/>
	<path d="M191.05,82.29c-0.07,0.34-0.14,0.67-0.2,1.01c-0.22,1.29-0.44,2.58-0.65,3.87c-0.01,0.04-0.01,0.08-0.01,0.12
		c-0.02,0.16-0.09,0.29-0.28,0.25c-0.17-0.04-0.17-0.17-0.15-0.31c0.05-0.32,0.1-0.63,0.15-0.95c0.26-1.46,0.52-2.92,0.78-4.38
		c0.04-0.25,0.11-0.47,0.4-0.54c0.23-0.05,0.34,0,0.37,0.23c0.05,0.34,0.11,0.69,0.1,1.03c-0.02,1-0.06,2-0.12,3.01
		c-0.08,1.43-0.18,2.86-0.28,4.28c-0.1,1.41-0.21,2.83-0.31,4.24c0,0.07,0,0.14-0.03,0.2c-0.03,0.05-0.1,0.1-0.15,0.1
		c-0.05,0-0.12-0.07-0.13-0.11c-0.02-0.09-0.01-0.19-0.01-0.28c0.09-1.49,0.19-2.99,0.28-4.48c0.1-1.64,0.2-3.28,0.28-4.93
		c0.04-0.68,0.05-1.36,0.07-2.04c0-0.11-0.01-0.21-0.02-0.32C191.11,82.29,191.08,82.29,191.05,82.29z"/>
	<path d="M158.6,121.29c1.22,0.17,2.43-0.02,3.64-0.12c0.92-0.08,1.84-0.15,2.76-0.23c0.08-0.01,0.16-0.01,0.24,0.01
		c0.19,0.04,0.31,0.15,0.33,0.35c0.01,0.2-0.1,0.34-0.29,0.38c-0.18,0.04-0.33,0.08-0.44,0.23c-0.04,0.05-0.14,0.07-0.22,0.08
		c-0.09,0.01-0.19,0.01-0.28,0c-1.68-0.08-3.34,0.11-5,0.29c-0.3,0.03-0.55,0.02-0.71-0.29c-0.04-0.08-0.2-0.12-0.3-0.12
		c-0.43-0.02-0.85-0.02-1.28-0.03c-0.31-0.01-0.46-0.11-0.46-0.28c0-0.17,0.16-0.26,0.46-0.26
		C157.56,121.29,158.08,121.29,158.6,121.29z"/>
	<path d="M14.46,29.46c-1.71,0.06-2.96-0.02-4.21-0.2c-0.07-0.01-0.13-0.01-0.2-0.03c-0.17-0.04-0.29-0.15-0.28-0.34
		c0.01-0.19,0.14-0.29,0.32-0.3c0.16-0.01,0.32,0.01,0.48,0.03c1.62,0.22,3.25,0.22,4.88,0.1c1.24-0.09,2.48-0.18,3.72-0.27
		c0.17-0.01,0.34-0.05,0.52-0.06c0.23-0.01,0.4,0.12,0.41,0.3c0.01,0.17-0.1,0.29-0.34,0.32c-0.6,0.08-1.19,0.16-1.79,0.21
		C16.65,29.32,15.33,29.4,14.46,29.46z"/>
	<path d="M175.84,20.55c-0.16,0.01-0.32-0.03-0.4-0.2c-0.09-0.19,0.02-0.39,0.27-0.43c0.41-0.06,0.82-0.1,1.23-0.14
		c1.99-0.21,3.99-0.42,5.98-0.63c0.85-0.09,1.7-0.2,2.55-0.31c0.08-0.01,0.16-0.02,0.24,0c0.14,0.03,0.26,0.12,0.23,0.28
		c-0.02,0.1-0.11,0.2-0.19,0.27c-0.05,0.05-0.15,0.04-0.23,0.05c-2.04,0.25-4.09,0.5-6.13,0.73c-1.14,0.13-2.29,0.24-3.43,0.36
		C175.92,20.54,175.88,20.55,175.84,20.55z"/>
	<path d="M13.38,119.86c0.03-0.28,0.12-0.41,0.34-0.43c0.24-0.02,0.37,0.09,0.4,0.38c0.08,0.96,0.14,1.92,0.23,2.88
		c0.11,1.27,0.23,2.53,0.53,3.77c0.04,0.18,0.04,0.35-0.13,0.41c-0.12,0.04-0.29,0.01-0.41-0.05c-0.07-0.04-0.11-0.18-0.13-0.28
		c-0.1-0.52-0.23-1.05-0.29-1.58C13.72,123.26,13.55,121.56,13.38,119.86z"/>
	<path d="M192.91,86.65c0.24,0.16,0.17,0.3,0.16,0.42c-0.22,1.55-0.44,3.09-0.66,4.64c-0.15,1.06-0.3,2.12-0.45,3.17
		c-0.02,0.15-0.03,0.29-0.08,0.43c-0.02,0.07-0.1,0.12-0.2,0.22c-0.03-0.16-0.06-0.23-0.05-0.3c0.4-2.82,0.81-5.63,1.22-8.45
		C192.85,86.75,192.89,86.7,192.91,86.65z"/>
	<path d="M182.46,109.16c0.11-0.09,0.22-0.19,0.33-0.28c0.82-0.68,1.65-1.37,2.47-2.05c0.08-0.07,0.17-0.13,0.27-0.17
		c0.15-0.07,0.3-0.03,0.39,0.1c0.11,0.15,0.03,0.28-0.09,0.38c-0.45,0.36-0.9,0.72-1.33,1.09c-1.12,0.96-2.23,1.92-3.35,2.88
		c-0.3,0.26-0.63,0.5-0.94,0.74c-0.07,0.06-0.16,0.13-0.24,0.13c-0.12,0-0.26-0.04-0.35-0.11c-0.11-0.09-0.05-0.22,0.04-0.32
		c0.15-0.17,0.3-0.34,0.45-0.52c0.71-0.84,1.42-1.67,2.13-2.51c0.11-0.13,0.21-0.27,0.26-0.46c-0.07,0.04-0.16,0.07-0.21,0.13
		c-0.56,0.81-1.34,1.42-2.07,2.06c-0.56,0.49-1.18,0.92-1.77,1.38c-0.06,0.05-0.13,0.09-0.2,0.13c-0.14,0.07-0.29,0.09-0.41-0.03
		c-0.13-0.13-0.1-0.28-0.01-0.4c0.15-0.19,0.3-0.38,0.49-0.53c1.07-0.87,2.14-1.73,3.21-2.6c0.1-0.08,0.19-0.17,0.28-0.25
		c-0.02-0.03-0.04-0.05-0.06-0.08c-0.19,0.11-0.39,0.21-0.56,0.34c-0.89,0.64-1.77,1.29-2.66,1.94c-0.11,0.08-0.22,0.17-0.34,0.2
		c-0.1,0.02-0.24-0.03-0.31-0.11c-0.09-0.1-0.04-0.23,0.07-0.31c0.05-0.04,0.1-0.09,0.15-0.13c1.02-0.82,2.04-1.64,3.07-2.46
		c0.1-0.08,0.22-0.15,0.34-0.19c0.15-0.04,0.24,0.07,0.32,0.19c0.02,0.03,0.09,0.04,0.14,0.05c0.05,0.01,0.12-0.03,0.16,0
		c0.28,0.21,0.58,0.07,0.87,0.07c0.27,0,0.35,0.12,0.23,0.36c-0.17,0.32-0.37,0.62-0.56,0.92c-0.08,0.12-0.17,0.23-0.26,0.34
		C182.42,109.11,182.44,109.14,182.46,109.16z"/>
</g>
<g>
</g>
<g>
</g>
<g>
</g>
<g>
</g>
<g>
</g>
<g>
</g>
</svg>
