<?xml version="1.0" encoding="utf-8"?>
<!-- Generator: Adobe Illustrator 26.1.0, SVG Export Plug-In . SVG Version: 6.00 Build 0)  -->
<svg version="1.1" id="Layer_1" xmlns="http://www.w3.org/2000/svg" xmlns:xlink="http://www.w3.org/1999/xlink" x="0px" y="0px"
	 viewBox="0 0 325 120" style="enable-background:new 0 0 325 120;" xml:space="preserve">
<style type="text/css">
	.st0{fill:#141717;}
	.st1{fill:#FFD95B;stroke:#231F20;stroke-width:0.5;stroke-miterlimit:10;}
</style>
<g>
	<g>
		<g>
			<path class="st0" d="M68.17,20.98h9.55v1.61H66.35V4.75h11.07v1.61h-9.25v6.15h8.65v1.59h-8.65V20.98z"/>
			<path class="st0" d="M82.71,10.8c0.05,0.63,0.1,1.51,0.1,2.02h0.05c0.66-1.36,2.37-2.32,4.03-2.32c3,0,4.49,1.94,4.49,4.87v7.23
				h-1.71v-6.53c0-2.47-0.73-4.13-3.2-4.13c-1.82,0-3.58,1.46-3.58,4.61v6.05h-1.71v-9.2c0-0.63-0.03-1.79-0.1-2.6H82.71z"/>
			<path class="st0" d="M101.13,12.24H97.8v6.88c0,1.76,0.73,2.17,1.76,2.17c0.48,0,1.03-0.15,1.49-0.38l0.08,1.49
				c-0.61,0.23-1.24,0.35-2.02,0.35c-1.26,0-3.03-0.55-3.03-3.15v-7.36h-2.45V10.8h2.45V7.47h1.71v3.33h3.33V12.24z"/>
			<path class="st0" d="M114.52,17.15h-9.78c0.05,2.37,1.89,4.29,4.31,4.29c1.76,0,3.13-0.98,3.78-2.04l1.29,1.01
				c-1.39,1.76-3.12,2.5-5.07,2.5c-3.5,0-6.1-2.65-6.1-6.2c0-3.55,2.6-6.2,5.95-6.2c3.71,0,5.65,2.62,5.65,5.85
				C114.54,16.57,114.54,16.85,114.52,17.15z M112.8,15.79c-0.1-2.22-1.46-3.86-3.91-3.86c-2.29,0-3.98,1.84-4.13,3.86H112.8z"/>
			<path class="st0" d="M118.12,10.8h1.64c0.05,0.63,0.1,1.51,0.1,2.02h0.05c0.66-1.36,2.12-2.32,3.78-2.32
				c0.43,0,0.78,0.03,1.13,0.13l-0.23,1.61c-0.2-0.08-0.76-0.15-1.21-0.15c-1.82,0-3.45,1.31-3.45,4.46v6.05h-1.71v-9.2
				C118.22,12.76,118.19,11.61,118.12,10.8z"/>
			<path class="st0" d="M139.82,22.6H138v-7.69l-6.68-10.16h2.27l5.37,8.65l5.42-8.65h2.12l-6.68,10.16V22.6z"/>
			<path class="st0" d="M154.18,22.9c-3.66,0-6.28-2.65-6.28-6.2c0-3.55,2.62-6.2,6.28-6.2c3.68,0,6.3,2.65,6.3,6.2
				C160.48,20.25,157.86,22.9,154.18,22.9z M154.18,11.93c-2.72,0-4.46,2.12-4.46,4.76s1.74,4.74,4.46,4.74
				c2.75,0,4.49-2.09,4.49-4.74S156.93,11.93,154.18,11.93z"/>
			<path class="st0" d="M172.73,22.6c-0.05-0.63-0.1-1.51-0.1-2.02h-0.05c-0.66,1.36-2.37,2.32-4.03,2.32c-3,0-4.49-1.94-4.49-4.87
				V10.8h1.71v6.53c0,2.47,0.73,4.13,3.2,4.13c1.82,0,3.58-1.46,3.58-4.61V10.8h1.71V20c0,0.63,0.03,1.79,0.1,2.6H172.73z"/>
			<path class="st0" d="M178.7,10.8h1.64c0.05,0.63,0.1,1.51,0.1,2.02h0.05c0.66-1.36,2.12-2.32,3.78-2.32
				c0.43,0,0.78,0.03,1.13,0.13l-0.23,1.61c-0.2-0.08-0.76-0.15-1.21-0.15c-1.82,0-3.45,1.31-3.45,4.46v6.05h-1.71v-9.2
				C178.8,12.76,178.78,11.61,178.7,10.8z"/>
			<path class="st0" d="M206.93,19.95h0.05V4.75h1.81V22.6h-2.27L196.14,7.24h-0.05V22.6h-1.82V4.75h2.27L206.93,19.95z"/>
			<path class="st0" d="M220.87,14.98c0-2.04-1.11-3.05-3.15-3.05c-1.39,0-2.67,0.55-3.5,1.39l-0.96-1.13
				c0.96-0.96,2.62-1.69,4.64-1.69c2.55,0,4.59,1.41,4.59,4.29v5.17c0,0.91,0.08,1.99,0.2,2.65h-1.54c-0.1-0.58-0.18-1.29-0.18-1.92
				h-0.05c-1.08,1.56-2.39,2.22-4.29,2.22c-1.79,0-4.08-0.96-4.08-3.58c0-3.63,4.01-3.96,8.32-3.96V14.98z M220.36,16.7
				c-2.8,0-6.05,0.3-6.05,2.55c0,1.69,1.44,2.24,2.77,2.24c2.42,0,3.78-1.81,3.78-3.91V16.7H220.36z"/>
			<path class="st0" d="M232.46,10.5c1.29,0,2.85,0.48,3.63,2.5c0.81-1.61,2.24-2.5,4.13-2.5c3,0,4.49,1.94,4.49,4.87v7.23H243
				v-6.53c0-2.47-0.83-4.13-3.05-4.13c-2.47,0-3.35,2.19-3.35,4.39v6.28h-1.71v-6.88c0-2.29-0.55-3.78-2.85-3.78
				c-1.64,0-3.43,1.46-3.43,4.61v6.05h-1.71v-9.2c0-0.63-0.03-1.79-0.1-2.6h1.64c0.05,0.63,0.1,1.51,0.1,2.02h0.05
				C229.26,11.45,230.77,10.5,232.46,10.5z"/>
			<path class="st0" d="M259.85,17.15h-9.78c0.05,2.37,1.89,4.29,4.31,4.29c1.76,0,3.13-0.98,3.78-2.04l1.29,1.01
				c-1.39,1.76-3.12,2.5-5.07,2.5c-3.5,0-6.1-2.65-6.1-6.2c0-3.55,2.6-6.2,5.95-6.2c3.71,0,5.65,2.62,5.65,5.85
				C259.88,16.57,259.88,16.85,259.85,17.15z M258.14,15.79c-0.1-2.22-1.46-3.86-3.91-3.86c-2.29,0-3.98,1.84-4.13,3.86H258.14z"/>
		</g>
	</g>
	<path class="st1" d="M288.7,118.85H36.57c-19.41,0-35.14-15.73-35.14-35.14V72.62c0-19.41,15.73-35.14,35.14-35.14H288.7
		c19.41,0,35.14,15.73,35.14,35.14v11.09C323.84,103.12,308.11,118.85,288.7,118.85z"/>
</g>
<g>
</g>
<g>
</g>
<g>
</g>
<g>
</g>
<g>
</g>
<g>
</g>
</svg>
