<?xml version="1.0" encoding="utf-8"?>
<!-- Generator: Adobe Illustrator 26.1.0, SVG Export Plug-In . SVG Version: 6.00 Build 0)  -->
<svg version="1.1" id="Layer_1" xmlns="http://www.w3.org/2000/svg" xmlns:xlink="http://www.w3.org/1999/xlink" x="0px" y="0px"
	 viewBox="0 0 285 100" style="enable-background:new 0 0 285 100;" xml:space="preserve">
<style type="text/css">
	.st0{fill:none;stroke:#231F20;stroke-width:0.5;stroke-miterlimit:10;}
	.st1{fill:#141717;}
	.st2{fill:none;stroke:#231F20;stroke-width:0.75;stroke-miterlimit:10;}
	.st3{fill:#231F20;}
</style>
<g>
	<path class="st0" d="M249.98,97.51H34.8c-17.71,0-32.06-14.35-32.06-32.06V34.08C2.74,16.38,17.1,2.02,34.8,2.02h215.18
		c17.71,0,32.06,14.35,32.06,32.06v31.37C282.04,83.16,267.69,97.51,249.98,97.51z"/>
	<g>
		<g>
			<path class="st1" d="M54.75,56.91h0.07V35.58h2.55v25.04h-3.18L39.61,39.09h-0.07v21.54H37V35.58h3.18L54.75,56.91z"/>
			<path class="st1" d="M78.91,52.99H65.19c0.07,3.32,2.65,6.01,6.05,6.01c2.48,0,4.39-1.38,5.31-2.87l1.8,1.42
				c-1.95,2.47-4.39,3.5-7.11,3.5c-4.92,0-8.56-3.71-8.56-8.7c0-4.99,3.64-8.7,8.35-8.7c5.2,0,7.92,3.68,7.92,8.21
				C78.95,52.17,78.95,52.56,78.91,52.99z M76.51,51.08c-0.14-3.11-2.05-5.41-5.48-5.41c-3.22,0-5.59,2.58-5.8,5.41H76.51z"/>
			<path class="st1" d="M88,52.07l-6.12-7.99h3.08l4.53,6.3l4.53-6.3h2.9l-6.01,7.89l6.58,8.67h-3.11l-4.92-6.9l-5.06,6.9h-2.9
				L88,52.07z"/>
			<path class="st1" d="M108.7,46.09h-4.67v9.66c0,2.48,1.03,3.04,2.48,3.04c0.67,0,1.45-0.21,2.09-0.53l0.11,2.09
				c-0.85,0.32-1.73,0.5-2.83,0.5c-1.77,0-4.24-0.78-4.24-4.42V46.09h-3.43v-2.02h3.43V39.4h2.41v4.67h4.67V46.09z"/>
			<path class="st1" d="M123.69,69.12h-2.41V44.07h2.41v2.86h0.11c1.38-2.16,3.86-3.29,6.23-3.29c5.16,0,8.56,3.82,8.56,8.7
				c0,4.88-3.4,8.7-8.56,8.7c-2.37,0-4.85-1.17-6.23-3.22h-0.11V69.12z M129.78,45.66c-3.71,0-6.37,2.9-6.37,6.69
				c0,3.78,2.65,6.65,6.37,6.65c4,0,6.26-2.97,6.26-6.65C136.04,48.67,133.77,45.66,129.78,45.66z"/>
			<path class="st1" d="M154.18,49.94c0-2.87-1.56-4.28-4.42-4.28c-1.95,0-3.75,0.78-4.92,1.95l-1.34-1.59
				c1.34-1.34,3.68-2.37,6.51-2.37c3.57,0,6.44,1.98,6.44,6.01v7.25c0,1.27,0.11,2.79,0.28,3.71h-2.16
				c-0.14-0.81-0.25-1.8-0.25-2.69h-0.07c-1.52,2.19-3.36,3.11-6.01,3.11c-2.51,0-5.73-1.35-5.73-5.02c0-5.09,5.62-5.55,11.67-5.55
				V49.94z M153.48,52.35c-3.93,0-8.49,0.42-8.49,3.57c0,2.37,2.02,3.15,3.89,3.15c3.4,0,5.31-2.54,5.31-5.48v-1.24H153.48z"/>
			<path class="st1" d="M163.52,63.95c1.31,1.7,3.82,3.04,6.33,3.04c4.74,0,6.47-2.94,6.47-6.51v-3.11h-0.07
				c-1.27,2.05-3.86,3.25-6.26,3.25c-5.16,0-8.56-3.57-8.56-8.42c0-4.7,3.4-8.56,8.56-8.56c2.41,0,4.95,1.17,6.26,3.29h0.07v-2.86
				h2.41v16.41c0,3.61-1.66,8.63-8.98,8.63c-3.04,0-6.01-1.27-7.96-3.33L163.52,63.95z M170.24,58.57c3.71,0,6.37-2.62,6.37-6.44
				c0-3.47-2.65-6.47-6.37-6.47c-4,0-6.26,3.01-6.26,6.47C163.98,55.6,166.25,58.57,170.24,58.57z"/>
			<path class="st1" d="M200.03,52.99H186.3c0.07,3.32,2.65,6.01,6.05,6.01c2.48,0,4.39-1.38,5.31-2.87l1.8,1.42
				c-1.95,2.47-4.39,3.5-7.11,3.5c-4.92,0-8.56-3.71-8.56-8.7c0-4.99,3.64-8.7,8.35-8.7c5.2,0,7.92,3.68,7.92,8.21
				C200.06,52.17,200.06,52.56,200.03,52.99z M197.62,51.08c-0.14-3.11-2.05-5.41-5.48-5.41c-3.22,0-5.59,2.58-5.8,5.41H197.62z"/>
		</g>
	</g>
	<g>
		<line class="st2" x1="254.18" y1="49.77" x2="214.41" y2="49.77"/>
		<g>
			<path class="st3" d="M243.51,40.18c-0.23,0.46-0.12,1.08,0.24,1.38l10.08,8.21l-10.08,8.21c-0.36,0.3-0.47,0.91-0.24,1.38
				c0.23,0.46,0.72,0.6,1.08,0.31l11.11-9.05c0.23-0.18,0.36-0.5,0.36-0.84c0-0.34-0.14-0.66-0.36-0.84l-11.11-9.05
				c-0.13-0.11-0.28-0.16-0.42-0.16C243.91,39.72,243.66,39.88,243.51,40.18z"/>
		</g>
	</g>
</g>
<g>
</g>
<g>
</g>
<g>
</g>
<g>
</g>
<g>
</g>
<g>
</g>
</svg>
