<?xml version="1.0" encoding="utf-8"?>
<!-- Generator: Adobe Illustrator 26.1.0, SVG Export Plug-In . SVG Version: 6.00 Build 0)  -->
<svg version="1.1" id="Layer_1" xmlns="http://www.w3.org/2000/svg" xmlns:xlink="http://www.w3.org/1999/xlink" x="0px" y="0px"
	 viewBox="0 0 285 100" style="enable-background:new 0 0 285 100;" xml:space="preserve">
<style type="text/css">
	.st0{fill:none;stroke:#231F20;stroke-width:2;stroke-miterlimit:10;}
	.st1{fill:#141717;}
	.st2{fill:none;stroke:#231F20;stroke-width:0.75;stroke-miterlimit:10;}
	.st3{fill:#231F20;}
</style>
<path class="st0" d="M249.98,97.51H34.8c-17.71,0-32.06-14.35-32.06-32.06V34.08C2.74,16.38,17.1,2.02,34.8,2.02h215.18
	c17.71,0,32.06,14.35,32.06,32.06v31.37C282.04,83.16,267.69,97.51,249.98,97.51z"/>
<g>
	<g>
		<path class="st1" d="M93.35,60.29h0.1v-29.2h3.49v34.29h-4.36l-19.95-29.5h-0.1v29.5h-3.49V31.09h4.36L93.35,60.29z"/>
		<path class="st1" d="M126.43,54.92h-18.79c0.1,4.55,3.63,8.23,8.28,8.23c3.39,0,6.01-1.89,7.26-3.92l2.47,1.94
			c-2.66,3.39-6,4.79-9.73,4.79c-6.73,0-11.72-5.08-11.72-11.91s4.99-11.91,11.43-11.91c7.12,0,10.85,5.04,10.85,11.24
			C126.48,53.8,126.48,54.34,126.43,54.92z M123.13,52.3c-0.19-4.26-2.81-7.41-7.51-7.41c-4.41,0-7.65,3.54-7.94,7.41H123.13z"/>
		<path class="st1" d="M138.87,53.66l-8.38-10.95h4.21l6.2,8.62l6.2-8.62h3.97l-8.23,10.8l9.01,11.87h-4.26l-6.73-9.44l-6.93,9.44
			h-3.97L138.87,53.66z"/>
		<path class="st1" d="M167.21,45.47h-6.39V58.7c0,3.39,1.41,4.17,3.39,4.17c0.92,0,1.99-0.29,2.86-0.73l0.15,2.86
			c-1.16,0.44-2.37,0.68-3.88,0.68c-2.42,0-5.81-1.07-5.81-6.05V45.47h-4.7v-2.76h4.7v-6.39h3.29v6.39h6.39V45.47z"/>
	</g>
</g>
<g>
	<line class="st2" x1="254.18" y1="49.77" x2="214.41" y2="49.77"/>
	<g>
		<path class="st3" d="M243.51,40.18c-0.23,0.46-0.12,1.08,0.24,1.38l10.08,8.21l-10.08,8.21c-0.36,0.3-0.47,0.91-0.24,1.38
			c0.23,0.46,0.72,0.6,1.08,0.31l11.11-9.05c0.23-0.18,0.36-0.5,0.36-0.84c0-0.34-0.14-0.66-0.36-0.84l-11.11-9.05
			c-0.13-0.11-0.28-0.16-0.42-0.16C243.91,39.72,243.66,39.88,243.51,40.18z"/>
	</g>
</g>
<g>
</g>
<g>
</g>
<g>
</g>
<g>
</g>
<g>
</g>
<g>
</g>
</svg>
