<?xml version="1.0" encoding="utf-8"?>
<!-- Generator: Adobe Illustrator 26.1.0, SVG Export Plug-In . SVG Version: 6.00 Build 0)  -->
<svg version="1.1" id="Layer_1" xmlns="http://www.w3.org/2000/svg" xmlns:xlink="http://www.w3.org/1999/xlink" x="0px" y="0px"
	 viewBox="0 0 285 100" style="enable-background:new 0 0 285 100;" xml:space="preserve">
<style type="text/css">
	.st0{fill:none;stroke:#231F20;stroke-width:0.5;stroke-miterlimit:10;}
	.st1{fill:#141717;}
	.st2{fill:none;stroke:#231F20;stroke-width:0.75;stroke-miterlimit:10;}
	.st3{fill:#231F20;}
</style>
<g>
	<path class="st0" d="M34.8,2.02l215.18,0c17.71,0,32.06,14.35,32.06,32.06v31.37c0,17.71-14.35,32.06-32.06,32.06l-215.18,0
		c-17.71,0-32.06-14.35-32.06-32.06l0-31.37C2.74,16.38,17.1,2.02,34.8,2.02z"/>
	<g>
		<g>
			<path class="st1" d="M86.07,35.58h7.07c5.09,0,8.45,2.19,8.45,6.68c0,4.49-3.43,6.72-8.52,6.72h-4.46v11.64h-2.55V35.58z
				 M88.61,46.83h4.32c3.96,0,6.12-1.59,6.12-4.56c0-3.08-2.26-4.49-6.12-4.49h-4.32V46.83z"/>
			<path class="st1" d="M106.3,44.07h2.3c0.07,0.88,0.14,2.12,0.14,2.83h0.07c0.92-1.91,2.97-3.25,5.31-3.25
				c0.6,0,1.1,0.04,1.59,0.18l-0.32,2.26c-0.28-0.11-1.06-0.21-1.7-0.21c-2.55,0-4.85,1.84-4.85,6.26v8.49h-2.41V47.71
				C106.44,46.83,106.4,45.2,106.3,44.07z"/>
			<path class="st1" d="M134.21,52.99h-13.72c0.07,3.32,2.65,6.01,6.05,6.01c2.48,0,4.39-1.38,5.31-2.87l1.8,1.42
				c-1.95,2.48-4.39,3.5-7.11,3.5c-4.92,0-8.56-3.71-8.56-8.7s3.64-8.7,8.35-8.7c5.2,0,7.92,3.68,7.92,8.21
				C134.24,52.17,134.24,52.56,134.21,52.99z M131.8,51.08c-0.14-3.11-2.05-5.41-5.48-5.41c-3.22,0-5.59,2.58-5.8,5.41H131.8z"/>
			<path class="st1" d="M146.2,60.62h-2.65l-6.76-16.55h2.69l5.38,14.01h0.07l5.41-14.01h2.58L146.2,60.62z"/>
			<path class="st1" d="M167.92,69.11h-2.41V44.07h2.41v2.86h0.11c1.38-2.16,3.86-3.29,6.23-3.29c5.16,0,8.56,3.82,8.56,8.7
				s-3.4,8.7-8.56,8.7c-2.37,0-4.85-1.17-6.23-3.22h-0.11V69.11z M174,45.66c-3.71,0-6.37,2.9-6.37,6.69c0,3.78,2.65,6.65,6.37,6.65
				c4,0,6.26-2.97,6.26-6.65S178,45.66,174,45.66z"/>
			<path class="st1" d="M198.41,49.94c0-2.87-1.56-4.28-4.42-4.28c-1.95,0-3.75,0.78-4.92,1.95l-1.34-1.59
				c1.34-1.34,3.68-2.37,6.51-2.37c3.57,0,6.44,1.98,6.44,6.01v7.25c0,1.27,0.11,2.79,0.28,3.71h-2.16
				c-0.14-0.81-0.25-1.8-0.25-2.69h-0.07c-1.52,2.19-3.36,3.11-6.01,3.11c-2.51,0-5.73-1.34-5.73-5.02c0-5.09,5.62-5.55,11.67-5.55
				V49.94z M197.7,52.35c-3.93,0-8.49,0.42-8.49,3.57c0,2.37,2.02,3.15,3.89,3.15c3.4,0,5.31-2.55,5.31-5.48v-1.24H197.7z"/>
			<path class="st1" d="M207.75,63.95c1.31,1.7,3.82,3.04,6.33,3.04c4.74,0,6.47-2.94,6.47-6.51v-3.11h-0.07
				c-1.27,2.05-3.86,3.25-6.26,3.25c-5.16,0-8.56-3.57-8.56-8.42c0-4.7,3.4-8.56,8.56-8.56c2.41,0,4.95,1.17,6.26,3.29h0.07v-2.86
				h2.41v16.41c0,3.61-1.66,8.63-8.98,8.63c-3.04,0-6.01-1.27-7.96-3.33L207.75,63.95z M214.47,58.57c3.71,0,6.37-2.62,6.37-6.44
				c0-3.47-2.65-6.47-6.37-6.47c-4,0-6.26,3.01-6.26,6.47C208.21,55.6,210.47,58.57,214.47,58.57z"/>
			<path class="st1" d="M244.25,52.99h-13.72c0.07,3.32,2.65,6.01,6.05,6.01c2.48,0,4.39-1.38,5.31-2.87l1.8,1.42
				c-1.95,2.48-4.39,3.5-7.11,3.5c-4.92,0-8.56-3.71-8.56-8.7s3.64-8.7,8.35-8.7c5.2,0,7.92,3.68,7.92,8.21
				C244.29,52.17,244.29,52.56,244.25,52.99z M241.85,51.08c-0.14-3.11-2.05-5.41-5.48-5.41c-3.22,0-5.59,2.58-5.8,5.41H241.85z"/>
		</g>
	</g>
	<g>
		<line class="st2" x1="30.6" y1="49.77" x2="70.38" y2="49.77"/>
		<g>
			<path class="st3" d="M41.28,59.35c0.23-0.46,0.12-1.08-0.24-1.38l-10.08-8.21l10.08-8.21c0.36-0.3,0.47-0.91,0.24-1.38
				c-0.23-0.46-0.72-0.6-1.08-0.31l-11.11,9.05c-0.23,0.18-0.36,0.5-0.36,0.84c0,0.34,0.14,0.66,0.36,0.84l11.11,9.05
				c0.13,0.11,0.28,0.16,0.42,0.16C40.88,59.82,41.13,59.65,41.28,59.35z"/>
		</g>
	</g>
</g>
<g>
</g>
<g>
</g>
<g>
</g>
<g>
</g>
<g>
</g>
<g>
</g>
</svg>
