<?xml version="1.0" encoding="utf-8"?>
<!-- Generator: Adobe Illustrator 26.1.0, SVG Export Plug-In . SVG Version: 6.00 Build 0)  -->
<svg version="1.1" id="Layer_1" xmlns="http://www.w3.org/2000/svg" xmlns:xlink="http://www.w3.org/1999/xlink" x="0px" y="0px"
	 viewBox="0 0 285 100" style="enable-background:new 0 0 285 100;" xml:space="preserve">
<style type="text/css">
	.st0{fill:none;stroke:#231F20;stroke-width:2;stroke-miterlimit:10;}
	.st1{fill:#141717;}
	.st2{fill:none;stroke:#231F20;stroke-width:0.75;stroke-miterlimit:10;}
	.st3{fill:#231F20;}
</style>
<path class="st0" d="M34.8,2.02l215.18,0c17.71,0,32.06,14.35,32.06,32.06v31.37c0,17.71-14.35,32.06-32.06,32.06l-215.18,0
	c-17.71,0-32.06-14.35-32.06-32.06l0-31.37C2.74,16.38,17.1,2.02,34.8,2.02z"/>
<g>
	<g>
		<path class="st1" d="M121.36,29.6h9.69c6.97,0,11.57,3,11.57,9.15c0,6.15-4.7,9.2-11.67,9.2h-6.1v15.93h-3.49V29.6z M124.85,45
			h5.91c5.42,0,8.38-2.18,8.38-6.25c0-4.21-3.1-6.15-8.38-6.15h-5.91V45z"/>
		<path class="st1" d="M149.06,41.22h3.15c0.1,1.21,0.19,2.91,0.19,3.88h0.1c1.26-2.62,4.07-4.46,7.26-4.46
			c0.82,0,1.5,0.05,2.18,0.24l-0.44,3.1c-0.39-0.15-1.45-0.29-2.33-0.29c-3.49,0-6.63,2.52-6.63,8.57v11.62h-3.29V46.21
			C149.25,45,149.21,42.77,149.06,41.22z"/>
		<path class="st1" d="M187.27,53.43h-18.79c0.1,4.55,3.63,8.23,8.28,8.23c3.39,0,6.01-1.89,7.26-3.92l2.47,1.94
			c-2.66,3.39-6,4.79-9.73,4.79c-6.73,0-11.72-5.09-11.72-11.91c0-6.83,4.99-11.91,11.43-11.91c7.12,0,10.85,5.04,10.85,11.24
			C187.32,52.31,187.32,52.85,187.27,53.43z M183.98,50.81c-0.19-4.26-2.81-7.41-7.51-7.41c-4.41,0-7.65,3.54-7.94,7.41H183.98z"/>
		<path class="st1" d="M203.69,63.89h-3.63l-9.25-22.67h3.68l7.36,19.18h0.1l7.41-19.18h3.54L203.69,63.89z"/>
	</g>
</g>
<g>
	<line class="st2" x1="30.6" y1="49.77" x2="70.38" y2="49.77"/>
	<g>
		<path class="st3" d="M41.28,59.35c0.23-0.46,0.12-1.08-0.24-1.38l-10.08-8.21l10.08-8.21c0.36-0.3,0.47-0.91,0.24-1.38
			c-0.23-0.46-0.72-0.6-1.08-0.31l-11.11,9.05c-0.23,0.18-0.36,0.5-0.36,0.84c0,0.34,0.14,0.66,0.36,0.84l11.11,9.05
			c0.13,0.11,0.28,0.16,0.42,0.16C40.88,59.82,41.13,59.65,41.28,59.35z"/>
	</g>
</g>
<g>
</g>
<g>
</g>
<g>
</g>
<g>
</g>
<g>
</g>
<g>
</g>
</svg>
