<?xml version="1.0" encoding="utf-8"?>
<!-- Generator: Adobe Illustrator 26.1.0, SVG Export Plug-In . SVG Version: 6.00 Build 0)  -->
<svg version="1.1" id="Layer_1" xmlns="http://www.w3.org/2000/svg" xmlns:xlink="http://www.w3.org/1999/xlink" x="0px" y="0px"
	 viewBox="0 0 1100 1200" style="enable-background:new 0 0 1100 1200;" xml:space="preserve">
<style type="text/css">
	.st0{fill:#141717;}
	.st1{fill:none;}
	.st2{fill:none;stroke:#010101;stroke-width:0.425;stroke-miterlimit:10;}
	.st3{fill:#F49670;}
	.st4{fill:#8A5147;}
	.st5{fill:#F0E0D6;}
	.st6{fill:#3C2623;}
	.st7{fill:#D3754E;}
	.st8{fill:#FFFFFF;}
	.st9{fill:#5C3731;}
	.st10{fill:#BCACA3;}
	.st11{fill:#4B302E;}
	.st12{fill:#B25636;}
	.st13{fill:#D2804E;}
	.st14{fill:#FEC358;}
	.st15{fill:#C5863B;}
	.st16{fill:#704945;}
	.st17{fill:#F5AA6E;}
	.st18{fill:#ECDBD2;}
	.st19{fill:#FFD78F;}
	.st20{fill:#F0EBE9;}
	.st21{fill:#FFD95B;stroke:#231F20;stroke-width:0.5;stroke-miterlimit:10;}
</style>
<g>
	<g>
		<g>
			<g>
				<path class="st0" d="M147.6,278.2h11.7v1.7h-13.9v-18.6h13.5v1.7h-11.3v6.4h10.6v1.7h-10.6V278.2z"/>
				<path class="st0" d="M165.4,267.6c0.1,0.7,0.1,1.6,0.1,2.1h0.1c0.8-1.4,2.9-2.4,4.9-2.4c3.7,0,5.5,2,5.5,5.1v7.5h-2.1v-6.8
					c0-2.6-0.9-4.3-3.9-4.3c-2.2,0-4.4,1.5-4.4,4.8v6.3h-2.1v-9.6c0-0.7,0-1.9-0.1-2.7H165.4z"/>
				<path class="st0" d="M187.9,269.1h-4.1v7.2c0,1.8,0.9,2.3,2.2,2.3c0.6,0,1.3-0.2,1.8-0.4l0.1,1.5c-0.7,0.2-1.5,0.4-2.5,0.4
					c-1.5,0-3.7-0.6-3.7-3.3v-7.7h-3v-1.5h3v-3.5h2.1v3.5h4.1V269.1z"/>
				<path class="st0" d="M204.3,274.2h-12c0.1,2.5,2.3,4.5,5.3,4.5c2.2,0,3.8-1,4.6-2.1l1.6,1c-1.7,1.8-3.8,2.6-6.2,2.6
					c-4.3,0-7.5-2.8-7.5-6.5c0-3.7,3.2-6.5,7.3-6.5c4.5,0,6.9,2.7,6.9,6.1C204.3,273.6,204.3,273.9,204.3,274.2z M202.2,272.8
					c-0.1-2.3-1.8-4-4.8-4c-2.8,0-4.9,1.9-5.1,4H202.2z"/>
				<path class="st0" d="M208.7,267.6h2c0.1,0.7,0.1,1.6,0.1,2.1h0.1c0.8-1.4,2.6-2.4,4.6-2.4c0.5,0,1,0,1.4,0.1l-0.3,1.7
					c-0.2-0.1-0.9-0.2-1.5-0.2c-2.2,0-4.2,1.4-4.2,4.6v6.3h-2.1v-9.6C208.8,269.6,208.8,268.4,208.7,267.6z"/>
				<path class="st0" d="M235.2,279.9H233v-8l-8.2-10.6h2.8l6.6,9l6.6-9h2.6l-8.2,10.6V279.9z"/>
				<path class="st0" d="M252.8,280.2c-4.5,0-7.7-2.8-7.7-6.5c0-3.7,3.2-6.5,7.7-6.5c4.5,0,7.7,2.8,7.7,6.5
					C260.5,277.4,257.3,280.2,252.8,280.2z M252.8,268.8c-3.3,0-5.5,2.2-5.5,5c0,2.8,2.1,4.9,5.5,4.9c3.4,0,5.5-2.2,5.5-4.9
					C258.3,271,256.1,268.8,252.8,268.8z"/>
				<path class="st0" d="M275.5,279.9c-0.1-0.7-0.1-1.6-0.1-2.1h-0.1c-0.8,1.4-2.9,2.4-4.9,2.4c-3.7,0-5.5-2-5.5-5.1v-7.5h2.1v6.8
					c0,2.6,0.9,4.3,3.9,4.3c2.2,0,4.4-1.5,4.4-4.8v-6.3h2.1v9.6c0,0.7,0,1.9,0.1,2.7H275.5z"/>
				<path class="st0" d="M282.8,267.6h2c0.1,0.7,0.1,1.6,0.1,2.1h0.1c0.8-1.4,2.6-2.4,4.6-2.4c0.5,0,1,0,1.4,0.1l-0.3,1.7
					c-0.2-0.1-0.9-0.2-1.5-0.2c-2.2,0-4.2,1.4-4.2,4.6v6.3h-2.1v-9.6C282.9,269.6,282.9,268.4,282.8,267.6z"/>
				<path class="st0" d="M317.3,277.1L317.3,277.1l0.1-15.8h2.2v18.6h-2.8l-12.7-16H304v16h-2.2v-18.6h2.8L317.3,277.1z"/>
				<path class="st0" d="M334.3,272c0-2.1-1.4-3.2-3.9-3.2c-1.7,0-3.3,0.6-4.3,1.4L325,269c1.2-1,3.2-1.8,5.7-1.8
					c3.1,0,5.6,1.5,5.6,4.5v5.4c0,0.9,0.1,2.1,0.2,2.8h-1.9c-0.1-0.6-0.2-1.3-0.2-2h-0.1c-1.3,1.6-2.9,2.3-5.2,2.3c-2.2,0-5-1-5-3.7
					c0-3.8,4.9-4.1,10.2-4.1V272z M333.7,273.7c-3.4,0-7.4,0.3-7.4,2.7c0,1.8,1.8,2.3,3.4,2.3c3,0,4.6-1.9,4.6-4.1v-0.9H333.7z"/>
				<path class="st0" d="M348.5,267.3c1.6,0,3.5,0.5,4.4,2.6c1-1.7,2.7-2.6,5.1-2.6c3.7,0,5.5,2,5.5,5.1v7.5h-2.1v-6.8
					c0-2.6-1-4.3-3.7-4.3c-3,0-4.1,2.3-4.1,4.6v6.5h-2.1v-7.2c0-2.4-0.7-3.9-3.5-3.9c-2,0-4.2,1.5-4.2,4.8v6.3h-2.1v-9.6
					c0-0.7,0-1.9-0.1-2.7h2c0.1,0.7,0.1,1.6,0.1,2.1h0.1C344.6,268.3,346.4,267.3,348.5,267.3z"/>
				<path class="st0" d="M382,274.2h-12c0.1,2.5,2.3,4.5,5.3,4.5c2.2,0,3.8-1,4.6-2.1l1.6,1c-1.7,1.8-3.8,2.6-6.2,2.6
					c-4.3,0-7.5-2.8-7.5-6.5c0-3.7,3.2-6.5,7.3-6.5c4.5,0,6.9,2.7,6.9,6.1C382,273.6,382,273.9,382,274.2z M379.9,272.8
					c-0.1-2.3-1.8-4-4.8-4c-2.8,0-4.9,1.9-5.1,4H379.9z"/>
			</g>
		</g>
	</g>
	<rect x="-474" y="144" class="st1" width="1999.1" height="1124.5"/>
	<path class="st2" d="M-1.8,1057.2c17.2-15.9,33.9-30.5,53.6-46.1c9.4-6.2,17.7-12.5,27.1-18.7c35.4-20.8,69.8-36.4,109.3-47.9
		c6.2-2.1,13.5-2.1,19.8-4.2c38.5-13.5,77-17.7,116.6-21.9c79.1-9.4,156.2-9.4,235.3-14.6c26-2.1,51-5.2,77-8.3
		c26-4.2,50-8.3,75-15.6c21.9-6.2,43.7-11.5,65.6-20.8c31.2-13.5,60.4-29.2,86.4-51c26-22.9,46.9-48.9,59.3-81.2
		c14.6-39.6,19.8-82.3,18.7-123.9c-1-43.7-6.2-86.4-5.2-130.1c0-18.7-1-37.5,0-56.2c7.3-77,26-151,59.3-221.8
		c15.6-33.3,33.3-63.5,54.1-95.8c16.7-25,34.4-43.7,52.1-67.7c2.1-3.1,5.2-5.2,8.9-8.3"/>
	<path class="st2" d="M-1.9,1121.3c63.1-59.2,138.1-101.9,224.5-122.7c1,0,3.1-2.1,4.2-2.1c148.9-34.4,292.6-21.9,440.4-32.3
		c52.1-4.2,103.1-9.4,152-27.1c9.4-4.2,18.7-7.3,28.1-10.4c56.2-23.9,103.1-66.6,127-123.9c13.5-32.3,19.8-66.6,20.8-102
		c1-64.6-3.1-130.1-1-194.7c1-5.2,1-9.4,1-14.6c1-20.8,5.2-40.6,8.3-62.5c8.3-43.7,19.8-84.3,37.5-123.9c1-2.1,0-3.1,1-5.2
		c7.3-16.7,14.6-33.3,22.9-50c8.3-14.6,15.6-29.2,23.9-43.7c6.2-8.3,11.5-16.7,16.7-26c2.1-3.1,4.2-5.2,5.8-8.2"/>
	<path class="st2" d="M-1.7,1199.1c9.8-12.1,20.2-24.6,31.7-36c5.2-4.2,8.3-9.4,13.5-13.5c28.1-25,54.1-46.9,86.4-67.7
		c15.6-9.4,30.2-16.7,45.8-26c12.5-7.3,26-11.5,39.6-17.7c5.2-1,9.4-3.1,13.5-5.2c2.1-1,3.1,0,5.2-1c33.3-13.5,67.7-20.8,104.1-28.1
		c23.9-4.2,45.8-6.2,69.8-8.3c27.1-2.1,54.1-2.1,81.2-3.1c133.3-1,271.8,11.5,398.8-41.6c2.1-1,3.1,0,5.2-1
		c37.5-16.7,69.8-38.5,96.8-70.8c28.1-33.3,43.7-71.8,54.1-113.5c0-1,2.1-3.1,2.1-4.2c8.3-37.5,14.6-71.8,21.9-109.3
		c9.4-55.2,21.9-106.2,43.2-157.4"/>
	<rect x="-474" y="144" class="st1" width="1999.1" height="1124.5"/>
	<rect x="-474" y="144" class="st1" width="1999.1" height="1124.5"/>
	<rect x="-474" y="144" class="st1" width="1999.1" height="1124.5"/>
	<rect x="-474" y="144" class="st1" width="1999.1" height="1124.5"/>
	<rect x="-474" y="144" class="st1" width="1999.1" height="1124.5"/>
	<g>
		<path class="st3" d="M648.8,775.4c-0.8-4.2-2.5-12.4-2.9-16.2c-0.1-0.8-0.2-1.3-0.2-1.6c0,0,0.1,0,0.1,0c0.1,0,0.1-0.2-0.1-0.2
			c0,0-0.1,0-0.1,0c-0.1-0.3-0.2-0.7-0.3-1c0-0.1-0.2-0.1-0.2,0.1c0.1,0.3,0.2,0.7,0.3,1c-3.1,0.8-6.3,0.8-9.4,0.6
			c-3.3-0.2-6.6-0.6-9.9-0.6c-1.9,0-3.9,0-5.8,0.2c-0.1,0-0.1,0.1-0.1,0.1c0.3,1.7,0.6,3.3,0.9,5c0.1,0.7,0.3,1.5,0.5,2.2
			c0,0-0.1,0.1-0.1,0.1c1,4.9,2.2,9.7,3.7,14.4c0.7,2.3,1.5,4.6,2.5,6.8c1,2.1,2.2,4.1,3.5,6.1c2.8,4,19.3,19.7,22.5,23.8
			c0.1,0.1,0.2,0.2,0.3,0.3h21.4C666.2,802,649.4,776.6,648.8,775.4z"/>
		<path class="st3" d="M526,779.3c0-0.4,0-0.8-0.1-1.2c0.3-6.4-0.3-12.9-1.6-19.2c-0.2-0.8-0.3-1.6-0.5-2.4
			c-0.1-0.5-0.2-0.9-0.7-1.1c-0.5-0.2-1.1,0.1-1.6,0.2c-0.8,0.2-1.6,0.4-2.4,0.6c-3.3,0.8-6.6,1.5-9.9,2.1
			c-3.8,0.7-7.6,1.2-11.4,1.6c0-0.2,0-0.4,0-0.6c0-0.1-0.2-0.1-0.2,0c0.1,1.5,0.1,3,0.2,4.4c0,0,0,0.1,0,0.1c0,3.5-0.1,6.9-0.1,10.4
			c-0.1,4.6-0.2,9.1-0.1,13.7c0.1,4.5,0.8,9,1.7,13.4c0.9,4.5,1.8,9,2.7,13.5c0.1,0.4,0.2,0.9,0.3,1.3h23.1
			c0.3-4.3,0.6-8.6,0.8-12.9C526.4,795.4,526.5,787.4,526,779.3z"/>
		<path class="st4" d="M609.2,561.6L609.2,561.6c-0.8-1.7-2-3.3-3.4-4.6c-2.7-2.6-6.3-4.2-9.9-5.1c-0.8-0.2-1.6-0.4-2.5-0.5
			c-3.8-1.4-7.7-2.5-11.7-3.1c-3.2-0.4-6.5-0.4-9.7,0.2c0,0-0.1,0-0.1,0c-5,0.8-10.4,2.4-13.9,6.3c-1.9,2.1-2.9,4.8-4,7.4
			c-0.4,1-0.9,1.9-1.4,2.8c-0.9,1.6-1.9,3.2-2.7,4.9c-1,1.9-1.5,4-1.4,6.1c0,0.2,0,0.5,0,0.7v0c0,0.3,0.1,0.6,0.1,1
			c0.2,1.4,0.7,2.7,1.4,3.9c0.9,1.6,1.3,3.1,1.3,4.9c0,1.5-0.3,3-0.1,4.5c0.1,0.5,0.2,1,0.4,1.5c0.2,0.6,0.5,1.2,0.9,1.8
			c1.4,2.3,3.5,4.2,4.5,6.7c1.1,2.8,1,5.8,2.2,8.6c0.5,1.3,1.4,2.3,2.4,3.1c0.7,0.6,1.4,1.1,2,1.7c0.5,0.5,0.9,1,1.3,1.6
			c0.1,0.1,0.2,0.1,0.3,0c0.1,0,0.1,0,0.1-0.1c0.3-1.8,0.6-3.6,0.9-5.4c0.2-1.3,0.5-2.5,0.7-3.8c0-0.1,0-0.1,0-0.2c0,0,0-0.1,0-0.1
			c0-0.1,0-0.1,0-0.2c0.5-2.3,1-4.6,1.6-6.9l0.1-0.5c0,0,0,0,0,0c0-0.1,0-0.1,0.1-0.2c0.5-2,1-4,1.6-5.9c0.1-0.3,0.2-0.7,0.3-1
			c0-0.1,0.1-0.3,0.1-0.4c0,0,0-0.1,0-0.1c0-0.1,0-0.1,0.1-0.2c0-0.1,0.1-0.3,0.1-0.4c0,0,0,0,0,0c0.3-0.8,0.5-1.7,0.8-2.5
			c0-0.1,0.1-0.3,0.1-0.4c0,0,0,0,0,0c0.2-0.7,0.4-1.3,0.7-2c0.4-1.1,0.8-2.1,1.3-3.1c2-4.5,5.1-8.2,9.1-11.1
			c1.8-1.3,3.7-2.5,5.7-3.5c0,0,0,0,0,0c2.2-1.1,4.4-2,6.7-2.8c2.2-0.8,4.4-1.5,6.6-2c0.1,0,0.1,0,0.2,0c0.3-0.1,0.7-0.1,1-0.2
			c0,0,0,0,0,0c0.1,0,0.2,0,0.3-0.1c0.1,0,0.1,0,0.2,0c1.4-0.2,2.8-0.1,4.2,0.3c0.4,0.1,0.9,0.3,1.3,0.3c0.1-0.4,0.3-0.7,0.5-1
			C609.5,562.2,609.3,561.9,609.2,561.6z"/>
		<path class="st5" d="M661,755.6c-0.7-1.3-1.3-2.7-1.8-4.1c-1.9-5.7-2.2-22.8-3.8-28.6c-0.9-3.1-2.3-6-3.5-9c-1.3-3-2.3-6-3-9.1
			c-2.7-11.6-2-24.4-8.6-34.8c-3.1-4.9-7.5-8.9-12.1-12.3c-5.3-3.9-13.5-7-19.4-9.9c-0.7-0.3-1.4-0.7-2.1-1c-0.1,0-0.1-0.1-0.2-0.1
			c-2-1-4-1.9-6-2.8c-0.2-0.1-0.4-0.2-0.7-0.3c-0.8-0.4-1.6-0.7-2.5-1.1c-0.3,0.3-0.7,0.5-1.2,0.6c-1.4,0.3-2.8,0.5-4.3,0.6
			c-2.2,0.2-4.5,0.3-6.8,0.3h0c-0.3,0-0.7,0-1,0h0c-2.2,0.1-4.3,0.1-6.4,0.3c-1.3,0.1-2.6,0.2-3.9,0.4c0,0,0,0,0,0
			c-0.5,0-1,0.1-1.4,0.1h0c-3.2,0.3-6.4,0.6-9.5,0.9c-1.3,0.1-2.6,0.2-3.9,0.3c-0.9,0.1-1.8-0.4-2.3-1.1c-0.7,0.3-1.5,0.7-2.2,1
			c-2,0.9-3.9,1.8-5.9,2.7c-0.1,0-0.1,0.1-0.2,0.1c-3.4,1.6-6.7,3.1-10.1,4.7c-7.9,3.6-16,7.3-22.6,13.1c-3.2,2.9-5.9,6.3-7.8,10.1
			c-2,4.1-3.2,8.5-4.2,12.9c-1,4.5-1.8,9.1-2.9,13.7c-1.3,4.9-3.2,9.7-4.9,14.5c-3.4,9.8-4.9,31.9-4.4,42.2c0.1,1.3,0.2,2.5,0.3,3.8
			c0,0,0,0.1,0.1,0.1c1.3,0.4,2.6,0.4,3.9,0.2c0.7-0.1,1.5-0.3,2.2-0.5c1.9-0.5,3.9-1.1,5.9-1.1c2.2,0.1,9.3,0.8,11.5,1
			c1.7,0.2,3.5,0.1,5.2-0.2c0,0.4,0,0.7,0,1.1c0.1,2.9,0.2,5.8,0.5,8.7c0.3,2.8,0.8,5.5,1.4,8.2c0,0.1,0,0.1,0,0.2
			c0.6,2.8,1.3,5.6,1.4,8.5c0.1,2.9-0.4,5.8-0.8,8.7c-0.9,5.7-0.9,11.4-0.9,17.2c0,0,0,0.1,0,0.1c0,0.1,0,0.2,0,0.3h106.7
			c0.2-7,0.5-14,0.7-20.9c0.1-4-0.5-21.7-0.8-30.9c0,0,0,0,0,0c0-0.8,0-1.5-0.1-2.1c-0.1-1.8-0.1-3-0.1-3.3
			c5.6,0.2,17.1-0.1,22.7-0.2c0.7,0,1.4,0,2.2-0.1c1.1,0,2.2-0.1,3.3-0.1h0c0.9,0,1.7-0.1,2.6-0.1c0.5,0,1.1,0,1.6-0.2
			C662.3,757.9,661.4,756.5,661,755.6z"/>
		<path class="st3" d="M612.6,594.3c-0.1-2.7-0.2-5.5-0.3-8.1c0-0.1,0-0.3,0-0.4c0-0.1,0-0.2,0-0.3c-0.1-1.7-0.1-3.4-0.2-4.9
			c-0.3-5.9-0.6-10.7-1-12.6c-0.1-0.4-0.2-0.7-0.2-0.8c-1.5-2.1-3.9-3.1-6.3-3.7c-0.3-0.1-0.7-0.2-1-0.2c-0.1,0-0.1,0-0.2,0
			c-0.1,0-0.2,0-0.3-0.1c-0.4-0.1-0.7-0.1-1.1-0.2c-0.1,0-0.1,0-0.2,0c-5-0.7-9.9,0.1-14.6,1.8c-0.5,0.2-0.9,0.3-1.3,0.5h0
			c-0.1,0-0.2,0.1-0.3,0.1c-3.9,1.6-7.2,3.6-9.4,6.7c0,0,0,0,0,0c-0.1,0.2-0.3,0.4-0.4,0.6c-0.3,0.5-0.6,1.1-0.9,1.7
			c-0.1,0.1-0.1,0.2-0.2,0.3c-0.5,1.2-0.9,2.4-1.2,3.9c0,0.1,0,0.2-0.1,0.3c0,0,0,0,0,0c-0.1,0.3-0.1,0.6-0.2,0.9c0,0,0,0,0,0
			c-0.5,1.7-1.1,3-1.9,4.4c-0.5,1-1.1,2-1.6,3c-0.1,0.1-0.1,0.2-0.2,0.4c-0.1,0.3-0.3,0.5-0.4,0.8c-0.2,0.4-0.4,0.9-0.5,1.3
			c-0.1,0.2-0.1,0.4-0.2,0.6c-0.1,0.5-0.3,0.9-0.4,1.4c0,0,0,0.1,0,0.1c-0.4,2-0.7,4.2-0.2,6.2c0.1,0.2,0.1,0.5,0.2,0.7
			c0.1,0.3,0.2,0.6,0.4,0.9c0.1,0.2,0.2,0.4,0.3,0.6c0.2,0.3,0.3,2.8,0.6,5.8c0,0,0,0,0,0c0,0.1,0,0.1,0,0.2c0,0,0,0.1,0,0.1
			c0,0.1,0,0.1,0,0.2c0.4,3.5,1.2,7.6,2.6,9.9c0.3,0.4,0.5,0.7,0.8,1c5.8,5.5,10.5,8.7,14.1,10.5c2,1,3.7,1.6,5.2,1.9
			c2.7,0.6,4.6,0.5,6.8,0.3c4.7-0.3,7-5.6,9.3-12.5c0.2-0.7,2.3-0.6,2.7-1.2c0,0,0-0.1,0-0.1c0.6-4.7,1.1-8.7,1.4-12.5
			c0-0.1,0-0.3,0-0.4C612.6,600.5,612.7,597.6,612.6,594.3z"/>
		<path class="st3" d="M592.5,624.4c-0.1,1-0.1,2.1-0.2,3.2c0,0.5,0,1-0.1,1.5c0,0.3,0,0.6,0,0.9c0,0.9-0.1,1.9-0.1,2.8l0,0.8
			c-0.2,4.7-0.4,9.4-0.5,13.4c-2.5,0.8-9.6,5.7-12.2,6c-6.9,0.9-9.3-3.6-16.1-4.4c-0.2,0-0.4-0.1-0.6-0.1c-0.4-7.5-0.1-15,0.1-22.5
			c0.1-3.4,0.3-8.3,0.6-13.2c0.2-3.2,0.4-6.4,0.5-9.2c0.3-4.7,0.6-8.1,0.7-8.1c0.1-0.9,0.4-1.9,0.9-2.5c0.7-0.8,2.4-1.4,3.4-1.2
			c1.2,0.2,1.4,1.9,1.4,2.8c0.1,0.9-0.1,1.8-0.5,2.5c8.1,0.4,23.4,0.8,23.6,4.2C593.6,603.4,593,613.3,592.5,624.4z"/>
		<path class="st6" d="M591.1,596.6c0,1.9-0.7,3.5-1.6,3.5c-0.9,0-1.7-1.6-1.8-3.5c0-1.9,0.7-3.5,1.6-3.5
			C590.3,593.1,591,594.7,591.1,596.6z"/>
		<path class="st6" d="M610.4,593.1c0,1.9-0.8,3.5-1.7,3.5s-1.7-1.6-1.6-3.6c0-1.9,0.8-3.5,1.7-3.5S610.4,591.1,610.4,593.1z"/>
		<path class="st7" d="M569.8,605.6c0,0-0.1,0-0.1,0c-0.1,0.1-0.1,0.2-0.2,0.3c0,0,0,0,0,0c0,0.1-0.1,0.1-0.2,0.2
			c-0.3,0.3-0.6,0.5-0.9,0.6c0,0,0,0,0,0c-0.3,0.1-0.8,0.1-0.8,0.1c-0.3,0-2.3-1-2.3-1.2c-0.1-0.3-0.2-0.5-0.3-0.8
			c-0.2-0.4-0.4-0.9-0.8-1.2c-0.1,0-0.1-0.1-0.2-0.1v0h0c0,0.3,0,0.5-0.1,0.8v0c0,0,0,0,0,0c0,0.1,0,0.2,0,0.2c0,0.2,0,0.3,0,0.5
			c0,0.4-0.1,0.9-0.1,1.4c0,0.3,0,0.6-0.1,0.9c0,0,0,0,0,0.1c0,0.2,0,0.5,0,0.7c0,0.2,0,0.5,0,0.7c0,0.1,0,0.2,0,0.3
			c0,0.4,0,0.8-0.1,1.2c0,0.8-0.1,1.6-0.1,2.4c0,0,0-0.1,0-0.1c0,0,0.1,0,0.1,0c0.1-0.1,0.1-0.1,0.1-0.3c0,0,0,0,0,0
			c0,0,0-0.1,0-0.1c0.3-0.5,0.9-0.8,1.4-1c0.3-0.1,0.6-0.3,0.9-0.4c0.4-0.2,0.8-0.5,1.1-0.9c0.5-0.8,0.3-1.9,1.2-2.4
			c0.5-0.2,0.8-0.5,1.1-0.9c0.1-0.1,0.1-0.2,0.2-0.3c0.1-0.1,0.1-0.2,0.2-0.3c0-0.1,0.1-0.1,0.1-0.2
			C569.9,605.7,569.9,605.7,569.8,605.6z"/>
		<path class="st4" d="M562.7,604c0.1,0.2,0.1,0.5,0.2,0.7c0.1,0.4,0.1,1-0.1,1.6c-0.7-2.2-1.3-4.4-1.9-6.6c-0.3-2.5-1-4.9-2.2-7.2
			c-0.2-0.3-0.4-0.6-0.7-0.8c-0.2-1-0.4-1.9-0.6-2.9c0.6-1.8,1.5-3.6,2.6-5.1c1.9-2.7,3.6-3.8,6.5-4.8c3.2-1.2,5.7-6.7,9.1-6.2
			c-4.8,9.8-2.5,16.8-4.1,17.9c-0.3,0.2-1.1,0.4-1.5,0.3c-0.1-0.1-0.3-0.1-0.4-0.2c-0.3-0.1-0.6-0.2-0.9-0.2
			c-1.4-0.2-2.3,0.2-3.3,1.3c-1.3,1.4-2.6,5.4-2.8,8.2C562.7,601.4,562.8,602.5,562.7,604z"/>
		<path class="st7" d="M601,619.1c-1.1,0.5-2.4,0.5-3.5,0.1c-0.1,0-0.2,0.1-0.1,0.2c1.2,0.4,2.5,0.4,3.7-0.1
			C601.2,619.3,601.1,619.1,601,619.1z"/>
		<path class="st3" d="M570.6,591.4C570.6,591.4,570.6,591.4,570.6,591.4C570.6,591.4,570.6,591.4,570.6,591.4
			c0.6,0.6,0.9,1.1,1.2,1.7c0.1,0.1,0.2,0,0.2-0.1c-0.3-0.7-0.8-1.3-1.3-1.8c-0.1-0.1-0.2-0.2-0.3-0.3c0,0-0.1-0.1-0.1-0.1
			c-0.5-0.5-1.1-0.8-1.7-1.1c-1.3-0.7-2.8-0.9-4.2-0.7c-3.4,0.6-4.1,4.8-3.7,7.6c0.3,1.8,1,3.5,1.7,5.2c0.1,0.3,0.2,0.5,0.4,0.8
			c0.2,0.4,0.5,0.8,0.7,1.2h0c0.1,0.2,0.3,0.4,0.4,0.5l0,0c0.1,0.1,0.1,0.1,0.2,0.2c0,0,0,0,0,0c0.4,0.4,0.8,0.7,1.1,1
			c0.5,0.4,1.1,0.7,1.6,0.8c0.5,0.2,0.9,0.2,1.3,0.2c0.1,0,0.2,0,0.3,0c0.2,0,0.4-0.1,0.6-0.1c0,0,0,0,0,0c0,0,0,0,0,0
			c0.1-0.1,0.2-0.1,0.4-0.2c0.1,0,0.2-0.1,0.2-0.1c1-0.6,1.5-1.3,1.9-2.5c0.5-1.8,0.6-3.9,0.4-5.8c0-0.1,0-0.2,0-0.3
			c0-0.2,0-0.3,0-0.5c-0.1-0.5-0.1-1-0.2-1.5c-0.1-0.3-0.2-0.7-0.3-1c-0.3-0.9-0.8-1.8-0.8-2.7C570.5,591.8,570.5,591.6,570.6,591.4
			C570.6,591.4,570.6,591.4,570.6,591.4z"/>
		<path class="st7" d="M569.1,599.1c-1.5-0.1-1.6-1.8-1.6-2.9c0-0.9,0.1-1.8-0.4-2.6c-0.9-1.3-3-1.1-3.2,0.5c0,0.1,0.2,0.1,0.2,0
			c0.2-1.3,1.8-1.6,2.6-0.7c0.6,0.7,0.6,1.8,0.6,2.6c0,1.3,0.2,3.1,1.8,3.2C569.3,599.3,569.3,599.1,569.1,599.1z"/>
		<path class="st7" d="M596.2,605.3c1.9,0,4,0.6,5.9,0c0.8-0.3,1.6-0.7,2.1-1.5c0.6-0.9,0.5-2,0.3-3c-0.2-1-0.6-1.9-0.9-2.8l-1-3
			c-0.7-2-1.4-4-2-6c0-0.1,0.2-0.2,0.2-0.1c1.2,3.5,2.4,6.9,3.5,10.4c0.4,1.3,0.9,2.8,0.3,4.2c-0.5,1.1-1.6,1.7-2.8,2
			c-1.8,0.5-3.7-0.1-5.6-0.1C596.1,605.5,596.1,605.3,596.2,605.3z"/>
		<path class="st4" d="M610.9,566.6c0-0.2,0-0.5,0-0.7c-0.2-0.7-0.5-1.4-0.7-2.1c-0.1-0.4-0.3-0.7-0.4-1.1c-0.1-0.2-0.3-0.6-0.3-0.7
			c-0.1-0.2-0.2-0.3-0.2-0.5c-0.2-0.2-0.4-0.5-0.6-0.7c-0.8-0.4-1.6-0.8-2.4-1.1c-3.3-1.5-6.7-2.6-10.3-3.1c-3.6-0.5-7.5-0.4-10.9,1
			c-1.6,0.6-3.1,1.6-4.4,2.8c-1.4,1.2-2.7,2.5-3.9,3.8c-2.3,2.5-4.3,5.8-3.3,9.2c0,0.1,1.3,1.3,1.3,1.2c1-5.2,9.8-6.1,11.2-6.4
			c1.4-0.2,2.9-0.1,4.3,0.1c2.4,0.3,4.9,0.7,7.2-0.3c2.3-1,4.1-1.8,6.5-2.3c2.6-0.5,4.9-0.2,6.6,1.6c0,0,0.4,0.5,0.6,0.6
			c0.1,0.1,0.2,0,0.1-0.1C611.1,567.7,610.9,566.8,610.9,566.6z"/>
		<path class="st3" d="M599.6,643.7c-0.8-0.4-1.6-0.7-2.5-1.1c-1.8-0.8-3.6-1.6-5.4-2.3c-0.4-0.1-0.7-0.3-1.1-0.4
			c-3.1-1.1-6.2-1.9-9.5-2.1c-3.4-0.1-6.8,0.3-10.1,1c-1.7,0.3-3.3,0.7-5,1.1c-0.1,0-0.1,0.2,0.1,0.2c0.5-0.1,1.1-0.2,1.6-0.4
			c0,0,0.1,0,0.1,0.1c-1.8,0.8-3.5,1.6-5.3,2.4c-2,0.9-4.1,1.9-6.1,2.8c-0.7,0.3-1.5,0.7-2.2,1c0.5,1.4,1.4,2.6,2.2,3.8
			c1.2,1.7,2.6,3.3,4.2,4.7c3.1,2.8,6.8,4.9,10.8,6c8.5,2.3,18,0,23.9-6.7c2.5-2.8,4.2-6.2,5-9.9C600,643.9,599.8,643.8,599.6,643.7
			z"/>
		<path class="st4" d="M557,573.1c-0.8-1.6-2-3-2.6-4.7c-0.2-0.5-0.3-1.1-0.3-1.7c0,0,0.1,0.1,0.1,0.1c0.1,0.1,0.2,0,0.1-0.1
			c-0.1-0.1-0.2-0.2-0.2-0.2c0-1,0.3-1.9,1.2-2.6c0.1-0.1,0-0.3-0.1-0.2c-0.9,0.7-1.2,1.6-1.3,2.5c-0.4-0.4-0.9-0.7-1.3-1
			c-2.2-1.4-5-1.8-7.5-1.3c-3.5,0.7-6.3,3.4-7.8,6.7c-0.7,1.7-1.1,3.5-1.1,5.3c0,2.2,0.3,4.6-0.7,6.6c-0.8,1.7-2.4,2.8-4,3.8
			c-1.6,1-3.1,1.8-4.4,3.1c-3,2.9-4.6,7.1-4.3,11.3c0,0.1,0.1,0.1,0.1,0.1c2.8,1.7,6.4,2.1,9.5,1.5c3.2-0.6,7.1-3.6,10.3-1.3
			c0.1,0.1,0.2,0,0.1-0.1c-0.3-1.5,0-3.1,0.9-4.4c0.9-1.3,2.2-2.1,3.8-2.5c1.3-0.4,2.7-0.6,4-1.2c0,0,0,0,0,0c1.2-0.6,2-1.7,2.3-3
			c0.3-1.5,0.1-3,0.2-4.4c0-1.6,0.4-3,1.3-4.4c0.8-1.2,1.7-2.3,2.1-3.7C557.8,575.8,557.6,574.4,557,573.1z"/>
		<path class="st4" d="M593.4,586c-1.3-0.5-2.8-0.8-4.2-1c-1.3-0.2-2.7-0.1-4,0.3c-2.8,0.7-5.3,2.5-7.2,4.7c0,0,0,0,0,0
			c-0.1,0.1-0.1,0.3,0,0.4c0,0,0,0,0,0.1c0.3,0.4,0.9,0.5,1.3,0.6c0.1,0,0.1,0,0.2,0c0.2,0,0.5,0,0.9-0.1c0.8-0.1,2.1-0.3,3.4-0.5
			c3.6-0.5,8.1-1.3,8.6-1.2c0.4,0,0.9,0,1.4-0.1c0.2,0,0.4-0.1,0.6-0.2c0.5-0.2,0.8-0.6,0.9-1.1C595.5,586.9,594.2,586.3,593.4,586z
			"/>
		<path class="st4" d="M612.1,580.6c-0.7,0.1-1.4,0.3-2.1,0.6c-1.6,0.6-3.2,1.3-4.6,2.3c-0.8,0.5-2.2,1.5-1.7,2.7
			c0.6,1.4,2.6,1.1,3.7,0.7c0.7-0.2,3.2-0.9,4.9-1.3C612.2,583.8,612.2,582.1,612.1,580.6z"/>
		<path class="st8" d="M603.3,612.4c-3.3,1.1-6.8,1.6-10.3,1.3c-0.3,0-0.5,0-0.8-0.1c-0.1,0-0.1,0.1-0.1,0.1
			c-0.1-0.1-0.2-0.1-0.3-0.2c-0.1,0-0.2,0-0.2,0.1c0,0,0,0.1,0,0.1c0.5,0.3,0.9,0.6,1.4,0.9c1.6,1,3.4,1.9,5.5,1.8
			c1.4-0.1,2.4-0.1,3.4-0.7c0.8-0.5,1.5-1.7,1.7-2.7c0-0.2,0.1-0.3,0.1-0.4C603.8,612.4,603.4,612.3,603.3,612.4z"/>
		<path class="st7" d="M603.7,610.6c-1.2-0.2-2.2,0.6-2.8,1.5c-0.1-0.5-0.5-0.9-1.1-1c-1-0.3-2,0.2-2.7,0.8c-1.3,1.1-3,1.4-4.1,1.5
			c-0.8,0.1-1.3,0-1.4,0c-0.1,0-0.1,0-0.1,0.1c0,0,0,0.1,0.1,0.1c0.5,0.1,0.9,0.2,1.3,0.3c2.6,0.5,4.5,0.7,7.6,0.2
			c1-0.2,2.3-0.5,3.1-1.3c0.2-0.2,0.4-0.5,0.5-0.8C604.6,611,604.2,610.7,603.7,610.6z"/>
		<path class="st9" d="M551.7,568.2c0-0.1-0.2-0.2-0.2-0.1c-1,3.1-2.9,5.9-3.4,9.2c-0.5,3,0.5,6,2.8,8c0.1,0.1,0.2-0.1,0.1-0.1
			c-2.3-2.2-3.3-5.4-2.6-8.5C549.1,573.7,550.8,571.1,551.7,568.2z"/>
		<path class="st9" d="M541,589.3c-1.3,1-2.7,2.1-3.5,3.7c-0.6,1.3-0.8,2.9,0.1,4.2c0.1,0.1,0.2,0,0.2-0.1c-0.9-1.3-0.6-3.1,0.2-4.4
			c0.8-1.3,2-2.3,3.2-3.2C541.2,589.3,541.1,589.2,541,589.3z"/>
		<path class="st9" d="M534.2,599.1c-1.7-1.1-0.8-3.3-0.1-4.7c0.1-0.1-0.1-0.2-0.2-0.1c-0.7,1.5-1.6,3.8,0.2,4.9
			C534.2,599.4,534.3,599.2,534.2,599.1z"/>
		<path class="st9" d="M565.9,582.5c-1.6-0.5-3.4-0.4-4.9,0.4c-0.1,0.1,0,0.2,0.1,0.2c1.5-0.8,3.2-0.9,4.7-0.4
			C566,582.8,566,582.6,565.9,582.5z"/>
		<path class="st9" d="M601.5,560.8c-0.5-1.6-1.4-3-2.7-4.2c-0.1-0.1-0.2,0.1-0.1,0.1c1.2,1.1,2,2.4,2.6,3.9c0.5,1.5,0.8,3.4,0,4.9
			c-0.1,0.1,0.1,0.2,0.2,0.1C602.3,564.2,602,562.3,601.5,560.8z"/>
		<path class="st9" d="M603.4,560c0-0.1-0.2-0.1-0.2,0.1c0.4,1.1,0.4,2.3,0,3.4c0,0.1,0.2,0.2,0.2,0.1
			C603.9,562.3,603.9,561.1,603.4,560z"/>
		<path class="st9" d="M587.1,565.7c-3.2-1-6.6-2-8.7-4.8c-0.1-0.1-0.3,0-0.2,0.1c2.1,2.8,5.6,3.9,8.9,4.9
			C587.2,565.9,587.3,565.7,587.1,565.7z"/>
		<path class="st9" d="M564.8,556.2c-1.6-0.7-3.4-0.8-5.1-0.2c-0.1,0-0.1,0.2,0.1,0.2c1.6-0.6,3.4-0.6,4.9,0.2
			C564.8,556.4,564.9,556.3,564.8,556.2z"/>
		<path class="st4" d="M611,613.9c-0.1,0.1-3.8,3-5.1,3.8c-4,2.3-8.8,3-13.2,2.2c-1.1-0.2-2.2-0.5-3.2-0.8c-2.8-1-7.1-2.3-9.2-4.6
			c-2.4-2.8-2.2-6.5-2.4-9.9c-0.1-0.8-0.2-1.7-0.4-2.5c-0.3-0.8-0.7-1.4-1.2-2.1c-0.7-0.9-1.4-1.8-1.9-2.7v0
			c-0.3-0.4-0.5-0.9-0.7-1.4c-0.8-1.9-1.3-3.8-1.6-5.8v0c-0.1-0.6-0.2-1.1-0.2-1.7c0-0.2,0-0.3,0-0.5c0,0,0,0,0,0
			c-0.1-1-0.2-2.1-0.2-3.1c0-0.1-0.2-0.1-0.2,0c-0.2,0.9-0.5,1.8-0.9,2.7c-0.1,0.1-0.1,0.2-0.2,0.4c-0.2,0.4-0.4,0.8-0.6,1.1
			c0,0,0,0.1,0,0.1c0,0.1,0,0.1,0.1,0.1c0,0,0,0.1,0,0.1c0.2,0.5,0.4,1,0.6,1.6c0,0,0,0.1,0,0.1c0.1,0.1,0.1,0.3,0.1,0.4
			c0,0.1,0,0.1,0.1,0.2c0.4,1.3,0.7,2.7,1,4.1c0.1,0.5,0.2,1,0.2,1.5c0,0.3,0.1,0.5,0.1,0.8c0.2,1.8,0.2,3.5,0.2,5.3
			c0,2.3-0.1,4.6-0.2,7c-0.1,2.1-0.3,4.2,0.1,6.3c0.1,0.3,0.1,0.5,0.2,0.8c0.3,1.1,0.8,2.1,1.3,3.2c0.4,0.9,0.9,1.9,1.8,2.5
			c0.8,0.7,9.2,8.7,15.7,11c0.3,0.1,0.6,0.2,1,0.3c8.9,2.7,15.6-0.6,17.1-5.1c0.4-1.2,1.4-8.7,1.9-12.7c0.2-1.4,0.3-2.4,0.3-2.4
			C611.4,614,611.2,613.9,611,613.9z"/>
		<path class="st8" d="M616.7,586.1c-1.4-0.5-2.9-0.5-4.4-0.3c-0.7,0.1-1.4,0.3-2.1,0.4c-1.2,0.3-2.9,0.6-3.8,1.6
			c-0.4,0.4-0.9,1.2-1.1,1.5c-0.5,0.8-0.8,1.7-1.1,2.5c-0.9-0.3-1.8-0.4-2.7-0.3c-0.1,0-0.1,0-0.2,0c-1.4,0.1-2.7,0.5-3.8,1.3
			c-0.5-1.6-1.4-2.9-3.1-3.7c-0.2-0.1-0.5-0.2-0.7-0.3c-2.1-0.7-4.4-0.4-6.5,0.1c-1.1,0.3-2.5,0.6-3.5,1.3c0,0,0,0,0,0
			c-1.3-0.3-2.6-0.4-3.3,0.9c0,0,0,0.1-0.1,0.1c-0.1,0.1-0.1,0.2-0.1,0.3c-0.3-0.1-0.6-0.3-0.9-0.4c-0.5-0.2-0.9-0.4-1.4-0.6
			c-1.9-0.8-3.7-1.6-5.6-2.3c-0.2-0.1-0.4-0.1-0.6-0.2c0,0,0,0,0,0c-0.4-0.2-0.8-0.3-1.3-0.5c-0.3-0.1-0.5-0.2-0.8-0.3
			c-1.4-0.5-2.8-1-4.2-1.4c-0.3-0.1-0.4,0.3-0.1,0.4c1.4,0.4,2.8,0.9,4.1,1.4c0.3,0.1,0.5,0.2,0.8,0.3c0.4,0.2,0.9,0.3,1.3,0.5
			c0.1,0,0.1,0,0.2,0.1c0.2,0.1,0.3,0.1,0.5,0.2c2.6,1,5.2,2.1,7.8,3.3c-0.2,1,0.2,2,1.1,2.7c0,0,0,0,0,0c-0.2,1-0.3,2-0.3,3.1
			c0.1,1.4,0.4,2.7,1,4c0.7,1.6,1.8,3.3,3.5,4.1c1.7,0.9,3.7,0.8,5.5,0.4c1-0.2,1.9-0.6,2.6-1.1c0.7-0.5,1.4-1.2,2-2.1
			c1.2-1.7,1.9-3.7,2.3-5.8c0.2-1.4,0.2-2.8-0.1-4.1c1.2-0.8,2.5-1.2,3.9-1.3c0.1,0,0.1,0,0.2,0c0.8,0,1.6,0.1,2.5,0.3
			c-0.5,2.3-0.2,4.7,0.8,6.9c0.7,1.6,1.8,3.3,3.5,4.1c1.3,0.7,2.7,0.8,4.1,0.6c0.5-0.1,1-0.1,1.4-0.2c2-0.4,3.4-1.5,4.5-3.2
			s1.9-3.7,2.3-5.8C621.2,591.2,620.4,587.4,616.7,586.1z M597.4,596.6c-0.3,2.7-1.5,6.3-3.9,8.1c-0.5,0.4-1,0.6-1.5,0.8
			c-1.6,0.6-3.6,0.8-5.3,0.4c-1.8-0.5-3-1.9-3.9-3.5c-0.8-1.5-1.3-3.1-1.4-4.8c-0.1-2.1,0.4-4.3,1.7-6.1c0,0,0.1-0.1,0.1-0.1
			c0,0,0-0.1,0-0.1c0.1-0.1,0.2-0.2,0.3-0.4c0-0.1,0.1-0.1,0-0.2c0.1-0.1,0.2-0.2,0.3-0.3c1-0.8,2.6-1.1,3.7-1.4
			c1.7-0.4,3.5-0.7,5.2-0.3c0.4,0.1,0.8,0.2,1.1,0.3c1.1,0.4,2.1,1.2,2.7,2.2c0.3,0.5,0.5,1,0.6,1.6c0,0.1,0,0.2,0.1,0.2
			C597.5,594.4,597.5,595.6,597.4,596.6z M620.4,594c-0.3,3.2-2.1,7.8-5.4,9c-0.8,0.3-1.6,0.5-2.5,0.6c-1,0.1-1.9,0.1-2.8-0.2
			c-1.8-0.5-3-1.9-3.9-3.5c-1.8-3.2-2-7.2-0.1-10.3c0.1-0.2,1.2-1.5,1.3-1.6c1-0.9,2.5-1.1,3.5-1.4c0.6-0.2,1.2-0.3,1.8-0.4
			c1.1-0.2,2.3-0.2,3.4,0c1.5,0.3,3,1.1,3.9,2.5C620.5,590.3,620.5,592.2,620.4,594z"/>
		<path class="st7" d="M575.5,645c-2.7-0.3-5.3-0.3-8-0.1c-0.1,0-0.1,0.2,0,0.2c2.7-0.2,5.3-0.2,8,0.1
			C575.6,645.2,575.6,645,575.5,645z"/>
		<path class="st7" d="M588.9,643.1c-2.3,0.4-4.7,0.9-6.9,1.5c-0.1,0-0.1,0.2,0.1,0.2c2.3-0.6,4.6-1.2,6.9-1.5
			C589,643.3,589,643.1,588.9,643.1z"/>
		<path class="st10" d="M628.8,714.3c0-2.4,0.1-4.9,0.1-7.3c0-0.1-0.2-0.1-0.2,0c-0.2,8.6-0.3,17.3-0.2,26c0,2.4,0,4.9,0.1,7.3
			c0,0.1,0.2,0.1,0.2,0C628.7,731.6,628.7,722.9,628.8,714.3z"/>
		<path class="st10" d="M519.7,717.5c-0.4-2.2-0.9-4.4-1.3-6.6c0-0.1-0.2-0.1-0.2,0.1c1.7,7.7,2.9,15.6,3.5,23.5
			c0.2,2.2,0.3,4.5,0.4,6.7c0,0.1,0.2,0.1,0.2,0C522,733.2,521.2,725.3,519.7,717.5z"/>
		<path class="st10" d="M610.7,791.8c-4.1-6.4-8.3-12.7-12.9-18.9c-1.3-1.8-2.6-3.5-3.9-5.2c-0.1-0.1-0.3,0-0.2,0.1
			c4.6,6.1,9,12.3,13.2,18.6c1.2,1.8,2.4,3.6,3.5,5.5C610.6,792,610.8,791.9,610.7,791.8z"/>
		<path class="st10" d="M613.2,804.2c-3-3.4-5.8-7.1-8.2-11c-0.1-0.1-0.2,0-0.2,0.1c2.4,3.9,5.2,7.6,8.2,11
			C613.1,804.5,613.3,804.3,613.2,804.2z"/>
		<path class="st10" d="M606.5,646.9c-1.1,3.2-2.6,6.3-4.3,9.2c-1.5,2.5-3.2,4.9-5.3,6.9c-2.2,2.1-4.8,3.4-7.7,4.2
			c-6,1.6-12.5,1.8-18.6,0.2c-5.4-1.3-10.5-4-14.6-7.8c-3.3-3-6-6.7-7.8-10.8c0.1,0,0.1-0.1,0.2-0.1c2.1,4.7,5.2,8.8,9.3,12
			c4.4,3.5,9.7,5.9,15.2,6.9c3.1,0.6,6.2,0.7,9.3,0.5c3.1-0.2,6.2-0.8,9.1-1.9c2.9-1.1,5.2-2.9,7.1-5.2c1.9-2.2,3.5-4.6,4.9-7.2
			c1.2-2.3,2.2-4.6,3.1-7.1C606.4,646.8,606.4,646.9,606.5,646.9z"/>
	</g>
	<path class="st3" d="M719.7,754.9c2.7-2.7,6.5-4.5,10.3-4.9c2-1.5,7-4.5,7.3-5.3c3.1-7.9,9.6-29.4,13.7-43.3
		c-3.2-0.1-6.4-0.3-9.5-0.6c-5.6-0.6-11.4-1.2-16.7-3c-0.2-0.1-0.4-0.1-0.6-0.2c-0.4,2-0.8,4-1.1,6.1c-2,10.9-4,21.9-6,32.8
		c-1.1,6.2-2.3,12.4-3.4,18.6c0,0,0,0.1,0.1,0.1c1.4,0.7,2.8,1.3,4.2,1.9C718.4,756.3,719,755.6,719.7,754.9z"/>
	<path class="st11" d="M783.1,638.5c-0.2-5.6-1.6-11.1-3.6-16.2c-1-2.5-2.1-5-3.3-7.5c-1.2-2.3-2.6-4.6-4.5-6.4
		c-3.8-3.7-8.9-5.7-13.6-8c-1.1-0.5-2.2-1.1-3.4-1.6c-0.1-1.2-0.4-2.4-0.6-3.6c0-0.1-0.2-0.1-0.2,0.1c0.2,1.2,0.5,2.3,0.6,3.5
		c-0.1-0.1-0.3-0.1-0.4-0.2c-0.1-0.1-0.2,0.1-0.1,0.2c0.2,0.1,0.4,0.2,0.6,0.3c0,0.3,0.1,0.6,0.1,0.9c0.1,1.5-0.2,2.9-0.6,4.3
		c-0.7,2.4-1.8,4.7-1.3,7.3c0.4,2.4,1.8,4.6,2.4,7c0.5,2.6-0.4,5-1.1,7.4c-0.6,2.1-0.9,4.4,0.2,6.4c1.1,1.9,3,3.3,3.7,5.5
		c0.8,2.8-0.9,5.5-1.5,8.1c-0.2,1,0,1.8,0.8,2.5c0.8,0.8,1.8,1.3,2.3,2.3c1.1,2,0.7,4.5,0.9,6.7c0.1,0.8,0.1,2.1,1.1,2.3
		c0.4,0.1,0.9,0,1.2-0.2c0.6-0.3,1.2-0.7,1.8-1c2.2-1.4,4.2-3,6.2-4.5c1.1-0.8,2.1-1.5,3.3-2.2c1-0.6,2.1-1.1,3.2-1.5
		c2-0.9,4.1-1.9,5.1-4.1c0.5-1.1,0.7-2.3,0.8-3.4C783.1,641.4,783.1,640,783.1,638.5z"/>
	<path class="st11" d="M877.1,702.4c-0.2-2.6-3.1-9.8-4.2-12c-2.2-4.5-4.5-5.4-4.6-10.5c0-2.4,0.2-4.8-0.3-7.1c-0.5-2-1.6-3.7-3.2-5
		c-1.5-1.3-3.2-2.2-4.7-3.4c-1.8-1.4-3.2-3.1-3.8-5.3c-0.6-2.3-0.6-4.7-0.6-7c-0.1-2.2-0.3-4.5-1.2-6.6c-0.8-2-2.1-3.7-3.7-5.1
		c-1.7-1.5-3.9-2.4-5.7-3.9c-0.3-0.3-0.7-0.6-0.9-0.9c-0.2-0.6-0.4-1.1-0.7-1.6c-0.4-0.6-0.8-1.2-1.3-1.7c-1-2.4-1.5-5-2.5-7.4
		c-0.9-1.9-2.2-3.5-4-4.7c-1.8-1.3-3.9-2.2-6-3.1c-3.1-1.4-6.3-3.1-8-5.9c0-0.1,0-0.3,0.1-0.4c0.2-0.9,0.6-1.8,0.7-2.8
		c0.1-0.9,0.1-1.8,0-2.7c-0.3-1.8-1-3.4-2.2-4.7c-1.1-1.4-2.6-2.5-3.6-4c-1.3-2-1.2-4.3-0.9-6.6c1.4-2.2,2.1-4.8,2.1-7.5
		c0-4.1-1.9-8.1-4.9-10.8c-0.7-0.7-1.5-1.2-2.4-1.7c-1-0.5-2-1-2.8-1.7c-2-1.7-1.3-4.3-1.2-6.5c0.2-2-0.2-3.8-1.3-5.5
		c-1.1-1.6-2.6-2.8-4.3-3.7c-4-2-8.6-1.5-12.9-0.6c-1.7-1.4-3.5-2.6-5.6-3.4c-2.7-1-5.7-1.1-8.3-0.1c-2.9,0.4-5.6,1.7-7.8,3.6
		c-1.8,1.5-2.9,3.9-5.3,4.6c-1.1,0.3-2.2,0.5-3.2,0.9c-0.9,0.3-1.9,0.8-2.7,1.3c-3.5,2-6.4,5.2-7.7,9.1c-0.6,2-0.8,4.2,0,6.1
		c0.5,1.1,1.5,2,0.7,3.2c-0.6,0.9-1.6,1.5-2.4,2.2c-1.7,1.6-2.9,3.7-3.5,5.9c-0.2,1.1-0.4,2.4,0.2,3.3c0.4,0.6,1.2,1,1.9,0.7
		c-0.9,2.5-1.8,5.9,1,7.5c2.3,1.3,5.1,0.3,6.9-1.4c1-0.9,1.7-2,2.4-3.2c0,0.2,0,0.4,0.1,0.7c0,0.1,0.2,0.1,0.2,0
		c0-0.3-0.1-0.6-0.1-1c0.2-0.3,0.3-0.5,0.5-0.8c0.1-0.1-0.1-0.2-0.2-0.1c-0.1,0.2-0.2,0.4-0.3,0.5c-0.2-5,1.6-10.1,4.8-14
		c1.7-2.1,3.8-3.8,6.2-5c2.4-1.2,5.1-1.9,7.6-2.9c1.6-0.6,3.1-1.3,4.5-2.3c3.7,2.9,6.6,6.7,8.3,11c1.2,3,1.8,6.2,1.9,9.4
		c0.1,3.8-0.4,7.7,0.2,11.5c0.6,3.7,2.2,7.2,4.7,10c0,4.4,0.2,8.7,0.8,13.1c0.7,5.1,2.1,10,4.2,14.7c3.1,6.8,7.3,13,11.7,19
		c0.3,3.5,0.4,7,0,10.5c-0.5,5.1-1.7,10.2-3.3,15.1c-2.5,7.9-6.8,14-10.3,26.1c-1.6,5.5-2.6,8.7-2.7,14.5c0,0.1,0.1,0.1,0.1,0.1
		c3.4-0.5,6.9-3.2,10.4-2.8c1.8,0.2,3.5,0.6,5.1,1.4c1.4,0.7,2.7,1.6,4,2.5c1.3,0.8,2.5,1.7,4,2.2c1.4,0.5,3,0.7,4.5,0.5
		c3.2-0.3,17.5-1.2,19.1-0.6c1.5,0.5,3,1,4.6,1.1c1.4,0.1,2.9-0.1,4.3-0.4c2.9-0.7,5.6-2.2,8.5-3.2c1.4-0.5,2.9-0.9,4.4-1.1
		c1.6-0.1,3.2,0.2,4.7,0.4c1.4,0.2,3,0.4,4.3-0.1c1.2-0.5,2-1.5,2.7-2.6c0.8-1.2,1.3-2.6,1.6-4c0.6-2.5,0.7-5.1,0.9-7.6
		C877.2,706.3,877.3,704.3,877.1,702.4z"/>
	<path class="st3" d="M753.3,592.1c0,3.8,0.3,14.5,2.4,23.4c1.7,7.1,6.3,11.2,10.9,11.7c5.4,0.6,12.2,0.5,27.5-13
		c3.8-3.4,2.5-14,2.9-14.6c1.7-2.4,1.4-5.5,0.9-8.3c-0.9-5.5-3.2-10.7-6.5-15.2c-3.4-4.6-7.8-8-12.7-10.9c-5.2-3-10.5-5.2-16.5-4
		c-2.4,0.5-3.8,1.7-5.4,3.7c-1.3,1.7-2.1,6.2-2.7,11.3c-0.2,1.5-0.3,3-0.4,4.6C753.4,585,753.3,589.1,753.3,592.1z"/>
	<path class="st3" d="M799.8,643c-0.1-9.3-3.6-50.7-3.9-50.7c-0.1-0.9-0.3-1.8-0.7-2.4c-0.6-0.8-1.8-1.2-2.6-0.9
		c-0.9,0.3-1.1,2-1.1,3c-0.1,0.9,0,1.8,0.4,2.5c-6.2,1.2-18,2.9-18.1,6.3c-0.1,2.1,0.3,11.9,0.6,22.9c0,1.1,0.1,2.1,0.1,3.2
		c0,0.5,0,0.9,0,1.4c0,1.1,0.1,2.1,0.1,3.2c0.2,7.9,0.4,15.7,0.2,20.9c0,0.1-0.9,2.3-0.8,2.3l16.6,6.5c0,0,3-5.6,4.5-8.5
		c0.4,0.2,0.7,0.4,1.1,0.6c0.1,0.1,0.3-0.1,0.3-0.3C797.4,642.7,799.9,653.1,799.8,643z"/>
	<path class="st6" d="M775.9,591c0,1.9,0.7,3.5,1.6,3.5c0.9,0,1.7-1.6,1.7-3.5s-0.7-3.5-1.6-3.5C776.7,587.4,775.9,589,775.9,591z"
		/>
	<path class="st6" d="M756.8,589.9c0,1.9,0.7,3.5,1.6,3.5c0.9,0,1.7-1.6,1.7-3.5c0-1.9-0.7-3.5-1.6-3.5
		C757.6,586.4,756.8,587.9,756.8,589.9z"/>
	<path class="st12" d="M763.3,616c1.1,0.5,2.4,0.5,3.5,0.1c0.1,0,0.2,0.1,0.1,0.2c-1.2,0.4-2.5,0.4-3.7-0.1
		C763.1,616.1,763.2,615.9,763.3,616z"/>
	<path class="st8" d="M771.5,608.9c0-0.1-0.1-0.1-0.1-0.1c-0.9,0.4-1.8,0.4-2.8,0.5c-0.9,0.1-1.9,0.1-2.8,0.2
		c-0.9,0-1.8-0.1-2.7-0.4c-0.7-0.2-1.4-0.5-2.2-0.5c0-0.1-0.2-0.1-0.2,0.1c0.2,1.2,0.7,2.8,1.7,3.6c0.9,0.8,2.3,1,3.4,0.9
		c1.2-0.1,2.3-0.6,3.2-1.4C769.5,611.3,771.1,609.9,771.5,608.9z"/>
	<path class="st13" d="M771.2,608.9c-0.9,0.3-1.9,0.5-2.7-0.3c-0.6-0.6-1.2-1.4-1.9-1.9c-0.5-0.4-1.2-0.7-1.9-0.5
		c-0.6,0.2-1,0.6-1,1.2c0,0,0,0,0,0c0,0,0,0,0,0v0c-0.4-0.5-0.9-1.1-1.6-1.3c-1.6-0.3-1.8,1.7-1.4,2.8c0,0.1,0,0.1,0.1,0.2
		c1.3,1.3,3.2,1.6,5.1,1.5c1.1-0.1,2.1-0.3,3.2-0.5c0.8-0.2,1.6-0.4,2.2-1c0,0,0.2-0.1,0.1-0.2C771.4,608.8,771.3,608.9,771.2,608.9
		z"/>
	<path class="st12" d="M768.6,601.3c-1.4,0.4-3.1,0.4-4.5-0.3c-1.6-0.8-1.6-2.5-1.2-4c0.8-3,1.9-5.9,3.4-8.7
		c0.1-0.1-0.1-0.2-0.2-0.1c-0.8,1.6-1.5,3.2-2.2,4.9c-0.6,1.6-1.2,3.3-1.4,4.9c-0.2,1.4,0.3,2.6,1.6,3.2c1.4,0.7,3.1,0.6,4.5,0.2
		C768.8,601.5,768.7,601.3,768.6,601.3z"/>
	<path class="st11" d="M773.7,562.3c-0.6-2.2-3.7-2.4-5.5-2.6c-4.4-0.6-9.4,0-12.5,3.6c-1.7,2-2.5,4.8-2.9,7.3
		c-0.2,1.3-0.3,2.7-0.2,4.1c0,0.7,0.1,1.3,0.2,2c0.1,0,0.2,0,0.4,0c0.2-0.6,0.4-1.1,0.6-1.7c0.9-2.1,2.1-4.4,3.7-6.1
		c0.9-0.9,2-1.5,3.3-1.5c1.1,0,2.2,0.3,3.3,0.1c1.1-0.2,1.9-1,2.7-1.6c1.1-0.8,2.3-0.8,3.6-0.8C771.9,565.1,774.3,564.3,773.7,562.3
		z"/>
	<path class="st11" d="M821.8,558.8c-0.7-0.5-1.6-0.6-2.4-0.5c1.9-1,2.9-3.5,2-5.5c-0.7-1.5-2.2-2.3-3.8-2.4
		c-0.6-2.2-2.8-3.7-5.1-3.6c-1.3,0.1-2.5,0.6-3.4,1.5c0.1-1.3-0.7-2.5-1.9-3.2c-1.3-0.8-3-0.9-4.5-0.7c-2.8,0.4-5.3,1.9-7,4.2
		c-0.8,1.1-1.4,2.3-1.7,3.6c-0.4,0.1-0.8,0.1-1.2,0.3c-0.1,0-0.1,0.2,0.1,0.2c0.4-0.1,0.7-0.2,1.1-0.3c0,0.2-0.1,0.4-0.1,0.7
		c0,0.1,0.2,0.2,0.2,0.1c0-0.3,0.1-0.5,0.1-0.7c2.6-0.3,5.1,1.3,6.6,3.5c0.9,1.3,1.5,2.8,2,4.4c0.4,1.5,0.7,3,1.6,4.3
		c0.4,0.6,0.9,1.3,1.3,2c0.2,0.3,0.3,0.6,0.5,0.9c0,0.1,0.1,0.2,0.1,0.3c-0.4-0.1-0.7-0.2-1-0.4c-0.1,0-0.2,0.2-0.1,0.2
		c0.4,0.1,0.8,0.3,1.2,0.4c0.1,0.6,0.1,1.1,0,1.7c0,0.1,0.2,0.2,0.2,0.1c0.2-0.6,0.2-1.2,0.1-1.7c0.2,0.1,0.4,0.1,0.6,0.2
		c0.4,0.1,0.9,0.2,1.4,0.3c0.3,0,0.6,0.1,0.9,0.1c0.9,0.1,1.7,0.1,2.6,0c1.2-0.1,2.5-0.3,3.7-0.7c1.6-0.5,3.1-1.3,4.5-2.4
		c1.3-1.1,2.7-2.6,2.7-4.4C822.8,560.2,822.5,559.3,821.8,558.8z"/>
	<path class="st11" d="M798,583.3c-0.6-3.2-1.3-6.4-2.5-9.4c-1.3-3.1-3.3-5.8-5.7-8.2c-1.2-1.2-2.4-2.3-3.8-3.2
		c-1.4-0.9-3-1.4-4.7-1.7c-1.9-0.3-3.8-0.5-5.8-0.6c-0.9-0.1-2-0.4-2.8-0.1c-0.5,0.2-0.9,0.7-0.8,1.3c0,0.1,0.1,0.1,0.2,0
		c0.1-0.2,0.2-0.3,0.3-0.4c0,0,0.1-0.1,0.1-0.1c0.3,1.8,0.4,3.6,0.8,5.4c0.3,1.5,0.8,2.9,1.8,4c2.2,2.3,5.8,2.1,8.2,4.2
		c1.2,1.1,2,2.8,2.2,4.4c0.1,1.5-0.3,3.1,0.3,4.5c0.6,1.4,2.1,1.8,3.2,2.7c1.4,1.1,1.3,3.1,1.8,4.6c0.5,1.5,1.3,2.9,2.8,3.5
		c1.7,0.7,3.7,0.3,5.3-0.3c0,0,0.1-0.1,0.1-0.1C799.3,590.4,798.6,586.7,798,583.3z"/>
	<path class="st14" d="M841.3,685.4c0-0.1,0-0.3,0-0.4c0-0.2,0-0.4,0-0.6c-0.1-1.8-0.3-3.6-0.7-5.4c-0.2-1-0.5-2-0.8-3
		c-0.5-1.4-1.1-2.7-1.8-3.9c-3.5-10.6-15.8-20.5-26.1-27.1c-0.8-0.5-1.5-1-2.3-1.4c-1.4,1.2-2.9,1.9-4.6,2.6c-2.6,1-5.6,1.3-8.5,1.3
		c-3.2,0-6.4-0.5-9.6-1c-1.9-0.4-3.9-0.8-5.8-1.3c-3.8,0.9-7.7,1.6-11.6,1.3c-2.3-0.2-4.2-1.4-5.1-3.4l-1.8,1l-10.1,5.3l-7.7,4
		c-0.1,0.1-0.2,0.1-0.3,0.2c-2.2,1.5-4.4,2.9-6.5,4.5c-2.1,1.6-4,3.5-5.5,5.7c-1.4,2-2.5,4.3-3.3,6.6c-1.1,3.1-1.9,6.3-2.7,9.5
		c-0.3,1.2-0.6,2.3-0.9,3.5c-0.2,0.7-0.4,1.4-0.6,2c-0.8,2.5-1.9,4.9-3.2,7.3c-0.6,1.1-1.3,2.2-1.9,3.3c-0.7,1.1-1.4,2.3-2.1,3.5
		c-0.1,0.3-0.3,0.5-0.4,0.8c-1,1.9-1.9,3.9-2.4,6c-0.6,2.8-0.1,5.6-0.1,8.4c0,2-0.5,4-1.2,5.8c2.2,1.5,4.9,1.8,7.6,1.9
		c3.2,0.1,6.4-0.1,9.6,0.6c2.3,0.5,4.5,1.2,6,3.1c0.3,0.3,0.6,2.2,1,5.1c0.3,2.3,0.6,5.1,0.9,8.3c0.7,6.9,1.4,15.2,1.8,21.7
		c0.1,1.2,0.2,2.3,0.2,3.3c0.2,3.9,0.4,6.6,0.3,7.2c0.6,0,1.2-0.1,1.8-0.1c0.1,0,0.1,0,0.2,0c1.8,0,3.7,0.4,5.5,0.8
		c2.3,0.5,8.3,1.3,10.2,2.6c2,1.4,3.5,3.5,5.8,4.4c2.3,0.9,4.9,0.5,7.2,0c2.8-0.5,5.5-1.3,8.1-2.2c5.1-1.6,10.1-3.2,15.4-3.6
		c0.3-0.6,0.7-1.2,1.2-1.7c3.5-3.9,8.7-5,13-7.5c0,0,0-0.1,0-0.1c0.4-3.8,1.1-7.7,1.8-11.5c0.2-0.9,0.4-1.8,0.5-2.6
		c0-0.1,0-0.2,0.1-0.3c0.1-0.5,0.2-1.1,0.3-1.6c0-0.2,0.1-0.3,0.1-0.5c0-0.2,0.1-0.3,0.1-0.5c0.1-0.4,0.2-0.8,0.3-1.2
		c1-4.7,2.1-9.4,2.9-14.2c0.2-1.2,0.4-2.5,0.5-3.7c0.1-0.9,0.1-1.8,0.2-2.6c0.1-0.8,0.5-1.6,0.8-2.3c0.1-0.2,0.2-0.4,0.4-0.5
		c0.3-0.1,0.7,0.1,1,0c0.8,0,1.6-0.1,2.4-0.1c1.3,0.1,2.5,0.2,3.8-0.4c0.4-0.2,0.8-0.4,1.3-0.6c0.6-0.1,1.2-0.1,1.8-0.2
		c1.1-0.2,5.5-0.9,5.8-1c2.2-0.3,4.4-0.2,6.4,0.8c0.1,0,0.1,0,0.2-0.1c0.3-3.7,0.1-7.4-0.1-11.1c0-0.3,0-0.7,0-1c0-0.5,0-0.9,0-1.4
		c-0.1-3.5,0.2-7,0.5-10.6c0.2-2.4,0.5-4.8,0.7-7.2c0-0.7,0.1-1.4,0.1-2.2c0,0,0,0,0-0.1c0-0.2,0-0.4,0-0.6
		C841.3,686.4,841.3,685.9,841.3,685.4z"/>
	<path class="st3" d="M796.5,636.8c-0.1,0.8-22,0.9-22,0.9l-12,6.3c-0.5,7.1-3.3,14-2.9,21.2c0.2,4.6,2.3,8.8,2.9,13.3
		c0.6,4.5,0.1,9-0.3,13.5c-0.4,4.8-0.5,9.8,1.3,14.4c0,0.1,0.2,0.1,0.2,0c1.1-2.7,2.3-5.5,4.3-7.8c1.9-2.1,4.4-3.7,6.2-5.9
		c3.5-4,5.3-9.2,8-13.7c2.8-4.6,6.8-8.4,10.7-12.1c4.1-3.8,8.1-7.5,11.4-12c2.1-2.8,4-5.7,6.2-8.4c0.4-0.5,0.8-1,1.2-1.5
		C804.1,640,797.4,636.9,796.5,636.8z"/>
	<path class="st11" d="M820.9,646.3c-0.4-2-0.9-4-1.5-5.9c-1.1-3.8-2.4-7.6-4-11.2c-3.2-7.4-7.4-14.3-12.5-20.5
		c-0.7-0.9-1.5-1.7-2.2-2.6c-0.4-0.5-0.8-1.1-1-1.8c-0.1-0.5-0.2-1.1-0.4-1.6c-0.6-1.5-2.5-2.8-4-1.6c-0.1,0.1,0,0.2,0.1,0.1
		c0.3-0.2,0.6-0.3,0.9-0.4c0.4,2.5,0.2,5.2-0.6,7.6c-0.8,2.2-2.1,4.3-1.9,6.7c0.1,2.2,1.2,4.3,1.6,6.4c0.2,1.2,0.1,2.4-0.1,3.6
		c-0.3,1.1-0.6,2.2-0.8,3.3c-0.1,1-0.1,1.9,0.3,2.8c0.4,0.9,1.1,1.7,1.7,2.5c0.7,1,1.2,2,1.3,3.2c0.1,1,0.2,2.1,0.7,3
		c0.9,1.6,2.8,2.4,4.5,2.9c2.2,0.6,4.5,1,6,2.8c0.8,1,1.5,2.2,2.4,3.1c0.8,0.8,1.8,1.6,2.9,1.6c0.7,0,1.3-0.1,2,0
		c0.6,0,1.3,0.2,1.9,0.4c1.3,0.4,3.3,0.6,4.2,1.5c0.1,0.1,0.2,0,0.2-0.1C822.6,650.1,821.3,648.5,820.9,646.3z"/>
	<path class="st11" d="M783.5,582c-1.7-1.1-3.3-1.5-5.5-1.6c-1.7,0-5.2,0.1-5.9,2.2c-0.2,0.7,0,1.6,0.7,1.8c0.4,0.1,0.8,0.1,1.1,0.1
		c0.6,0,1.3-0.1,1.9-0.1c1.3,0,2.6,0.1,4,0.4c1.1,0.2,2.2,0.6,3.3,0.5c0.8,0,1.7-0.4,1.8-1.4C785.1,583.1,784.1,582.5,783.5,582z"/>
	<path class="st11" d="M763.3,580.3c-1.7-1.1-3.3-1.5-5.5-1.6c-1.7,0-5.2,0.1-5.9,2.2c-0.2,0.7,0,1.6,0.7,1.8
		c0.4,0.1,0.8,0.1,1.1,0.1c0.6,0,1.3-0.1,1.9-0.1c1.3,0,2.6,0.1,4,0.4c1.1,0.2,2.2,0.6,3.3,0.5c0.8,0,1.7-0.4,1.8-1.4
		C764.9,581.4,763.9,580.7,763.3,580.3z"/>
	<path class="st15" d="M797.6,765.5c-2-1.8-3.9-3.6-5.9-5.4c-1.7-1.6-3.5-3.2-4.8-5.2c-1.4-2-2.2-4.3-3.2-6.6
		c-0.9-2.1-2-4.2-3.3-6.2c-2.4-4-5.2-7.7-7.6-11.7c-2.5-4.1-4.5-8.6-6-13.2c-1.2-3.7-2.2-7.5-3-11.3c-0.1,0.1-0.1,0.1-0.2,0.1
		c1.8,7.9,4,15.8,8.1,22.8c2.4,4.1,5.2,7.9,7.7,11.9c1.3,2,2.5,4,3.5,6.2c1,2.2,1.8,4.5,3,6.7c1.3,2.3,3.1,4.1,5,5.9
		c2.2,2,4.4,4,6.5,6C797.5,765.7,797.7,765.5,797.6,765.5z"/>
	<path class="st16" d="M788.7,554.8c-1.2-0.5-2.4-0.4-3.6,0c-0.6,0.2-1.2,0.5-1.8,0.8c-0.6,0.4-1.2,0.8-1.8,1.1
		c-0.8,0.3-1.6,0.2-2.5,0c-0.7-0.1-1.3-0.1-2,0c-1.2,0.3-2.3,0.9-3.1,1.9c-0.9,1.1-1.2,2.6-1,4c0,0.1,0.2,0.1,0.2,0
		c-0.2-1.7,0.4-3.4,1.6-4.5c0.6-0.6,1.4-0.9,2.2-1.1c0.9-0.2,1.7-0.1,2.6,0c0.7,0.1,1.4,0.1,2-0.1c0.7-0.3,1.3-0.8,2-1.2
		c1.5-0.9,3.4-1.5,5-0.7C788.8,555.1,788.9,554.9,788.7,554.8z"/>
	<path class="st16" d="M806.4,581.5c0-0.1-0.2-0.1-0.2,0.1c0.4,1.2,0.8,2.5,0.8,3.8c0,1.3-0.5,2.4-1.4,3.4c-0.6,0.7-1.4,1.3-1.7,2.2
		c-0.4,0.9-0.3,2.1-1,2.9c-0.1,0.1,0.1,0.2,0.1,0.1c0.7-0.7,0.7-1.8,1-2.7c0.4-1.2,1.4-1.9,2.2-2.8
		C807.8,586.4,807.1,583.8,806.4,581.5z"/>
	<path class="st16" d="M802.1,588.8c-0.1,0.6-0.3,1.2-0.4,1.7c0,0.1,0.2,0.2,0.2,0.1c0.1-0.6,0.3-1.2,0.4-1.7
		C802.3,588.7,802.1,588.6,802.1,588.8z"/>
	<path class="st16" d="M803.6,565.1c-0.9-4.1-4.3-7.1-8.4-7.6c-0.1,0-0.1,0.2,0,0.2c4,0.5,7.3,3.5,8.2,7.4
		C803.4,565.3,803.6,565.2,803.6,565.1z"/>
	<path class="st16" d="M758.2,565.3c-2.1-0.4-4.2,0-6,1.2c-0.1,0.1,0,0.2,0.1,0.2c1.7-1.1,3.8-1.5,5.8-1.2
		C758.3,565.5,758.4,565.3,758.2,565.3z"/>
	<path class="st16" d="M791.5,569.9c-0.1-0.1-0.2,0-0.1,0.1c1.2,1.2,1.6,2.9,1.2,4.6c0,0.1,0.2,0.2,0.2,0.1
		C793.2,573,792.7,571.2,791.5,569.9z"/>
	<path class="st16" d="M795.7,571.5c-0.1-0.1-0.2,0-0.2,0.1c0.6,1.2,0.4,2.8-0.5,3.8c-0.1,0.1,0.1,0.2,0.1,0.1
		C796.2,574.4,796.4,572.8,795.7,571.5z"/>
	<path class="st16" d="M812,568.4c-0.1-0.7-0.2-1.4-0.5-2c-0.5-1.1-1.6-1.6-2.7-1.8c-0.8-0.2-1.4-0.4-1.6-1.3
		c-0.1-0.6-0.1-1.1-0.4-1.6c-0.5-0.9-1.5-1.4-2.5-1.3c-0.1,0-0.1,0.1-0.1,0.1c0,0,0,0,0,0c0,0,0,0,0,0c0,0,0,0,0,0c0,0,0,0,0,0
		c0,0,0,0,0,0c1.9,1.3,0.9,3.9,1.4,5.8c0.1,0.2,0.1,0.4,0.2,0.6c0.1,0.1,0.1,0.2,0.2,0.3c0.3,0.4,0.6,0.6,1,0.8
		c0.3,0.1,0.5,0.2,0.8,0.2c0.2,0,0.4,0,0.5,0.1c0.3,0,0.6,0.1,0.9,0.1C810.3,568.5,811.1,568.6,812,568.4
		C812,568.5,812,568.5,812,568.4z"/>
	<path class="st16" d="M807,586.4c0-0.1-0.3,1.1-0.9,1.9c-0.4,0.5-1.4,1.2-1.9,2.1c-0.5,0.8-0.5,1.7-0.7,2.3
		c-0.2,0.7-0.9,1.4-1.3,1.7c-0.6,0.5-1,0.6-1.4,1.1c-0.5,0.6-0.2,1.7-0.6,2.4c0-0.1-0.2-0.1-0.2,0c-0.3,1-0.5,1.9-0.8,2.9
		c-0.1,0.6,0.3,1.1,0.8,1.4c0.5,0.3,1,0.4,1.5,0c0.5-0.4,0.5-1,0.6-1.5c0-0.7,0.6-0.7,1-1c0.3-0.2,0.6-0.4,0.8-0.7
		c0.5-0.6,0.7-1.2,0.8-1.9c0.2-1.9-0.7-3.8,0.4-5.5c0.5-0.8,1-1.6,1.3-2.5c0.3-0.8,0.4-1.5,0.4-2.3C806.9,586.7,807,586.5,807,586.4
		z"/>
	<path class="st17" d="M800.9,594.3c-0.9-1.5-2.5-2.3-4.2-2c-1.9,0.3-3.3,1.6-4.4,3.2c0,0.4-0.1,0.8-0.2,1.2
		c0.4,3.2,0.4,6.3-0.1,9.5c0,0.1,0.1,0.1,0.1,0.1c3.8-0.5,7.2-3,8.8-6.5C801.6,598,801.8,596,800.9,594.3z"/>
	<path class="st18" d="M800.7,605c-0.5-0.4-1.4-0.3-2-0.4c-0.4,0-0.9,0-1.3,0c0-0.2,0-0.5,0.1-0.7c0-0.4,0.1-0.9,0.1-1.3
		c0-0.2,0.1-0.4-0.1-0.6c-0.1-0.1-0.4-0.1-0.5-0.1c-0.5,0-0.9,0-1.4,0.1c-0.3,0-0.2,0.3-0.3,0.7c0,0.5-0.1,1.3-0.1,2.2
		c-0.9,0-1.9,0.2-2.4,0.7c-0.3,0.3-0.5,0.8-0.6,1.2c-0.2,0.7-0.4,1.4-0.5,2.1c-0.3,1.4-0.5,2.8-0.5,4.2c0,0.6-0.1,1.2,0,1.8
		c0,0.4,0.2,0.7,0.6,0.9c0.5,0.2,1.2,0.2,1.7,0.2c0.8,0,1.6,0,2.4,0c0.7,0,1.5,0,2.2-0.1c0.5,0,1.1,0,1.5-0.3c0.3-0.2,0.4-0.6,0.6-1
		c0.2-0.7,0.4-1.4,0.5-2.1c0.3-1.4,0.4-2.8,0.5-4.2c0-0.7,0.1-1.4,0.1-2.1C801.2,605.8,801.1,605.3,800.7,605z M796.9,609
		c0.2-0.3,0.1-0.8,0.2-1.1c0.1-0.4,0.1-0.9,0.2-1.3c0.2,0,0.4,0,0.7,0c0.4,0,0.8,0.1,0.9,0.6c0,0.2,0,0.4,0,0.6c0,1-0.1,2-0.2,2.9
		c-0.1,0.9-0.2,1.8-0.4,2.7c-0.1,0.4-0.3,0.5-0.7,0.6c-0.2,0-0.5,0-0.8,0c-0.5,0-1,0-1.5,0s-1,0-1.5,0c-0.2,0-0.5,0-0.7,0
		c-0.6-0.1-0.6-0.5-0.6-0.9c0.1-0.9,0.3-1.8,0.4-2.7c0.1-0.9,0.2-1.8,0.5-2.7c0.2-0.6,0.5-1.1,1.1-1.3c0.2-0.1,0.4-0.1,0.7-0.1
		c0,0.5,0,1-0.1,1.4c0,0.4-0.3,1.2,0.3,1.4C795.6,609.3,796.6,609.4,796.9,609z"/>
	<path class="st16" d="M824.6,621.1c-2-1-4.4-1.3-6.2-2.8c-1.8-1.6-2.4-4.1-2.6-6.3c-0.1-1.5-0.1-3-0.3-4.5
		c-0.1-1.1-0.3-2.3-1.1-3.2c-0.1-0.1-0.2,0-0.1,0.1c0.9,0.9,1,2.3,1.1,3.5c0.1,1.3,0.1,2.7,0.2,4c0.2,2,0.6,4.1,1.9,5.7
		c1.4,1.7,3.5,2.3,5.5,3c2,0.7,3.8,1.9,5.2,3.5c1.6,1.8,2.7,4,3.1,6.3c0,0.1,0.2,0.1,0.2-0.1C830.8,626.5,828.2,622.9,824.6,621.1z"
		/>
	<path class="st16" d="M836.1,645.5c-1.4-1-3-1.5-4.5-2.1c-0.9-0.3-1.7-0.7-2.5-1.3c-0.8-0.7-1.3-1.5-1.7-2.5
		c-0.7-1.7-1.2-3.7-2.9-4.7c-0.1-0.1-0.2,0.1-0.1,0.2c1.7,0.9,2.2,2.9,2.9,4.6c0.6,1.5,1.6,2.7,3.1,3.4c1.5,0.7,3.1,1.1,4.6,1.9
		c1.5,0.8,2.8,2,3.8,3.4c1.1,1.5,1.9,3.3,2.2,5.2c0,0.1,0.2,0.1,0.2-0.1C840.7,650.3,838.8,647.4,836.1,645.5z"/>
	<path class="st16" d="M843.4,645.5c-0.1-0.1-0.2,0-0.2,0.1c1.3,1.9,1.9,4.3,1.6,6.6c0,0.1,0.2,0.2,0.2,0.1
		C845.3,649.9,844.7,647.5,843.4,645.5z"/>
	<path class="st16" d="M851.7,646.6c-0.8-2.6-2.7-4.8-5.2-5.9c-0.1-0.1-0.2,0.1-0.1,0.2c2.5,1.1,4.4,3.2,5.1,5.8
		C851.6,646.8,851.8,646.8,851.7,646.6z"/>
	<path class="st16" d="M816.5,645.2c-2.7,0.8-4.8-1.4-6.1-3.4c-0.1-0.1-0.3,0-0.2,0.1c1.4,2.1,3.6,4.3,6.4,3.5
		C816.6,645.3,816.6,645.1,816.5,645.2z"/>
	<path class="st14" d="M829,816.2h-92.6c0,0,0,0,0-0.1h-13.5c0-0.2,0-0.3,0.1-0.5c0.7-3,1.5-5.9,2.5-8.8c0.6-1.7,1.2-3.4,1.8-5
		c0.3-0.8,0.6-1.6,0.9-2.4c0,0,0-0.1,0.1-0.1c0.3-0.8,0.6-1.6,1-2.4c0.2-0.4,0.3-0.8,0.5-1.2c0.3-0.6,0.5-1.3,0.8-1.9
		c0.4-0.8,0.7-1.7,1.1-2.5c0.2-0.5,0.4-1,0.6-1.4c0.8-1.7,1.5-3.4,2.3-5.1c1.7-3.9,3.5-7.9,5-11.9c1.9-4.7,3.5-9.5,4.7-14.4
		c-0.3-0.4-0.5-0.8-0.8-1.2c-0.1-0.1,0.1-0.2,0.2-0.1c0.2,0.4,0.4,0.7,0.6,1.1c0.2-0.9,0.4-1.9,0.6-2.8c0-0.1,0.2-0.1,0.2,0
		c-0.2,1-0.4,2-0.7,3c0.1,0.1,0.1,0.2,0.2,0.3c0-0.1-0.1-0.3-0.1-0.4c0-0.1,0.2-0.2,0.2-0.1c0,0.3,0.1,0.5,0.1,0.8
		c0.3,0.3,0.5,0.6,0.8,0.9c0,0,0,0.1,0,0.1c0.4,0.5,0.8,0.9,1.3,1.3c0.1,0.1-0.1,0.2-0.2,0.1c-0.7-0.6-1.3-1.3-1.8-2
		c0.7,3.6,1.3,7.2,1.9,10.8c2.4-2.6,4.7-5.4,6.4-8.5c1.5-2.9,3-5.9,3.9-9c0.3,0.1,0.6,0.1,0.9,0.2c3.8,0.7,7.7,1.3,11.6,1.7
		c7.3,0.7,14.6,1,21.8,2.1c7,1.1,11.3,4.5,17.7,7.2C822.2,769.4,829,812.9,829,816.2z"/>
	<path class="st15" d="M741.6,692.2c1-3.1,1.6-6.3,1.5-9.5c0-0.1-0.2-0.1-0.2,0c0.3,11.6-9,21.5-7.3,33.3c0.4,2.7,1.4,5.3,3.2,7.5
		c0.1,0.1,0.2,0,0.1-0.1c-3.4-4.1-3.8-9.8-2.9-14.8C737.2,702.8,739.9,697.7,741.6,692.2z"/>
	<path class="st15" d="M807.8,683.9c0-0.1-0.2-0.1-0.2,0c0.2,2.2-0.4,4.3-1,6.4c-0.6,2.1-1,4.1-1,6.3c-0.1,2.3,0.1,4.5,0,6.8
		c-0.1,2.2-0.7,4.4-1.2,6.5c-0.5,2.3-0.8,4.6-0.4,6.9c0,0.1,0.2,0.1,0.2-0.1c-0.8-4.3,1.1-8.5,1.5-12.8c0.2-2.2,0-4.5,0-6.7
		c0-2.3,0.3-4.4,0.9-6.6C807.3,688.4,808,686.2,807.8,683.9z"/>
	<path class="st12" d="M799.5,596.7c-1-1.2-2.6-0.6-3.5,0.3c-0.6,0.6-1,1.4-1.4,2.2c-0.4,0.8-1.2,2.5-2.4,1.8
		c-0.1-0.1-0.2,0.1-0.1,0.2c1.5,0.8,2.4-1.4,2.9-2.4c0.4-0.8,0.9-1.7,1.7-2.2c0.8-0.5,1.9-0.6,2.6,0.2
		C799.4,596.9,799.6,596.8,799.5,596.7z"/>
	<path class="st17" d="M781.3,620.3c0,0-0.1,0-0.2,0c-2.2,2.7-4,4.5-6.8,6.5c0,0.5,0,0.9,0,1.4c0,1.1,0.1,2.1,0.1,3.2
		c0.1-0.2,0.2-0.3,0.3-0.5c0.2-0.4,0.3-0.9,0.6-1.2c0.6-0.4,1.3-0.4,2-0.6c0.5-0.2,0.9-0.5,1-1c0.2-0.6,0.2-1.3,0.4-2
		c0.2-0.9,0.9-1.5,1.5-2.1C781.3,623.1,782.6,621.5,781.3,620.3z"/>
	<path class="st12" d="M779,644.1c-2.3-0.7-4.7-1.1-7.1-1.1c-0.1,0-0.1,0.2,0,0.2c2.4,0,4.7,0.4,7,1.1
		C779.1,644.4,779.2,644.2,779,644.1z"/>
	<path class="st12" d="M794.4,643.7c-2.8-0.8-5.9-0.9-8.3,0.8c-0.1,0.1,0,0.3,0.1,0.2c2.4-1.7,5.4-1.6,8.2-0.8
		C794.5,644,794.5,643.8,794.4,643.7z"/>
	<path class="st3" d="M725.9,732.4c-3-3.7-23.8-39.3-33.2-57.3c-1.1,0.6-6,3.4-8.5,4.6c5.5,17.5,17.4,53.3,18.5,56.8
		c1.3,4,2.6,8.1,4.5,11.9c1.7,3.4,4,6.5,7.1,8.8c2.9,2.1,6.6,3.6,10.3,3.1c3.9-0.5,6.7-4,8.7-7.1c2.1-3.3,3.5-6.9,4.8-10.6
		c0.3-0.9,0.6-1.8,0.9-2.7C739.1,739.8,729.4,736.8,725.9,732.4z"/>
	<path class="st3" d="M695.4,683.1c0-0.4-0.2-0.7-0.3-1.1c-0.1-0.4-0.2-0.8-0.3-1.3c-0.2-0.9-0.5-1.7-0.7-2.6
		c0.4-4.4,0.6-8.8-0.2-13.2c-0.5-2.5-1.4-4.8-2.3-7.2c-0.9-2.2-2-6.2-3.2-7.9c-0.4-0.6-1.1-1.5-1.9-1.4c-0.7,0.1-0.9,1-0.9,1.6
		c0,2.5,1.4,7.6,1.8,10c0.3,1.8,0.6,3.7,0.9,5.5c-1-1.5-2.1-3-3.3-4.3c-1.3-1.4-2.6-2.7-3.9-4.1c-2.4-3.3-1.1-1.8-3.4-5.1
		c-2.6-3.7-5.2-7.4-8.3-10.8c-0.8-0.8-1.5-1.6-2.3-2.4c-0.7-0.6-1.4-1.4-2.3-1.7c-1.4-0.6-2.6-0.3-2.1,1.4c0.3,0.9,1,1.7,1.6,2.4
		c0.8,1,1.5,2,2.3,3c1.5,1.9,2.9,3.8,4.3,5.8c2.7,3.7,1.7,2.7,4.3,6.5c-0.5,0.6-0.5,0.5-1,1.1c-2.8-3.6-9.9-14.7-13.2-18.6
		c-0.7-0.8-2.2-3.4-3.5-2.5c-0.8,0.5-0.7,1.5-0.5,2.3c0.3,1.2,9.5,14.6,11.1,16.9c0.9,1.2,1.7,2.5,2.6,3.8c0.3,0.4,0.5,0.8,0.8,1.2
		c-0.5,0.7-0.3,0.6-0.8,1.3c-2.4-3.2-10.6-11.6-13.1-13.3c-0.6-0.4-1.8-0.8-2.2,0.1c-0.4,0.8-0.6,1.6-0.2,2.4c1.2,2,2.5,3.1,3.6,4.7
		c0,0,0,0,0,0.1c-0.1-0.1-0.2-0.1-0.4-0.2c-0.7-0.3-1.4-0.4-1.8,0.5c-0.3,0.8-0.1,1.7,0.2,2.5c0.4,0.9,4.2,4.9,10.8,10.3
		c5.8,4.8,16.9,15.4,19.5,17.4c-0.2,0.1-0.4,0.1-0.6,0.2c-0.1,0-0.1,0.2,0.1,0.2c0.2-0.1,0.5-0.1,0.7-0.2c0.4,0.3,0.8,0.7,1.3,1
		c0.1,0.1,0.2-0.1,0.1-0.1c-0.4-0.3-0.8-0.6-1.2-0.9c1.1-0.3,2.3-0.7,3.4-1c1.3-0.5,2.7-0.9,3.9-1.5
		C695.3,683.6,695.5,683.5,695.4,683.1z"/>
	<path class="st12" d="M668.8,664.1c-2.2-3.2-5.2-5.7-8.6-7.5c-0.1-0.1-0.2,0.1-0.1,0.2c3.4,1.7,6.3,4.3,8.5,7.4
		C668.7,664.3,668.8,664.2,668.8,664.1z"/>
	<path class="st12" d="M685.9,673c-1-1-2.2-1.6-3.5-1.9c-1.7-0.4-3.3-0.6-4.9-1.4c-1.6-0.8-3-1.9-4-3.3c-0.1-0.1-0.2,0-0.1,0.1
		c1.8,2.3,4.2,3.7,7,4.3c1.5,0.3,3.1,0.6,4.4,1.5c1.1,0.7,2,1.8,2.6,2.9c0.7,1.4,1,3,0.7,4.5c0,0.1,0.2,0.2,0.2,0.1
		C688.7,677.3,687.8,674.7,685.9,673z"/>
	<path class="st3" d="M838,720.4c-0.8,0-3.4-0.2-4.3-0.1c-0.3,0-4.6,0.8-5.8,1c-0.6,0.1-1.2,0.2-1.8,0.2c-0.4,0.2-0.8,0.4-1.3,0.6
		c-1.3,0.6-2.4,0.5-3.8,0.4c-0.8-0.1-1.6,0-2.4,0.1c-0.3,0-0.7-0.1-1,0c-0.2,0.1-0.3,0.3-0.4,0.5c-0.3,0.7-0.7,1.5-0.8,2.3
		c-0.1,0.9-0.1,1.7-0.2,2.6c-0.1,1.3-0.3,2.5-0.5,3.7c-0.5,3.1-1.1,6.1-1.8,9.1c1.1,12.8,2.2,24.5,2.4,26.5
		c0.3,4.2,0.8,31.3,1.8,39.8c0.4,3.1,0.7,6.2,1.1,9.2h14.6c0.1-22.4,4.7-60.3,4.7-64.1C838.5,751,838.9,734.2,838,720.4z"/>
	<path class="st12" d="M728.1,738.5c-2.1-4.9-4.5-9.7-7.1-14.4c-0.1-0.1-0.2,0-0.2,0.1c2.6,4.7,5,9.5,7.1,14.4
		C727.9,738.7,728.1,738.6,728.1,738.5z"/>
	<path class="st12" d="M828.3,765.8c-1.7-4.8-4.2-9.3-7.4-13.3c-0.1-0.1-0.2,0-0.1,0.1c3.2,4,5.7,8.5,7.4,13.3
		C828.2,766,828.4,765.9,828.3,765.8z"/>
	<path class="st15" d="M787.6,767.6c-2.8,0.4-5.7,0.4-8.5,0.4c-2.8,0.1-5.5,0.3-8.3,0.9c-1.4,0.3-2.8,0.6-4.2,0.8
		c-1.5,0.1-2.9,0.1-4.4,0.1c-2.9-0.1-5.8-0.3-8.7-0.5c-3.3-0.2-6.6-0.4-9.9-0.6c-0.1,0-0.1,0.2,0,0.2c5.8,0.4,11.7,0.7,17.5,1.1
		c2.8,0.2,5.6,0.1,8.3-0.5c1.4-0.3,2.7-0.6,4.1-0.8c1.4-0.2,2.9-0.3,4.4-0.4c3.2-0.1,6.4-0.1,9.6-0.5
		C787.7,767.8,787.7,767.6,787.6,767.6z"/>
	<path class="st15" d="M806.1,764c-2.3,1.2-4.9,1.8-7.5,1.7c-0.1,0-0.1,0.2,0,0.2c2.7,0.1,5.3-0.5,7.6-1.8
		C806.3,764.2,806.2,764,806.1,764z"/>
	<path class="st19" d="M761.2,799.2c-3.2-0.2-6.5,0.2-9.7,0.3c-3.2,0-6.5-0.2-9.7-0.5c-4.2-0.4-8.5-1-12.6-1.9
		c-0.3,0.8-0.6,1.6-1,2.4c0.8,0.3,1.6,0.7,2.4,0.9c3.1,1,6.3,1.7,9.5,2.2c6.4,1.2,12.9,1.8,19.4,1.7c1.4,0,2.8-0.1,4.2-0.5
		c1.1-0.3,2.6-0.8,3.1-1.9C767.9,799.4,762.4,799.3,761.2,799.2z M752.6,790.1c2.8-1,5.7-2.2,8.2-3.9c2-1.4,3.9-3.3,4.4-5.7
		c0.2-1,0.1-2.2-1-2.5c-1.3-0.3-2.6,0.8-3.6,1.4c-2.9,1.8-5.8,3.5-8.7,5.3c-2.9,1.7-5.8,3.4-8.8,4.8c-4,2-8.2,3.4-12.6,4.5
		c-0.3,0.6-0.5,1.3-0.8,1.9c4.6-0.4,9.1-1.7,13.5-2.9C746.3,792,749.5,791.1,752.6,790.1z M753.7,811c-1.2-0.7-2.5-1.2-3.8-1.7
		c-1.4-0.6-2.8-1.2-4.3-1.9c-2.8-1.2-5.6-2.4-8.3-3.6c-3-1.3-6.3-2.6-9.2-4.3c-0.3,0.8-0.6,1.6-0.9,2.4c1.6,1.6,3.4,3,5.1,4.3
		c4.2,3.4,8.8,6.4,14.1,7.9c1.3,0.4,2.6,0.7,3.9,0.8c1.1,0.2,2.3,0.3,3.4,0c0.8-0.2,1.5-0.7,1.6-1.5
		C755.4,812.5,754.6,811.5,753.7,811z M747.1,778.4c1.4-1.8,2.5-3.9,3.2-6.1c0.2-0.7,0.4-1.7-0.5-2.1c-0.8-0.4-1.8,0.2-2.4,0.6
		c-0.9,0.7-1.7,1.5-2.5,2.4c-0.9,1-1.8,2.1-2.7,3.1c-1.9,2.1-3.7,4.2-5.6,6.2c-0.7,0.8-1.4,1.5-2.1,2.3c-0.8,1.7-1.5,3.4-2.3,5.1
		c-0.2,0.5-0.4,1-0.6,1.4c1.8-1,3.5-2,5.2-3.2C740.5,785.4,744.2,782.2,747.1,778.4z"/>
	<path class="st19" d="M805.8,753.7c2.1-1,4.3-2.1,6.2-3.6c-0.2,0.9-0.4,1.8-0.5,2.6c-1.3,1.6-2.7,3-4.3,4.3c-2.7,2.3-5.7,4.4-9,5.8
		c-1.1,0.5-3.5,1.2-4.3-0.2c-0.7-1.2,0.6-2.8,1.4-3.5c1.3-1.2,3-1.9,4.6-2.6C801.8,755.6,803.8,754.6,805.8,753.7z"/>
	<path class="st19" d="M812.2,748.1c0,0,0.1,0,0.1,0c-0.1,0.5-0.2,1.1-0.3,1.6c-2.7,0.9-5.5,1.4-8.4,1.3c-3.3-0.1-6.6-0.9-9.6-2.3
		c-1.2-0.6-2.7-1.4-2.8-3c-0.1-1.4,1.1-2.1,2.4-1.9c0.8,0.1,1.4,0.6,2,1.1c0.8,0.5,1.5,1,2.3,1.5c1.6,0.9,3.3,1.5,5.1,1.9
		c3,0.7,6.1,0.7,9.2,0c0,0-0.1,0-0.1-0.1c-4.6-1.2-8.8-4-12.1-7.4c-3.1-3.2-5.9-7.1-6.7-11.5c-0.2-1.1-0.2-2.2-0.1-3.2
		c0.1-0.8,0.1-2.1,1-2.5c0.7-0.3,1.5,0.1,2.1,0.5c0.9,0.7,1.6,1.6,2.3,2.4C803.7,733.2,805.4,742.9,812.2,748.1z"/>
	<path class="st19" d="M812.8,746c-0.1,0.4-0.2,0.8-0.3,1.2c0,0.2-0.1,0.3-0.1,0.5c-2.2-2.7-4.1-5.8-5.4-9.1
		c-1.5-3.7-2.5-7.8-2.6-11.8c0-1.1,0.1-2.1,0.4-3.1c0.2-0.8,0.7-1.8,1.4-2.4c0.7-0.5,1.2-0.2,1.6,0.5c0.5,0.9,0.8,1.8,1,2.8
		c0.9,4.1,0.4,8.3,1,12.4C810.3,740.1,811.3,743.2,812.8,746z"/>
	<path class="st19" d="M752.5,649.3l-7.7,4c-0.1,0.1-0.2,0.1-0.3,0.2c-0.4,0.9,0.1,1.8,1,2.2c1,0.5,2.2,0.3,3.3,0
		c1.5-0.4,2.9-1,4.3-1.5c2.6-0.9,5.2-1.5,7.9-1.9c-0.1,0.1-0.1,0.2-0.2,0.3c-5,2.1-10,4.9-12.7,9.8c-0.6,1.1-1.3,2.5-1.4,3.8
		c-0.1,0.8,0.1,2.1,1.1,2.2c0.6,0.1,1-0.3,1.4-0.7c0.5-0.6,1-1.3,1.4-2c1.1-1.6,2.2-3.1,3.3-4.7c1.2-1.7,2.4-3.4,3.6-5.1
		c0.8-1.1,1.7-2.2,2.9-2.9c-0.1,0.3-0.3,0.6-0.4,0.9c-4.8,5.3-9.2,11.7-8.8,19.1c0.1,1.5,0.3,3.3,1.7,4.1c0.6,0.3,1.2,0.5,1.9,0.2
		c0.7-0.2,1.1-0.9,1.4-1.6c0.7-1.8,0.8-3.7,0.8-5.6c0-2.1,0.2-4.2,0.5-6.4c0.3-2.3,0.9-4.5,1.6-6.7c0.3-1.1,0.7-2.1,1.1-3.1
		c0.3-0.3,0.6-0.6,0.8-0.9c0.1-0.6,0.3-1.3,0.4-1.9C758.7,650.1,755.5,649.2,752.5,649.3z"/>
	<path class="st19" d="M831.8,675.5c0.9,1.4,1.9,2.8,3,4.1c1.9,2.2,4.1,4.2,6.6,5.9c0-0.1,0-0.3,0-0.4c0-0.2,0-0.4,0-0.6
		c-1.5-2.4-2.8-4.9-4-7.4c-0.8-1.7-1.6-3.3-2.5-5c-0.4-0.9-0.9-1.7-1.4-2.5c-0.4-0.7-0.7-1.4-1.2-2c-0.3-0.4-0.7-0.7-1.2-0.8
		c-0.5,0-0.8,0.4-1,0.8c-0.5,1.2-0.4,2.7,0,4C830.3,673,831,674.2,831.8,675.5z M830.4,679.5c-1.6-1.6-3.1-3.2-4.7-4.8
		c-0.5-0.5-1-1.1-1.8-1c-0.6,0-1.1,0.4-1.5,0.8c-1,1.2-0.5,2.8,0.2,3.9c1.9,3,5.2,5.2,8.5,6.5c2,0.9,4.2,1.5,6.4,1.9
		c1,0.2,2.1,0.5,3.2,0.6c0.2,0,0.4,0.1,0.6,0.1c0-0.2,0-0.4,0-0.6c-2.4-0.4-4.7-1.7-6.5-3.2C833.2,682.4,831.8,680.9,830.4,679.5z
		 M822.8,689.4c-2.4-0.4-4.9-0.5-7.3-0.2c-0.9,0.1-1.8,0.5-2.1,1.5c-0.3,1,0.1,1.9,0.7,2.6c1.4,1.7,3.6,2.6,5.7,3.2
		c2.2,0.6,4.6,1,6.9,1c2.2,0,4.4-0.6,6.4-1.5c2.3-1,4.4-2.6,6.2-4.3c0.6-0.6,1.3-1.3,1.8-2c0-0.7,0.1-1.4,0.1-2.2
		c-3.3,1.9-7.1,2.9-11,2.9C827.8,690.5,825.3,689.9,822.8,689.4z"/>
	<path class="st20" d="M753.1,529.8c-0.7-4.5-2-8.8-4-12.9c-3.9-7.9-10.3-14.5-18.5-18c-3.9-1.7-8.2-2.7-12.5-2.8
		c-5-0.1-10,1.1-14.7,2.8c-4.3,1.6-8.4,3.6-12.3,6c-3.6,2.2-6.9,4.8-9.7,8c-2.8,3.2-5,6.9-6.2,10.9c-1.3,4.1-1.6,8.5-1.1,12.8
		c0.4,4.4,1.6,8.8,3.4,12.9c0.8,2,1.6,4,2.9,5.7c6.9,9.6,15.3,15.2,23.1,16c5,0.5,10.1-0.1,14.9-1.4c2.4-0.6,4.8-1.5,7.2-2.3
		c0.3-0.1,0.7-0.2,1-0.2c0.3,0,0.5,0.2,0.8,0.3c2.3,1.4,4.5,2.8,6.8,4.2c1.1,0.7,2.3,1.3,3.4,1.9c0.3,0.2,0.7,0.2,0.7-0.3
		c0-0.7-0.2-1.4-0.3-2.1c-0.2-1.1-0.4-2.1-0.6-3.1c-0.2-0.9-0.4-1.9-0.6-2.8c-0.2-0.9-0.5-1.8-0.5-2.7c0-0.2-0.1-0.3,0-0.5
		c0.1-0.2,0.2-0.3,0.3-0.4c1.2-1,2.3-2,3.4-3c0.5-0.5,3.5-2.9,3.6-3.6c0-0.1,0-0.1,0.1-0.1c3-3.5,6-7.1,7.9-11.4
		C753.5,539.5,753.8,534.6,753.1,529.8z"/>
	<path class="st20" d="M685.2,586.8c-0.1-3.3-0.8-6.5-2.1-9.3c-1.3-2.9-3.3-5.3-5.6-7.3c-2.4-2.1-5-4-7.9-5.5c-1.5-0.8-9-3-17.6-2.5
		c-12.1,0.7-20,9.2-23.4,14.3c-2,2.9-3.5,6.6-4.4,9.9c-1.5,5.4-1.1,10.4,0.4,15.6c0.1,0.2,0.1,0.4,0.1,0.6c0,0.2-0.1,0.4-0.2,0.6
		c-0.1,0.6-0.7,1.4-1,1.9c-0.4,0.7-0.8,1.5-1.2,2.2c-0.3,0.6-2.2,3.3-1.8,3.9c0.1,0.2,0.4,0.2,0.7,0.2c2.7-0.4,5.4-0.8,8-1
		c0.3,0,0.5-0.1,0.8,0c0.2,0.1,0.4,0.3,0.6,0.4c2.3,2.1,5.1,3.6,8,4.6c6.4,2.2,13.8,2,21.1,0.3c6.3-1.5,13-4.1,18-9.5
		C682.5,600.8,685.3,593.5,685.2,586.8z"/>
	<path class="st21" d="M113.2,874.1c13.7,6.7,15.6,8,15.6,23.6c0,67.5,0.1,135,0,202.4c-1.1,29.5,18.4,49.8,48.1,49
		c247.9-0.1,495.8,0,743.8,0c13.3,0,25.6-2.3,35.7-11.8c9.4-8.9,13.8-20,13.8-32.8c0.1-81.4,0.2-162.8-0.1-244.1
		c-0.1-27.2-18.9-44.3-47.5-44.3c-192,0-383.9,0-575.9,0c-56.3,0-112.6,0.2-168.9-0.1c-20.5-0.1-36.3,7-45.6,26
		c-3.4,6.9-9.3,9.5-16.6,9.6c-11.1,0.1-22.1,0-33.2,0c-0.6,0.8-1.1,1.7-1.7,2.5C91.6,860.9,101.8,868.6,113.2,874.1z"/>
	<rect x="-474" y="144" class="st1" width="1999.1" height="1124.5"/>
	<g>
		<g>
			<path class="st0" d="M188.3,789.9h9.7v1.6h-11.5v-18.1h11.2v1.6h-9.4v6.2h8.8v1.6h-8.8V789.9z"/>
			<path class="st0" d="M203,779.6c0.1,0.6,0.1,1.5,0.1,2h0.1c0.7-1.4,2.4-2.3,4.1-2.3c3,0,4.5,2,4.5,4.9v7.3h-1.7V785
				c0-2.5-0.7-4.2-3.2-4.2c-1.8,0-3.6,1.5-3.6,4.7v6.1h-1.7v-9.3c0-0.6,0-1.8-0.1-2.6H203z"/>
			<path class="st0" d="M221.7,781.1h-3.4v7c0,1.8,0.7,2.2,1.8,2.2c0.5,0,1-0.2,1.5-0.4l0.1,1.5c-0.6,0.2-1.3,0.4-2,0.4
				c-1.3,0-3.1-0.6-3.1-3.2v-7.5h-2.5v-1.5h2.5v-3.4h1.7v3.4h3.4V781.1z"/>
			<path class="st0" d="M235.2,786.1h-9.9c0.1,2.4,1.9,4.3,4.4,4.3c1.8,0,3.2-1,3.8-2.1l1.3,1c-1.4,1.8-3.2,2.5-5.1,2.5
				c-3.5,0-6.2-2.7-6.2-6.3s2.6-6.3,6-6.3c3.8,0,5.7,2.7,5.7,5.9C235.2,785.5,235.2,785.8,235.2,786.1z M233.5,784.7
				c-0.1-2.2-1.5-3.9-4-3.9c-2.3,0-4,1.9-4.2,3.9H233.5z"/>
			<path class="st0" d="M238.9,779.6h1.7c0.1,0.6,0.1,1.5,0.1,2h0.1c0.7-1.4,2.1-2.3,3.8-2.3c0.4,0,0.8,0,1.1,0.1l-0.2,1.6
				c-0.2-0.1-0.8-0.2-1.2-0.2c-1.8,0-3.5,1.3-3.5,4.5v6.1H239v-9.3C239,781.6,239,780.4,238.9,779.6z"/>
			<path class="st0" d="M260.9,791.6H259v-7.8l-6.8-10.3h2.3l5.4,8.8l5.5-8.8h2.1l-6.8,10.3V791.6z"/>
			<path class="st0" d="M275.4,791.9c-3.7,0-6.4-2.7-6.4-6.3s2.7-6.3,6.4-6.3c3.7,0,6.4,2.7,6.4,6.3S279.1,791.9,275.4,791.9z
				 M275.4,780.8c-2.8,0-4.5,2.1-4.5,4.8s1.8,4.8,4.5,4.8c2.8,0,4.5-2.1,4.5-4.8S278.2,780.8,275.4,780.8z"/>
			<path class="st0" d="M294.2,791.6c-0.1-0.6-0.1-1.5-0.1-2H294c-0.7,1.4-2.4,2.3-4.1,2.3c-3,0-4.5-2-4.5-4.9v-7.3h1.7v6.6
				c0,2.5,0.7,4.2,3.2,4.2c1.8,0,3.6-1.5,3.6-4.7v-6.1h1.7v9.3c0,0.6,0,1.8,0.1,2.6H294.2z"/>
			<path class="st0" d="M300.2,779.6h1.7c0.1,0.6,0.1,1.5,0.1,2h0.1c0.7-1.4,2.1-2.3,3.8-2.3c0.4,0,0.8,0,1.1,0.1l-0.2,1.6
				c-0.2-0.1-0.8-0.2-1.2-0.2c-1.8,0-3.5,1.3-3.5,4.5v6.1h-1.7v-9.3C300.3,781.6,300.3,780.4,300.2,779.6z"/>
			<path class="st0" d="M325,788.5L325,788.5l6.1-15h2.8v18.1H332v-15.7H332l-6.5,15.7h-1l-6.5-15.7h-0.1v15.7H316v-18.1h2.8
				L325,788.5z"/>
			<path class="st0" d="M349.4,786.1h-9.9c0.1,2.4,1.9,4.3,4.4,4.3c1.8,0,3.2-1,3.8-2.1l1.3,1c-1.4,1.8-3.2,2.5-5.1,2.5
				c-3.5,0-6.2-2.7-6.2-6.3s2.6-6.3,6-6.3c3.8,0,5.7,2.7,5.7,5.9C349.4,785.5,349.4,785.8,349.4,786.1z M347.7,784.7
				c-0.1-2.2-1.5-3.9-4-3.9c-2.3,0-4,1.9-4.2,3.9H347.7z"/>
			<path class="st0" d="M359.5,782.5c-0.5-1-1.6-1.7-2.9-1.7c-1.3,0-2.5,0.5-2.5,1.9c0,1.1,0.9,1.6,2.9,2c2.8,0.6,4.1,1.6,4.1,3.5
				c0,2.7-2.3,3.7-4.5,3.7c-1.8,0-3.6-0.7-4.7-2.3l1.4-1c0.6,1,1.9,1.9,3.3,1.9c1.5,0,2.8-0.5,2.8-2.1c0-1.3-1.3-1.8-3.5-2.3
				c-1.4-0.3-3.4-0.9-3.4-3.2c0-2.4,2.1-3.5,4.3-3.5c1.7,0,3.4,0.8,4.2,2.1L359.5,782.5z"/>
			<path class="st0" d="M370.8,782.5c-0.5-1-1.6-1.7-2.9-1.7c-1.3,0-2.5,0.5-2.5,1.9c0,1.1,0.9,1.6,2.9,2c2.8,0.6,4.1,1.6,4.1,3.5
				c0,2.7-2.3,3.7-4.5,3.7c-1.8,0-3.6-0.7-4.7-2.3l1.4-1c0.6,1,1.9,1.9,3.3,1.9c1.5,0,2.8-0.5,2.8-2.1c0-1.3-1.3-1.8-3.5-2.3
				c-1.4-0.3-3.4-0.9-3.4-3.2c0-2.4,2.1-3.5,4.3-3.5c1.7,0,3.4,0.8,4.2,2.1L370.8,782.5z"/>
			<path class="st0" d="M383.3,783.9c0-2.1-1.1-3.1-3.2-3.1c-1.4,0-2.7,0.6-3.5,1.4l-1-1.1c1-1,2.7-1.7,4.7-1.7
				c2.6,0,4.6,1.4,4.6,4.3v5.2c0,0.9,0.1,2,0.2,2.7h-1.6c-0.1-0.6-0.2-1.3-0.2-1.9h-0.1c-1.1,1.6-2.4,2.2-4.3,2.2
				c-1.8,0-4.1-1-4.1-3.6c0-3.7,4.1-4,8.4-4V783.9z M382.8,785.6c-2.8,0-6.1,0.3-6.1,2.6c0,1.7,1.5,2.3,2.8,2.3c2.5,0,3.8-1.8,3.8-4
				v-0.9H382.8z"/>
			<path class="st0" d="M390.1,794c0.9,1.2,2.8,2.2,4.6,2.2c3.4,0,4.7-2.1,4.7-4.7v-2.2h-0.1c-0.9,1.5-2.8,2.3-4.5,2.3
				c-3.7,0-6.2-2.6-6.2-6.1c0-3.4,2.5-6.2,6.2-6.2c1.7,0,3.6,0.8,4.5,2.4h0.1v-2.1h1.7v11.8c0,2.6-1.2,6.2-6.5,6.2
				c-2.2,0-4.3-0.9-5.7-2.4L390.1,794z M394.9,790.1c2.7,0,4.6-1.9,4.6-4.6c0-2.5-1.9-4.7-4.6-4.7c-2.9,0-4.5,2.2-4.5,4.7
				S392,790.1,394.9,790.1z"/>
			<path class="st0" d="M416.4,786.1h-9.9c0.1,2.4,1.9,4.3,4.4,4.3c1.8,0,3.2-1,3.8-2.1l1.3,1c-1.4,1.8-3.2,2.5-5.1,2.5
				c-3.5,0-6.2-2.7-6.2-6.3s2.6-6.3,6-6.3c3.8,0,5.7,2.7,5.7,5.9C416.5,785.5,416.5,785.8,416.4,786.1z M414.7,784.7
				c-0.1-2.2-1.5-3.9-4-3.9c-2.3,0-4,1.9-4.2,3.9H414.7z"/>
		</g>
	</g>
	<rect x="-474" y="144" class="st1" width="1999.1" height="1124.5"/>
	<rect x="-474" y="144" class="st1" width="1999.1" height="1124.5"/>
	<path class="st21" d="M926.3,411.9H175.2c-16.8,0-30.4-13.6-30.4-30.4v-55.8c0-16.8,13.6-30.4,30.4-30.4h751.1
		c16.8,0,30.4,13.6,30.4,30.4v55.8C956.7,398.3,943.1,411.9,926.3,411.9z"/>
</g>
<g>
</g>
<g>
</g>
<g>
</g>
<g>
</g>
<g>
</g>
<g>
</g>
</svg>
