<?xml version="1.0" encoding="utf-8"?>
<!-- Generator: Adobe Illustrator 26.1.0, SVG Export Plug-In . SVG Version: 6.00 Build 0)  -->
<svg version="1.1" id="Layer_1" xmlns="http://www.w3.org/2000/svg" xmlns:xlink="http://www.w3.org/1999/xlink" x="0px" y="0px"
	 viewBox="0 0 285 100" style="enable-background:new 0 0 285 100;" xml:space="preserve">
<style type="text/css">
	.st0{fill:none;stroke:#231F20;stroke-width:0.5;stroke-miterlimit:10;}
	.st1{fill:#141717;}
	.st2{fill:none;stroke:#231F20;stroke-width:0.75;stroke-miterlimit:10;}
	.st3{fill:#231F20;}
</style>
<g>
	<path class="st0" d="M249.98,97.51H34.8c-17.71,0-32.06-14.35-32.06-32.06V34.08C2.74,16.38,17.1,2.02,34.8,2.02h215.18
		c17.71,0,32.06,14.35,32.06,32.06v31.37C282.04,83.16,267.69,97.51,249.98,97.51z"/>
	<g>
		<g>
			<path class="st1" d="M63.72,36.61c-1.45-2.08-3.83-3.44-7.07-3.44c-3.39,0-7.31,2.03-7.31,6.44c0,4.36,3.63,5.47,7.46,6.73
				c4.84,1.6,10.17,3.15,10.17,10.03c0,6.88-5.76,9.88-11.19,9.88c-4.17,0-8.33-1.7-10.8-5.09l3-2.23c1.5,2.42,4.26,4.31,7.85,4.31
				c3.54,0,7.6-2.23,7.6-6.63c0-4.79-4.02-6.01-8.38-7.36c-4.55-1.4-9.2-3.39-9.2-9.59c0-6.64,5.91-9.44,10.95-9.44
				c4.6,0,8.04,1.94,9.69,4.17L63.72,36.61z"/>
			<path class="st1" d="M90.7,65.38c-0.1-1.21-0.19-2.91-0.19-3.88h-0.1c-1.26,2.62-4.55,4.46-7.75,4.46
				c-5.76,0-8.62-3.73-8.62-9.35v-13.9h3.29v12.54c0,4.75,1.41,7.94,6.15,7.94c3.49,0,6.88-2.81,6.88-8.86V42.71h3.29v17.68
				c0,1.21,0.05,3.44,0.19,4.99H90.7z"/>
			<path class="st1" d="M105.76,61.55v3.83h-3.29V28.77h3.29v17.87h0.1c1.94-2.95,5.33-4.5,8.57-4.5c7.07,0,11.72,5.23,11.72,11.91
				s-4.65,11.91-11.72,11.91c-3.24,0-6.63-1.55-8.57-4.41H105.76z M114.09,44.89c-5.08,0-8.72,3.97-8.72,9.15
				c0,5.18,3.63,9.11,8.72,9.11c5.47,0,8.57-4.07,8.57-9.11S119.56,44.89,114.09,44.89z"/>
			<path class="st1" d="M143.92,42.13c2.47,0,5.47,0.92,6.97,4.79c1.55-3.1,4.31-4.79,7.94-4.79c5.76,0,8.62,3.73,8.62,9.35v13.9
				h-3.29V52.84c0-4.75-1.6-7.94-5.86-7.94c-4.75,0-6.44,4.21-6.44,8.43v12.06h-3.29V52.16c0-4.41-1.07-7.26-5.47-7.26
				c-3.15,0-6.59,2.81-6.59,8.86v11.62h-3.29V47.7c0-1.21-0.05-3.44-0.19-4.99h3.15c0.1,1.21,0.19,2.91,0.19,3.88h0.1
				C137.77,43.97,140.68,42.13,143.92,42.13z"/>
			<path class="st1" d="M177.68,36.32c-1.16,0-2.32-0.97-2.32-2.33c0-1.36,1.16-2.32,2.32-2.32s2.33,0.97,2.33,2.32
				C180.01,35.35,178.84,36.32,177.68,36.32z M179.33,65.38h-3.29V42.71h3.29V65.38z"/>
			<path class="st1" d="M198.31,45.47h-6.39V58.7c0,3.39,1.41,4.17,3.39,4.17c0.92,0,1.99-0.29,2.86-0.73l0.15,2.86
				c-1.16,0.44-2.37,0.68-3.88,0.68c-2.42,0-5.81-1.07-5.81-6.05V45.47h-4.7v-2.76h4.7v-6.39h3.29v6.39h6.39V45.47z"/>
		</g>
	</g>
	<g>
		<line class="st2" x1="254.18" y1="49.77" x2="214.41" y2="49.77"/>
		<g>
			<path class="st3" d="M243.51,40.18c-0.23,0.46-0.12,1.08,0.24,1.38l10.08,8.21l-10.08,8.21c-0.36,0.3-0.47,0.91-0.24,1.38
				c0.23,0.46,0.72,0.6,1.08,0.31l11.11-9.05c0.23-0.18,0.36-0.5,0.36-0.84c0-0.34-0.14-0.66-0.36-0.84l-11.11-9.05
				c-0.13-0.11-0.28-0.16-0.42-0.16C243.91,39.72,243.66,39.88,243.51,40.18z"/>
		</g>
	</g>
</g>
<g>
</g>
<g>
</g>
<g>
</g>
<g>
</g>
<g>
</g>
<g>
</g>
</svg>
