<?xml version="1.0" encoding="utf-8"?>
<!-- Generator: Adobe Illustrator 26.1.0, SVG Export Plug-In . SVG Version: 6.00 Build 0)  -->
<svg version="1.1" id="Layer_1" xmlns="http://www.w3.org/2000/svg" xmlns:xlink="http://www.w3.org/1999/xlink" x="0px" y="0px"
	 viewBox="0 0 1920 1080" style="enable-background:new 0 0 1920 1080;" xml:space="preserve">
<style type="text/css">
	.st0{fill:#010101;}
	
		.st1{clip-path:url(#SVGID_00000054982080669846572260000003585180552003435911_);fill:none;stroke:#010101;stroke-width:0.425;stroke-miterlimit:10;}
	.st2{fill:#37393E;}
	.st3{fill:#9EA5BD;}
	.st4{fill:#464953;}
	.st5{fill:#1E2124;}
	.st6{fill:#A7A6A6;}
	.st7{fill:#E7A477;}
	.st8{fill:url(#SVGID_00000065773887640302871170000013833975472263405957_);}
	.st9{fill:#242424;}
	.st10{fill:url(#SVGID_00000152986435642772629890000011420387961539183785_);}
	.st11{fill:#F2C19D;}
	.st12{fill:url(#SVGID_00000051351003392558936850000009241465691805102505_);}
	.st13{fill:url(#SVGID_00000062175236442944429670000013342334786728176038_);}
	.st14{fill:url(#SVGID_00000041276902052076207820000014503840809117186231_);}
	.st15{fill:url(#SVGID_00000112624934723280481110000013694541746900965284_);}
	.st16{fill:url(#SVGID_00000161600743687798353810000017482022828160352684_);}
	.st17{fill:url(#SVGID_00000183950759921382360180000014325667623258369679_);}
</style>
<g>
	<path class="st0" d="M824.31,298.61h-5.46v-48.84h-17.97v-4.85h41.41v4.85h-17.97V298.61z"/>
	<path class="st0" d="M855.48,268.96c1.9-4.1,6.9-6.75,11.91-6.75c9.02,0,13.5,5.84,13.5,14.64v21.77h-5.16v-19.64
		c0-7.43-2.2-12.44-9.63-12.44c-5.46,0-10.77,4.4-10.77,13.88v18.2h-5.16v-57.33h5.16v27.68H855.48z"/>
	<path class="st0" d="M916.6,275.71c0-6.14-3.34-9.18-9.48-9.18c-4.17,0-8.04,1.67-10.54,4.17l-2.88-3.41
		c2.88-2.88,7.89-5.08,13.95-5.08c7.66,0,13.8,4.25,13.8,12.89v15.55c0,2.73,0.23,5.99,0.61,7.96h-4.63
		c-0.3-1.74-0.53-3.87-0.53-5.76h-0.15c-3.26,4.7-7.2,6.67-12.89,6.67c-5.38,0-12.29-2.88-12.29-10.77
		c0-10.92,12.06-11.91,25.03-11.91V275.71z M915.08,280.87c-8.42,0-18.2,0.91-18.2,7.66c0,5.08,4.32,6.75,8.34,6.75
		c7.28,0,11.38-5.46,11.38-11.75v-2.65H915.08z"/>
	<path class="st0" d="M939.35,263.12c0.15,1.9,0.3,4.55,0.3,6.07h0.15c1.97-4.1,7.13-6.98,12.13-6.98c9.02,0,13.5,5.84,13.5,14.64
		v21.77h-5.16v-19.64c0-7.43-2.2-12.44-9.63-12.44c-5.46,0-10.77,4.4-10.77,13.88v18.2h-5.16v-27.68c0-1.9-0.08-5.38-0.3-7.81
		H939.35z"/>
	<path class="st0" d="M984.09,279.12h0.23l16.38-16h7.43l-17.9,16.23l19.72,19.26h-7.58l-18.05-18.66h-0.23v18.66h-5.16v-57.33h5.16
		V279.12z"/>
	<path class="st0" d="M1055.15,298.61h-5.46v-23.13l-20.1-30.56h6.83l16.15,26.01l16.3-26.01h6.37l-20.1,30.56V298.61z"/>
	<path class="st0" d="M1098.37,299.52c-11,0-18.88-7.96-18.88-18.66s7.89-18.66,18.88-18.66c11.07,0,18.96,7.96,18.96,18.66
		S1109.45,299.52,1098.37,299.52z M1098.37,266.54c-8.19,0-13.42,6.37-13.42,14.33s5.23,14.26,13.42,14.26
		c8.27,0,13.5-6.29,13.5-14.26S1106.64,266.54,1098.37,266.54z"/>
	<path class="st0" d="M1154.19,298.61c-0.15-1.9-0.3-4.55-0.3-6.07h-0.15c-1.97,4.1-7.13,6.98-12.13,6.98
		c-9.02,0-13.5-5.84-13.5-14.64v-21.76h5.16v19.64c0,7.43,2.2,12.44,9.63,12.44c5.46,0,10.77-4.4,10.77-13.88v-18.2h5.16v27.68
		c0,1.9,0.08,5.38,0.3,7.81H1154.19z"/>
</g>
<g>
	<defs>
		<rect id="SVGID_1_" x="-12.68" y="-7.32" width="1946.2" height="1094.73"/>
	</defs>
	<clipPath id="SVGID_00000153683532827129109090000003070929931129193115_">
		<use xlink:href="#SVGID_1_"  style="overflow:visible;"/>
	</clipPath>
	
		<path style="clip-path:url(#SVGID_00000153683532827129109090000003070929931129193115_);fill:none;stroke:#010101;stroke-width:0.425;stroke-miterlimit:10;" d="
		M-34.12,735.49c0,0,613.24,79.37,529.62,395.41"/>
	
		<path style="clip-path:url(#SVGID_00000153683532827129109090000003070929931129193115_);fill:none;stroke:#010101;stroke-width:0.425;stroke-miterlimit:10;" d="
		M-34.12,825.4c0,0,433.25,95.65,362.92,305.5"/>
	
		<path style="clip-path:url(#SVGID_00000153683532827129109090000003070929931129193115_);fill:none;stroke:#010101;stroke-width:0.425;stroke-miterlimit:10;" d="
		M-34.12,933.19c0,0,223.95,94.04,221.34,197.7"/>
	
		<path style="clip-path:url(#SVGID_00000153683532827129109090000003070929931129193115_);fill:none;stroke:#010101;stroke-width:0.425;stroke-miterlimit:10;" d="
		M1747.05-50.02c-239.56,108.03-167.52,316.49,239.56,377.35"/>
	
		<path style="clip-path:url(#SVGID_00000153683532827129109090000003070929931129193115_);fill:none;stroke:#010101;stroke-width:0.425;stroke-miterlimit:10;" d="
		M1790.61-33.29c-88.79,44.13-140.72,308.88,190.98,272.36"/>
</g>
<g>
	<g>
		<path class="st2" d="M1188.11,670.59c-1.59,0-3.22-0.2-4.83-0.4c-1.25-0.15-2.53-0.31-3.78-0.37c-1.4-0.07-2.98-0.09-4.65-0.12
			c-6.4-0.09-14.36-0.2-18.97-3.25c-1.8-1.19-3.3-2.53-4.75-3.82c-3.09-2.75-6-5.35-11.29-5.83c-1.68-0.15-3.4-0.15-5.06-0.15
			c-6.31,0.01-12.83,0.01-19.48-7.83c-8.83-10.42-9.86-17.16-9.16-19.26c0.08-0.24,0.31-0.96,3.82-2.37
			c3.96-1.59,10.93-3.55,18.63-4.26c6.22-0.58,15.08-0.5,21.95,3.15c7.79,4.14,11.56,7.3,14.59,9.84c3.06,2.56,5.47,4.59,10.69,6.61
			c5.73,2.22,19.38,8.19,22.36,15.66c0.82,2.05,0.77,4.07-0.14,6C1195.55,669.42,1191.96,670.59,1188.11,670.59z M1135.33,655.71
			c1.51,0,3.07,0.01,4.6,0.15c5.6,0.51,8.63,3.21,11.83,6.07c1.42,1.27,2.89,2.58,4.64,3.73c4.38,2.89,12.19,3,18.46,3.09
			c1.68,0.02,3.27,0.05,4.69,0.12c1.28,0.07,2.59,0.22,3.85,0.38c5.44,0.66,10.57,1.29,13.77-5.47c0.79-1.68,0.83-3.44,0.12-5.24
			c-2.92-7.32-17.44-13.43-21.82-15.13c-5.36-2.08-7.83-4.15-10.95-6.77c-3-2.51-6.73-5.64-14.43-9.73
			c-11.19-5.94-28.79-2.61-37.42,0.3c-4.25,1.43-5.51,2.42-5.62,2.65c-0.74,2.24,1.05,8.98,8.99,18.34
			c6.36,7.5,12.38,7.5,18.75,7.49C1134.96,655.71,1135.14,655.71,1135.33,655.71z"/>
	</g>
	<g>
		<g>
			<path class="st2" d="M1096.8,625.3c-0.14-0.23-0.17-0.52-0.05-0.78c0.19-0.43,0.68-0.62,1.11-0.43
				c0.4,0.17,40.09,17.53,51.41,19.78c11.52,2.29,40.29,15.81,41.51,16.38c0.42,0.2,0.6,0.7,0.4,1.12c-0.2,0.42-0.7,0.6-1.12,0.4
				c-0.3-0.14-29.8-14.01-41.12-16.25c-11.51-2.28-50.12-19.17-51.76-19.89C1097.02,625.56,1096.89,625.44,1096.8,625.3z"/>
		</g>
		<g>
			<path class="st2" d="M1173.85,654.35c-0.23-0.38-0.13-0.89,0.25-1.14c0.39-0.26,0.91-0.16,1.17,0.23l7.58,11.28
				c0.26,0.38,0.16,0.91-0.23,1.17c-0.39,0.26-0.91,0.16-1.17-0.23l-7.58-11.28C1173.86,654.37,1173.85,654.36,1173.85,654.35z"/>
		</g>
		<g>
			<path class="st2" d="M1172.75,665.29c-0.01-0.01-0.01-0.02-0.02-0.03l-8.26-14.81c-0.23-0.41-0.08-0.92,0.33-1.15
				c0.41-0.23,0.94-0.1,1.15,0.33l8.26,14.81c0.23,0.41,0.08,0.92-0.33,1.15C1173.49,665.81,1172.99,665.68,1172.75,665.29z"/>
		</g>
		<g>
			<path class="st2" d="M1167.6,651.73c-0.05-0.08-0.08-0.16-0.1-0.26c-0.1-0.45,0.18-0.91,0.64-1.01l13.75-3.07
				c0.45-0.1,0.9,0.19,1.01,0.64c0.1,0.45-0.18,0.91-0.64,1.01l-13.75,3.07C1168.14,652.2,1167.78,652.03,1167.6,651.73z"/>
		</g>
		<g>
			<path class="st2" d="M1159.37,664.98c-0.01-0.02-0.03-0.04-0.04-0.07l-9.72-19.57c-0.21-0.42-0.04-0.92,0.38-1.13
				c0.42-0.21,0.92-0.04,1.13,0.38l9.72,19.57c0.21,0.42,0.04,0.92-0.38,1.13C1160.07,665.49,1159.6,665.34,1159.37,664.98z"/>
		</g>
		<g>
			<path class="st2" d="M1134.38,640.67c-0.24-0.4-0.12-0.92,0.28-1.16c0.4-0.24,0.92-0.12,1.16,0.28l7.79,12.7
				c0.24,0.4,0.12,0.92-0.28,1.16c-0.4,0.24-0.92,0.12-1.16-0.28L1134.38,640.67z"/>
		</g>
	</g>
</g>
<g>
	<g>
		<path class="st2" d="M779.92,728.09c-0.15,0-0.24-0.03-0.3-0.05c-2.12-0.65-7.02-5.38-10.4-18.59
			c-2.55-9.94,1.23-15.25,4.87-20.38c0.96-1.36,1.96-2.76,2.8-4.21c2.66-4.58,2.23-8.46,1.77-12.56c-0.22-1.92-0.44-3.92-0.37-6.07
			c0.18-5.52,4.69-12.07,8.31-17.33c0.95-1.38,1.84-2.68,2.59-3.86c0.67-1.05,1.28-2.19,1.88-3.3c2.65-4.9,5.38-9.96,13.41-8.54
			c2.1,0.37,3.77,1.5,4.97,3.35c4.36,6.74,1.34,21.31-0.16,27.26c-1.36,5.41-1.11,8.55-0.79,12.52c0.32,3.94,0.72,8.83-0.41,17.57
			c-1,7.7-6.05,14.96-10.11,19.69c-5.03,5.86-10.65,10.41-14.23,12.71C781.37,727.84,780.37,728.09,779.92,728.09z M801.93,633.91
			c-5.53,0-7.71,4.04-10,8.28c-0.6,1.12-1.23,2.27-1.91,3.35c-0.76,1.19-1.66,2.5-2.61,3.89c-3.55,5.16-7.97,11.59-8.15,16.82
			c-0.07,2.09,0.15,4.04,0.36,5.93c0.48,4.26,0.93,8.29-1.89,13.15c-0.87,1.49-1.87,2.91-2.85,4.28c-3.68,5.18-7.17,10.08-4.73,19.6
			c3.04,11.87,7.5,17.22,9.76,17.92c0.24,0.04,1.78-0.42,5.41-3.06c7.35-5.35,20.22-17.76,21.84-30.3l0.47,0.06l-0.47-0.06
			c1.12-8.63,0.73-13.48,0.41-17.37c-0.33-4.06-0.59-7.27,0.81-12.83c1.15-4.55,4.56-19.9,0.28-26.51c-1.05-1.62-2.5-2.6-4.33-2.93
			C803.46,633.99,802.67,633.91,801.93,633.91z"/>
	</g>
	<g>
		<g>
			<path class="st2" d="M777.71,738.11c0.1,0.24,0.32,0.44,0.6,0.49c0.46,0.09,0.9-0.2,0.99-0.65c0.09-0.43,8.88-42.77,13.59-53.3
				c4.79-10.7,10.39-41.94,10.63-43.27c0.08-0.46-0.22-0.9-0.68-0.98c-0.46-0.08-0.89,0.22-0.98,0.68
				c-0.06,0.32-5.8,32.36-10.51,42.88c-4.78,10.69-13.34,51.9-13.7,53.64C777.63,737.79,777.65,737.96,777.71,738.11z"/>
		</g>
		<g>
			<path class="st2" d="M798.55,658.58c0.18,0.41,0.65,0.62,1.07,0.46c0.44-0.16,0.65-0.65,0.49-1.09l-4.81-12.69
				c-0.16-0.43-0.65-0.65-1.08-0.49c-0.44,0.16-0.65,0.65-0.49,1.08l4.81,12.69C798.54,658.56,798.55,658.57,798.55,658.58z"/>
		</g>
		<g>
			<path class="st2" d="M789,653.15c0,0.01,0.01,0.02,0.01,0.03l7.29,15.28c0.2,0.42,0.7,0.6,1.12,0.4c0.42-0.2,0.62-0.71,0.4-1.12
				l-7.29-15.28c-0.2-0.42-0.7-0.6-1.12-0.4C789.01,652.26,788.83,652.74,789,653.15z"/>
		</g>
		<g>
			<path class="st2" d="M797.07,665.18c0.04,0.08,0.09,0.16,0.15,0.23c0.31,0.34,0.84,0.37,1.19,0.06l10.44-9.43
				c0.34-0.31,0.37-0.84,0.06-1.19c-0.31-0.34-0.84-0.37-1.19-0.06l-10.44,9.43C797.01,664.47,796.94,664.86,797.07,665.18z"/>
		</g>
		<g>
			<path class="st2" d="M781.53,664.24c0.01,0.02,0.02,0.05,0.03,0.07l10.32,19.22c0.22,0.41,0.73,0.56,1.14,0.34
				c0.41-0.22,0.57-0.72,0.34-1.14l-10.32-19.22c-0.22-0.41-0.73-0.56-1.14-0.34C781.52,663.37,781.36,663.84,781.53,664.24z"/>
		</g>
		<g>
			<path class="st2" d="M786.9,698.63c0.18,0.43,0.68,0.63,1.1,0.44c0.43-0.18,0.63-0.68,0.44-1.1l-5.85-13.68
				c-0.18-0.43-0.68-0.63-1.1-0.44c-0.43,0.18-0.63,0.68-0.44,1.1L786.9,698.63z"/>
		</g>
	</g>
</g>
<g>
	<g>
		<path class="st2" d="M754.83,756.87c-3.61,0-7.15-0.78-10.17-2.35c-3.08-1.6-6.07-4.72-7.98-8.35c-2.24-4.24-2.8-8.8-1.57-12.82
			c2.64-8.7-6.21-29.1-10.46-38.9c-3.77-8.68,0.55-15.12,5.12-21.93c1.47-2.19,2.98-4.45,4.24-6.82c1.87-3.52,2.05-8.94,2.23-14.67
			c0.15-4.76,0.31-9.68,1.5-13.69c1.37-4.63,3.96-7.37,7.9-8.38c5.97-1.53,12.24,3.23,18.64,14.16c3.6,6.15,7.23,14.3,10.5,23.57
			c2.38,6.75,1.12,18.85,0.11,28.57c-0.4,3.85-0.78,7.48-0.89,10.33c-0.15,3.85,0.56,8,1.31,12.39c1.19,6.99,2.54,14.9,0.66,23.47
			c-1.28,5.83-5.12,10.51-10.83,13.18C761.93,756.12,758.35,756.87,754.83,756.87z M747.82,629.64c-0.65,0-1.29,0.08-1.95,0.25
			c-8.07,2.07-8.39,11.78-8.69,21.17c-0.19,5.85-0.37,11.37-2.34,15.08c-1.28,2.41-2.81,4.69-4.29,6.9
			c-4.42,6.59-8.6,12.82-5.04,21.02c4.63,10.67,13.25,30.53,10.5,39.56c-2.59,8.53,3.72,17.27,9.08,20.05
			c5.71,2.96,13.42,3,19.63,0.09c5.43-2.54,9.09-6.99,10.3-12.52c1.84-8.39,0.51-16.21-0.67-23.11c-0.76-4.44-1.47-8.64-1.32-12.59
			c0.11-2.88,0.49-6.53,0.9-10.39c1-9.63,2.25-21.6-0.06-28.15C769.79,655.43,759.4,629.64,747.82,629.64z"/>
	</g>
	<g>
		<g>
			<path class="st2" d="M749.1,635.51c0.46-0.09,0.9,0.21,0.98,0.66c0.45,2.34,11.1,57.58,8.38,79.28
				c-2.04,16.28-4.26,37.74-5.24,47.42c-0.55-0.15-1.1-0.28-1.65-0.39c0.99-9.79,3.19-31.07,5.22-47.24
				c2.69-21.44-8.25-78.18-8.36-78.75C748.34,636.04,748.64,635.6,749.1,635.51z"/>
		</g>
		<g>
			<path class="st2" d="M754.39,672.28c-0.02-0.02-0.03-0.04-0.04-0.06l-13.32-19.44c-0.26-0.38-0.16-0.91,0.22-1.17
				c0.38-0.26,0.91-0.17,1.17,0.22l12.38,18.08l6.47-18.28c0.15-0.44,0.63-0.67,1.07-0.51c0.44,0.15,0.67,0.63,0.51,1.07
				l-7.02,19.84c-0.11,0.3-0.37,0.51-0.68,0.55C754.86,672.62,754.57,672.51,754.39,672.28z"/>
		</g>
		<g>
			<path class="st2" d="M756.42,689.68c-0.21-0.25-0.26-0.61-0.1-0.92l11.99-23.41c0.21-0.41,0.72-0.58,1.13-0.36
				c0.41,0.21,0.58,0.72,0.36,1.13l-11.99,23.41c-0.21,0.41-0.72,0.58-1.13,0.36C756.58,689.84,756.49,689.76,756.42,689.68z"/>
		</g>
		<g>
			<path class="st2" d="M736.16,678.63c-0.29-0.36-0.24-0.88,0.11-1.18c0.36-0.3,0.89-0.25,1.18,0.11l21.2,25.46c0,0,0,0,0,0
				c0.29,0.36,0.24,0.88-0.11,1.18c-0.36,0.3-0.89,0.25-1.18-0.11L736.16,678.63C736.16,678.63,736.16,678.63,736.16,678.63z"/>
		</g>
		<g>
			<path class="st2" d="M756.55,719.34l-19.12-23.28c-0.29-0.36-0.24-0.89,0.12-1.18c0.36-0.29,0.89-0.24,1.18,0.12l19.12,23.28
				c0.29,0.36,0.24,0.89-0.12,1.18C757.38,719.75,756.85,719.7,756.55,719.34z"/>
		</g>
	</g>
</g>
<g>
	<path class="st3" d="M820.09,679.1c0,0,8.51-9.53,9.15-13.88c0.64-4.35,0.3-10.13-5.5-10.98c-5.8-0.85-7.44,4.98-8.03,9
		C815.12,667.25,820.09,679.1,820.09,679.1z"/>
	<path class="st4" d="M815.82,689.32c0,0,0.42-11-1.41-14.49s-4.98-7.58-9.01-5.47c-4.03,2.11-2.08,7.16-0.4,10.38
		C806.68,682.97,815.82,689.32,815.82,689.32z"/>
	<g>
		<path class="st2" d="M827.01,688.53c-4.36,0-9.4-0.74-9.71-0.79l-0.86-0.13l0.57-0.66c0.3-0.35,7.43-8.48,10.89-9.83
			c5.87-2.29,9.54-1.68,10.89,1.8c0.81,2.09,0.37,4.02-1.32,5.74c-1.2,1.23-3.01,2.32-5.38,3.24
			C830.92,688.37,829.04,688.53,827.01,688.53z M818.33,686.92c2.65,0.34,10.52,1.23,13.43,0.1c2.21-0.86,3.95-1.9,5.04-3.02
			c1.42-1.45,1.79-3,1.11-4.73c-1.13-2.89-4.38-3.32-9.66-1.26C825.56,679.07,820.12,684.93,818.33,686.92z"/>
	</g>
	<g>
		<g>
			<path class="st5" d="M807.17,701.92c0.05,0.07,0.1,0.12,0.17,0.17c0.31,0.22,0.75,0.15,0.97-0.17
				c13.53-19.05,15.25-31.37,15.81-41.42c0.02-0.39-0.27-0.72-0.66-0.74c-0.39-0.02-0.72,0.27-0.74,0.66
				c-0.54,9.86-2.24,21.95-15.55,40.69C807,701.37,807.01,701.69,807.17,701.92z"/>
		</g>
		<g>
			<path class="st5" d="M807.89,674.09c-0.26,0.23-0.33,0.62-0.13,0.92c4.91,7.48,7.04,13.62,7.06,13.68
				c0.13,0.36,0.52,0.56,0.89,0.43c0.37-0.13,0.56-0.52,0.44-0.89c-0.09-0.26-2.21-6.36-7.22-13.99c-0.21-0.32-0.64-0.41-0.97-0.2
				C807.93,674.05,807.91,674.07,807.89,674.09z"/>
		</g>
	</g>
</g>
<g>
	<path class="st4" d="M1174.12,617.45c0,0,12.41-3.39,16.62-2.01c4.21,1.38,9.27,4.28,7.43,9.89c-1.84,5.61-7.83,4.47-11.72,3.2
		C1182.57,627.26,1174.12,617.45,1174.12,617.45z"/>
	<g>
		<path class="st2" d="M1170.84,638.69c-1.3,0-2.57-0.54-3.82-1.61c-1.36-1.17-2.64-2.95-3.93-5.43
			c-1.87-3.61-1.84-15.48-1.84-15.98l0-0.87l0.73,0.47c0.42,0.27,10.27,6.67,12.3,10.58c3.08,5.94,2.73,10.27-0.97,12.19
			C1172.49,638.47,1171.66,638.69,1170.84,638.69z M1162.22,616.56c0.03,2.86,0.25,11.79,1.73,14.65c1.23,2.37,2.44,4.05,3.7,5.15
			c1.73,1.49,3.44,1.77,5.23,0.84c4.05-2.1,2.54-7.09,0.57-10.91C1171.85,623.19,1164.58,618.14,1162.22,616.56z"/>
	</g>
	<path class="st3" d="M1162.18,615.23c0,0,3.24-10.91,6.19-13.73c2.95-2.82,7.4-5.77,10.65-2.36c3.25,3.4-0.34,7.7-3.06,10.3
		C1173.24,612.04,1162.18,615.23,1162.18,615.23z"/>
	<path class="st3" d="M1143.86,613.45c0,0,8.71,6.02,10.35,9.44c1.64,3.42,2.96,8.2-0.98,10.09c-3.95,1.89-6.71-2.52-8.22-5.68
		C1143.48,624.15,1143.86,613.45,1143.86,613.45z"/>
	<path class="st4" d="M1144.97,613.98c0,0,2.62-8.36,4.93-10.5c2.3-2.14,5.76-4.35,8.23-1.7c2.46,2.66-0.35,5.93-2.48,7.9
		C1153.52,611.66,1144.97,613.98,1144.97,613.98z"/>
	<g>
		<g>
			<path class="st5" d="M1160.35,615.31c-0.03-0.16-0.01-0.34,0.09-0.49c0.2-0.31,0.61-0.39,0.92-0.2
				c6.3,4.09,10.37,16.81,10.55,17.35c0.1,0.36-0.08,0.72-0.43,0.83c-0.35,0.11-0.72-0.08-0.83-0.43c-0.04-0.13-4.11-12.81-10-16.64
				C1160.48,615.64,1160.38,615.48,1160.35,615.31z"/>
		</g>
		<g>
			<path class="st5" d="M1135.19,613.84c-0.01-0.04-0.01-0.07-0.01-0.11c-0.01-0.37,0.28-0.67,0.64-0.68
				c20.16-0.65,30.71,1.96,38.42,3.87c1.34,0.33,2.6,0.64,3.79,0.91c8.12,1.79,12.88,3.08,16.36,5.14c0.31,0.19,0.42,0.59,0.23,0.91
				c-0.19,0.31-0.59,0.42-0.91,0.23c-3.32-1.97-7.99-3.22-15.97-4.99c-1.21-0.27-2.48-0.58-3.82-0.91
				c-7.63-1.89-18.08-4.47-38.06-3.83C1135.54,614.38,1135.26,614.15,1135.19,613.84z"/>
		</g>
		<g>
			<path class="st5" d="M1160.29,615.05c-0.06-0.28,0.07-0.57,0.33-0.71c8.05-4.47,13.44-11.77,13.49-11.84
				c0.22-0.3,0.63-0.36,0.93-0.14c0.3,0.22,0.36,0.63,0.14,0.93c-0.23,0.31-5.61,7.61-13.92,12.22c-0.32,0.18-0.72,0.06-0.9-0.26
				C1160.33,615.17,1160.31,615.11,1160.29,615.05z"/>
		</g>
		<g>
			<path class="st5" d="M1142.12,613.81c-0.03-0.17,0-0.35,0.1-0.5c0.2-0.3,0.62-0.39,0.92-0.18c4.41,2.96,9.21,14.7,9.42,15.2
				c0.14,0.34-0.03,0.73-0.36,0.86s-0.73-0.03-0.86-0.36c-0.05-0.12-4.85-11.86-8.93-14.6
				C1142.25,614.13,1142.15,613.97,1142.12,613.81z"/>
		</g>
	</g>
</g>
<g>
	<path class="st6" d="M1139.66,444.38c-12.04,0-28.66-0.15-31.45-0.17c-3.84,0-10.28-1.5-10.28-11.57c0-7.75,4.67-12.76,11.89-12.76
		c2.21,0,4.35,0.61,6.22,1.77c1.77-6.24,7.41-10.54,13.96-10.54c4.72,0,9.12,2.28,11.84,6.12c1.97-0.95,4.09-1.44,6.3-1.44
		c3.93,0,7.57,1.45,10.26,4.09c2.74,2.69,4.26,6.39,4.26,10.43c0,8.71-5.34,13.67-10.38,13.91
		C1151.41,444.34,1146.21,444.38,1139.66,444.38z M1109.81,420.83c-5.29,0-10.93,3.1-10.93,11.81c0,8.78,5.08,10.62,9.34,10.62
		c16.98,0.16,42.68,0.29,43.89,0.02c0.04-0.01,0.07-0.02,0.11-0.02c4.6-0.21,9.5-4.82,9.5-12.96c0-7.74-5.83-13.57-13.57-13.57
		c-2.19,0-4.29,0.51-6.24,1.52c-0.22,0.11-0.48,0.04-0.62-0.16c-2.53-3.78-6.75-6.04-11.29-6.04c-6.33,0-11.76,4.3-13.21,10.46
		c-0.04,0.15-0.15,0.28-0.29,0.34c-0.15,0.06-0.31,0.04-0.44-0.05C1114.22,421.51,1112.06,420.83,1109.81,420.83z"/>
</g>
<g>
	<g>
		<path class="st6" d="M765.52,504.48c-8.37,0-14.97-0.06-15.96-0.23c-6.37-0.31-13.14-6.59-13.14-17.64c0-5.13,1.92-9.83,5.4-13.24
			c3.42-3.34,8.04-5.18,13.02-5.18c2.84,0,5.56,0.63,8.09,1.87c3.45-4.93,9.06-7.85,15.09-7.85c4.18,0,8.27,1.44,11.52,4.05
			c3.02,2.43,5.22,5.78,6.24,9.5c2.41-1.53,5.17-2.33,8.03-2.33c4.28,0,7.96,1.41,10.64,4.06c2.89,2.86,4.41,7.05,4.41,12.11
			c0,12.75-8.15,14.65-13.01,14.65C802.28,504.29,780.91,504.48,765.52,504.48z M754.84,469.14c-9.96,0-17.47,7.51-17.47,17.47
			c0,10.48,6.32,16.42,12.26,16.69c0.04,0,0.08,0.01,0.12,0.02c1.42,0.35,34.33,0.18,56.1-0.02c5.51,0,12.07-2.38,12.07-13.7
			c0-11.23-7.29-15.23-14.1-15.23c-2.89,0-5.68,0.88-8.06,2.54c-0.13,0.09-0.3,0.11-0.44,0.05c-0.15-0.06-0.26-0.18-0.29-0.34
			c-1.86-7.93-8.85-13.47-17-13.47c-5.85,0-11.28,2.91-14.53,7.78c-0.13,0.2-0.4,0.27-0.61,0.16
			C760.37,469.8,757.67,469.14,754.84,469.14z"/>
	</g>
	<g>
		<path class="st6" d="M823.34,456.27c-4.4,0-7.92-0.03-8.65-0.12c-3.46-0.16-7.14-3.55-7.14-9.51c0-3.16,1.38-6.81,3.61-9.52
			c1.97-2.4,5.54-5.26,11.36-5.26c9.57,0,15.21,4.4,16.63,8.72c1.24-0.73,2.65-1.11,4.1-1.11c4.95,0,8.15,3.43,8.15,8.74
			c0,6.91-4.43,7.94-7.07,7.94C841.35,456.18,831.01,456.27,823.34,456.27z M814.84,455.22c0.98,0.18,18.15,0.09,29.48-0.02
			c2.8,0,6.13-1.21,6.13-6.99c0-5.74-3.72-7.79-7.2-7.79c-1.48,0-2.9,0.45-4.11,1.29c-0.13,0.09-0.3,0.11-0.44,0.05
			c-0.15-0.06-0.26-0.18-0.29-0.34c-0.97-4.15-6.36-8.62-15.88-8.62c-5.44,0-8.78,2.67-10.62,4.91c-2.5,3.04-3.39,6.6-3.39,8.91
			c0,5.37,3.21,8.42,6.24,8.56C814.77,455.21,814.81,455.21,814.84,455.22z M814.84,455.22c0,0,0.01,0,0.01,0
			C814.85,455.22,814.85,455.22,814.84,455.22z"/>
	</g>
</g>
<g>
	<polygon class="st3" points="964.89,611.15 1004.12,662.03 1172.94,556.17 1191.04,578.08 997.8,713.41 953.4,661.2 751.39,794.67 
		721.31,745.12 	"/>
	<polygon class="st3" points="1150.97,545.5 1194.06,600.59 1239.35,526.34 	"/>
</g>
<g>
	<path class="st2" d="M748.57,792.87l-30.59-50.4l0.44-0.24l243.93-134.17l0.25,0.32l38.97,50.54l158.86-99.62l-12.97-16.58
		l90.21-19.56l-0.58,0.95l-45.64,74.84l-12.59-16.09l-183.8,128.72l-0.28-0.33l-44.13-51.89L748.57,792.87z M719.31,742.82
		l29.56,48.71l201.95-133.43l0.27,0.32l44.12,51.88l183.83-128.74l12.3,15.72l44.35-72.72l-86.55,18.77l12.69,16.22l-0.45,0.28
		l-160.04,100.36l-39.25-50.9L719.31,742.82z"/>
</g>
<path class="st7" d="M973.68,522.87c-0.54-1.4-4.62-2.55-9.28-2.34c-4.67,0.2-5.94,2.19-5.94,2.19l-4.7-1.19l-1.56,6.17l6.03,1.52
	c0,0,2.63,1.77,6.75,1.7c4.12-0.06,5.28-5.69,5.28-5.69S974.22,524.27,973.68,522.87z"/>
<linearGradient id="SVGID_00000029008688688521047590000008852065772172672389_" gradientUnits="userSpaceOnUse" x1="932.2336" y1="328.3207" x2="894.0559" y2="287.3914" gradientTransform="matrix(0.9984 0.0562 -0.0562 0.9984 27.3176 146.7059)">
	<stop  offset="0" style="stop-color:#FBAD3C"/>
	<stop  offset="1" style="stop-color:#FFCD3B"/>
</linearGradient>
<path style="fill:url(#SVGID_00000029008688688521047590000008852065772172672389_);" d="M901.1,496.15
	c-9.51,9.61,28.04,35.89,58.08,33.8l-4.43-9.11C924.92,521.74,910.61,486.53,901.1,496.15z"/>
<path class="st9" d="M859.26,649.67c-5.25-2.33,13.01-38.29,15.83-48.4c2.81-10.11,1.91-40.9,6.14-49.56
	c4.24-8.66,20.86,10.09,20.86,10.09s-8,39.33-15.01,49.61C880.07,621.7,865.96,652.65,859.26,649.67z"/>
<linearGradient id="SVGID_00000042698703033660197770000004735040500518046888_" gradientUnits="userSpaceOnUse" x1="-1235.9364" y1="-288.4289" x2="-1221.9597" y2="-394.3809" gradientTransform="matrix(-0.9899 0.1418 0.1418 0.9899 -255.8074 1067.7198)">
	<stop  offset="0" style="stop-color:#242424"/>
	<stop  offset="1" style="stop-color:#464953"/>
</linearGradient>
<path style="fill:url(#SVGID_00000042698703033660197770000004735040500518046888_);" d="M900.69,543.21c0,0,37.89,5.66,43.41,14.4
	c5.52,8.74,0.13,59.24-7.85,61.04c-4.59,1.03-9.34-40.32-7.16-50.01c0,0-36.42-0.88-37.84-1.83c-3.6,0.52-9.54-7.05-10.17-10.43
	c-0.63-3.39-0.6-10.02-0.6-10.02L900.69,543.21z"/>
<path class="st11" d="M939.44,613.05c1.3,1.91,2.62,3.85,2.62,3.85l0.39,4.68l-5.85,2.18c0,0-1.89-5.69-2.47-7.95
	C933.55,613.56,938.13,611.14,939.44,613.05z"/>
<path class="st9" d="M963.54,615.26c-1.46,0.65-25.27,11.28-25.27,11.28s-2.81-1.08-2.82-6.32c5.27,2.21,5.58-5.18,5.58-5.18
	s13.25-4.95,19.41-4.2C966.61,611.58,965,614.61,963.54,615.26z"/>
<linearGradient id="SVGID_00000083787134939912862310000009113068724565516194_" gradientUnits="userSpaceOnUse" x1="879.3503" y1="520.5647" x2="910.2494" y2="520.5647">
	<stop  offset="0" style="stop-color:#FBAD3C"/>
	<stop  offset="1" style="stop-color:#FFCD3B"/>
</linearGradient>
<path style="fill:url(#SVGID_00000083787134939912862310000009113068724565516194_);" d="M903.25,491.16
	c6.22,1.75,7.12,10.93,6.99,20.04s-1.99,24.89-3.3,31.7c-1.32,6.81-25.54,7.44-25.54,7.44c-0.65,0.76-4.13-23.11-0.19-37.89
	C885.13,497.67,894.67,488.74,903.25,491.16z"/>
<path class="st11" d="M863.75,646.96c-0.35,2.18-0.71,4.39-0.71,4.39l-2.8,3.51l-5.49-2.32c0,0,2.43-5.19,3.51-7.14
	S864.11,644.77,863.75,646.96z"/>
<path class="st11" d="M976.69,522.55c-0.86-1.23-8.29-0.31-12.77,1c-4.49,1.31-5.25,3.54-5.25,3.54l-4.85-0.03l-0.04,6.37l6.22,0.04
	c0,0,2.98,1.09,6.96,0.05c3.99-1.04,7.89-5.98,7.89-5.98S977.55,523.78,976.69,522.55z"/>
<path class="st9" d="M878.17,662.64c-2.6,0.05-7.67,0.16-9.83,0.21c-2.16,0.05-15.12-6.07-15.12-6.07s-1-3.74,2.78-7.02
	c2.23,4.08,7.23,0.8,7.23,0.8s3.83,2.52,6.38,3.75c2.55,1.23,8.03,2.66,9.96,4.37C881.5,660.38,880.77,662.59,878.17,662.64z"/>
<linearGradient id="SVGID_00000033367996222955875540000001092296087184467589_" gradientUnits="userSpaceOnUse" x1="4037.1409" y1="2173.011" x2="3980.1394" y2="2167.2607" gradientTransform="matrix(0.4707 0.8823 -0.8823 0.4707 955.1566 -4038.5496)">
	<stop  offset="0" style="stop-color:#FBAD3C"/>
	<stop  offset="1" style="stop-color:#FFCD3B"/>
</linearGradient>
<path style="fill:url(#SVGID_00000033367996222955875540000001092296087184467589_);" d="M898.46,500.68
	c-10.17,8.92,29.29,33.86,59.41,33.9l-3.78-9.4C924.27,523.98,908.63,491.76,898.46,500.68z"/>
<path class="st9" d="M920.83,470.38c3.24-0.45,8.2-4.56,6.42-6.82c-1.79-2.26-5.64-2.71-8.02-3.56c-2.38-0.85-3.71-3.02-12.08-2.5
	c-8.36,0.52-12.6,6.67-12.27,12.59c0.34,5.92,3.69,13.25,3.69,13.25S917.59,470.83,920.83,470.38z"/>
<path class="st11" d="M896.09,492.59c0.97-1.16,4.98-16.56,4.98-16.56s-3.01-3.49-0.59-6.4c2.42-2.91,4.49,3.1,4.49,3.1
	s-0.86,5.41,0.18,5.39c1.04-0.02,2.89-4.95,4.33-6.12c1.44-1.17,12.53-2.2,12.53-2.2s-1.05,11.93-6.87,18.92
	c-2.32,2.79-5.28,2.21-8.02,0.51c-0.89,2.66-1.38,3.68-2.49,6.52C902.9,500.22,895.13,493.76,896.09,492.59z"/>
<path class="st11" d="M985.11,520.28c4.6,0.14,5.88,2.07,5.88,2.07l4.62-1.23l1.62,6.06l-5.92,1.58c0,0-2.57,1.78-6.63,1.77
	c-4.06-0.01-9.16-2.14-12.68-5.87S982.3,520.2,985.11,520.28z"/>
<linearGradient id="SVGID_00000178904260273089105760000014936638757348450725_" gradientUnits="userSpaceOnUse" x1="6722.6992" y1="-3818.6067" x2="6668.4214" y2="-3824.082" gradientTransform="matrix(-0.3458 0.9383 0.9383 0.3458 6919.7578 -4449.6895)">
	<stop  offset="0" style="stop-color:#FBAD3C"/>
	<stop  offset="1" style="stop-color:#FFCD3B"/>
</linearGradient>
<path style="fill:url(#SVGID_00000178904260273089105760000014936638757348450725_);" d="M1043.6,489.59
	c10.75,7.09-23.23,35.75-51.63,39.7l2.34-9.36C1022.28,514.92,1032.85,482.5,1043.6,489.59z"/>
<path class="st9" d="M1022.43,465.49c-3.24-0.22-2.48-5.3-0.86-7.66c1.62-2.36,4.47-7.07,12.8-7.14
	c8.33-0.07,13.69,6.82,13.77,12.71c0.08,5.9-3.48,13.89-3.48,13.89S1025.67,465.72,1022.43,465.49z"/>
<path class="st4" d="M1027.52,467.56c6.71,3.39,17.14,9.75,17.14,9.75s2.94-6.61,3.41-12.24l-21.14-1.06L1027.52,467.56z"/>
<path class="st11" d="M1047.82,484.96c-1.04-1.09-5.4-15.24-5.4-15.24s2.74-3.67,0.14-6.39c-2.6-2.72-4.24,3.38-4.24,3.38
	s-1.84,1.46-6.93-1.39c-5.08-2.84-10.17-0.33-10.17-0.33s1.87,11.76,8.12,18.28c2.49,2.6,5.39,1.82,7.98-0.05
	c1.06,2.58,1.63,4.14,2.93,6.88C1042.28,494.43,1048.86,486.05,1047.82,484.96z"/>
<path class="st9" d="M1109.41,588.16c3.35-4.64-18.31-15.51-30.36-16.8c0,0-10.94-30.1-18.93-35.45
	c-7.98-5.35-18.49,0.34-18.49,0.34s20.03,42.27,31.21,47.62C1084.03,589.22,1105.13,594.07,1109.41,588.16z"/>
<linearGradient id="SVGID_00000162310828715522840600000003345246713131851670_" gradientUnits="userSpaceOnUse" x1="-8317.4561" y1="-592.1376" x2="-8301.7432" y2="-711.2487" gradientTransform="matrix(0.9674 -0.2533 0.2533 0.9674 9253.2451 -919.7533)">
	<stop  offset="0" style="stop-color:#242424"/>
	<stop  offset="1" style="stop-color:#464953"/>
</linearGradient>
<path style="fill:url(#SVGID_00000162310828715522840600000003345246713131851670_);" d="M1047.79,537.2
	c0,0-18.42,38.56-16.24,46.88s9.48,48.21,17.15,46.84c4.41-0.79,3.32-39.2-2.17-46.91c0,0,17.31-31.67,18.21-33.03
	c3.35-0.88,5.29-7.24,4.59-10.44c-0.7-3.2-4.61-7.57-4.61-7.57L1047.79,537.2z"/>
<linearGradient id="SVGID_00000137848581597424517200000013272619283257038253_" gradientUnits="userSpaceOnUse" x1="1031.8661" y1="512.0461" x2="1066.2565" y2="512.0461">
	<stop  offset="0" style="stop-color:#FBAD3C"/>
	<stop  offset="1" style="stop-color:#FFCD3B"/>
</linearGradient>
<path style="fill:url(#SVGID_00000137848581597424517200000013272619283257038253_);" d="M1043.88,483.72
	c-7.98,2.75-11.52,12.03-11.99,19.96c-0.48,7.92,8.48,29.76,10.97,35.6c2.49,5.83,20.2-4.46,22.74-5.25
	c2.54-0.78-2.92-8.52-4.32-18.29c-1.4-9.77-1.97-14.79-3.88-21.74C1055.47,487.04,1051.86,480.97,1043.88,483.72z"/>
<path class="st9" d="M1045.26,450.63c-1.64,1.41-2.25,5.37-1.4,6.36c0.85,0.99,4.86,0.97,6.5-0.44c1.64-1.41,1.82-3.87,0.41-5.51
	C1049.37,449.41,1046.9,449.23,1045.26,450.63z"/>
<path class="st11" d="M1043.97,626.51c0.36,2.17,0.73,4.37,0.73,4.37l2.81,3.48l5.46-2.34c0,0-2.44-5.16-3.52-7.1
	C1048.36,622.99,1043.61,624.33,1043.97,626.51z"/>
<path class="st9" d="M1032.73,648.5c1.29-0.8,22.4-13.88,22.4-13.88s0.66-2.79-3.47-5.6c-1.08,5.34-7.06,1.63-7.06,1.63
	s-10.99,7.79-13.7,13.05C1028.19,648.95,1031.43,649.3,1032.73,648.5z"/>
<path class="st11" d="M1103.98,588.87c1.31,1.77,2.63,3.57,2.63,3.57l4.08,1.83l3.81-4.56c0,0-4.52-3.49-6.36-4.73
	C1106.3,583.74,1102.67,587.09,1103.98,588.87z"/>
<path class="st9" d="M1099.44,609.39c2.33-1.14,18.32-16.07,18.32-16.07s-0.79-4.32-5.64-5.51c-0.12,4.64-6.04,4-6.04,4
	s-2.24,3.98-3.95,6.23c-1.7,2.25-5.91,6.01-6.83,8.41C1094.36,608.85,1097.12,610.52,1099.44,609.39z"/>
<path class="st11" d="M1081.46,535.14c-1.27-4.43,0.18-6.24,0.18-6.24l-2.58-4.02l5.28-3.39l3.31,5.16c0,0,2.48,1.91,3.71,5.78
	c1.23,3.87-1.32,5.81-3.67,6.72C1085.35,540.07,1082.73,539.57,1081.46,535.14z"/>
<linearGradient id="SVGID_00000155866609732510877500000001439911671114377388_" gradientUnits="userSpaceOnUse" x1="2031.9141" y1="-2104.7605" x2="1974.2958" y2="-2110.573" gradientTransform="matrix(0.7729 0.6345 0.6345 -0.7729 856.4505 -2393.4189)">
	<stop  offset="0" style="stop-color:#FBAD3C"/>
	<stop  offset="1" style="stop-color:#FFCD3B"/>
</linearGradient>
<path style="fill:url(#SVGID_00000155866609732510877500000001439911671114377388_);" d="M1045.37,486.72
	c5.24-6.93,25.38,8.59,30.03,14.98c4.65,6.38,11.2,22.12,11.2,22.12l-7.22,3.68c0,0-9.1-17.8-15.78-21.29
	C1056.91,502.72,1040.13,493.65,1045.37,486.72z"/>
<g>
	<g>
		<path class="st6" d="M840.38,569.63h-46.82c-0.26,0-0.48-0.21-0.48-0.48s0.21-0.48,0.48-0.48h46.82c0.26,0,0.48,0.21,0.48,0.48
			S840.64,569.63,840.38,569.63z"/>
	</g>
	<g>
		<path class="st6" d="M1203.3,477.99h-46.82c-0.26,0-0.48-0.21-0.48-0.48s0.21-0.48,0.48-0.48h46.82c0.26,0,0.48,0.21,0.48,0.48
			S1203.56,477.99,1203.3,477.99z"/>
	</g>
	<g>
		<path class="st6" d="M986.62,394.85H939.8c-0.26,0-0.48-0.21-0.48-0.48s0.21-0.48,0.48-0.48h46.82c0.26,0,0.48,0.21,0.48,0.48
			S986.88,394.85,986.62,394.85z"/>
	</g>
	<g>
		<path class="st6" d="M772.11,548.17h-17.25c-0.26,0-0.48-0.21-0.48-0.48s0.21-0.48,0.48-0.48h17.25c0.26,0,0.48,0.21,0.48,0.48
			S772.37,548.17,772.11,548.17z"/>
	</g>
	<g>
		<path class="st6" d="M1063.86,408.84h-17.25c-0.26,0-0.48-0.21-0.48-0.48c0-0.26,0.21-0.48,0.48-0.48h17.25
			c0.26,0,0.48,0.21,0.48,0.48C1064.34,408.62,1064.12,408.84,1063.86,408.84z"/>
	</g>
	<g>
		<path class="st6" d="M1200.14,453.29h-17.25c-0.26,0-0.48-0.21-0.48-0.48c0-0.26,0.21-0.48,0.48-0.48h17.25
			c0.26,0,0.48,0.21,0.48,0.48C1200.62,453.08,1200.4,453.29,1200.14,453.29z"/>
	</g>
	<g>
		<path class="st6" d="M912.63,394.85h-17.25c-0.26,0-0.48-0.21-0.48-0.48s0.21-0.48,0.48-0.48h17.25c0.26,0,0.48,0.21,0.48,0.48
			S912.89,394.85,912.63,394.85z"/>
	</g>
	<g>
		<path class="st6" d="M798.79,548.1h-5.68c-0.26,0-0.48-0.21-0.48-0.48s0.21-0.48,0.48-0.48h5.68c0.26,0,0.48,0.21,0.48,0.48
			S799.05,548.1,798.79,548.1z"/>
	</g>
	<g>
		<path class="st6" d="M1150.56,506.61h-5.68c-0.26,0-0.48-0.21-0.48-0.48s0.21-0.48,0.48-0.48h5.68c0.26,0,0.48,0.21,0.48,0.48
			S1150.82,506.61,1150.56,506.61z"/>
	</g>
	<g>
		<path class="st6" d="M1230.89,453.29h-5.68c-0.26,0-0.48-0.21-0.48-0.48c0-0.26,0.21-0.48,0.48-0.48h5.68
			c0.26,0,0.48,0.21,0.48,0.48C1231.37,453.08,1231.15,453.29,1230.89,453.29z"/>
	</g>
	<g>
		<path class="st6" d="M1000.33,425.97h-5.68c-0.26,0-0.48-0.21-0.48-0.48c0-0.26,0.21-0.48,0.48-0.48h5.68
			c0.26,0,0.48,0.21,0.48,0.48C1000.81,425.76,1000.59,425.97,1000.33,425.97z"/>
	</g>
</g>
<g>
</g>
<g>
</g>
<g>
</g>
<g>
</g>
<g>
</g>
<g>
</g>
</svg>
