<?xml version="1.0" encoding="utf-8"?>
<!-- Generator: Adobe Illustrator 26.1.0, SVG Export Plug-In . SVG Version: 6.00 Build 0)  -->
<svg version="1.1" id="Layer_1" xmlns="http://www.w3.org/2000/svg" xmlns:xlink="http://www.w3.org/1999/xlink" x="0px" y="0px"
	 viewBox="0 0 440 100" style="enable-background:new 0 0 440 100;" xml:space="preserve">
<style type="text/css">
	.st0{fill:none;stroke:#231F20;stroke-width:2;stroke-miterlimit:10;}
	.st1{fill:#141717;}
</style>
<g>
	<path class="st0" d="M405.25,97.74H34.68c-17.71,0-32.06-14.35-32.06-32.06V34.32c0-17.71,14.35-32.06,32.06-32.06h370.57
		c17.71,0,32.06,14.35,32.06,32.06v31.37C437.31,83.39,422.96,97.74,405.25,97.74z"/>
	<g>
		<g>
			<path class="st1" d="M28.39,56.85h0.08l6.72-23.14h3.27l6.73,23.14h0.08l6.57-23.14h2.89l-7.94,26.9h-3.19l-6.76-23.1h-0.08
				l-6.76,23.1H26.8l-7.94-26.9h2.89L28.39,56.85z"/>
			<path class="st1" d="M58.53,42.83H61c0.08,0.95,0.15,2.28,0.15,3.04h0.08c0.99-2.05,3.19-3.5,5.7-3.5c0.65,0,1.18,0.04,1.71,0.19
				L68.29,45c-0.3-0.11-1.14-0.23-1.82-0.23c-2.74,0-5.21,1.98-5.21,6.72v9.12h-2.58V46.75C58.68,45.8,58.64,44.05,58.53,42.83z"/>
			<path class="st1" d="M73.69,37.82c-0.91,0-1.82-0.76-1.82-1.82c0-1.06,0.91-1.82,1.82-1.82c0.91,0,1.82,0.76,1.82,1.82
				C75.51,37.06,74.6,37.82,73.69,37.82z M74.98,60.61H72.4V42.83h2.58V60.61z"/>
			<path class="st1" d="M89.88,45h-5.02v10.37c0,2.66,1.1,3.27,2.66,3.27c0.72,0,1.56-0.23,2.24-0.57l0.11,2.24
				c-0.91,0.34-1.86,0.53-3.04,0.53c-1.9,0-4.56-0.84-4.56-4.75V45h-3.69v-2.17h3.69v-5.02h2.58v5.02h5.02V45z"/>
			<path class="st1" d="M110.05,52.41H95.31c0.08,3.57,2.85,6.46,6.5,6.46c2.66,0,4.71-1.48,5.7-3.08l1.94,1.52
				c-2.09,2.66-4.71,3.76-7.64,3.76c-5.28,0-9.19-3.99-9.19-9.35c0-5.36,3.91-9.35,8.97-9.35c5.58,0,8.51,3.95,8.51,8.81
				C110.09,51.53,110.09,51.95,110.05,52.41z M107.47,50.35c-0.15-3.34-2.2-5.81-5.89-5.81c-3.46,0-6,2.77-6.23,5.81H107.47z"/>
			<path class="st1" d="M136.35,49.14c0-3.08-1.67-4.6-4.75-4.6c-2.09,0-4.03,0.84-5.28,2.09l-1.44-1.71
				c1.44-1.44,3.95-2.55,6.99-2.55c3.84,0,6.92,2.13,6.92,6.46v7.79c0,1.37,0.11,3,0.3,3.99h-2.32c-0.15-0.87-0.27-1.94-0.27-2.89
				h-0.08c-1.63,2.36-3.61,3.34-6.46,3.34c-2.7,0-6.16-1.45-6.16-5.4c0-5.47,6.04-5.96,12.54-5.96V49.14z M135.59,51.72
				c-4.22,0-9.12,0.46-9.12,3.84c0,2.54,2.17,3.38,4.18,3.38c3.65,0,5.7-2.73,5.7-5.89v-1.33H135.59z"/>
			<path class="st1" d="M147.75,42.83c0.08,0.95,0.15,2.28,0.15,3.04h0.08c0.99-2.05,3.57-3.5,6.08-3.5c4.52,0,6.76,2.93,6.76,7.33
				v10.9h-2.58v-9.84c0-3.72-1.1-6.23-4.83-6.23c-2.74,0-5.4,2.2-5.4,6.95v9.12h-2.58V46.75c0-0.95-0.04-2.7-0.15-3.91H147.75z"/>
			<path class="st1" d="M175.68,61.07c-5.51,0-9.46-3.99-9.46-9.35c0-5.36,3.95-9.35,9.46-9.35c5.55,0,9.5,3.99,9.5,9.35
				C185.18,57.08,181.23,61.07,175.68,61.07z M175.68,44.54c-4.1,0-6.72,3.19-6.72,7.18c0,3.99,2.62,7.14,6.72,7.14
				c4.14,0,6.76-3.15,6.76-7.14C182.44,47.73,179.82,44.54,175.68,44.54z"/>
			<path class="st1" d="M198.75,45h-5.02v10.37c0,2.66,1.1,3.27,2.66,3.27c0.72,0,1.56-0.23,2.24-0.57l0.11,2.24
				c-0.91,0.34-1.86,0.53-3.04,0.53c-1.9,0-4.56-0.84-4.56-4.75V45h-3.69v-2.17h3.69v-5.02h2.58v5.02h5.02V45z"/>
			<path class="st1" d="M205.51,45.76c0.95-2.05,3.46-3.38,5.96-3.38c4.52,0,6.76,2.93,6.76,7.33v10.9h-2.58v-9.84
				c0-3.72-1.1-6.23-4.83-6.23c-2.74,0-5.4,2.2-5.4,6.95v9.12h-2.58V31.89h2.58v13.87H205.51z"/>
			<path class="st1" d="M241.08,52.41h-14.74c0.08,3.57,2.85,6.46,6.5,6.46c2.66,0,4.71-1.48,5.7-3.08l1.94,1.52
				c-2.09,2.66-4.71,3.76-7.64,3.76c-5.28,0-9.19-3.99-9.19-9.35c0-5.36,3.91-9.35,8.97-9.35c5.58,0,8.51,3.95,8.51,8.81
				C241.11,51.53,241.11,51.95,241.08,52.41z M238.49,50.35c-0.15-3.34-2.2-5.81-5.89-5.81c-3.46,0-6,2.77-6.23,5.81H238.49z"/>
			<path class="st1" d="M246.51,42.83h2.47c0.08,0.95,0.15,2.28,0.15,3.04h0.08c0.99-2.05,3.19-3.5,5.7-3.5
				c0.65,0,1.18,0.04,1.71,0.19L256.28,45c-0.3-0.11-1.14-0.23-1.82-0.23c-2.74,0-5.21,1.98-5.21,6.72v9.12h-2.58V46.75
				C246.66,45.8,246.63,44.05,246.51,42.83z"/>
			<path class="st1" d="M283.29,55.98h0.04l9-22.27h4.18v26.9h-2.74V37.25h-0.08l-9.73,23.37h-1.44l-9.73-23.37h-0.08v23.37H270
				v-26.9h4.18L283.29,55.98z"/>
			<path class="st1" d="M319.66,52.41h-14.74c0.08,3.57,2.85,6.46,6.5,6.46c2.66,0,4.71-1.48,5.7-3.08l1.94,1.52
				c-2.09,2.66-4.71,3.76-7.64,3.76c-5.28,0-9.19-3.99-9.19-9.35c0-5.36,3.91-9.35,8.97-9.35c5.58,0,8.51,3.95,8.51,8.81
				C319.7,51.53,319.7,51.95,319.66,52.41z M317.07,50.35c-0.15-3.34-2.2-5.81-5.89-5.81c-3.46,0-6,2.77-6.23,5.81H317.07z"/>
			<path class="st1" d="M334.71,47.05c-0.76-1.48-2.39-2.51-4.37-2.51c-1.86,0-3.76,0.8-3.76,2.77c0,1.67,1.33,2.43,4.26,3.04
				c4.18,0.87,6.16,2.43,6.16,5.21c0,4.06-3.42,5.51-6.69,5.51c-2.7,0-5.4-1.06-7.03-3.46l2.05-1.52c0.91,1.56,2.85,2.77,4.94,2.77
				c2.2,0,4.18-0.8,4.18-3.12c0-1.86-1.86-2.62-5.24-3.42c-2.09-0.49-5.09-1.4-5.09-4.79c0-3.61,3.12-5.17,6.35-5.17
				c2.47,0,5.09,1.18,6.23,3.19L334.71,47.05z"/>
			<path class="st1" d="M351.58,47.05c-0.76-1.48-2.39-2.51-4.37-2.51c-1.86,0-3.76,0.8-3.76,2.77c0,1.67,1.33,2.43,4.26,3.04
				c4.18,0.87,6.16,2.43,6.16,5.21c0,4.06-3.42,5.51-6.69,5.51c-2.7,0-5.4-1.06-7.03-3.46l2.05-1.52c0.91,1.56,2.85,2.77,4.94,2.77
				c2.2,0,4.18-0.8,4.18-3.12c0-1.86-1.86-2.62-5.24-3.42c-2.09-0.49-5.09-1.4-5.09-4.79c0-3.61,3.12-5.17,6.35-5.17
				c2.47,0,5.09,1.18,6.23,3.19L351.58,47.05z"/>
			<path class="st1" d="M370.2,49.14c0-3.08-1.67-4.6-4.75-4.6c-2.09,0-4.03,0.84-5.28,2.09l-1.44-1.71
				c1.44-1.44,3.95-2.55,6.99-2.55c3.84,0,6.92,2.13,6.92,6.46v7.79c0,1.37,0.11,3,0.3,3.99h-2.32c-0.15-0.87-0.27-1.94-0.27-2.89
				h-0.08c-1.63,2.36-3.61,3.34-6.46,3.34c-2.7,0-6.16-1.45-6.16-5.4c0-5.47,6.04-5.96,12.54-5.96V49.14z M369.44,51.72
				c-4.22,0-9.12,0.46-9.12,3.84c0,2.54,2.17,3.38,4.18,3.38c3.65,0,5.7-2.73,5.7-5.89v-1.33H369.44z"/>
			<path class="st1" d="M380.23,64.19c1.41,1.82,4.1,3.27,6.8,3.27c5.09,0,6.95-3.15,6.95-6.99v-3.34h-0.08
				c-1.37,2.2-4.14,3.49-6.72,3.49c-5.55,0-9.19-3.84-9.19-9.04c0-5.05,3.65-9.19,9.19-9.19c2.58,0,5.32,1.25,6.72,3.53h0.08v-3.08
				h2.58v17.63c0,3.88-1.79,9.27-9.65,9.27c-3.27,0-6.46-1.37-8.55-3.57L380.23,64.19z M387.45,58.41c3.99,0,6.84-2.81,6.84-6.92
				c0-3.72-2.85-6.95-6.84-6.95c-4.29,0-6.72,3.23-6.72,6.95C380.72,55.22,383.16,58.41,387.45,58.41z"/>
			<path class="st1" d="M419.44,52.41H404.7c0.08,3.57,2.85,6.46,6.5,6.46c2.66,0,4.71-1.48,5.7-3.08l1.94,1.52
				c-2.09,2.66-4.71,3.76-7.64,3.76c-5.28,0-9.19-3.99-9.19-9.35c0-5.36,3.91-9.35,8.97-9.35c5.58,0,8.51,3.95,8.51,8.81
				C419.48,51.53,419.48,51.95,419.44,52.41z M416.86,50.35c-0.15-3.34-2.2-5.81-5.89-5.81c-3.46,0-6,2.77-6.23,5.81H416.86z"/>
		</g>
	</g>
</g>
<g>
</g>
<g>
</g>
<g>
</g>
<g>
</g>
<g>
</g>
<g>
</g>
</svg>
